<svg id="Layer_1" data-name="Layer 1" xmlns="http://www.w3.org/2000/svg" viewBox="0 0 500 499"><defs><style>.cls-1{fill:#eab818;}.cls-2{fill:#ed9015;}.cls-3{fill:#bc2a54;}.cls-4{fill:#891a45;}.cls-5{fill:#1bc1a9;}.cls-6{fill:#0cafaf;}.cls-7{fill:#f26606;}.cls-8{fill:#109bad;}.cls-9{fill:#0e7987;}</style></defs><rect class="cls-1" x="58.06" y="80.72" width="383.88" height="418.28"/><rect class="cls-2" x="58.06" y="80.72" width="258.16" height="418.28"/><polygon class="cls-3" points="312.8 0 58.06 80.72 312.8 80.72 312.8 0"/><polygon class="cls-4" points="312.8 80.72 312.8 40.36 185.42 80.72 312.8 80.72"/><path class="cls-5" d="M126.48,344.19a27.53,27.53,0,0,0-36.61,0L73.22,359.5h0L36.59,393.17a27.48,27.48,0,0,1-36.59,0l44.68,41.12a27.53,27.53,0,0,0,36.61,0L97.93,419h0l36.61-33.68a27.54,27.54,0,0,1,36.62,0Z"/><path class="cls-5" d="M205.21,305.58a27.49,27.49,0,0,0-36.6,0L152,320.89l0,0-25.42,23.38,44.65,41.05,42.11-38.61a27.5,27.5,0,0,1,36.61,0Z"/><path class="cls-6" d="M228.66,327.13l-23.45-21.55a27.49,27.49,0,0,0-36.6,0l-15.06,13.84a151.56,151.56,0,0,0,47.94,38.09l11.8-10.82a27.24,27.24,0,0,1,22.52-6.61A117.77,117.77,0,0,0,228.66,327.13Z"/><path class="cls-5" d="M373.52,344.19a27.53,27.53,0,0,1,36.61,0l16.65,15.31h0l36.62,33.67a27.48,27.48,0,0,0,36.59,0l-44.7,41.12a27.5,27.5,0,0,1-36.59,0l5.41,5h0l-58.67-54a27.54,27.54,0,0,0-36.62,0Z"/><path class="cls-5" d="M294.81,305.58a27.47,27.47,0,0,1,36.58,0L348,320.87h0l25.42,23.38L328.82,385.3l-42.09-38.62a27.52,27.52,0,0,0-36.62,0Z"/><path class="cls-6" d="M271.36,327.13l23.45-21.55a27.47,27.47,0,0,1,36.58,0l15.06,13.84a151.64,151.64,0,0,1-47.93,38.09l-11.79-10.83a27.31,27.31,0,0,0-22.52-6.59A115.36,115.36,0,0,1,271.36,327.13Z"/><path class="cls-5" d="M233.07,224.09c-37.59-34.58-85.82-46.3-107.71-26.16-7.61,7-10.94,16.95-10.6,28.38,23.32.61,52.32,13.36,76.86,35.91s38.39,49.25,39,70.69c12.44.32,23.27-2.75,30.86-9.74C283.42,303,270.67,258.67,233.07,224.09Z"/><path class="cls-6" d="M118.77,207.06a39.73,39.73,0,0,0-4,19.24c23.32.61,52.32,13.36,76.86,35.91s38.39,49.25,39,70.7a50,50,0,0,0,20.92-3.69c11-22.54-2.92-59.7-35.4-89.58S143.28,197,118.77,207.06Z"/><path class="cls-7" d="M131,193.87c.63-.38,1.29-.72,2-1.05C132.27,193.15,131.61,193.49,131,193.87Z"/><path class="cls-7" d="M115.15,219.2a43.8,43.8,0,0,0-.32,5.89A43.8,43.8,0,0,1,115.15,219.2Z"/><path class="cls-7" d="M117.61,209.37a32.45,32.45,0,0,1,2.28-4.57A35.4,35.4,0,0,0,117.61,209.37Z"/><path class="cls-7" d="M121,203a30.19,30.19,0,0,1,4.13-4.86A30.19,30.19,0,0,0,121,203Z"/><path class="cls-7" d="M115.31,217.64a38.36,38.36,0,0,1,1.64-6.7A37.71,37.71,0,0,0,115.31,217.64Z"/><path class="cls-7" d="M137.9,190.71c.56-.19,1.11-.43,1.68-.59C139,190.29,138.47,190.52,137.9,190.71Z"/><path class="cls-7" d="M272.21,294.7h-.1c0,.41,0,.83,0,1.21C272.14,295.5,272.21,295.11,272.21,294.7Z"/><path class="cls-7" d="M156.32,188.18s0-.06,0-.08c-.44,0-.87.05-1.3.05Z"/><path class="cls-7" d="M125.68,197.67a2,2,0,0,1-.24.16s0,0,0,0Z"/><path class="cls-7" d="M146.88,188.59c.57-.08,1.15-.1,1.73-.14C148,188.49,147.45,188.51,146.88,188.59Z"/><path class="cls-7" d="M271.67,303.37c.08-.51.1-1.06.17-1.59C271.77,302.31,271.75,302.86,271.67,303.37Z"/><path class="cls-7" d="M269.36,311.63c.2-.52.46-1,.65-1.55C269.81,310.61,269.56,311.11,269.36,311.63Z"/><path class="cls-7" d="M261.56,323.12l.06,0c.07-.08.12-.16.18-.24A1.22,1.22,0,0,1,261.56,323.12Z"/><path class="cls-7" d="M265.93,318a21.34,21.34,0,0,0,1.14-1.82C266.71,316.81,266.34,317.42,265.93,318Z"/><path class="cls-7" d="M261.28,323.33a33.8,33.8,0,0,1-5.28,3.82A33.8,33.8,0,0,0,261.28,323.33Z"/><path class="cls-7" d="M247.37,330.9a48.73,48.73,0,0,1-7.29,1.51A48.47,48.47,0,0,0,247.37,330.9Z"/><path class="cls-7" d="M232,332.85a60.63,60.63,0,0,0,6.39-.28A60.63,60.63,0,0,1,232,332.85Z"/><path class="cls-7" d="M254,328.2a38.54,38.54,0,0,1-5,2.09A41.58,41.58,0,0,0,254,328.2Z"/><path class="cls-8" d="M191.62,262.22c-24.5-22.54-53.46-35.27-76.76-35.91.68,21.43,14.54,48.08,39,70.62s53.45,35.26,76.75,35.89C230,311.39,216.13,284.76,191.62,262.22Z"/><path class="cls-9" d="M141.2,231.48c6.25,15.5,17.56,31.79,33.42,46.37s33.57,25,50.42,30.75c-6.25-15.5-17.56-31.79-33.42-46.38S158.05,237.23,141.2,231.48Z"/><path class="cls-5" d="M267,224.09c37.59-34.58,85.8-46.3,107.69-26.16,7.61,7,10.94,16.95,10.6,28.38-23.32.61-52.34,13.36-76.84,35.91s-38.39,49.25-39,70.69c-12.43.33-23.26-2.75-30.87-9.74C216.6,303,229.35,258.67,267,224.09Z"/><path class="cls-6" d="M381.23,207.06a40,40,0,0,1,4,19.24c-23.32.61-52.34,13.36-76.84,35.91s-38.39,49.25-39,70.7a50,50,0,0,1-20.92-3.69c-10.95-22.54,2.93-59.7,35.41-89.58S356.72,197,381.23,207.06Z"/><path class="cls-7" d="M369,193.87c-.65-.38-1.31-.72-2-1.05C367.73,193.15,368.39,193.49,369,193.87Z"/><path class="cls-7" d="M384.85,219.2a43.71,43.71,0,0,1,.32,5.89A43.71,43.71,0,0,0,384.85,219.2Z"/><path class="cls-7" d="M382.39,209.37a32.45,32.45,0,0,0-2.28-4.57A35.4,35.4,0,0,1,382.39,209.37Z"/><path class="cls-7" d="M379,203a30.19,30.19,0,0,0-4.13-4.86A30.19,30.19,0,0,1,379,203Z"/><path class="cls-7" d="M384.69,217.64a38.36,38.36,0,0,0-1.64-6.7A37.71,37.71,0,0,1,384.69,217.64Z"/><path class="cls-7" d="M362.1,190.71c-.56-.19-1.11-.43-1.68-.59C361,190.29,361.53,190.52,362.1,190.71Z"/><path class="cls-7" d="M227.8,294.7h.11c0,.41,0,.83,0,1.21C227.89,295.5,227.8,295.11,227.8,294.7Z"/><path class="cls-7" d="M343.68,188.18v-.08c.46,0,.89.07,1.32.05Z"/><path class="cls-7" d="M374.3,197.67l.26.16s0,0,0,0A2.16,2.16,0,0,0,374.3,197.67Z"/><path class="cls-7" d="M353.12,188.59c-.57-.08-1.15-.1-1.73-.14C352,188.49,352.55,188.51,353.12,188.59Z"/><path class="cls-7" d="M228.35,303.37c-.09-.51-.1-1.06-.17-1.59C228.25,302.31,228.26,302.86,228.35,303.37Z"/><path class="cls-7" d="M230.65,311.63c-.2-.52-.46-1-.66-1.55C230.2,310.61,230.45,311.11,230.65,311.63Z"/><path class="cls-7" d="M238.45,323.12s0,0,0,0-.12-.16-.18-.24A1.49,1.49,0,0,0,238.45,323.12Z"/><path class="cls-7" d="M234.09,318c-.41-.59-.78-1.19-1.14-1.82C233.31,316.81,233.68,317.42,234.09,318Z"/><path class="cls-7" d="M238.74,323.33a33.8,33.8,0,0,0,5.28,3.82A33.8,33.8,0,0,1,238.74,323.33Z"/><path class="cls-7" d="M252.65,330.9a48.47,48.47,0,0,0,7.29,1.51A48.47,48.47,0,0,1,252.65,330.9Z"/><path class="cls-7" d="M268,332.85a60.82,60.82,0,0,1-6.4-.28A60.82,60.82,0,0,0,268,332.85Z"/><path class="cls-7" d="M246,328.2a39.28,39.28,0,0,0,5,2.09A42.43,42.43,0,0,1,246,328.2Z"/><path class="cls-8" d="M308.4,262.22c24.48-22.54,53.44-35.27,76.74-35.91-.68,21.43-14.54,48.08-39,70.62s-53.44,35.26-76.74,35.89C270.06,311.39,283.89,284.76,308.4,262.22Z"/><path class="cls-9" d="M358.8,231.48c-6.25,15.5-17.56,31.8-33.42,46.37s-33.55,25-50.4,30.75c6.25-15.5,17.56-31.79,33.42-46.38S342,237.23,358.8,231.48Z"/><path class="cls-5" d="M281.91,317.35c0,16.21-14.29,29.34-31.91,29.34h0c-17.61,0-31.89-13.13-31.89-29.34V228.79c0-16.21,14.28-29.33,31.89-29.35h0c17.62,0,31.91,13.14,31.91,29.35Z"/><path class="cls-6" d="M250,229.76c-17.61,0-31.89,13.12-31.87,29.33l0,58.26c0,16.21,14.28,29.34,31.89,29.34s31.91-13.13,31.91-29.34l0-58.26C281.91,242.88,267.62,229.74,250,229.76Z"/></svg>