<?xml version="1.0" encoding="utf-8"?>
<!-- Generator: Adobe Illustrator 23.0.3, SVG Export Plug-In . SVG Version: 6.00 Build 0)  -->
<svg version="1.1" id="Layer_1" xmlns="http://www.w3.org/2000/svg" xmlns:xlink="http://www.w3.org/1999/xlink" x="0px" y="0px"
	 viewBox="0 0 100 100" style="enable-background:new 0 0 100 100;" xml:space="preserve">
<style type="text/css">
	
		.st0{fill-rule:evenodd;clip-rule:evenodd;fill:none;stroke:#333333;stroke-width:2;stroke-linecap:round;stroke-linejoin:round;stroke-miterlimit:3;}
	.st1{fill:none;stroke:#333333;stroke-linecap:round;stroke-linejoin:round;stroke-miterlimit:3;}
</style>
<path class="st0" d="M8.48,77.82v8.36c0,1.83,0.65,3.39,1.97,4.69l0.02,0.02c0.97,0.96,2.09,1.55,3.37,1.78h0.02
	c0.37,0.07,0.74,0.12,1.13,0.14c0.03,0,0.07,0,0.09,0h3.21c0.04,0,0.08,0,0.13,0h57.65c1.69,0,3.31-0.6,4.88-1.78l0.02-0.02
	c1.55-1.2,2.58-2.65,3.09-4.34v-0.02l10.65-36.31c0.56-1.92,0.35-3.57-0.63-4.93l-0.02-0.02c-0.94-1.4-2.36-2.12-4.25-2.17H65.39
	l-4.71-6.63c-0.16-0.22-0.37-0.39-0.61-0.52c-0.24-0.13-0.5-0.19-0.77-0.19H38.9c-1.72-0.04-3.36,0.55-4.91,1.76l-0.02,0.02
	c-1.55,1.2-2.57,2.64-3.05,4.31L18.08,85.75"/>
<line class="st0" x1="45.83" y1="22.15" x2="27.51" y2="22.15"/>
<path class="st0" d="M59.08,29.23h9.99c1.83,0,3.39,0.64,4.69,1.94l0.02,0.02c1.26,1.28,1.9,2.83,1.92,4.64v0.35"/>
<polyline class="st0" points="52.26,29.09 52.26,7.12 19.95,7.12 19.95,22.17 4.92,22.15 4.9,22.17 4.9,71.21 15.01,71.21 "/>
<line class="st0" x1="14.85" y1="42.74" x2="23.37" y2="42.74"/>
<line class="st0" x1="21.35" y1="49.58" x2="14.85" y2="49.58"/>
<polyline class="st0" points="4.92,22.15 4.9,22.15 4.9,22.17 "/>
<line class="st0" x1="25.37" y1="35.89" x2="14.76" y2="35.89"/>
<line class="st0" x1="4.92" y1="22.15" x2="19.95" y2="7.12"/>
<line class="st0" x1="14.85" y1="56.42" x2="19.35" y2="56.42"/>
<line class="st0" x1="14.66" y1="29.03" x2="45.83" y2="29.03"/>
<g>
	<g>
		<path class="st1" d="M74.16,83.61H45.48c-0.91,0-1.67-0.65-1.81-1.54l-3.89-24.02v0c-0.13-0.77,0.09-1.56,0.6-2.16
			c0.51-0.6,1.25-0.94,2.03-0.94h27c1.32,0,2.42,0.94,2.63,2.24l3.94,24.29c0.09,0.53-0.06,1.07-0.41,1.48
			C75.21,83.37,74.7,83.61,74.16,83.61z M42.4,56.68c-0.28,0-0.53,0.12-0.72,0.33c-0.18,0.21-0.26,0.48-0.21,0.76c0,0,0,0,0,0
			l3.89,24.02c0.01,0.05,0.05,0.09,0.11,0.09h28.69c0.03,0,0.06-0.01,0.08-0.04c0.02-0.03,0.03-0.06,0.02-0.09l-3.94-24.29
			c-0.07-0.46-0.46-0.79-0.93-0.79H42.4z"/>
	</g>
	<g>
		<path class="st1" d="M41.83,82.63H37.6c-0.54,0-1.05-0.24-1.4-0.65c-0.35-0.41-0.5-0.95-0.41-1.48l3.88-22.98
			c0.24-1.49,1.51-2.57,3.02-2.57c0.48,0,0.86,0.39,0.86,0.86s-0.39,0.86-0.86,0.86c-0.66,0-1.21,0.47-1.32,1.12l-3.88,22.98
			c0,0.03,0,0.06,0.03,0.08c0.02,0.03,0.05,0.04,0.08,0.04h4.23c0.48,0,0.86,0.39,0.86,0.86C42.69,82.24,42.3,82.63,41.83,82.63z"/>
	</g>
	<g>
		<path class="st1" d="M45.45,59.5c-0.42,0-0.79-0.31-0.85-0.73c-0.07-0.47,0.25-0.91,0.72-0.98c0.18-0.09,0.6-1.02,0.37-2.55
			c-0.23-1.49-0.88-2.25-1.11-2.32c-0.06,0.04-0.23,0.24-0.34,0.74c-0.1,0.47-0.57,0.76-1.03,0.65c-0.47-0.11-0.76-0.57-0.65-1.03
			c0.27-1.19,0.91-1.94,1.77-2.07c0.45-0.07,1.32-0.01,2.12,1.15c0.47,0.68,0.81,1.61,0.97,2.61c0.15,1,0.1,1.99-0.14,2.78
			c-0.42,1.35-1.23,1.67-1.67,1.74C45.54,59.5,45.49,59.5,45.45,59.5z"/>
	</g>
	<g>
		<path class="st1" d="M52.63,59.5c-0.42,0-0.79-0.31-0.85-0.73c-0.07-0.47,0.25-0.91,0.72-0.98c0.19-0.09,0.6-1.02,0.37-2.55
			c-0.23-1.49-0.88-2.25-1.11-2.32c-0.06,0.04-0.23,0.24-0.34,0.74c-0.1,0.47-0.57,0.76-1.03,0.65c-0.47-0.11-0.76-0.57-0.65-1.03
			c0.27-1.19,0.91-1.94,1.77-2.07c0.45-0.07,1.32-0.01,2.12,1.15c0.47,0.68,0.81,1.61,0.97,2.61c0.15,1,0.1,1.99-0.14,2.78
			c-0.42,1.35-1.23,1.67-1.67,1.74C52.72,59.5,52.68,59.5,52.63,59.5z"/>
	</g>
	<g>
		<path class="st1" d="M59.71,59.5c-0.42,0-0.79-0.31-0.85-0.73c-0.07-0.47,0.25-0.91,0.72-0.98c0.18-0.09,0.6-1.02,0.37-2.55
			c-0.23-1.49-0.88-2.25-1.11-2.32c-0.06,0.04-0.23,0.24-0.34,0.74c-0.1,0.47-0.57,0.76-1.03,0.65c-0.47-0.11-0.76-0.57-0.65-1.03
			c0.27-1.19,0.91-1.94,1.77-2.07c0.45-0.07,1.32-0.01,2.12,1.15c0.47,0.68,0.81,1.61,0.97,2.61c0.15,1,0.1,1.99-0.14,2.78
			c-0.42,1.35-1.23,1.67-1.67,1.74C59.8,59.5,59.76,59.5,59.71,59.5z"/>
	</g>
	<g>
		<path class="st1" d="M66.52,59.5c-0.42,0-0.79-0.31-0.85-0.73c-0.07-0.47,0.25-0.91,0.72-0.98c0.18-0.09,0.6-1.02,0.37-2.55
			c-0.23-1.5-0.88-2.26-1.11-2.32c-0.06,0.04-0.23,0.24-0.34,0.74c-0.1,0.47-0.57,0.76-1.03,0.65c-0.47-0.11-0.76-0.57-0.65-1.03
			c0.27-1.19,0.91-1.94,1.77-2.07c0.45-0.07,1.32-0.01,2.12,1.15c0.47,0.68,0.81,1.61,0.97,2.61c0.15,1,0.1,1.99-0.14,2.78
			c-0.42,1.35-1.23,1.67-1.67,1.74C66.6,59.5,66.56,59.5,66.52,59.5z"/>
	</g>
	<g>
		<path class="st1" d="M50.55,76.64h-0.83c-0.48,0-0.86-0.39-0.86-0.86s0.39-0.86,0.86-0.86h0.83c0.48,0,0.86,0.39,0.86,0.86
			S51.02,76.64,50.55,76.64z"/>
	</g>
	<g>
		<path class="st1" d="M49.9,72.82h-0.83c-0.48,0-0.86-0.39-0.86-0.86c0-0.48,0.39-0.86,0.86-0.86h0.83c0.48,0,0.86,0.39,0.86,0.86
			C50.76,72.43,50.37,72.82,49.9,72.82z"/>
	</g>
	<g>
		<path class="st1" d="M49.25,68.93h-0.83c-0.48,0-0.86-0.39-0.86-0.86s0.39-0.86,0.86-0.86h0.83c0.48,0,0.86,0.39,0.86,0.86
			S49.73,68.93,49.25,68.93z"/>
	</g>
	<g>
		<path class="st1" d="M55.03,76.64H54.2c-0.48,0-0.86-0.39-0.86-0.86s0.39-0.86,0.86-0.86h0.83c0.48,0,0.86,0.39,0.86,0.86
			S55.5,76.64,55.03,76.64z"/>
	</g>
	<g>
		<path class="st1" d="M54.38,72.82h-0.83c-0.48,0-0.86-0.39-0.86-0.86c0-0.48,0.39-0.86,0.86-0.86h0.83c0.48,0,0.86,0.39,0.86,0.86
			C55.24,72.43,54.85,72.82,54.38,72.82z"/>
	</g>
	<g>
		<path class="st1" d="M53.73,68.93H52.9c-0.48,0-0.86-0.39-0.86-0.86s0.39-0.86,0.86-0.86h0.83c0.48,0,0.86,0.39,0.86,0.86
			S54.21,68.93,53.73,68.93z"/>
	</g>
	<g>
		<path class="st1" d="M52.97,65.05h-0.83c-0.48,0-0.86-0.39-0.86-0.86c0-0.48,0.39-0.86,0.86-0.86h0.83c0.48,0,0.86,0.39,0.86,0.86
			C53.84,64.66,53.45,65.05,52.97,65.05z"/>
	</g>
	<g>
		<path class="st1" d="M59.51,76.64h-0.83c-0.48,0-0.86-0.39-0.86-0.86s0.39-0.86,0.86-0.86h0.83c0.48,0,0.86,0.39,0.86,0.86
			S59.98,76.64,59.51,76.64z"/>
	</g>
	<g>
		<path class="st1" d="M58.86,72.82h-0.83c-0.48,0-0.86-0.39-0.86-0.86c0-0.48,0.39-0.86,0.86-0.86h0.83c0.48,0,0.86,0.39,0.86,0.86
			C59.72,72.43,59.34,72.82,58.86,72.82z"/>
	</g>
	<g>
		<path class="st1" d="M58.21,68.93h-0.83c-0.48,0-0.86-0.39-0.86-0.86s0.39-0.86,0.86-0.86h0.83c0.48,0,0.86,0.39,0.86,0.86
			S58.69,68.93,58.21,68.93z"/>
	</g>
	<g>
		<path class="st1" d="M57.45,65.05h-0.83c-0.48,0-0.86-0.39-0.86-0.86c0-0.48,0.39-0.86,0.86-0.86h0.83c0.48,0,0.86,0.39,0.86,0.86
			C58.32,64.66,57.93,65.05,57.45,65.05z"/>
	</g>
	<g>
		<path class="st1" d="M63.99,76.64h-0.83c-0.48,0-0.86-0.39-0.86-0.86s0.39-0.86,0.86-0.86h0.83c0.48,0,0.86,0.39,0.86,0.86
			S64.46,76.64,63.99,76.64z"/>
	</g>
	<g>
		<path class="st1" d="M63.34,72.82h-0.83c-0.48,0-0.86-0.39-0.86-0.86c0-0.48,0.39-0.86,0.86-0.86h0.83c0.48,0,0.86,0.39,0.86,0.86
			C64.2,72.43,63.82,72.82,63.34,72.82z"/>
	</g>
	<g>
		<path class="st1" d="M62.69,68.93h-0.83c-0.48,0-0.86-0.39-0.86-0.86s0.39-0.86,0.86-0.86h0.83c0.48,0,0.86,0.39,0.86,0.86
			S63.17,68.93,62.69,68.93z"/>
	</g>
	<g>
		<path class="st1" d="M61.94,65.05h-0.83c-0.48,0-0.86-0.39-0.86-0.86c0-0.48,0.39-0.86,0.86-0.86h0.83c0.48,0,0.86,0.39,0.86,0.86
			C62.8,64.66,62.41,65.05,61.94,65.05z"/>
	</g>
	<g>
		<path class="st1" d="M67.82,72.82h-0.83c-0.48,0-0.86-0.39-0.86-0.86c0-0.48,0.39-0.86,0.86-0.86h0.83c0.48,0,0.86,0.39,0.86,0.86
			C68.68,72.43,68.3,72.82,67.82,72.82z"/>
	</g>
	<g>
		<path class="st1" d="M67.17,68.93h-0.83c-0.48,0-0.86-0.39-0.86-0.86s0.39-0.86,0.86-0.86h0.83c0.48,0,0.86,0.39,0.86,0.86
			S67.65,68.93,67.17,68.93z"/>
	</g>
	<g>
		<path class="st1" d="M66.42,65.05h-0.83c-0.48,0-0.86-0.39-0.86-0.86c0-0.48,0.39-0.86,0.86-0.86h0.83c0.48,0,0.86,0.39,0.86,0.86
			C67.28,64.66,66.89,65.05,66.42,65.05z"/>
	</g>
</g>
</svg>
