<svg id="comment-webboard" xmlns="http://www.w3.org/2000/svg" viewBox="0 0 500.9 500"><defs><style>.cls-1{fill:#ffc10a;}.cls-2{fill:#0071bc;}.cls-3{fill:#fff;fill-rule:evenodd;}</style></defs><g id="Message"><path class="cls-1" d="M337.33,0H102.67A102,102,0,0,0,0,102.67V249.33c0,51.34,38.13,93.87,88,101.2v74.8a15.39,15.39,0,0,0,7.33,13.2c2.94,1.47,4.4,1.47,7.34,1.47s5.86-1.47,8.8-2.93l110-82.14,4.4-2.93H337.33A102,102,0,0,0,440,249.33V102.67A102,102,0,0,0,337.33,0Z"/></g><g id="Message-2" data-name="Message"><path class="cls-2" d="M224.13,139H416.67a83.71,83.71,0,0,1,84.23,84.23V343.57c0,42.11-31.29,77-72.2,83V488a12.65,12.65,0,0,1-6,10.83,10.85,10.85,0,0,1-6,1.2c-2.41,0-4.82-1.2-7.22-2.41L319.2,430.21l-3.61-2.41H224.13a83.71,83.71,0,0,1-84.23-84.23V223.23A83.71,83.71,0,0,1,224.13,139Z"/></g><g id="Page-1"><g id="Core"><g id="create"><path id="Shape" class="cls-3" d="M253.9,327.52V360h32.48l94-94.86-32.47-32.48-94,94.86Zm151.27-87.16a8.28,8.28,0,0,0,0-12l-19.66-19.66a8.27,8.27,0,0,0-12,0l-15.39,15.39,32.48,32.47,14.53-16.23Z"/></g></g></g></svg>