<?xml version="1.0" standalone="no"?>
<!DOCTYPE svg PUBLIC "-//W3C//DTD SVG 1.1//EN" "http://www.w3.org/Graphics/SVG/1.1/DTD/svg11.dtd" >
<svg>
<metadata>
Created by FontForge 20090914 at Mon Feb  1 03:42:02 2021
 By www-data
Copyright (c) 2020 by Fontcraft: Jutipong Poosumas. All rights reserved.
</metadata>
<defs>
<font id="FCIconicRegular" horiz-adv-x="0" >
  <font-face 
    font-family="FC Iconic"
    font-weight="400"
    font-stretch="normal"
    units-per-em="1000"
    panose-1="2 11 5 0 4 2 0 2 0 3"
    ascent="800"
    descent="-200"
    x-height="374"
    cap-height="513"
    bbox="-434 -307 747 771.542"
    underline-thickness="50"
    underline-position="-126"
    unicode-range="U+0020-U+FB02"
  />
<missing-glyph horiz-adv-x="599" 
d="M50 0v495h499v-495h-499zM529 16c3.33301 0 5 1.66699 5 5v454c0 2.66699 -1.66699 4 -5 4h-459c-3.33301 0 -5 -1.33301 -5 -4v-454c0 -3.33301 1.66699 -5 5 -5h459z" />
    <glyph glyph-name="Agrave" unicode="A&#x300;" horiz-adv-x="469" 
d="M468 0l-188 513h-91l-188 -513h79l44 126h220l44 -126h80zM141 182l92 259h2l92 -259h-186zM234 566l-91 138h79l77 -138h-65z" />
    <glyph glyph-name="Aacute" unicode="A&#x301;" horiz-adv-x="469" 
d="M468 0l-188 513h-91l-188 -513h79l44 126h220l44 -126h80zM141 182l92 259h2l92 -259h-186zM267 704h80l-91 -138h-66z" />
    <glyph glyph-name="Atilde" unicode="A&#x303;" horiz-adv-x="469" 
d="M468 0l-188 513h-91l-188 -513h79l44 126h220l44 -126h80zM141 182l92 259h2l92 -259h-186zM171 629c-12 0 -22.002 -4.99902 -30.002 -14.999s-12 -25.333 -12 -46h-56c0 37.333 7.66699 65.666 23 84.999s37.666 29 66.999 29c14.667 0 27.834 -3.33301 39.501 -10
s22.834 -14.334 33.501 -23.001s21.167 -16.334 31.5 -23.001s21.5 -10 33.5 -10c13.333 0 24.333 5.83301 33 17.5s13.334 27.5 14.001 47.5h55c0 -36 -8.5 -64.167 -25.5 -84.5s-39.833 -30.5 -68.5 -30.5c-15.333 0 -28.833 3.33301 -40.5 10
s-22.834 13.834 -33.501 21.501s-21.167 14.834 -31.5 21.501s-21.166 10 -32.499 10z" />
    <glyph glyph-name="Egrave" unicode="E&#x300;" horiz-adv-x="413" 
d="M380 454v59h-342v-513h342v58h-267v169h229v58h-229v169h267zM212 566l-91 138h79l77 -138h-65z" />
    <glyph glyph-name="Eacute" unicode="E&#x301;" horiz-adv-x="413" 
d="M380 454v59h-342v-513h342v58h-267v169h229v58h-229v169h267zM252 704h80l-91 -138h-66z" />
    <glyph glyph-name="Igrave" unicode="I&#x300;" horiz-adv-x="160" 
d="M43 0h74v513h-74v-513zM52 566l-91 138h79l77 -138h-65z" />
    <glyph glyph-name="Iacute" unicode="I&#x301;" horiz-adv-x="160" 
d="M43 0h74v513h-74v-513zM120 704h80l-91 -138h-66z" />
    <glyph glyph-name="Ograve" unicode="O&#x300;" horiz-adv-x="521" 
d="M322 566h-66l-91 138h80zM261 56c50 0 89.167 17.833 117.5 53.5s42.5 84.834 42.5 147.501s-14.167 111.334 -42.5 146.001s-67.5 52 -117.5 52c-50.667 0 -90.167 -17.333 -118.5 -52s-42.5 -83.334 -42.5 -146.001s14.167 -111.834 42.5 -147.501
s67.833 -53.5 118.5 -53.5zM261 519c36.667 0 69.502 -6.16797 98.502 -18.501s53.833 -29.833 74.5 -52.5s36.5 -50.167 47.5 -82.5s16.5 -68.5 16.5 -108.5c0 -41.333 -5.5 -78.166 -16.5 -110.499s-26.833 -59.833 -47.5 -82.5s-45.5 -40 -74.5 -52
s-61.833 -18 -98.5 -18c-74.667 0 -133 23.167 -175 69.5s-63 110.833 -63 193.5c0 40 5.5 76.167 16.5 108.5s26.667 59.833 47 82.5s45.166 40.167 74.499 52.5s62.666 18.5 99.999 18.5z" />
    <glyph glyph-name="Oacute" unicode="O&#x301;" horiz-adv-x="521" 
d="M210 566l78 138h79l-91 -138h-66zM261 56c50 0 89.167 17.833 117.5 53.5s42.5 84.834 42.5 147.501s-14.167 111.334 -42.5 146.001s-67.5 52 -117.5 52c-50.667 0 -90.167 -17.333 -118.5 -52s-42.5 -83.334 -42.5 -146.001s14.167 -111.834 42.5 -147.501
s67.833 -53.5 118.5 -53.5zM261 519c36.667 0 69.502 -6.16797 98.502 -18.501s53.833 -29.833 74.5 -52.5s36.5 -50.167 47.5 -82.5s16.5 -68.5 16.5 -108.5c0 -41.333 -5.5 -78.166 -16.5 -110.499s-26.833 -59.833 -47.5 -82.5s-45.5 -40 -74.5 -52
s-61.833 -18 -98.5 -18c-74.667 0 -133 23.167 -175 69.5s-63 110.833 -63 193.5c0 40 5.5 76.167 16.5 108.5s26.667 59.833 47 82.5s45.166 40.167 74.499 52.5s62.666 18.5 99.999 18.5z" />
    <glyph glyph-name="Otilde" unicode="O&#x303;" horiz-adv-x="521" 
d="M199 629c-12 0 -22.0039 -4.99902 -30.0039 -14.999s-12.333 -25.333 -13 -46h-55c0 37.333 7.5 65.666 22.5 84.999s37.5 29 67.5 29c14.667 0 27.834 -3.33301 39.501 -10s22.667 -14.334 33 -23.001s20.833 -16.334 31.5 -23.001s22 -10 34 -10
c13.333 0 24.333 5.83301 33 17.5s13.334 27.5 14.001 47.5h54c0 -36 -8.33301 -64.167 -25 -84.5s-39.667 -30.5 -69 -30.5c-14.667 0 -28 3.33301 -40 10s-23.167 13.834 -33.5 21.501s-20.666 14.834 -30.999 21.501s-21.166 10 -32.499 10zM260.996 56.001
c50 0 89.167 17.833 117.5 53.5s42.5 84.834 42.5 147.501s-14.167 111.334 -42.5 146.001s-67.5 52 -117.5 52c-50.667 0 -90.167 -17.333 -118.5 -52s-42.5 -83.334 -42.5 -146.001s14.167 -111.834 42.5 -147.501s67.833 -53.5 118.5 -53.5zM260.996 519.001
c36.667 0 69.502 -6.16797 98.502 -18.501s53.833 -29.833 74.5 -52.5s36.5 -50.167 47.5 -82.5s16.5 -68.5 16.5 -108.5c0 -41.333 -5.5 -78.166 -16.5 -110.499s-26.833 -59.833 -47.5 -82.5s-45.5 -40 -74.5 -52s-61.833 -18 -98.5 -18c-74.667 0 -133 23.167 -175 69.5
s-63 110.833 -63 193.5c0 40 5.5 76.167 16.5 108.5s26.667 59.833 47 82.5s45.166 40.167 74.499 52.5s62.666 18.5 99.999 18.5z" />
    <glyph glyph-name="Ugrave" unicode="U&#x300;" horiz-adv-x="483" 
d="M112 188c0 -40.667 11.333 -72.667 34 -96s54.334 -35 95.001 -35c41.333 0 73.333 11.5 96 34.5s34 55.167 34 96.5v325h74v-332c0 -57.333 -18.333 -102.833 -55 -136.5s-86.334 -50.5 -149.001 -50.5c-31.333 0 -59.5 4.33301 -84.5 13s-46.167 21.167 -63.5 37.5
s-30.833 36 -40.5 59s-14.5 48.833 -14.5 77.5v332h74v-325zM152 704h80l77 -138h-66z" />
    <glyph glyph-name="Uacute" unicode="U&#x301;" horiz-adv-x="483" 
d="M112 188c0 -40.667 11.333 -72.667 34 -96s54.334 -35 95.001 -35c41.333 0 73.333 11.5 96 34.5s34 55.167 34 96.5v325h74v-332c0 -57.333 -18.333 -102.833 -55 -136.5s-86.334 -50.5 -149.001 -50.5c-31.333 0 -59.5 4.33301 -84.5 13s-46.167 21.167 -63.5 37.5
s-30.833 36 -40.5 59s-14.5 48.833 -14.5 77.5v332h74v-325zM353 704l-91 -138h-65l77 138h79z" />
    <glyph glyph-name="Yacute" unicode="Y&#x301;" horiz-adv-x="449" 
d="M445 513h-88l-132 -211h-1l-132 211h-88l183 -280v-233h75v231zM350 704l-91 -138h-65l77 138h79z" />
    <glyph glyph-name="agrave" unicode="a&#x300;" horiz-adv-x="387" 
d="M200 379c-46 0 -83 -10.668 -111 -32.001s-44 -50 -48 -86h66c3.33301 20.667 12.833 36.667 28.5 48s36.167 17 61.5 17s45.333 -7.16699 60 -21.5s22 -34.166 22 -59.499v-21l-111 -7c-95.333 -7.33301 -143 -45 -143 -113c0 -32.667 11.333 -59.167 34 -79.5
s52 -30.5 88 -30.5c28 0 54.833 6.5 80.5 19.5s43.5 31.833 53.5 56.5h1v-70h70v249c0 39.333 -13.5 70.833 -40.5 94.5s-64.167 35.5 -111.5 35.5zM279 145.999c0 -13.333 -3 -26.1689 -9 -38.502s-14 -23.166 -24 -32.499s-21.5 -16.833 -34.5 -22.5
s-26.833 -8.5 -41.5 -8.5c-22 0 -39.833 5.83301 -53.5 17.5s-20.5 26.834 -20.5 45.501c0 39.333 27.333 61 82 65l101 8v-34zM211 435.996l-91 138h79l77 -138h-65z" />
    <glyph glyph-name="aacute" unicode="a&#x301;" horiz-adv-x="387" 
d="M200 379c-46 0 -83 -10.668 -111 -32.001s-44 -50 -48 -86h66c3.33301 20.667 12.833 36.667 28.5 48s36.167 17 61.5 17s45.333 -7.16699 60 -21.5s22 -34.166 22 -59.499v-21l-111 -7c-95.333 -7.33301 -143 -45 -143 -113c0 -32.667 11.333 -59.167 34 -79.5
s52 -30.5 88 -30.5c28 0 54.833 6.5 80.5 19.5s43.5 31.833 53.5 56.5h1v-70h70v249c0 39.333 -13.5 70.833 -40.5 94.5s-64.167 35.5 -111.5 35.5zM279 145.999c0 -13.333 -3 -26.1689 -9 -38.502s-14 -23.166 -24 -32.499s-21.5 -16.833 -34.5 -22.5
s-26.833 -8.5 -41.5 -8.5c-22 0 -39.833 5.83301 -53.5 17.5s-20.5 26.834 -20.5 45.501c0 39.333 27.333 61 82 65l101 8v-34zM247 573.996h80l-91 -138h-66z" />
    <glyph glyph-name="atilde" unicode="a&#x303;" horiz-adv-x="387" 
d="M200 379c-46 0 -83 -10.668 -111 -32.001s-44 -50 -48 -86h66c3.33301 20.667 12.833 36.667 28.5 48s36.167 17 61.5 17s45.333 -7.16699 60 -21.5s22 -34.166 22 -59.499v-21l-111 -7c-95.333 -7.33301 -143 -45 -143 -113c0 -32.667 11.333 -59.167 34 -79.5
s52 -30.5 88 -30.5c28 0 54.833 6.5 80.5 19.5s43.5 31.833 53.5 56.5h1v-70h70v249c0 39.333 -13.5 70.833 -40.5 94.5s-64.167 35.5 -111.5 35.5zM279 145.999c0 -13.333 -3 -26.1689 -9 -38.502s-14 -23.166 -24 -32.499s-21.5 -16.833 -34.5 -22.5
s-26.833 -8.5 -41.5 -8.5c-22 0 -39.833 5.83301 -53.5 17.5s-20.5 26.834 -20.5 45.501c0 39.333 27.333 61 82 65l101 8v-34zM143 495.996c-12 0 -20.667 -4.33496 -26 -13.002s-8 -22.667 -8 -42h-56c0 36.667 6.33301 63.834 19 81.501s34 26.5 64 26.5
c12 0 23.333 -3 34 -9s20.834 -12.333 30.501 -19s19.167 -12.834 28.5 -18.501s18.666 -8.5 27.999 -8.5c24 0 37 19.333 39 58h54c0 -35.333 -7 -62.666 -21 -81.999s-35.333 -29 -64 -29c-13.333 0 -25.5 2.83301 -36.5 8.5s-21.333 11.834 -31 18.501l-28 19
c-9 6 -17.833 9 -26.5 9z" />
    <glyph glyph-name="egrave" unicode="e&#x300;" horiz-adv-x="402" 
d="M374 172l0.00195312 20.998c0 56.667 -14.833 101.834 -44.5 135.501s-71.5 50.5 -125.5 50.5s-96.833 -17 -128.5 -51s-47.5 -81 -47.5 -141c0 -62.667 15.667 -110.5 47 -143.5s75 -49.5 131 -49.5c46.667 0 83.667 10.5 111 31.5s45.333 51.5 54 91.5h-68
c-6.66699 -21.333 -17.834 -38 -33.501 -50s-36.5 -18 -62.5 -18c-32 0 -57.833 10.833 -77.5 32.5s-29.834 51.834 -30.501 90.501h275zM204.002 323.998c30 0 54.168 -10 72.501 -30s28.166 -46 29.499 -78h-206c2.66699 32 13.167 58 31.5 78s42.5 30 72.5 30z
M123.003 573.998h79l78 -138h-66z" />
    <glyph glyph-name="eacute" unicode="e&#x301;" horiz-adv-x="402" 
d="M374 172l0.00195312 20.998c0 56.667 -14.833 101.834 -44.5 135.501s-71.5 50.5 -125.5 50.5s-96.833 -17 -128.5 -51s-47.5 -81 -47.5 -141c0 -62.667 15.667 -110.5 47 -143.5s75 -49.5 131 -49.5c46.667 0 83.667 10.5 111 31.5s45.333 51.5 54 91.5h-68
c-6.66699 -21.333 -17.834 -38 -33.501 -50s-36.5 -18 -62.5 -18c-32 0 -57.833 10.833 -77.5 32.5s-29.834 51.834 -30.501 90.501h275zM204.002 323.998c30 0 54.168 -10 72.501 -30s28.166 -46 29.499 -78h-206c2.66699 32 13.167 58 31.5 78s42.5 30 72.5 30z
M322.003 573.998l-91 -138h-66l77 138h80z" />
    <glyph glyph-name="igrave" unicode="i&#x300;" horiz-adv-x="172" 
d="M50 0h72v374h-72v-374zM-35 574h79l78 -138h-66z" />
    <glyph glyph-name="iacute" unicode="i&#x301;" horiz-adv-x="172" 
d="M50 0h72v374h-72v-374zM207 574l-91 -138h-66l77 138h80z" />
    <glyph glyph-name="ograve" unicode="o&#x300;" horiz-adv-x="402" 
d="M201 379c-54.667 0 -98.334 -16.833 -131.001 -50.5s-49 -81.167 -49 -142.5c0 -60.667 16.333 -107.834 49 -141.501s76.334 -50.5 131.001 -50.5s98.334 16.833 131.001 50.5s49 80.834 49 141.501c0 61.333 -16.333 108.833 -49 142.5s-76.334 50.5 -131.001 50.5z
M201 50c-32 0 -58.167 11.833 -78.5 35.5s-30.5 57.167 -30.5 100.5c0 44 10.167 77.833 30.5 101.5s46.5 35.5 78.5 35.5s58.333 -11.833 79 -35.5s31 -57.5 31 -101.5c0 -43.333 -10.333 -76.833 -31 -100.5s-47 -35.5 -79 -35.5zM280 436h-66l-91 138h79z" />
    <glyph glyph-name="oacute" unicode="o&#x301;" horiz-adv-x="402" 
d="M201 379c-54.667 0 -98.334 -16.833 -131.001 -50.5s-49 -81.167 -49 -142.5c0 -60.667 16.333 -107.834 49 -141.501s76.334 -50.5 131.001 -50.5s98.334 16.833 131.001 50.5s49 80.834 49 141.501c0 61.333 -16.333 108.833 -49 142.5s-76.334 50.5 -131.001 50.5z
M201 50c-32 0 -58.167 11.833 -78.5 35.5s-30.5 57.167 -30.5 100.5c0 44 10.167 77.833 30.5 101.5s46.5 35.5 78.5 35.5s58.333 -11.833 79 -35.5s31 -57.5 31 -101.5c0 -43.333 -10.333 -76.833 -31 -100.5s-47 -35.5 -79 -35.5zM167 436l77 138h79l-91 -138h-65z" />
    <glyph glyph-name="otilde" unicode="o&#x303;" horiz-adv-x="402" 
d="M201 379c-54.667 0 -98.334 -16.833 -131.001 -50.5s-49 -81.167 -49 -142.5c0 -60.667 16.333 -107.834 49 -141.501s76.334 -50.5 131.001 -50.5s98.334 16.833 131.001 50.5s49 80.834 49 141.501c0 61.333 -16.333 108.833 -49 142.5s-76.334 50.5 -131.001 50.5z
M201 50c-32 0 -58.167 11.833 -78.5 35.5s-30.5 57.167 -30.5 100.5c0 44 10.167 77.833 30.5 101.5s46.5 35.5 78.5 35.5s58.333 -11.833 79 -35.5s31 -57.5 31 -101.5c0 -43.333 -10.333 -76.833 -31 -100.5s-47 -35.5 -79 -35.5zM145 496
c-12 0 -20.667 -4.33496 -26 -13.002s-8 -22.667 -8 -42h-56c0 36.667 6.33301 63.834 19 81.501s34 26.5 64 26.5c12 0 23.333 -3 34 -9s20.834 -12.333 30.501 -19s19.167 -12.834 28.5 -18.501s18.666 -8.5 27.999 -8.5c24 0 37 19.333 39 58h54
c0 -35.333 -7 -62.666 -21 -81.999s-35.333 -29 -64 -29c-13.333 0 -25.5 2.83301 -36.5 8.5s-21.333 11.834 -31 18.501l-28 19c-9 6 -17.833 9 -26.5 9z" />
    <glyph glyph-name="ugrave" unicode="u&#x300;" horiz-adv-x="407" 
d="M372 374l0.00195312 -374.001h-70v83h-1c-6 -17.333 -13.833 -31.666 -23.5 -42.999s-20.334 -20.333 -32.001 -27s-24 -11.5 -37 -14.5s-25.833 -4.5 -38.5 -4.5c-42.667 0 -75.834 12.333 -99.501 37s-35.5 63 -35.5 115v228h72v-217c0 -36 7.5 -62.667 22.5 -80
s38.5 -26 70.5 -26c30.667 0 55 11.833 73 35.5s27 54.5 27 92.5v195h72zM120.002 573.999h80l77 -138h-66z" />
    <glyph glyph-name="uacute" unicode="u&#x301;" horiz-adv-x="407" 
d="M372 374l0.00195312 -374.001h-70v83h-1c-6 -17.333 -13.833 -31.666 -23.5 -42.999s-20.334 -20.333 -32.001 -27s-24 -11.5 -37 -14.5s-25.833 -4.5 -38.5 -4.5c-42.667 0 -75.834 12.333 -99.501 37s-35.5 63 -35.5 115v228h72v-217c0 -36 7.5 -62.667 22.5 -80
s38.5 -26 70.5 -26c30.667 0 55 11.833 73 35.5s27 54.5 27 92.5v195h72zM321.002 573.999l-91 -138h-66l77 138h80z" />
    <glyph glyph-name="yacute" unicode="y&#x301;" horiz-adv-x="365" 
d="M284 374l-99.999 -315.001h-1l-100 315h-78l142 -390c-6 -15.333 -11.667 -27.166 -17 -35.499s-11.333 -14.5 -18 -18.5s-14.334 -6.5 -23.001 -7.5s-18.667 -1.5 -30 -1.5c-5.33301 0 -10 0.166992 -14 0.5s-8.66699 0.833008 -14 1.5v-50
c9.33301 -3.33301 19 -5 29 -5c22.667 -1.33301 42.5 -0.333008 59.5 3s32.167 10.5 45.5 21.5s25.5 26.5 36.5 46.5s22.167 46 33.5 78l37.5 105l37.5 105l31.5 89.5c9 26.333 15.167 45.5 18.5 57.5h-76zM303.001 573.999l-91 -138h-66l77 138h80z" />
    <glyph glyph-name="Itilde" unicode="I&#x303;" horiz-adv-x="160" 
d="M43 0h74v513h-74v-513zM13 629c-12 0 -22.002 -4.99902 -30.002 -14.999s-12 -25.333 -12 -46h-56c0 37.333 7.66699 65.666 23 84.999s37.666 29 66.999 29c14.667 0 27.834 -3.33301 39.501 -10s22.834 -14.334 33.501 -23.001s21.167 -16.334 31.5 -23.001
s21.5 -10 33.5 -10c13.333 0 24.333 5.83301 33 17.5s13.334 27.5 14.001 47.5h55c0 -36 -8.5 -64.167 -25.5 -84.5s-39.833 -30.5 -68.5 -30.5c-15.333 0 -28.833 3.33301 -40.5 10s-22.834 13.834 -33.501 21.501s-21.167 14.834 -31.5 21.501s-21.166 10 -32.499 10z" />
    <glyph glyph-name="itilde" unicode="i&#x303;" horiz-adv-x="172" 
d="M50 0h72v374h-72v-374zM28 496c-12 0 -20.667 -4.33496 -26 -13.002s-8 -22.667 -8 -42h-56c0 36.667 6.33301 63.834 19 81.501s34 26.5 64 26.5c12 0 23.333 -3 34 -9s20.834 -12.333 30.501 -19s19.167 -12.834 28.5 -18.501s18.666 -8.5 27.999 -8.5
c24 0 37 19.333 39 58h54c0 -35.333 -7 -62.666 -21 -81.999s-35.333 -29 -64 -29c-13.333 0 -25.5 2.83301 -36.5 8.5s-21.333 11.834 -31 18.501l-28 19c-9 6 -17.833 9 -26.5 9z" />
    <glyph glyph-name="Utilde" unicode="U&#x303;" horiz-adv-x="483" 
d="M182 629c-12 0 -22.002 -4.99902 -30.002 -14.999s-12 -25.333 -12 -46h-56c0 37.333 7.66699 65.666 23 84.999s37.666 29 66.999 29c14.667 0 27.834 -3.33301 39.501 -10s22.834 -14.334 33.501 -23.001s21.167 -16.334 31.5 -23.001s21.5 -10 33.5 -10
c13.333 0 24.333 5.83301 33 17.5s13.334 27.5 14.001 47.5h55c0 -36 -8.5 -64.167 -25.5 -84.5s-39.833 -30.5 -68.5 -30.5c-15.333 0 -28.833 3.33301 -40.5 10s-22.834 13.834 -33.501 21.501s-21.167 14.834 -31.5 21.501s-21.166 10 -32.499 10zM111.998 188.001
c0 -40.667 11.333 -72.667 34 -96s54.334 -35 95.001 -35c41.333 0 73.333 11.5 96 34.5s34 55.167 34 96.5v325h74v-332c0 -57.333 -18.333 -102.833 -55 -136.5s-86.334 -50.5 -149.001 -50.5c-31.333 0 -59.5 4.33301 -84.5 13s-46.167 21.167 -63.5 37.5
s-30.833 36 -40.5 59s-14.5 48.833 -14.5 77.5v332h74v-325z" />
    <glyph glyph-name="utilde" unicode="u&#x303;" horiz-adv-x="407" 
d="M155 496c-12 0 -20.834 -4.33496 -26.501 -13.002s-8.5 -22.667 -8.5 -42h-55c0 36.667 6.16699 63.834 18.5 81.501s33.5 26.5 63.5 26.5c12.667 0 24.334 -3 35.001 -9s20.834 -12.333 30.501 -19s19.167 -12.834 28.5 -18.501s18.666 -8.5 27.999 -8.5
c24.667 0 37.334 19.333 38.001 58h55c0 -35.333 -7.16699 -62.666 -21.5 -81.999s-35.833 -29 -64.5 -29c-13.333 0 -25.5 2.83301 -36.5 8.5s-21.333 11.834 -31 18.501l-27.5 19c-8.66699 6 -17.334 9 -26.001 9zM371.999 373.998l0.00195312 -374.001h-70v83h-1
c-6 -17.333 -13.833 -31.666 -23.5 -42.999s-20.334 -20.333 -32.001 -27s-24 -11.5 -37 -14.5s-25.833 -4.5 -38.5 -4.5c-42.667 0 -75.834 12.333 -99.501 37s-35.5 63 -35.5 115v228h72v-217c0 -36 7.5 -62.667 22.5 -80s38.5 -26 70.5 -26c30.667 0 55 11.833 73 35.5
s27 54.5 27 92.5v195h72z" />
    <glyph glyph-name="uni1EA0" unicode="A&#x323;" horiz-adv-x="431" 
 />
    <glyph glyph-name="uni1EA1" unicode="a&#x323;" horiz-adv-x="379" 
 />
    <glyph glyph-name="uni1EA2" unicode="A&#x309;" horiz-adv-x="272" 
 />
    <glyph glyph-name="uni1EA3" unicode="a&#x309;" horiz-adv-x="344" 
 />
    <glyph glyph-name="uni1EA4" unicode="&#xc2;&#x301;" horiz-adv-x="400" 
 />
    <glyph glyph-name="uni1EA5" unicode="&#xe2;&#x301;" horiz-adv-x="344" 
 />
    <glyph glyph-name="uni1EA6" unicode="&#xc2;&#x300;" horiz-adv-x="400" 
 />
    <glyph glyph-name="uni1EA7" unicode="&#xe2;&#x300;" horiz-adv-x="344" 
 />
    <glyph glyph-name="uni1EA8" unicode="&#xc2;&#x309;" horiz-adv-x="400" 
 />
    <glyph glyph-name="uni1EA9" unicode="&#xe2;&#x309;" horiz-adv-x="344" 
 />
    <glyph glyph-name="uni1EAA" unicode="&#xc2;&#x303;" horiz-adv-x="400" 
 />
    <glyph glyph-name="uni1EAB" unicode="&#xe2;&#x303;" horiz-adv-x="344" 
 />
    <glyph glyph-name="uni1EAC" unicode="&#xc2;&#x323;" horiz-adv-x="400" 
 />
    <glyph glyph-name="uni1EAD" unicode="&#xe2;&#x323;" horiz-adv-x="344" 
 />
    <glyph glyph-name="uni1EAE" unicode="&#x102;&#x301;" horiz-adv-x="400" 
 />
    <glyph glyph-name="uni1EAF" unicode="&#x103;&#x301;" horiz-adv-x="344" 
 />
    <glyph glyph-name="uni1EB0" unicode="&#x102;&#x300;" horiz-adv-x="400" 
 />
    <glyph glyph-name="uni1EB1" unicode="&#x103;&#x300;" horiz-adv-x="344" 
 />
    <glyph glyph-name="uni1EB2" unicode="&#x102;&#x309;" horiz-adv-x="400" 
 />
    <glyph glyph-name="uni1EB3" unicode="&#x103;&#x309;" horiz-adv-x="344" 
 />
    <glyph glyph-name="uni1EB4" unicode="&#x102;&#x303;" horiz-adv-x="400" 
 />
    <glyph glyph-name="uni1EB5" unicode="&#x103;&#x303;" horiz-adv-x="344" 
 />
    <glyph glyph-name="uni1EB6" unicode="&#x102;&#x323;" horiz-adv-x="400" 
 />
    <glyph glyph-name="uni1EB7" unicode="&#x103;&#x323;" horiz-adv-x="344" 
 />
    <glyph glyph-name="uni1EB8" unicode="E&#x323;" horiz-adv-x="375" 
 />
    <glyph glyph-name="uni1EB9" unicode="e&#x323;" horiz-adv-x="381" 
 />
    <glyph glyph-name="uni1EBA" unicode="E&#x309;" horiz-adv-x="351" 
 />
    <glyph glyph-name="uni1EBB" unicode="e&#x309;" horiz-adv-x="374" 
 />
    <glyph glyph-name="uni1EBC" unicode="E&#x303;" horiz-adv-x="375" 
 />
    <glyph glyph-name="uni1EBD" unicode="e&#x303;" horiz-adv-x="381" 
 />
    <glyph glyph-name="uni1EBE" unicode="&#xca;&#x301;" horiz-adv-x="351" 
 />
    <glyph glyph-name="uni1EBF" unicode="&#xea;&#x301;" horiz-adv-x="374" 
 />
    <glyph glyph-name="uni1EC0" unicode="&#xca;&#x300;" horiz-adv-x="351" 
 />
    <glyph glyph-name="uni1EC1" unicode="&#xea;&#x300;" horiz-adv-x="374" 
 />
    <glyph glyph-name="uni1EC2" unicode="&#xca;&#x309;" horiz-adv-x="351" 
 />
    <glyph glyph-name="uni1EC3" unicode="&#xea;&#x309;" horiz-adv-x="374" 
 />
    <glyph glyph-name="uni1EC4" unicode="&#xca;&#x303;" horiz-adv-x="351" 
 />
    <glyph glyph-name="uni1EC5" unicode="&#xea;&#x303;" horiz-adv-x="374" 
 />
    <glyph glyph-name="uni1EC6" unicode="&#xca;&#x323;" horiz-adv-x="351" 
 />
    <glyph glyph-name="uni1EC7" unicode="&#xea;&#x323;" horiz-adv-x="374" 
 />
    <glyph glyph-name="uni1EC8" unicode="I&#x309;" horiz-adv-x="147" 
 />
    <glyph glyph-name="uni1EC9" unicode="i&#x309;" horiz-adv-x="143" 
 />
    <glyph glyph-name="uni1ECA" unicode="I&#x323;" horiz-adv-x="229" 
 />
    <glyph glyph-name="uni1ECB" unicode="i&#x323;" horiz-adv-x="174" 
 />
    <glyph glyph-name="uni1ECC" unicode="O&#x323;" horiz-adv-x="528" 
 />
    <glyph glyph-name="uni1ECD" unicode="o&#x323;" horiz-adv-x="409" 
 />
    <glyph glyph-name="uni1ECE" unicode="O&#x309;" horiz-adv-x="486" 
 />
    <glyph glyph-name="uni1ECF" unicode="o&#x309;" horiz-adv-x="398" 
 />
    <glyph glyph-name="uni1ED0" unicode="&#xd4;&#x301;" horiz-adv-x="486" 
 />
    <glyph glyph-name="uni1ED1" unicode="&#xf4;&#x301;" horiz-adv-x="398" 
 />
    <glyph glyph-name="uni1ED2" unicode="&#xd4;&#x300;" horiz-adv-x="486" 
 />
    <glyph glyph-name="uni1ED3" unicode="&#xf4;&#x300;" horiz-adv-x="398" 
 />
    <glyph glyph-name="uni1ED4" unicode="&#xd4;&#x309;" horiz-adv-x="486" 
 />
    <glyph glyph-name="uni1ED5" unicode="&#xf4;&#x309;" horiz-adv-x="398" 
 />
    <glyph glyph-name="uni1ED6" unicode="&#xd4;&#x303;" horiz-adv-x="486" 
 />
    <glyph glyph-name="uni1ED7" unicode="&#xf4;&#x303;" horiz-adv-x="398" 
 />
    <glyph glyph-name="uni1ED8" unicode="&#xd4;&#x323;" horiz-adv-x="486" 
 />
    <glyph glyph-name="uni1ED9" unicode="&#xf4;&#x323;" horiz-adv-x="398" 
 />
    <glyph glyph-name="uni1EDA" unicode="&#x1a0;&#x301;" horiz-adv-x="486" 
 />
    <glyph glyph-name="uni1EDB" unicode="&#x1a1;&#x301;" horiz-adv-x="398" 
 />
    <glyph glyph-name="uni1EDC" unicode="&#x1a0;&#x300;" horiz-adv-x="486" 
 />
    <glyph glyph-name="uni1EDD" unicode="&#x1a1;&#x300;" horiz-adv-x="398" 
 />
    <glyph glyph-name="uni1EDE" unicode="&#x1a0;&#x309;" horiz-adv-x="486" 
 />
    <glyph glyph-name="uni1EDF" unicode="&#x1a1;&#x309;" horiz-adv-x="398" 
 />
    <glyph glyph-name="uni1EE0" unicode="&#x1a0;&#x303;" horiz-adv-x="486" 
 />
    <glyph glyph-name="uni1EE1" unicode="&#x1a1;&#x303;" horiz-adv-x="398" 
 />
    <glyph glyph-name="uni1EE2" unicode="&#x1a0;&#x323;" horiz-adv-x="486" 
 />
    <glyph glyph-name="uni1EE3" unicode="&#x1a1;&#x323;" horiz-adv-x="398" 
 />
    <glyph glyph-name="uni1EE4" unicode="U&#x323;" horiz-adv-x="494" 
 />
    <glyph glyph-name="uni1EE5" unicode="u&#x323;" horiz-adv-x="418" 
 />
    <glyph glyph-name="uni1EE6" unicode="U&#x309;" horiz-adv-x="466" 
 />
    <glyph glyph-name="uni1EE7" unicode="u&#x309;" horiz-adv-x="390" 
 />
    <glyph glyph-name="uni1EE8" unicode="&#x1af;&#x301;" horiz-adv-x="466" 
 />
    <glyph glyph-name="uni1EE9" unicode="&#x1b0;&#x301;" horiz-adv-x="373" 
 />
    <glyph glyph-name="uni1EEA" unicode="&#x1af;&#x300;" horiz-adv-x="466" 
 />
    <glyph glyph-name="uni1EEB" unicode="&#x1b0;&#x300;" horiz-adv-x="373" 
 />
    <glyph glyph-name="uni1EEC" unicode="&#x1af;&#x309;" horiz-adv-x="466" 
 />
    <glyph glyph-name="uni1EED" unicode="&#x1b0;&#x309;" horiz-adv-x="373" 
 />
    <glyph glyph-name="uni1EEE" unicode="&#x1af;&#x303;" horiz-adv-x="466" 
 />
    <glyph glyph-name="uni1EEF" unicode="&#x1b0;&#x303;" horiz-adv-x="373" 
 />
    <glyph glyph-name="uni1EF0" unicode="&#x1af;&#x323;" horiz-adv-x="466" 
 />
    <glyph glyph-name="uni1EF1" unicode="&#x1b0;&#x323;" horiz-adv-x="373" 
 />
    <glyph glyph-name="Ygrave" unicode="Y&#x300;" horiz-adv-x="383" 
 />
    <glyph glyph-name="ygrave" unicode="y&#x300;" horiz-adv-x="346" 
 />
    <glyph glyph-name="uni1EF4" unicode="Y&#x323;" horiz-adv-x="366" 
 />
    <glyph glyph-name="uni1EF5" unicode="y&#x323;" horiz-adv-x="337" 
 />
    <glyph glyph-name="uni1EF6" unicode="Y&#x309;" horiz-adv-x="366" 
 />
    <glyph glyph-name="uni1EF7" unicode="y&#x309;" horiz-adv-x="337" 
 />
    <glyph glyph-name="uni1EF8" unicode="Y&#x303;" horiz-adv-x="383" 
 />
    <glyph glyph-name="uni1EF9" unicode="y&#x303;" horiz-adv-x="346" 
 />
    <glyph glyph-name="uni0E4F.liga" unicode="&#xe4f;&#x22;" horiz-adv-x="395" 
d="M197 396c22.667 0 44 -4.33301 64 -13s37.5 -20.334 52.5 -35.001s26.833 -32 35.5 -52s13 -41.333 13 -64c0 -23.333 -4.33301 -45 -13 -65s-20.5 -37.333 -35.5 -52s-32.5 -26.334 -52.5 -35.001s-41.333 -13 -64 -13s-44 4.33301 -64 13s-37.333 20.334 -52 35.001
s-26.334 32 -35.001 52s-13 41.667 -13 65c0 22.667 4.33301 44 13 64s20.334 37.333 35.001 52s32 26.334 52 35.001s41.333 13 64 13zM197 108c16.667 0 32.5 3.33301 47.5 10s28 15.5 39 26.5s19.667 24 26 39s9.5 31.167 9.5 48.5c0 16.667 -3.16699 32.5 -9.5 47.5
s-15 28 -26 39s-24 19.667 -39 26s-30.833 9.5 -47.5 9.5c-17.333 0 -33.5 -3.16699 -48.5 -9.5s-28 -15 -39 -26s-19.833 -24 -26.5 -39s-10 -30.833 -10 -47.5c0 -17.333 3.33301 -33.5 10 -48.5s15.5 -28 26.5 -39s24 -19.833 39 -26.5s31.167 -10 48.5 -10zM197 324
c12.667 0 24.5 -2.33301 35.5 -7s20.667 -11.167 29 -19.5s14.833 -18.166 19.5 -29.499s7 -23.333 7 -36c0 -25.333 -8.83301 -47 -26.5 -65s-39.167 -27 -64.5 -27s-47 9 -65 27s-27 39.667 -27 65c0 12.667 2.5 24.667 7.5 36s11.667 21.166 20 29.499s18 14.833 29 19.5
s22.833 7 35.5 7zM219 563h65l-6 -132h-53zM110 563h65l-6 -132h-53zM197 175c16 0 29.167 5.5 39.5 16.5s15.5 24.5 15.5 40.5c0 15.333 -5.16699 28.166 -15.5 38.499s-23.5 15.5 -39.5 15.5c-15.333 0 -28.5 -5.16699 -39.5 -15.5s-16.5 -23.166 -16.5 -38.499
c0 -16 5.5 -29.5 16.5 -40.5s24.167 -16.5 39.5 -16.5z" />
    <glyph glyph-name="uni0E24.liga" unicode="&#xe24;&#xe32;" horiz-adv-x="686" 
d="M572 -143l-0.00292969 433.006c0 13.333 -2.5 24.833 -7.5 34.5s-11.5 17.5 -19.5 23.5s-17.333 10.5 -28 13.5s-21.667 4.5 -33 4.5c-15.333 0 -30.166 -1.83301 -44.499 -5.5s-28.833 -9.16699 -43.5 -16.5c11.333 -24.667 17 -53 17 -85v-402h-73v395
c0 38 -9.33301 66.5 -28 85.5s-48 28.5 -88 28.5c-33.333 0 -60.833 -6.33301 -82.5 -19s-35.5 -34 -41.5 -64h90v-32c-23.333 -8.66699 -41.666 -23.334 -54.999 -44.001s-20 -45 -20 -73c0 -31.333 6.5 -52.333 19.5 -63s30.5 -16.334 52.5 -17.001
c6 -0.666992 12.167 -0.833984 18.5 -0.500977s13.166 1.16602 20.499 2.49902v-53c-11.333 -3.33301 -22.166 -5.5 -32.499 -6.5s-20.5 -1.5 -30.5 -1.5c-34 0.666992 -62.667 11.167 -86 31.5s-35 51.5 -35 93.5c0 32.667 7.83301 60 23.5 82s32.5 37 50.5 45h-83
c0 58.667 16.333 103.167 49 133.5s80.334 45.5 143.001 45.5c60.667 0 107 -14 139 -42c21.333 13.333 43.166 23.666 65.499 30.999s45.833 11 70.5 11c20.667 0 39.834 -2.5 57.501 -7.5s33 -12.667 46 -23s23.167 -23.333 30.5 -39s11 -33.834 11 -54.501v-445h-73z" />
    <glyph glyph-name="uni0E26.liga" unicode="&#xe26;&#xe32;" horiz-adv-x="693" 
d="M579 -143l-0.000976562 432.998c0 13.333 -2.5 24.833 -7.5 34.5s-11.5 17.5 -19.5 23.5s-17.333 10.5 -28 13.5s-21.667 4.5 -33 4.5c-15.333 0 -30.166 -1.83301 -44.499 -5.5s-28.833 -9.16699 -43.5 -16.5c11.333 -24.667 17 -53 17 -85v-402h-72v395
c0 38 -9.5 66.5 -28.5 85.5s-48.5 28.5 -88.5 28.5c-33.333 0 -60.833 -6.33301 -82.5 -19s-35.167 -34 -40.5 -64h95v-31c-18.667 -6.66699 -32.334 -18 -41.001 -34s-13 -34.667 -13 -56v-56c0 -14 -1.16699 -27.667 -3.5 -41s-6.83301 -25.166 -13.5 -35.499
s-15.5 -18.5 -26.5 -24.5s-24.833 -9 -41.5 -9c-8 0 -16.167 0.333008 -24.5 1s-17.833 2 -28.5 4v53c7.33301 -1.33301 13.333 -2.16602 18 -2.49902s9 -0.166016 13 0.500977c13.333 2 22.833 7.33301 28.5 16s8.5 21.334 8.5 38.001v55c0 18 4.33301 35 13 51
s21 27.667 37 35h-89c0 58.667 16.333 103.167 49 133.5s80.334 45.5 143.001 45.5c60.667 0 107 -14 139 -42c21.333 13.333 43.166 23.666 65.499 30.999s45.833 11 70.5 11c20.667 0 39.834 -2.5 57.501 -7.5s33 -12.667 46 -23s23.167 -23.333 30.5 -39
s11 -33.834 11 -54.501v-445h-73z" />
    <glyph glyph-name="fi" unicode="fi" horiz-adv-x="412" 
d="M240 460c-9.33301 1.33301 -17.833 1.99902 -25.5 1.99902h-18.5c-16.667 -1.33301 -28 -6.16602 -34 -14.499s-9 -21.5 -9 -39.5v-34h70v-50h-70v-324h-73v324h-62v50h62v34c0 40 9.83301 68.333 29.5 85s47.167 25 82.5 25c14.667 0 30.667 -2 48 -6v-52zM290 373.999
h72v-374h-72v374zM326 514.999c13.333 0 24 -4 32 -12s12 -17.667 12 -29c0 -12 -4 -22 -12 -30s-18.667 -12 -32 -12s-24 4 -32 12s-12 18 -12 30c0 11.333 4 21 12 29s18.667 12 32 12z" />
    <glyph glyph-name="fl" unicode="fl" horiz-adv-x="448" 
d="M240 460c-9.33301 1.33301 -17.833 1.99902 -25.5 1.99902h-18.5c-16.667 -1.33301 -28 -6.16602 -34 -14.499s-9 -21.5 -9 -39.5v-34h70v-50h-70v-324h-73v324h-62v50h62v34c0 40 9.83301 68.333 29.5 85s47.167 25 82.5 25c14.667 0 30.667 -2 48 -6v-52zM437 54.999
l0.000976562 -52c-8.66699 -2 -16.834 -3.33301 -24.501 -4s-15.5 -1 -23.5 -1c-38 0 -64.333 10.167 -79 30.5s-22 51.5 -22 93.5v392h73v-403c0 -21.333 3.83301 -36.333 11.5 -45s23.167 -13 46.5 -13c3.33301 0 6.33301 0.166992 9 0.5s5.66699 0.833008 9 1.5z" />
    <glyph glyph-name=".notdef" horiz-adv-x="599" 
d="M50 0v495h499v-495h-499zM529 16c3.33301 0 5 1.66699 5 5v454c0 2.66699 -1.66699 4 -5 4h-459c-3.33301 0 -5 -1.33301 -5 -4v-454c0 -3.33301 1.66699 -5 5 -5h459z" />
    <glyph glyph-name="space" unicode=" " horiz-adv-x="235" 
 />
    <glyph glyph-name="exclam" unicode="!" horiz-adv-x="184" 
d="M60 162l-5 142v209h74v-209l-5 -142h-64zM92 93c14.667 0 26.5 -4.5 35.5 -13.5s13.5 -19.833 13.5 -32.5c0 -13.333 -4.5 -24.5 -13.5 -33.5s-20.833 -13.5 -35.5 -13.5c-15.333 0 -27.333 4.5 -36 13.5s-13 20.167 -13 33.5c0 12.667 4.33301 23.5 13 32.5
s20.667 13.5 36 13.5z" />
    <glyph glyph-name="quotedbl" unicode="&#x22;" horiz-adv-x="240" 
d="M33 513h65l-6 -158h-54zM142 513h65l-6 -158h-54z" />
    <glyph glyph-name="numbersign" unicode="#" horiz-adv-x="497" 
d="M380 321l-27 -133l89 1v-48h-99l-29 -141h-66l28 141h-103l-29 -141h-67l29 141h-88v47h98l28 133h-90v48h100l30 144h66l-30 -144h103l31 144h66l-30 -144h89v-48h-99zM314 321h-104l-28 -133h104z" />
    <glyph glyph-name="dollar" unicode="$" horiz-adv-x="441" 
d="M229 291c32.667 -6.66699 60.833 -14 84.5 -22s43 -17.667 58 -29s26.167 -24.666 33.5 -39.999s11 -33.333 11 -54c0 -43.333 -14.833 -78.166 -44.5 -104.499s-69.834 -41.833 -120.501 -46.5v-71h-65v72c-48 5.33301 -86.333 21.166 -115 47.499
s-44 60.166 -46 101.499h71c4 -27.333 17.167 -49.5 39.5 -66.5s51.5 -25.5 87.5 -25.5c35.333 0 63.5 7.66699 84.5 23s31.5 36.333 31.5 63c0 22 -8 39.167 -24 51.5s-43.333 23.166 -82 32.499l-54 11c-50 11.333 -87 28 -111 50s-36 51 -36 87
c0 20 3.83301 38.333 11.5 55s18.334 31.167 32.001 43.5s30 22.5 49 30.5s39.5 13 61.5 15v70h65v-70c50 -5.33301 87.667 -22.333 113 -51s39 -62.667 41 -102h-73c-2 28 -12.833 51.167 -32.5 69.5s-47.167 27.5 -82.5 27.5c-32 0 -58.333 -7.66699 -79 -23
s-31 -35.333 -31 -60c0 -23.333 9.5 -41.166 28.5 -53.499s50.167 -22.833 93.5 -31.5z" />
    <glyph glyph-name="percent" unicode="%" horiz-adv-x="525" 
d="M393 226c31.333 0 57 -10.333 77 -31s30 -49 30 -85s-10 -64.333 -30 -85s-45.667 -31 -77 -31c-30.667 0 -56 10.333 -76 31s-30 49 -30 85s10 64.333 30 85s45.333 31 76 31zM238 402c0 -35.333 -10.167 -63.333 -30.5 -84s-45.833 -31 -76.5 -31s-56 10.333 -76 31
s-30 48.667 -30 84c0 36 10 64.5 30 85.5s45.333 31.5 76 31.5s56.167 -10.5 76.5 -31.5s30.5 -49.5 30.5 -85.5zM448 513l-303 -513h-67l303 513h67zM79 403c0 -19.333 4.66699 -34.665 14 -45.998s22 -17 38 -17s28.667 5.66699 38 17s14 26.666 14 45.999
s-4.66699 34.666 -14 45.999s-22 17 -38 17c-16.667 0 -29.5 -5.5 -38.5 -16.5s-13.5 -26.5 -13.5 -46.5zM393 47.001c15.333 0 27.833 5.66504 37.5 16.998s14.5 26.666 14.5 45.999c0 18.667 -4.83301 33.834 -14.5 45.501s-22.167 17.5 -37.5 17.5
c-16 0 -28.667 -5.66699 -38 -17s-14 -26.666 -14 -45.999s4.66699 -34.666 14 -45.999s22 -17 38 -17z" />
    <glyph glyph-name="ampersand" unicode="&#x26;" horiz-adv-x="505" 
d="M143 400c0 -12.667 3.66699 -25.833 11 -39.5s22.666 -32.167 45.999 -55.5c30.667 15.333 52.334 30.833 65.001 46.5s19 32.167 19 49.5c0 19.333 -6.33301 35.333 -19 48s-29.667 19 -51 19c-20.667 0 -37.667 -6.5 -51 -19.5s-20 -29.167 -20 -48.5zM200 47.001
c22 0 43.1689 4.66699 63.502 14s37.166 21.666 50.499 36.999l-130 141l-28 -15c-23.333 -13.333 -38.333 -27.833 -45 -43.5s-10 -31.167 -10 -46.5c0 -23.333 8.16699 -43.666 24.5 -60.999s41.166 -26 74.499 -26zM446.002 231.001
c-2 -23.333 -7.16797 -47.4971 -15.501 -72.4971s-18.833 -46.167 -31.5 -63.5l96 -95h-79l-59 56c-20.667 -20 -45.167 -35.333 -73.5 -46s-58.5 -16 -90.5 -16c-52 0 -91.667 12.167 -119 36.5s-41 57.5 -41 99.5c0 29.333 8.66699 57.333 26 84s47 47.667 89 63
c-14 14 -25.333 26.5 -34 37.5s-15.5 21.5 -20.5 31.5s-8.33301 19.667 -10 29s-2.5 18.666 -2.5 27.999c0 16 3.16699 31 9.5 45s15.166 26.167 26.499 36.5s25.333 18.5 42 24.5s35 9 55 9c40.667 0 72.5 -11 95.5 -33s34.5 -49.667 34.5 -83
c0 -25.333 -8.16699 -48.833 -24.5 -70.5s-44.166 -42.834 -83.499 -63.501l118 -127c7.33301 12 13.833 26.167 19.5 42.5s9.83398 32.166 12.501 47.499h60z" />
    <glyph glyph-name="quotesingle" unicode="'" horiz-adv-x="131" 
d="M33 513h65l-6 -158h-54z" />
    <glyph glyph-name="parenleft" unicode="(" horiz-adv-x="227" 
d="M212 542c-13.333 -19.333 -25.333 -40.667 -36 -64s-19.667 -48 -27 -74s-13 -52.833 -17 -80.5s-6 -55.167 -6 -82.5c0 -55.333 7.66699 -109.833 23 -163.5s36.333 -99.5 63 -137.5h-68c-30 40 -52.667 85.5 -68 136.5s-23 105.833 -23 164.5
c0 58 7.66699 112.5 23 163.5s38 96.833 68 137.5h68v0z" />
    <glyph glyph-name="parenright" unicode=")" horiz-adv-x="227" 
d="M83 542c30 -40.667 52.667 -86.499 68 -137.499s23 -105.5 23 -163.5c0 -58.667 -7.66699 -113.5 -23 -164.5s-38 -96.5 -68 -136.5h-68c26.667 38 47.667 83.833 63 137.5s23 108.167 23 163.5c0 27.333 -2 54.833 -6 82.5s-9.66699 54.5 -17 80.5
s-16.333 50.667 -27 74s-22.667 44.666 -36 63.999h68z" />
    <glyph glyph-name="asterisk" unicode="*" horiz-adv-x="260" 
d="M164 391l50 -63l-39 -29l-45 68l-45 -68l-39 29l50 63l-78 22l15 45l76 -27l-3 82h48l-3 -82l76 27l15 -45z" />
    <glyph glyph-name="plus" unicode="+" horiz-adv-x="416" 
d="M382 202h-141v-127h-67v127h-140v59h140v128h67v-128h141v-59z" />
    <glyph glyph-name="comma" unicode="," horiz-adv-x="132" 
d="M-1 -90l40 164h74l-53 -164h-61z" />
    <glyph glyph-name="hyphen" unicode="-" horiz-adv-x="350" 
d="M316 202h-282v59h282v-59z" />
    <glyph glyph-name="hyphen" unicode="&#xad;" horiz-adv-x="350" 
d="M316 202h-282v59h282v-59z" />
    <glyph glyph-name="period" unicode="." horiz-adv-x="135" 
d="M18 47c0 12.667 4.5 23.5 13.5 32.5s21.167 13.5 36.5 13.5c14.667 0 26.5 -4.5 35.5 -13.5s13.5 -19.833 13.5 -32.5c0 -13.333 -4.5 -24.5 -13.5 -33.5s-20.833 -13.5 -35.5 -13.5c-15.333 0 -27.5 4.5 -36.5 13.5s-13.5 20.167 -13.5 33.5z" />
    <glyph glyph-name="slash" unicode="/" horiz-adv-x="287" 
d="M274 513l-185 -513h-76l186 513h75z" />
    <glyph glyph-name="zero" unicode="0" horiz-adv-x="455" 
d="M23 257c0 41.333 4.83301 78.166 14.5 110.499s23.5 59.666 41.5 81.999s39.667 39.333 65 51s53.333 17.5 84 17.5s58.5 -5.83301 83.5 -17.5s46.5 -28.667 64.5 -51s31.833 -49.666 41.5 -81.999s14.5 -69.166 14.5 -110.499s-4.83301 -78.333 -14.5 -111
s-23.5 -60.167 -41.5 -82.5s-39.5 -39.5 -64.5 -51.5s-52.833 -18 -83.5 -18c-31.333 0 -59.5 6 -84.5 18s-46.5 29.167 -64.5 51.5s-31.833 49.833 -41.5 82.5s-14.5 69.667 -14.5 111zM356 257c0 66 -11.667 115.833 -35 149.5s-54.333 50.5 -93 50.5
s-69.667 -16.833 -93 -50.5s-35 -83.5 -35 -149.5c0 -66.667 11.667 -117 35 -151s54.333 -51 93 -51s69.667 17 93 51s35 84.333 35 151z" />
    <glyph glyph-name="one" unicode="1" horiz-adv-x="299" 
d="M216 513v-513h-74v443l-128 -50v63l144 57h58z" />
    <glyph glyph-name="two" unicode="2" horiz-adv-x="407" 
d="M377 59l0.00292969 -59.001h-348v44c9.33301 10 21.666 22.5 36.999 37.5l48.5 48l51 52l46.5 47.5c18 18 32.833 33.667 44.5 47s21 25.333 28 36s11.833 20.334 14.5 29.001s4 17.667 4 27c0 26.667 -8.83301 48.667 -26.5 66s-42.834 26 -75.501 26
c-36.667 0 -63.667 -10.167 -81 -30.5s-26 -45.166 -26 -74.499h-68c0 22 3.66699 43 11 63s18.166 37.5 32.499 52.5s32.333 26.833 54 35.5s47.5 13 77.5 13c28 0 52.667 -3.83301 74 -11.5s39.166 -18 53.499 -31s25.333 -28.333 33 -46s11.5 -36.834 11.5 -57.501
c0 -15.333 -1.66699 -29.333 -5 -42s-9.16602 -25.667 -17.499 -39s-19.5 -28 -33.5 -44s-31.333 -34.333 -52 -55l-131 -132v-2h243z" />
    <glyph glyph-name="three" unicode="3" horiz-adv-x="432" 
d="M290 260c34 -4.66699 61.498 -17.333 82.498 -38s31.5 -49 31.5 -85c0 -19.333 -3.83301 -37.666 -11.5 -54.999s-19.5 -32.5 -35.5 -45.5s-36 -23.333 -60 -31s-52.333 -11.5 -85 -11.5c-30.667 0 -57.5 4.5 -80.5 13.5s-42.167 21 -57.5 36s-26.833 32.333 -34.5 52
s-11.5 40.5 -11.5 62.5h69c0 -12.667 2.66699 -25.167 8 -37.5s12.833 -23.5 22.5 -33.5s21.667 -18.167 36 -24.5s30.5 -9.5 48.5 -9.5c36.667 0 65.334 8.33301 86.001 25s31 39.334 31 68.001s-11.167 50 -33.5 64s-51.833 21 -88.5 21h-44v53h44
c30 0 55.5 8.16699 76.5 24.5s31.5 38.166 31.5 65.499s-9.33301 48.666 -28 63.999s-43.667 23 -75 23c-33.333 0 -59.166 -10.167 -77.499 -30.5s-27.833 -45.5 -28.5 -75.5h-68c0 23.333 4 45 12 65s19.5 37.333 34.5 52s33.167 26.167 54.5 34.5
s45.666 12.5 72.999 12.5c28 0 53 -3.5 75 -10.5s40.333 -16.5 55 -28.5s25.834 -26.167 33.501 -42.5s11.5 -33.833 11.5 -52.5c0 -34.667 -8.66699 -62 -26 -82s-41 -33.667 -71 -41v-2v0z" />
    <glyph glyph-name="four" unicode="4" horiz-adv-x="423" 
d="M409 101h-69v-101h-75v101h-251v50l258 362h65v-353h72v-59zM269 159v246l-173 -246h173z" />
    <glyph glyph-name="five" unicode="5" horiz-adv-x="431" 
d="M236 340c24 0 46.332 -4.33105 66.999 -12.998s38.334 -20.5 53.001 -35.5s26.167 -32.833 34.5 -53.5s12.5 -43 12.5 -67c0 -24.667 -3.83301 -47.834 -11.5 -69.501s-19.334 -40.5 -35.001 -56.5s-35.667 -28.5 -60 -37.5s-53.166 -13.5 -86.499 -13.5
c-30 0 -56.333 4.5 -79 13.5s-41.667 21 -57 36s-26.833 32.333 -34.5 52s-11.5 40.5 -11.5 62.5h69c0 -12.667 2.66699 -25.167 8 -37.5s12.833 -23.5 22.5 -33.5s21.5 -18.167 35.5 -24.5s30.333 -9.5 49 -9.5c37.333 0 66.666 10.833 87.999 32.5s32 49.5 32 83.5
s-10.833 62.167 -32.5 84.5s-49.5 33.5 -83.5 33.5c-23.333 0 -43.666 -4.16699 -60.999 -12.5s-32.666 -20.5 -45.999 -36.5h-72l29 275h311v-59h-252l-20 -171h2c13.333 19.333 31.166 33.666 53.499 42.999s47.5 14 75.5 14z" />
    <glyph glyph-name="six" unicode="6" horiz-adv-x="443" 
d="M249 341c24.667 0 47.165 -4.33496 67.498 -13.002s38 -20.5 53 -35.5s26.667 -32.667 35 -53s12.5 -42.5 12.5 -66.5c0 -26 -4.66699 -50 -14 -72s-22.5 -40.833 -39.5 -56.5s-37 -28 -60 -37s-47.833 -13.5 -74.5 -13.5c-27.333 0 -53.166 4.66699 -77.499 14
s-45.833 24.333 -64.5 45s-33.5 47.334 -44.5 80.001s-16.5 72.334 -16.5 119.001c0 85.333 17.5 151.166 52.5 197.499s85.833 69.5 152.5 69.5c52.667 0 94.334 -14 125.001 -42s49.667 -63.667 57 -107h-74c-7.33301 28.667 -19.333 50.834 -36 66.501
s-40.667 23.5 -72 23.5c-45.333 0 -79.666 -18.333 -102.999 -55s-34.333 -88.667 -33 -156h1c11.333 30 30.166 52.833 56.499 68.5s58.5 23.5 96.5 23.5zM226.998 52.998c16.667 0 32 3 46 9s26.333 14.333 37 25s19 23.167 25 37.5s9 29.833 9 46.5c0 34 -11 62 -33 84
s-49.667 33 -83 33c-16.667 0 -32.167 -3 -46.5 -9s-26.833 -14.167 -37.5 -24.5s-19.167 -22.333 -25.5 -36s-9.5 -28.167 -9.5 -43.5c0 -17.333 3 -33.333 9 -48s14.333 -27.5 25 -38.5s23.167 -19.667 37.5 -26s29.833 -9.5 46.5 -9.5z" />
    <glyph glyph-name="seven" unicode="7" horiz-adv-x="379" 
d="M370 513v-46l-206 -467h-83l204 454h-276v59h361z" />
    <glyph glyph-name="eight" unicode="8" horiz-adv-x="440" 
d="M26 141c0 34 9.83301 62.168 29.5 84.501s45.5 36.833 77.5 43.5v1c-28 8.66699 -49.833 23.167 -65.5 43.5s-23.5 44.5 -23.5 72.5c0 18 3.83301 35 11.5 51s19 30.167 34 42.5s33.5 22 55.5 29s47 10.5 75 10.5s52.833 -3.5 74.5 -10.5s40 -16.667 55 -29
s26.333 -26.5 34 -42.5s11.5 -33 11.5 -51c0 -27.333 -7.66699 -51.333 -23 -72s-37 -35.334 -65 -44.001v-1c31.333 -6.66699 57 -21.167 77 -43.5s30 -50.5 30 -84.5c0 -20 -4.16699 -38.833 -12.5 -56.5s-20.5 -33.334 -36.5 -47.001s-36.167 -24.334 -60.5 -32.001
s-52.5 -11.5 -84.5 -11.5s-60.167 3.83301 -84.5 11.5s-44.5 18.334 -60.5 32.001s-28.167 29.334 -36.5 47.001s-12.5 36.5 -12.5 56.5zM342 149.001c0 28 -11.333 50.5 -34 67.5s-52 25.5 -88 25.5s-65.333 -8.5 -88 -25.5s-34 -39.5 -34 -67.5
c0 -28.667 11.333 -52.5 34 -71.5s52 -28.5 88 -28.5s65.333 9.5 88 28.5s34 42.833 34 71.5zM327 379.001c0 25.333 -9.83301 46.166 -29.5 62.499s-45.5 24.5 -77.5 24.5s-57.667 -8.16699 -77 -24.5s-29 -37.166 -29 -62.499c0 -24.667 10 -44.167 30 -58.5
s45.333 -21.5 76 -21.5c31.333 0 57 7.16699 77 21.5s30 33.833 30 58.5z" />
    <glyph glyph-name="nine" unicode="9" horiz-adv-x="443" 
d="M417 260c0 -85.333 -17.834 -150.999 -53.501 -196.999s-86.167 -69 -151.5 -69c-52.667 0 -94.5 13.667 -125.5 41s-49.833 63 -56.5 107h72c8 -28.667 20.5 -50.834 37.5 -66.501s41.167 -23.5 72.5 -23.5c44 0 77.833 18.333 101.5 55s34.834 88.667 33.501 156h-1
c-10.667 -30 -29.167 -53 -55.5 -69s-58.5 -24 -96.5 -24c-24.667 0 -47.334 4.33301 -68.001 13s-38.334 20.5 -53.001 35.5s-26.167 32.833 -34.5 53.5s-12.5 43 -12.5 67c0 26 4.66699 50 14 72s22.5 41 39.5 57s36.833 28.5 59.5 37.5s47.667 13.5 75 13.5
c26.667 0 52.334 -4.66699 77.001 -14s46.334 -24.333 65.001 -45s33.5 -47.5 44.5 -80.5s16.5 -72.833 16.5 -119.5zM96.999 340.001c0 -34 11.1689 -62 33.502 -84s50.5 -33 84.5 -33c16.667 0 32.167 3 46.5 9s26.833 14.167 37.5 24.5s19.167 22.5 25.5 36.5
s9.5 28.667 9.5 44c0 17.333 -3 33.333 -9 48s-14.333 27.5 -25 38.5s-23.334 19.5 -38.001 25.5s-30.334 9 -47.001 9s-32.167 -3 -46.5 -9s-26.833 -14.333 -37.5 -25s-19 -23.167 -25 -37.5s-9 -29.833 -9 -46.5z" />
    <glyph glyph-name="colon" unicode=":" horiz-adv-x="186" 
d="M44 331c0 13.333 4.5 24.5 13.5 33.5s21.167 13.5 36.5 13.5c14.667 0 26.334 -4.5 35.001 -13.5s13 -20.167 13 -33.5c0 -12.667 -4.33301 -23.667 -13 -33s-20.334 -14 -35.001 -14c-15.333 0 -27.5 4.66699 -36.5 14s-13.5 20.333 -13.5 33zM44 47
c0 12.667 4.5 23.5 13.5 32.5s21.167 13.5 36.5 13.5c14.667 0 26.334 -4.5 35.001 -13.5s13 -19.833 13 -32.5c0 -13.333 -4.33301 -24.5 -13 -33.5s-20.334 -13.5 -35.001 -13.5c-15.333 0 -27.5 4.5 -36.5 13.5s-13.5 20.167 -13.5 33.5z" />
    <glyph glyph-name="semicolon" unicode=";" horiz-adv-x="186" 
d="M44 331c0 13.333 4.5 24.5 13.5 33.5s21.167 13.5 36.5 13.5c14.667 0 26.334 -4.5 35.001 -13.5s13 -20.167 13 -33.5c0 -12.667 -4.33301 -23.667 -13 -33s-20.334 -14 -35.001 -14c-15.333 0 -27.5 4.66699 -36.5 14s-13.5 20.333 -13.5 33zM19 -90l40 164h74
l-53 -164h-61z" />
    <glyph glyph-name="less" unicode="&#x3c;" horiz-adv-x="402" 
d="M36 208v48l330 200v-71l-256 -152v-1l256 -153v-70z" />
    <glyph glyph-name="equal" unicode="=" horiz-adv-x="379" 
d="M34 330h311v-57h-311v57zM345 189v-56h-311v56h311z" />
    <glyph glyph-name="greater" unicode="&#x3e;" horiz-adv-x="402" 
d="M36 9v70l256 153v1l-256 152v71l330 -200v-48z" />
    <glyph glyph-name="question" unicode="?" horiz-adv-x="385" 
d="M192 519c53.333 0 93.1709 -11.3281 119.504 -33.9951s39.5 -56 39.5 -100c0 -25.333 -6 -45.666 -18 -60.999s-25.167 -29.833 -39.5 -43.5s-27.5 -27.834 -39.5 -42.501s-18 -34 -18 -58v-18h-78v12c-0.666992 21.333 1.83301 39.666 7.5 54.999s13 28.666 22 39.999
s18.833 21.333 29.5 30s20.667 17.167 30 25.5s17.166 17.166 23.499 26.499s9.5 20.333 9.5 33c0 21.333 -6.83301 39.166 -20.5 53.499s-34.834 21.5 -63.501 21.5c-31.333 0 -54.666 -8.83301 -69.999 -26.5s-24 -41.5 -26 -71.5h-67c0.666992 22 4.66699 42.5 12 61.5
s17.666 35.667 30.999 50s29.666 25.666 48.999 33.999s41.666 12.5 66.999 12.5zM198.005 93.0049c14.667 0 26.5 -4.5 35.5 -13.5s13.5 -19.833 13.5 -32.5c0 -13.333 -4.5 -24.5 -13.5 -33.5s-20.833 -13.5 -35.5 -13.5c-15.333 0 -27.333 4.5 -36 13.5
s-13 20.167 -13 33.5c0 12.667 4.33301 23.5 13 32.5s20.667 13.5 36 13.5z" />
    <glyph glyph-name="at" unicode="@" horiz-adv-x="616" 
d="M312 489c36.667 0 71.8311 -5.50684 105.498 -16.5068s63.5 -27.167 89.5 -48.5s46.833 -47.666 62.5 -78.999s23.5 -67.666 23.5 -108.999c0 -61.333 -10.667 -106.666 -32 -135.999s-50 -44 -86 -44c-19.333 0 -36.666 5.33301 -51.999 16s-26 25.667 -32 45h-1
c-8.66699 -19.333 -21.5 -33.666 -38.5 -42.999s-35.167 -14 -54.5 -14c-38 0 -69.167 12.667 -93.5 38s-36.5 61.666 -36.5 108.999c0 18 2.66699 36 8 54s13.333 33.833 24 47.5s24.167 24.667 40.5 33s35.5 12.5 57.5 12.5c18.667 0 35.834 -4.16699 51.501 -12.5
s27.167 -20.833 34.5 -37.5h1v43h49v-189c0 -22.667 4.5 -37.5 13.5 -44.5s18.167 -10.5 27.5 -10.5c20 0 35.5 10.833 46.5 32.5s16.5 54.834 16.5 99.501c0 31.333 -5.33301 59.5 -16 84.5s-25.834 46.333 -45.501 64s-43.5 31.334 -71.5 41.001s-59.333 14.5 -94 14.5
c-34 0 -65 -5.16699 -93 -15.5s-52.333 -25.333 -73 -45s-36.667 -43.5 -48 -71.5s-17 -59.667 -17 -95c0 -73.333 20.667 -129.666 62 -168.999s100 -59 176 -59c12.667 0 25.5 0.333008 38.5 1s26.5 2 40.5 4v-51c-13.333 -1.33301 -26.666 -2.33301 -39.999 -3
s-26.666 -1 -39.999 -1c-44.667 0 -85 6.16699 -121 18.5s-66.833 30.333 -92.5 54s-45.334 52.834 -59.001 87.501s-20.5 74 -20.5 118c0 42 6.83301 80 20.5 114s33 63 58 87s55.333 42.667 91 56s75.5 20 119.5 20zM301.997 107.993
c23.333 0 41.832 8.83105 55.499 26.498s20.5 42.834 20.5 75.501c0 30.667 -6.66699 54.334 -20 71.001s-32 25 -56 25c-23.333 0 -42.166 -9 -56.499 -27s-21.5 -42 -21.5 -72c0 -12 1.5 -23.833 4.5 -35.5s7.66699 -22.167 14 -31.5s14.333 -17 24 -23s21.5 -9 35.5 -9z
" />
    <glyph glyph-name="A" unicode="A" horiz-adv-x="469" 
d="M388 0l-44 126h-220l-44 -126h-79l188 513h91l188 -513h-80zM327 182l-92 259h-2l-92 -259h186z" />
    <glyph glyph-name="B" unicode="B" horiz-adv-x="452" 
d="M304 260c36 -3.33301 64.833 -16.001 86.5 -38.001s32.5 -51 32.5 -87c0 -43.333 -15.833 -76.666 -47.5 -99.999s-74.834 -35 -129.501 -35h-208v513h177c56.667 0 101.334 -10.167 134.001 -30.5s49 -51.833 49 -94.5c0 -30.667 -8 -58 -24 -82
s-39.333 -38.667 -70 -44v-2zM218 280.999c32.667 0 58.333 8.33301 77 25s28 38.667 28 66c0 25.333 -9.33301 45.5 -28 60.5s-44.667 22.5 -78 22.5h-105v-174h106zM227.999 57.999c38 0 67.167 7.00098 87.5 21.001s30.5 35.667 30.5 65s-10.667 51.166 -32 65.499
s-51.333 21.5 -90 21.5h-112v-173h116z" />
    <glyph glyph-name="C" unicode="C" horiz-adv-x="493" 
d="M261 55c34 0 62.833 8.33105 86.5 24.998s39.5 40.667 47.5 72h75c-8.66699 -48.667 -31.5 -87.167 -68.5 -115.5s-83.833 -42.5 -140.5 -42.5c-73.333 0 -130.5 23.333 -171.5 70s-61.5 111.334 -61.5 194.001c0 40.667 5.33301 77.167 16 109.5s26 59.666 46 81.999
s44.5 39.5 73.5 51.5s61.5 18 97.5 18c26.667 0 51.834 -4 75.501 -12s44.667 -19.167 63 -33.5s33.666 -31.666 45.999 -51.999s20.5 -42.5 24.5 -66.5h-75c-8 30.667 -23.833 55.334 -47.5 74.001s-52.5 28 -86.5 28c-50 0 -88.833 -17.5 -116.5 -52.5
s-41.5 -83.833 -41.5 -146.5c0 -64 13.833 -113.833 41.5 -149.5s66.5 -53.5 116.5 -53.5z" />
    <glyph glyph-name="D" unicode="D" horiz-adv-x="487" 
d="M205 513c38.667 0 73.668 -5.66504 105.001 -16.998s58 -27.833 80 -49.5s39 -48.334 51 -80.001s18 -67.834 18 -108.501c0 -41.333 -6 -78 -18 -110s-29 -59 -51 -81s-48.833 -38.667 -80.5 -50s-66.834 -17 -105.501 -17h-166v513h167zM195.001 58.002
c58.667 0 104.333 17.167 137 51.5s49 83.5 49 147.5c0 63.333 -16.333 112 -49 146s-77.667 51 -135 51h-84v-396h82z" />
    <glyph glyph-name="E" unicode="E" horiz-adv-x="413" 
d="M113 454v-169h229v-58h-229v-169h267v-58h-342v513h342v-59h-267z" />
    <glyph glyph-name="F" unicode="F" horiz-adv-x="408" 
d="M112 454v-169h230v-58h-230v-227h-74v513h342v-59h-268z" />
    <glyph glyph-name="G" unicode="G" horiz-adv-x="507" 
d="M478 211c0 -30 -3.99902 -58.3359 -11.999 -85.0029s-20.667 -49.667 -38 -69s-39.666 -34.666 -66.999 -45.999s-60.333 -17 -99 -17c-72.667 0 -129.834 23.333 -171.501 70s-62.5 111.334 -62.5 194.001c0 40.667 5.5 77.167 16.5 109.5s26.833 59.666 47.5 81.999
s45.5 39.5 74.5 51.5s61.5 18 97.5 18c27.333 0 53 -4 77 -12s45.5 -19.167 64.5 -33.5s35 -31.666 48 -51.999s21.5 -42.5 25.5 -66.5h-75c-8 30.667 -24.833 55.334 -50.5 74.001s-55.5 28 -89.5 28c-49.333 0 -88.5 -17.5 -117.5 -52.5s-43.5 -83.833 -43.5 -146.5
c0 -64 14.167 -113.833 42.5 -149.5s67.166 -53.5 116.499 -53.5c24.667 0 46 3.66699 64 11s32.667 17.5 44 30.5s19.833 27.833 25.5 44.5s8.5 34.667 8.5 54v18h-128v55h202v-57z" />
    <glyph glyph-name="H" unicode="H" horiz-adv-x="496" 
d="M458 513v-513h-75v227h-271v-227h-74v513h74v-228h271v228h75z" />
    <glyph glyph-name="I" unicode="I" horiz-adv-x="160" 
d="M43 513h74v-513h-74v513z" />
    <glyph glyph-name="J" unicode="J" horiz-adv-x="388" 
d="M346 513l0.00195312 -358.001c0 -54 -15 -94.333 -45 -121s-70.667 -40 -122 -40c-24 0 -46 3.66699 -66 11s-37.5 17.833 -52.5 31.5s-26.667 30.334 -35 50.001s-12.5 41.5 -12.5 65.5h73c0 -18 2.66699 -33.167 8 -45.5s12.5 -22.333 21.5 -30s19 -13.167 30 -16.5
s22.167 -5 33.5 -5c12 0 23.667 1.66699 35 5s21.166 8.83301 29.499 16.5s15.166 18 20.499 31s8 29.5 8 49.5v356h74z" />
    <glyph glyph-name="K" unicode="K" horiz-adv-x="455" 
d="M443 0l-82 -0.000976562l-50 82l-41 67l-33 54c-7.33301 12 -16.666 22.167 -27.999 30.5s-24.666 13.833 -39.999 16.5l-56 -54v-196h-75v513h75v-228l232 228h90l-223 -219c17.333 -2.66699 33.666 -8.66699 48.999 -18s27.666 -21.666 36.999 -36.999z" />
    <glyph glyph-name="L" unicode="L" horiz-adv-x="373" 
d="M38 513h74v-455h247v-58h-321v513z" />
    <glyph glyph-name="M" unicode="M" horiz-adv-x="592" 
d="M554 513v-513h-73v395h-2l-161 -395h-43l-163 395h-2v-395h-72v513h94l163 -405h2l161 405h96z" />
    <glyph glyph-name="N" unicode="N" horiz-adv-x="491" 
d="M453 513v-513h-67l-273 393h-2v-393h-73v513h67l272 -390h2v390h74z" />
    <glyph glyph-name="O" unicode="O" horiz-adv-x="521" 
d="M261 56c50 0 89.167 17.833 117.5 53.5s42.5 84.834 42.5 147.501s-14.167 111.334 -42.5 146.001s-67.5 52 -117.5 52c-50.667 0 -90.167 -17.333 -118.5 -52s-42.5 -83.334 -42.5 -146.001s14.167 -111.834 42.5 -147.501s67.833 -53.5 118.5 -53.5zM261 519
c36.667 0 69.502 -6.16797 98.502 -18.501s53.833 -29.833 74.5 -52.5s36.5 -50.167 47.5 -82.5s16.5 -68.5 16.5 -108.5c0 -41.333 -5.5 -78.166 -16.5 -110.499s-26.833 -59.833 -47.5 -82.5s-45.5 -40 -74.5 -52s-61.833 -18 -98.5 -18c-74.667 0 -133 23.167 -175 69.5
s-63 110.833 -63 193.5c0 40 5.5 76.167 16.5 108.5s26.667 59.833 47 82.5s45.166 40.167 74.499 52.5s62.666 18.5 99.999 18.5z" />
    <glyph glyph-name="P" unicode="P" horiz-adv-x="416" 
d="M229 513c50 0 89.334 -12 118.001 -36s43 -60 43 -108c0 -47.333 -14.333 -83.333 -43 -108s-68.334 -37 -119.001 -37h-116v-224h-74v513h191zM214.001 282c34 0 60.167 7 78.5 21s27.5 36 27.5 66c0 32 -9.83301 54.167 -29.5 66.5s-47.5 18.5 -83.5 18.5h-95v-172h102
z" />
    <glyph glyph-name="Q" unicode="Q" horiz-adv-x="521" 
d="M512 24l0.000976562 -61.999l-261 32c-22 2.66699 -42.167 6 -60.5 10s-35.166 10.333 -50.499 19c-40 20 -69.5 50 -88.5 90s-28.5 88 -28.5 144c0 40 5.5 76.167 16.5 108.5s26.667 59.833 47 82.5s45.166 40.167 74.499 52.5s62.666 18.5 99.999 18.5
c36.667 0 69.5 -6.16699 98.5 -18.5s53.833 -29.833 74.5 -52.5s36.5 -50.167 47.5 -82.5s16.5 -68.5 16.5 -108.5c0 -58.667 -12.667 -106.334 -38 -143.001s-59.333 -62.667 -102 -78v-3zM100.001 257.001c0 -62.667 13.833 -111.5 41.5 -146.5s66.5 -52.5 116.5 -52.5
c50.667 0 90.5 17.333 119.5 52s43.5 83.667 43.5 147c0 62.667 -14.167 111.334 -42.5 146.001s-67.5 52 -117.5 52c-50.667 0 -90.167 -17.333 -118.5 -52s-42.5 -83.334 -42.5 -146.001z" />
    <glyph glyph-name="R" unicode="R" horiz-adv-x="446" 
d="M338 0l-126.002 224h-100v-224h-74v513h205c50.667 0 90.334 -12 119.001 -36s43 -60 43 -108c0 -38 -10.167 -68.833 -30.5 -92.5s-50.166 -38.167 -89.499 -43.5l133 -233h-80zM111.998 282h116c34 0 60.167 7 78.5 21s27.5 36 27.5 66s-9.16699 51.667 -27.5 65
s-44.5 20 -78.5 20h-116v-172z" />
    <glyph glyph-name="S" unicode="S" horiz-adv-x="441" 
d="M263 283c53.333 -11.333 92.1689 -27.501 116.502 -48.501s36.5 -50.5 36.5 -88.5c0 -46.667 -17.5 -83.667 -52.5 -111s-82.5 -41 -142.5 -41c-58 0 -104.667 13.667 -140 41s-54 64 -56 110h71c4 -27.333 17.167 -49.5 39.5 -66.5s51.5 -25.5 87.5 -25.5
s64.333 7.83301 85 23.5s31 36.5 31 62.5c0 22 -8 39.333 -24 52s-43.333 23.334 -82 32.001l-54 11c-50 11.333 -87 28 -111 50s-36 51 -36 87c0 22 4.83301 42 14.5 60s22.667 33.5 39 46.5s35.666 23.167 57.999 30.5s46.5 11 72.5 11c30.667 0 57.5 -4.16699 80.5 -12.5
s42.333 -19.5 58 -33.5s27.667 -30.5 36 -49.5s13.166 -39.5 14.499 -61.5h-73c-2 28 -12.833 51.167 -32.5 69.5s-47.167 27.5 -82.5 27.5c-32 0 -58.333 -7.66699 -79 -23s-31 -35.333 -31 -60c0 -21.333 8 -38.333 24 -51s42 -22.667 78 -30z" />
    <glyph glyph-name="T" unicode="T" horiz-adv-x="404" 
d="M397 454h-158v-454h-74v454h-158v59h390v-59z" />
    <glyph glyph-name="U" unicode="U" horiz-adv-x="483" 
d="M112 188c0 -40.667 11.333 -72.667 34 -96s54.334 -35 95.001 -35c41.333 0 73.333 11.5 96 34.5s34 55.167 34 96.5v325h74v-332c0 -57.333 -18.333 -102.833 -55 -136.5s-86.334 -50.5 -149.001 -50.5c-31.333 0 -59.5 4.33301 -84.5 13s-46.167 21.167 -63.5 37.5
s-30.833 36 -40.5 59s-14.5 48.833 -14.5 77.5v332h74v-325z" />
    <glyph glyph-name="V" unicode="V" horiz-adv-x="469" 
d="M189 0l-188 513h79l153 -440h2l153 440h80l-188 -513h-91z" />
    <glyph glyph-name="W" unicode="W" horiz-adv-x="670" 
d="M661 513l-136 -513h-75l-114 401h-3l-113 -401h-75l-136 513h77l101 -411h2l113 411h66l113 -411h2l101 411h77z" />
    <glyph glyph-name="X" unicode="X" horiz-adv-x="463" 
d="M365 0l-132 209h-2l-133 -209h-87l170 257l-169 256h87l132 -211h2l132 211h87l-169 -256l169 -257h-87z" />
    <glyph glyph-name="Y" unicode="Y" horiz-adv-x="449" 
d="M262 231v-231h-75v233l-183 280h88l132 -211h1l132 211h88z" />
    <glyph glyph-name="Z" unicode="Z" horiz-adv-x="446" 
d="M413 59v-59h-380v49l284 403v2h-277v59h368v-50l-281 -403v-1h286z" />
    <glyph glyph-name="bracketleft" unicode="[" horiz-adv-x="262" 
d="M141 489v-499h103v-50h-171v602h171v-53h-103z" />
    <glyph glyph-name="backslash" unicode="\" horiz-adv-x="287" 
d="M274 0h-76l-185 513h75z" />
    <glyph glyph-name="bracketright" unicode="]" horiz-adv-x="262" 
d="M18 542h171v-602h-171v50h103v499h-103v53z" />
    <glyph glyph-name="asciicircum" unicode="^" horiz-adv-x="293" 
d="M274 355h-64l-63 98h-2l-63 -98h-63l100 158h54z" />
    <glyph glyph-name="underscore" unicode="_" horiz-adv-x="425" 
d="M406 -81h-387v56h387v-56z" />
    <glyph glyph-name="grave" unicode="`" horiz-adv-x="167" 
d="M160 355h-65l-88 158h80z" />
    <glyph glyph-name="a" unicode="a" horiz-adv-x="387" 
d="M200 379c47.333 0 84.5 -11.832 111.5 -35.499s40.5 -55.167 40.5 -94.5v-249h-70v70h-1c-10 -24.667 -27.833 -43.5 -53.5 -56.5s-52.5 -19.5 -80.5 -19.5c-36 0 -65.333 10.167 -88 30.5s-34 46.833 -34 79.5c0 68 47.667 105.667 143 113l111 7v21
c0 25.333 -7.33301 45.166 -22 59.499s-34.667 21.5 -60 21.5s-45.833 -5.66699 -61.5 -17s-25.167 -27.333 -28.5 -48h-66c4 36 20 64.667 48 86s65 32 111 32zM279 181.001l-101 -8c-54.667 -4 -82 -25.667 -82 -65c0 -19.333 6.83301 -34.833 20.5 -46.5
s31.5 -17.5 53.5 -17.5c14.667 0 28.5 2.83301 41.5 8.5s24.5 13.167 34.5 22.5s18 20.333 24 33s9 25.667 9 39v34z" />
    <glyph glyph-name="b" unicode="b" horiz-adv-x="417" 
d="M240 379c22 0 42.501 -4.49805 61.501 -13.498s35.333 -21.667 49 -38s24.334 -36.5 32.001 -60.5s11.5 -51 11.5 -81s-4 -56.833 -12 -80.5s-18.833 -43.834 -32.5 -60.501s-29.834 -29.334 -48.501 -38.001s-38.667 -13 -60 -13c-32 0 -59.833 7.16699 -83.5 21.5
s-40.834 33.833 -51.501 58.5h-1v-74h-70v513h73v-215h1c11.333 26 28 46 50 60s49 21 81 21zM214.001 51.002c32.667 0 58.834 12.168 78.501 36.501s29.5 57.166 29.5 98.499c0 42 -9.83301 75 -29.5 99s-45.834 36 -78.501 36c-32 0 -57.667 -12.333 -77 -37
s-29 -57.334 -29 -98.001c0 -41.333 9.66699 -74.166 29 -98.499s45 -36.5 77 -36.5z" />
    <glyph glyph-name="c" unicode="c" horiz-adv-x="392" 
d="M207 50c23.333 0 43.334 5.83496 60.001 17.502s27.667 28.167 33 49.5h69c-5.33301 -38.667 -22.5 -68.834 -51.5 -90.501s-66.167 -32.5 -111.5 -32.5c-55.333 0 -98.833 16.667 -130.5 50s-47.5 80.666 -47.5 141.999s15.833 108.833 47.5 142.5
s74.834 50.5 129.501 50.5c45.333 0 82.666 -11.5 111.999 -34.5s46.666 -53.5 51.999 -91.5h-68c-5.33301 21.333 -16.5 38.333 -33.5 51s-37.167 19 -60.5 19c-32.667 0 -58.667 -12.167 -78 -36.5s-29 -57.833 -29 -100.5c0 -42 9.66699 -75.167 29 -99.5
s45.333 -36.5 78 -36.5z" />
    <glyph glyph-name="d" unicode="d" horiz-adv-x="418" 
d="M177 379c32 0 59.167 -7.00195 81.5 -21.002s39.166 -34 50.499 -60h1v215h73v-513h-70v74h-2c-10 -24.667 -26.833 -44.167 -50.5 -58.5s-51.5 -21.5 -83.5 -21.5c-21.333 0 -41.333 4.33301 -60 13s-35 21.334 -49 38.001s-25 36.834 -33 60.501s-12 50.5 -12 80.5
s3.83301 57 11.5 81s18.334 44.167 32.001 60.5s30 29 49 38s39.5 13.5 61.5 13.5zM203 50.998c32 0 57.833 12.166 77.5 36.499s29.5 57.166 29.5 98.499c0 40.667 -9.83301 73.334 -29.5 98.001s-45.5 37 -77.5 37c-32.667 0 -58.667 -12 -78 -36s-29 -57 -29 -99
c0 -41.333 9.66699 -74.166 29 -98.499s45.333 -36.5 78 -36.5z" />
    <glyph glyph-name="e" unicode="e" horiz-adv-x="402" 
d="M99 172c0.666992 -38.667 10.832 -68.832 30.499 -90.499s45.5 -32.5 77.5 -32.5c26 0 46.833 6 62.5 18s26.834 28.667 33.501 50h68c-8.66699 -40 -26.667 -70.5 -54 -91.5s-64.333 -31.5 -111 -31.5c-56 0 -99.667 16.5 -131 49.5s-47 80.833 -47 143.5
c0 60 15.833 107 47.5 141s74.5 51 128.5 51s95.833 -16.833 125.5 -50.5s44.5 -78.834 44.5 -135.501v-21h-275zM203.998 324.002c-30 0 -54.168 -10 -72.501 -30s-28.833 -46 -31.5 -78h206c-1.33301 32 -11.166 58 -29.499 78s-42.5 30 -72.5 30z" />
    <glyph glyph-name="f" unicode="f" horiz-adv-x="240" 
d="M240 460c-9.33301 1.33301 -17.833 1.99902 -25.5 1.99902h-18.5c-16.667 -1.33301 -28 -6.16602 -34 -14.499s-9 -21.5 -9 -39.5v-34h70v-50h-70v-324h-73v324h-62v50h62v34c0 40 9.83301 68.333 29.5 85s47.167 25 82.5 25c14.667 0 30.667 -2 48 -6v-52v0z" />
    <glyph glyph-name="g" unicode="g" horiz-adv-x="417" 
d="M382 374v-361.998c0 -24.667 -4.5 -46.167 -13.5 -64.5s-21.167 -33.5 -36.5 -45.5s-33.5 -21 -54.5 -27s-43.833 -9 -68.5 -9c-42.667 0 -79.334 8.33301 -110.001 25s-51 44.667 -61 84h71c8 -21.333 21 -35.5 39 -42.5s37.333 -10.5 58 -10.5
c14.667 0 28.334 1.5 41.001 4.5s23.667 8.33301 33 16s16.666 17.667 21.999 30s8 27.833 8 46.5v66h-1c-10.667 -29.333 -27.167 -50 -49.5 -62s-49.166 -18 -80.499 -18c-22 0 -42.5 4.33301 -61.5 13s-35.5 21 -49.5 37s-25 35.5 -33 58.5s-12 48.5 -12 76.5
c0 29.333 4.16699 55.666 12.5 78.999s19.5 43.166 33.5 59.499s30.5 28.833 49.5 37.5s39.167 13 60.5 13c32 0 59.333 -6.33301 82 -19s39.667 -33 51 -61h1v75h69zM203 62.002c32 0 58.001 11.668 78.001 35.001s30 54.666 30 93.999
c0 38.667 -9.83301 70.167 -29.5 94.5s-45.834 36.5 -78.501 36.5c-32 0 -57.833 -12 -77.5 -36s-29.5 -56 -29.5 -96c0 -38.667 9.83301 -69.667 29.5 -93s45.5 -35 77.5 -35z" />
    <glyph glyph-name="h" unicode="h" horiz-adv-x="407" 
d="M234 379c43.333 0 77.167 -12 101.5 -36s36.5 -62.667 36.5 -116v-227h-71v215c0 71.333 -31.333 107 -94 107c-30.667 0 -55 -12 -73 -36s-27 -54.667 -27 -92v-194h-72v513h71v-223c9.33301 30.667 25 53.167 47 67.5s49 21.5 81 21.5z" />
    <glyph glyph-name="i" unicode="i" horiz-adv-x="172" 
d="M50 374h72v-374h-72v374zM86 515c13.333 0 24 -4 32 -12s12 -17.667 12 -29c0 -12 -4 -22 -12 -30s-18.667 -12 -32 -12s-24 4 -32 12s-12 18 -12 30c0 11.333 4 21 12 29s18.667 12 32 12z" />
    <glyph glyph-name="j" unicode="j" horiz-adv-x="175" 
d="M52 374h72.001v-400c0 -40 -10 -68 -30 -84s-47 -24 -81 -24c-8 0 -16.167 0.333008 -24.5 1s-16.5 2 -24.5 4v53c10 -2 19.333 -3 28 -3c19.333 0 34.166 3.83301 44.499 11.5s15.5 22.167 15.5 43.5v398zM89.001 515c13.333 0 24 -4 32 -12s12 -17.667 12 -29
c0 -12 -4 -22 -12 -30s-18.667 -12 -32 -12c-14 0 -24.833 4 -32.5 12s-11.5 18 -11.5 30c0 11.333 3.83301 21 11.5 29s18.5 12 32.5 12z" />
    <glyph glyph-name="k" unicode="k" horiz-adv-x="383" 
d="M369 0h-80.998l-20.5 32l-26 41l-26 41l-19.5 32c-10.667 17.333 -25.334 28 -44.001 32l-45 -42v-136h-72v513h72v-299l167 160h88l-168 -156c12.667 -2 24.167 -6 34.5 -12s19.166 -14.667 26.499 -26z" />
    <glyph glyph-name="l" unicode="l" horiz-adv-x="208" 
d="M197 55l0.000976562 -52c-8.66699 -2 -16.834 -3.33301 -24.501 -4s-15.5 -1 -23.5 -1c-38 0 -64.333 10.167 -79 30.5s-22 51.5 -22 93.5v392h73v-403c0 -21.333 3.83301 -36.333 11.5 -45s23.167 -13 46.5 -13c3.33301 0 6.33301 0.166992 9 0.5
s5.66699 0.833008 9 1.5z" />
    <glyph glyph-name="m" unicode="m" horiz-adv-x="609" 
d="M452 381c38.667 0 68.666 -11.832 89.999 -35.499s32 -56.5 32 -98.5v-247h-72v231c0 28 -6.66699 50.333 -20 67s-32.666 25 -57.999 25c-26.667 0 -47.167 -9.83301 -61.5 -29.5s-21.5 -44.167 -21.5 -73.5v-220h-72v231c0 28 -7 50.333 -21 67s-33.333 25 -58 25
c-25.333 0 -45.5 -10.167 -60.5 -30.5s-22.5 -46.5 -22.5 -78.5v-214h-72v374h69v-74h1c8 25.333 21.333 45.166 40 59.499s43 21.5 73 21.5c29.333 0 53.5 -7.5 72.5 -22.5s32.5 -34.833 40.5 -59.5h1c9.33301 25.333 24 45.333 44 60s45.333 22 76 22z" />
    <glyph glyph-name="n" unicode="n" horiz-adv-x="407" 
d="M234 379c43.333 0 77.167 -12 101.5 -36s36.5 -62.667 36.5 -116v-227h-71v215c0 71.333 -31.333 107 -94 107c-30.667 0 -55 -12 -73 -36s-27 -54.667 -27 -92v-194h-72v374h71v-84c9.33301 30.667 25 53.167 47 67.5s49 21.5 81 21.5z" />
    <glyph glyph-name="o" unicode="o" horiz-adv-x="402" 
d="M201 379c54.667 0 98.334 -16.833 131.001 -50.5s49 -81.167 49 -142.5c0 -60.667 -16.333 -107.834 -49 -141.501s-76.334 -50.5 -131.001 -50.5s-98.334 16.833 -131.001 50.5s-49 80.834 -49 141.501c0 61.333 16.333 108.833 49 142.5s76.334 50.5 131.001 50.5z
M201 50c32 0 58.333 11.833 79 35.5s31 57.167 31 100.5c0 44 -10.333 77.833 -31 101.5s-47 35.5 -79 35.5s-58.167 -11.833 -78.5 -35.5s-30.5 -57.5 -30.5 -101.5c0 -43.333 10.167 -76.833 30.5 -100.5s46.5 -35.5 78.5 -35.5z" />
    <glyph glyph-name="p" unicode="p" horiz-adv-x="417" 
d="M214 52c32 0 58.001 12.002 78.001 36.002s30 56.667 30 98c0 42 -9.83301 75.167 -29.5 99.5s-45.834 36.5 -78.501 36.5c-32 0 -57.833 -12.333 -77.5 -37s-29.5 -57.334 -29.5 -98.001s9.83301 -73.334 29.5 -98.001s45.5 -37 77.5 -37zM240.001 379.002
c21.333 0 41.334 -4.49902 60.001 -13.499s35 -21.667 49 -38s25 -36.5 33 -60.5s12 -51 12 -81c0 -32 -4.16699 -60 -12.5 -84s-19.833 -44 -34.5 -60s-32 -28 -52 -36s-41.333 -12 -64 -12c-27.333 0 -52.333 6.5 -75 19.5s-38.667 32.167 -48 57.5h-1v-201h-72v504h69
v-76h1c9.33301 25.333 25.166 45.166 47.499 59.499s51.5 21.5 87.5 21.5z" />
    <glyph glyph-name="q" unicode="q" horiz-adv-x="417" 
d="M203 52c32 0 57.834 12.3311 77.501 36.998s29.5 57.334 29.5 98.001s-9.83301 73.334 -29.5 98.001s-45.5 37 -77.5 37c-32.667 0 -58.834 -12.167 -78.501 -36.5s-29.5 -57.5 -29.5 -99.5c0 -41.333 10 -74 30 -98s46 -36 78 -36zM177.001 378.998
c36 0 65.1689 -7.16797 87.502 -21.501s38.166 -34.166 47.499 -59.499h1v76h69v-504h-72v201h-1c-9.33301 -25.333 -25.333 -44.5 -48 -57.5s-47.667 -19.5 -75 -19.5c-23.333 0 -44.833 4 -64.5 12s-36.834 20 -51.501 36s-26.167 36 -34.5 60s-12.5 52 -12.5 84
c0 30 4 57 12 81s19 44.167 33 60.5s30.333 29 49 38s38.667 13.5 60 13.5z" />
    <glyph glyph-name="r" unicode="r" horiz-adv-x="256" 
d="M109 301c8.66699 28 24.5 49.168 47.5 63.501s52.833 18.166 89.5 11.499v-58c-21.333 4 -40.5 3.5 -57.5 -1.5s-31.5 -13.333 -43.5 -25s-21.167 -26 -27.5 -43s-9.5 -35.167 -9.5 -54.5v-194h-71v374h70v-73h2v0z" />
    <glyph glyph-name="s" unicode="s" horiz-adv-x="358" 
d="M194 213c47.333 -10 82.334 -22.3291 105.001 -36.9961s34 -37 34 -67c0 -35.333 -13.5 -63.333 -40.5 -84s-64.167 -31 -111.5 -31c-18.667 0 -36.834 2.16699 -54.501 6.5s-33.667 11.166 -48 20.499s-26.333 21.333 -36 36s-15.5 32 -17.5 52h69
c3.33301 -19.333 13 -35 29 -47s35.667 -18 59 -18s42.166 5.16699 56.499 15.5s21.5 24.166 21.5 41.499c0 12.667 -5.16699 23.5 -15.5 32.5s-28.166 16.167 -53.499 21.5l-50 10c-73.333 16 -110 49.667 -110 101c0 17.333 4 33 12 47s18.667 25.833 32 35.5
s28.833 17 46.5 22s36.167 7.5 55.5 7.5c18 0 35.333 -2.16699 52 -6.5s31.667 -11.333 45 -21s24.333 -21.834 33 -36.501s14 -32.334 16 -53.001h-66c-2.66699 21.333 -11.334 37.333 -26.001 48s-33 16 -55 16c-21.333 0 -39.166 -5.16699 -53.499 -15.5
s-21.5 -23.5 -21.5 -39.5c0 -14.667 7 -26 21 -34s38 -15.667 72 -23z" />
    <glyph glyph-name="t" unicode="t" horiz-adv-x="249" 
d="M195 53c8.66699 0 19.667 0.999023 33 2.99902v-53l-19.5 -3.5c-5.66699 -1 -11.834 -1.5 -18.501 -1.5c-39.333 -1.33301 -68.166 6.83398 -86.499 24.501s-27.5 50.167 -27.5 97.5v204h-61v50h63v93h71v-93h74v-50h-74v-213c0 -20 3.16699 -34.333 9.5 -43
s18.5 -13.667 36.5 -15z" />
    <glyph glyph-name="u" unicode="u" horiz-adv-x="407" 
d="M372 374l0.00195312 -374.001h-70v83h-1c-6 -17.333 -13.833 -31.666 -23.5 -42.999s-20.334 -20.333 -32.001 -27s-24 -11.5 -37 -14.5s-25.833 -4.5 -38.5 -4.5c-42.667 0 -75.834 12.333 -99.501 37s-35.5 63 -35.5 115v228h72v-217c0 -36 7.5 -62.667 22.5 -80
s38.5 -26 70.5 -26c30.667 0 55 11.833 73 35.5s27 54.5 27 92.5v195h72z" />
    <glyph glyph-name="v" unicode="v" horiz-adv-x="366" 
d="M230 0h-92l-134 374h77l103 -315h1l102 315h75z" />
    <glyph glyph-name="w" unicode="w" horiz-adv-x="546" 
d="M439 0h-82l-83 303h-2l-83 -303h-82l-98 374h74l71 -308h2l82 308h71l83 -308h2l71 308h72z" />
    <glyph glyph-name="x" unicode="x" horiz-adv-x="373" 
d="M278 0l-92 149h-1l-90 -149h-80l122 188l-122 186h80l90 -147h1l92 147h80l-125 -186l125 -188h-80z" />
    <glyph glyph-name="y" unicode="y" horiz-adv-x="365" 
d="M360 374c-3.33301 -12 -9.50098 -31.166 -18.501 -57.499l-31.5 -89.5l-37.5 -105l-37.5 -105c-11.333 -32 -22.5 -58 -33.5 -78s-23.167 -35.5 -36.5 -46.5s-28.5 -18.167 -45.5 -21.5s-36.833 -4.33301 -59.5 -3c-10 0 -19.667 1.66699 -29 5v50
c5.33301 -0.666992 10 -1.16699 14 -1.5s8.66699 -0.5 14 -0.5c11.333 0 21.333 0.5 30 1.5s16.334 3.5 23.001 7.5s12.667 10.167 18 18.5s11 20.166 17 35.499l-142 390h78l100 -315h1l100 315h76z" />
    <glyph glyph-name="z" unicode="z" horiz-adv-x="360" 
d="M327 53v-53h-294v41l208 276v2h-208v55h294v-47l-204 -272v-2h204z" />
    <glyph glyph-name="braceleft" unicode="{" horiz-adv-x="281" 
d="M169 336c0 -14 -2.33105 -26.499 -6.99805 -37.499s-10.334 -20.5 -17.001 -28.5s-13.834 -14.5 -21.501 -19.5s-14.5 -8.5 -20.5 -10.5v-1c20 -6 36 -16.5 48 -31.5s18 -36.167 18 -63.5v-99c0 -22.667 5.5 -37.5 16.5 -44.5s26.833 -10.5 47.5 -10.5h30v-50h-41
c-40.667 0 -71 8.16699 -91 24.5s-30 44.5 -30 84.5v89c0 23.333 -5.83301 41.833 -17.5 55.5s-30.167 21.5 -55.5 23.5v47c48.667 4 73 30.333 73 79v88c0 41.333 10 70.166 30 86.499s50.333 24.5 91 24.5h41v-53h-30c-12.667 0 -23 -1 -31 -3s-14.5 -6 -19.5 -12
s-8.5 -14.167 -10.5 -24.5s-3 -23.833 -3 -40.5v-73v0z" />
    <glyph glyph-name="bar" unicode="|" horiz-adv-x="211" 
d="M138 585v-661h-65v661h65z" />
    <glyph glyph-name="braceright" unicode="}" horiz-adv-x="281" 
d="M111 398c0 18.667 -0.833984 33.999 -2.50098 45.999s-4.66699 21.333 -9 28s-10.666 11.167 -18.999 13.5s-19.166 3.5 -32.499 3.5h-30v53h40c44 0 75.333 -9.16699 94 -27.5s28 -50.166 28 -95.499v-76c0 -48.667 24.333 -75 73 -79v-47
c-25.333 -2 -43.833 -9.83301 -55.5 -23.5s-17.5 -32.167 -17.5 -55.5v-77c0 -44.667 -9.16699 -76 -27.5 -94s-49.833 -27 -94.5 -27h-40v50h30c20 0 35.5 3.5 46.5 10.5s16.5 21.833 16.5 44.5v99c0 27.333 6.16699 48.5 18.5 63.5s28.5 25.5 48.5 31.5
c-6 2.66699 -13 6.5 -21 11.5s-15.333 11.333 -22 19s-12.334 17 -17.001 28s-7 23.833 -7 38.5v62z" />
    <glyph glyph-name="asciitilde" unicode="~" horiz-adv-x="418" 
d="M137 237c-13.333 0 -24.001 -5.5 -32.001 -16.5s-12.333 -27.167 -13 -48.5h-58c0 38.667 8 69 24 91s40 33 72 33c15.333 0 29.333 -3.5 42 -10.5s24.834 -14.833 36.501 -23.5s23 -16.5 34 -23.5s22.5 -10.5 34.5 -10.5c14 0 25.5 5.66699 34.5 17s13.833 28 14.5 50
h58c0 -38 -9 -68.5 -27 -91.5s-42 -34.5 -72 -34.5c-16 0 -30.5 3.5 -43.5 10.5s-25.333 14.833 -37 23.5s-23 16.5 -34 23.5s-22.167 10.5 -33.5 10.5z" />
    <glyph glyph-name="Zcaron" horiz-adv-x="446" 
d="M413 59v-59h-380v49l284 403v2h-277v59h368v-50l-281 -403v-1h286zM202 553l-101 154h63l63 -98h2l63 98h64l-101 -154h-53z" />
    <glyph glyph-name="Zcaron" unicode="&#x17d;" horiz-adv-x="446" 
d="M413 59v-59h-380v49l284 403v2h-277v59h368v-50l-281 -403v-1h286zM202 553l-101 154h63l63 -98h2l63 98h64l-101 -154h-53z" />
    <glyph glyph-name="zcaron" horiz-adv-x="360" 
d="M327 53v-53h-294v41l208 276v2h-208v55h294v-47l-204 -272v-2h204zM160 422l-100 154h62l63 -99h3l63 99h64l-102 -154h-53z" />
    <glyph glyph-name="zcaron" unicode="&#x17e;" horiz-adv-x="360" 
d="M327 53v-53h-294v41l208 276v2h-208v55h294v-47l-204 -272v-2h204zM160 422l-100 154h62l63 -99h3l63 99h64l-102 -154h-53z" />
    <glyph glyph-name="nonbreakingspace" unicode="&#xa0;" horiz-adv-x="235" 
 />
    <glyph glyph-name="exclamdown" unicode="&#xa1;" horiz-adv-x="184" 
d="M129 123v-209h-74v209l5 142h64zM92 333c-15.333 0 -27.333 4.66699 -36 14s-13 20.333 -13 33c0 13.333 4.33301 24.5 13 33.5s20.667 13.5 36 13.5c14.667 0 26.5 -4.5 35.5 -13.5s13.5 -20.167 13.5 -33.5c0 -12.667 -4.5 -23.667 -13.5 -33s-20.833 -14 -35.5 -14z
" />
    <glyph glyph-name="cent" unicode="&#xa2;" horiz-adv-x="392" 
d="M239 449v-73c36 -4.66699 65.333 -18 88 -40s36.667 -49.667 42 -83h-68c-5.33301 21.333 -16.5 38.333 -33.5 51s-37.167 19 -60.5 19c-32.667 0 -58.667 -12.167 -78 -36.5s-29 -57.833 -29 -100.5c0 -42 9.66699 -75.167 29 -99.5s45.333 -36.5 78 -36.5
c23.333 0 43.333 5.83301 60 17.5s27.667 28.167 33 49.5h69c-5.33301 -34 -19.333 -61.333 -42 -82s-52 -33.667 -88 -39v-72h-66v72c-45.333 5.33301 -80.833 24.5 -106.5 57.5s-38.5 77.167 -38.5 132.5s12.833 99.5 38.5 132.5s61.167 52.167 106.5 57.5v73h66z" />
    <glyph glyph-name="sterling" unicode="&#xa3;" horiz-adv-x="429" 
d="M41 255l61.998 0.00390625c-4 10.667 -8.5 21.334 -13.5 32.001s-9.66699 21.334 -14 32.001s-8.16602 21.167 -11.499 31.5s-5 20.166 -5 29.499c0 39.333 13 72.333 39 99s66.667 40 122 40c30 0 55.667 -4.33301 77 -13s38.833 -20.5 52.5 -35.5
s23.834 -32.5 30.501 -52.5s10.334 -41 11.001 -63h-68c-0.666992 29.333 -8.83398 54.166 -24.501 74.499s-41.834 30.5 -78.501 30.5c-32 0 -55 -7.83301 -69 -23.5s-21 -36.167 -21 -61.5c0 -6.66699 1.66699 -14.334 5 -23.001s7.5 -18.334 12.5 -29.001
s9.83301 -21.667 14.5 -33s8.66699 -23 12 -35h160v-53h-155c-0.666992 -16.667 -2.66699 -31.334 -6 -44.001s-7.5 -24.334 -12.5 -35.001s-10.667 -21 -17 -31s-13.5 -20.333 -21.5 -31v-2h278v-59h-362v45l27.5 34c9 10.667 17 21.834 24 33.501s12.833 24.667 17.5 39
s7.33398 31.166 8.00098 50.499h-74v53z" />
    <glyph glyph-name="currency" unicode="&#xa4;" horiz-adv-x="384" 
d="M47 237c0 30 8.66406 56.6689 25.9971 80.002l-40 40l38 38l40 -40c22.667 17.333 49.334 26 80.001 26c30 0 56.667 -8.66699 80 -26l39 40l41 -37l-42 -41c8.66699 -11.333 15.334 -23.833 20.001 -37.5s7 -27.834 7 -42.501c0 -30.667 -9 -57.334 -27 -80.001l41 -40
l-39 -39l-40 40c-11.333 -9.33301 -23.666 -15.833 -36.999 -19.5s-27.666 -5.5 -42.999 -5.5c-14.667 0 -28.834 2 -42.501 6s-26.167 10.333 -37.5 19l-41 -41l-36 40l39 40c-17.333 22 -26 48.667 -26 80zM99.9971 238.002c0 -12 2.33301 -23.667 7 -35
s11.167 -21.166 19.5 -29.499s18 -15 29 -20s22.833 -7.5 35.5 -7.5s24.5 2.5 35.5 7.5s20.667 11.667 29 20s14.833 18.166 19.5 29.499s7 23 7 35c0 11.333 -2.33301 22.5 -7 33.5s-11.167 20.667 -19.5 29s-18 15 -29 20s-22.833 7.5 -35.5 7.5s-24.5 -2.5 -35.5 -7.5
s-20.667 -11.667 -29 -20s-14.833 -18 -19.5 -29s-7 -22.167 -7 -33.5z" />
    <glyph glyph-name="yen" unicode="&#xa5;" horiz-adv-x="449" 
d="M167 270l-163 243h88l132 -211h1l132 211h88l-163 -243h98v-48h-118v-57h118v-48h-118v-117h-75v117h-118v48h118v57h-118v48h98z" />
    <glyph glyph-name="brokenbar" unicode="&#xa6;" horiz-adv-x="211" 
d="M138 585v-235h-65v235h65zM138 157v-233h-65v233h65z" />
    <glyph glyph-name="section" unicode="&#xa7;" horiz-adv-x="363" 
d="M194 113c-32 6.66699 -58.999 13.835 -80.999 21.502s-39.667 16 -53 25s-23 19.5 -29 31.5s-9 26 -9 42c0 24 7.16699 43.667 21.5 59s31.5 26.333 51.5 33c-24 8.66699 -42 21.667 -54 39s-18 36.333 -18 57c0 16.667 4 31.834 12 45.501s19 25.167 33 34.5
s30.667 16.5 50 21.5s40 7.5 62 7.5c19.333 0 38.333 -2 57 -6s35.5 -10.5 50.5 -19.5s27.5 -21.167 37.5 -36.5s16 -34 18 -56h-63c-6.66699 22 -18.334 37.5 -35.001 46.5s-38.667 13.5 -66 13.5c-25.333 0 -45.666 -4.66699 -60.999 -14s-23 -22.333 -23 -39
c0 -13.333 5.5 -24.5 16.5 -33.5s30.167 -16.5 57.5 -22.5c32 -7.33301 59 -14.5 81 -21.5s39.667 -15.167 53 -24.5s23 -19.833 29 -31.5s9 -25.5 9 -41.5c0 -24.667 -7.33301 -45.167 -22 -61.5s-32 -27.5 -52 -33.5c22.667 -9.33301 40.667 -21.833 54 -37.5
s20 -33.834 20 -54.501c0 -34 -14.833 -60.667 -44.5 -80s-67.5 -29 -113.5 -29c-19.333 0 -38.333 1.83301 -57 5.5s-35.5 10 -50.5 19s-27.5 21 -37.5 36s-16 33.5 -18 55.5h63c7.33301 -22 19.666 -37.333 36.999 -46s38 -13 62 -13c10.667 0 21.167 1.16699 31.5 3.5
s19.5 5.83301 27.5 10.5s14.5 10.167 19.5 16.5s7.5 13.5 7.5 21.5c0 13.333 -5.5 24.666 -16.5 33.999s-30.167 16.666 -57.5 21.999zM274.001 238.001c0 10.667 -3 20.167 -9 28.5s-13.667 15 -23 20s-20 8.83301 -32 11.5s-24 4 -36 4c-28 0 -49 -6.16699 -63 -18.5
s-21 -27.5 -21 -45.5c0 -17.333 8 -32.333 24 -45s41.333 -19 76 -19c28 0 49 6.16699 63 18.5s21 27.5 21 45.5z" />
    <glyph glyph-name="dieresis" unicode="&#xa8;" horiz-adv-x="337" 
d="M43 468c0 11.333 4.33301 21.5 13 30.5s19.334 13.5 32.001 13.5c12 0 22.333 -4.5 31 -13.5s13 -19.167 13 -30.5c0 -12.667 -4.33301 -23.5 -13 -32.5s-19 -13.5 -31 -13.5c-12.667 0 -23.334 4.5 -32.001 13.5s-13 19.833 -13 32.5zM205 468
c0 11.333 4.33301 21.5 13 30.5s19.334 13.5 32.001 13.5c11.333 0 21.5 -4.5 30.5 -13.5s13.5 -19.167 13.5 -30.5c0 -12.667 -4.5 -23.5 -13.5 -32.5s-19.167 -13.5 -30.5 -13.5c-12.667 0 -23.334 4.5 -32.001 13.5s-13 19.833 -13 32.5z" />
    <glyph glyph-name="copyright" unicode="&#xa9;" horiz-adv-x="600" 
d="M23 251c0 38 7.33301 73.833 22 107.5s34.5 63 59.5 88s54.333 44.833 88 59.5s69.5 22 107.5 22s73.833 -7.33301 107.5 -22s63 -34.5 88 -59.5s44.833 -54.333 59.5 -88s22 -69.5 22 -107.5s-7.33301 -73.833 -22 -107.5s-34.5 -63 -59.5 -88
s-54.333 -44.833 -88 -59.5s-69.5 -22 -107.5 -22s-73.833 7.33301 -107.5 22s-63 34.5 -88 59.5s-44.833 54.333 -59.5 88s-22 69.5 -22 107.5zM73 252c0 -32 5.83301 -61.833 17.5 -89.5s27.834 -51.834 48.501 -72.501s44.834 -36.834 72.501 -48.501
s57.167 -17.5 88.5 -17.5s60.833 5.83301 88.5 17.5s51.834 27.834 72.501 48.501s37 44.834 49 72.501s18 57.5 18 89.5c0 31.333 -6 60.833 -18 88.5s-28.333 51.834 -49 72.501s-44.834 37 -72.501 49s-57.167 18 -88.5 18s-60.833 -6 -88.5 -18
s-51.834 -28.333 -72.501 -49s-36.834 -44.834 -48.501 -72.501s-17.5 -57.167 -17.5 -88.5zM305 143c19.333 0 35.501 4.83496 48.501 14.502s21.833 23.167 26.5 40.5h54c-5.33301 -30.667 -19.5 -54.834 -42.5 -72.501s-51.833 -26.5 -86.5 -26.5
c-44.667 0 -79.667 13.833 -105 41.5s-38 66.5 -38 116.5s12.667 88.667 38 116s60.333 41 105 41c34 0 62.667 -9.33301 86 -28s37.666 -43 42.999 -73h-54c-4.66699 17.333 -13.667 31.166 -27 41.499s-29.333 15.5 -48 15.5c-28 0 -49.667 -9.83301 -65 -29.5
s-23 -47.5 -23 -83.5s7.66699 -64 23 -84s37 -30 65 -30z" />
    <glyph glyph-name="ordfeminine" unicode="&#xaa;" horiz-adv-x="271" 
d="M142 519c30 0 53.5 -7.33203 70.5 -21.999s25.5 -33.667 25.5 -57v-150h-51v40h-1c-6 -14 -16.5 -24.833 -31.5 -32.5s-30.5 -11.5 -46.5 -11.5c-22 0 -40 6.16699 -54 18.5s-21 28.5 -21 48.5c0 42 29.333 65 88 69l64 4v11c0 13.333 -4 24 -12 32s-19 12 -33 12
c-28.667 0 -45 -11.333 -49 -34h-48c2.66699 21.333 12.667 38.666 30 51.999s40.333 20 69 20zM185 396.001l-56 -4c-29.333 -2 -44 -13.667 -44 -35c0 -10.667 3.83301 -19.167 11.5 -25.5s17.167 -9.5 28.5 -9.5c16 0 30 5.66699 42 17s18 24.333 18 39v18z" />
    <glyph glyph-name="guillemotleft" unicode="&#xab;" horiz-adv-x="670" 
d="M366 456v-71l-256 -152v-1l256 -153v-70l-330 199v48zM634 456v-71l-256 -152v-1l256 -153v-70l-330 199v48z" />
    <glyph glyph-name="logicalnot" unicode="&#xac;" horiz-adv-x="350" 
d="M248 110v92h-214v59h282v-151h-68z" />
    <glyph glyph-name="registered" unicode="&#xae;" horiz-adv-x="600" 
d="M23 251c0 38 7.33301 73.833 22 107.5s34.5 63 59.5 88s54.333 44.833 88 59.5s69.5 22 107.5 22s73.833 -7.33301 107.5 -22s63 -34.5 88 -59.5s44.833 -54.333 59.5 -88s22 -69.5 22 -107.5s-7.33301 -73.833 -22 -107.5s-34.5 -63 -59.5 -88
s-54.333 -44.833 -88 -59.5s-69.5 -22 -107.5 -22s-73.833 7.33301 -107.5 22s-63 34.5 -88 59.5s-44.833 54.333 -59.5 88s-22 69.5 -22 107.5zM73 252c0 -32 5.83301 -61.833 17.5 -89.5s27.834 -51.834 48.501 -72.501s44.834 -36.834 72.501 -48.501
s57.167 -17.5 88.5 -17.5s60.833 5.83301 88.5 17.5s51.834 27.834 72.501 48.501s37 44.834 49 72.501s18 57.5 18 89.5c0 31.333 -6 60.833 -18 88.5s-28.333 51.834 -49 72.501s-44.834 37 -72.501 49s-57.167 18 -88.5 18s-60.833 -6 -88.5 -18
s-51.834 -28.333 -72.501 -49s-36.834 -44.834 -48.501 -72.501s-17.5 -57.167 -17.5 -88.5zM379 103l-72.999 129.999h-51v-130h-54v307h129c30 0 53.833 -7.5 71.5 -22.5s26.5 -36.833 26.5 -65.5c0 -22.667 -5.83301 -41.167 -17.5 -55.5
s-28.834 -23.166 -51.501 -26.499l78 -137h-58zM255.001 274.999h64c38.667 0 58 15.667 58 47c0 30.667 -19.333 46 -58 46h-64v-93z" />
    <glyph glyph-name="macron" unicode="&#xaf;" horiz-adv-x="425" 
d="M406 548h-387v56h387v-56z" />
    <glyph glyph-name="degree" unicode="&#xb0;" horiz-adv-x="291" 
d="M146 288c-36 0 -65.167 10.667 -87.5 32s-33.5 49.333 -33.5 84c0 34 10.833 61.833 32.5 83.5s51.167 32.5 88.5 32.5c36 0 65 -10.833 87 -32.5s33 -49.5 33 -83.5c0 -34.667 -11 -62.667 -33 -84s-51 -32 -87 -32zM146 341c21.333 0 37 5.66699 47 17s15 26.333 15 45
c0 20 -5.16699 35.667 -15.5 47s-25.833 17 -46.5 17c-22 0 -38 -5.66699 -48 -17s-15 -27 -15 -47c0 -18.667 5 -33.667 15 -45s26 -17 48 -17z" />
    <glyph glyph-name="plusminus" unicode="&#xb1;" horiz-adv-x="416" 
d="M382 225h-141v-124h-67v124h-140v55h140v124h67v-124h141v-55zM382 0h-348v53h348v-53z" />
    <glyph glyph-name="twosuperior" unicode="&#xb2;" horiz-adv-x="283" 
d="M250 310l-0.00195312 -41.9971h-214v31l20.5 20.5l29 29l31.5 32l28 28.5c20.667 20.667 34.5 36.334 41.5 47.001s10.5 21 10.5 31c0 15.333 -4.66699 27.666 -14 36.999s-23.333 14 -42 14c-20.667 0 -35.667 -6 -45 -18s-14 -26 -14 -42h-49
c0 13.333 2.16699 26.166 6.5 38.499s10.833 23.166 19.5 32.499s19.834 16.666 33.501 21.999s29.834 8 48.501 8c35.333 0 62 -8.33301 80 -25s27 -37.667 27 -63c0 -9.33301 -1 -17.833 -3 -25.5s-5.5 -15.5 -10.5 -23.5s-11.5 -16.5 -19.5 -25.5
s-18.333 -19.833 -31 -32.5l-73 -73v-1h139z" />
    <glyph glyph-name="threesuperior" unicode="&#xb3;" horiz-adv-x="299" 
d="M200 424c19.333 -3.33301 35.1621 -11.002 47.4951 -23.002s18.5 -28.667 18.5 -50c0 -23.333 -9.5 -43.666 -28.5 -60.999s-49.167 -26 -90.5 -26c-38 0 -66.5 10.167 -85.5 30.5s-28.5 43.833 -28.5 70.5h50c0.666992 -13.333 6.33398 -26.333 17.001 -39
s26.334 -19 47.001 -19c20 0 35.833 4.33301 47.5 13s17.5 21.334 17.5 38.001c0 15.333 -6.16699 26.833 -18.5 34.5s-28.166 11.5 -47.499 11.5h-27v37h26c16 0 29.833 4.5 41.5 13.5s17.5 20.833 17.5 35.5c0 15.333 -5.16699 27.166 -15.5 35.499
s-24.166 12.5 -41.499 12.5c-18.667 0 -33 -5.83301 -43 -17.5s-15.333 -25.834 -16 -42.501h-49c0.666992 29.333 10.334 53.5 29.001 72.5s45 28.5 79 28.5c36 0 63.167 -8 81.5 -24s27.5 -34.667 27.5 -56s-5 -37.666 -15 -48.999s-23.667 -19.666 -41 -24.999v-1v0z" />
    <glyph glyph-name="acute" unicode="&#xb4;" horiz-adv-x="223" 
d="M33 436l77 138h80l-92 -138h-65v0z" />
    <glyph glyph-name="mu" unicode="&#xb5;" horiz-adv-x="407" 
d="M302 0l-0.000976562 79.001h-1c-9.33301 -32.667 -23.166 -55 -41.499 -67s-41.5 -18 -69.5 -18c-18 0 -34.667 3.83301 -50 11.5s-27 19.5 -35 35.5h-1v-171h-69v504h72v-214c0 -35.333 8.5 -62.333 25.5 -81s39.5 -28 67.5 -28c26.667 0 50 10.667 70 32
s30 52.666 30 93.999v197h72v-374h-70z" />
    <glyph glyph-name="paragraph" unicode="&#xb6;" horiz-adv-x="484" 
d="M421 0h-63v458h-80v-458h-63v216c-6.66699 -2 -14.5 -3.66699 -23.5 -5s-17.167 -2 -24.5 -2c-20.667 0 -39.5 2.5 -56.5 7.5s-31.667 13.5 -44 25.5s-21.833 27.5 -28.5 46.5s-10 42.5 -10 70.5c0 30 3.66699 54.833 11 74.5s17.5 35.5 30.5 47.5s28.667 20.333 47 25
s38.5 7 60.5 7h244v-513z" />
    <glyph glyph-name="periodcentered" unicode="&#xb7;" horiz-adv-x="222" 
d="M53 232c0 15.333 5.66699 28.666 17 39.999s25.333 17 42 17c16 0 29.5 -5.66699 40.5 -17s16.5 -24.666 16.5 -39.999c0 -16.667 -5.5 -30.834 -16.5 -42.501s-24.5 -17.5 -40.5 -17.5c-16.667 0 -30.667 5.83301 -42 17.5s-17 25.834 -17 42.501z" />
    <glyph glyph-name="cedilla" unicode="&#xb8;" horiz-adv-x="249" 
d="M46 -205l77 138h80l-92 -138h-65z" />
    <glyph glyph-name="onesuperior" unicode="&#xb9;" horiz-adv-x="196" 
d="M121 573h42v-307h-54v257l-76 -27v45l88 32v0z" />
    <glyph glyph-name="ordmasculine" unicode="&#xba;" horiz-adv-x="318" 
d="M33 423c0 50 11.5 88.5 34.5 115.5s53.5 40.5 91.5 40.5s68.5 -13.5 91.5 -40.5s34.5 -65.5 34.5 -115.5s-11.5 -88.667 -34.5 -116s-53.5 -41 -91.5 -41s-68.5 13.667 -91.5 41s-34.5 66 -34.5 116zM229 423c0 38 -6.33301 66.333 -19 85s-29.667 28 -51 28
s-38.333 -9.33301 -51 -28s-19 -47 -19 -85s6.33301 -66.5 19 -85.5s29.667 -28.5 51 -28.5s38.333 9.5 51 28.5s19 47.5 19 85.5z" />
    <glyph glyph-name="guillemotright" unicode="&#xbb;" horiz-adv-x="670" 
d="M634 256v-48l-330 -199v70l256 153v1l-256 152v71zM366 256v-48l-330 -199v70l256 153v1l-256 152v71z" />
    <glyph glyph-name="onequarter" unicode="&#xbc;" horiz-adv-x="537" 
d="M523 101v-42h-40v-59h-54v59h-150v35l155 213h47v-206h42zM339 100h93v132zM313 513h59l-185 -513h-60zM102 513h42v-307h-54v257l-76 -27v45z" />
    <glyph glyph-name="onehalf" unicode="&#xbd;" horiz-adv-x="581" 
d="M551 42l-0.00195312 -41.9971h-214v31l20.5 20.5l29 29l31.5 32l28 28.5c20.667 20.667 34.5 36.334 41.5 47.001s10.5 21 10.5 31c0 15.333 -4.66699 27.666 -14 36.999s-23.333 14 -42 14c-20.667 0 -35.667 -6 -45 -18s-14 -26 -14 -42h-49
c0 13.333 2.16699 26.166 6.5 38.499s10.833 23.166 19.5 32.499s19.834 16.666 33.501 21.999s29.834 8 48.501 8c35.333 0 62 -8.33301 80 -25s27 -37.667 27 -63c0 -9.33301 -1 -17.833 -3 -25.5s-5.5 -15.5 -10.5 -23.5s-11.5 -16.5 -19.5 -25.5
s-18.333 -19.833 -31 -32.5l-73 -73v-1h139zM372.998 513.003l-185 -513h-60l186 513h59zM143.998 513.003v-307h-54v257l-76 -27v45l88 32h42z" />
    <glyph glyph-name="threequarters" unicode="&#xbe;" horiz-adv-x="619" 
d="M605 59h-40v-59h-54v59h-150v35l155 213h47v-206h42v-42zM514 100v132l-93 -132h93zM454 513l-185 -513h-60l186 513h59zM195 364c19.333 -3.33301 35.1621 -11.002 47.4951 -23.002s18.5 -28.667 18.5 -50c0 -23.333 -9.5 -43.666 -28.5 -60.999s-49.167 -26 -90.5 -26
c-38 0 -66.5 10.167 -85.5 30.5s-28.5 43.833 -28.5 70.5h50c0.666992 -13.333 6.33398 -26.333 17.001 -39s26.334 -19 47.001 -19c20 0 35.833 4.33301 47.5 13s17.5 21.334 17.5 38.001c0 15.333 -6.16699 26.833 -18.5 34.5s-28.166 11.5 -47.499 11.5h-27v37h26
c16 0 29.833 4.5 41.5 13.5s17.5 20.833 17.5 35.5c0 15.333 -5.16699 27.166 -15.5 35.499s-24.166 12.5 -41.499 12.5c-18.667 0 -33 -5.83301 -43 -17.5s-15.333 -25.834 -16 -42.501h-49c0.666992 29.333 10.334 53.5 29.001 72.5s45 28.5 79 28.5
c36 0 63.167 -8 81.5 -24s27.5 -34.667 27.5 -56s-5 -37.666 -15 -48.999s-23.667 -19.666 -41 -24.999v-1z" />
    <glyph glyph-name="questiondown" unicode="&#xbf;" horiz-adv-x="385" 
d="M193 -92c-54 0 -94.0029 11.3252 -120.003 33.9922s-39 56 -39 100c0 24.667 6 44.834 18 60.501s25.167 30.334 39.5 44.001s27.5 27.834 39.5 42.501s18 34 18 58v18h77v-12c0.666992 -21.333 -1.66602 -39.666 -6.99902 -54.999s-12.666 -28.666 -21.999 -39.999
s-19.333 -21.333 -30 -30s-20.667 -17.167 -30 -25.5s-17.166 -17.166 -23.499 -26.499s-9.5 -20.333 -9.5 -33c0 -21.333 7 -39.166 21 -53.499s35 -21.5 63 -21.5c31.333 0 54.833 8.83301 70.5 26.5s24.167 41.5 25.5 71.5h68c-0.666992 -22 -4.66699 -42.5 -12 -61.5
s-17.666 -35.667 -30.999 -50s-29.833 -25.666 -49.5 -33.999s-41.834 -12.5 -66.501 -12.5zM186.997 333.992c-15.333 0 -27.333 4.5 -36 13.5s-13 19.833 -13 32.5c0 13.333 4.33301 24.5 13 33.5s20.667 13.5 36 13.5s27.333 -4.5 36 -13.5s13 -20.167 13 -33.5
c0 -12.667 -4.33301 -23.5 -13 -32.5s-20.667 -13.5 -36 -13.5z" />
    <glyph glyph-name="Acircumflex" unicode="&#xc2;" horiz-adv-x="469" 
d="M388 0l-44 126h-220l-44 -126h-79l188 513h91l188 -513h-80zM327 182l-92 259h-2l-92 -259h186zM361 553h-64l-63 98h-2l-63 -98h-63l101 154h53z" />
    <glyph glyph-name="Adieresis" unicode="&#xc4;" horiz-adv-x="469" 
d="M468 0l-188 513h-91l-188 -513h79l44 126h220l44 -126h80zM141 182l92 259h2l92 -259h-186zM107 632c0 11.333 4.5 21.333 13.5 30s19.833 13 32.5 13c11.333 0 21.333 -4.33301 30 -13s13 -18.667 13 -30c0 -12.667 -4.33301 -23.5 -13 -32.5s-18.667 -13.5 -30 -13.5
c-12.667 0 -23.5 4.5 -32.5 13.5s-13.5 19.833 -13.5 32.5zM270 632c0 11.333 4.33301 21.333 13 30s19.334 13 32.001 13c11.333 0 21.5 -4.33301 30.5 -13s13.5 -18.667 13.5 -30c0 -12.667 -4.5 -23.5 -13.5 -32.5s-19.167 -13.5 -30.5 -13.5
c-12.667 0 -23.334 4.5 -32.001 13.5s-13 19.833 -13 32.5z" />
    <glyph glyph-name="Aring" unicode="&#xc5;" horiz-adv-x="469" 
d="M147 561c0 24.667 8.16895 45.168 24.502 61.501s37.166 24.5 62.499 24.5s46.166 -8.16699 62.499 -24.5s24.5 -36.833 24.5 -61.5c0 -14.667 -3 -27.834 -9 -39.501s-14.333 -21.167 -25 -28.5l181 -493h-80l-44 126h-220l-44 -126h-79l180 492
c-10.667 7.33301 -19 17 -25 29s-9 25.333 -9 40zM327.002 182.001l-92 259h-2l-92 -259h186zM234.002 521.001c12 0 21.667 3.66699 29 11s11 17 11 29c0 12.667 -3.66699 22.667 -11 30s-17 11 -29 11c-12.667 0 -22.667 -3.66699 -30 -11s-11 -17.333 -11 -30
c0 -12 3.66699 -21.667 11 -29s17.333 -11 30 -11z" />
    <glyph glyph-name="AE" unicode="&#xc6;" horiz-adv-x="726" 
d="M426 454v-169h230v-58h-230v-169h267v-58h-342v126h-187l-81 -126h-82l327 513h365v-59h-267zM351 182v239l-154 -239h154z" />
    <glyph glyph-name="Ccedilla" unicode="&#xc7;" horiz-adv-x="493" 
d="M261 55c34 0 62.833 8.33105 86.5 24.998s39.5 40.667 47.5 72h75c-8.66699 -48.667 -31.5 -87.167 -68.5 -115.5s-83.833 -42.5 -140.5 -42.5c-73.333 0 -130.5 23.333 -171.5 70s-61.5 111.334 -61.5 194.001c0 40.667 5.33301 77.167 16 109.5s26 59.666 46 81.999
s44.5 39.5 73.5 51.5s61.5 18 97.5 18c26.667 0 51.834 -4 75.501 -12s44.667 -19.167 63 -33.5s33.666 -31.666 45.999 -51.999s20.5 -42.5 24.5 -66.5h-75c-8 30.667 -23.833 55.334 -47.5 74.001s-52.5 28 -86.5 28c-50 0 -88.833 -17.5 -116.5 -52.5
s-41.5 -83.833 -41.5 -146.5c0 -64 13.833 -113.833 41.5 -149.5s66.5 -53.5 116.5 -53.5zM171 -205.002l77 138h80l-92 -138h-65z" />
    <glyph glyph-name="Ecircumflex" unicode="&#xca;" horiz-adv-x="413" 
d="M113 454v-169h229v-58h-229v-169h267v-58h-342v513h342v-59h-267zM337 553h-64l-63 98h-2l-63 -98h-63l101 154h53z" />
    <glyph glyph-name="Edieresis" unicode="&#xcb;" horiz-adv-x="413" 
d="M380 454v59h-342v-513h342v58h-267v169h229v58h-229v169h267zM87 632c0 11.333 4.5 21.333 13.5 30s19.833 13 32.5 13c11.333 0 21.333 -4.33301 30 -13s13 -18.667 13 -30c0 -12.667 -4.33301 -23.5 -13 -32.5s-18.667 -13.5 -30 -13.5c-12.667 0 -23.5 4.5 -32.5 13.5
s-13.5 19.833 -13.5 32.5zM250 632c0 11.333 4.33301 21.333 13 30s19.334 13 32.001 13c11.333 0 21.5 -4.33301 30.5 -13s13.5 -18.667 13.5 -30c0 -12.667 -4.5 -23.5 -13.5 -32.5s-19.167 -13.5 -30.5 -13.5c-12.667 0 -23.334 4.5 -32.001 13.5s-13 19.833 -13 32.5z
" />
    <glyph glyph-name="Icircumflex" unicode="&#xce;" horiz-adv-x="160" 
d="M43 513h74v-513h-74v513zM208 553h-64l-63 98h-2l-63 -98h-63l101 154h53z" />
    <glyph glyph-name="Idieresis" unicode="&#xcf;" horiz-adv-x="160" 
d="M43 0h74v513h-74v-513zM-46 632c0 11.333 4.5 21.333 13.5 30s19.833 13 32.5 13c11.333 0 21.333 -4.33301 30 -13s13 -18.667 13 -30c0 -12.667 -4.33301 -23.5 -13 -32.5s-18.667 -13.5 -30 -13.5c-12.667 0 -23.5 4.5 -32.5 13.5s-13.5 19.833 -13.5 32.5zM117 632
c0 11.333 4.33301 21.333 13 30s19.334 13 32.001 13c11.333 0 21.5 -4.33301 30.5 -13s13.5 -18.667 13.5 -30c0 -12.667 -4.5 -23.5 -13.5 -32.5s-19.167 -13.5 -30.5 -13.5c-12.667 0 -23.334 4.5 -32.001 13.5s-13 19.833 -13 32.5z" />
    <glyph glyph-name="Eth" unicode="&#xd0;" horiz-adv-x="542" 
d="M18 280l75.001 0.00195312v233h167c38.667 0 73.667 -5.66699 105 -17s58 -27.833 80 -49.5s39 -48.334 51 -80.001s18 -67.834 18 -108.501c0 -41.333 -6 -78 -18 -110s-29 -59 -51 -81s-48.833 -38.667 -80.5 -50s-66.834 -17 -105.501 -17h-166v232h-75v48z
M250.001 58.002c58.667 0 104.333 17.167 137 51.5s49 83.5 49 147.5c0 63.333 -16.333 112 -49 146s-77.667 51 -135 51h-84v-174h139v-48h-139v-174h82z" />
    <glyph glyph-name="Ntilde" unicode="&#xd1;" horiz-adv-x="491" 
d="M182 629c-12 0 -22.0029 -4.99902 -30.0029 -14.999s-12 -25.333 -12 -46h-55c0 37.333 7.5 65.666 22.5 84.999s37.5 29 67.5 29c14.667 0 27.834 -3.33301 39.501 -10s22.667 -14.334 33 -23.001s20.833 -16.334 31.5 -23.001s22 -10 34 -10
c12.667 0 23.334 5.83301 32.001 17.5s13.667 27.5 15 47.5h54c0 -36 -8.33301 -64.167 -25 -84.5s-39.667 -30.5 -69 -30.5c-14.667 0 -28 3.33301 -40 10s-23.333 13.834 -34 21.501s-21.167 14.834 -31.5 21.501s-21.166 10 -32.499 10zM378.997 513.001h74v-513h-67
l-273 393h-2v-393h-73v513h67l272 -390h2v390z" />
    <glyph glyph-name="Ocircumflex" unicode="&#xd4;" horiz-adv-x="521" 
d="M261 56c50 0 89.167 17.833 117.5 53.5s42.5 84.834 42.5 147.501s-14.167 111.334 -42.5 146.001s-67.5 52 -117.5 52c-50.667 0 -90.167 -17.333 -118.5 -52s-42.5 -83.334 -42.5 -146.001s14.167 -111.834 42.5 -147.501s67.833 -53.5 118.5 -53.5zM261 519
c36.667 0 69.502 -6.16797 98.502 -18.501s53.833 -29.833 74.5 -52.5s36.5 -50.167 47.5 -82.5s16.5 -68.5 16.5 -108.5c0 -41.333 -5.5 -78.166 -16.5 -110.499s-26.833 -59.833 -47.5 -82.5s-45.5 -40 -74.5 -52s-61.833 -18 -98.5 -18c-74.667 0 -133 23.167 -175 69.5
s-63 110.833 -63 193.5c0 40 5.5 76.167 16.5 108.5s26.667 59.833 47 82.5s45.166 40.167 74.499 52.5s62.666 18.5 99.999 18.5zM389.002 552.999h-64l-63 98h-2l-63 -98h-63l101 154h53z" />
    <glyph glyph-name="Odieresis" unicode="&#xd6;" horiz-adv-x="521" 
d="M133 632c0 11.333 4.5 21.333 13.5 30s19.833 13 32.5 13c11.333 0 21.5 -4.33301 30.5 -13s13.5 -18.667 13.5 -30c0 -12.667 -4.5 -23.5 -13.5 -32.5s-19.167 -13.5 -30.5 -13.5c-12.667 0 -23.5 4.5 -32.5 13.5s-13.5 19.833 -13.5 32.5zM296 632
c0 11.333 4.33301 21.333 13 30s19.334 13 32.001 13c12 0 22.333 -4.33301 31 -13s13 -18.667 13 -30c0 -12.667 -4.33301 -23.5 -13 -32.5s-19 -13.5 -31 -13.5c-12.667 0 -23.334 4.5 -32.001 13.5s-13 19.833 -13 32.5zM261 56c50 0 89.167 17.833 117.5 53.5
s42.5 84.834 42.5 147.501s-14.167 111.334 -42.5 146.001s-67.5 52 -117.5 52c-50.667 0 -90.167 -17.333 -118.5 -52s-42.5 -83.334 -42.5 -146.001s14.167 -111.834 42.5 -147.501s67.833 -53.5 118.5 -53.5zM261 519c36.667 0 69.502 -6.16797 98.502 -18.501
s53.833 -29.833 74.5 -52.5s36.5 -50.167 47.5 -82.5s16.5 -68.5 16.5 -108.5c0 -41.333 -5.5 -78.166 -16.5 -110.499s-26.833 -59.833 -47.5 -82.5s-45.5 -40 -74.5 -52s-61.833 -18 -98.5 -18c-74.667 0 -133 23.167 -175 69.5s-63 110.833 -63 193.5
c0 40 5.5 76.167 16.5 108.5s26.667 59.833 47 82.5s45.166 40.167 74.499 52.5s62.666 18.5 99.999 18.5z" />
    <glyph glyph-name="multiply" unicode="&#xd7;" horiz-adv-x="385" 
d="M235 232l116 -115l-44 -44l-115 116l-115 -116l-43 44l116 115l-116 116l42 42l116 -116l116 116l43 -42z" />
    <glyph glyph-name="Oslash" unicode="&#xd8;" horiz-adv-x="521" 
d="M261 519c36.667 0 69.502 -6.16797 98.502 -18.501s53.833 -29.833 74.5 -52.5s36.5 -50.167 47.5 -82.5s16.5 -68.5 16.5 -108.5c0 -41.333 -5.5 -78.166 -16.5 -110.499s-26.833 -59.833 -47.5 -82.5s-45.5 -40 -74.5 -52s-61.833 -18 -98.5 -18
c-74.667 0 -133 23.167 -175 69.5s-63 110.833 -63 193.5c0 40 5.5 76.167 16.5 108.5s26.667 59.833 47 82.5s45.166 40.167 74.499 52.5s62.666 18.5 99.999 18.5zM100.002 256.999c0 -40.667 6.00098 -75.499 18.001 -104.499s29 -51.5 51 -67.5l133 365
c-14.667 3.33301 -28.334 5 -41.001 5c-50.667 0 -90.167 -17.333 -118.5 -52s-42.5 -83.334 -42.5 -146.001zM261.003 56c50 0 89.167 17.832 117.5 53.499s42.5 84.834 42.5 147.501c0 38 -5.5 70.833 -16.5 98.5s-26.5 49.5 -46.5 65.5l-130 -362c10 -2 21 -3 33 -3z" />
    <glyph glyph-name="Ucircumflex" unicode="&#xdb;" horiz-adv-x="483" 
d="M112 188c0 -40.667 11.333 -72.667 34 -96s54.334 -35 95.001 -35c41.333 0 73.333 11.5 96 34.5s34 55.167 34 96.5v325h74v-332c0 -57.333 -18.333 -102.833 -55 -136.5s-86.334 -50.5 -149.001 -50.5c-31.333 0 -59.5 4.33301 -84.5 13s-46.167 21.167 -63.5 37.5
s-30.833 36 -40.5 59s-14.5 48.833 -14.5 77.5v332h74v-325zM369 553h-64l-63 98h-2l-63 -98h-63l101 154h53z" />
    <glyph glyph-name="Udieresis" unicode="&#xdc;" horiz-adv-x="483" 
d="M277 632c0 11.333 4.5 21.333 13.5 30s19.833 13 32.5 13c11.333 0 21.5 -4.33301 30.5 -13s13.5 -18.667 13.5 -30c0 -12.667 -4.5 -23.5 -13.5 -32.5s-19.167 -13.5 -30.5 -13.5c-12.667 0 -23.5 4.5 -32.5 13.5s-13.5 19.833 -13.5 32.5zM116 632
c0 11.333 4.33301 21.333 13 30s19.334 13 32.001 13c11.333 0 21.5 -4.33301 30.5 -13s13.5 -18.667 13.5 -30c0 -12.667 -4.5 -23.5 -13.5 -32.5s-19.167 -13.5 -30.5 -13.5c-12.667 0 -23.334 4.5 -32.001 13.5s-13 19.833 -13 32.5zM112 188
c0 -40.667 11.333 -72.667 34 -96s54.334 -35 95.001 -35c41.333 0 73.333 11.5 96 34.5s34 55.167 34 96.5v325h74v-332c0 -57.333 -18.333 -102.833 -55 -136.5s-86.334 -50.5 -149.001 -50.5c-31.333 0 -59.5 4.33301 -84.5 13s-46.167 21.167 -63.5 37.5
s-30.833 36 -40.5 59s-14.5 48.833 -14.5 77.5v332h74v-325z" />
    <glyph glyph-name="Thorn" unicode="&#xde;" horiz-adv-x="416" 
d="M112 399h117.001c50 0 89.333 -12 118 -36s43 -59.667 43 -107c0 -48 -14.333 -84.167 -43 -108.5s-68.334 -36.5 -119.001 -36.5h-116v-111h-74v513h74v-114zM112.001 340v-171.001h102c34 0 60.167 6.83301 78.5 20.5s27.5 35.834 27.5 66.501
c0 30 -9.16699 51.5 -27.5 64.5s-44.5 19.5 -78.5 19.5h-102z" />
    <glyph glyph-name="germandbls" unicode="&#xdf;" horiz-adv-x="455" 
d="M37 0l-0.00585938 347.002c0 62.667 13.833 107 41.5 133s71.5 39 131.5 39c60.667 0 105.834 -13.5 135.501 -40.5s44.5 -61.5 44.5 -103.5c0 -27.333 -7 -50.666 -21 -69.999s-33.667 -31.666 -59 -36.999c16 -3.33301 30.833 -8.5 44.5 -15.5
s25.834 -15.833 36.501 -26.5s19 -23 25 -37s9 -29.667 9 -47c0 -36 -7.83301 -64.667 -23.5 -86s-35.5 -36.833 -59.5 -46.5s-50 -14.834 -78 -15.501s-54.333 1.66602 -79 6.99902v52c20 -3.33301 39.833 -4.33301 59.5 -3s37.5 5.5 53.5 12.5s28.833 17 38.5 30
s14.5 29.5 14.5 49.5c0 15.333 -3.83301 29 -11.5 41s-17.334 22.167 -29.001 30.5s-24.834 14.666 -39.501 18.999s-29 6.5 -43 6.5h-31v59h31c10.667 0 21.334 1.33301 32.001 4s20.334 7 29.001 13s15.834 13.833 21.501 23.5s8.5 21.5 8.5 35.5
c0 12 -1.66699 23.167 -5 33.5s-9 19.166 -17 26.499s-19 13.166 -33 17.499s-32 6.5 -54 6.5c-21.333 0 -38.666 -2.83301 -51.999 -8.5s-23.666 -13.667 -30.999 -24s-12.166 -23.166 -14.499 -38.499s-3.5 -32.333 -3.5 -51v-336h-72z" />
    <glyph glyph-name="acircumflex" unicode="&#xe2;" horiz-adv-x="387" 
d="M200 379c47.333 0 84.5 -11.8301 111.5 -35.4971s40.5 -55.167 40.5 -94.5v-249h-70v69h-1c-10 -24.667 -27.833 -43.334 -53.5 -56.001s-52.5 -19 -80.5 -19c-36 0 -65.333 10.167 -88 30.5s-34 46.833 -34 79.5c0 67.333 47.667 104.666 143 111.999l111 7v21
c0 25.333 -7.33301 45.166 -22 59.499s-34.667 21.5 -60 21.5s-45.833 -5.66699 -61.5 -17s-25.167 -27.333 -28.5 -48h-66c4 36 20 64.833 48 86.5s65 32.5 111 32.5zM279 180.003l-101 -7.99707c-54.667 -4 -82 -25.667 -82 -65c0 -18.667 6.83301 -33.834 20.5 -45.501
s31.5 -17.5 53.5 -17.5c14.667 0 28.5 2.83301 41.5 8.5s24.5 13.167 34.5 22.5s18 20.166 24 32.499s9 25.166 9 38.499v34zM329 422.006h-64l-63 97h-2l-63 -97h-63l101 154h53z" />
    <glyph glyph-name="adieresis" unicode="&#xe4;" horiz-adv-x="387" 
d="M200 379c-46 0 -83 -10.668 -111 -32.001s-44 -50 -48 -86h66c3.33301 20.667 12.833 36.667 28.5 48s36.167 17 61.5 17s45.333 -7.16699 60 -21.5s22 -34.166 22 -59.499v-21l-111 -7c-95.333 -7.33301 -143 -45 -143 -113c0 -32.667 11.333 -59.167 34 -79.5
s52 -30.5 88 -30.5c28 0 54.833 6.5 80.5 19.5s43.5 31.833 53.5 56.5h1v-70h70v249c0 39.333 -13.5 70.833 -40.5 94.5s-64.167 35.5 -111.5 35.5zM279 145.999c0 -13.333 -3 -26.1689 -9 -38.502s-14 -23.166 -24 -32.499s-21.5 -16.833 -34.5 -22.5
s-26.833 -8.5 -41.5 -8.5c-22 0 -39.833 5.83301 -53.5 17.5s-20.5 26.834 -20.5 45.501c0 39.333 27.333 61 82 65l101 8v-34zM79 490.996c0 11.333 4.33301 21.5 13 30.5s19.334 13.5 32.001 13.5c11.333 0 21.5 -4.5 30.5 -13.5s13.5 -19.167 13.5 -30.5
c0 -12.667 -4.5 -23.5 -13.5 -32.5s-19.167 -13.5 -30.5 -13.5c-12.667 0 -23.334 4.5 -32.001 13.5s-13 19.833 -13 32.5zM240 490.996c0 11.333 4.5 21.5 13.5 30.5s19.833 13.5 32.5 13.5c11.333 0 21.5 -4.5 30.5 -13.5s13.5 -19.167 13.5 -30.5
c0 -12.667 -4.5 -23.5 -13.5 -32.5s-19.167 -13.5 -30.5 -13.5c-12.667 0 -23.5 4.5 -32.5 13.5s-13.5 19.833 -13.5 32.5z" />
    <glyph glyph-name="aring" unicode="&#xe5;" horiz-adv-x="387" 
d="M200 379c-46 0 -83 -10.668 -111 -32.001s-44 -50 -48 -86h66c3.33301 20.667 12.833 36.667 28.5 48s36.167 17 61.5 17s45.333 -7.16699 60 -21.5s22 -34.166 22 -59.499v-21l-111 -7c-95.333 -7.33301 -143 -45 -143 -113c0 -32.667 11.333 -59.167 34 -79.5
s52 -30.5 88 -30.5c28 0 54.833 6.5 80.5 19.5s43.5 31.833 53.5 56.5h1v-70h70v249c0 39.333 -13.5 70.833 -40.5 94.5s-64.167 35.5 -111.5 35.5zM279 145.999c0 -13.333 -3 -26.1689 -9 -38.502s-14 -23.166 -24 -32.499s-21.5 -16.833 -34.5 -22.5
s-26.833 -8.5 -41.5 -8.5c-22 0 -39.833 5.83301 -53.5 17.5s-20.5 26.834 -20.5 45.501c0 39.333 27.333 61 82 65l101 8v-34zM203 468.996c12.667 0 22.667 3.83301 30 11.5s11 17.834 11 30.501c0 13.333 -3.66699 23.833 -11 31.5s-17.333 11.5 -30 11.5
c-13.333 0 -23.833 -3.83301 -31.5 -11.5s-11.5 -18.167 -11.5 -31.5c0 -12.667 3.83301 -22.834 11.5 -30.501s18.167 -11.5 31.5 -11.5zM115 510.996c0 24.667 8.16699 45.167 24.5 61.5s37.5 24.5 63.5 24.5c25.333 0 46 -8.16699 62 -24.5s24 -36.833 24 -61.5
s-8 -45 -24 -61s-36.667 -24 -62 -24s-46.333 8 -63 24s-25 36.333 -25 61z" />
    <glyph glyph-name="ae" unicode="&#xe6;" horiz-adv-x="659" 
d="M355 172c0.666992 -38.667 10.832 -68.832 30.499 -90.499s45.834 -32.5 78.501 -32.5c25.333 0 45.833 6 61.5 18s26.834 28.667 33.501 50h68c-8.66699 -40 -26.667 -70.5 -54 -91.5s-64 -31.5 -110 -31.5c-72 0 -122.333 28 -151 84
c-8.66699 -16 -19.167 -29.5 -31.5 -40.5s-25.5 -19.667 -39.5 -26s-28.333 -10.833 -43 -13.5s-28.334 -4 -41.001 -4c-18 0 -35 2.66699 -51 8s-30 12.833 -42 22.5s-21.5 21.334 -28.5 35.001s-10.5 28.5 -10.5 44.5c0 39.333 14.5 67.5 43.5 84.5
s71.833 27.167 128.5 30.5l88 5v21c0 25.333 -8.33301 45.166 -25 59.499s-37.667 21.5 -63 21.5s-45.833 -5.66699 -61.5 -17s-25.167 -27.333 -28.5 -48h-66c4 36 20 64.667 48 86s65 32 111 32c30 0 56.5 -5.66699 79.5 -17s40.167 -27 51.5 -47
c14 20.667 32 36.5 54 47.5s47.333 16.5 76 16.5c54 0 95.667 -16.833 125 -50.5s44 -78.834 44 -135.501v-21h-275zM284.998 181.002l-107 -7.99902c-26.667 -1.33301 -47 -7.66602 -61 -18.999s-21 -26.666 -21 -45.999c0 -18.667 7.83301 -33.834 23.5 -45.501
s34.5 -17.5 56.5 -17.5c14.667 0 28.5 2.83301 41.5 8.5s24.5 13.167 34.5 22.5s18 20.166 24 32.499s9 25.166 9 38.499v34zM459.998 324.003c-30 0 -54 -10 -72 -30s-28.667 -46 -32 -78h207c-1.33301 32 -11.333 58 -30 78s-43 30 -73 30z" />
    <glyph glyph-name="ccedilla" unicode="&#xe7;" horiz-adv-x="392" 
d="M207 50c23.333 0 43.334 5.83496 60.001 17.502s27.667 28.167 33 49.5h69c-5.33301 -38.667 -22.5 -68.834 -51.5 -90.501s-66.167 -32.5 -111.5 -32.5c-55.333 0 -98.833 16.667 -130.5 50s-47.5 80.666 -47.5 141.999s15.833 108.833 47.5 142.5
s74.834 50.5 129.501 50.5c45.333 0 82.666 -11.5 111.999 -34.5s46.666 -53.5 51.999 -91.5h-68c-5.33301 21.333 -16.5 38.333 -33.5 51s-37.167 19 -60.5 19c-32.667 0 -58.667 -12.167 -78 -36.5s-29 -57.833 -29 -100.5c0 -42 9.66699 -75.167 29 -99.5
s45.333 -36.5 78 -36.5zM112.001 -204.998l77 138h80l-92 -138h-65z" />
    <glyph glyph-name="ecircumflex" unicode="&#xea;" horiz-adv-x="402" 
d="M99 172c0.666992 -38.667 10.832 -68.832 30.499 -90.499s45.5 -32.5 77.5 -32.5c26 0 46.833 6 62.5 18s26.834 28.667 33.501 50h68c-8.66699 -40 -26.667 -70.5 -54 -91.5s-64.333 -31.5 -111 -31.5c-56 0 -99.667 16.5 -131 49.5s-47 80.833 -47 143.5
c0 60 15.833 107 47.5 141s74.5 51 128.5 51s95.833 -16.833 125.5 -50.5s44.5 -78.834 44.5 -135.501v-21h-275zM203.998 324.002c-30 0 -54.168 -10 -72.501 -30s-28.833 -46 -31.5 -78h206c-1.33301 32 -11.166 58 -29.499 78s-42.5 30 -72.5 30zM333.997 422.002h-64
l-63 97h-3l-63 -97h-62l100 154h53z" />
    <glyph glyph-name="edieresis" unicode="&#xeb;" horiz-adv-x="402" 
d="M374 172l0.00195312 20.998c0 56.667 -14.833 101.834 -44.5 135.501s-71.5 50.5 -125.5 50.5s-96.833 -17 -128.5 -51s-47.5 -81 -47.5 -141c0 -62.667 15.667 -110.5 47 -143.5s75 -49.5 131 -49.5c46.667 0 83.667 10.5 111 31.5s45.333 51.5 54 91.5h-68
c-6.66699 -21.333 -17.834 -38 -33.501 -50s-36.5 -18 -62.5 -18c-32 0 -57.833 10.833 -77.5 32.5s-29.834 51.834 -30.501 90.501h275zM204.002 323.998c30 0 54.168 -10 72.501 -30s28.166 -46 29.499 -78h-206c2.66699 32 13.167 58 31.5 78s42.5 30 72.5 30z
M80.0029 490.998c0 11.333 4.33301 21.5 13 30.5s19.334 13.5 32.001 13.5c11.333 0 21.5 -4.5 30.5 -13.5s13.5 -19.167 13.5 -30.5c0 -12.667 -4.5 -23.5 -13.5 -32.5s-19.167 -13.5 -30.5 -13.5c-12.667 0 -23.334 4.5 -32.001 13.5s-13 19.833 -13 32.5z
M242.003 490.998c0 11.333 4.5 21.5 13.5 30.5s19.833 13.5 32.5 13.5c11.333 0 21.333 -4.5 30 -13.5s13 -19.167 13 -30.5c0 -12.667 -4.33301 -23.5 -13 -32.5s-18.667 -13.5 -30 -13.5c-12.667 0 -23.5 4.5 -32.5 13.5s-13.5 19.833 -13.5 32.5z" />
    <glyph glyph-name="icircumflex" unicode="&#xee;" horiz-adv-x="172" 
d="M50 374h72v-374h-72v374zM213 422h-63l-63 97h-3l-63 -97h-62l100 154h53z" />
    <glyph glyph-name="idieresis" unicode="&#xef;" horiz-adv-x="172" 
d="M50 0h72v374h-72v-374zM-39 491c0 11.333 4.33301 21.5 13 30.5s19.334 13.5 32.001 13.5c11.333 0 21.5 -4.5 30.5 -13.5s13.5 -19.167 13.5 -30.5c0 -12.667 -4.5 -23.5 -13.5 -32.5s-19.167 -13.5 -30.5 -13.5c-12.667 0 -23.334 4.5 -32.001 13.5
s-13 19.833 -13 32.5zM122 491c0 11.333 4.5 21.5 13.5 30.5s19.833 13.5 32.5 13.5c11.333 0 21.333 -4.5 30 -13.5s13 -19.167 13 -30.5c0 -12.667 -4.33301 -23.5 -13 -32.5s-18.667 -13.5 -30 -13.5c-12.667 0 -23.5 4.5 -32.5 13.5s-13.5 19.833 -13.5 32.5z" />
    <glyph glyph-name="eth" unicode="&#xf0;" horiz-adv-x="455" 
d="M431 494l-81 -47c22.667 -22.667 40.667 -50.334 54 -83.001s20 -70 20 -112c0 -46.667 -5.5 -86.334 -16.5 -119.001s-25.833 -59.334 -44.5 -80.001s-40.334 -35.667 -65.001 -45s-50.334 -14 -77.001 -14c-27.333 0 -52.333 4.16699 -75 12.5s-42.5 20.333 -59.5 36
s-30.167 34.334 -39.5 56.001s-14 45.834 -14 72.501c0 22 4.16699 43 12.5 63s20 37.667 35 53s32.667 27.5 53 36.5s42.833 13.5 67.5 13.5c38 0 70.833 -8.16699 98.5 -24.5s47.167 -38.833 58.5 -67.5c0.666992 36.667 -4.66602 69.334 -15.999 98.001
s-26.666 52.667 -45.999 72l-102 -58l-16 30l89 51c-28 18.667 -58.333 28 -91 28v53c54 0 102.667 -16 146 -48l92 53zM223 49c16.667 0 32.167 3.16699 46.5 9.5s26.833 15 37.5 26s19 23.833 25 38.5s9 30.667 9 48c0 15.333 -3.16699 29.833 -9.5 43.5
s-14.833 25.667 -25.5 36s-23.167 18.5 -37.5 24.5s-29.833 9 -46.5 9c-34 0 -62 -11 -84 -33s-33 -50 -33 -84c0 -16.667 3 -32.167 9 -46.5s14.333 -26.833 25 -37.5s23.167 -19 37.5 -25s29.833 -9 46.5 -9z" />
    <glyph glyph-name="ntilde" unicode="&#xf1;" horiz-adv-x="407" 
d="M234 379c-32 0 -59.001 -7.16699 -81.001 -21.5s-37.667 -36.833 -47 -67.5v84h-71v-374h72v194c0 37.333 9 68 27 92s42.333 36 73 36c62.667 0 94 -35.667 94 -107v-215h71v227c0 53.333 -12.167 92 -36.5 116s-58.166 36 -101.499 36zM153.999 496
c-12 0 -20.667 -4.33496 -26 -13.002s-8 -22.667 -8 -42h-56c0 36.667 6.33301 63.834 19 81.501s34 26.5 64 26.5c12 0 23.333 -3 34 -9s20.834 -12.333 30.501 -19s19.167 -12.834 28.5 -18.501s18.666 -8.5 27.999 -8.5c24 0 37 19.333 39 58h54
c0 -35.333 -7 -62.666 -21 -81.999s-35.333 -29 -64 -29c-13.333 0 -25.5 2.83301 -36.5 8.5s-21.333 11.834 -31 18.501l-28 19c-9 6 -17.833 9 -26.5 9z" />
    <glyph glyph-name="ocircumflex" unicode="&#xf4;" horiz-adv-x="402" 
d="M201 379c54.667 0 98.334 -16.833 131.001 -50.5s49 -81.167 49 -142.5c0 -60.667 -16.333 -107.834 -49 -141.501s-76.334 -50.5 -131.001 -50.5s-98.334 16.833 -131.001 50.5s-49 80.834 -49 141.501c0 61.333 16.333 108.833 49 142.5s76.334 50.5 131.001 50.5z
M201 50c32 0 58.333 11.833 79 35.5s31 57.167 31 100.5c0 44 -10.333 77.833 -31 101.5s-47 35.5 -79 35.5s-58.167 -11.833 -78.5 -35.5s-30.5 -57.5 -30.5 -101.5c0 -43.333 10.167 -76.833 30.5 -100.5s46.5 -35.5 78.5 -35.5zM328 422h-64l-63 97h-2l-63 -97h-63
l100 154h54z" />
    <glyph glyph-name="odieresis" unicode="&#xf6;" horiz-adv-x="402" 
d="M201 379c-54.667 0 -98.334 -16.833 -131.001 -50.5s-49 -81.167 -49 -142.5c0 -60.667 16.333 -107.834 49 -141.501s76.334 -50.5 131.001 -50.5s98.334 16.833 131.001 50.5s49 80.834 49 141.501c0 61.333 -16.333 108.833 -49 142.5s-76.334 50.5 -131.001 50.5z
M201 50c-32 0 -58.167 11.833 -78.5 35.5s-30.5 57.167 -30.5 100.5c0 44 10.167 77.833 30.5 101.5s46.5 35.5 78.5 35.5s58.333 -11.833 79 -35.5s31 -57.5 31 -101.5c0 -43.333 -10.333 -76.833 -31 -100.5s-47 -35.5 -79 -35.5zM76 491c0 11.333 4.5 21.5 13.5 30.5
s19.833 13.5 32.5 13.5c11.333 0 21.333 -4.5 30 -13.5s13 -19.167 13 -30.5c0 -12.667 -4.33301 -23.5 -13 -32.5s-18.667 -13.5 -30 -13.5c-12.667 0 -23.5 4.5 -32.5 13.5s-13.5 19.833 -13.5 32.5zM238 491c0 11.333 4.33301 21.5 13 30.5s19.334 13.5 32.001 13.5
c12 0 22.333 -4.5 31 -13.5s13 -19.167 13 -30.5c0 -12.667 -4.33301 -23.5 -13 -32.5s-19 -13.5 -31 -13.5c-12.667 0 -23.334 4.5 -32.001 13.5s-13 19.833 -13 32.5z" />
    <glyph glyph-name="divide" unicode="&#xf7;" horiz-adv-x="416" 
d="M382 205h-348v53h348v-53zM160 345c0 12.667 4.33301 23.334 13 32.001s20.334 13 35.001 13c14 0 25.333 -4.33301 34 -13s13 -19.334 13 -32.001s-4.33301 -23.5 -13 -32.5s-20 -13.5 -34 -13.5c-14.667 0 -26.334 4.5 -35.001 13.5s-13 19.833 -13 32.5zM160 118
c0 12.667 4.33301 23.334 13 32.001s20.334 13 35.001 13c14 0 25.333 -4.33301 34 -13s13 -19.334 13 -32.001s-4.33301 -23.334 -13 -32.001s-20 -13 -34 -13c-14.667 0 -26.334 4.33301 -35.001 13s-13 19.334 -13 32.001z" />
    <glyph glyph-name="oslash" unicode="&#xf8;" horiz-adv-x="402" 
d="M201 379c54.667 0 98.334 -16.833 131.001 -50.5s49 -81.167 49 -142.5c0 -60.667 -16.333 -107.834 -49 -141.501s-76.334 -50.5 -131.001 -50.5s-98.334 16.833 -131.001 50.5s-49 80.834 -49 141.501c0 61.333 16.333 108.833 49 142.5s76.334 50.5 131.001 50.5z
M201 50c32 0 58.333 11.833 79 35.5s31 57.167 31 100.5c0 24 -3.5 45 -10.5 63s-16.167 32.667 -27.5 44l-87 -241c5.33301 -1.33301 10.333 -2 15 -2zM92 186c0 -46.667 12.333 -81.667 37 -105l87 240c-6.66699 1.33301 -11.667 2 -15 2
c-32 0 -58.167 -11.833 -78.5 -35.5s-30.5 -57.5 -30.5 -101.5z" />
    <glyph glyph-name="ucircumflex" unicode="&#xfb;" horiz-adv-x="407" 
d="M372 374l0.00195312 -374.001h-70v83h-1c-6 -17.333 -13.833 -31.666 -23.5 -42.999s-20.334 -20.333 -32.001 -27s-24 -11.5 -37 -14.5s-25.833 -4.5 -38.5 -4.5c-42.667 0 -75.834 12.333 -99.501 37s-35.5 63 -35.5 115v228h72v-217c0 -36 7.5 -62.667 22.5 -80
s38.5 -26 70.5 -26c30.667 0 55 11.833 73 35.5s27 54.5 27 92.5v195h72zM330.002 421.999h-64l-63 97h-2l-63 -97h-63l101 154h53z" />
    <glyph glyph-name="udieresis" unicode="&#xfc;" horiz-adv-x="407" 
d="M372 374l0.00195312 -374.001h-70v83h-1c-6 -17.333 -13.833 -31.666 -23.5 -42.999s-20.334 -20.333 -32.001 -27s-24 -11.5 -37 -14.5s-25.833 -4.5 -38.5 -4.5c-42.667 0 -75.834 12.333 -99.501 37s-35.5 63 -35.5 115v228h72v-217c0 -36 7.5 -62.667 22.5 -80
s38.5 -26 70.5 -26c30.667 0 55 11.833 73 35.5s27 54.5 27 92.5v195h72zM242.002 490.999c0 11.333 4.33301 21.5 13 30.5s19.334 13.5 32.001 13.5c11.333 0 21.5 -4.5 30.5 -13.5s13.5 -19.167 13.5 -30.5c0 -12.667 -4.5 -23.5 -13.5 -32.5s-19.167 -13.5 -30.5 -13.5
c-12.667 0 -23.334 4.5 -32.001 13.5s-13 19.833 -13 32.5zM80.002 490.999c0 11.333 4.33301 21.5 13 30.5s19.334 13.5 32.001 13.5c12 0 22.333 -4.5 31 -13.5s13 -19.167 13 -30.5c0 -12.667 -4.33301 -23.5 -13 -32.5s-19 -13.5 -31 -13.5
c-12.667 0 -23.334 4.5 -32.001 13.5s-13 19.833 -13 32.5z" />
    <glyph glyph-name="thorn" unicode="&#xfe;" horiz-adv-x="417" 
d="M394 186c0 -32 -4.16699 -59.999 -12.5 -83.999s-19.833 -44 -34.5 -60s-32 -28 -52 -36s-41.333 -12 -64 -12c-27.333 0 -52.333 6.5 -75 19.5s-38.667 32.167 -48 57.5h-1v-201h-72v630h72v-199h1c9.33301 25.333 25.333 44.666 48 57.999s47.667 20 75 20
c22.667 0 44 -4.16699 64 -12.5s37.333 -20.5 52 -36.5s26.167 -36 34.5 -60s12.5 -52 12.5 -84zM322 186.001c0 41.333 -10 74.168 -30 98.501s-46 36.5 -78 36.5s-57.833 -12.333 -77.5 -37s-29.5 -57 -29.5 -97c0 -40.667 9.83301 -73.334 29.5 -98.001
s45.5 -37 77.5 -37s58 12 78 36s30 56.667 30 98z" />
    <glyph glyph-name="ydieresis" unicode="&#xff;" horiz-adv-x="365" 
d="M284 374l-99.999 -315.001h-1l-100 315h-78l142 -390c-6 -15.333 -11.667 -27.166 -17 -35.499s-11.333 -14.5 -18 -18.5s-14.334 -6.5 -23.001 -7.5s-18.667 -1.5 -30 -1.5c-5.33301 0 -10 0.166992 -14 0.5s-8.66699 0.833008 -14 1.5v-50
c9.33301 -3.33301 19 -5 29 -5c22.667 -1.33301 42.5 -0.333008 59.5 3s32.167 10.5 45.5 21.5s25.5 26.5 36.5 46.5s22.167 46 33.5 78l37.5 105l37.5 105l31.5 89.5c9 26.333 15.167 45.5 18.5 57.5h-76zM223.001 490.999c0 11.333 4.33301 21.5 13 30.5
s19.334 13.5 32.001 13.5c11.333 0 21.5 -4.5 30.5 -13.5s13.5 -19.167 13.5 -30.5c0 -12.667 -4.5 -23.5 -13.5 -32.5s-19.167 -13.5 -30.5 -13.5c-12.667 0 -23.334 4.5 -32.001 13.5s-13 19.833 -13 32.5zM61.001 490.999c0 11.333 4.33301 21.5 13 30.5
s19.334 13.5 32.001 13.5c12 0 22.333 -4.5 31 -13.5s13 -19.167 13 -30.5c0 -12.667 -4.33301 -23.5 -13 -32.5s-19 -13.5 -31 -13.5c-12.667 0 -23.334 4.5 -32.001 13.5s-13 19.833 -13 32.5z" />
    <glyph glyph-name="Abreve" unicode="&#x102;" horiz-adv-x="469" 
d="M335 661c0 -28 -9.33301 -51.5 -28 -70.5s-42.667 -28.5 -72 -28.5c-30 0 -54.333 9.5 -73 28.5s-28 42.5 -28 70.5h52c0 -14 4.33301 -25.167 13 -33.5s20.667 -12.5 36 -12.5c14 0 25.333 4.16699 34 12.5s13 19.5 13 33.5h53zM468 0l-188 513h-91l-188 -513h79l44 126
h220l44 -126h80zM141 182l92 259h2l92 -259h-186z" />
    <glyph glyph-name="abreve" unicode="&#x103;" horiz-adv-x="387" 
d="M303 524c0 -28 -9.33301 -51.333 -28 -70s-42.667 -28 -72 -28c-30 0 -54.333 9.33301 -73 28s-28 42 -28 70h52c0 -14 4.33301 -25.5 13 -34.5s20.667 -13.5 36 -13.5c14.667 0 26.167 4.5 34.5 13.5s12.5 20.5 12.5 34.5h53zM200 379c-46 0 -83 -10.668 -111 -32.001
s-44 -50 -48 -86h66c3.33301 20.667 12.833 36.667 28.5 48s36.167 17 61.5 17s45.333 -7.16699 60 -21.5s22 -34.166 22 -59.499v-21l-111 -7c-95.333 -7.33301 -143 -45 -143 -113c0 -32.667 11.333 -59.167 34 -79.5s52 -30.5 88 -30.5c28 0 54.833 6.5 80.5 19.5
s43.5 31.833 53.5 56.5h1v-70h70v249c0 39.333 -13.5 70.833 -40.5 94.5s-64.167 35.5 -111.5 35.5zM279 145.999c0 -13.333 -3 -26.1689 -9 -38.502s-14 -23.166 -24 -32.499s-21.5 -16.833 -34.5 -22.5s-26.833 -8.5 -41.5 -8.5c-22 0 -39.833 5.83301 -53.5 17.5
s-20.5 26.834 -20.5 45.501c0 39.333 27.333 61 82 65l101 8v-34z" />
    <glyph glyph-name="Cacute" unicode="&#x106;" horiz-adv-x="493" 
d="M261 55c-50 0 -88.833 17.835 -116.5 53.502s-41.5 85.5 -41.5 149.5c0 62.667 13.833 111.5 41.5 146.5s66.5 52.5 116.5 52.5c34 0 62.833 -9.33301 86.5 -28s39.5 -43.334 47.5 -74.001h75c-4 24 -12.167 46.167 -24.5 66.5s-27.666 37.666 -45.999 51.999
s-39.333 25.5 -63 33.5s-48.834 12 -75.501 12c-36 0 -68.5 -6 -97.5 -18s-53.5 -29.167 -73.5 -51.5s-35.333 -49.666 -46 -81.999s-16 -68.833 -16 -109.5c0 -82.667 20.5 -147.334 61.5 -194.001s98.167 -70 171.5 -70c56.667 0 103.5 14.167 140.5 42.5
s59.833 66.833 68.5 115.5h-75c-8 -31.333 -23.833 -55.333 -47.5 -72s-52.5 -25 -86.5 -25zM299 704.002h80l-91 -138h-66z" />
    <glyph glyph-name="cacute" unicode="&#x107;" horiz-adv-x="392" 
d="M207 50c-32.667 0 -58.668 12.165 -78.001 36.498s-29 57.5 -29 99.5c0 42.667 9.66699 76.167 29 100.5s45.333 36.5 78 36.5c23.333 0 43.5 -6.33301 60.5 -19s28.167 -29.667 33.5 -51h68c-5.33301 38 -22.666 68.5 -51.999 91.5s-66.666 34.5 -111.999 34.5
c-54.667 0 -97.834 -16.833 -129.501 -50.5s-47.5 -81.167 -47.5 -142.5s15.833 -108.666 47.5 -141.999s75.167 -50 130.5 -50c45.333 0 82.5 10.833 111.5 32.5s46.167 51.834 51.5 90.501h-69c-5.33301 -21.333 -16.333 -37.833 -33 -49.5s-36.667 -17.5 -60 -17.5z
M331.999 573.998l-91 -138h-66l77 138h80z" />
    <glyph glyph-name="Ccaron" unicode="&#x10c;" horiz-adv-x="493" 
d="M261 55c34 0 62.833 8.33105 86.5 24.998s39.5 40.667 47.5 72h75c-8.66699 -48.667 -31.5 -87.167 -68.5 -115.5s-83.833 -42.5 -140.5 -42.5c-73.333 0 -130.5 23.333 -171.5 70s-61.5 111.334 -61.5 194.001c0 40.667 5.33301 77.167 16 109.5s26 59.666 46 81.999
s44.5 39.5 73.5 51.5s61.5 18 97.5 18c26.667 0 51.834 -4 75.501 -12s44.667 -19.167 63 -33.5s33.666 -31.666 45.999 -51.999s20.5 -42.5 24.5 -66.5h-75c-8 30.667 -23.833 55.334 -47.5 74.001s-52.5 28 -86.5 28c-50 0 -88.833 -17.5 -116.5 -52.5
s-41.5 -83.833 -41.5 -146.5c0 -64 13.833 -113.833 41.5 -149.5s66.5 -53.5 116.5 -53.5zM235 552.998l-101 154h63l63 -98h2l63 98h64l-101 -154h-53z" />
    <glyph glyph-name="ccaron" unicode="&#x10d;" horiz-adv-x="392" 
d="M180 422l-100 154h62l63 -99h3l63 99h64l-102 -154h-53zM207 50c23.333 0 43.334 5.83496 60.001 17.502s27.667 28.167 33 49.5h69c-5.33301 -38.667 -22.5 -68.834 -51.5 -90.501s-66.167 -32.5 -111.5 -32.5c-55.333 0 -98.833 16.667 -130.5 50
s-47.5 80.666 -47.5 141.999s15.833 108.833 47.5 142.5s74.834 50.5 129.501 50.5c45.333 0 82.666 -11.5 111.999 -34.5s46.666 -53.5 51.999 -91.5h-68c-5.33301 21.333 -16.5 38.333 -33.5 51s-37.167 19 -60.5 19c-32.667 0 -58.667 -12.167 -78 -36.5
s-29 -57.833 -29 -100.5c0 -42 9.66699 -75.167 29 -99.5s45.333 -36.5 78 -36.5z" />
    <glyph glyph-name="Dcroat" unicode="&#x110;" horiz-adv-x="542" 
d="M18 280l75.001 0.00195312v233h167c38.667 0 73.667 -5.66699 105 -17s58 -27.833 80 -49.5s39 -48.334 51 -80.001s18 -67.834 18 -108.501c0 -41.333 -6 -78 -18 -110s-29 -59 -51 -81s-48.833 -38.667 -80.5 -50s-66.834 -17 -105.501 -17h-166v232h-75v48z
M250.001 58.002c58.667 0 104.333 17.167 137 51.5s49 83.5 49 147.5c0 63.333 -16.333 112 -49 146s-77.667 51 -135 51h-84v-174h139v-48h-139v-174h82z" />
    <glyph glyph-name="dcroat" unicode="&#x111;" horiz-adv-x="418" 
d="M177 379c32 0 59.167 -7.00195 81.5 -21.002s39.166 -34 50.499 -60h1v126h-206v41h206v58h73v-58h53v-41h-53v-424h-70v74h-2c-10 -24.667 -26.833 -44.167 -50.5 -58.5s-51.5 -21.5 -83.5 -21.5c-21.333 0 -41.333 4.33301 -60 13s-35 21.334 -49 38.001
s-25 36.834 -33 60.501s-12 50.5 -12 80.5s3.83301 57 11.5 81s18.334 44.167 32.001 60.5s30 29 49 38s39.5 13.5 61.5 13.5zM203 50.998c32 0 57.833 12.166 77.5 36.499s29.5 57.166 29.5 98.499c0 40.667 -9.83301 73.334 -29.5 98.001s-45.5 37 -77.5 37
c-32.667 0 -58.667 -12 -78 -36s-29 -57 -29 -99c0 -41.333 9.66699 -74.166 29 -98.499s45.333 -36.5 78 -36.5z" />
    <glyph glyph-name="Gbreve" unicode="&#x11e;" horiz-adv-x="507" 
d="M478 268l-202.001 0.00292969v-55h128v-18c0 -19.333 -2.83301 -37.333 -8.5 -54s-14.167 -31.5 -25.5 -44.5s-26 -23.167 -44 -30.5s-39.333 -11 -64 -11c-49.333 0 -88.166 17.833 -116.499 53.5s-42.5 85.5 -42.5 149.5c0 62.667 14.5 111.5 43.5 146.5
s68.167 52.5 117.5 52.5c34 0 63.833 -9.33301 89.5 -28s42.5 -43.334 50.5 -74.001h75c-4 24 -12.5 46.167 -25.5 66.5s-29 37.666 -48 51.999s-40.5 25.5 -64.5 33.5s-49.667 12 -77 12c-36 0 -68.5 -6 -97.5 -18s-53.833 -29.167 -74.5 -51.5
s-36.5 -49.666 -47.5 -81.999s-16.5 -68.833 -16.5 -109.5c0 -82.667 20.833 -147.334 62.5 -194.001s98.834 -70 171.501 -70c38.667 0 71.667 5.66699 99 17s49.666 26.666 66.999 45.999s30 42.333 38 69s12 55 12 85v57zM363.999 661.003
c0 -28 -9.33301 -51.5 -28 -70.5s-42.667 -28.5 -72 -28.5c-30 0 -54.333 9.5 -73 28.5s-28 42.5 -28 70.5h52c0 -14 4.33301 -25.167 13 -33.5s20.667 -12.5 36 -12.5c14 0 25.333 4.16699 34 12.5s13 19.5 13 33.5h53z" />
    <glyph glyph-name="gbreve" unicode="&#x11f;" horiz-adv-x="417" 
d="M313 374v-75.002h-1c-11.333 28 -28.333 48.333 -51 61s-50 19 -82 19c-21.333 0 -41.5 -4.33301 -60.5 -13s-35.5 -21.167 -49.5 -37.5s-25.167 -36.166 -33.5 -59.499s-12.5 -49.666 -12.5 -78.999c0 -28 4 -53.5 12 -76.5s19 -42.5 33 -58.5s30.5 -28.333 49.5 -37
s39.5 -13 61.5 -13c31.333 0 58.166 6 80.499 18s38.833 32.667 49.5 62h1v-66c0 -18.667 -2.66699 -34.167 -8 -46.5s-12.666 -22.333 -21.999 -30s-20.333 -13 -33 -16s-26.334 -4.5 -41.001 -4.5c-20.667 0 -40 3.5 -58 10.5s-31 21.167 -39 42.5h-71
c10 -39.333 30.333 -67.333 61 -84s67.334 -25 110.001 -25c24.667 0 47.5 3 68.5 9s39.167 15 54.5 27s27.5 27.167 36.5 45.5s13.5 39.833 13.5 64.5v362h-69zM203 61.998c-32 0 -57.834 11.666 -77.501 34.999s-29.5 54.333 -29.5 93c0 40 9.83301 72 29.5 96
s45.5 36 77.5 36c32.667 0 58.834 -12.167 78.501 -36.5s29.5 -55.833 29.5 -94.5c0 -39.333 -10 -70.666 -30 -93.999s-46 -35 -78 -35zM305.999 523.997c0 -28 -9.33398 -51.333 -28.001 -70s-43 -28 -73 -28s-54.167 9.33301 -72.5 28s-27.5 42 -27.5 70h51
c0 -14 4.5 -25.5 13.5 -34.5s20.833 -13.5 35.5 -13.5s26.334 4.5 35.001 13.5s13 20.5 13 34.5h53z" />
    <glyph glyph-name="Idotaccent" unicode="&#x130;" horiz-adv-x="160" 
d="M43 513h74v-513h-74v513zM80 654c13.333 0 24 -4 32 -12s12 -17.667 12 -29c0 -12 -4 -22 -12 -30s-18.667 -12 -32 -12s-24 4 -32 12s-12 18 -12 30c0 11.333 4 21 12 29s18.667 12 32 12z" />
    <glyph glyph-name="dotlessi" unicode="&#x131;" horiz-adv-x="172" 
d="M50 374h72v-374h-72v374z" />
    <glyph glyph-name="Lslash" unicode="&#x141;" horiz-adv-x="428" 
d="M94 232h-75v48h75v233h74v-233h151v-48h-151v-174h247v-58h-321v232z" />
    <glyph glyph-name="lslash" unicode="&#x142;" horiz-adv-x="317" 
d="M12 280h110v233h74v-233h109v-48h-109v-232h-74v232h-110v48z" />
    <glyph glyph-name="OE" unicode="&#x152;" horiz-adv-x="747" 
d="M261 519c20 0 39.6689 -2 59.002 -6h394v-59h-295c23.333 -17.333 41.5 -40.333 54.5 -69s20.5 -62 22.5 -100h181v-58h-181c-4 -78.667 -29.667 -135 -77 -169h295v-58h-394c-19.333 -4 -39 -6 -59 -6c-74.667 0 -133 23.167 -175 69.5s-63 110.833 -63 193.5
c0 40 5.5 76.167 16.5 108.5s26.667 59.833 47 82.5s45.166 40.167 74.499 52.5s62.666 18.5 99.999 18.5zM261.002 56c50 0 89.167 17.833 117.5 53.5s42.5 84.834 42.5 147.501s-14.167 111.334 -42.5 146.001s-67.5 52 -117.5 52c-50.667 0 -90.167 -17.333 -118.5 -52
s-42.5 -83.334 -42.5 -146.001s14.167 -111.834 42.5 -147.501s67.833 -53.5 118.5 -53.5z" />
    <glyph glyph-name="oe" unicode="&#x153;" horiz-adv-x="685" 
d="M381 172c0 -38.667 10.168 -68.833 30.501 -90.5s46.5 -32.5 78.5 -32.5c25.333 0 46 6 62 18s27 28.667 33 50h69c-8.66699 -40 -26.667 -70.5 -54 -91.5s-64.333 -31.5 -111 -31.5c-68 0 -116 26.667 -144 80c-14 -25.333 -33.333 -45 -58 -59s-53.334 -21 -86.001 -21
c-54.667 0 -98.334 16.833 -131.001 50.5s-49 80.834 -49 141.501c0 61.333 16.333 108.833 49 142.5s76.334 50.5 131.001 50.5c33.333 0 62.333 -7.16699 87 -21.5s43.667 -34.166 57 -59.499c14 25.333 33 45.166 57 59.499s52.333 21.5 85 21.5
c54 0 95.833 -16.833 125.5 -50.5s44.5 -78.834 44.5 -135.501v-21h-276zM201.001 50.001c32 0 58.333 11.833 79 35.5s31 57.167 31 100.5c0 44 -10.333 77.833 -31 101.5s-47 35.5 -79 35.5s-58.167 -11.833 -78.5 -35.5s-30.5 -57.5 -30.5 -101.5
c0 -43.333 10.167 -76.833 30.5 -100.5s46.5 -35.5 78.5 -35.5zM486.001 324.001c-30 0 -54 -10 -72 -30s-28.667 -46 -32 -78h207c-1.33301 32 -11.333 58 -30 78s-43 30 -73 30z" />
    <glyph glyph-name="Scedilla" unicode="&#x15e;" horiz-adv-x="441" 
d="M216 -67h80l-92 -138h-65zM263 283c53.333 -11.333 92.1689 -27.501 116.502 -48.501s36.5 -50.5 36.5 -88.5c0 -46.667 -17.5 -83.667 -52.5 -111s-82.5 -41 -142.5 -41c-58 0 -104.667 13.667 -140 41s-54 64 -56 110h71c4 -27.333 17.167 -49.5 39.5 -66.5
s51.5 -25.5 87.5 -25.5s64.333 7.83301 85 23.5s31 36.5 31 62.5c0 22 -8 39.333 -24 52s-43.333 23.334 -82 32.001l-54 11c-50 11.333 -87 28 -111 50s-36 51 -36 87c0 22 4.83301 42 14.5 60s22.667 33.5 39 46.5s35.666 23.167 57.999 30.5s46.5 11 72.5 11
c30.667 0 57.5 -4.16699 80.5 -12.5s42.333 -19.5 58 -33.5s27.667 -30.5 36 -49.5s13.166 -39.5 14.499 -61.5h-73c-2 28 -12.833 51.167 -32.5 69.5s-47.167 27.5 -82.5 27.5c-32 0 -58.333 -7.66699 -79 -23s-31 -35.333 -31 -60c0 -21.333 8 -38.333 24 -51
s42 -22.667 78 -30z" />
    <glyph glyph-name="scedilla" unicode="&#x15f;" horiz-adv-x="358" 
d="M194 213c47.333 -10 82.334 -22.3311 105.001 -36.998s34 -37 34 -67c0 -35.333 -13.5 -63.333 -40.5 -84s-64.167 -31 -111.5 -31c-18.667 0 -36.834 2.16699 -54.501 6.5s-33.667 11.166 -48 20.499s-26.333 21.333 -36 36s-15.5 32 -17.5 52h69
c3.33301 -19.333 13 -34.833 29 -46.5s35.667 -17.5 59 -17.5s42.166 5.16699 56.499 15.5s21.5 24.166 21.5 41.499c0 12.667 -5.16699 23.334 -15.5 32.001s-28.166 15.667 -53.499 21l-50 10c-73.333 16 -110 50 -110 102c0 17.333 4 32.833 12 46.5
s18.667 25.334 32 35.001s28.833 17 46.5 22s36.167 7.5 55.5 7.5c18 0 35.333 -2.16699 52 -6.5s31.667 -11.333 45 -21s24.333 -21.834 33 -36.501s14 -32.334 16 -53.001h-66c-2.66699 21.333 -11.334 37.333 -26.001 48s-33 16 -55 16
c-21.333 0 -39.166 -5.16699 -53.499 -15.5s-21.5 -23.5 -21.5 -39.5c0 -14.667 7 -26 21 -34s38 -15.667 72 -23zM165.001 -66.998h80l-92 -138h-65z" />
    <glyph glyph-name="Scaron" unicode="&#x160;" horiz-adv-x="441" 
d="M263 283c53.333 -11.333 92.1689 -27.501 116.502 -48.501s36.5 -50.5 36.5 -88.5c0 -46.667 -17.5 -83.667 -52.5 -111s-82.5 -41 -142.5 -41c-58 0 -104.667 13.667 -140 41s-54 64 -56 110h71c4 -27.333 17.167 -49.5 39.5 -66.5s51.5 -25.5 87.5 -25.5
s64.333 7.83301 85 23.5s31 36.5 31 62.5c0 22 -8 39.333 -24 52s-43.333 23.334 -82 32.001l-54 11c-50 11.333 -87 28 -111 50s-36 51 -36 87c0 22 4.83301 42 14.5 60s22.667 33.5 39 46.5s35.666 23.167 57.999 30.5s46.5 11 72.5 11c30.667 0 57.5 -4.16699 80.5 -12.5
s42.333 -19.5 58 -33.5s27.667 -30.5 36 -49.5s13.166 -39.5 14.499 -61.5h-73c-2 28 -12.833 51.167 -32.5 69.5s-47.167 27.5 -82.5 27.5c-32 0 -58.333 -7.66699 -79 -23s-31 -35.333 -31 -60c0 -21.333 8 -38.333 24 -51s42 -22.667 78 -30zM192.003 552.999l-101 154
h63l63 -98h2l63 98h64l-101 -154h-53z" />
    <glyph glyph-name="scaron" unicode="&#x161;" horiz-adv-x="358" 
d="M194 213c47.333 -10 82.334 -22.3291 105.001 -36.9961s34 -37 34 -67c0 -35.333 -13.5 -63.333 -40.5 -84s-64.167 -31 -111.5 -31c-18.667 0 -36.834 2.16699 -54.501 6.5s-33.667 11.166 -48 20.499s-26.333 21.333 -36 36s-15.5 32 -17.5 52h69
c3.33301 -19.333 13 -35 29 -47s35.667 -18 59 -18s42.166 5.16699 56.499 15.5s21.5 24.166 21.5 41.499c0 12.667 -5.16699 23.5 -15.5 32.5s-28.166 16.167 -53.499 21.5l-50 10c-73.333 16 -110 49.667 -110 101c0 17.333 4 33 12 47s18.667 25.833 32 35.5
s28.833 17 46.5 22s36.167 7.5 55.5 7.5c18 0 35.333 -2.16699 52 -6.5s31.667 -11.333 45 -21s24.333 -21.834 33 -36.501s14 -32.334 16 -53.001h-66c-2.66699 21.333 -11.334 37.333 -26.001 48s-33 16 -55 16c-21.333 0 -39.166 -5.16699 -53.499 -15.5
s-21.5 -23.5 -21.5 -39.5c0 -14.667 7 -26 21 -34s38 -15.667 72 -23zM152.001 422.004l-100 154h62l63 -99h3l63 99h64l-102 -154h-53z" />
    <glyph glyph-name="Ydieresis" unicode="&#x178;" horiz-adv-x="449" 
d="M445 513h-88l-132 -211h-1l-132 211h-88l183 -280v-233h75v231zM99 632c0 11.333 4.5 21.333 13.5 30s19.833 13 32.5 13c11.333 0 21.333 -4.33301 30 -13s13 -18.667 13 -30c0 -12.667 -4.33301 -23.5 -13 -32.5s-18.667 -13.5 -30 -13.5
c-12.667 0 -23.5 4.5 -32.5 13.5s-13.5 19.833 -13.5 32.5zM262 632c0 11.333 4.33301 21.333 13 30s19.334 13 32.001 13c11.333 0 21.5 -4.33301 30.5 -13s13.5 -18.667 13.5 -30c0 -12.667 -4.5 -23.5 -13.5 -32.5s-19.167 -13.5 -30.5 -13.5
c-12.667 0 -23.334 4.5 -32.001 13.5s-13 19.833 -13 32.5z" />
    <glyph glyph-name="florin" unicode="&#x192;" horiz-adv-x="281" 
d="M247 370v-49.999h-70v-211c0 -44 -10.833 -74.5 -32.5 -91.5s-52.167 -24.833 -91.5 -23.5l-18 2c-6 0.666992 -12.333 2 -19 4v52c7.33301 -0.666992 13.833 -1.33398 19.5 -2.00098s11.167 -1 16.5 -1c20.667 0.666992 34.5 5.16699 41.5 13.5s10.5 22.166 10.5 41.499
v216h-62v50h62v38c0 41.333 11.333 70.333 34 87s52.667 24 90 22l18 -2c6 -0.666992 12.333 -2 19 -4v-51c-7.33301 0.666992 -13.833 1.33398 -19.5 2.00098s-11.167 0.666992 -16.5 0c-20.667 -0.666992 -34.5 -5 -41.5 -13s-10.5 -22 -10.5 -42v-37h70z" />
    <glyph glyph-name="Ohorn" unicode="&#x1a0;" horiz-adv-x="530" 
 />
    <glyph glyph-name="ohorn" unicode="&#x1a1;" horiz-adv-x="416" 
 />
    <glyph glyph-name="Uhorn" unicode="&#x1af;" horiz-adv-x="527" 
 />
    <glyph glyph-name="uhorn" unicode="&#x1b0;" horiz-adv-x="456" 
 />
    <glyph glyph-name="circumflex" unicode="&#x2c6;" horiz-adv-x="347" 
d="M301 422h-64l-63 97h-3l-63 -97h-62l100 154h53z" />
    <glyph glyph-name="caron" unicode="&#x2c7;" horiz-adv-x="347" 
d="M146 422l-100 154h62l63 -98h3l63 98h64l-102 -154h-53z" />
    <glyph glyph-name="breve" unicode="&#x2d8;" horiz-adv-x="293" 
d="M247 524c0 -28 -9.33398 -51.333 -28.001 -70s-43 -28 -73 -28s-54.167 9.33301 -72.5 28s-27.5 42 -27.5 70h51c0 -14 4.5 -25.5 13.5 -34.5s20.833 -13.5 35.5 -13.5s26.334 4.5 35.001 13.5s13 20.5 13 34.5h53z" />
    <glyph glyph-name="dotaccent" unicode="&#x2d9;" horiz-adv-x="174" 
d="M88 508c10.667 0 20 -3.83301 28 -11.5s12 -17.167 12 -28.5c0 -12 -4 -22 -12 -30s-17.333 -12 -28 -12c-12 0 -22 4 -30 12s-12 18 -12 30c0 11.333 4 20.833 12 28.5s18 11.5 30 11.5z" />
    <glyph glyph-name="ring" unicode="&#x2da;" horiz-adv-x="266" 
d="M133 469c12.667 0 22.834 3.83301 30.501 11.5s11.5 17.834 11.5 30.501c0 13.333 -3.83301 23.833 -11.5 31.5s-17.834 11.5 -30.501 11.5c-13.333 0 -23.833 -3.83301 -31.5 -11.5s-11.5 -18.167 -11.5 -31.5c0 -12.667 3.83301 -22.834 11.5 -30.501
s18.167 -11.5 31.5 -11.5zM46 511c0 24.667 8.16699 45.167 24.5 61.5s37.166 24.5 62.499 24.5s46.166 -8.16699 62.499 -24.5s24.5 -36.833 24.5 -61.5s-8.16699 -45 -24.5 -61s-37.166 -24 -62.499 -24s-46.166 8 -62.499 24s-24.5 36.333 -24.5 61z" />
    <glyph glyph-name="ogonek" unicode="&#x2db;" horiz-adv-x="166" 
 />
    <glyph glyph-name="tilde" unicode="&#x2dc;" horiz-adv-x="389" 
d="M136 494c-12 0 -20.834 -4.33398 -26.501 -13.001s-8.5 -22.667 -8.5 -42h-55c0 37.333 6.16699 65 18.5 83s33.5 27 63.5 27c12.667 0 24.334 -3 35.001 -9s20.834 -12.667 30.501 -20s19.167 -13.833 28.5 -19.5s18.666 -8.5 27.999 -8.5c24.667 0 37.334 20 38.001 60
h55c0 -36 -7.16699 -63.833 -21.5 -83.5s-35.833 -29.5 -64.5 -29.5c-13.333 0 -25.5 2.83301 -36.5 8.5s-21.333 11.834 -31 18.501l-27.5 19c-8.66699 6 -17.334 9 -26.001 9z" />
    <glyph glyph-name="hungarumlaut" unicode="&#x2dd;" horiz-adv-x="364" 
d="M195 574l-92 -138h-57l77 138h72zM318 574l-91 -138h-58l77 138h72z" />
    <glyph glyph-name="gravecomb" unicode="&#x300;" 
d="M-104 436h-66l-91 138h80z" />
    <glyph glyph-name="acutecomb" unicode="&#x301;" 
d="M-228 436l77 138h80l-92 -138h-65z" />
    <glyph glyph-name="tildecomb" unicode="&#x303;" 
d="M-250 494c-12 0 -20.666 -4.33496 -25.999 -13.002s-8 -22.667 -8 -42h-55c0 37.333 6.16699 65 18.5 83s33.5 27 63.5 27c12.667 0 24.334 -3 35.001 -9s20.667 -12.667 30 -20s18.666 -13.833 27.999 -19.5s18.666 -8.5 27.999 -8.5c13.333 0 22.833 4.83301 28.5 14.5
s9.16699 24.834 10.5 45.501h54c0 -36 -7 -63.833 -21 -83.5s-35.333 -29.5 -64 -29.5c-13.333 0 -25.5 2.83301 -36.5 8.5s-21.333 11.834 -31 18.501l-28 19c-9 6 -17.833 9 -26.5 9z" />
    <glyph glyph-name="hookabovecomb" unicode="&#x309;" 
 />
    <glyph glyph-name="dotbelowcomb" unicode="&#x323;" 
d="M-189 -66c13.333 0 24 -4 32 -12s12 -18 12 -30c0 -11.333 -4 -21.166 -12 -29.499s-18.667 -12.5 -32 -12.5s-24 4.16699 -32 12.5s-12 18.166 -12 29.499c0 12 4 22 12 30s18.667 12 32 12z" />
    <glyph glyph-name="uni0E00" unicode="&#xe00;" 
 />
    <glyph glyph-name="uni0E01" unicode="&#xe01;" horiz-adv-x="452" 
d="M225 426c64 0 111.331 -14.165 141.998 -42.498s46 -69.833 46 -124.5v-259h-73v252c0 38 -9.33301 66.5 -28 85.5s-48 28.5 -88 28.5c-33.333 0 -60.833 -6.33301 -82.5 -19s-35.167 -34 -40.5 -64h87v-31c-21.333 -8 -37.166 -19.833 -47.499 -35.5
s-15.5 -36.834 -15.5 -63.501v-153h-72v141c0 26.667 5.5 49.667 16.5 69s27.833 31.666 50.5 36.999h-87c0 58.667 16.333 103.167 49 133.5s80.334 45.5 143.001 45.5z" />
    <glyph glyph-name="uni0E02" unicode="&#xe02;" horiz-adv-x="420" 
d="M381 423l0.000976562 -275c0 -29.333 -3.83301 -53.833 -11.5 -73.5s-19 -35.5 -34 -47.5s-33.333 -20.5 -55 -25.5s-46.167 -7.5 -73.5 -7.5s-51.833 2.5 -73.5 7.5s-40 13.167 -55 24.5s-26.333 26.666 -34 45.999s-11.5 43.666 -11.5 72.999v27
c0 22.667 4.66699 42 14 58s19.5 30.333 30.5 43l30.5 35c9.33301 10.667 14 21.667 14 33c0 10 -2.66699 17 -8 21s-17.666 6 -36.999 6h-36v55h48c38 0 65.5 -5.16699 82.5 -15.5s25.5 -29.5 25.5 -57.5c0 -15.333 -4.66699 -29.666 -14 -42.999
s-19.833 -26.666 -31.5 -39.999s-22.167 -27.833 -31.5 -43.5s-14 -33.834 -14 -54.501c0 -18 1.16699 -34.167 3.5 -48.5s7.16602 -26.5 14.499 -36.5s17.5 -17.667 30.5 -23s30.5 -8 52.5 -8s39.5 2.83301 52.5 8.5s23.167 13.834 30.5 24.501s12.166 23.167 14.499 37.5
s3.5 30.5 3.5 48.5v251h73z" />
    <glyph glyph-name="uni0E03" unicode="&#xe03;" horiz-adv-x="434" 
d="M395 423l0.00585938 -274.997c0 -29.333 -3.83301 -53.833 -11.5 -73.5s-19 -35.5 -34 -47.5s-33.333 -20.5 -55 -25.5s-46.167 -7.5 -73.5 -7.5s-51.833 2.5 -73.5 7.5s-39.834 13.167 -54.501 24.5s-25.834 26.666 -33.501 45.999s-11.5 43.666 -11.5 72.999v27
c0 20.667 5 39.167 15 55.5s21.167 31.166 33.5 44.499l35 37c11 11.333 17.833 22.666 20.5 33.999c1.33301 7.33301 1.5 14 0.5 20s-4.5 9.66699 -10.5 11c-10.667 2 -17.834 -0.833008 -21.501 -8.5s-7.16699 -17.167 -10.5 -28.5h-40l-62 86h56l30 -53
c1.33301 16.667 6.66602 29.667 15.999 39s23.333 14 42 14c18 0 34 -4.33301 48 -13s21 -24.667 21 -48c0 -19.333 -5.16699 -36.666 -15.5 -51.999s-21.833 -30.166 -34.5 -44.499s-24.167 -29.333 -34.5 -45s-15.5 -33.834 -15.5 -54.501c0 -17.333 1.16699 -33 3.5 -47
s7 -25.833 14 -35.5s17.167 -17.167 30.5 -22.5s30.666 -8 51.999 -8c22 0 39.5 2.83301 52.5 8.5s23.167 13.667 30.5 24s12.166 22.833 14.499 37.5s3.5 31 3.5 49v251h73z" />
    <glyph glyph-name="uni0E04" unicode="&#xe04;" horiz-adv-x="458" 
d="M229 426c60.667 0 107.169 -12.999 139.502 -38.999s48.5 -70.333 48.5 -133v-254h-73v245c0 36.667 -8.33301 65.834 -25 87.501s-46.667 32.5 -90 32.5s-73.333 -10.833 -90 -32.5s-25 -50.834 -25 -87.501v-86c10 21.333 25.167 37.166 45.5 47.499
s41.5 15.5 63.5 15.5h35v-61h-39c-14.667 0 -28.334 -2.16699 -41.001 -6.5s-23.834 -10.333 -33.501 -18s-17.167 -16.5 -22.5 -26.5s-8 -21 -8 -33v1v-78h-73v254c0 62.667 16.167 107 48.5 133s78.833 39 139.5 39z" />
    <glyph glyph-name="uni0E05" unicode="&#xe05;" horiz-adv-x="457" 
d="M142 426c22 0 40.8291 -5.33008 56.4961 -15.9971s25.834 -26 30.501 -46c4.66699 20 14.834 35.333 30.501 46s34.167 16 55.5 16c20.667 0 37.5 -2.83301 50.5 -8.5s23.167 -14 30.5 -25s12.5 -25 15.5 -42s4.5 -36.5 4.5 -58.5v-292h-73v310
c0 6 -0.166992 12.167 -0.5 18.5s-2 12.333 -5 18s-7.66699 10.334 -14 14.001s-15.166 5.5 -26.499 5.5c-14 0 -24 -5.33301 -30 -16s-10.333 -23.334 -13 -38.001h-50c-2.66699 14.667 -7.16699 27.334 -13.5 38.001s-16.5 16 -30.5 16c-11.333 0 -20 -1.83301 -26 -5.5
s-10.5 -8.33398 -13.5 -14.001s-4.83301 -11.834 -5.5 -18.501s-1 -12.667 -1 -18v-151c9.33301 21.333 24.333 37.166 45 47.499s42 15.5 64 15.5h35v-61h-39c-29.333 0 -53.833 -7.83301 -73.5 -23.5s-30.167 -34.834 -31.5 -57.501v-80h-73v292c0 22 1.33301 41.5 4 58.5
s7.83398 31 15.501 42s18 19.333 31 25s29.833 8.5 50.5 8.5z" />
    <glyph glyph-name="uni0E06" unicode="&#xe06;" horiz-adv-x="464" 
d="M57 172c0 20.667 4.66406 39.1689 13.9971 55.502s20 31.166 32 44.499l34 37c10.667 11.333 17.334 22.666 20.001 33.999c1.33301 7.33301 1.5 14 0.5 20s-4.5 9.66699 -10.5 11c-10.667 2 -17.834 -0.833008 -21.501 -8.5s-7.16699 -17.167 -10.5 -28.5h-40l-62 86h55
l31 -53c3.33301 37.333 23.333 56 60 56c20.667 0 37 -6.16699 49 -18.5s17.333 -30.166 16 -53.499c-1.33301 -18 -7 -34.167 -17 -48.5s-20.667 -28.5 -32 -42.5s-21.666 -28.5 -30.999 -43.5s-14 -32.167 -14 -51.5c0 -15.333 3.33301 -29.833 10 -43.5
s15.667 -25.834 27 -36.501s24.833 -19.167 40.5 -25.5s32.5 -9.5 50.5 -9.5c30 0 53.333 8.16699 70 24.5s25 43.166 25 80.499v265h72v-285c0 -23.333 -3.5 -43.833 -10.5 -61.5s-16.667 -32.667 -29 -45s-26.833 -21.666 -43.5 -27.999s-35 -9.5 -55 -9.5
c-41.333 0 -75.666 7.16699 -102.999 21.5s-45.666 34.5 -54.999 60.5h-2v-76h-70v172z" />
    <glyph glyph-name="uni0E07" unicode="&#xe07;" horiz-adv-x="431" 
d="M201 424c66 6 115.834 -3.33203 149.501 -27.999s50.5 -71 50.5 -139c0 -20 -3 -41.167 -9 -63.5s-15 -44.666 -27 -66.999s-27.333 -44.333 -46 -66s-40.667 -41.834 -66 -60.501h-79l-171 423h74l144 -371c22 19.333 40 38.666 54 57.999s25 37.833 33 55.5
s13.667 34 17 49s5 28.167 5 39.5c0 19.333 -2 36.5 -6 51.5s-10.833 27.333 -20.5 37s-22.834 16.5 -39.501 20.5s-37.667 4.66699 -63 2v59v0z" />
    <glyph glyph-name="uni0E08" unicode="&#xe08;" horiz-adv-x="427" 
d="M203 426c36 0 66.165 -5.83691 90.498 -17.5039s44 -27.167 59 -46.5s25.833 -41.166 32.5 -65.499s10 -48.833 10 -73.5c0 -32.667 -4.83301 -62.667 -14.5 -90s-23.167 -50.833 -40.5 -70.5s-38.166 -35 -62.499 -46s-50.833 -16.5 -79.5 -16.5h-48l-63 174h-54v54h104
l60 -170c22.667 0.666992 42 5.83398 58 15.501s29 22.334 39 38.001s17.333 33.334 22 53.001s7 39.5 7 59.5c0 41.333 -10.167 75.166 -30.5 101.499s-50.166 39.5 -89.499 39.5c-23.333 0 -45.333 -5.66699 -66 -17s-34.667 -27.666 -42 -48.999h-70
c3.33301 20 10.5 37.833 21.5 53.5s24.5 29 40.5 40s34 19.333 54 25s40.667 8.5 62 8.5z" />
    <glyph glyph-name="uni0E09" unicode="&#xe09;" horiz-adv-x="458" 
d="M25 229l108.999 -0.000976562v-84c0 -34 8.5 -57.833 25.5 -71.5s39.833 -20.5 68.5 -20.5c18 0 34.333 3.16699 49 9.5s27.167 14.666 37.5 24.999s18.333 22.5 24 36.5s8.5 29 8.5 45v87c0 30.667 -9.5 56.5 -28.5 77.5s-50.833 31.5 -95.5 31.5
c-22.667 0 -44.667 -5.66699 -66 -17s-35.666 -27.666 -42.999 -48.999h-71c4 19.333 11.5 36.833 22.5 52.5s24.667 29 41 40s34.5 19.5 54.5 25.5s40.667 9 62 9c60 0 107.667 -14 143 -42s53 -71.333 53 -130v-254h-71v75h-1c-9.33301 -26 -26.833 -46.667 -52.5 -62
s-60.5 -21.333 -104.5 -18c-16.667 0.666992 -32.5 4.33398 -47.5 11.001s-28.333 15.667 -40 27s-21 24.833 -28 40.5s-10.5 33.5 -10.5 53.5v49h-39v53z" />
    <glyph glyph-name="uni0E0A" unicode="&#xe0a;" horiz-adv-x="416" 
d="M308 191c0 14.667 -0.667969 27.668 -2.00098 39.001s-4.66602 21.166 -9.99902 29.499s-13.166 15 -23.499 20s-24.166 8.16699 -41.499 9.5v48c16.667 0.666992 30.5 3.16699 41.5 7.5s19.667 10.333 26 18s10.666 16.834 12.999 27.501s3.83301 22.667 4.5 36h68
c0 -36 -6 -62.667 -18 -80s-31 -29.333 -57 -36c28 -9.33301 47 -24.333 57 -45s15 -51.334 15 -92.001v-26c0 -29.333 -3.83301 -53.666 -11.5 -72.999s-19 -35 -34 -47s-33.333 -20.5 -55 -25.5s-46.167 -7.5 -73.5 -7.5s-51.833 2.5 -73.5 7.5s-40 13.167 -55 24.5
s-26.333 26.666 -34 45.999s-11.5 43.666 -11.5 72.999v27c0 22.667 4.66699 42 14 58s19.5 30.333 30.5 43l30.5 35c9.33301 10.667 14 21.667 14 33c0 10 -2.66699 17 -8 21s-17.666 6 -36.999 6h-36v55h48c38 0 65.5 -5.16699 82.5 -15.5s25.5 -29.5 25.5 -57.5
c0 -15.333 -4.66699 -29.666 -14 -42.999s-19.833 -26.666 -31.5 -39.999s-22.167 -27.833 -31.5 -43.5s-14 -33.834 -14 -54.501c0 -18 1.16699 -34.167 3.5 -48.5s7.16602 -26.5 14.499 -36.5s17.5 -17.667 30.5 -23s30.5 -8 52.5 -8s39.5 2.83301 52.5 8.5
s23.167 13.5 30.5 23.5s12.166 22.333 14.499 37s3.5 31 3.5 49v20v0z" />
    <glyph glyph-name="uni0E0B" unicode="&#xe0b;" horiz-adv-x="430" 
d="M323 310c26.667 -9.33301 45.3359 -23.666 56.0029 -42.999s16 -48.666 16 -87.999v-32c0 -29.333 -3.83301 -53.666 -11.5 -72.999s-19 -35 -34 -47s-33.333 -20.5 -55 -25.5s-46.167 -7.5 -73.5 -7.5s-51.833 2.5 -73.5 7.5s-39.834 13.167 -54.501 24.5
s-25.834 26.666 -33.501 45.999s-11.5 43.666 -11.5 72.999v27c0 20.667 5 39.167 15 55.5s21.167 31.166 33.5 44.499l35 37c11 11.333 17.833 22.666 20.5 33.999c1.33301 7.33301 1.5 14 0.5 20s-4.5 9.66699 -10.5 11c-10.667 2 -17.834 -0.833008 -21.501 -8.5
s-7.16699 -17.167 -10.5 -28.5h-40l-62 86h56l30 -53c3.33301 37.333 23.333 56 60 56c19.333 0 35.333 -4.83301 48 -14.5s19 -26.167 19 -49.5c0 -19.333 -5.16699 -36.666 -15.5 -51.999s-21.833 -30.166 -34.5 -44.499s-24.167 -29.333 -34.5 -45
s-15.5 -33.834 -15.5 -54.501c0 -17.333 1.16699 -33 3.5 -47s7 -25.833 14 -35.5s17.167 -17.167 30.5 -22.5s30.666 -8 51.999 -8c22 0 39.5 2.83301 52.5 8.5s23.167 13.5 30.5 23.5s12.166 22.333 14.499 37s3.5 31 3.5 49v20c0 14.667 -0.666992 27.667 -2 39
s-4.66602 21.166 -9.99902 29.499s-13.166 15 -23.499 20s-24.166 8.16699 -41.499 9.5v48c16.667 0.666992 30.5 3.16699 41.5 7.5s19.667 10.333 26 18s10.666 16.834 12.999 27.501s3.83301 22.667 4.5 36h68c0 -36 -6 -62.667 -18 -80s-31 -29.333 -57 -36z" />
    <glyph glyph-name="uni0E0C" unicode="&#xe0c;" horiz-adv-x="695" 
d="M325 252c0 38 -8.33496 66.5039 -25.002 85.5039s-44.667 28.5 -84 28.5c-32.667 0 -58.667 -6.33301 -78 -19s-32 -34 -38 -64h90v-32c-23.333 -8.66699 -41.666 -23.334 -54.999 -44.001s-20 -45 -20 -73c0 -32 6.5 -53.167 19.5 -63.5s30.5 -15.833 52.5 -16.5
c6 -0.666992 12.167 -0.833984 18.5 -0.500977s13.166 1.16602 20.499 2.49902v-54c-20.667 -4.66699 -41.667 -7 -63 -7c-34 0.666992 -62.667 11.167 -86 31.5s-35 51.5 -35 93.5c0 32.667 7.83301 60 23.5 82s32.5 37 50.5 45h-83c0 58.667 15.167 103.167 45.5 133.5
s76.5 45.5 138.5 45.5c62.667 0 108.334 -14.167 137.001 -42.5s43 -69.833 43 -124.5v-80c0 -16 3 -31.667 9 -47s14 -28.833 24 -40.5s21.667 -21 35 -28s27 -10.5 41 -10.5c28 0 48 6.66699 60 20s18 37.666 18 72.999v277h72v-291c0 -46 -11.5 -80.5 -34.5 -103.5
s-53.833 -34.5 -92.5 -34.5c-36 0 -65.167 8.33301 -87.5 25s-37.166 35.667 -44.499 57h-2v-76h-70v252z" />
    <glyph glyph-name="uni0E0D" unicode="&#xe0d;" horiz-adv-x="695" 
d="M656 65c0 -55.333 -12.834 -98.3311 -38.501 -128.998s-68.5 -46 -128.5 -46c-42 0 -77.667 9.16699 -107 27.5s-47.333 45.833 -54 82.5h69c4.66699 -20 15.834 -34.5 33.501 -43.5s37.167 -13.5 58.5 -13.5c30 0 53.667 8.33301 71 25s26 42.667 26 78v66h-2
c-7.33301 -21.333 -20.833 -40.5 -40.5 -57.5s-47.5 -25.5 -83.5 -25.5c-38.667 0 -70.834 11.333 -96.501 34s-38.5 58 -38.5 106v83c0 38 -8.33301 66.5 -25 85.5s-44.667 28.5 -84 28.5c-32.667 0 -58.667 -6.33301 -78 -19s-32 -34 -38 -64h90v-32
c-23.333 -8.66699 -41.666 -23.334 -54.999 -44.001s-20 -45 -20 -73c0 -32 6.5 -53.167 19.5 -63.5s30.5 -15.833 52.5 -16.5c6 -0.666992 12.167 -0.833984 18.5 -0.500977s13.166 1.16602 20.499 2.49902v-53c-11.333 -3.33301 -22.166 -5.5 -32.499 -6.5
s-20.5 -1.5 -30.5 -1.5c-34 0.666992 -62.667 11.167 -86 31.5s-35 51.5 -35 93.5c0 32.667 7.83301 60 23.5 82s32.5 37 50.5 45h-83c0 58.667 15.167 103.167 45.5 133.5s76.5 45.5 138.5 45.5c62.667 0 108.5 -14.167 137.5 -42.5s43.5 -69.833 43.5 -124.5v-76
c0 -37.333 7.5 -62.333 22.5 -75s35.833 -19 62.5 -19c13.333 0 26 3 38 9s22.667 14.333 32 25s16.833 23.334 22.5 38.001s8.5 30.667 8.5 48v214h72v-358v0z" />
    <glyph glyph-name="uni0E0E" unicode="&#xe0e;" horiz-adv-x="459" 
d="M232 426c64 0 111.334 -14.1699 142.001 -42.5029s46 -69.833 46 -124.5v-402h-58c-28 19.333 -53.667 33.5 -77 42.5s-44.666 13.5 -63.999 13.5c-23.333 0 -42 -5.16699 -56 -15.5s-23.667 -23.833 -29 -40.5h-67c2.66699 20.667 8.66699 38.167 18 52.5
s20.5 25.666 33.5 33.999s27.5 14.333 43.5 18s32.667 5.16699 50 4.5c22.667 -1.33301 45.667 -5.83301 69 -13.5s44.666 -18.167 63.999 -31.5v331c0 38 -9.33301 66.5 -28 85.5s-48 28.5 -88 28.5c-33.333 0 -60.666 -6.33301 -81.999 -19s-35 -34 -41 -64h95v-31
c-18.667 -6.66699 -32.334 -18 -41.001 -34s-13 -34.667 -13 -56v-56c0 -14 -1.16699 -27.667 -3.5 -41s-6.83301 -25.166 -13.5 -35.499s-15.5 -18.5 -26.5 -24.5s-24.833 -9 -41.5 -9c-8 0 -16.167 0.333008 -24.5 1s-17.833 2 -28.5 4v53
c7.33301 -1.33301 13.333 -2.16602 18 -2.49902s9 -0.166016 13 0.500977c13.333 2 22.833 7.33301 28.5 16s8.5 21.334 8.5 38.001v55c0 18 4.33301 35 13 51s21 27.667 37 35h-89c1.33301 59.333 18.166 104 50.499 134s79.5 45 141.5 45z" />
    <glyph glyph-name="uni0E0F" unicode="&#xe0f;" horiz-adv-x="459" 
d="M232 426c64 0 111.332 -14.167 141.999 -42.5s46 -69.833 46 -124.5v-273c0 -18 -1.83301 -34.833 -5.5 -50.5s-9.83398 -29.334 -18.501 -41.001s-19.667 -20.834 -33 -27.501s-30 -10 -50 -10c-21.333 0 -42.166 5 -62.499 15s-34.5 24 -42.5 42l-137 -56h-15v53
l145 59h33c5.33301 -15.333 14.333 -28.333 27 -39s26.667 -15.334 42 -14.001c11.333 0.666992 21.5 5.16699 30.5 13.5s13.5 20.166 13.5 35.499v286c0 38 -9.33301 66.5 -28 85.5s-48 28.5 -88 28.5c-33.333 0 -60.666 -6.33301 -81.999 -19s-35 -34 -41 -64h95v-31
c-19.333 -7.33301 -33.166 -19.333 -41.499 -36s-12.5 -36.667 -12.5 -60v-35c0 -16 -0.833008 -31.667 -2.5 -47s-5.5 -28.666 -11.5 -39.999s-14.667 -20.5 -26 -27.5s-26.333 -10.5 -45 -10.5c-8 0 -16.167 0.333008 -24.5 1s-17.833 2 -28.5 4v53
c7.33301 -1.33301 13.333 -2.16602 18 -2.49902s9 -0.166016 13 0.500977c13.333 2 22.833 7.33301 28.5 16s8.5 21.334 8.5 38.001v55c0 18 4.33301 35 13 51s21 27.667 37 35h-89c1.33301 59.333 18.166 104 50.499 134s79.5 45 141.5 45z" />
    <glyph glyph-name="uni0E10" unicode="&#xe10;" horiz-adv-x="432" 
d="M320 -42c0 10 -2.33398 18.3291 -7.00098 24.9961s-10.5 11.667 -17.5 15s-14.667 5.33301 -23 6s-16.166 0.666992 -23.499 0c-10.667 -1.33301 -20.167 -2.33301 -28.5 -3s-14.5 -1 -18.5 -1h-49l-64 174h-53v54h104l59 -170c22.667 0.666992 42 6 58 16s29 23 39 39
s17.167 33.833 21.5 53.5s6.5 39.834 6.5 60.501c0 18.667 -2.33301 36.334 -7 53.001s-12 31.334 -22 44.001s-22.667 22.834 -38 30.501s-33.333 11.5 -54 11.5c-10.667 0 -21.5 -1.5 -32.5 -4.5s-21.5 -7.33301 -31.5 -13s-18.667 -12.667 -26 -21s-13 -17.833 -17 -28.5
h-71c7.33301 39.333 27.5 69.5 60.5 90.5s72.5 33.167 118.5 36.5l214 20v-54l-121 -9v-1c34 -11.333 59 -30.666 75 -57.999s24 -59.666 24 -96.999c0 -45.333 -8.33301 -85 -25 -119s-40.334 -60 -71.001 -78c26 -1.33301 47.333 -8.5 64 -21.5s25 -32.833 25 -59.5
c0 -30 -9 -53.833 -27 -71.5s-43.333 -26.5 -76 -26.5c-10.667 0 -21.5 1.16699 -32.5 3.5s-21.333 6 -31 11s-18.167 10.833 -25.5 17.5s-13 14.667 -17 24l-130 -56h-14v54l138 59h32c5.33301 -16.667 13.833 -29.834 25.5 -39.501s23.834 -14.5 36.501 -14.5
s24.5 3.16699 35.5 9.5s16.5 19.166 16.5 38.499z" />
    <glyph glyph-name="uni0E11" unicode="&#xe11;" horiz-adv-x="457" 
d="M333 426c17.333 0 31.499 -2.83105 42.499 -8.49805s19.667 -13.834 26 -24.501s10.666 -23.5 12.999 -38.5s3.5 -31.5 3.5 -49.5v-305h-72v306c0 23.333 -3.5 38.5 -10.5 45.5s-19.167 10.5 -36.5 10.5c-9.33301 0 -18.833 -2.5 -28.5 -7.5s-19.667 -11.667 -30 -20
s-20.833 -17.833 -31.5 -28.5s-21 -21.667 -31 -33c-12 -13.333 -23.833 -29.333 -35.5 -48s-17.5 -40 -17.5 -64v-161h-71v172c0 20.667 4.66699 39.167 14 55.5s19.833 31.166 31.5 44.499l33.5 37.5c10.667 11.667 17 23.167 19 34.5c1.33301 6.66699 1.33301 13 0 19
s-4.66602 9.66699 -9.99902 11c-10.667 2 -18 -1.16699 -22 -9.5s-6.66699 -17.5 -8 -27.5h-42l-62 86h56l30 -53c3.33301 37.333 23.333 56 60 56c28 0 45 -10.333 51 -31c2.66699 -10 2.66699 -21.667 0 -35c19.333 20 38.833 36 58.5 48s42.834 18 69.501 18z" />
    <glyph glyph-name="uni0E12" unicode="&#xe12;" horiz-adv-x="715" 
d="M345 310c0 5.33301 -0.169922 11.3291 -0.50293 17.9961s-1.83301 12.834 -4.5 18.501s-7 10.334 -13 14.001s-14.333 5.5 -25 5.5c-14 0 -24 -5.33301 -30 -16s-10.333 -23.334 -13 -38.001h-50c-3.33301 15.333 -7.83301 28.166 -13.5 38.499
s-15.834 15.5 -30.501 15.5c-14 0 -25.167 -4.5 -33.5 -13.5s-14.5 -20.667 -18.5 -35s-6.5 -30.666 -7.5 -48.999s-1.5 -36.5 -1.5 -54.5c0 -20 1.5 -39.167 4.5 -57.5s8.33301 -34.666 16 -48.999s18.334 -26.166 32.001 -35.499s31.167 -15 52.5 -17
c6.66699 -1.33301 13.834 -1.66602 21.501 -0.999023s14.834 1.66699 21.501 3v-56c-6.66699 -1.33301 -13.834 -2.33301 -21.501 -3s-15.167 -1 -22.5 -1c-55.333 -0.666992 -98.666 16.333 -129.999 51s-47 88.334 -47 161.001c0 33.333 1.83301 63.5 5.5 90.5
s10 49.833 19 68.5s21.5 33 37.5 43s36.667 15 62 15c42.667 0 69 -21 79 -63c9.33301 42 35.333 63 78 63c22.667 0 40.834 -2.83301 54.501 -8.5s24.167 -14.167 31.5 -25.5s12.333 -25.5 15 -42.5s4 -36.833 4 -59.5v-117c0 -16 3.16699 -31.167 9.5 -45.5
s14.666 -27 24.999 -38s22 -19.833 35 -26.5s26.167 -10 39.5 -10c28 0 48 6.66699 60 20s18 37.666 18 72.999v277h72v-291c0 -46 -11.5 -80.5 -34.5 -103.5s-53.833 -34.5 -92.5 -34.5c-36 0 -65.167 8.33301 -87.5 25s-37.166 35.667 -44.499 57h-2v-76h-70v310z" />
    <glyph glyph-name="uni0E13" unicode="&#xe13;" horiz-adv-x="695" 
d="M586 0l0.00292969 76.0039h-2c-7.33301 -21.333 -20.666 -40.333 -39.999 -57s-47.333 -25 -84 -25c-38 0 -70 11 -96 33s-39 55.667 -39 101v124c0 38 -8.33301 66.5 -25 85.5s-44.667 28.5 -84 28.5c-32.667 0 -58.667 -6.33301 -78 -19s-32 -34 -38 -64h90v-32
c-23.333 -8.66699 -41.666 -23.334 -54.999 -44.001s-20 -45 -20 -73c0 -32 6.5 -53.167 19.5 -63.5s30.5 -15.833 52.5 -16.5c6 -0.666992 12.167 -0.833984 18.5 -0.500977s13.166 1.16602 20.499 2.49902v-53c-11.333 -3.33301 -22.166 -5.5 -32.499 -6.5
s-20.5 -1.5 -30.5 -1.5c-34 0.666992 -62.667 11.167 -86 31.5s-35 51.5 -35 93.5c0 32.667 7.83301 60 23.5 82s32.5 37 50.5 45h-83c0 58.667 15.167 103.167 45.5 133.5s76.5 45.5 138.5 45.5c62.667 0 108.5 -14.167 137.5 -42.5s43.5 -69.833 43.5 -124.5v-117
c0 -17.333 2 -31.833 6 -43.5s9.66699 -20.834 17 -27.501s16.166 -11.334 26.499 -14.001s22.166 -4 35.499 -4s26.166 3 38.499 9s23.166 14.333 32.499 25s16.666 23.334 21.999 38.001s8 30.667 8 48v250h72v-423h-70z" />
    <glyph glyph-name="uni0E14" unicode="&#xe14;" horiz-adv-x="459" 
d="M231 426c24 0 47.3311 -2.83008 69.998 -8.49707s42.834 -15 60.501 -28s31.834 -29.667 42.501 -50s16 -45.5 16 -75.5v-264h-72v263c0 18.667 -3.5 34.5 -10.5 47.5s-16 23.5 -27 31.5s-23.5 13.833 -37.5 17.5s-28 5.5 -42 5.5c-22.667 0 -42 -4.33301 -58 -13
s-29 -20.167 -39 -34.5s-17.333 -30.833 -22 -49.5s-7 -38.334 -7 -59.001c0 -20 1.66699 -39.167 5 -57.5s9.16602 -34.833 17.499 -49.5s20 -26.334 35 -35.001s34.167 -13 57.5 -13c5.33301 0 11.5 0.166992 18.5 0.5s12.833 1.16602 17.5 2.49902v-56
c-6.66699 -1.33301 -14.167 -2.33301 -22.5 -3s-16.166 -1 -23.499 -1c-55.333 0 -99 17.333 -131 52s-48 88 -48 160c0 70.667 18.167 124.5 54.5 161.5s84.833 55.5 145.5 55.5z" />
    <glyph glyph-name="uni0E15" unicode="&#xe15;" horiz-adv-x="459" 
d="M313 426c21.333 0 38.8291 -2.67383 52.4961 -8.00684s24.5 -13.166 32.5 -23.499s13.667 -23.166 17 -38.499s5 -33.333 5 -54v-302h-73v310c0 5.33301 -0.166992 11.333 -0.5 18s-1.83301 12.834 -4.5 18.501s-7 10.334 -13 14.001s-14.667 5.5 -26 5.5
c-14 0 -24 -5.33301 -30 -16s-10.333 -23.334 -13 -38.001h-50c-2.66699 15.333 -7 28.166 -13 38.499s-16.333 15.5 -31 15.5c-14 0 -25.167 -4.5 -33.5 -13.5s-14.666 -20.667 -18.999 -35s-7 -30.666 -8 -48.999s-1.5 -36.5 -1.5 -54.5c0 -20 1.5 -39.167 4.5 -57.5
s8.33301 -34.666 16 -48.999s18.334 -26.166 32.001 -35.499s31.167 -15 52.5 -17c6.66699 -1.33301 13.834 -1.66602 21.501 -0.999023s14.834 1.66699 21.501 3v-56c-6.66699 -1.33301 -13.834 -2.33301 -21.501 -3s-15.167 -1 -22.5 -1
c-55.333 -0.666992 -98.666 16.333 -129.999 51s-47 88.334 -47 161.001c0 33.333 1.83301 63.5 5.5 90.5s10.167 49.833 19.5 68.5s22 33 38 43s36.667 15 62 15c42.667 0 69 -21 79 -63c9.33301 42 35.333 63 78 63z" />
    <glyph glyph-name="uni0E16" unicode="&#xe16;" horiz-adv-x="452" 
d="M225 426c64 0 111.332 -14.1641 141.999 -42.4971s46 -69.833 46 -124.5v-259h-73v252c0 38 -9.33301 66.5 -28 85.5s-48 28.5 -88 28.5c-33.333 0 -60.833 -6.33301 -82.5 -19s-35.5 -34 -41.5 -64h90v-32c-23.333 -8.66699 -41.666 -23.334 -54.999 -44.001
s-20 -45 -20 -73c0 -32 6.66699 -53.167 20 -63.5s30.666 -15.833 51.999 -16.5c6 -0.666992 12.167 -0.833984 18.5 -0.500977s13.166 1.16602 20.499 2.49902v-53c-11.333 -3.33301 -22.166 -5.5 -32.499 -6.5s-20.5 -1.5 -30.5 -1.5c-34 1.33301 -62.667 12 -86 32
s-35 51 -35 93c0 32.667 7.83301 60 23.5 82s32.5 37 50.5 45h-83c0 58.667 16.333 103.167 49 133.5s80.334 45.5 143.001 45.5z" />
    <glyph glyph-name="uni0E17" unicode="&#xe17;" horiz-adv-x="452" 
d="M266 427c20 0 38.833 -2.99805 56.5 -8.99805s33.167 -14.833 46.5 -26.5s24 -26.167 32 -43.5s12 -37.333 12 -60v-288h-72v269c0 35.333 -10.333 60.666 -31 75.999s-45.334 23 -74.001 23c-38 0 -68.333 -10.833 -91 -32.5s-34 -50.834 -34 -87.501v-248h-72v423h69
v-78h2c8.66699 25.333 26.834 45.333 54.501 60s61.5 22 101.5 22z" />
    <glyph glyph-name="uni0E18" unicode="&#xe18;" horiz-adv-x="413" 
d="M108 294c48.667 -8.66699 90.3301 -18.499 124.997 -29.499s62.834 -23.5 84.501 -37.5s37.5 -29.667 47.5 -47s15 -37 15 -59c0 -21.333 -4.33301 -39.833 -13 -55.5s-20.834 -28.667 -36.501 -39s-34.167 -18 -55.5 -23s-44.666 -7.5 -69.999 -7.5
c-23.333 0 -45.333 2.66699 -66 8s-38.834 13.166 -54.501 23.499s-28 23.166 -37 38.499s-13.833 32.666 -14.5 51.999c0 14.667 1.66699 27.667 5 39s7 21 11 29h64c-4 -9.33301 -7.33301 -19.5 -10 -30.5s-3.66699 -23.167 -3 -36.5
c1.33301 -23.333 12.666 -40 33.999 -50s45.333 -15 72 -15c13.333 0 26.333 1.16699 39 3.5s23.834 6.33301 33.501 12s17.5 12.834 23.5 21.501s9 19.667 9 33c0 14 -4.16699 26.833 -12.5 38.5s-22.833 22.667 -43.5 33s-48.5 20.333 -83.5 30
s-79.5 19.834 -133.5 30.501v21c0 26 4.83301 48.333 14.5 67s22.5 34.167 38.5 46.5s34.167 21.333 54.5 27s41.166 8.5 62.499 8.5s42 -3 62 -9s37.833 -14.5 53.5 -25.5s28.334 -24 38.001 -39s15.167 -31.167 16.5 -48.5h-69c-3.33301 18 -14.666 33 -33.999 45
s-41.666 18 -66.999 18s-47.666 -6 -66.999 -18s-30.333 -30.333 -33 -55z" />
    <glyph glyph-name="uni0E19" unicode="&#xe19;" horiz-adv-x="446" 
d="M407 0l-70 0.00195312v76h-1c-12.667 -27.333 -31 -47.833 -55 -61.5s-56.667 -20.5 -98 -20.5c-19.333 0 -37.833 3 -55.5 9s-33 15 -46 27s-23.333 26.667 -31 44s-11.5 37.666 -11.5 60.999v288h72v-270c0 -35.333 10 -60.833 30 -76.5s44 -23.5 72 -23.5
c18 0 34.5 3.16699 49.5 9.5s27.833 14.666 38.5 24.999s19 22.5 25 36.5s9 29 9 45v254h72v-423z" />
    <glyph glyph-name="uni0E1A" unicode="&#xe1a;" horiz-adv-x="451" 
d="M412 423v-259c0 -62 -16.167 -105.833 -48.5 -131.5s-78.166 -38.5 -137.499 -38.5c-60 0 -106.167 12.833 -138.5 38.5s-48.5 69.5 -48.5 131.5v259h73v-250c0 -36.667 8.16699 -65.834 24.5 -87.501s46.166 -32.5 89.499 -32.5c42.667 0 72.167 10.833 88.5 32.5
s24.5 50.834 24.5 87.501v250h73z" />
    <glyph glyph-name="uni0E1B" unicode="&#xe1b;" horiz-adv-x="451" 
d="M412 519v-355c0 -62 -16.167 -105.833 -48.5 -131.5s-78.166 -38.5 -137.499 -38.5c-60 0 -106.167 12.833 -138.5 38.5s-48.5 69.5 -48.5 131.5v259h73v-250c0 -36.667 8.16699 -65.834 24.5 -87.501s46.166 -32.5 89.499 -32.5c42.667 0 72.167 10.833 88.5 32.5
s24.5 50.834 24.5 87.501v346h73z" />
    <glyph glyph-name="uni0E1C" unicode="&#xe1c;" horiz-adv-x="460" 
d="M419 422v-422h-65l-124 155l-123 -155h-66v303c0.666992 42 12 72.833 34 92.5s51.667 29.5 89 29.5c6 0 12.167 -0.333008 18.5 -1s12.833 -1.66699 19.5 -3v-51c-5.33301 1.33301 -10 2 -14 2h-11c-25.333 0 -42.333 -7.33301 -51 -22s-13 -32.667 -13 -54v-207
l103 132h28l103 -132v333h72z" />
    <glyph glyph-name="uni0E1D" unicode="&#xe1d;" horiz-adv-x="460" 
d="M419 519v-519h-65l-124 155l-123 -155h-66v303c0.666992 42 12 72.833 34 92.5s51.667 29.5 89 29.5c6 0 12.167 -0.333008 18.5 -1s12.833 -1.66699 19.5 -3v-51c-5.33301 1.33301 -10 2 -14 2h-11c-25.333 0 -42.333 -7.33301 -51 -22s-13 -32.667 -13 -54v-207
l103 132h28l103 -132v430h72z" />
    <glyph glyph-name="uni0E1E" unicode="&#xe1e;" horiz-adv-x="559" 
d="M546 423l-97 -423h-64l-105 328l-107 -328h-64l-96 423h74l63 -318l101 308h57l101 -308l63 318h74z" />
    <glyph glyph-name="uni0E1F" unicode="&#xe1f;" horiz-adv-x="558" 
d="M567 519l-118 -519h-64l-105 328l-107 -328h-64l-96 423h74l63 -318l101 308h57l101 -308l86 414h72z" />
    <glyph glyph-name="uni0E20" unicode="&#xe20;" horiz-adv-x="459" 
d="M232 426c64 0 111.333 -14.1699 142 -42.5029s46 -69.833 46 -124.5v-259h-72v252c0 38 -9.5 66.5 -28.5 85.5s-48.5 28.5 -88.5 28.5c-33.333 0 -60.833 -6.33301 -82.5 -19s-35.167 -34 -40.5 -64h95v-31c-18.667 -6.66699 -32.334 -18 -41.001 -34
s-13 -34.667 -13 -56v-56c0 -14.667 -1.16699 -28.5 -3.5 -41.5s-6.83301 -24.5 -13.5 -34.5s-15.5 -18.167 -26.5 -24.5s-24.833 -9.5 -41.5 -9.5c-8 0 -16.167 0.333008 -24.5 1s-17.833 2 -28.5 4v53c7.33301 -1.33301 13.333 -2.16602 18 -2.49902
s9 -0.166016 13 0.500977c13.333 2 22.833 7.33301 28.5 16s8.5 21.334 8.5 38.001v55c0 18 4.33301 35 13 51s21 27.667 37 35h-89c0 58.667 16.333 103.167 49 133.5s80.334 45.5 143.001 45.5z" />
    <glyph glyph-name="uni0E21" unicode="&#xe21;" horiz-adv-x="446" 
d="M39 0l0.000976562 423h72v-254c0 -16 3.5 -31 10.5 -45s16.333 -26.167 28 -36.5s25.5 -18.666 41.5 -24.999s33 -9.5 51 -9.5c28 0 50.5 7.33301 67.5 22s25.5 40 25.5 76v272h72v-287c0 -22.667 -3.5 -42.834 -10.5 -60.501s-16.5 -32.5 -28.5 -44.5
s-26.333 -21.167 -43 -27.5s-34.334 -9.5 -53.001 -9.5c-40.667 0 -75.167 6.83301 -103.5 20.5s-47.5 34.167 -57.5 61.5h-2v-76h-70z" />
    <glyph glyph-name="uni0E22" unicode="&#xe22;" horiz-adv-x="442" 
d="M403 423l0.00683594 -253.999c0 -62 -15.167 -106.667 -45.5 -134s-75.5 -41 -135.5 -41c-60.667 0 -106.834 11 -138.501 33s-47.5 55 -47.5 99c0 30 7.66699 53.167 23 69.5s35.666 28.166 60.999 35.499c-24 6 -43.333 16.333 -58 31s-22.334 34.667 -23.001 60
c-0.666992 22.667 3.16602 41.667 11.499 57s20.166 26.833 35.499 34.5s33.5 12 54.5 13s44.167 -0.833008 69.5 -5.5v-55c-60.667 10 -93 -3.66699 -97 -41c-2 -12 -0.166992 -22.5 5.5 -31.5s13.167 -16.167 22.5 -21.5s20.166 -9.33301 32.499 -12s24.166 -4 35.499 -4
h27v-53h-24c-10.667 0 -22 -1.16699 -34 -3.5s-23.167 -6 -33.5 -11s-18.833 -12 -25.5 -21s-10 -19.833 -10 -32.5c0 -24 8 -43.667 24 -59s45.667 -23 89 -23c22.667 0 41.167 3 55.5 9s25.5 14.833 33.5 26.5s13.333 25.667 16 42s4 34.833 4 55.5v237h72z" />
    <glyph glyph-name="uni0E23" unicode="&#xe23;" horiz-adv-x="393" 
d="M251 227c34 -10.667 61.001 -24.1689 81.001 -40.502s30 -39.5 30 -69.5c0 -22 -4.83301 -40.667 -14.5 -56s-22.334 -28 -38.001 -38s-33.5 -17.167 -53.5 -21.5s-40.333 -6.5 -61 -6.5s-40.5 2.66699 -59.5 8s-36 13 -51 23s-27.333 22.5 -37 37.5
s-15.167 32.5 -16.5 52.5h67c4.66699 -19.333 16 -34.666 34 -45.999s39.333 -17 64 -17c26 0 48.333 5.33301 67 16s28 27 28 49c0 8.66699 -2.33301 16.167 -7 22.5s-12 12.166 -22 17.499s-23 10.5 -39 15.5s-35.333 10.167 -58 15.5
c-19.333 4.66699 -36.833 10 -52.5 16s-29 13.5 -40 22.5s-19.5 19.833 -25.5 32.5s-9 27.667 -9 45c0 18.667 4.5 35.5 13.5 50.5s21 27.833 36 38.5s32.167 18.667 51.5 24s39 8 59 8s39.333 -2.5 58 -7.5s35.5 -12.667 50.5 -23s27.167 -23.166 36.5 -38.499
s14.333 -33 15 -53h-66c-2.66699 20 -13 35.5 -31 46.5s-39 16.5 -63 16.5c-23.333 0 -44 -5.5 -62 -16.5s-27 -26.167 -27 -45.5c0 -10.667 3.66699 -19.667 11 -27s17.5 -13.666 30.5 -18.999s28 -10.5 45 -15.5z" />
    <glyph glyph-name="uni0E24" unicode="&#xe24;" horiz-adv-x="452" 
d="M225 426c64 0 111.332 -14.1641 141.999 -42.4971s46 -69.833 46 -124.5v-402h-73v395c0 38 -9.33301 66.5 -28 85.5s-48 28.5 -88 28.5c-33.333 0 -60.833 -6.33301 -82.5 -19s-35.5 -34 -41.5 -64h90v-32c-23.333 -8.66699 -41.666 -23.334 -54.999 -44.001
s-20 -45 -20 -73c0 -32 6.66699 -53.167 20 -63.5s30.666 -15.833 51.999 -16.5c6 -0.666992 12.167 -0.833984 18.5 -0.500977s13.166 1.16602 20.499 2.49902v-53c-11.333 -3.33301 -22.166 -5.5 -32.499 -6.5s-20.5 -1.5 -30.5 -1.5c-34 1.33301 -62.667 12 -86 32
s-35 51 -35 93c0 32.667 7.83301 60 23.5 82s32.5 37 50.5 45h-83c0 58.667 16.333 103.167 49 133.5s80.334 45.5 143.001 45.5z" />
    <glyph glyph-name="uni0E25" unicode="&#xe25;" horiz-adv-x="436" 
d="M397 0l-72.9971 0.00195312v192c-39.333 -1.33301 -72.833 -3.5 -100.5 -6.5s-50.167 -7.33301 -67.5 -13s-29.833 -13.334 -37.5 -23.001s-11.5 -22.167 -11.5 -37.5c0 -16.667 5.16699 -30.167 15.5 -40.5s25.166 -15.5 44.499 -15.5c14 -0.666992 31.333 1 52 5v-55
c-27.333 -7.33301 -53.666 -10.333 -78.999 -9c-30 1.33301 -55.5 11.166 -76.5 29.499s-31.5 45.833 -31.5 82.5c0 30.667 7.83301 55 23.5 73s36.667 31.667 63 41s57.166 15.666 92.499 18.999s73 6 113 8c-0.666992 16 -2.5 31 -5.5 45s-8.5 26.167 -16.5 36.5
s-19.333 18.5 -34 24.5s-33.334 9 -56.001 9c-23.333 0 -44 -5.66699 -62 -17s-30.667 -27.666 -38 -48.999h-71c4 19.333 11 36.833 21 52.5s22.5 29 37.5 40s32.167 19.5 51.5 25.5s39.666 9 60.999 9c59.333 0 105 -13.5 137 -40.5s48 -70.833 48 -131.5v-254z" />
    <glyph glyph-name="uni0E26" unicode="&#xe26;" horiz-adv-x="459" 
d="M232 426c64 0 111.333 -14.1699 142 -42.5029s46 -69.833 46 -124.5v-402h-72v395c0 38 -9.5 66.5 -28.5 85.5s-48.5 28.5 -88.5 28.5c-33.333 0 -60.833 -6.33301 -82.5 -19s-35.167 -34 -40.5 -64h95v-31c-18.667 -6.66699 -32.334 -18 -41.001 -34
s-13 -34.667 -13 -56v-56c0 -14.667 -1.16699 -28.5 -3.5 -41.5s-6.83301 -24.5 -13.5 -34.5s-15.5 -18.167 -26.5 -24.5s-24.833 -9.5 -41.5 -9.5c-8 0 -16.167 0.333008 -24.5 1s-17.833 2 -28.5 4v53c7.33301 -1.33301 13.333 -2.16602 18 -2.49902
s9 -0.166016 13 0.500977c13.333 2 22.833 7.33301 28.5 16s8.5 21.334 8.5 38.001v55c0 18 4.33301 35 13 51s21 27.667 37 35h-89c0 58.667 16.333 103.167 49 133.5s80.334 45.5 143.001 45.5z" />
    <glyph glyph-name="uni0E27" unicode="&#xe27;" horiz-adv-x="416" 
d="M198 426c58.667 0 104.334 -18.334 137.001 -55.001s49 -89.667 49 -159s-15.833 -122.5 -47.5 -159.5s-77.834 -55.5 -138.501 -55.5c-21.333 0 -41.5 2.83301 -60.5 8.5s-36 14 -51 25s-27.5 24.333 -37.5 40s-17 33.167 -21 52.5h71
c7.33301 -21.333 19.833 -37.833 37.5 -49.5s38.167 -17.5 61.5 -17.5c21.333 0 39.333 4.33301 54 13s26.5 20.334 35.5 35.001s15.5 31.334 19.5 50.001s6 38 6 58c0 19.333 -2 38.166 -6 56.499s-10.5 34.666 -19.5 48.999s-20.833 25.833 -35.5 34.5s-32.667 13 -54 13
c-23.333 0 -43.833 -5.66699 -61.5 -17s-30.167 -27.666 -37.5 -48.999h-71c4 19.333 11 36.833 21 52.5s22.5 29 37.5 40s32 19.5 51 25.5s39.167 9 60.5 9z" />
    <glyph glyph-name="uni0E28" unicode="&#xe28;" horiz-adv-x="459" 
d="M41 254c0 32 4.16895 58.498 12.502 79.498s20.5 38 36.5 51s35.833 22.667 59.5 29s50.5 10.5 80.5 12.5c14.667 0.666992 31.667 1.83398 51 3.50098s39 3.5 59 5.5l57.5 6l47.5 5v-54l-118 -8v-1c34.667 -9.33301 58.167 -25.666 70.5 -48.999s18.5 -58 18.5 -104
v-230h-72v254c0 16.667 -1.83301 31.834 -5.5 45.501s-10 25.334 -19 35.001s-20.667 17.167 -35 22.5s-32.5 8 -54.5 8c-43.333 0 -73.5 -10.833 -90.5 -32.5s-25.5 -50.834 -25.5 -87.501v-86c10 21.333 25.167 37.166 45.5 47.499s41.5 15.5 63.5 15.5h35v-61h-39
c-14.667 0 -28.334 -2.16699 -41.001 -6.5s-23.834 -10.333 -33.501 -18s-17.167 -16.5 -22.5 -26.5s-8 -21 -8 -33v-77h-73v254v0z" />
    <glyph glyph-name="uni0E29" unicode="&#xe29;" horiz-adv-x="459" 
d="M256 281c0.666992 -13.333 4.16797 -22.333 10.501 -27s21.166 -7 44.499 -7h27v176h73v-176h38v-53h-38v-30c0 -62 -16.167 -105.833 -48.5 -131.5s-78.166 -38.5 -137.499 -38.5c-60 0 -106.167 12.833 -138.5 38.5s-48.5 69.5 -48.5 131.5v259h73v-250
c0 -36.667 8.16699 -65.834 24.5 -87.501s46.166 -32.5 89.499 -32.5c42.667 0 72.167 10.833 88.5 32.5s24.5 50.834 24.5 87.501v21h-37c-25.333 0 -45.333 2.16699 -60 6.5s-25.667 10.5 -33 18.5s-12 17.333 -14 28s-2.66699 22 -2 34h64z" />
    <glyph glyph-name="uni0E2A" unicode="&#xe2a;" horiz-adv-x="439" 
d="M425 446v-54l-118 -8v-1c34.667 -9.33301 58.334 -25.666 71.001 -48.999s19 -58 19 -104v-230h-73v192c-39.333 -1.33301 -72.833 -3.5 -100.5 -6.5s-50.167 -7.33301 -67.5 -13s-29.833 -13.334 -37.5 -23.001s-11.5 -22.167 -11.5 -37.5c0 -17.333 5.33301 -31 16 -41
s25.334 -15 44.001 -15c14 -0.666992 31.333 1 52 5v-55c-27.333 -7.33301 -53.666 -10.333 -78.999 -9c-30 1.33301 -55.5 11.166 -76.5 29.499s-31.5 45.833 -31.5 82.5c0 30.667 7.83301 55 23.5 73s36.667 31.667 63 41s57.333 15.666 93 18.999s73.5 6 113.5 8
c0 16 -1.66699 30.833 -5 44.5s-9 25.834 -17 36.501s-19.333 19 -34 25s-33.334 9 -56.001 9s-43.334 -5.66699 -62.001 -17s-31.667 -27.666 -39 -48.999h-71c9.33301 42 28.666 72.5 57.999 91.5s67.333 30.833 114 35.5z" />
    <glyph glyph-name="uni0E2B" unicode="&#xe2b;" horiz-adv-x="432" 
d="M295 249c32 -2.66699 56.5 -13.833 73.5 -33.5s25.5 -46.5 25.5 -80.5v-135h-72v136c0 14 -2.33301 25.5 -7 34.5s-11 16 -19 21s-17 8.5 -27 10.5s-20 3 -30 3h-126v-205h-72v423h72v-162h114l82 162h79l-93 -172v-2v0z" />
    <glyph glyph-name="uni0E2C" unicode="&#xe2c;" horiz-adv-x="558" 
d="M567 519c-6.66699 -33.333 -17.6689 -57.6689 -33.002 -73.002s-34.333 -25.666 -57 -30.999c19.333 -7.33301 32.833 -19.666 40.5 -36.999s7.83398 -42.333 0.500977 -75l-68 -303h-65l-105 328l-107 -328h-64l-96 423h74l63 -318l100 308h58l101 -308l43 202
c2.66699 14.667 4.33398 28 5.00098 40s-0.833008 22 -4.5 30s-10 14.167 -19 18.5s-21.833 6.5 -38.5 6.5v37c34 0 58.833 5.83301 74.5 17.5s26.167 32.5 31.5 62.5h66v0z" />
    <glyph glyph-name="uni0E2D" unicode="&#xe2d;" horiz-adv-x="437" 
d="M214 426c28 0 53.833 -4.83203 77.5 -14.499s44 -23.667 61 -42s30.333 -40.833 40 -67.5s14.5 -57.334 14.5 -92.001c0 -68.667 -17 -121.834 -51 -159.501s-80.667 -56.5 -140 -56.5c-34 0 -63.833 6.33301 -89.5 19s-46 29.667 -61 51s-24.833 46.333 -29.5 75
s-3 58.667 5 90h144v-53h-80c-2 -15.333 -0.833008 -30.333 3.5 -45s11.333 -27.834 21 -39.501s21.834 -21 36.501 -28s31.334 -10.5 50.001 -10.5c22.667 0 41.667 4.5 57 13.5s27.666 20.833 36.999 35.5s16 31.5 20 50.5s6 38.5 6 58.5c0 22 -2.66699 42.333 -8 61
s-13 34.834 -23 48.501s-22.667 24.5 -38 32.5s-33 12 -53 12c-23.333 0 -44.833 -5.66699 -64.5 -17s-33.5 -27.666 -41.5 -48.999h-69c3.33301 20 10.5 37.833 21.5 53.5s24.333 29 40 40s33.167 19.333 52.5 25s39.666 8.5 60.999 8.5z" />
    <glyph glyph-name="uni0E2E" unicode="&#xe2e;" horiz-adv-x="437" 
d="M423 446l-0.000976562 -54.001l-118 -8v-1c32 -10.667 57 -30.5 75 -59.5s27 -66.833 27 -113.5c0 -68 -17 -121 -51 -159s-80.333 -57 -139 -57c-34.667 0 -64.667 6.33301 -90 19s-45.666 29.667 -60.999 51s-25.333 46.333 -30 75s-3 58.667 5 90h144v-53h-79
c-2 -15.333 -1 -30.333 3 -45s10.833 -27.834 20.5 -39.501s21.834 -21 36.501 -28s31.334 -10.5 50.001 -10.5c22.667 0 41.667 4.5 57 13.5s27.666 20.833 36.999 35.5s16 31.5 20 50.5s6 38.5 6 58.5c0 20.667 -2.33301 40.334 -7 59.001s-11.834 35 -21.501 49
s-22.167 25.167 -37.5 33.5s-34 12.5 -56 12.5c-24.667 0 -46.5 -5.66699 -65.5 -17s-32.167 -27.666 -39.5 -48.999h-71c8 40 27.167 69.833 57.5 89.5s68.5 32.167 114.5 37.5z" />
    <glyph glyph-name="uni0E2F" unicode="&#xe2f;" horiz-adv-x="437" 
d="M312 0l-0.000976562 250.001h-2c-9.33301 -25.333 -25.333 -45.166 -48 -59.499s-53.667 -21.5 -93 -21.5c-16.667 0 -33 3 -49 9s-30.5 14.667 -43.5 26s-23.5 25.666 -31.5 42.999s-12 37 -12 59c0 21.333 3.16699 39.5 9.5 54.5s15.166 27.333 26.499 37
s24.333 16.667 39 21s30.667 6.5 48 6.5c14.667 0 31.667 -2 51 -6v-46c-5.33301 0.666992 -10.166 1.16699 -14.499 1.5s-8.83301 0.5 -13.5 0.5c-19.333 0 -35.666 -5.33301 -48.999 -16s-20 -27.334 -20 -50.001c0 -27.333 7.83301 -47.833 23.5 -61.5
s35.167 -20.5 58.5 -20.5c16.667 0 32.167 3.16699 46.5 9.5s26.833 15 37.5 26s19 23.833 25 38.5s9 30 9 46v75h72v-422h-70z" />
    <glyph glyph-name="uni0E30" unicode="&#xe30;" horiz-adv-x="283" 
d="M242 101l-0.000976562 -56h-91c-28 0 -50.167 2.83301 -66.5 8.5s-28.5 13.167 -36.5 22.5s-12.667 20.5 -14 33.5s-1.33301 26.833 0 41.5h60c-1.33301 -19.333 1.33398 -32.5 8.00098 -39.5s23 -10.5 49 -10.5h91zM241.999 312l-0.000976562 -56.0029h-91
c-28 0 -50.167 2.83301 -66.5 8.5s-28.5 13.334 -36.5 23.001s-12.667 20.834 -14 33.501s-1.33301 26.334 0 41.001h60c-1.33301 -19.333 1.33398 -32.5 8.00098 -39.5s23 -10.5 49 -10.5h91z" />
    <glyph glyph-name="uni0E31" unicode="&#xe31;" 
d="M5 537l-0.000976562 -53.002l-179 -1c-28.667 0 -51.167 2.66699 -67.5 8s-28.5 12.5 -36.5 21.5s-12.667 19.667 -14 32s-1.33301 25.5 0 39.5h63c-1.33301 -19.333 1.33398 -32.166 8.00098 -38.499s23 -9.16602 49 -8.49902h177z" />
    <glyph glyph-name="uni0E32" unicode="&#xe32;" horiz-adv-x="347" 
d="M233 0l-0.00292969 290c0 14 -2.5 25.667 -7.5 35s-11.5 17 -19.5 23s-17.167 10.333 -27.5 13s-21.166 4.33398 -32.499 5.00098c-21.333 0.666992 -41.5 -1.66602 -60.5 -6.99902s-39.5 -13 -61.5 -23v57c22.667 11.333 44.834 19.666 66.501 24.999s45.167 8 70.5 8
c20.667 0 39.834 -2.5 57.501 -7.5s33 -12.667 46 -23s23.167 -23.333 30.5 -39s11 -33.834 11 -54.501v-302h-73z" />
    <glyph glyph-name="uni0E33" unicode="&#xe33;" horiz-adv-x="347" 
d="M-110 598c23.333 0 42 -6.33301 56 -19s21 -29 21 -49s-7 -36.333 -21 -49s-32.667 -19 -56 -19s-42 6.16699 -56 18.5s-21 28.833 -21 49.5c0 20 7 36.333 21 49s32.667 19 56 19zM-110 500c9.33301 0 16.833 2.66699 22.5 8s8.5 12.666 8.5 21.999
s-2.83301 16.666 -8.5 21.999s-13.167 8 -22.5 8s-16.833 -2.66699 -22.5 -8s-8.5 -12.666 -8.5 -21.999s2.83301 -16.666 8.5 -21.999s13.167 -8 22.5 -8zM233 0l-0.00292969 290c0 14 -2.5 25.667 -7.5 35s-11.5 17 -19.5 23s-17.167 10.333 -27.5 13
s-21.166 4.33398 -32.499 5.00098c-21.333 0.666992 -41.5 -1.66602 -60.5 -6.99902s-39.5 -13 -61.5 -23v57c22.667 11.333 44.834 19.666 66.501 24.999s45.167 8 70.5 8c20.667 0 39.834 -2.5 57.501 -7.5s33 -12.667 46 -23s23.167 -23.333 30.5 -39
s11 -33.834 11 -54.501v-302h-73z" />
    <glyph glyph-name="uni0E34" unicode="&#xe34;" 
d="M-39 484h-346v53h346v-53z" />
    <glyph glyph-name="uni0E35" unicode="&#xe35;" 
d="M-39 594v-110h-346v53h281v57h65z" />
    <glyph glyph-name="uni0E36" unicode="&#xe36;" 
d="M-97 599c20.667 0 36.335 -5.5 47.002 -16.5s16 -24.833 16 -41.5c0 -17.333 -5 -31.333 -15 -42s-25.333 -16 -46 -16h-290v54h229c-2.66699 20.667 2.66602 36.167 15.999 46.5s27.666 15.5 42.999 15.5zM-96.999 518c7.33301 0 13.166 2.16699 17.499 6.5
s6.5 9.83301 6.5 16.5s-2.16699 12.167 -6.5 16.5s-10.166 6.5 -17.499 6.5s-13 -2.16699 -17 -6.5s-6 -9.83301 -6 -16.5s2 -12.167 6 -16.5s9.66699 -6.5 17 -6.5z" />
    <glyph glyph-name="uni0E37" unicode="&#xe37;" 
d="M-39 594v-110h-345v53h188v57h56v-57h46v57h55z" />
    <glyph glyph-name="uni0E38" unicode="&#xe38;" 
d="M-42 -185h-64v78h-62v48h126v-126z" />
    <glyph glyph-name="uni0E39" unicode="&#xe39;" 
d="M-42 -59l0.000976562 -56.998c0 -17.333 -3.16699 -31.166 -9.5 -41.499s-14.166 -18.333 -23.499 -24s-19.833 -9.33398 -31.5 -11.001s-22.834 -2.5 -33.501 -2.5c-12 0 -23.667 1.16699 -35 3.5s-21.333 6.66602 -30 12.999s-15.834 15.166 -21.501 26.499
s-8.5 26.333 -8.5 45h-40v48h97v-50c0 -16 3.33301 -27 10 -33s16 -9 28 -9c14.667 0 24.5 3.5 29.5 10.5s7.5 21.167 7.5 42.5v39h61z" />
    <glyph glyph-name="uni0E3A" unicode="&#xe3a;" 
d="M-137 -110c0 14 5 26 15 36s22 15 36 15c14.667 0 27 -5 37 -15s15 -22 15 -36c0 -14.667 -5 -27.167 -15 -37.5s-22.333 -15.5 -37 -15.5c-14 0 -26 5.16699 -36 15.5s-15 22.833 -15 37.5z" />
    <glyph glyph-name="uni0E3F" unicode="&#xe3f;" horiz-adv-x="452" 
d="M304 260c36 -3.33301 64.834 -16.001 86.501 -38.001s32.5 -51 32.5 -87c0 -43.333 -15.833 -76.666 -47.5 -99.999s-74.834 -35 -129.501 -35h-3v-76h-66v76h-139v513h139v72h66v-73c48 -3.33301 85.833 -15 113.5 -35s41.5 -49.667 41.5 -89c0 -30.667 -8 -58 -24 -82
s-39.333 -38.667 -70 -44v-2zM228.001 57.999c38 0 67.167 7.00098 87.5 21.001s30.5 35.667 30.5 65s-10.667 51.166 -32 65.499s-51.333 21.5 -90 21.5h-112v-173h116zM218.001 281c32.667 0 58.333 8.33301 77 25s28 38.667 28 66c0 25.333 -9.33301 45.5 -28 60.5
s-44.667 22.5 -78 22.5h-105v-174h106z" />
    <glyph glyph-name="uni0E40" unicode="&#xe40;" horiz-adv-x="236" 
d="M224 4c-9.33301 -2 -18.167 -3.33301 -26.5 -4s-16.5 -1 -24.5 -1c-41.333 0 -71.166 11.5 -89.499 34.5s-27.5 58.5 -27.5 106.5v283h73v-295c0 -29.333 5.66699 -48.833 17 -58.5s26.333 -14.5 45 -14.5c5.33301 0 10.666 0.166992 15.999 0.5s11 0.833008 17 1.5v-53z
" />
    <glyph glyph-name="uni0E41" unicode="&#xe41;" horiz-adv-x="446" 
d="M224 4c-9.33301 -2 -18.165 -3.33301 -26.498 -4s-16.5 -1 -24.5 -1c-38.667 0 -67.834 10.5 -87.501 31.5s-29.5 54.167 -29.5 99.5v293h73v-295c0 -29.333 5.66699 -48.833 17 -58.5s26.333 -14.5 45 -14.5c5.33301 0 10.666 0.166992 15.999 0.5s11 0.833008 17 1.5
v-53zM434.001 4c-9.33301 -2 -18.165 -3.33301 -26.498 -4s-16.5 -1 -24.5 -1c-38.667 0 -67.834 10.5 -87.501 31.5s-29.5 54.167 -29.5 99.5v293h73v-295c0 -29.333 5.66699 -48.833 17 -58.5s26.333 -14.5 45 -14.5c5.33301 0 10.666 0.166992 15.999 0.5
s11 0.833008 17 1.5v-53z" />
    <glyph glyph-name="uni0E42" unicode="&#xe42;" horiz-adv-x="270" 
d="M256 4c-9.33301 -2 -18.166 -3.33105 -26.499 -3.99805s-16.5 -1 -24.5 -1c-77.333 0 -116 43.667 -116 131v243c0 12.667 -0.666992 24.167 -2 34.5s-5 19.5 -11 27.5s-15 15.333 -27 22s-28.333 12.667 -49 18v8c0 22.667 4.16699 41.667 12.5 57s19 27.666 32 36.999
s27.333 16 43 20s31.167 6 46.5 6s30.5 -2 45.5 -6s28.833 -10 41.5 -18s23.167 -18 31.5 -30s13.5 -25.667 15.5 -41h-61c-3.33301 13.333 -12 23.666 -26 30.999s-29.333 11 -46 11c-21.333 0 -38 -5 -50 -15s-19.333 -20.667 -22 -32
c22 -7.33301 39.5 -15.833 52.5 -25.5s23 -20.167 30 -31.5s11.5 -23.333 13.5 -36s3 -25.667 3 -39v-243c0 -29.333 5.5 -48.833 16.5 -58.5s25.833 -14.5 44.5 -14.5c5.33301 0 10.666 0.166992 15.999 0.5s11 0.833008 17 1.5v-53z" />
    <glyph glyph-name="uni0E43" unicode="&#xe43;" horiz-adv-x="264" 
d="M250 4c-9.33301 -2 -18.168 -3.33398 -26.501 -4.00098s-16.5 -1 -24.5 -1c-38.667 0 -67.5 10.5 -86.5 31.5s-28.5 54.167 -28.5 99.5v202c0 22 5.16699 41.167 15.5 57.5s21.833 30.833 34.5 43.5l34.5 35c10.333 10.667 15.5 22 15.5 34
c0 14 -5.16699 25.333 -15.5 34s-25.5 13 -45.5 13c-21.333 0 -36.666 -6.33301 -45.999 -19s-13.666 -30.334 -12.999 -53.001h-62c-1.33301 40 8.66699 70.833 30 92.5s52 32.5 92 32.5c38 0 68.167 -8 90.5 -24s33.5 -42.333 33.5 -79
c0 -18 -4.83301 -33.167 -14.5 -45.5s-20.167 -24.166 -31.5 -35.499s-21.833 -23.666 -31.5 -36.999s-14.5 -30 -14.5 -50v-203c0 -29.333 5.5 -48.833 16.5 -58.5s25.833 -14.5 44.5 -14.5c5.33301 0 10.666 0.166992 15.999 0.5s11 0.833008 17 1.5v-53z" />
    <glyph glyph-name="uni0E44" unicode="&#xe44;" horiz-adv-x="264" 
d="M250 4c-9.33301 -2 -18.166 -3.33301 -26.499 -4s-16.5 -1 -24.5 -1c-76.667 0 -115 43.667 -115 131v229c0 22.667 4.66699 42.334 14 59.001s19.666 31.5 30.999 44.5l31 35c9.33301 10.333 14 20.5 14 30.5c0 9.33301 -2.83301 15.666 -8.5 18.999
s-11.834 5 -18.501 5c-11.333 0 -21.166 -4.5 -29.499 -13.5s-14.166 -19.833 -17.499 -32.5h-49l-75 92h68l36 -54c4.66699 17.333 13 31.333 25 42s28 16 48 16c23.333 0 43.333 -5 60 -15s25 -26.667 25 -50c0 -20 -4.33301 -35.667 -13 -47s-18 -22.833 -28 -34.5
s-19.333 -25.5 -28 -41.5s-13 -38.667 -13 -68v-218c0 -29.333 5.5 -48.833 16.5 -58.5s25.833 -14.5 44.5 -14.5c5.33301 0 10.666 0.166992 15.999 0.5s11 0.833008 17 1.5v-53z" />
    <glyph glyph-name="uni0E45" unicode="&#xe45;" horiz-adv-x="347" 
d="M233 -143l-0.00292969 433c0 14 -2.5 25.667 -7.5 35s-11.5 17 -19.5 23s-17.167 10.333 -27.5 13s-21.166 4.33398 -32.499 5.00098c-21.333 0.666992 -41.5 -1.66602 -60.5 -6.99902s-39.5 -13 -61.5 -23v57c22.667 11.333 44.834 19.666 66.501 24.999
s45.167 8 70.5 8c20.667 0 39.834 -2.5 57.501 -7.5s33 -12.667 46 -23s23.167 -23.333 30.5 -39s11 -33.834 11 -54.501v-445h-73z" />
    <glyph glyph-name="uni0E46" unicode="&#xe46;" horiz-adv-x="434" 
d="M280 426c21.333 0 38.4932 -2.50098 51.4932 -7.50098s23 -12.667 30 -23s11.667 -23.333 14 -39s3.5 -33.834 3.5 -54.501v-161c0 -92.667 -38.333 -141 -115 -145c-9.33301 0 -19.166 0.166992 -29.499 0.5s-20.166 1.5 -29.499 3.5v50
c6 -0.666992 11.5 -1.16699 16.5 -1.5s10.167 -0.166016 15.5 0.500977c46 1.33301 69 26.666 69 75.999v185c0 5.33301 -0.166992 11.166 -0.5 17.499s-1.66602 12.333 -3.99902 18s-6.16602 10.334 -11.499 14.001s-12.666 5.5 -21.999 5.5c-12 0 -21 -5.33301 -27 -16
s-10.667 -23 -14 -37h-45c-3.33301 14 -8.16602 26.333 -14.499 37s-16.166 16 -29.499 16c-9.33301 0 -16.333 -2.33301 -21 -7s-8 -10.167 -10 -16.5s-3.16699 -12.666 -3.5 -18.999s-0.5 -11.166 -0.5 -14.499c0 -31.333 3.66699 -53.833 11 -67.5
s22.333 -21.167 45 -22.5c7.33301 -0.666992 14.5 -0.833984 21.5 -0.500977s15.167 1.5 24.5 3.5v-51c-11.333 -2 -21.333 -3.33301 -30 -4s-18 -1 -28 -1c-34.667 0.666992 -62.167 11.5 -82.5 32.5s-30.5 51.833 -30.5 92.5v16c0 18.667 1.16699 35.334 3.5 50.001
s7 27.167 14 37.5s16.667 18.333 29 24s28.5 8.5 48.5 8.5c22 0 39 -5.66699 51 -17s20 -27.333 24 -48c5.33301 20.667 13.833 36.667 25.5 48s28.5 17 50.5 17z" />
    <glyph glyph-name="uni0E47" unicode="&#xe47;" 
d="M-245 601c-26.667 0 -40 -12.667 -40 -38c0 -14.667 4.5 -24.334 13.5 -29.001s18.833 -7 29.5 -7c9.33301 0 18.333 3.5 27 10.5s14.667 17.167 18 30.5h28l82 -42v-50h-10l-77 40c-7.33301 -13.333 -18.5 -23.166 -33.5 -29.499s-31.167 -9.5 -48.5 -9.5
c-24.667 0 -45.5 6.83301 -62.5 20.5s-25.5 35.5 -25.5 65.5s9.33301 52.667 28 68s46 23 82 23h163v-53h-174v0z" />
    <glyph glyph-name="uni0E48" unicode="&#xe48;" 
d="M-41 628h-62v124h62v-124z" />
    <glyph glyph-name="uni0E49" unicode="&#xe49;" 
d="M5 678l0.000976562 -50.0029h-223v33c23.333 5.33301 38.666 13 45.999 23s11 19 11 27c0 7.33301 -4.66699 13.333 -14 18s-23.333 4.66699 -42 0v35c12.667 4.66699 25.5 7.16699 38.5 7.5s24.833 -1.16699 35.5 -4.5s19.5 -8.66602 26.5 -15.999
s10.5 -16.333 10.5 -27c0 -8.66699 -2.5 -17.667 -7.5 -27s-12.5 -17.666 -22.5 -24.999c11.333 2.66699 24.333 4.33398 39 5.00098s26.667 1 36 1h66z" />
    <glyph glyph-name="uni0E4A" unicode="&#xe4a;" 
d="M-11 669l-0.000976562 -41.002h-93v58c0 7.33301 -1.66699 14.166 -5 20.499s-10 9.5 -20 9.5c-11.333 0 -19 -2.83301 -23 -8.5s-6.66699 -13.167 -8 -22.5h-36c-2 12 -5.5 20.333 -10.5 25s-11.5 7 -19.5 7c-10 0 -16.667 -2.16699 -20 -6.5s-5 -11.166 -5 -20.499
c0 -11.333 3.5 -18.333 10.5 -21s18.167 -4 33.5 -4v-36c-4.66699 -0.666992 -9 -1 -13 -1h-12c-21.333 0 -38.666 4.33301 -51.999 13s-20 24.334 -20 47.001v7c0 20.667 5.16699 37.334 15.5 50.001s27.166 19 50.499 19c29.333 0 49.333 -11.667 60 -35
c10.667 23.333 30.334 35 59.001 35c24 0 41 -6.5 51 -19.5s15 -30.5 15 -52.5v-23h42z" />
    <glyph glyph-name="uni0E4B" unicode="&#xe4b;" 
d="M8 672h-53v-44h-54v44h-54v38h54v43h54v-43h53v-38z" />
    <glyph glyph-name="uni0E4C" unicode="&#xe4c;" 
d="M-1 654l-105 -11.001c-16.667 -1.33301 -26.667 -5.5 -30 -12.5s-4.33301 -17.167 -3 -30.5h-62c-0.666992 12.667 -0.5 24.167 0.5 34.5s3.83301 19.333 8.5 27s11.5 13.834 20.5 18.501s21.5 8 37.5 10l133 15v-51z" />
    <glyph glyph-name="uni0E4D" unicode="&#xe4d;" 
d="M-110 598c23.333 0 42 -6.33301 56 -19s21 -29 21 -49s-7 -36.333 -21 -49s-32.667 -19 -56 -19s-42 6.16699 -56 18.5s-21 28.833 -21 49.5c0 20 7 36.333 21 49s32.667 19 56 19zM-110 500c9.33301 0 16.833 2.66699 22.5 8s8.5 12.666 8.5 21.999
s-2.83301 16.666 -8.5 21.999s-13.167 8 -22.5 8s-16.833 -2.66699 -22.5 -8s-8.5 -12.666 -8.5 -21.999s2.83301 -16.666 8.5 -21.999s13.167 -8 22.5 -8z" />
    <glyph glyph-name="uni0E4E" unicode="&#xe4e;" 
d="M-255 0v495h499v-495h-499zM224 16c3.33301 0 5 1.66699 5 5v454c0 2.66699 -1.66699 4 -5 4h-459c-3.33301 0 -5 -1.33301 -5 -4v-454c0 -3.33301 1.66699 -5 5 -5h459z" />
    <glyph glyph-name="uni0E4F" unicode="&#xe4f;" horiz-adv-x="395" 
d="M197 396c22.667 0 44 -4.33301 64 -13s37.5 -20.334 52.5 -35.001s26.833 -32 35.5 -52s13 -41.333 13 -64c0 -23.333 -4.33301 -45 -13 -65s-20.5 -37.333 -35.5 -52s-32.5 -26.334 -52.5 -35.001s-41.333 -13 -64 -13s-44 4.33301 -64 13s-37.333 20.334 -52 35.001
s-26.334 32 -35.001 52s-13 41.667 -13 65c0 22.667 4.33301 44 13 64s20.334 37.333 35.001 52s32 26.334 52 35.001s41.333 13 64 13zM197 108c16.667 0 32.5 3.33301 47.5 10s28 15.5 39 26.5s19.667 24 26 39s9.5 31.167 9.5 48.5c0 16.667 -3.16699 32.5 -9.5 47.5
s-15 28 -26 39s-24 19.667 -39 26s-30.833 9.5 -47.5 9.5c-17.333 0 -33.5 -3.16699 -48.5 -9.5s-28 -15 -39 -26s-19.833 -24 -26.5 -39s-10 -30.833 -10 -47.5c0 -17.333 3.33301 -33.5 10 -48.5s15.5 -28 26.5 -39s24 -19.833 39 -26.5s31.167 -10 48.5 -10zM197 324
c12.667 0 24.5 -2.33301 35.5 -7s20.667 -11.167 29 -19.5s14.833 -18.166 19.5 -29.499s7 -23.333 7 -36c0 -25.333 -8.83301 -47 -26.5 -65s-39.167 -27 -64.5 -27s-47 9 -65 27s-27 39.667 -27 65c0 12.667 2.5 24.667 7.5 36s11.667 21.166 20 29.499s18 14.833 29 19.5
s22.833 7 35.5 7zM197 175c16 0 29.167 5.5 39.5 16.5s15.5 24.5 15.5 40.5c0 15.333 -5.16699 28.166 -15.5 38.499s-23.5 15.5 -39.5 15.5c-15.333 0 -28.5 -5.16699 -39.5 -15.5s-16.5 -23.166 -16.5 -38.499c0 -16 5.5 -29.5 16.5 -40.5s24.167 -16.5 39.5 -16.5z" />
    <glyph glyph-name="uni0E50" unicode="&#xe50;" horiz-adv-x="443" 
d="M221 379c27.333 0 53 -4.33301 77 -13s44.833 -21.334 62.5 -38.001s31.667 -36.834 42 -60.501s15.5 -50.834 15.5 -81.501c0 -30 -5.16699 -57 -15.5 -81s-24.333 -44.167 -42 -60.5s-38.5 -28.833 -62.5 -37.5s-49.667 -13 -77 -13s-52.833 4.33301 -76.5 13
s-44.334 21.167 -62.001 37.5s-31.667 36.5 -42 60.5s-15.5 51 -15.5 81c0 30.667 5.16699 57.834 15.5 81.501s24.333 43.834 42 60.501s38.334 29.334 62.001 38.001s49.167 13 76.5 13zM221 51c16.667 0 32.667 3 48 9s28.833 14.667 40.5 26s21 25.5 28 42.5
s10.5 36.167 10.5 57.5c0 22 -3.5 41.333 -10.5 58s-16.333 30.834 -28 42.501s-25.167 20.5 -40.5 26.5s-31.333 9 -48 9s-32.5 -3 -47.5 -9s-28.333 -14.833 -40 -26.5s-20.834 -25.834 -27.501 -42.501s-10 -36 -10 -58c0 -21.333 3.33301 -40.5 10 -57.5
s15.834 -31.167 27.501 -42.5s25 -20 40 -26s30.833 -9 47.5 -9z" />
    <glyph glyph-name="uni0E51" unicode="&#xe51;" horiz-adv-x="447" 
d="M215 67c-23.333 -2 -46.3301 -1.00195 -68.9971 2.99805s-43 11.667 -61 23s-32.5 26.333 -43.5 45s-16.5 41.334 -16.5 68.001c0 30.667 5.16699 56.834 15.5 78.501s24.333 39.5 42 53.5s38.334 24.333 62.001 31s49.167 10 76.5 10s53.166 -4.5 77.499 -13.5
s45.666 -22.333 63.999 -40s32.833 -39.334 43.5 -65.001s16 -55.167 16 -88.5c0 -28.667 -5 -57.334 -15 -86.001s-25.333 -54 -46 -76s-47 -39 -79 -51s-70.333 -15.333 -115 -10v55c30.667 -4.66699 57.667 -3 81 5s42.5 20.167 57.5 36.5s26.333 35.5 34 57.5
s11.5 45 11.5 69s-3.66699 45.333 -11 64s-17 34.334 -29 47.001s-25.833 22.334 -41.5 29.001s-31.834 10 -48.501 10s-32.5 -2.16699 -47.5 -6.5s-28.333 -11 -40 -20s-20.834 -21 -27.501 -36s-10 -32.833 -10 -53.5c0 -15.333 3.5 -28.833 10.5 -40.5
s16.167 -21 27.5 -28s24 -11.833 38 -14.5s28.333 -3 43 -1v-55z" />
    <glyph glyph-name="uni0E52" unicode="&#xe52;" horiz-adv-x="541" 
d="M39 500h69.001v-327c0 -24 5 -43.833 15 -59.5s22.833 -28 38.5 -37s33 -15.333 52 -19s37.833 -5.5 56.5 -5.5c20 0 39.667 1.83301 59 5.5s36.666 10.167 51.999 19.5s27.833 21.666 37.5 36.999s14.5 35 14.5 59v90c0 5.33301 -0.333008 11.333 -1 18
s-2.33398 12.834 -5.00098 18.501s-6.66699 10.334 -12 14.001s-12.666 5.5 -21.999 5.5c-13.333 0 -23 -5.33301 -29 -16s-10.667 -23 -14 -37h-48c-2.66699 14 -7 26.333 -13 37s-15.667 16 -29 16c-9.33301 0 -16.666 -1.83301 -21.999 -5.5
s-9.33301 -8.33398 -12 -14.001s-4.33398 -11.667 -5.00098 -18s-1 -12.5 -1 -18.5c0 -30.667 4 -52.167 12 -64.5s22 -19.166 42 -20.499c13.333 -0.666992 29.333 0.333008 48 3v-48c-13.333 -2.66699 -25.333 -4.33398 -36 -5.00098s-21.667 -0.666992 -33 0
c-28.667 2 -52 12 -70 30s-27 44.333 -27 79v36c0 36 7.16699 62.667 21.5 80s38.5 26 72.5 26c22 0 39 -5.5 51 -16.5s20.333 -26.833 25 -47.5c5.33301 20.667 13.833 36.5 25.5 47.5s28.5 16.5 50.5 16.5c20.667 0 37.5 -2.66699 50.5 -8s23.167 -13.5 30.5 -24.5
s12.333 -24.667 15 -41s4 -35.5 4 -57.5v-80c0 -30 -6.16699 -56 -18.5 -78s-29 -40.167 -50 -54.5s-45.5 -24.833 -73.5 -31.5s-58 -10 -90 -10s-62 3.33301 -90 10s-52.5 17.167 -73.5 31.5s-37.5 32.5 -49.5 54.5s-18 48 -18 78v332z" />
    <glyph glyph-name="uni0E53" unicode="&#xe53;" horiz-adv-x="479" 
d="M330 379c43.333 0 72.5 -9.99609 87.5 -29.9961s22.5 -50.333 22.5 -91v-258h-73v263c0 5.33301 -0.333008 11.333 -1 18s-2.5 12.834 -5.5 18.501s-7.83301 10.5 -14.5 14.5s-15.667 6 -27 6c-13.333 0 -23.5 -5.5 -30.5 -16.5s-11.833 -23.5 -14.5 -37.5h-54
c-2.66699 14 -7.83398 26.5 -15.501 37.5s-18.167 16.5 -31.5 16.5c-14.667 0 -26.334 -4 -35.001 -12s-15.167 -18.5 -19.5 -31.5s-7.16602 -27.5 -8.49902 -43.5s-2 -32.333 -2 -49c0 -17.333 1.5 -33.833 4.5 -49.5s8.5 -29.334 16.5 -41.001s19 -21.167 33 -28.5
s31.667 -11.333 53 -12c6 -0.666992 13 -0.833984 21 -0.500977s15.333 0.833008 22 1.5v-53c-6.66699 -1.33301 -14 -2.33301 -22 -3s-15.667 -1 -23 -1c-27.333 -0.666992 -52 2.16602 -74 8.49902s-40.667 16.666 -56 30.999s-27.166 33.333 -35.499 57
s-12.5 52.167 -12.5 85.5c0 29.333 2 56.166 6 80.499s10.833 45.333 20.5 63s22.667 31.5 39 41.5s36.833 15 61.5 15c21.333 0 39.5 -5.5 54.5 -16.5s25.167 -26.833 30.5 -47.5c4 20.667 13.5 36.5 28.5 47.5s33.167 16.5 54.5 16.5z" />
    <glyph glyph-name="uni0E54" unicode="&#xe54;" horiz-adv-x="474" 
d="M226 319c-16 0 -31.168 -2.83594 -45.501 -8.50293s-27 -14.167 -38 -25.5s-19.667 -25.333 -26 -42s-9.5 -35.667 -9.5 -57s3.16699 -40.166 9.5 -56.499s14.833 -30.166 25.5 -41.499s23.334 -20 38.001 -26s30 -9 46 -9c12.667 0 25.167 1.16699 37.5 3.5
s22.833 5.83301 31.5 10.5c-7.33301 7.33301 -12.833 16.333 -16.5 27s-5.5 21 -5.5 31c0 39.333 12.5 68.166 37.5 86.499s63.5 23.833 115.5 16.5v-47c-28 4.66699 -50 1.33398 -66 -9.99902s-24 -27.333 -24 -48c0 -13.333 2.83301 -24.5 8.5 -33.5
s12.834 -16.333 21.501 -22s18.167 -9.83398 28.5 -12.501s20.166 -4 29.499 -4h29v-51h-26c-40.667 0 -74.334 9 -101.001 27c-9.33301 -9.33301 -23 -16.666 -41 -21.999s-37.667 -8 -59 -8c-27.333 0 -52.666 4.16699 -75.999 12.5s-43.5 20.5 -60.5 36.5
s-30.333 35.833 -40 59.5s-14.5 50.5 -14.5 80.5c0 30.667 4.83301 57.834 14.5 81.501s23 43.5 40 59.5s37.167 28.167 60.5 36.5s48.666 12.5 75.999 12.5h87c28 0 49 5.5 63 16.5s20.333 30.5 19 58.5h58c2 -22 0.166992 -41.167 -5.5 -57.5s-14.167 -30 -25.5 -41
s-24.666 -19.333 -39.999 -25s-32 -8.5 -50 -8.5h-106v0z" />
    <glyph glyph-name="uni0E55" unicode="&#xe55;" horiz-adv-x="474" 
d="M226 -3c-27.333 0 -52.666 4.16699 -75.999 12.5s-43.5 20.5 -60.5 36.5s-30.333 35.833 -40 59.5s-14.5 50.5 -14.5 80.5c0 50 12.833 90.5 38.5 121.5s57.834 50.5 96.501 58.5c-10 12 -15 27.333 -15 46c0 23.333 7.66699 42.5 23 57.5s35.666 22.5 60.999 22.5
s45.666 -7.5 60.999 -22.5s23 -34.167 23 -57.5c0 -12.667 -4 -24 -12 -34c28.667 1.33301 50 6.66602 64 15.999s20.667 28.333 20 57h58c2 -24.667 -0.333008 -45.334 -7 -62.001s-16.667 -30.167 -30 -40.5s-29.333 -17.833 -48 -22.5s-38.667 -7 -60 -7h-70
c-17.333 0 -33.833 -2.5 -49.5 -7.5s-29.5 -12.667 -41.5 -23s-21.667 -24 -29 -41s-11 -37.5 -11 -61.5c0 -21.333 3.16699 -40.166 9.5 -56.499s14.833 -30.166 25.5 -41.499s23.334 -20 38.001 -26s30 -9 46 -9c12.667 0 25.167 1.16699 37.5 3.5
s22.833 5.83301 31.5 10.5c-7.33301 7.33301 -12.833 16.333 -16.5 27s-5.5 21 -5.5 31c0 39.333 12.5 68.166 37.5 86.499s63.5 23.833 115.5 16.5v-47c-28 4.66699 -50 1.33398 -66 -9.99902s-24 -27.333 -24 -48c0 -13.333 2.83301 -24.5 8.5 -33.5
s12.834 -16.333 21.501 -22s18.167 -9.83398 28.5 -12.501s20.166 -4 29.499 -4h29v-51h-26c-40.667 0 -74.334 9 -101.001 27c-9.33301 -9.33301 -23 -16.666 -41 -21.999s-37.667 -8 -59 -8zM239 377c11.333 0 20.333 3.16699 27 9.5s10 14.833 10 25.5
c0 11.333 -3.33301 20.333 -10 27s-15.667 10 -27 10s-20.333 -3.33301 -27 -10s-10 -15.667 -10 -27c0 -10.667 3.33301 -19.167 10 -25.5s15.667 -9.5 27 -9.5z" />
    <glyph glyph-name="uni0E56" unicode="&#xe56;" horiz-adv-x="482" 
d="M221 182c-29.333 3.33301 -52.499 1.49805 -69.499 -5.50195s-25.5 -23.833 -25.5 -50.5c0 -13.333 3.16699 -24.833 9.5 -34.5s15 -17.5 26 -23.5s23.833 -10.333 38.5 -13s30 -4 46 -4c16.667 0 32.834 2.5 48.501 7.5s29.5 13 41.5 24s21.667 24.833 29 41.5
s11 37 11 61c0 44 -11.833 77.833 -35.5 101.5s-56.834 36.167 -99.501 37.5c-18 1.33301 -36.167 -1.66699 -54.5 -9s-33.833 -17 -46.5 -29h-53l-99 174h71l67 -121c11.333 11.333 27.333 20.833 48 28.5s43 11.5 67 11.5c37.333 0 69 -5 95 -15
s47.167 -23.833 63.5 -41.5s28.166 -38.334 35.499 -62.001s11 -48.834 11 -75.501c0 -33.333 -5.33301 -62.166 -16 -86.499s-25 -44.166 -43 -59.499s-39.167 -26.666 -63.5 -33.999s-50.166 -11 -77.499 -11s-52.5 2.5 -75.5 7.5s-43.167 12.833 -60.5 23.5
s-30.833 24.334 -40.5 41.001s-14.5 36.667 -14.5 60c0 25.333 4.16699 45.5 12.5 60.5s20 26.167 35 33.5s32.667 11.5 53 12.5s42.166 0.166992 65.499 -2.5v-48v0z" />
    <glyph glyph-name="uni0E57" unicode="&#xe57;" horiz-adv-x="630" 
d="M325 379c21.333 0 38.666 -2.8291 51.999 -8.49609s23.666 -14 30.999 -25s12.166 -24.833 14.499 -41.5s3.5 -36 3.5 -58v-145c0 -17.333 4.83301 -29.666 14.5 -36.999s20.834 -11 33.501 -11s23.834 3.66699 33.501 11s14.5 19.666 14.5 36.999v399h69v-371
c0 -26 -2.66699 -47.5 -8 -64.5s-13 -30.5 -23 -40.5s-22.333 -17 -37 -21s-31 -6 -49 -6c-18.667 0 -35.167 2 -49.5 6s-26.5 11.167 -36.5 21.5s-17.667 24 -23 41s-8 38.5 -8 64.5v133c0 5.33301 -0.166992 11.333 -0.5 18s-1.66602 12.834 -3.99902 18.501
s-6.5 10.5 -12.5 14.5s-14.667 6 -26 6c-13.333 0 -23.5 -5.5 -30.5 -16.5s-11.833 -23.5 -14.5 -37.5h-54c-2.66699 14 -7.83398 26.5 -15.501 37.5s-18.167 16.5 -31.5 16.5c-14.667 0 -26 -4 -34 -12s-14 -18.5 -18 -31.5s-6.33301 -27.5 -7 -43.5s-1 -32.333 -1 -49
c0 -18 1.66699 -34.833 5 -50.5s9.16602 -29.5 17.499 -41.5s19.833 -21.5 34.5 -28.5s33.334 -10.5 56.001 -10.5c5.33301 -0.666992 11.333 -0.833984 18 -0.500977s13 0.833008 19 1.5v-53c-6.66699 -1.33301 -14 -2.33301 -22 -3s-15.667 -1 -23 -1
c-27.333 -0.666992 -52 2.16602 -74 8.49902s-40.667 16.666 -56 30.999s-27.166 33.166 -35.499 56.499s-12.5 52 -12.5 86c0 29.333 1.66699 56.166 5 80.499s9.5 45.333 18.5 63s21.5 31.5 37.5 41.5s36.333 15 61 15c21.333 0 39.5 -5.5 54.5 -16.5
s25.167 -26.833 30.5 -47.5c4 20.667 13.5 36.5 28.5 47.5s33.167 16.5 54.5 16.5z" />
    <glyph glyph-name="uni0E58" unicode="&#xe58;" horiz-adv-x="470" 
d="M31 188c0 31.333 4.49902 58.6719 13.499 82.0049s21.833 42.833 38.5 58.5s36.5 27.5 59.5 35.5s48.167 12 75.5 12h79c30.667 0 53.834 5.16699 69.501 15.5s23.167 30.166 22.5 59.499h57c2 -22 0.166992 -41.167 -5.5 -57.5s-14.167 -30 -25.5 -41
s-24.666 -19.333 -39.999 -25s-32 -8.5 -50 -8.5h-106c-36 0 -64.333 -11.833 -85 -35.5s-31 -55.5 -31 -95.5c0 -15.333 0.666992 -30.5 2 -45.5s4.16602 -28.667 8.49902 -41s10.333 -22.5 18 -30.5s18.167 -12.667 31.5 -14c8.66699 -1.33301 16.167 -0.5 22.5 2.5
s11.666 7.5 15.999 13.5s7.66602 13 9.99902 21s4.16602 16 5.49902 24h54c1.33301 -7.33301 3 -14.833 5 -22.5s4.83301 -14.5 8.5 -20.5s8.16699 -11 13.5 -15s11.666 -6 18.999 -6c12 0 21.5 2 28.5 6s12.167 8.83301 15.5 14.5s5.33301 11.667 6 18s1 12.166 1 17.499
v27c0 19.333 -4.66699 34.5 -14 45.5s-25 16.833 -47 17.5c-7.33301 0 -14.166 -0.166992 -20.499 -0.5s-13.833 -1.5 -22.5 -3.5v47c11.333 1.33301 21.833 2.5 31.5 3.5s19.834 1.5 30.501 1.5c34.667 0 62.334 -9.83301 83.001 -29.5s31 -47.834 31 -84.501
c0 -21.333 -1.66699 -40.5 -5 -57.5s-9.16602 -31.333 -17.499 -43s-19.666 -20.667 -33.999 -27s-32.833 -9.5 -55.5 -9.5c-21.333 0 -39.5 5.5 -54.5 16.5s-24.833 26.833 -29.5 47.5c-4.66699 -20.667 -14.334 -36.667 -29.001 -48s-33 -17 -55 -17
c-24 0 -44.167 4.83301 -60.5 14.5s-29.5 23.167 -39.5 40.5s-17.333 37.666 -22 60.999s-7 48.666 -7 75.999z" />
    <glyph glyph-name="uni0E59" unicode="&#xe59;" horiz-adv-x="526" 
d="M398 269c0 4.66699 -0.668945 9.6748 -2.00195 15.0078s-3.83301 10.5 -7.5 15.5s-8.66699 9.16699 -15 12.5s-14.5 5 -24.5 5c-15.333 0 -26.666 -4.5 -33.999 -13.5s-11.666 -19.833 -12.999 -32.5l128 -271h-73l-125 266c-7.33301 13.333 -14.833 25.166 -22.5 35.499
s-19.167 15.5 -34.5 15.5c-14.667 0 -26.334 -3.83301 -35.001 -11.5s-15.167 -17.834 -19.5 -30.501s-7.16602 -26.834 -8.49902 -42.501s-2 -31.834 -2 -48.501c0 -18 1.5 -34.667 4.5 -50s8.5 -29 16.5 -41s18.833 -21.5 32.5 -28.5s31.167 -10.833 52.5 -11.5
c6 -0.666992 12.833 -0.833984 20.5 -0.500977s14.167 0.833008 19.5 1.5v-53c-6 -1.33301 -13 -2.33301 -21 -3s-15.333 -1 -22 -1c-26.667 -0.666992 -50.834 2.16602 -72.501 8.49902s-40.167 16.666 -55.5 30.999s-27.166 33.333 -35.499 57s-12.5 52.167 -12.5 85.5
c0 29.333 2.16699 56.166 6.5 80.499s11.5 45.333 21.5 63s23.333 31.5 40 41.5s37.667 15 63 15c22 0 41 -5.83301 57 -17.5s28 -27.834 36 -48.501c4.66699 22.667 14.834 39.334 30.501 50.001s32.5 16 50.5 16c19.333 0 36.166 -3.66699 50.499 -11
s24.833 -19.333 31.5 -36l54 101h66l-89 -164h-57z" />
    <glyph glyph-name="uni0E5A" unicode="&#xe5a;" horiz-adv-x="586" 
d="M312 0l-0.000976562 250h-2c-9.33301 -25.333 -25.333 -45.166 -48 -59.499s-53.667 -21.5 -93 -21.5c-16.667 0 -33 3 -49 9s-30.5 14.667 -43.5 26s-23.5 25.666 -31.5 42.999s-12 37.333 -12 60c0 21.333 3.16699 39.5 9.5 54.5s15.166 27.333 26.499 37
s24.333 16.667 39 21s30.667 6.5 48 6.5c14.667 0 31.667 -2 51 -6v-47c-5.33301 0.666992 -10.166 1.16699 -14.499 1.5s-8.83301 0.5 -13.5 0.5c-19.333 0 -35.666 -5.33301 -48.999 -16s-20 -27.334 -20 -50.001c0 -27.333 7.83301 -47.833 23.5 -61.5
s35.167 -20.5 58.5 -20.5c16.667 0 32.167 3.16699 46.5 9.5s26.833 15 37.5 26s19 23.833 25 38.5s9 30.334 9 47.001v75h72v-423h-70zM459.999 0v423h71v-423h-71z" />
    <glyph glyph-name="uni0E5B" unicode="&#xe5b;" horiz-adv-x="589" 
d="M45 0v495h499v-495h-499zM524 16c3.33301 0 5 1.66699 5 5v454c0 2.66699 -1.66699 4 -5 4h-459c-3.33301 0 -5 -1.33301 -5 -4v-454c0 -3.33301 1.66699 -5 5 -5h459z" />
    <glyph glyph-name="zerowidthnonjoiner" unicode="&#x200c;" 
 />
    <glyph glyph-name="zerowidthjoiner" unicode="&#x200d;" 
 />
    <glyph glyph-name="lefttorightmark" unicode="&#x200e;" 
 />
    <glyph glyph-name="righttoleftmark" unicode="&#x200f;" 
 />
    <glyph glyph-name="endash" unicode="&#x2013;" horiz-adv-x="350" 
d="M316 202h-282v59h282v-59z" />
    <glyph glyph-name="emdash" unicode="&#x2014;" horiz-adv-x="502" 
d="M468 202h-434v59h434v-59z" />
    <glyph glyph-name="quoteleft" unicode="&#x2018;" horiz-adv-x="177" 
d="M158 355h-65l-80 158h79z" />
    <glyph glyph-name="quoteright" unicode="&#x2019;" horiz-adv-x="176" 
d="M19 355l65 158h79l-80 -158h-64z" />
    <glyph glyph-name="quotesinglbase" unicode="&#x201a;" horiz-adv-x="132" 
d="M-1 -90l40 164h74l-53 -164h-61z" />
    <glyph glyph-name="quotedblleft" unicode="&#x201c;" horiz-adv-x="298" 
d="M13 513h75l66 -158h-61zM138 513h75l66 -158h-61z" />
    <glyph glyph-name="quotedblright" unicode="&#x201d;" horiz-adv-x="297" 
d="M209 513h75l-79 -158h-61zM84 513h75l-79 -158h-61z" />
    <glyph glyph-name="quotedblbase" unicode="&#x201e;" horiz-adv-x="253" 
d="M109 74l-53 -164h-57l40 164h70zM234 74l-53 -164h-57l40 164h70z" />
    <glyph glyph-name="dagger" unicode="&#x2020;" horiz-adv-x="397" 
d="M162 373v140h73v-140h120v-55h-120v-318h-73v318h-120v55h120z" />
    <glyph glyph-name="daggerdbl" unicode="&#x2021;" horiz-adv-x="397" 
d="M162 373v140h73v-140h120v-55h-120v-123h120v-55h-120v-140h-73v140h-120v55h120v123h-120v55h120z" />
    <glyph glyph-name="bullet" unicode="&#x2022;" horiz-adv-x="287" 
d="M145 141c-25.333 0 -47 8.83398 -65 26.501s-27 39.167 -27 64.5s9 46.666 27 63.999s39.667 26 65 26c24.667 0 45.667 -8.66699 63 -26s26 -38.666 26 -63.999c0 -12 -2.33301 -23.333 -7 -34s-11 -20.334 -19 -29.001s-17.5 -15.5 -28.5 -20.5s-22.5 -7.5 -34.5 -7.5z
" />
    <glyph glyph-name="ellipsis" unicode="&#x2026;" horiz-adv-x="435" 
d="M318 47c0 12.667 4.5 23.5 13.5 32.5s21.167 13.5 36.5 13.5s27.333 -4.5 36 -13.5s13 -19.833 13 -32.5c0 -13.333 -4.33301 -24.5 -13 -33.5s-20.667 -13.5 -36 -13.5s-27.5 4.5 -36.5 13.5s-13.5 20.167 -13.5 33.5zM18 47c0 12.667 4.5 23.5 13.5 32.5
s21.167 13.5 36.5 13.5c14.667 0 26.5 -4.5 35.5 -13.5s13.5 -19.833 13.5 -32.5c0 -13.333 -4.5 -24.5 -13.5 -33.5s-20.833 -13.5 -35.5 -13.5c-15.333 0 -27.5 4.5 -36.5 13.5s-13.5 20.167 -13.5 33.5zM169 47c0 12.667 4.33301 23.5 13 32.5s20.667 13.5 36 13.5
c14.667 0 26.5 -4.5 35.5 -13.5s13.5 -19.833 13.5 -32.5c0 -13.333 -4.5 -24.5 -13.5 -33.5s-20.833 -13.5 -35.5 -13.5c-15.333 0 -27.333 4.5 -36 13.5s-13 20.167 -13 33.5z" />
    <glyph glyph-name="perthousand" unicode="&#x2030;" horiz-adv-x="772" 
d="M393 226c31.333 0 57 -10.333 77 -31s30 -49 30 -85s-10 -64.333 -30 -85s-45.667 -31 -77 -31c-30.667 0 -56 10.333 -76 31s-30 49 -30 85s10 64.333 30 85s45.333 31 76 31zM640 226c31.333 0 57 -10.333 77 -31s30 -49 30 -85s-10 -64.333 -30 -85
s-45.667 -31 -77 -31c-30.667 0 -56 10.333 -76 31s-30 49 -30 85s10 64.333 30 85s45.333 31 76 31zM238 402c0 -35.333 -10.167 -63.333 -30.5 -84s-45.833 -31 -76.5 -31s-56 10.333 -76 31s-30 48.667 -30 84c0 36 10 64.5 30 85.5s45.333 31.5 76 31.5
s56.167 -10.5 76.5 -31.5s30.5 -49.5 30.5 -85.5zM448 513l-303 -513h-67l303 513h67zM79 403c0 -19.333 4.66699 -34.665 14 -45.998s22 -17 38 -17s28.667 5.66699 38 17s14 26.666 14 45.999s-4.66699 34.666 -14 45.999s-22 17 -38 17c-16.667 0 -29.5 -5.5 -38.5 -16.5
s-13.5 -26.5 -13.5 -46.5zM393 47.001c15.333 0 27.833 5.66504 37.5 16.998s14.5 26.666 14.5 45.999c0 18.667 -4.83301 33.834 -14.5 45.501s-22.167 17.5 -37.5 17.5c-16 0 -28.667 -5.66699 -38 -17s-14 -26.666 -14 -45.999s4.66699 -34.666 14 -45.999s22 -17 38 -17
zM640 46.999c16 0 28.667 5.66504 38 16.998s14 26.666 14 45.999c0 18.667 -4.66699 33.834 -14 45.501s-22 17.5 -38 17.5s-28.667 -5.66699 -38 -17s-14 -26.666 -14 -45.999s4.66699 -34.666 14 -45.999s22 -17 38 -17z" />
    <glyph glyph-name="minute" unicode="&#x2032;" horiz-adv-x="176" 
d="M19 355l65 159h79l-80 -159h-64z" />
    <glyph glyph-name="second" unicode="&#x2033;" horiz-adv-x="297" 
d="M284 514l-79 -159h-61l65 159h75zM159 514l-79 -159h-61l65 159h75z" />
    <glyph glyph-name="guilsinglleft" unicode="&#x2039;" horiz-adv-x="402" 
d="M36 208v48l330 200v-71l-256 -152v-1l256 -153v-70z" />
    <glyph glyph-name="guilsinglright" unicode="&#x203a;" horiz-adv-x="402" 
d="M36 9v70l256 153v1l-256 152v71l330 -200v-48z" />
    <glyph glyph-name="fraction" unicode="&#x2044;" horiz-adv-x="287" 
d="M274 513l-185 -513h-76l186 513h75z" />
    <glyph glyph-name="franc" unicode="&#x20a3;" horiz-adv-x="387" 
 />
    <glyph glyph-name="dong" unicode="&#x20ab;" horiz-adv-x="417" 
 />
    <glyph glyph-name="Euro" unicode="&#x20ac;" horiz-adv-x="541" 
d="M85 345c13.333 54.667 39.166 97.3311 77.499 127.998s86.833 46 145.5 46c27.333 0 52.833 -4 76.5 -12s44.5 -19.167 62.5 -33.5s33.167 -31.666 45.5 -51.999s20.5 -42.5 24.5 -66.5h-75c-8 30.667 -23.833 55.334 -47.5 74.001s-52.5 28 -86.5 28
c-36.667 0 -67.167 -9.66699 -91.5 -29s-41.5 -47 -51.5 -83h162v-48h-174c-1.33301 -6.66699 -2 -13 -2 -19v-20v-21c0 -6 0.666992 -12.333 2 -19h174v-48h-162c10 -36.667 27.167 -65 51.5 -85s54.833 -30 91.5 -30c34.667 0 63.667 8.33301 87 25s39.333 40.667 48 72
h75c-8.66699 -48.667 -31.667 -87.167 -69 -115.5s-84.333 -42.5 -141 -42.5c-58.667 0 -107.167 15.167 -145.5 45.5s-64.166 73.833 -77.499 130.5h-65v48h56c-0.666992 6.66699 -1 13 -1 19v21v20c0 6 0.333008 12.333 1 19h-56v48h65z" />
    <glyph glyph-name="uni2113" unicode="&#x2113;" horiz-adv-x="352" 
 />
    <glyph glyph-name="trademark" unicode="&#x2122;" horiz-adv-x="665" 
d="M270 513v-42h-92v-265h-53v265h-92v42h237zM632 206h-53v225h-1l-92 -225h-28l-93 225h-1v-225h-52v307h69l90 -228h2l89 228h70v-307z" />
    <glyph glyph-name="Ohm" unicode="&#x2126;" horiz-adv-x="530" 
 />
    <glyph glyph-name="estimated" unicode="&#x212e;" horiz-adv-x="418" 
 />
    <glyph glyph-name="onethird" unicode="&#x2153;" horiz-adv-x="561" 
 />
    <glyph glyph-name="twothirds" unicode="&#x2154;" horiz-adv-x="610" 
 />
    <glyph glyph-name="uni2155" unicode="&#x2155;" horiz-adv-x="536" 
 />
    <glyph glyph-name="uni2156" unicode="&#x2156;" horiz-adv-x="569" 
 />
    <glyph glyph-name="uni2157" unicode="&#x2157;" horiz-adv-x="581" 
 />
    <glyph glyph-name="uni2158" unicode="&#x2158;" horiz-adv-x="564" 
 />
    <glyph glyph-name="uni2159" unicode="&#x2159;" horiz-adv-x="520" 
 />
    <glyph glyph-name="uni215A" unicode="&#x215a;" horiz-adv-x="556" 
 />
    <glyph glyph-name="oneeighth" unicode="&#x215b;" horiz-adv-x="561" 
 />
    <glyph glyph-name="threeeighths" unicode="&#x215c;" horiz-adv-x="561" 
 />
    <glyph glyph-name="fiveeighths" unicode="&#x215d;" horiz-adv-x="560" 
 />
    <glyph glyph-name="seveneighths" unicode="&#x215e;" horiz-adv-x="558" 
 />
    <glyph glyph-name="partialdiff" unicode="&#x2202;" horiz-adv-x="393" 
 />
    <glyph glyph-name="Delta" unicode="&#x2206;" horiz-adv-x="393" 
 />
    <glyph glyph-name="product" unicode="&#x220f;" horiz-adv-x="452" 
d="M380 513v-643h-66v590h-176v-590h-66v643h308z" />
    <glyph glyph-name="summation" unicode="&#x2211;" horiz-adv-x="457" 
 />
    <glyph glyph-name="minus" unicode="&#x2212;" horiz-adv-x="350" 
d="M316 202h-282v59h282v-59z" />
    <glyph glyph-name="radical" unicode="&#x221a;" horiz-adv-x="387" 
 />
    <glyph glyph-name="infinity" unicode="&#x221e;" horiz-adv-x="467" 
 />
    <glyph glyph-name="integral" unicode="&#x222b;" horiz-adv-x="262" 
 />
    <glyph glyph-name="approxequal" unicode="&#x2248;" horiz-adv-x="418" 
d="M137 164c-13.333 0 -24.3291 -5.66699 -32.9961 -17s-13.334 -27.666 -14.001 -48.999h-56c0 39.333 8 69.833 24 91.5s40 32.5 72 32.5c15.333 0 29.166 -3.66699 41.499 -11s24.166 -15.333 35.499 -24s22.5 -16.667 33.5 -24s23.167 -11 36.5 -11
c14 0 25.667 5.5 35 16.5s14.333 27.167 15 48.5h57c0 -38 -9 -67.833 -27 -89.5s-42 -32.5 -72 -32.5c-16 0 -30.333 3.66699 -43 11s-24.834 15.166 -36.501 23.499l-34 23.5c-11 7.33301 -22.5 11 -34.5 11zM137.004 312c-13.333 0 -24.3291 -5.00098 -32.9961 -15.001
s-13.334 -25.667 -14.001 -47h-56c0 38.667 8 68.167 24 88.5s40 30.5 72 30.5c15.333 0 29.166 -3.66699 41.499 -11s24.166 -15.166 35.499 -23.499l33.5 -23.5c11 -7.33301 23.167 -11 36.5 -11c14 0 25.667 6 35 18s14.333 28.667 15 50h57c0 -38 -9 -68.5 -27 -91.5
s-42 -34.5 -72 -34.5c-16 0 -30.333 3.66699 -43 11s-24.834 15.333 -36.501 24s-23 16.667 -34 24s-22.5 11 -34.5 11z" />
    <glyph glyph-name="notequal" unicode="&#x2260;" horiz-adv-x="386" 
 />
    <glyph glyph-name="lessequal" unicode="&#x2264;" horiz-adv-x="403" 
d="M37 305l330 159v-68l-250 -118v-1l250 -119v-66l-330 157v56zM367 0h-331v53h331v-53z" />
    <glyph glyph-name="greaterequal" unicode="&#x2265;" horiz-adv-x="403" 
d="M366 249l-330 -157v66l250 119v1l-250 118v68l330 -159v-56zM36 53h331v-53h-331v53z" />
    <glyph glyph-name="lozenge" unicode="&#x25ca;" horiz-adv-x="486" 
d="M243 596l209 -350l-209 -352l-209 352zM243 501l-152 -255l152 -257l152 257z" />
    <glyph glyph-name="dottedcircle" unicode="&#x25cc;" horiz-adv-x="401" 
d="M325 253c6 0 11.167 -2.33301 15.5 -7s6.5 -9.66699 6.5 -15c0 -6.66699 -2 -12.167 -6 -16.5s-9.33301 -6.5 -16 -6.5c-6 0 -11.167 2.16699 -15.5 6.5s-6.5 9.83301 -6.5 16.5c0 5.33301 2.16699 10.333 6.5 15s9.5 7 15.5 7zM76 253c5.33301 0 10.333 -2.33301 15 -7
s7 -9.66699 7 -15c0 -6.66699 -2.16699 -12.167 -6.5 -16.5s-9.5 -6.5 -15.5 -6.5c-6.66699 0 -12 2.16699 -16 6.5s-6 9.83301 -6 16.5c0 5.33301 2 10.333 6 15s9.33301 7 16 7zM112 166c6 0 11.167 -2.16699 15.5 -6.5s6.5 -9.83301 6.5 -16.5
c0 -5.33301 -2.16699 -10.166 -6.5 -14.499s-9.5 -6.5 -15.5 -6.5s-11.167 2.16699 -15.5 6.5s-6.5 9.16602 -6.5 14.499c0 6.66699 2.16699 12.167 6.5 16.5s9.5 6.5 15.5 6.5zM112 297c-6 0 -11.167 2.16699 -15.5 6.5s-6.5 9.5 -6.5 15.5c0 6.66699 2.16699 12 6.5 16
s9.5 6 15.5 6s11.167 -2 15.5 -6s6.5 -9.33301 6.5 -16c0 -6 -2.16699 -11.167 -6.5 -15.5s-9.5 -6.5 -15.5 -6.5zM289 297c-6 0 -11.167 2.16699 -15.5 6.5s-6.5 9.5 -6.5 15.5c0 6.66699 2.16699 12 6.5 16s9.5 6 15.5 6s11.167 -2 15.5 -6s6.5 -9.33301 6.5 -16
c0 -6 -2.16699 -11.167 -6.5 -15.5s-9.5 -6.5 -15.5 -6.5zM289 166c6 0 11.167 -2.16699 15.5 -6.5s6.5 -9.83301 6.5 -16.5c0 -5.33301 -2.16699 -10.166 -6.5 -14.499s-9.5 -6.5 -15.5 -6.5s-11.167 2.16699 -15.5 6.5s-6.5 9.16602 -6.5 14.499
c0 6.66699 2.16699 12.167 6.5 16.5s9.5 6.5 15.5 6.5zM201 127c5.33301 0 10.333 -2.16699 15 -6.5s7 -9.5 7 -15.5s-2.33301 -11.167 -7 -15.5s-9.66699 -6.5 -15 -6.5c-6 0 -11.167 2.16699 -15.5 6.5s-6.5 9.5 -6.5 15.5s2.16699 11.167 6.5 15.5s9.5 6.5 15.5 6.5z
M201 336c-6 0 -11.333 2.16699 -16 6.5s-7 9.5 -7 15.5s2.33301 11.167 7 15.5s10 6.5 16 6.5c5.33301 0 10.166 -2.16699 14.499 -6.5s6.5 -9.5 6.5 -15.5s-2.16699 -11.167 -6.5 -15.5s-9.16602 -6.5 -14.499 -6.5z" />
    <glyph glyph-name="uni0E10.alt1" unicode="&#xf700;" horiz-adv-x="432" 
d="M396 227c0 -32 -4.5 -61.6719 -13.5 -89.0049s-21.833 -51.333 -38.5 -72s-37 -36.834 -61 -48.501s-51 -17.5 -81 -17.5h-49l-64 174h-53v54h104l59 -170c22.667 0.666992 42 6 58 16s29 23 39 39s17.167 33.833 21.5 53.5s6.5 39.834 6.5 60.501
c0 18.667 -2.33301 36.334 -7 53.001s-12 31.334 -22 44.001s-22.667 22.834 -38 30.501s-33.333 11.5 -54 11.5c-10.667 0 -21.5 -1.5 -32.5 -4.5s-21.5 -7.33301 -31.5 -13s-18.667 -12.667 -26 -21s-13 -17.833 -17 -28.5h-71c7.33301 39.333 27.5 69.5 60.5 90.5
s72.5 33.167 118.5 36.5l214 20v-54l-121 -9v-1c34 -11.333 59 -30.666 75 -57.999s24 -59.666 24 -96.999z" />
    <glyph glyph-name="uni0E34.alt1" unicode="&#xf701;" 
d="M-158 484h-276v53h276v-53z" />
    <glyph glyph-name="uni0E35.alt1" unicode="&#xf702;" 
d="M-158 594v-110h-276v53h211v57h65z" />
    <glyph glyph-name="uni0E36.alt1" unicode="&#xf703;" 
d="M-216 599c20.667 0 36.335 -5.5 47.002 -16.5s16 -24.833 16 -41.5c0 -17.333 -5 -31.333 -15 -42s-25.333 -16 -46 -16h-220v54h159c-2.66699 20.667 2.66602 36.167 15.999 46.5s27.666 15.5 42.999 15.5zM-215.999 518c7.33301 0 13.166 2.16699 17.499 6.5
s6.5 9.83301 6.5 16.5s-2.16699 12.167 -6.5 16.5s-10.166 6.5 -17.499 6.5s-13 -2.16699 -17 -6.5s-6 -9.83301 -6 -16.5s2 -12.167 6 -16.5s9.66699 -6.5 17 -6.5z" />
    <glyph glyph-name="uni0E37.alt1" unicode="&#xf704;" 
d="M-158 594v-110h-276v53h123v57h54v-57h46v57h53z" />
    <glyph glyph-name="uni0E48.alt1" unicode="&#xf705;" 
d="M-179 483h-66v134h66v-134z" />
    <glyph glyph-name="uni0E49.alt1" unicode="&#xf706;" 
d="M-141 537l0.000976562 -53h-217v33c25.333 6.66699 41.5 15.167 48.5 25.5s10.5 19.833 10.5 28.5c0 7.33301 -4.66699 13.666 -14 18.999s-24 5.33301 -44 0v39c13.333 4.66699 27 7.33398 41 8.00098s26.833 -0.833008 38.5 -4.5s21.334 -9.33398 29.001 -17.001
s11.5 -17.167 11.5 -28.5c0 -10 -2.5 -20.167 -7.5 -30.5s-12.833 -19.166 -23.5 -26.499c11.333 2.66699 25.166 4.5 41.499 5.5s29.166 1.5 38.499 1.5h47z" />
    <glyph glyph-name="uni0E4A.alt1" unicode="&#xf707;" 
d="M-109 532l-0.00488281 -48.0029h-95v74c0 10.667 -1.5 18.5 -4.5 23.5s-9.83301 7.5 -20.5 7.5c-11.333 0 -18.666 -3.5 -21.999 -10.5s-5.66602 -15.167 -6.99902 -24.5h-38c-2.66699 12.667 -6 21.834 -10 27.501s-10.333 8.5 -19 8.5s-15 -2.33301 -19 -7
s-6 -12.667 -6 -24c0 -9.33301 2.33301 -17.166 7 -23.499s13.334 -9.5 26.001 -9.5h14v-40c-31.333 -1.33301 -57.166 2.33398 -77.499 11.001s-30.5 27.667 -30.5 57v7c0 22 5.66699 41.167 17 57.5s29.666 24.5 54.999 24.5c15.333 0 27.833 -3 37.5 -9
s17.834 -15 24.501 -27c11.333 24 31.333 36 60 36c26.667 0 45.334 -7.16699 56.001 -21.5s16 -33.5 16 -57.5v-32h36z" />
    <glyph glyph-name="uni0E4B.alt1" unicode="&#xf708;" 
d="M-131 530h-60v-47h-60v47h-59v48h59v47h60v-47h60v-48z" />
    <glyph glyph-name="uni0E4C.alt1" unicode="&#xf709;" 
d="M-163 611c20.667 2 43.501 4.00195 68.501 6.00195l62.5 5v-57c-14.667 -0.666992 -28.667 -1.66699 -42 -3c-11.333 -1.33301 -22.833 -2.33301 -34.5 -3s-20.834 -1.33398 -27.501 -2.00098c-15.333 -1.33301 -27 -3 -35 -5s-14 -4.83301 -18 -8.5
s-6.33301 -8.33398 -7 -14.001s-0.666992 -12.5 0 -20.5h-63c-0.666992 12.667 -0.666992 24.5 0 35.5s4 21 10 30s15.667 16.667 29 23s32.333 10.833 57 13.5z" />
    <glyph glyph-name="uni0E48.alt2" unicode="&#xf70a;" 
d="M-43 483h-65v134h65v-134z" />
    <glyph glyph-name="uni0E49.alt2" unicode="&#xf70b;" 
d="M-13 537v-53h-239v33c24.667 6.66699 40.5 15.167 47.5 25.5s10.5 19.833 10.5 28.5c0 7.33301 -4.66699 13.666 -14 18.999s-23.666 5.33301 -42.999 0v39c13.333 4.66699 27 7.33398 41 8.00098s26.833 -0.833008 38.5 -4.5s21.334 -9.33398 29.001 -17.001
s11.5 -17.167 11.5 -28.5c0 -10 -2.66699 -20.167 -8 -30.5s-13.333 -19.166 -24 -26.499c11.333 2.66699 25.166 4.5 41.499 5.5s29.166 1.5 38.499 1.5h70z" />
    <glyph glyph-name="uni0E4A.alt2" unicode="&#xf70c;" 
d="M-28 529l-0.00292969 -46.002h-105v75c0 10.667 -1.5 18.5 -4.5 23.5s-9.83301 7.5 -20.5 7.5c-11.333 0 -19.166 -3.5 -23.499 -10.5s-7.16602 -15.167 -8.49902 -24.5h-38c-4.66699 24 -15.334 36 -32.001 36c-8.66699 0 -15 -2.33301 -19 -7s-6 -12.667 -6 -24
c0 -9.33301 2.33301 -17.166 7 -23.499s13.334 -9.5 26.001 -9.5h14v-41c-31.333 -1.33301 -57.166 2.33398 -77.499 11.001s-30.5 27.667 -30.5 57v7c0 22.667 5.66699 42.167 17 58.5s29.666 24.5 54.999 24.5c30 0 51.667 -12 65 -36c11.333 24 32.333 36 63 36
c26.667 0 45.334 -7.16699 56.001 -21.5s16 -33.5 16 -57.5v-35h46z" />
    <glyph glyph-name="uni0E4B.alt2" unicode="&#xf70d;" 
d="M-18 530h-60v-47h-62v47h-60v48h60v47h62v-47h60v-48z" />
    <glyph glyph-name="uni0E4C.alt2" unicode="&#xf70e;" 
d="M-14 593v-57l-104 -8c-15.333 -1.33301 -27 -3.16602 -35 -5.49902s-14 -5.33301 -18 -9s-6.33301 -8.33398 -7 -14.001s-0.666992 -12.5 0 -20.5h-63c-0.666992 12.667 -0.666992 24.667 0 36s4 21.5 10 30.5s15.667 16.667 29 23s32.333 10.5 57 12.5z" />
    <glyph glyph-name="uni0E0D.alt1" unicode="&#xf70f;" horiz-adv-x="695" 
d="M398 172c0 -18 0.833984 -34.3281 2.50098 -48.9951s5.5 -27.167 11.5 -37.5s15.167 -18.333 27.5 -24s29.5 -8.5 51.5 -8.5c21.333 0 38.166 3.16699 50.499 9.5s21.5 15.166 27.5 26.499s9.83301 25.333 11.5 42s2.5 35.334 2.5 56.001v236h73v-260
c0 -62 -13.333 -105.667 -40 -131s-68.334 -38 -125.001 -38c-30.667 0 -56.5 3 -77.5 9s-38 15.667 -51 29s-22.5 30.666 -28.5 51.999s-9 47.666 -9 78.999v89c0 38 -8.33301 66.5 -25 85.5s-44.667 28.5 -84 28.5c-32.667 0 -58.667 -6.33301 -78 -19s-32 -34 -38 -64h90
v-32c-23.333 -8.66699 -41.666 -23.334 -54.999 -44.001s-20 -45 -20 -73c0 -32 6.5 -53.167 19.5 -63.5s30.5 -15.833 52.5 -16.5c6 -0.666992 12.167 -0.833984 18.5 -0.500977s13.166 1.16602 20.499 2.49902v-53c-11.333 -3.33301 -22.166 -5.5 -32.499 -6.5
s-20.5 -1.5 -30.5 -1.5c-34 0.666992 -62.667 11.167 -86 31.5s-35 51.5 -35 93.5c0 32.667 7.83301 60 23.5 82s32.5 37 50.5 45h-83c0 58.667 15.167 103.167 45.5 133.5s76.5 45.5 138.5 45.5c62.667 0 108.5 -14.167 137.5 -42.5s43.5 -69.833 43.5 -124.5v-87z" />
    <glyph glyph-name="uni0E31.alt1" unicode="&#xf710;" 
d="M-144 537l-0.000976562 -53.001l-139 -1c-26.667 0 -47.667 2.66699 -63 8s-26.833 12.666 -34.5 21.999s-12 20 -13 32s-0.833008 25 0.5 39h63c-1.33301 -19.333 1.33398 -32.166 8.00098 -38.499s23 -9.16602 49 -8.49902h129z" />
    <glyph glyph-name="uni0E4D.alt1" unicode="&#xf711;" 
d="M-228 598c23.333 0 42 -6.33301 56 -19s21 -29 21 -49s-7 -36.333 -21 -49s-32.667 -19 -56 -19s-41.833 6.16699 -55.5 18.5s-20.5 28.833 -20.5 49.5c0 20 7 36.333 21 49s32.333 19 55 19zM-228 500c9.33301 0 17 2.66699 23 8s9 12.666 9 21.999s-3 16.666 -9 21.999
s-13.667 8 -23 8s-16.833 -2.66699 -22.5 -8s-8.5 -12.666 -8.5 -21.999s2.83301 -16.666 8.5 -21.999s13.167 -8 22.5 -8z" />
    <glyph glyph-name="uni0E47.alt1" unicode="&#xf712;" 
d="M-301 601c-12.667 0 -22.668 -3 -30.001 -9s-11 -15.667 -11 -29c0 -14.667 4.33301 -24.334 13 -29.001s18.334 -7 29.001 -7c9.33301 0 18.333 3.5 27 10.5s14.667 17.167 18 30.5h28l80 -42v-50h-10l-75 40c-7.33301 -13.333 -18.5 -23.166 -33.5 -29.499
s-31.167 -9.5 -48.5 -9.5c-24.667 0 -45.167 6.83301 -61.5 20.5s-24.5 35.5 -24.5 65.5s9.33301 52.667 28 68s45.667 23 81 23h163v-53h-173v0z" />
    </font>
</defs>
</svg>
