<svg id="Layer_3" data-name="Layer 3" xmlns="http://www.w3.org/2000/svg" viewBox="0 0 91.19 87.44"><defs><style>.cls-1{fill:#fff;}.cls-2{fill:#6b92b2;}</style></defs><title>404</title><path class="cls-1" d="M89.38,65.54H11.43a6.63,6.63,0,0,1-6.62-6.62V34.29a6.63,6.63,0,0,1,6.62-6.63H89.38A6.63,6.63,0,0,1,96,34.29V58.92A6.63,6.63,0,0,1,89.38,65.54Zm-77.95-37a5.76,5.76,0,0,0-5.74,5.75V58.92a5.75,5.75,0,0,0,5.74,5.74H89.38a5.75,5.75,0,0,0,5.74-5.74V34.29a5.76,5.76,0,0,0-5.74-5.75Z" transform="translate(-4.81 -6.73)"/><path class="cls-1" d="M26.2,48.09v-4.8h7.7v4.8h3.19V54H33.9v4.84H26.2V54H14.37V48.6l7.35-14.84h7.92L22.79,48.09Z" transform="translate(-4.81 -6.73)"/><path class="cls-1" d="M61.57,46.3c0,8.24-4.12,12.83-11.51,12.83S38.52,54.54,38.52,46.3s4.09-12.79,11.54-12.79S61.57,38.06,61.57,46.3Zm-14.52,0c0,5.09.76,6.81,3,6.81s3-1.72,3-6.81-.75-6.77-3-6.77S47.05,41.21,47.05,46.3Z" transform="translate(-4.81 -6.73)"/><path class="cls-1" d="M75.54,48.09v-4.8h7.71v4.8h3.19V54H83.25v4.84H75.54V54H63.72V48.6l7.35-14.84H79L72.14,48.09Z" transform="translate(-4.81 -6.73)"/><path class="cls-1" d="M24.47,72.07h1.17V87.81h-1L21,76l.09,4.26v7.6H19.82V72.07h.93l3.86,12.17-.14-5.42Z" transform="translate(-4.81 -6.73)"/><path class="cls-1" d="M28.27,76.47c0-1.9.23-3.15.71-3.73a2.69,2.69,0,0,1,2.2-.87,2.17,2.17,0,0,1,2,1,3.77,3.77,0,0,1,.47,1.52,18.07,18.07,0,0,1,.1,2.11v6.69a11.28,11.28,0,0,1-.25,2.89A3.15,3.15,0,0,1,33,87.24a2.41,2.41,0,0,1-1.95.74,2.26,2.26,0,0,1-2.45-1.69,11.46,11.46,0,0,1-.33-3.13Zm4.2-.11a8.9,8.9,0,0,0-.27-2.64A1.1,1.1,0,0,0,31.08,73a1.16,1.16,0,0,0-1.16.78,7.7,7.7,0,0,0-.32,2.61v6.81A10.49,10.49,0,0,0,29.82,86a1.52,1.52,0,0,0,.5.77,1.28,1.28,0,0,0,.72.17,1.25,1.25,0,0,0,.71-.17,1.45,1.45,0,0,0,.49-.77,10.23,10.23,0,0,0,.23-2.79Z" transform="translate(-4.81 -6.73)"/><path class="cls-1" d="M35.36,72.07H39.8v1H38.32v14.7H37V73.11H35.36Z" transform="translate(-4.81 -6.73)"/><path class="cls-1" d="M44.6,72.07h4.13v1h-2.8v5.71h2.65v1.06H45.93v7.93H44.6Z" transform="translate(-4.81 -6.73)"/><path class="cls-1" d="M50.54,76.47c0-1.9.24-3.15.71-3.73a2.69,2.69,0,0,1,2.2-.87,2.16,2.16,0,0,1,2,1A3.94,3.94,0,0,1,56,74.36a20.91,20.91,0,0,1,.09,2.11v6.69a11.9,11.9,0,0,1-.24,2.89,3.49,3.49,0,0,1-.55,1.19,2.44,2.44,0,0,1-2,.74,2.26,2.26,0,0,1-2.45-1.69,11.46,11.46,0,0,1-.33-3.13Zm4.2-.11a8.9,8.9,0,0,0-.27-2.64A1.08,1.08,0,0,0,53.36,73a1.18,1.18,0,0,0-1.17.78,7.7,7.7,0,0,0-.32,2.61v6.81A11,11,0,0,0,52.09,86a1.52,1.52,0,0,0,.5.77,1.61,1.61,0,0,0,1.44,0,1.58,1.58,0,0,0,.49-.77,10.38,10.38,0,0,0,.22-2.79Z" transform="translate(-4.81 -6.73)"/><path class="cls-1" d="M62.78,72.07h1.33V83.76A7,7,0,0,1,63.55,87a2.91,2.91,0,0,1-4.4,0,6.82,6.82,0,0,1-.57-3.22V72.07h1.33V83.72a11,11,0,0,0,.14,2.18,1.2,1.2,0,0,0,1.25,1,1.3,1.3,0,0,0,1.14-.46,6,6,0,0,0,.34-2.7Z" transform="translate(-4.81 -6.73)"/><path class="cls-1" d="M71.51,72.07h1.16V87.81h-1L68,76l.09,4.26v7.6H66.85V72.07h.93l3.86,12.17-.13-5.42Z" transform="translate(-4.81 -6.73)"/><path class="cls-1" d="M75.52,72.07h2.42a2.52,2.52,0,0,1,2.7,1.73A8.86,8.86,0,0,1,81,76.56V83.3a6.49,6.49,0,0,1-.69,3.48,2.72,2.72,0,0,1-2.41,1H75.52Zm4.13,4.34a5.73,5.73,0,0,0-.39-2.47A1.29,1.29,0,0,0,78,73.18H76.84V86.66h1.1a1.39,1.39,0,0,0,1.45-1,8.56,8.56,0,0,0,.27-2.49Z" transform="translate(-4.81 -6.73)"/><path class="cls-2" d="M21.16,94v.13H20V91.91h.13V94Z" transform="translate(-4.81 -6.73)"/><path class="cls-2" d="M23.73,93a1.17,1.17,0,1,1-1.16-1.13A1.14,1.14,0,0,1,23.73,93Zm-2.19,0a1,1,0,1,0,1-1A1,1,0,0,0,21.54,93Z" transform="translate(-4.81 -6.73)"/><path class="cls-2" d="M26.35,93a1.17,1.17,0,1,1-1.17-1.13A1.14,1.14,0,0,1,26.35,93Zm-2.2,0a1,1,0,1,0,1-1A1,1,0,0,0,24.15,93Z" transform="translate(-4.81 -6.73)"/><path class="cls-2" d="M27.52,93l-.5.54v.61h-.14V91.91H27v1.46l1.35-1.46h.17l-.92,1,1,1.25h-.17Z" transform="translate(-4.81 -6.73)"/><path class="cls-2" d="M30.33,92.09l-.06.12a1.14,1.14,0,0,0-.59-.16c-.36,0-.59.15-.59.38,0,.69,1.32.34,1.32,1.17,0,.35-.32.57-.79.57a1.18,1.18,0,0,1-.8-.32l.07-.12a1.06,1.06,0,0,0,.73.31c.39,0,.64-.17.64-.44,0-.7-1.32-.34-1.32-1.16,0-.32.3-.53.74-.53A1.26,1.26,0,0,1,30.33,92.09Z" transform="translate(-4.81 -6.73)"/><path class="cls-2" d="M33.09,94v.13H32V91.91h.14V94Z" transform="translate(-4.81 -6.73)"/><path class="cls-2" d="M33.57,94.17V91.91h.14v2.26Z" transform="translate(-4.81 -6.73)"/><path class="cls-2" d="M35.11,93l-.49.54v.61h-.14V91.91h.14v1.46L36,91.91h.16l-.92,1,1,1.25H36Z" transform="translate(-4.81 -6.73)"/><path class="cls-2" d="M36.82,92.05V93H38v.13H36.82v1h1.36v.13h-1.5V91.91h1.46v.14Z" transform="translate(-4.81 -6.73)"/><path class="cls-2" d="M40.26,92.05v2.12h-.14V92.05h-.76v-.14H41v.14Z" transform="translate(-4.81 -6.73)"/><path class="cls-2" d="M43.11,94.17V93.11H41.58v1.06h-.14V91.91h.14V93h1.53V91.91h.13v2.26Z" transform="translate(-4.81 -6.73)"/><path class="cls-2" d="M44,94.17V91.91h.13v2.26Z" transform="translate(-4.81 -6.73)"/><path class="cls-2" d="M46.17,92.09l-.06.12a1.14,1.14,0,0,0-.59-.16c-.36,0-.59.15-.59.38,0,.69,1.33.34,1.32,1.17,0,.35-.31.57-.78.57a1.22,1.22,0,0,1-.81-.32l.07-.12a1.08,1.08,0,0,0,.74.31c.39,0,.64-.17.64-.44,0-.7-1.32-.34-1.32-1.16,0-.32.29-.53.74-.53A1.2,1.2,0,0,1,46.17,92.09Z" transform="translate(-4.81 -6.73)"/><path class="cls-2" d="M48.59,91.91c.56,0,.87.28.87.75s-.31.76-.87.76h-.65v.75H47.8V91.91Zm-.65,1.38h.65c.47,0,.74-.23.74-.63s-.27-.61-.74-.61h-.65Z" transform="translate(-4.81 -6.73)"/><path class="cls-2" d="M49.91,93.53l-.29.64h-.14l1-2.26h.14l1,2.26h-.15l-.3-.64Zm.66-1.46L50,93.39h1.2Z" transform="translate(-4.81 -6.73)"/><path class="cls-2" d="M53.77,93.06v.82a1.27,1.27,0,0,1-.81.29,1.13,1.13,0,1,1,0-2.26,1.2,1.2,0,0,1,.8.3l-.09.1A1,1,0,0,0,53,92a1,1,0,1,0,0,2,1.06,1.06,0,0,0,.67-.24v-.75Z" transform="translate(-4.81 -6.73)"/><path class="cls-2" d="M54.62,92.05V93H55.8v.13H54.62v1H56v.13h-1.5V91.91h1.46v.14Z" transform="translate(-4.81 -6.73)"/><path class="cls-2" d="M58.41,91.91a1.13,1.13,0,1,1,0,2.26h-.9V91.91ZM57.65,94h.76a1,1,0,1,0,0-2h-.76Z" transform="translate(-4.81 -6.73)"/><path class="cls-2" d="M62.18,93A1.17,1.17,0,1,1,61,91.91,1.14,1.14,0,0,1,62.18,93ZM60,93a1,1,0,1,0,1-1A1,1,0,0,0,60,93Z" transform="translate(-4.81 -6.73)"/><path class="cls-2" d="M62.85,92.05V93H64v.13H62.85v1h1.37v.13h-1.5V91.91h1.45v.14Z" transform="translate(-4.81 -6.73)"/><path class="cls-2" d="M66.05,92.09l-.06.12a1.14,1.14,0,0,0-.59-.16c-.36,0-.59.15-.59.38,0,.69,1.33.34,1.32,1.17,0,.35-.31.57-.78.57a1.22,1.22,0,0,1-.81-.32l.07-.12a1.08,1.08,0,0,0,.74.31c.39,0,.64-.17.64-.44,0-.7-1.32-.34-1.32-1.16,0-.32.29-.53.74-.53A1.2,1.2,0,0,1,66.05,92.09Z" transform="translate(-4.81 -6.73)"/><path class="cls-2" d="M68.38,94.17l-1.5-2v2h-.14V91.91h.16l1.51,2v-2h.13v2.26Z" transform="translate(-4.81 -6.73)"/><path class="cls-2" d="M69.12,92.57v-.66h.11v.66Z" transform="translate(-4.81 -6.73)"/><path class="cls-2" d="M70.36,92.05v2.12h-.13V92.05h-.77v-.14h1.66v.14Z" transform="translate(-4.81 -6.73)"/><path class="cls-2" d="M72.62,92.05V93H73.8v.13H72.62v1H74v.13h-1.5V91.91H74v.14Z" transform="translate(-4.81 -6.73)"/><path class="cls-2" d="M76.13,94.17H76l-.77-1-.76,1h-.16L75.12,93l-.77-1.1h.15l.7,1,.71-1h.16L75.29,93Z" transform="translate(-4.81 -6.73)"/><path class="cls-2" d="M76.64,94.17V91.91h.13v2.26Z" transform="translate(-4.81 -6.73)"/><path class="cls-2" d="M78.79,92.09l-.06.12a1.14,1.14,0,0,0-.59-.16c-.36,0-.59.15-.59.38,0,.69,1.33.34,1.32,1.17,0,.35-.31.57-.78.57a1.22,1.22,0,0,1-.81-.32l.07-.12a1.08,1.08,0,0,0,.74.31c.39,0,.64-.17.64-.44,0-.7-1.32-.34-1.32-1.16,0-.32.29-.53.74-.53A1.2,1.2,0,0,1,78.79,92.09Z" transform="translate(-4.81 -6.73)"/><path class="cls-2" d="M80,92.05v2.12h-.14V92.05h-.76v-.14h1.66v.14Z" transform="translate(-4.81 -6.73)"/><path class="cls-1" d="M32.37,6.93h4.15V8H33.7v6.15h2.65V15.2H33.7v6.41h2.8v1.06H32.37Z" transform="translate(-4.81 -6.73)"/><path class="cls-1" d="M38.7,6.93h2.68a2.69,2.69,0,0,1,2.16.68,2.57,2.57,0,0,1,.53,1.25A16.07,16.07,0,0,1,44.18,11a6.65,6.65,0,0,1-.33,2.29,1.64,1.64,0,0,1-1.12,1.11,1.39,1.39,0,0,1,.53.19,1.17,1.17,0,0,1,.38.47c.35.68.53,2.37.53,5.06,0,1.11,0,1.76,0,1.93a3.55,3.55,0,0,0,.16.62H43a2.81,2.81,0,0,1-.17-1c0-.49,0-1.29,0-2.38V17.54a6.41,6.41,0,0,0-.2-2.1c-.13-.29-.53-.44-1.19-.44L40,14.91v7.76H38.7Zm4.14,3.8A9.25,9.25,0,0,0,42.73,9a1.2,1.2,0,0,0-.37-.75,1.44,1.44,0,0,0-.84-.2H40v6h1.39a1.36,1.36,0,0,0,.93-.23,1.5,1.5,0,0,0,.37-.77,12.25,12.25,0,0,0,.12-2.16Z" transform="translate(-4.81 -6.73)"/><path class="cls-1" d="M46.78,6.93h2.67a2.73,2.73,0,0,1,2.17.68,2.66,2.66,0,0,1,.52,1.25A16.07,16.07,0,0,1,52.25,11a6.65,6.65,0,0,1-.33,2.29A1.62,1.62,0,0,1,50.8,14.4a1.33,1.33,0,0,1,.53.19,1.17,1.17,0,0,1,.38.47c.36.68.53,2.37.53,5.06,0,1.11,0,1.76,0,1.93a2.94,2.94,0,0,0,.17.62H51.12a2.43,2.43,0,0,1-.17-1c0-.49,0-1.29,0-2.38V17.54a6.71,6.71,0,0,0-.2-2.1c-.14-.29-.53-.44-1.2-.44l-1.41-.09v7.76H46.78Zm4.14,3.8A10.2,10.2,0,0,0,50.81,9a1.2,1.2,0,0,0-.38-.75A1.39,1.39,0,0,0,49.6,8H48.1v6h1.4a1.33,1.33,0,0,0,.92-.23,1.42,1.42,0,0,0,.37-.77,11,11,0,0,0,.13-2.16Z" transform="translate(-4.81 -6.73)"/><path class="cls-1" d="M54.62,11.33q0-2.85.72-3.72a2.65,2.65,0,0,1,2.2-.88,2.16,2.16,0,0,1,2,1,4,4,0,0,1,.48,1.52,20.58,20.58,0,0,1,.1,2.11V18a11.73,11.73,0,0,1-.25,2.88,3.23,3.23,0,0,1-.55,1.19,2.44,2.44,0,0,1-2,.75A2.28,2.28,0,0,1,55,21.16,11.56,11.56,0,0,1,54.62,18Zm4.2-.11a8.78,8.78,0,0,0-.27-2.63,1.07,1.07,0,0,0-1.11-.76,1.18,1.18,0,0,0-1.17.78,7.6,7.6,0,0,0-.32,2.6V18a10.24,10.24,0,0,0,.23,2.78,1.6,1.6,0,0,0,.49.78,1.61,1.61,0,0,0,1.44,0,1.6,1.6,0,0,0,.49-.78A10.34,10.34,0,0,0,58.82,18Z" transform="translate(-4.81 -6.73)"/><path class="cls-1" d="M62.78,6.93h2.68a2.69,2.69,0,0,1,2.16.68,2.47,2.47,0,0,1,.52,1.25A14.24,14.24,0,0,1,68.26,11a6.65,6.65,0,0,1-.33,2.29,1.64,1.64,0,0,1-1.12,1.11,1.39,1.39,0,0,1,.53.19,1.17,1.17,0,0,1,.38.47c.35.68.53,2.37.53,5.06,0,1.11,0,1.76,0,1.93a2.83,2.83,0,0,0,.16.62H67.12a2.81,2.81,0,0,1-.17-1c0-.49,0-1.29,0-2.38V17.54a6.41,6.41,0,0,0-.2-2.1c-.13-.29-.53-.44-1.19-.44l-1.41-.09v7.76H62.78Zm4.14,3.8A9.25,9.25,0,0,0,66.81,9a1.2,1.2,0,0,0-.37-.75A1.44,1.44,0,0,0,65.6,8H64.11v6H65.5a1.36,1.36,0,0,0,.93-.23A1.5,1.5,0,0,0,66.8,13a12.25,12.25,0,0,0,.12-2.16Z" transform="translate(-4.81 -6.73)"/></svg>