<svg id="Layer_2" data-name="Layer 2" xmlns="http://www.w3.org/2000/svg" viewBox="0 0 197.99 319.18"><defs><style>.cls-1{fill:#8f8f8f;}.cls-2{fill:#6b6b6b;}.cls-3{fill:#898989;}.cls-4{fill:#d8d8d8;}.cls-5{opacity:0.12;}.cls-6{fill:#ededed;}.cls-7{opacity:0.1;}.cls-8{fill:#c4c4c4;}.cls-9{fill:#fc3d21;}.cls-10{fill:#9e9e9e;}.cls-11{fill:#4f4f4f;}.cls-12{fill:#777;}.cls-13{fill:#b2b2b2;}.cls-14{fill:#0b3d91;}.cls-15{fill:#c1c1c1;}.cls-16{fill:#d1d1d1;}.cls-17{fill:#bfbfbf;}.cls-18{fill:#a5a5a5;}.cls-19,.cls-22{fill:#fff;}.cls-19{opacity:0.33;}.cls-20{fill:#292534;}.cls-21{fill:#000014;}</style></defs><title>astronaut</title><rect class="cls-1" x="51.98" y="36.27" width="13.37" height="29.72" rx="6.65"/><path class="cls-2" d="M69.25,121.72a6.68,6.68,0,0,0,5.89-6.6V98.92a6.68,6.68,0,0,0-6.06-6.62,51.3,51.3,0,0,0,.17,29.42Z" transform="translate(-9.79 -55.82)"/><rect class="cls-1" x="154.49" y="36.27" width="13.37" height="29.72" rx="6.65"/><path class="cls-2" d="M170.08,121.72a6.61,6.61,0,0,1-5.8-6.6V98.92a6.61,6.61,0,0,1,6-6.62,51.08,51.08,0,0,1-.17,29.42Z" transform="translate(-9.79 -55.82)"/><rect class="cls-2" x="59.9" y="77.38" width="104" height="116.88" rx="11.75"/><path class="cls-3" d="M161.94,133.2H81.44A11.75,11.75,0,0,0,69.69,145v2.47a11.75,11.75,0,0,1,11.75-11.75h80.5a11.75,11.75,0,0,1,11.75,11.75V145A11.75,11.75,0,0,0,161.94,133.2Z" transform="translate(-9.79 -55.82)"/><circle class="cls-4" cx="119.63" cy="106.73" r="50.91" transform="matrix(1, -0.08, 0.08, 1, -18.06, -45.76)"/><path class="cls-5" d="M125.41,156.49A50.92,50.92,0,0,1,112.48,56.32,50.92,50.92,0,1,0,132.56,156,52.67,52.67,0,0,1,125.41,156.49Z" transform="translate(-9.79 -55.82)"/><path class="cls-6" d="M119.63,55.82a50.83,50.83,0,0,0-19.54,3.88,50.93,50.93,0,0,1,32.13,96.38A50.92,50.92,0,0,0,119.63,55.82Z" transform="translate(-9.79 -55.82)"/><path class="cls-4" d="M78.92,207s-13.78,60,6.59,116.7h28.75s7.19-26.25,7.79-64c0,0,4.2.53,3.8.13,1.59,13.21,2.66,52.29,4.59,62.13H161s22.76-74.21,3.59-122.13c0,0,16.78,13.21,18,25.79,0,0-3.59,21.58.6,22.78s6.59-15,10.19-12-6,10.79-4.8,16.78,29-2.26,15.58-25.76c-4.79-8.38-3.6-16.17-6-28.15s-6.59-31.15-35.34-57.51c0,0-38.94,24.56-84.47-.6,0,0-36.54,4.8-43.73-40.73,0,0,7.19-12.58,6-16.17s-4.19,3-8.38,0,1.8-13.18-9-15-19.77,21.07-5.39,36C17.82,105.35,4.64,154.57,78.92,207Z" transform="translate(-9.79 -55.82)"/><path class="cls-7" d="M156.94,192.9c21.12,52.07,2.54,107.2-.58,129H161s22.76-74.17,3.59-122.1c0,0,16.78,13.23,18,25.81,0,0-2.1,12.66-1.2,19.12C197.63,204.62,156.94,192.9,156.94,192.9Z" transform="translate(-9.79 -55.82)"/><path class="cls-6" d="M204.12,227.45c-4.79-8.38-3.6-16.17-6-28.15s-6.59-31.15-35.34-57.51c0,0-38.94,24.56-84.47-.6,0,0-36.54,4.8-43.73-40.73,0,0,7.19-12.58,6-16.17s-4.19,3-8.38,0,1.8-13.18-9-15c-3.44-.57-6.7,1.37-9.07,4.76a7.77,7.77,0,0,1,5.6-1.29c10.78,1.8,4.79,12,9,15s7.19-3.6,8.38,0-6,16.17-6,16.17c7.19,45.53,43.73,40.73,43.73,40.73,45.53,25.16,84.47.6,84.47.6,28.75,26.36,32.94,45.53,35.34,57.51s1.2,19.77,6,28.15c5.29,9.26,4.18,16.14.82,20.73C207.08,247.47,211,239.45,204.12,227.45Z" transform="translate(-9.79 -55.82)"/><path class="cls-8" d="M88.4,321.38C68,264.68,81.82,204.67,81.82,204.67,7.54,152.26,20.71,103,20.71,103,10.43,92.33,12.1,77.58,17.83,70.71,9.63,75,5.09,93.28,17.24,105.93c0,0-13.18,49.22,61.1,101.63,0,0-13.77,60,6.59,116.71h28.76s.27-1,.72-2.89Z" transform="translate(-9.79 -55.82)"/><path class="cls-9" d="M121.59,272.79,73.91,262.5c.06,2,.15,4.1.27,6.19l47,10.14C121.34,276.87,121.48,274.85,121.59,272.79Z" transform="translate(-9.79 -55.82)"/><path class="cls-7" d="M110.75,322a8.42,8.42,0,0,0-.54,2.36h4.05s7.19-26.31,7.79-64.05l-6.86-2S114.42,312.56,110.75,322Z" transform="translate(-9.79 -55.82)"/><rect class="cls-10" x="71.55" y="263.27" width="34.74" height="8.39" rx="3.89"/><path class="cls-11" d="M81.37,323.88a3.89,3.89,0,0,0,3.86,3.59h27a3.88,3.88,0,0,0,3.86-3.59Z" transform="translate(-9.79 -55.82)"/><path class="cls-10" d="M83.34,332.26s.79,5.59,1.19,9.59.4,6.39-6.39,11.18-14.77,21.16,9.19,20.76,25.1-4.77,26-22c.4-8,1.6-19.57,1.6-19.57Z" transform="translate(-9.79 -55.82)"/><path class="cls-12" d="M106.5,332.26s-1.2,11.58-1.6,19.57c-.81,16.13-1.86,22-21.76,23a39.61,39.61,0,0,0,4.19.13c24-.4,25.1-6,26-23.16.4-8,1.6-19.57,1.6-19.57Z" transform="translate(-9.79 -55.82)"/><path class="cls-11" d="M88.53,369c-11.68.2-15.76-3.88-16.1-8.66-2.94,6.72-1.56,14.93,14.9,14.65,20.15-.33,24.15-4.33,25.43-15.81C110.44,366.11,104.66,368.73,88.53,369Z" transform="translate(-9.79 -55.82)"/><rect class="cls-10" x="71.55" y="271.65" width="34.74" height="8.39" rx="3.89"/><path class="cls-11" d="M81.37,332.26a3.89,3.89,0,0,0,3.86,3.6h27a3.88,3.88,0,0,0,3.86-3.6Z" transform="translate(-9.79 -55.82)"/><path class="cls-11" d="M86.53,334.66a7,7,0,0,1,4.38.44c1.43.66,6.4-2.41,7-.89,1.35,3.08,0,17.22-11.17,19.69a10.54,10.54,0,0,1-8.65-.87,14.73,14.73,0,0,0,7.52-1.73,12.33,12.33,0,0,0,4.81-5.11,10.3,10.3,0,0,0,1.14-6.69A5.6,5.6,0,0,0,90,336.57,9.31,9.31,0,0,0,86.53,334.66Z" transform="translate(-9.79 -55.82)"/><rect class="cls-10" x="117.72" y="263.27" width="34.74" height="8.39" rx="3.89"/><path class="cls-11" d="M162.22,323.88a3.88,3.88,0,0,1-3.86,3.59h-27a3.89,3.89,0,0,1-3.87-3.59Z" transform="translate(-9.79 -55.82)"/><path class="cls-10" d="M160.26,332.26s-.8,5.59-1.2,9.59-.4,6.39,6.39,11.18,14.77,21.16-9.19,20.76-25.09-4.77-25.95-22c-.4-8-1.6-19.57-1.6-19.57Z" transform="translate(-9.79 -55.82)"/><path class="cls-12" d="M137.09,332.26s1.2,11.58,1.6,19.57c.81,16.13,1.86,21.45,21.76,22.45a39.53,39.53,0,0,1-4.19.13c-24-.39-25.09-5.39-25.95-22.58-.4-8-1.6-19.57-1.6-19.57Z" transform="translate(-9.79 -55.82)"/><path class="cls-11" d="M155.07,369c11.67.2,15.75-3.88,16.09-8.66,3,6.72,1.56,14.93-14.9,14.65-20.14-.33-24.15-4.33-25.43-15.81C133.15,366.11,138.93,368.73,155.07,369Z" transform="translate(-9.79 -55.82)"/><rect class="cls-10" x="117.72" y="271.65" width="34.74" height="8.39" rx="3.89"/><path class="cls-11" d="M162.22,332.26a3.88,3.88,0,0,1-3.86,3.6h-27a3.89,3.89,0,0,1-3.87-3.6Z" transform="translate(-9.79 -55.82)"/><path class="cls-11" d="M157.06,334.66a7,7,0,0,0-4.38.44c-1.43.66-6.39-2.41-7.05-.89-1.34,3.08,0,17.22,11.18,19.69a10.51,10.51,0,0,0,8.64-.87,14.73,14.73,0,0,1-7.52-1.73,12.33,12.33,0,0,1-4.81-5.11A10.23,10.23,0,0,1,152,339.5a5.58,5.58,0,0,1,1.64-2.93A9.39,9.39,0,0,1,157.06,334.66Z" transform="translate(-9.79 -55.82)"/><path class="cls-9" d="M126.89,273.14c.12,1.93.24,4,.36,6.05l43.94-10.25v0c.19-2,.51-4.11.51-6.19v0Z" transform="translate(-9.79 -55.82)"/><path class="cls-13" d="M172.25,249.28l.08-3c-49.23,8.26-93.75-1.14-98.3-2.19-.06,1.35-.11,2.72-.15,4.12a272.69,272.69,0,0,0,55.47,5.49,264.15,264.15,0,0,0,42.89-3.4C172.24,250,172.24,249.62,172.25,249.28Z" transform="translate(-9.79 -55.82)"/><path class="cls-14" d="M104.68,173.31a7.7,7.7,0,1,1-7.7-7.7A7.7,7.7,0,0,1,104.68,173.31Z" transform="translate(-9.79 -55.82)"/><path class="cls-9" d="M87.71,175.6c1.13-.62,2.3-1.16,3.46-1.7s2.34-1,3.53-1.52q3.54-1.45,7.16-2.71l3.3-1.15-2.22,2.71q-2.4,3-5,5.76c-.86.94-1.76,1.85-2.65,2.76s-1.82,1.79-2.81,2.62c.64-1.12,1.34-2.19,2-3.26S96,177,96.73,176c1.5-2,3.07-4,4.69-6l1.08,1.57c-2.41.82-4.85,1.59-7.31,2.28-1.23.35-2.47.66-3.71,1S89,175.38,87.71,175.6Z" transform="translate(-9.79 -55.82)"/><path class="cls-8" d="M78.34,207.56a200.84,200.84,0,0,0-3.47,23.93c6.1-18.3,11.2-41.44,11.2-41.44-59-12.15-68.83-84.12-68.83-84.12S4.06,155.15,78.34,207.56Z" transform="translate(-9.79 -55.82)"/><path class="cls-15" d="M139.6,205H108.73a3.88,3.88,0,0,1-3.88-3.88v-17a3.88,3.88,0,0,1,3.88-3.88H139.6a3.88,3.88,0,0,1,3.88,3.88v17A3.88,3.88,0,0,1,139.6,205Zm-30.87-22.78a1.91,1.91,0,0,0-1.9,1.9v17a1.91,1.91,0,0,0,1.9,1.9H139.6a1.91,1.91,0,0,0,1.9-1.9v-17a1.9,1.9,0,0,0-1.9-1.9Z" transform="translate(-9.79 -55.82)"/><rect class="cls-16" x="106.45" y="128.89" width="14.36" height="16.34" rx="2.89"/><path class="cls-17" d="M119.17,154.14a82.55,82.55,0,0,1-15.83-1.53c-14.66-2.87-23.68-8.69-24.06-8.94a2.89,2.89,0,1,1,3.16-4.84c.14.09,8.68,5.54,22.26,8.15,18.18,3.5,36.31.52,53.87-8.86a2.9,2.9,0,0,1,2.73,5.11A88.89,88.89,0,0,1,119.17,154.14Z" transform="translate(-9.79 -55.82)"/><path class="cls-1" d="M161.87,140.33a88.71,88.71,0,0,1-42.12,10.91,82.53,82.53,0,0,1-15.83-1.52c-14.66-2.87-23.68-8.69-24.06-8.94a2.86,2.86,0,0,1-1.14-1.46,2.39,2.39,0,0,0-.28.35,2.89,2.89,0,0,0,.84,4c.38.25,9.4,6.07,24.06,8.94a82.55,82.55,0,0,0,15.83,1.53,88.89,88.89,0,0,0,42.13-10.91,2.9,2.9,0,0,0,1.35-3.52A2.64,2.64,0,0,1,161.87,140.33Z" transform="translate(-9.79 -55.82)"/><path class="cls-18" d="M121.17,193a1.45,1.45,0,1,1-1.45-1.44A1.45,1.45,0,0,1,121.17,193Z" transform="translate(-9.79 -55.82)"/><path class="cls-18" d="M121.17,188.41a1.45,1.45,0,1,1-1.45-1.45A1.44,1.44,0,0,1,121.17,188.41Z" transform="translate(-9.79 -55.82)"/><path class="cls-18" d="M121.17,197.66a1.45,1.45,0,1,1-2.89,0,1.45,1.45,0,0,1,2.89,0Z" transform="translate(-9.79 -55.82)"/><path class="cls-18" d="M127.53,193a1.45,1.45,0,1,1-1.44-1.44A1.45,1.45,0,0,1,127.53,193Z" transform="translate(-9.79 -55.82)"/><path class="cls-18" d="M127.53,188.41a1.45,1.45,0,1,1-1.44-1.45A1.44,1.44,0,0,1,127.53,188.41Z" transform="translate(-9.79 -55.82)"/><path class="cls-18" d="M127.53,197.66a1.45,1.45,0,1,1-1.44-1.44A1.45,1.45,0,0,1,127.53,197.66Z" transform="translate(-9.79 -55.82)"/><path class="cls-14" d="M164.37,158.8l6.56,7.33,8.37-6.93q-2.55-3.16-5.6-6.51Z" transform="translate(-9.79 -55.82)"/><path class="cls-19" d="M169.91,155.17q3.27,3.54,6,6.86l3.42-2.83q-2.55-3.16-5.6-6.51Z" transform="translate(-9.79 -55.82)"/><path class="cls-15" d="M104,213.77a4.63,4.63,0,1,1-4.62-4.63A4.63,4.63,0,0,1,104,213.77Z" transform="translate(-9.79 -55.82)"/><path class="cls-15" d="M96.48,225.34a4.63,4.63,0,1,1-4.63-4.63A4.63,4.63,0,0,1,96.48,225.34Z" transform="translate(-9.79 -55.82)"/><path class="cls-15" d="M97.64,238.65A4.63,4.63,0,1,1,93,234,4.62,4.62,0,0,1,97.64,238.65Z" transform="translate(-9.79 -55.82)"/><path class="cls-15" d="M141,213.77a4.63,4.63,0,1,0,4.63-4.63A4.63,4.63,0,0,0,141,213.77Z" transform="translate(-9.79 -55.82)"/><path class="cls-15" d="M148.55,225.34a4.63,4.63,0,1,0,4.63-4.63A4.64,4.64,0,0,0,148.55,225.34Z" transform="translate(-9.79 -55.82)"/><circle class="cls-15" cx="142.24" cy="182.83" r="4.63"/><rect class="cls-17" x="70.3" y="14.98" width="78.75" height="71.81" rx="35.87"/><path class="cls-20" d="M157.81,106.73a34.72,34.72,0,0,1-34.71,34.72h-6.95a34.72,34.72,0,0,1-34.71-34.72h0A34.71,34.71,0,0,1,116.15,72h6.95a34.71,34.71,0,0,1,34.71,34.71Z" transform="translate(-9.79 -55.82)"/><path class="cls-21" d="M138.72,75.73a34.71,34.71,0,0,1-22.57,61.09h-6.94a35,35,0,0,1-15.62-4.21c6.07,5.19,14,8.84,22.56,8.84h6.95a34.72,34.72,0,0,0,15.62-65.72Z" transform="translate(-9.79 -55.82)"/><path class="cls-22" d="M108.05,77.42S82.6,87.06,90.7,118.3c0,0-2.12-24.88,28.73-38.38C119.43,77.61,108.05,77.42,108.05,77.42Z" transform="translate(-9.79 -55.82)"/></svg>