<svg xmlns="http://www.w3.org/2000/svg" viewBox="0 0 86.85 86.85"><defs><style>.cls-1{isolation:isolate;}.cls-2{fill:#1b96c1;}.cls-3{fill:#93da00;}.cls-4{fill:#1991f7;opacity:0.2;mix-blend-mode:multiply;}</style></defs><title>earth</title><g class="cls-1"><g id="Layer_2" data-name="Layer 2"><path class="cls-2" d="M94,50.26A43.43,43.43,0,1,1,50.57,6.83,43.42,43.42,0,0,1,94,50.26Z" transform="translate(-7.15 -6.83)"/><path class="cls-3" d="M83.61,30.79h0m0,0h0m0,0h0m0,0h0m0,0h0m0,0h0m0,0h0m0,0h0m0,0h0m0,0h0m0,0h0m0,0h0M70.07,11.85h0l.09,0-.06,0m18.68,17.7c.5,1,1.18,2.31,1.63,3.32a.43.43,0,0,1,0,.05c0-.06-.07-.13-.29-.53L91,34.76l-.09.05-.11-.13c-.11,0-.13,0-.25-.26-.35-.79-.48-.24-.5-.17-.18-.06-.28-.32-.43-.72a2.75,2.75,0,0,0-.57-1c-.16-.47-.16-.47-.5-.66a3,3,0,0,1,0,.61c-.1.43-.44.75-.54,1.18A10.8,10.8,0,0,1,87.8,35c0,.11-.12.18-.52.49a3.51,3.51,0,0,1-.21-.82l.05,0,.06,0,.06,0,.05,0,.06,0,.05,0,.06,0s0,0,.05,0c-.11-.6-.2-1-.36-1.69a.56.56,0,0,0-.05-.08.31.31,0,0,0,0-.1L87,32.33a.75.75,0,0,0-.07-.12.83.83,0,0,0-.07-.13.64.64,0,0,0-.08-.14,1.09,1.09,0,0,1-.08-.15l-.09-.16A5.09,5.09,0,0,0,85.66,29h.52c-.15-.54-.26-.88-.45-1.42L87.59,29a3.19,3.19,0,0,1,1,1.76l-.24-.24a2.08,2.08,0,0,0,.84,1.18A9,9,0,0,0,87.85,29l.11-.1c-.19-.31-.19-.31-1.21-1.22s-1.06-1-1.37-1.64a11.66,11.66,0,0,1,3.73,4.43v-.16a0,0,0,0,0,0,0v0c-.52-1-.52-1-1.79-3.14a25.61,25.61,0,0,1,1.38,2.22l.11.21m-3.87-5.92L86.58,26v0c-1.38-2-1.4-2-2.4-3.24h0l0,0,.68.85m-8.77-8a1.09,1.09,0,0,1,.33.43,1.3,1.3,0,0,1-.15-.1l-.15-.23s0-.09-.08-.14l0,0m0-.06v0l0,0h0m0,0,0,0,.14.09-.21-.14h0m0,0-.32-.24.08,0,.24.2m-6-3.95c.31.18.65.3,1,.45a.32.32,0,0,1,0,.14,2.3,2.3,0,0,0,.32.15c.4.14.47.16.6.29h0s0,0-.15,0l-.19-.1-.19-.09-.19-.1-.2-.09-.2-.1-.2-.1-.21-.1-.21-.09-.08,0,.14.09-.35-.13c.1-.06.22,0,.32-.06s-.19-.15-.19-.15h0m0,0c-.12,0-.26-.12-.37-.17l.08,0,.29.14m-2.75-1.34h0l-.08,0L67,10.2l-.18,0,0,0,0,0,0,0,0,0,0,0,0,0,0,0a11,11,0,0,1,1.09.41l1.12.44c-.72-.12-1.41-.39-2.12-.54l-.16,0,0,0,0,0,0,0,0,0,0,0,0,0,0,0-.54-.16.25.2h-.13a3.47,3.47,0,0,0-.94-.36c0,.08,0,.18,0,.25a8.13,8.13,0,0,0,1,.51l-.26-.07c5.18,3,5.75,3.6,6.89,4.74l0,.07c.45.43.56.55,1,1l.34.24.33.25.33.25.33.24.31.25.31.25.31.24.3.25.52.28,0,0,0,0a.05.05,0,0,0,0,0s0,0,0,0l0,0a.08.08,0,0,0,0,0l0,0s0,0,0,0a5.73,5.73,0,0,1-.57-.69,7.06,7.06,0,0,1,2.05,1.46c.09.14.12.17.15.19l.08.07.07.07.08.06a.46.46,0,0,0,.07.07l.08.07.08.08.09.08c0-1.65-7.28-6.4-8.11-6.93a.28.28,0,0,1-.1-.09v0l0,0a.08.08,0,0,0,0,0,0,0,0,0,0,0,0v0l0,0,0,0c1.63,1,3.42,2.29,3.94,2.65a27.71,27.71,0,0,1,2.86,1.8c-.07.21,0,.27.08.32l.21.17.21.17.2.17.21.17.2.17.2.17.19.17.4.52c0,.29,0,.29.27.78l-.25.09.07.27c-1.27,0-1.55-1.26-2.35-1.86.92,2,2.92,3.22,3.62,5.35l0,.06s0,0,0,0l.05.06,0,.06,0,.05,0,.06,0,.06.05.06c0,.17.09.38.12.54l-.25.08a1.54,1.54,0,0,0,.37.81l-.3.08c-.13.09-.09.14-.06.18a1.13,1.13,0,0,0,.1.13l.08.11.09.11a.76.76,0,0,0,.08.11.86.86,0,0,1,.07.1l.07.09.07.1c.28-.05.85-.15,2.35,2.33l-.14.13-.15.13-.16.12L84.2,30l-.17.13-.16.11-.16.12-.17.11A18,18,0,0,0,86,34.94l.24-.13c1.46.58,1.4,6.6,1.39,6.66l0,0,0,0,0,0,0,0,0,0-.05,0-.06,0-.06,0a17.62,17.62,0,0,1,0,3.11A29.21,29.21,0,0,0,88.16,53c.46,1.67,1.83,2.8,2.55,4.33a16.43,16.43,0,0,1,.94-1.5h.26a.2.2,0,0,0,.25-.05c.27-.77.71-1.48.93-2.27.07.58.09.75.14,1.42l0-.06,0,0,0-.05,0,0,0-.05a.08.08,0,0,0,0,0l0,0,0-.05.06-.43v.32l0,0a43.69,43.69,0,0,1-.94,6.86c.2-.92.48-2.16.68-3.09A43.85,43.85,0,0,0,93.4,43a41.78,41.78,0,0,0-1.78-7,41.31,41.31,0,0,0-2.87-6.49,42.66,42.66,0,0,0-3.87-5.92A43.44,43.44,0,0,0,80,18.36a46.57,46.57,0,0,0-8-5.88,31.44,31.44,0,0,0-3.74-1.81h0a8.56,8.56,0,0,1-.87-.34" transform="translate(-7.15 -6.83)"/><path class="cls-3" d="M56,91.48s0,0,0,0h0v0h0v0h0v0h0s0,0,0,0h0s0,0,0,0h0s0,0,0,0h0v0h-.1v0a0,0,0,0,1,0,0v0h0v0s0,0,0,0h0v0h0v0h0v0H56M73.23,72.74l-.34.06,0-.12c.11,0,.22-.05.33-.06s0,.08,0,.12M60.05,67a.75.75,0,0,1-.44.21c-.35,0-.49-.37-.79-.47l.67-.69c.21.29.42.59.64.88l-.08.07M35,36.45l-.57,0c0-.3,0-.52.11-1.07.17.34.33.68.51,1h0M33.77,34.3l-.3,0s0-.08,0-.12l.29,0,0,.12m27.57-9.61-.25,0,0-.1.24,0a.36.36,0,0,0,0,.09M49.07,21.21h-.21s0-.07,0-.11h.21s0,.07,0,.1m-10.85-2-.16,0,.06-.09.16,0-.06.09m5.52.82h-.29a.74.74,0,0,1,0-.14l.34-.07-.06.24h0m-4.59-1.16h0l.19-.27h.05l-.19.27m8.4.88h-.06a2.93,2.93,0,0,0,0-.29h.07l-.06.28m5.52-1.37H53c0-.1,0-.19,0-.28H53c0,.09,0,.18,0,.27m-6.6-.92h-.06l.09-.26h0a2.58,2.58,0,0,0-.08.26M80,74.25c0-.12,0-.28,0-.4-.19-.31-.21-.3-.23-.3l-.07,0-.06,0-.06,0h0l0,0h-.09c-.84-.8-1.39-1.34-2.81-.52l-3-.91c1.35-2-1.53-3.43-2.51-3a2.36,2.36,0,0,0-.34.24,6.66,6.66,0,0,1-3-2.51c-.23.12-.66.34-4.48.37l-.81-1a2.58,2.58,0,0,0-.53.77,14.83,14.83,0,0,0-1.61-1.56l-2.33.55c-1.49-1.26-.31-3.54-1.82-4.79h-2.4c-.13-1.39.86-2.73.15-4.14-1.51.74-2.18,2.91-4.34,2.55-.89-.15-2.58-2.44-2.22-3.65a10.09,10.09,0,0,0,.45-2.84c1.89-1.34,1.89-1.34,5.56-.9l-.47-.63c.45-.23.45-.23,3,0l.11-.1c.9.53,1.68,1,2.27,3.75l1.08-1.09c-.56-1.91-.77-2.64-1.13-3.81,1.23-1.63,1.77-2.19,3-2.73a12.51,12.51,0,0,1,1.43-5.32l.22,0,.22,0h.21l.21,0,.21,0h.22l.22,0,.23,0c-.47-.82-.47-.82,1.65-3.24l.13.11-.22.29-.06-.05c.33.62.43.83.65,1.27.75-1.17,2.18-1.72,2.78-3l-.76-.47c-.32.21-.32.21-.62,1.2l-1.47-.78c-.05-.55-.05-.61-.15-1.65l-.88-.32-.33.22-.35-.18c.09-.39.23-.41.37-.43l.42-.05.41,0,.33-.05h.08l.4,0,.39-.06.38,0,.37-.06A6.31,6.31,0,0,1,69,33.41a13.17,13.17,0,0,1-.15,3.23l.25,0,.24,0,.22,0,.22,0,.2,0,.21,0,.19,0,.19,0,.23.36c1,0,1,0,1.3.1.54-.77-.43-1.94-1.26-2.11-.42-.08-1.21-.24-1.38-2.76a41.21,41.21,0,0,1-4.12-2.26l.37-.28c-.63-.91-1.57-1.52-2.21-2.43l-.11,0h-.29l-.08,0h-.26l.23.84-.64.59-.74-.32c-.29-.19-.31-.26-.33-.33s-.05-.15-.07-.22-.05-.15-.07-.23-.05-.15-.07-.23L61,27c0-.08-.05-.16-.07-.23s-.05-.16-.08-.24-.05-.15-.07-.23l-1,.05a2,2,0,0,0-2.8-.54l-.14.1c0,.06,0,.13,0,.19a.85.85,0,0,0,0,.17l0,.17,0,.15,0,.16,0,.15,0,.17,0,.18.33.33a2.39,2.39,0,0,1-.22.91l1.21,2.12c-.52.65-.63.8-1.22,1.52a20.43,20.43,0,0,1,.78,2,3.28,3.28,0,0,1-.64.53c-.42-.46-.86-.92-1.29-1.38V33.1a1.1,1.1,0,0,1,0-.18l0-.2a1.49,1.49,0,0,0,0-.21,1.49,1.49,0,0,1,0-.21l0-.22,0-.22a1.49,1.49,0,0,0,0-.21c-1.71-.26-3.21-1.14-4.85-1.62A2.2,2.2,0,0,0,50,28.58v-.17a1,1,0,0,0,0-.17v-.31a.61.61,0,0,1,0-.14v-.3a26,26,0,0,1,3.33-4.67s0-.05,0-.07,0-.05,0-.07a.15.15,0,0,0,0-.07v-.07a.13.13,0,0,1,0-.06.43.43,0,0,0,0-.05v-.05a0,0,0,0,0,0,0c1.14.13,1.49.17,1.62-1-.28-.34-.28-.34-.3-1.25a4.56,4.56,0,0,0-.65-.51c1.68-.72,2,.11,2.16.46l.29.13h.06a1.69,1.69,0,0,0,.45.32l.44.14c.18.11.2.17.22.22a1,1,0,0,1,.05.16.88.88,0,0,1,0,.15l.06.14a.65.65,0,0,0,0,.13s0,.08,0,.13l0,.12a.56.56,0,0,1,0,.12l-.33.22a.13.13,0,0,0,0,.13l0,.09,0,.09,0,.1,0,.1,0,.1,0,.1,0,.11h-.81l-.54.73c.36.45.36.45,1.88.11,2,1.54,2.61,2.05,3.9,1.83-.16-.23-.37-.52-.52-.75l.46.12c.45-.71.45-.71-1.85-2.49l.07-.39a6.52,6.52,0,0,1,1.6.89c.19-.75.21-.82.34-1.51-1.23-.6-1.45-.72-2.13-1.06h-.27c-.21-.16-.47-.37-.68-.52l.23-.39L59,19.37c0-.13-.11-.3-.15-.43l-.36-.2-.2.13-.09-.08.06-.2,0,0-.06-.07a16.47,16.47,0,0,0-2.1-.83l-.78-.83c-.89.3-.89.3-1.26.64L54,17.45l.09-.18,0,0,0-.16a2.88,2.88,0,0,0-.4-.78c-.76-.09-.78-.07-1.16.47a1.55,1.55,0,0,0,.25.67l0,.09-.15-.21,0,0-.22-.3.14-.21.11-.26a1649723472326.38,1649723472326.38,0,0,1,0-.18s0-.05,0-.07,0-.06,0-.08,0-.06,0-.09,0-.06,0-.1a.36.36,0,0,0,0-.11c-2.12,1.62-.56,3.23.2,3.42.45.93.45.93.08,2.38-.5-.51-.29-1.42-1-1.81l-.07.39s-1.51-2.5-1.08-3.2H51l.3-.94-.91-.27-.35.2c-.09.68-.1.78-.24,1.78-.05.29-.07.29-.08.29h-.25c0,.05,0,.11,0,.17a.86.86,0,0,0,0,.16c0,.06,0,.12,0,.17s0,.12,0,.18a.91.91,0,0,0,0,.17c0,.06,0,.12,0,.18s0,.11,0,.17,0,.12,0,.18a5,5,0,0,1,.73.36l-.16.36.14.27c-.26.49-.26.49-.71,1.3.26-1.3.28-1.35.39-2l-.39-.13c0-.15,0-.15-.07-.15H48.9a1.61,1.61,0,0,0-.23.8l.37.29c-.85.36-1,.41-1.56.63-.69-.95-.95-.81-2.37,0L45,20.86c-.32-.07-.32-.07-1.3.14,0-.12,0-.28,0-.4.84-.33,1.74-.38,2.6-.63,1.51,1.1,2-.22,1.81-.63-.7-2.21-.7-2.21-.7-2.54L47,16.56a6.44,6.44,0,0,0-1.11.41l-.3-.32-.36.17.07-.41-.57.12v-.08l.21-.17v0l0,0c0-.14,0-.33,0-.47a2.37,2.37,0,0,0-1.28-.68l-.38.14c-.25.57-.25.57-1.73,1.89l.37.16.07.41c.5.11.5.11,1.74-.74l.29-.25.21-.21v.09l-.21.16v0l-.29.25-.3.24c0,.42,0,.42-.29,1.27l.37.17s0,.12,0,.18a1.13,1.13,0,0,0-.55.46l.26.31c-.65.17-.65.17-1.57-1l-.65.66.13-.48-.44.15a2.8,2.8,0,0,1-.29-.69h0l-.76.44c0-.14,0-.32.06-.46a20,20,0,0,0-2.57.72c-.1-.44-1.13-2.11-2.22-2a1.67,1.67,0,0,0-.08-.83c-.75-.25-.77-.24-1.28,0-.31.18-.32.18-.34.17l0,0,0,0,0,0,0,0,0,0,0,0,0,0-1.31.65c-.24.11-.25.11-.25.1h0l0,0,0,0,0,0,0,0s0,0,0,0h0l0,0c-.95.53-1,1.64-1.62,2.4,0-.12-.12-.28-.16-.39-.56-.2-.56-.2-1.51.22-.18.43-.18.43-.78,1,.72.37.72.37,1.16.34.11,0,.08,0,.05,0l-.09.09-.09.08-.09.09-.09.1-.09.09a.94.94,0,0,0-.1.1l-.11.11c-2.09.12-2.42.82-3.31,2.68l0,0,.06,0,.06,0,.05,0,.06,0,.06,0,.06,0,.06,0c-.16.22-.38.52-.53.74l.45.08a8.33,8.33,0,0,1,.36.81,20,20,0,0,1-4,1.72c0,.13-.06.3-.09.42,4.34-1.32,4.34-1.32,7.38-3.55l0,.11L28,24.4l0-.06-.5.69c.48.28.54.32,1.34.07.09-.28.22-.65.31-.92,1.16,1.54,1.24,1.56,1.82,1.7.73,1.4.73,1.4.83,1.46,0,.6-.09,1.2-.13,1.8l.2,0a3.5,3.5,0,0,0,.52-1.55l.12-.09,0,.3,0,0,.12.11a15,15,0,0,0,.06,1.77h.25l.06,0h.14c-.4,1.41.93,3-.4,4.29a2.41,2.41,0,0,0,.38.77c2,2.49-.45,4.77-.35,7.17l-.29.33c.77,3.32.77,3.32,1.23,4.27l3.4,5.29c-.17.2-.39.47-.55.68,1.23,1.21,2.08,2.74,3.29,4v-.18a.86.86,0,0,0,0-.16.92.92,0,0,1,0-.16v-.28a.57.57,0,0,0,0-.13.61.61,0,0,1,0-.14v-.14c-1.11-.43-2-4-2-4l-.19-.1a5.55,5.55,0,0,1-.74-1.48l.12-.12.22.36,0,0,.43,0c.3.08.3.14.29.2a1,1,0,0,1,0,.17c0,.05,0,.11,0,.16a.76.76,0,0,0,0,.15s0,.1,0,.15a.76.76,0,0,1,0,.15v.14c0,.05,0,.1,0,.15l.63.59c1.31,1.57,2.23,3.44,3.72,4.87a1.93,1.93,0,0,1,0,.24v.42a1.28,1.28,0,0,0,0,.19v.15s0,.08,0,.12v.13c2,3.18,5.74,4,7,3.38,3.48,1.63,5.91,5,9.8,5.95a13.91,13.91,0,0,0-2,2.28c-.43.8.41,1.56.08,2.36-.54,1.37-2.12,2-2.45,3.53l.39.06c-.25.41-.66.71-.79,1.2C59,82.53,59,82.53,60,83.36c-.13,1.56-2.21,4.79-2.23,4.81s0,.32.05.45c-.91,1-1.68,2.22-2.68,3.2.37.06.36.08.35.1l0,0,0,0,0,0a.05.05,0,0,1,0,0l0,0s0,0,0,0v0l-.81.29a2.19,2.19,0,0,1-.43.72c.46.32.46.32,3.13-.67,0-.12.11-.28.16-.41l1.54-.64.13-.39a2.2,2.2,0,0,0,1.45-.56.88.88,0,0,0,0-.16l.12-.06.05.11-.05,0c2.11-.52,2.22-.58,3-1.54l-.12-.09.12-.07.06.12-.06,0,.11,0c1.56-.26,4.07-2.2,4.09-2.22l-.07,0,.94-.57c.33-.23.37-.28.41-.34l.11-.16.1-.15.11-.15.09-.14.1-.15.09-.13.09-.14c3.83-2.15,6.86-3.85,6.66-5.91,2.93-3.31,2.93-3.31,3.49-4.52" transform="translate(-7.15 -6.83)"/><path class="cls-3" d="M62.59,12.81l0,0h0l0,0m-2.5,2.9-.16,0c-.13,0-.17,0-.38-.31l.56.26h0m2.07-2.85h-.1a0,0,0,0,0,0,0l-.11,0,0,0-.25-.08-.08-.07.31.13s0,0,.15.05.08,0,.12.06m.26,0L62,12.8s0-.05,0-.07l.07,0,.37.16h0m-10,.53h-.22l0-.11h.22l0,.1M60,12h0l-.32-.16h0L60,12m-7.85.44h0l-.06-.21h0l.06.21m.91-.51h-.17l0-.1H53l.06.1m-1.15.24-.29.12.09-.44.21.32h0M52.14,11h-.2l0-.09h.2a.59.59,0,0,1,0,.08m4.14-.73a.28.28,0,0,1,0,.09,2.18,2.18,0,0,1-.23-.09h0L56,10.21l-.06-.05.38.13h0m6,2.28a78.59,78.59,0,0,0-7.8-2.87l.41.2c-1.69-.6-2.39-.85-3.89-1.26h0c.35.1.5.15.79.25l-.21-.05.22.08-.09,0-.19-.07h0l-.06,0-.86-.27.79.31h0a5.25,5.25,0,0,1,1.35.93c-1.13-.4-1.15-.39-1.31-.31l0,.11a.3.3,0,0,0-.08-.08l-.07.2.21.37c-.21-.17-.21-.17-.31-.2a.38.38,0,0,1-.33.21c-.16.31.13.57.12.86l.28-.21a.79.79,0,0,1,.17.31c0,.06.06.06.07.06h.43v.25c-.16,0-.16,0-.57-.11.07.19.14.38.22.57l-.09.06c-.13-.35-.2-.53-.29-.8a1.89,1.89,0,0,0-.05.23A1.53,1.53,0,0,1,51,11l-.09.2c-.11-.32-.13-.38-.2-.62a4.93,4.93,0,0,0-.52,1.11c.54,1.27.54,1.27,1,1a.88.88,0,0,0,.12.15,5.33,5.33,0,0,0,.31-.58l0,.07,0,.15,0,0c.08.36.08.36.36.46a.68.68,0,0,1,.09.35c-.33-.24-.33-.24-.51-.13a.12.12,0,0,0,0,.09,17597050371485.41,17597050371485.41,0,0,1,0,.12v.06a.13.13,0,0,1,0,.06.11.11,0,0,0,0,0v.06a.13.13,0,0,1,0,.06l-.15.15c-.06.06,0,.08,0,.1v0a.09.09,0,0,0,0,.05v0a.06.06,0,0,0,0,0v.12h.06c.73.12.73.12.86.23.29-.36.52-.37,1.08,0,.23-.32.23-.32.19-.66-.34-.1-.34-.1-.42-.21l.2-.08c0-.14,0-.14,0-.45l.11,0,.11-.06a2.86,2.86,0,0,0,0-.49l0,0,0-.05,0,0s0,0,0,0l0,0,0,0v0l0,0a3.57,3.57,0,0,0-.1-.57h.37c-.2-.31-.18-.7-.38-1s-.34-.22-.51-.33H53l.52.38c-.05.73,0,.79.59,1.09l0,.11a3.78,3.78,0,0,0,1,.94s0-.08,0-.11c.54-.11.82-.17,2.66,1.5l-.1.17a.26.26,0,0,0,0,.09c.58.1.58.1,1.12,1,.08.13.08.13.88.52,0,.06-.08.14-.12.19a.47.47,0,0,0,.08.14l.08.1.09.11.08.1.07.1.08.1.07.09a.61.61,0,0,0,.07.1c.49.34.57.32.71.28a1.55,1.55,0,0,0,.06-.31.48.48,0,0,1,.46.32c0,.07,0,.11-.11.4s.16.87.27,1c.59.83.59.83.6.9l1.63,1.29V21C67,23.3,67,23.3,68,23.73l.63-.36c1,.6,1,.6,1,.61l.74-.62c-.69-1.05-1.77-1.81-2.16-3.06a8.85,8.85,0,0,0-1.44-2c.09-.25-.06-.52.07-.77-.47-.94-.48-1-2-2.28l.24-.12a5.85,5.85,0,0,0-2.72-2.37l-.09-.06.32.12-.24-.2" transform="translate(-7.15 -6.83)"/><path class="cls-3" d="M80.89,23.27c.84,1.25.84,1.25.85,1.32s0,0,0,.05a.49.49,0,0,0-.15.15,7.25,7.25,0,0,1-.4.9L81,25.62c-.33-.78-.33-.78-.54-.93s-.18-.12-.8-1.08c-.09-.13-.09-.13-.06-.32a.41.41,0,0,0-.09-.12l-.09-.1-.09-.1-.09-.1-.1-.1-.1-.11-.12-.12-.12-.13c0,.18,0,.27-.08.57l.16.18.15.16.14.16.14.15.14.16.14.16c0,.05.09.1.13.16l.15.16a6.13,6.13,0,0,1-.14,1.12L79,24.94c-.08-.52-.08-.52-1.17-1.55a1.13,1.13,0,0,0-.11-.62c-.14-.43-.14-.6.2-.51-.87-1-1.41-1.55-2.31-2.44l.43.21c0-.15-.06-.29-.1-.43.57.48.57.48.64.9l.49-.13c.33.32.61.69,1,1a11.08,11.08,0,0,0,1.08.7l1.74,1.21" transform="translate(-7.15 -6.83)"/><path class="cls-3" d="M69.74,16.67c1.07,1.19.9,1.28-.32,1.62l-1.64-.93a1.55,1.55,0,0,1-.22-.12s0-.08,0-.11a7,7,0,0,0-.33-.74l1,.56-.45-.44a5.71,5.71,0,0,0,.47-.53c1.34.49,1.34.49,1.52.69" transform="translate(-7.15 -6.83)"/><path class="cls-3" d="M55.93,8.91h.62l-.67-.14h0m-.43-.16-1-.06h0c-.84-.07-.86-.06-.87-.06a3.83,3.83,0,0,1,.59.1h-.11s0,0,.17,0c1.44.22,2.91.32,4.36.53h0a17.12,17.12,0,0,0-2-.38h0c-.28-.05-.66-.11-1.19-.17" transform="translate(-7.15 -6.83)"/><path class="cls-3" d="M53.67,15c0,.39-.05.64-.08.83l-.76-.17-.15.22c-.09-.07-.1-.07-.33-.27-.33.29-.34.29-.82,0l-.11.2-.63-.4c-.14-1-.14-1-.18-1.34.07-.08.11-.11.19-.11s.33.22.53.23h.06l-.15.36.36.3.13-.25.3.28c.43-.43.8-.34,1.64,0V15" transform="translate(-7.15 -6.83)"/><path class="cls-3" d="M46.18,15.11H46A.36.36,0,0,1,46,15l.26-.08-.09.21h0m1.87-.69a.56.56,0,0,0,0-.12l-.45.15a6.6,6.6,0,0,1,0-.87l-.06.07a2.08,2.08,0,0,0-.37.46,2.56,2.56,0,0,0,0,.41c-.34,0-.34,0-.43-.12-.45-.5-.45-.5-.66-.4l-.63.63a.22.22,0,0,0-.07.06s-.22.42.08.41h.11c.12,0,.12,0,.16.51.12,0,.22.09.34.06l.08,0a1.71,1.71,0,0,1,1.14-.39c.13,0,.25,0,.38,0s.08-.07.12-.09l0-.11,0-.1a.49.49,0,0,1,0-.11.38.38,0,0,1,0-.1l0-.11s0-.08,0-.11l0-.12" transform="translate(-7.15 -6.83)"/><path class="cls-3" d="M49.77,17.23a1,1,0,0,1-.05.16l-.16.52a.81.81,0,0,1-.07.22s0,0-.06,0l-.51.29a17,17,0,0,1-1-1.65h.74c0-.47,0-.55,0-.74h1.12c-.08.21-.15.43-.22.65l.33.27-.06.18" transform="translate(-7.15 -6.83)"/><path class="cls-3" d="M54,8.53a5.77,5.77,0,0,1,1.45.19h-.87L52.8,8.58h.51a2.49,2.49,0,0,0-.46,0h.38l-.44,0H54" transform="translate(-7.15 -6.83)"/><path class="cls-3" d="M55.76,24.89l-.25.07a7.31,7.31,0,0,1-.93-.57c-.49.75-.49.75-.72.68-.57-.16-.62-.18-.9.21a4.33,4.33,0,0,0,.16-2.15l.2-.31a8.67,8.67,0,0,1,1.63,1c.13.11.16.29.29.41s.28,0,.38.16a3,3,0,0,1,.19.51h-.05" transform="translate(-7.15 -6.83)"/><path class="cls-3" d="M62.67,58.39l-.3,0-.3,0-.3,0-.3,0-.3,0-.3,0-.31,0a5.54,5.54,0,0,0-.12-.59l-3-1.13c-.51.29-.86.47-1.58.84l-.24-.21c1-1.11,1-1.11,2-1.17a5.26,5.26,0,0,1,2.27.47c.62.24,1.21.52,1.84.75a5.6,5.6,0,0,1,1,.27.68.68,0,0,1,.12.28,1.89,1.89,0,0,0,.1.31l-.31,0" transform="translate(-7.15 -6.83)"/><path class="cls-3" d="M49.64,13c-.06.11-.14.22-.21.33a4.52,4.52,0,0,1-.16-.45s0-.05,0-.06,0,0-.14,0-.37,0-.37-.34l.32-.2-.28-.12a1.07,1.07,0,0,1,.24-.31c.08,0,.17,0,.25,0s0,.26.07.37.1.06.17,0c0,.3.09.49.16.79l0,0" transform="translate(-7.15 -6.83)"/><path class="cls-3" d="M46.66,13.2a9.54,9.54,0,0,1-1.09,1l.3-.58-.77.69-.41-.42.4-.3h0c.08.07.23,0,.46-.19s.41-.25.47-.17c.2-.16.29-.2.4-.19a1.15,1.15,0,0,0,.31,0l-.07.1" transform="translate(-7.15 -6.83)"/><path class="cls-3" d="M49.69,14.58a6.55,6.55,0,0,1-.27.74h-.48a3,3,0,0,0,0-.42l-.48-.08c.09-.38.09-.38.32-.6a.88.88,0,0,1,.61-.28l.16,0a.94.94,0,0,1,.11.63" transform="translate(-7.15 -6.83)"/><path class="cls-3" d="M66.45,59.42l-.56-.33c-.42.31-.72.52-1.22.85-.62-.73-1.44,0-2.12-.3v-.08a.22.22,0,0,0,0-.08V59l.79-.16-.07.09.29.31.12-.15-.34-.25a2.66,2.66,0,0,1,0-.7l1.78-.26c.34.36.87.39,1.2.75a1.12,1.12,0,0,1,.19.81" transform="translate(-7.15 -6.83)"/><path class="cls-3" d="M50.31,13H49.9c-.1-.36-.16-.68-.18-.8.11.07.24.12.35.19a.26.26,0,0,1,.12.09s0,0,.06.12.06.27.1.41h0" transform="translate(-7.15 -6.83)"/><path class="cls-3" d="M47.92,12.91l-.4.45H47c.22-.26.31-.36.46-.55H48l-.08.1" transform="translate(-7.15 -6.83)"/><path class="cls-3" d="M56.81,20.55l0,.05s0,0,0,0l0,.05s0,0,0,0l0,.05s0,0,0,0,0,0,0,.05a.43.43,0,0,1,0,.05.08.08,0,0,0,0,0v.09l0,.05s0,0,0,0,0,0,0,0v0c-.06.22-.14.44-.32.5a.44.44,0,0,1-.29,0c-.1,0-.1,0-.17-.18a.94.94,0,0,1,0-1h.51a.06.06,0,0,1,0,0" transform="translate(-7.15 -6.83)"/><path class="cls-3" d="M50.47,13.81v.35a.08.08,0,0,1,0,0v.24c-.2-.11-.36-.21-.57-.35V14a.08.08,0,0,0,0,0V13.9a.06.06,0,0,0,0,0v0a.06.06,0,0,0,0,0h.55v0" transform="translate(-7.15 -6.83)"/><path class="cls-3" d="M26.09,26.68l-1,.31c.09-.19.17-.39.26-.58l1.06-.34c-.08.2-.17.39-.24.58l-.07,0" transform="translate(-7.15 -6.83)"/><path class="cls-3" d="M32.3,31.16l-.41.8c-.16-.23-.26-.4-.54-.86h1l0,.06" transform="translate(-7.15 -6.83)"/><path class="cls-3" d="M32.61,29.73l0,0s0,0,0,0l0,0s0,0,0,0a.08.08,0,0,0,0,0l0,0v0a.05.05,0,0,0,0,0l0,0,0,0s0,0,0,0l0,0,0,.05,0,0a.08.08,0,0,1,0,0l-.43,0a3.06,3.06,0,0,1,.21-.73.62.62,0,0,1,.41-.27l.09.39s0,0,0,0" transform="translate(-7.15 -6.83)"/><path class="cls-3" d="M61.72,59.72h-1.6v-.2h1.6v.21" transform="translate(-7.15 -6.83)"/><path class="cls-3" d="M68.36,59l-1,.27c0-.12,0-.24,0-.36h1l0,.2h0" transform="translate(-7.15 -6.83)"/><path class="cls-3" d="M20.52,27.46a.08.08,0,0,1,0,0l0,0,0,0s0,0,0,0l0,0s0,0,0,0l0,0a.08.08,0,0,1,0,0l0,0,0,0s0,0,0,0l0,0,0,0,0,0,0,0h-.09l.33-.58.14.05,0,0" transform="translate(-7.15 -6.83)"/><path class="cls-3" d="M19.93,27.79h-.08l0,0h-.16l.11-.16h.1a0,0,0,0,0,0,0H20v0h.06l-.12.16" transform="translate(-7.15 -6.83)"/><path class="cls-3" d="M93.52,54.41v.05a.06.06,0,0,1,0,0v.14a.09.09,0,0,0,0,0v.09a.07.07,0,0,0,0,0v0a.09.09,0,0,1,0,.05V55s0,0,0,0v.05l0,.09c0-.21,0-.34,0-.71l0-.11v0" transform="translate(-7.15 -6.83)"/><polyline class="cls-3" points="33.26 11.39 33.23 11.41 33.23 11.41 33.22 11.21 33.33 11.14 33.29 11.37 33.26 11.39"/><path class="cls-3" d="M86.6,28.48c.38.78,1,1.43,1.34,2.22a0,0,0,0,1,0,0s0,0,0,0v0a0,0,0,0,0,0,0l0,0v0l0,0s0,0,0,0A8,8,0,0,1,87,29.5c0-.11,0-.11-.61-.78v0l0,0a0,0,0,0,1,0,0v0h0v-.08s0,0,0,0v0s0,0,0,0v0s0,0,0,0,0,0,0,0a.59.59,0,0,1,0,.08" transform="translate(-7.15 -6.83)"/><path class="cls-3" d="M89.36,30.72l0,0s0,0,0,0a0,0,0,0,1,0,0l0,0s0,0,0,0,0,0,0,0a0,0,0,0,1,0,0l0,0a0,0,0,0,0,0,0s0,0,0,0v.12a0,0,0,0,1,0,0v0a5.44,5.44,0,0,1-.27-.54s0-.07,0-.11a1.51,1.51,0,0,1,.09.18" transform="translate(-7.15 -6.83)"/><path class="cls-4" d="M60.38,82.56a43.42,43.42,0,0,1-37-66.16A43.42,43.42,0,1,0,87.57,73,43.24,43.24,0,0,1,60.38,82.56Z" transform="translate(-7.15 -6.83)"/></g></g></svg>