<svg id="Layer_1" data-name="Layer 1" xmlns="http://www.w3.org/2000/svg" xmlns:xlink="http://www.w3.org/1999/xlink" viewBox="0 0 23.63 23.63"><defs><style>.cls-1{fill:url(#radial-gradient);}.cls-2{fill:#ffcf1a;}.cls-3{fill:#b3b3b3;}.cls-4{fill:#ffb000;}.cls-5{fill:#fb7503;opacity:0.18;}.cls-6{fill:#ffb200;}</style><radialGradient id="radial-gradient" cx="50.18" cy="50.17" r="11.82" gradientTransform="translate(90.43 -8.27) rotate(79.56)" gradientUnits="userSpaceOnUse"><stop offset="0" stop-color="#ffcf1a"/><stop offset="1" stop-color="#ffaf02"/></radialGradient></defs><title>moon</title><circle class="cls-1" cx="50.18" cy="50.17" r="11.82" transform="translate(-46.62 52.08) rotate(-79.56)"/><path class="cls-2" d="M49.61,38.7A12.15,12.15,0,0,1,61.32,54.13,11.82,11.82,0,0,0,44.4,39.87,12.1,12.1,0,0,1,49.61,38.7Z" transform="translate(-38.37 -38.36)"/><path class="cls-3" d="M61.12,49.3a.75.75,0,1,1-.75-.75A.75.75,0,0,1,61.12,49.3Z" transform="translate(-38.37 -38.36)"/><path class="cls-4" d="M47.41,55.73a2.8,2.8,0,1,1-2.79-2.8A2.79,2.79,0,0,1,47.41,55.73Z" transform="translate(-38.37 -38.36)"/><path class="cls-4" d="M51.7,58.92a1.6,1.6,0,1,1-1.6-1.6A1.6,1.6,0,0,1,51.7,58.92Z" transform="translate(-38.37 -38.36)"/><path class="cls-5" d="M53.24,59.76a11.82,11.82,0,0,1-8.4-20.13A11.82,11.82,0,1,0,58.58,58.49,11.84,11.84,0,0,1,53.24,59.76Z" transform="translate(-38.37 -38.36)"/><path class="cls-4" d="M60,53.25a2.55,2.55,0,1,1-2.55-2.55A2.55,2.55,0,0,1,60,53.25Z" transform="translate(-38.37 -38.36)"/><path class="cls-6" d="M55.68,59.06a.45.45,0,0,1-.45.45.45.45,0,0,1,0-.9A.45.45,0,0,1,55.68,59.06Z" transform="translate(-38.37 -38.36)"/><path class="cls-4" d="M46,50a.95.95,0,1,1-1-1A.95.95,0,0,1,46,50Z" transform="translate(-38.37 -38.36)"/><path class="cls-6" d="M61.15,49.3a.75.75,0,0,1-1.5,0,.75.75,0,0,1,1.5,0Z" transform="translate(-38.37 -38.36)"/><path class="cls-4" d="M53.37,42.08a1,1,0,1,1-1-1A1,1,0,0,1,53.37,42.08Z" transform="translate(-38.37 -38.36)"/><path class="cls-4" d="M49.32,43.45A2.35,2.35,0,1,1,47,41.1,2.34,2.34,0,0,1,49.32,43.45Z" transform="translate(-38.37 -38.36)"/><path class="cls-4" d="M53,46.64a1.6,1.6,0,1,1-1.59-1.59A1.6,1.6,0,0,1,53,46.64Z" transform="translate(-38.37 -38.36)"/><path class="cls-4" d="M59.06,46.75a1.24,1.24,0,1,1-2.48,0,1.24,1.24,0,1,1,2.48,0Z" transform="translate(-38.37 -38.36)"/></svg>