<svg id="Layer_1" data-name="Layer 1" xmlns="http://www.w3.org/2000/svg" viewBox="0 0 209.1 323.42"><defs><style>.cls-1{fill:#fc7b1d;}.cls-2{fill:#e56813;}.cls-3{fill:#f2ca4e;}.cls-4{fill:#f5c300;}.cls-5{fill:#f9eed0;}.cls-6{fill:#f4dd91;}.cls-7{fill:#fd954a;}.cls-8{fill:#bb520e;}.cls-9{fill:#e6e6e6;}.cls-10{opacity:0.06;}.cls-11,.cls-17,.cls-18{fill:#fff;}.cls-11{opacity:0.41;}.cls-12{opacity:0.1;}.cls-13{fill:#fa7f18;}.cls-14{fill:#ac4e0e;}.cls-15{fill:#5ed0f2;}.cls-16{fill:#40a3c6;}.cls-17{opacity:0.62;}.cls-19{opacity:0.33;}</style></defs><title>rocket</title><path class="cls-1" d="M96.81,254.37l1.2-2.18s-.56.17-1.58.52c-.26-1.05-.43-1.61-.43-1.61l-1.17,2.19c-14.93,5.65-77,34.79-67.25,126.2C109.61,338,100.22,270,96.81,254.37Z" transform="translate(-3.74 -56.07)"/><path class="cls-2" d="M96.81,254.37l1.2-2.18s-.56.17-1.58.52c-.26-1.05-.43-1.61-.43-1.61l-1.17,2.19c-13,24-38.59,73.5-67.25,126.2C109.61,338,100.22,270,96.81,254.37Z" transform="translate(-3.74 -56.07)"/><path class="cls-3" d="M92.94,260.94l.91-1.64s-.43.12-1.2.39c-.19-.8-.32-1.22-.32-1.22l-.89,1.66c-11.29,4.27-58.21,26.31-50.86,95.44C102.62,324.16,95.51,272.74,92.94,260.94Z" transform="translate(-3.74 -56.07)"/><path class="cls-4" d="M92.94,260.94l.91-1.64s-.43.12-1.2.39c-.19-.8-.32-1.22-.32-1.22l-.89,1.66c-10.33,19-42,79.18-50.86,95.44C102.62,324.16,95.51,272.74,92.94,260.94Z" transform="translate(-3.74 -56.07)"/><path class="cls-5" d="M88.2,269l.58-1.05-.76.25c-.13-.5-.21-.77-.21-.77l-.56,1c-7.19,2.72-37.06,16.75-32.38,60.76C94.37,309.29,89.84,276.56,88.2,269Z" transform="translate(-3.74 -56.07)"/><path class="cls-6" d="M88.2,269l.58-1.05-.76.25c-.13-.5-.21-.77-.21-.77l-.56,1c-7.71,14.19-22.67,42.91-32.38,60.76C94.37,309.29,89.84,276.56,88.2,269Z" transform="translate(-3.74 -56.07)"/><path class="cls-1" d="M165.73,242.38s3.4,7.91,7.85,18.14c7.45,17.14,3.11,25.12-6.37,39.09-19,27.94-31.9,39.08-31.9,39.08s.48-35.47-13.56-43.1C130.79,283.57,165.73,242.38,165.73,242.38Z" transform="translate(-3.74 -56.07)"/><path class="cls-2" d="M170.25,252.85c-15.68,6.93-37.5,32.72-32.91,54.62,3.52,16.78.28,24.8-2,31.16l-.06.06s.48-35.47-13.56-43.1c9-12,44-53.21,44-53.21S167.54,246.6,170.25,252.85Z" transform="translate(-3.74 -56.07)"/><path class="cls-7" d="M172,271.7c-7.8-5.15-2.34,14.34-7.14,23.62C164.89,295.32,180.61,277.35,172,271.7Z" transform="translate(-3.74 -56.07)"/><path class="cls-8" d="M80.89,281.36c15.2,8.27,32.56,22.43,32.56,22.43s4.16-3.59,5.18-4.66c0,0-11.92-13.87-33-25.62-21.23-11.27-39.45-13.8-39.45-13.8-.51,1.6-1.5,7-1.5,7S65.4,272.94,80.89,281.36Z" transform="translate(-3.74 -56.07)"/><path class="cls-9" d="M203.82,56.07c-1.23.17-115.71,16.3-157.68,203.64,0,0,17.55,2.75,38.78,14,21.12,11.75,33.71,25.4,33.71,25.4C253.05,162.06,204.33,57.19,203.82,56.07Z" transform="translate(-3.74 -56.07)"/><path class="cls-1" d="M211.36,130.65c5.79-45.88-7.27-74-7.54-74.58-.63.09-31.73,4.47-67.38,34.8C154.91,95.61,185.81,106.6,211.36,130.65Z" transform="translate(-3.74 -56.07)"/><path class="cls-10" d="M203.82,56.07c-.49.07-19.57,2.76-44.88,18.38,13.94-5,29.46-7.89,30.66,3.86,4.2,40.91-6.21,117.25-89.29,204.94,11,9.4,18.32,15.88,18.32,15.88C253.05,162.06,204.33,57.19,203.82,56.07Z" transform="translate(-3.74 -56.07)"/><path class="cls-11" d="M55.67,254.48s7.54-.54,17.44,4.84C96.61,161.06,143.38,103,181.38,72.83,171.21,74.8,106.85,91.65,55.67,254.48Z" transform="translate(-3.74 -56.07)"/><path class="cls-1" d="M68,189.26s-8.49,1.44-19.49,3.27c-18.44,3.07-22.78,11.05-29.36,26.6-13.14,31.1-15.45,48-15.45,48s29.52-19.69,43.55-12.06C52.46,241,68,189.26,68,189.26Z" transform="translate(-3.74 -56.07)"/><path class="cls-2" d="M56.79,191.16c2.71,16.93-7.08,49.26-27.95,57.31-16,6.18-21,13.25-25.09,18.6v.09s29.52-19.69,43.55-12.06C52.46,241,68,189.26,68,189.26Z" transform="translate(-3.74 -56.07)"/><path class="cls-7" d="M40,199.91c8.57,3.75-10.76,9.76-15.94,18.84C24.06,218.75,30.6,195.79,40,199.91Z" transform="translate(-3.74 -56.07)"/><circle class="cls-12" cx="153.01" cy="152.95" r="26.12" transform="translate(-58.19 158.24) rotate(-61.47)"/><circle class="cls-13" cx="152.22" cy="150.29" r="26.12" transform="translate(-56.27 156.16) rotate(-61.47)"/><circle class="cls-14" cx="152.22" cy="150.29" r="20.25" transform="matrix(0.56, -0.83, 0.83, 0.56, -61.39, 135.6)"/><circle class="cls-15" cx="152.22" cy="150.29" r="17.96" transform="translate(-56.27 156.16) rotate(-61.47)"/><path class="cls-16" d="M138.56,148.07a18,18,0,0,1,31.46-.18,18,18,0,1,0-33.47,11.16A17.87,17.87,0,0,1,138.56,148.07Z" transform="translate(-3.74 -56.07)"/><path class="cls-17" d="M142.16,140.58c.43,2.48,3.93,4,7.83,3.29s6.7-3.23,6.27-5.72-3.93-4-7.82-3.29S141.73,138.09,142.16,140.58Z" transform="translate(-3.74 -56.07)"/><path class="cls-18" d="M134.77,135.22a16.52,16.52,0,0,1,2.27-2.68,20.7,20.7,0,0,1,9.17-5.25,19.44,19.44,0,0,1,3.55-.56,18.17,18.17,0,0,1,10.2,2.49,28.84,28.84,0,0,0-6.73-1.32,22.42,22.42,0,0,0-3.38.06,20.68,20.68,0,0,0-3.31.59,21.43,21.43,0,0,0-3.19,1.09,26,26,0,0,0-3,1.51A32.87,32.87,0,0,0,134.77,135.22Z" transform="translate(-3.74 -56.07)"/><path class="cls-18" d="M167.73,168.47a17.17,17.17,0,0,1-2.61,2.35,23.2,23.2,0,0,1-3,1.86,21.15,21.15,0,0,1-3.3,1.35,20.65,20.65,0,0,1-3.49.75,18.74,18.74,0,0,1-3.59.08,18.18,18.18,0,0,1-3.52-.64A17.92,17.92,0,0,1,142,171a28.28,28.28,0,0,0,6.49,2.21,21,21,0,0,0,6.71.26,20.83,20.83,0,0,0,3.31-.65,26.37,26.37,0,0,0,3.21-1.09A32.88,32.88,0,0,0,167.73,168.47Z" transform="translate(-3.74 -56.07)"/><path class="cls-2" d="M116.21,231.82c.29-4.35,2-18.34,2-18.34s-10.82,9-14.31,11.63-6,2.64-12.61,17.4-25,66.45-25,66.45,33.44-43.49,42.22-57.09S115.93,236.17,116.21,231.82Z" transform="translate(-3.74 -56.07)"/><path class="cls-1" d="M66.2,308.93s18.39-51.68,25-66.44,9.1-14.8,12.59-17.41,14.3-11.63,14.3-11.63Z" transform="translate(-3.74 -56.07)"/><path class="cls-2" d="M66.39,309s33.38-43.53,42.15-57.12,7.49-15.68,7.77-20,2-18.33,2-18.33Z" transform="translate(-3.74 -56.07)"/><g class="cls-19"><path class="cls-18" d="M109.32,229c-2.3,4.81-4.72,9.56-7.18,14.28-1.22,2.37-2.48,4.72-3.72,7.07l-3.79,7-3.84,7c-1.31,2.32-2.59,4.66-3.91,7-2.63,4.63-5.3,9.24-8.08,13.79,2.3-4.81,4.72-9.56,7.18-14.28,1.22-2.37,2.48-4.71,3.72-7.07l3.79-7,3.84-7c1.31-2.32,2.59-4.65,3.92-7C103.88,238.13,106.54,233.52,109.32,229Z" transform="translate(-3.74 -56.07)"/></g><path class="cls-18" d="M174.09,117a2.91,2.91,0,1,1-1.17-4A2.92,2.92,0,0,1,174.09,117Z" transform="translate(-3.74 -56.07)"/><path class="cls-2" d="M173.76,116.84a2.53,2.53,0,1,1-1-3.43A2.53,2.53,0,0,1,173.76,116.84Z" transform="translate(-3.74 -56.07)"/><path class="cls-14" d="M170,115.18a2.54,2.54,0,0,1,3.44-1l.24.16a2.45,2.45,0,0,0-.95-.91,2.53,2.53,0,0,0-2.66,4.29A2.54,2.54,0,0,1,170,115.18Z" transform="translate(-3.74 -56.07)"/><path class="cls-18" d="M191.28,127.11a2.91,2.91,0,1,1-1.17-4A2.92,2.92,0,0,1,191.28,127.11Z" transform="translate(-3.74 -56.07)"/><path class="cls-2" d="M190.94,126.93a2.53,2.53,0,1,1-1-3.43A2.52,2.52,0,0,1,190.94,126.93Z" transform="translate(-3.74 -56.07)"/><path class="cls-14" d="M187.2,125.27a2.53,2.53,0,0,1,3.43-1l.25.16a2.45,2.45,0,0,0-.95-.91,2.53,2.53,0,0,0-2.67,4.29A2.54,2.54,0,0,1,187.2,125.27Z" transform="translate(-3.74 -56.07)"/><path class="cls-18" d="M205.94,138.43a2.91,2.91,0,1,1-1.17-4A2.91,2.91,0,0,1,205.94,138.43Z" transform="translate(-3.74 -56.07)"/><path class="cls-2" d="M205.6,138.24a2.53,2.53,0,1,1-1-3.43A2.52,2.52,0,0,1,205.6,138.24Z" transform="translate(-3.74 -56.07)"/><path class="cls-14" d="M201.86,136.58a2.53,2.53,0,0,1,3.43-1,2.07,2.07,0,0,1,.25.15,2.45,2.45,0,0,0-.95-.91,2.53,2.53,0,0,0-2.67,4.29A2.54,2.54,0,0,1,201.86,136.58Z" transform="translate(-3.74 -56.07)"/><path class="cls-18" d="M156.85,108.39a2.91,2.91,0,1,1-1.16-4A2.9,2.9,0,0,1,156.85,108.39Z" transform="translate(-3.74 -56.07)"/><path class="cls-2" d="M156.52,108.21a2.53,2.53,0,1,1-1-3.43A2.53,2.53,0,0,1,156.52,108.21Z" transform="translate(-3.74 -56.07)"/><path class="cls-14" d="M152.78,106.55a2.53,2.53,0,0,1,3.43-1l.25.16a2.53,2.53,0,1,0-3.62,3.38A2.52,2.52,0,0,1,152.78,106.55Z" transform="translate(-3.74 -56.07)"/><path class="cls-18" d="M139.7,101.67a2.92,2.92,0,1,1-1.17-4A2.91,2.91,0,0,1,139.7,101.67Z" transform="translate(-3.74 -56.07)"/><path class="cls-2" d="M139.36,101.48a2.53,2.53,0,1,1-1-3.43A2.53,2.53,0,0,1,139.36,101.48Z" transform="translate(-3.74 -56.07)"/><path class="cls-14" d="M135.62,99.82a2.52,2.52,0,0,1,3.43-1,2.07,2.07,0,0,1,.25.15,2.45,2.45,0,0,0-1-.91,2.53,2.53,0,0,0-2.67,4.29A2.52,2.52,0,0,1,135.62,99.82Z" transform="translate(-3.74 -56.07)"/></svg>