<svg xmlns="http://www.w3.org/2000/svg" xmlns:xlink="http://www.w3.org/1999/xlink" viewBox="0 0 300 300"><defs><style>.cls-1{mask:url(#mask);filter:url(#luminosity-noclip-22);}.cls-10,.cls-12,.cls-14,.cls-16,.cls-18,.cls-2,.cls-20,.cls-22,.cls-24,.cls-26,.cls-28,.cls-30,.cls-32,.cls-34,.cls-36,.cls-38,.cls-4,.cls-40,.cls-42,.cls-6,.cls-8{mix-blend-mode:multiply;}.cls-2{fill:url(#linear-gradient);}.cls-3{mask:url(#mask-2);filter:url(#luminosity-noclip-27);}.cls-4{fill:url(#linear-gradient-2);}.cls-5{mask:url(#mask-3);filter:url(#luminosity-noclip-28);}.cls-6{fill:url(#linear-gradient-3);}.cls-7{mask:url(#mask-4);filter:url(#luminosity-noclip-29);}.cls-8{fill:url(#linear-gradient-4);}.cls-9{mask:url(#mask-5);filter:url(#luminosity-noclip-30);}.cls-10{fill:url(#linear-gradient-5);}.cls-11{mask:url(#mask-6);filter:url(#luminosity-noclip-31);}.cls-12{fill:url(#linear-gradient-6);}.cls-13{mask:url(#mask-7);filter:url(#luminosity-noclip-23);}.cls-14{fill:url(#linear-gradient-7);}.cls-15{mask:url(#mask-8);filter:url(#luminosity-noclip-32);}.cls-16{fill:url(#linear-gradient-8);}.cls-17{mask:url(#mask-9);filter:url(#luminosity-noclip-33);}.cls-18{fill:url(#linear-gradient-9);}.cls-19{mask:url(#mask-10);filter:url(#luminosity-noclip-34);}.cls-20{fill:url(#linear-gradient-10);}.cls-21{mask:url(#mask-11);filter:url(#luminosity-noclip-35);}.cls-22{fill:url(#linear-gradient-11);}.cls-23{mask:url(#mask-12);filter:url(#luminosity-noclip-36);}.cls-24{fill:url(#linear-gradient-12);}.cls-25{mask:url(#mask-13);filter:url(#luminosity-noclip-37);}.cls-26{fill:url(#linear-gradient-13);}.cls-27{mask:url(#mask-14);filter:url(#luminosity-noclip-38);}.cls-28{fill:url(#linear-gradient-14);}.cls-29{mask:url(#mask-15);filter:url(#luminosity-noclip-39);}.cls-30{fill:url(#linear-gradient-15);}.cls-31{mask:url(#mask-16);filter:url(#luminosity-noclip-40);}.cls-32{fill:url(#linear-gradient-16);}.cls-33{mask:url(#mask-17);filter:url(#luminosity-noclip-41);}.cls-34{fill:url(#linear-gradient-17);}.cls-35{mask:url(#mask-18);filter:url(#luminosity-noclip-24);}.cls-36{fill:url(#linear-gradient-18);}.cls-37{mask:url(#mask-19);filter:url(#luminosity-noclip-42);}.cls-38{fill:url(#linear-gradient-19);}.cls-39{mask:url(#mask-20);filter:url(#luminosity-noclip-25);}.cls-40{fill:url(#linear-gradient-20);}.cls-41{mask:url(#mask-21);filter:url(#luminosity-noclip-26);}.cls-42{fill:url(#linear-gradient-21);}.cls-43{fill:url(#linear-gradient-22);}.cls-44{fill:url(#linear-gradient-23);}.cls-45{fill:#db1f26;}.cls-46,.cls-61{opacity:0.5;}.cls-47{fill:#010101;}.cls-48{fill:url(#linear-gradient-24);}.cls-49{opacity:0.85;}.cls-50,.cls-51,.cls-52,.cls-53,.cls-61{fill:#6dcace;}.cls-50{opacity:0.75;}.cls-52{opacity:0.88;}.cls-53{opacity:0.97;}.cls-54{mask:url(#mask-22);}.cls-55,.cls-57,.cls-59,.cls-60,.cls-64,.cls-66{opacity:0.77;}.cls-55{fill:url(#linear-gradient-25);}.cls-56{mask:url(#mask-23);}.cls-57{fill:url(#linear-gradient-26);}.cls-58{mask:url(#mask-24);}.cls-59{fill:url(#linear-gradient-27);}.cls-62{opacity:0.95;}.cls-63{mask:url(#mask-25);}.cls-64{fill:url(#linear-gradient-28);}.cls-65{mask:url(#mask-26);}.cls-66{fill:url(#linear-gradient-29);}.cls-67{fill:url(#linear-gradient-30);}.cls-68{fill:url(#linear-gradient-31);}.cls-69{fill:url(#linear-gradient-32);}.cls-70{fill:url(#linear-gradient-33);}.cls-71{fill:url(#linear-gradient-34);}.cls-72{fill:url(#linear-gradient-35);}.cls-73{fill:#fbb687;}.cls-74{fill:#ffda9c;}.cls-75{fill:#cce6f2;}.cls-76{fill:#0c101b;}.cls-77{fill:#0a0c09;}.cls-78{fill:#f89c6a;}.cls-79{fill:#f9a974;}.cls-80{fill:#050505;}.cls-81{fill:#070807;}.cls-82{fill:#908e35;}.cls-83{fill:#a3a637;}.cls-84{fill:#0e1326;}.cls-85{fill:#0b152f;}.cls-86{fill:#191819;}.cls-87{fill:#0c0f18;}.cls-88{fill:#100d0f;}.cls-89{mask:url(#mask-27);}.cls-100,.cls-102,.cls-104,.cls-106,.cls-108,.cls-110,.cls-112,.cls-114,.cls-116,.cls-118,.cls-120,.cls-90,.cls-92,.cls-94,.cls-96,.cls-98{opacity:0.6;}.cls-90{fill:url(#linear-gradient-36);}.cls-91{mask:url(#mask-28);}.cls-92{fill:url(#linear-gradient-37);}.cls-93{mask:url(#mask-29);}.cls-94{fill:url(#linear-gradient-38);}.cls-95{mask:url(#mask-30);}.cls-96{fill:url(#linear-gradient-39);}.cls-97{mask:url(#mask-31);}.cls-98{fill:url(#linear-gradient-40);}.cls-99{mask:url(#mask-32);}.cls-100{fill:url(#linear-gradient-41);}.cls-101{mask:url(#mask-33);}.cls-102{fill:url(#linear-gradient-42);}.cls-103{mask:url(#mask-34);}.cls-104{fill:url(#linear-gradient-43);}.cls-105{mask:url(#mask-35);}.cls-106{fill:url(#linear-gradient-44);}.cls-107{mask:url(#mask-36);}.cls-108{fill:url(#linear-gradient-45);}.cls-109{mask:url(#mask-37);}.cls-110{fill:url(#linear-gradient-46);}.cls-111{mask:url(#mask-38);}.cls-112{fill:url(#linear-gradient-47);}.cls-113{mask:url(#mask-39);}.cls-114{fill:url(#linear-gradient-48);}.cls-115{mask:url(#mask-40);}.cls-116{fill:url(#linear-gradient-49);}.cls-117{mask:url(#mask-41);}.cls-118{fill:url(#linear-gradient-50);}.cls-119{mask:url(#mask-42);}.cls-120{fill:url(#linear-gradient-51);}.cls-121,.cls-123{fill:#fff;}.cls-122{isolation:isolate;}.cls-123{opacity:0.9;}.cls-124{opacity:0.57;}.cls-125{opacity:0.75;}.cls-126{fill:url(#linear-gradient-52);}.cls-127{fill:url(#linear-gradient-53);}.cls-128{fill:url(#linear-gradient-54);}.cls-129{fill:url(#linear-gradient-55);}.cls-130{fill:url(#linear-gradient-56);}.cls-131{fill:url(#linear-gradient-57);}.cls-132{fill:url(#linear-gradient-58);}.cls-133{fill:url(#linear-gradient-59);}.cls-134{fill:url(#linear-gradient-60);}.cls-135{filter:url(#luminosity-noclip-21);}.cls-136{filter:url(#luminosity-noclip-20);}.cls-137{filter:url(#luminosity-noclip-19);}.cls-138{filter:url(#luminosity-noclip-18);}.cls-139{filter:url(#luminosity-noclip-17);}.cls-140{filter:url(#luminosity-noclip-16);}.cls-141{filter:url(#luminosity-noclip-15);}.cls-142{filter:url(#luminosity-noclip-14);}.cls-143{filter:url(#luminosity-noclip-13);}.cls-144{filter:url(#luminosity-noclip-12);}.cls-145{filter:url(#luminosity-noclip-11);}.cls-146{filter:url(#luminosity-noclip-10);}.cls-147{filter:url(#luminosity-noclip-9);}.cls-148{filter:url(#luminosity-noclip-8);}.cls-149{filter:url(#luminosity-noclip-7);}.cls-150{filter:url(#luminosity-noclip-6);}.cls-151{filter:url(#luminosity-noclip-5);}.cls-152{filter:url(#luminosity-noclip-4);}.cls-153{filter:url(#luminosity-noclip-3);}.cls-154{filter:url(#luminosity-noclip-2);}.cls-155{filter:url(#luminosity-noclip);}</style><filter id="luminosity-noclip" x="215.55" y="-9462" width="31.07" height="32766" filterUnits="userSpaceOnUse" color-interpolation-filters="sRGB"><feFlood flood-color="#fff" result="bg"/><feBlend in="SourceGraphic" in2="bg"/></filter><mask id="mask" x="215.55" y="-9462" width="31.07" height="32766" maskUnits="userSpaceOnUse"><g class="cls-155"/></mask><linearGradient id="linear-gradient" x1="231.08" y1="164.92" x2="231.08" y2="91.16" gradientUnits="userSpaceOnUse"><stop offset="0" stop-color="#b3b3b3"/><stop offset="0.1" stop-color="#ababab"/><stop offset="0.43" stop-color="#939393"/><stop offset="0.74" stop-color="#858585"/><stop offset="1" stop-color="gray"/></linearGradient><filter id="luminosity-noclip-2" x="127.1" y="-9462" width="9.54" height="32766" filterUnits="userSpaceOnUse" color-interpolation-filters="sRGB"><feFlood flood-color="#fff" result="bg"/><feBlend in="SourceGraphic" in2="bg"/></filter><mask id="mask-2" x="127.1" y="-9462" width="9.54" height="32766" maskUnits="userSpaceOnUse"><g class="cls-154"/></mask><linearGradient id="linear-gradient-2" x1="-1509.82" y1="2019.91" x2="-1585.16" y2="2150.4" gradientTransform="translate(1678.92 -1942.99)" gradientUnits="userSpaceOnUse"><stop offset="0"/><stop offset="1" stop-color="#b3b3b3"/></linearGradient><filter id="luminosity-noclip-3" x="115.79" y="-9462" width="9.11" height="32766" filterUnits="userSpaceOnUse" color-interpolation-filters="sRGB"><feFlood flood-color="#fff" result="bg"/><feBlend in="SourceGraphic" in2="bg"/></filter><mask id="mask-3" x="115.79" y="-9462" width="9.11" height="32766" maskUnits="userSpaceOnUse"><g class="cls-153"/></mask><linearGradient id="linear-gradient-3" x1="-1523.4" y1="2018.84" x2="-1592.21" y2="2138.01" xlink:href="#linear-gradient-2"/><filter id="luminosity-noclip-4" x="136.63" y="-9462" width="6.3" height="32766" filterUnits="userSpaceOnUse" color-interpolation-filters="sRGB"><feFlood flood-color="#fff" result="bg"/><feBlend in="SourceGraphic" in2="bg"/></filter><mask id="mask-4" x="136.63" y="-9462" width="6.3" height="32766" maskUnits="userSpaceOnUse"><g class="cls-152"/></mask><linearGradient id="linear-gradient-4" x1="-1501.89" y1="2020.85" x2="-1575.55" y2="2148.43" xlink:href="#linear-gradient-2"/><filter id="luminosity-noclip-5" x="124.9" y="-9462" width="2.2" height="32766" filterUnits="userSpaceOnUse" color-interpolation-filters="sRGB"><feFlood flood-color="#fff" result="bg"/><feBlend in="SourceGraphic" in2="bg"/></filter><mask id="mask-5" x="124.9" y="-9462" width="2.2" height="32766" maskUnits="userSpaceOnUse"><g class="cls-151"/></mask><linearGradient id="linear-gradient-5" x1="-1518.03" y1="2020.67" x2="-1587.27" y2="2140.6" xlink:href="#linear-gradient-2"/><filter id="luminosity-noclip-6" x="142.93" y="-9462" width="2.15" height="32766" filterUnits="userSpaceOnUse" color-interpolation-filters="sRGB"><feFlood flood-color="#fff" result="bg"/><feBlend in="SourceGraphic" in2="bg"/></filter><mask id="mask-6" x="142.93" y="-9462" width="2.15" height="32766" maskUnits="userSpaceOnUse"><g class="cls-150"/></mask><linearGradient id="linear-gradient-6" x1="-1496.95" y1="2022.45" x2="-1572.32" y2="2152.99" xlink:href="#linear-gradient-2"/><filter id="luminosity-noclip-7" x="116.22" y="-9462" width="81.04" height="32766" filterUnits="userSpaceOnUse" color-interpolation-filters="sRGB"><feFlood flood-color="#fff" result="bg"/><feBlend in="SourceGraphic" in2="bg"/></filter><mask id="mask-7" x="116.22" y="-9462" width="81.04" height="32766" maskUnits="userSpaceOnUse"><g class="cls-149"/></mask><linearGradient id="linear-gradient-7" x1="156.74" y1="116.56" x2="156.74" y2="76.42" xlink:href="#linear-gradient"/><filter id="luminosity-noclip-8" x="153.86" y="-9462" width="3.86" height="32766" filterUnits="userSpaceOnUse" color-interpolation-filters="sRGB"><feFlood flood-color="#fff" result="bg"/><feBlend in="SourceGraphic" in2="bg"/></filter><mask id="mask-8" x="153.86" y="-9462" width="3.86" height="32766" maskUnits="userSpaceOnUse"><g class="cls-148"/></mask><linearGradient id="linear-gradient-8" x1="-1486.02" y1="2021.47" x2="-1562.56" y2="2154.03" xlink:href="#linear-gradient-2"/><filter id="luminosity-noclip-9" x="157.72" y="-9462" width="6.65" height="32766" filterUnits="userSpaceOnUse" color-interpolation-filters="sRGB"><feFlood flood-color="#fff" result="bg"/><feBlend in="SourceGraphic" in2="bg"/></filter><mask id="mask-9" x="157.72" y="-9462" width="6.65" height="32766" maskUnits="userSpaceOnUse"><g class="cls-147"/></mask><linearGradient id="linear-gradient-9" x1="-1480.68" y1="2020.72" x2="-1555.59" y2="2150.47" xlink:href="#linear-gradient-2"/><filter id="luminosity-noclip-10" x="164.37" y="-9462" width="8.48" height="32766" filterUnits="userSpaceOnUse" color-interpolation-filters="sRGB"><feFlood flood-color="#fff" result="bg"/><feBlend in="SourceGraphic" in2="bg"/></filter><mask id="mask-10" x="164.37" y="-9462" width="8.48" height="32766" maskUnits="userSpaceOnUse"><g class="cls-146"/></mask><linearGradient id="linear-gradient-10" x1="-1472.2" y1="2020.71" x2="-1547.05" y2="2150.36" xlink:href="#linear-gradient-2"/><filter id="luminosity-noclip-11" x="179.09" y="-9462" width="9.81" height="32766" filterUnits="userSpaceOnUse" color-interpolation-filters="sRGB"><feFlood flood-color="#fff" result="bg"/><feBlend in="SourceGraphic" in2="bg"/></filter><mask id="mask-11" x="179.09" y="-9462" width="9.81" height="32766" maskUnits="userSpaceOnUse"><g class="cls-145"/></mask><linearGradient id="linear-gradient-11" x1="-1459.57" y1="2018.74" x2="-1530.82" y2="2142.15" xlink:href="#linear-gradient-2"/><filter id="luminosity-noclip-12" x="175.79" y="-9462" width="3.3" height="32766" filterUnits="userSpaceOnUse" color-interpolation-filters="sRGB"><feFlood flood-color="#fff" result="bg"/><feBlend in="SourceGraphic" in2="bg"/></filter><mask id="mask-12" x="175.79" y="-9462" width="3.3" height="32766" maskUnits="userSpaceOnUse"><g class="cls-144"/></mask><linearGradient id="linear-gradient-12" x1="-1466.67" y1="2020.31" x2="-1537.85" y2="2143.61" xlink:href="#linear-gradient-2"/><filter id="luminosity-noclip-13" x="175.79" y="-9462" width="3.82" height="32766" filterUnits="userSpaceOnUse" color-interpolation-filters="sRGB"><feFlood flood-color="#fff" result="bg"/><feBlend in="SourceGraphic" in2="bg"/></filter><mask id="mask-13" x="175.79" y="-9462" width="3.82" height="32766" maskUnits="userSpaceOnUse"><g class="cls-143"/></mask><linearGradient id="linear-gradient-13" x1="-1464.4" y1="2021.32" x2="-1537.08" y2="2147.21" xlink:href="#linear-gradient-2"/><filter id="luminosity-noclip-14" x="121.75" y="-9462" width="5.65" height="32766" filterUnits="userSpaceOnUse" color-interpolation-filters="sRGB"><feFlood flood-color="#fff" result="bg"/><feBlend in="SourceGraphic" in2="bg"/></filter><mask id="mask-14" x="121.75" y="-9462" width="5.65" height="32766" maskUnits="userSpaceOnUse"><g class="cls-142"/></mask><linearGradient id="linear-gradient-14" x1="-1517.12" y1="2021.02" x2="-1590.15" y2="2147.52" xlink:href="#linear-gradient-2"/><filter id="luminosity-noclip-15" x="115.79" y="-9462" width="0.78" height="32766" filterUnits="userSpaceOnUse" color-interpolation-filters="sRGB"><feFlood flood-color="#fff" result="bg"/><feBlend in="SourceGraphic" in2="bg"/></filter><mask id="mask-15" x="115.79" y="-9462" width="0.78" height="32766" maskUnits="userSpaceOnUse"><g class="cls-141"/></mask><linearGradient id="linear-gradient-15" x1="-1529.67" y1="2020.03" x2="-1596.39" y2="2135.59" xlink:href="#linear-gradient-2"/><filter id="luminosity-noclip-16" x="145.09" y="-9462" width="8.78" height="32766" filterUnits="userSpaceOnUse" color-interpolation-filters="sRGB"><feFlood flood-color="#fff" result="bg"/><feBlend in="SourceGraphic" in2="bg"/></filter><mask id="mask-16" x="145.09" y="-9462" width="8.78" height="32766" maskUnits="userSpaceOnUse"><g class="cls-140"/></mask><linearGradient id="linear-gradient-16" x1="-1490.56" y1="2021.08" x2="-1568.12" y2="2155.42" xlink:href="#linear-gradient-2"/><filter id="luminosity-noclip-17" x="172.85" y="-9462" width="6.76" height="32766" filterUnits="userSpaceOnUse" color-interpolation-filters="sRGB"><feFlood flood-color="#fff" result="bg"/><feBlend in="SourceGraphic" in2="bg"/></filter><mask id="mask-17" x="172.85" y="-9462" width="6.76" height="32766" maskUnits="userSpaceOnUse"><g class="cls-139"/></mask><linearGradient id="linear-gradient-17" x1="-1465.5" y1="2020.68" x2="-1541.29" y2="2151.95" xlink:href="#linear-gradient-2"/><filter id="luminosity-noclip-18" x="54.03" y="-9462" width="41.96" height="32766" filterUnits="userSpaceOnUse" color-interpolation-filters="sRGB"><feFlood flood-color="#fff" result="bg"/><feBlend in="SourceGraphic" in2="bg"/></filter><mask id="mask-18" x="54.03" y="-9462" width="41.96" height="32766" maskUnits="userSpaceOnUse"><g class="cls-138"/></mask><linearGradient id="linear-gradient-18" x1="75.01" y1="157.52" x2="75.01" y2="85.83" xlink:href="#linear-gradient"/><filter id="luminosity-noclip-19" x="188.9" y="-9462" width="0.78" height="32766" filterUnits="userSpaceOnUse" color-interpolation-filters="sRGB"><feFlood flood-color="#fff" result="bg"/><feBlend in="SourceGraphic" in2="bg"/></filter><mask id="mask-19" x="188.9" y="-9462" width="0.78" height="32766" maskUnits="userSpaceOnUse"><g class="cls-137"/></mask><linearGradient id="linear-gradient-19" x1="-1455.7" y1="2020.53" x2="-1524.15" y2="2139.1" xlink:href="#linear-gradient-2"/><filter id="luminosity-noclip-20" x="53.92" y="-9462" width="40.57" height="32766" filterUnits="userSpaceOnUse" color-interpolation-filters="sRGB"><feFlood flood-color="#fff" result="bg"/><feBlend in="SourceGraphic" in2="bg"/></filter><mask id="mask-20" x="53.92" y="-9462" width="40.57" height="32766" maskUnits="userSpaceOnUse"><g class="cls-136"/></mask><linearGradient id="linear-gradient-20" x1="74.21" y1="218.62" x2="74.21" y2="146.5" xlink:href="#linear-gradient"/><filter id="luminosity-noclip-21" x="214.21" y="-9462" width="32.51" height="32766" filterUnits="userSpaceOnUse" color-interpolation-filters="sRGB"><feFlood flood-color="#fff" result="bg"/><feBlend in="SourceGraphic" in2="bg"/></filter><mask id="mask-21" x="214.21" y="-9462" width="32.51" height="32766" maskUnits="userSpaceOnUse"><g class="cls-135"/></mask><linearGradient id="linear-gradient-21" x1="230.47" y1="214.69" x2="230.47" y2="141.12" xlink:href="#linear-gradient"/><linearGradient id="linear-gradient-22" x1="-1223.67" y1="871.88" x2="-925.42" y2="871.88" gradientTransform="translate(1022.33 1224.66) rotate(90)" gradientUnits="userSpaceOnUse"><stop offset="0" stop-color="#fffffd"/><stop offset="1" stop-color="#e2e3e4"/></linearGradient><linearGradient id="linear-gradient-23" x1="-1212.19" y1="871.88" x2="-936.89" y2="871.88" gradientTransform="translate(1022.33 1224.66) rotate(90)" gradientUnits="userSpaceOnUse"><stop offset="0" stop-color="#4a90cd"/><stop offset="1" stop-color="#2055a6"/></linearGradient><linearGradient id="linear-gradient-24" x1="-1184.67" y1="871.88" x2="-964.43" y2="871.88" gradientTransform="translate(1022.34 1224.67) rotate(90)" xlink:href="#linear-gradient-22"/><filter id="luminosity-noclip-22" x="215.55" y="91.16" width="31.07" height="73.76" filterUnits="userSpaceOnUse" color-interpolation-filters="sRGB"><feFlood flood-color="#fff" result="bg"/><feBlend in="SourceGraphic" in2="bg"/></filter><mask id="mask-22" x="215.55" y="91.16" width="31.07" height="73.76" maskUnits="userSpaceOnUse"><g class="cls-1"><path class="cls-2" d="M246.54,156.59V135.83a37,37,0,0,0-8-20V136.6a37.09,37.09,0,0,1,8,20Zm-10.38-22.9V112.92a60.05,60.05,0,0,0-5.5-5.42v20.77a60.05,60.05,0,0,1,5.5,5.42Zm-8.9-8.19V104.74a78.18,78.18,0,0,0-7-4.77v20.76a82.63,82.63,0,0,1,7,4.77Zm-11.71-1.3v-33c19.13,10.15,31.07,24.66,31.07,40.72v33c0-16.06-11.94-30.57-31.07-40.72Z"/></g></mask><linearGradient id="linear-gradient-25" x1="231.08" y1="164.92" x2="231.08" y2="91.16" gradientUnits="userSpaceOnUse"><stop offset="0" stop-color="#5a64ad"/><stop offset="0.16" stop-color="#5f7eb5"/><stop offset="0.39" stop-color="#659fc0"/><stop offset="0.61" stop-color="#69b7c8"/><stop offset="0.82" stop-color="#6cc5cc"/><stop offset="1" stop-color="#6dcace"/></linearGradient><filter id="luminosity-noclip-23" x="116.22" y="76.42" width="81.04" height="40.13" filterUnits="userSpaceOnUse" color-interpolation-filters="sRGB"><feFlood flood-color="#fff" result="bg"/><feBlend in="SourceGraphic" in2="bg"/></filter><mask id="mask-23" x="116.22" y="76.42" width="81.04" height="40.13" maskUnits="userSpaceOnUse"><g class="cls-13"><path class="cls-14" d="M180.56,108.34v-6c-1.46-.28-2.93-.54-4.42-.78v6c1.49.24,3,.5,4.42.78Zm-8-7.28V95.78c-1.51-.21-3-.4-4.58-.56v5.28c1.54.16,3.07.35,4.58.56Zm15.62,3v-7.2c-1.4-.35-2.82-.68-4.25-1v7.2c1.43.31,2.85.64,4.25,1Zm-23.85-3.91V89.51c-1.56-.13-3.13-.24-4.72-.33V99.8c1.59.09,3.16.21,4.72.34Zm-17.1-.6V88.91c-1.6,0-3.2.08-4.78.14V99.68c1.58-.07,3.18-.11,4.78-.14Zm-8.49.34V86.52c-1.57.1-3.12.23-4.67.37v13.37c1.55-.15,3.1-.27,4.67-.38Zm17.12-.25V84.34c-1.43,0-2.87-.08-4.32-.1h-.51V99.53h.51c1.45,0,2.89,0,4.32.1Zm-25.4,1V81.51c-1.53.18-3,.38-4.54.6v19.12c1.5-.22,3-.41,4.54-.59ZM116.22,79.88a162.39,162.39,0,0,1,35.36-3.45,154.67,154.67,0,0,1,45.68,7.09v33a154.35,154.35,0,0,0-45.68-7.09,162.4,162.4,0,0,0-35.36,3.44v-33Z"/></g></mask><linearGradient id="linear-gradient-26" x1="156.74" y1="116.56" x2="156.74" y2="76.42" xlink:href="#linear-gradient-25"/><filter id="luminosity-noclip-24" x="54.03" y="85.83" width="41.96" height="71.69" filterUnits="userSpaceOnUse" color-interpolation-filters="sRGB"><feFlood flood-color="#fff" result="bg"/><feBlend in="SourceGraphic" in2="bg"/></filter><mask id="mask-24" x="54.03" y="85.83" width="41.96" height="71.69" maskUnits="userSpaceOnUse"><g class="cls-35"><path class="cls-36" d="M60,124.69V118a40.2,40.2,0,0,0-4.69,8.86v19.7A40.2,40.2,0,0,1,60,137.74v-6.65c.57-.83,1.18-1.64,1.82-2.45v3.59a56.39,56.39,0,0,1,4-4.46v-3.58C72,117.92,80.34,112.41,90.16,108v-6.39c-1.75.78-3.45,1.61-5.1,2.46-.82.43-1.63.86-2.43,1.31a75.55,75.55,0,0,0-16.27,11.87c-.18.19-.37.37-.56.56V114.2a56.39,56.39,0,0,0-4,4.46v3.59c-.64.8-1.25,1.61-1.82,2.44Zm-6-.21c3.76-16.12,19.55-30,42-38.65v33c-22.41,8.64-38.2,22.53-42,38.65v-33Z"/></g></mask><linearGradient id="linear-gradient-27" x1="75.01" y1="157.52" x2="75.01" y2="85.83" xlink:href="#linear-gradient-25"/><filter id="luminosity-noclip-25" x="53.92" y="146.5" width="40.57" height="72.13" filterUnits="userSpaceOnUse" color-interpolation-filters="sRGB"><feFlood flood-color="#fff" result="bg"/><feBlend in="SourceGraphic" in2="bg"/></filter><mask id="mask-25" x="53.92" y="146.5" width="40.57" height="72.13" maskUnits="userSpaceOnUse"><g class="cls-39"><path class="cls-40" d="M84,208.84v-5.58c1.12.6,2.26,1.18,3.43,1.75v5.58c-1.17-.57-2.31-1.15-3.43-1.75Zm-11-7V191.58c.93.7,1.88,1.38,2.87,2.06v10.28c-1-.67-1.94-1.36-2.87-2.06Zm5.24,3.62V193.35c1,.65,2.08,1.29,3.16,1.91V207.4c-1.08-.63-2.14-1.26-3.16-1.92ZM64.2,193.9V180.44c.71.78,1.46,1.55,2.23,2.32v13.46c-.77-.76-1.52-1.54-2.23-2.32Zm4.12,4.1V183.41c.82.75,1.68,1.48,2.56,2.2v14.58c-.88-.72-1.74-1.45-2.56-2.19ZM57.81,185.09V169.28c.48.86,1,1.71,1.53,2.54v15.81c-.54-.83-1.05-1.68-1.53-2.54Zm2.87,4.5V169c.6.82,1.23,1.64,1.89,2.44V192c-.66-.81-1.29-1.62-1.89-2.44Zm-5.06-9.16V157.2c.34.88.72,1.76,1.14,2.63v23.23c-.42-.87-.8-1.75-1.14-2.63Zm38.87,5.15c-22.1-8.9-37.37-23-40.57-39.08v33c3.2,16.12,18.47,30.19,40.57,39.09v-33Z"/></g></mask><linearGradient id="linear-gradient-28" x1="74.21" y1="218.62" x2="74.21" y2="146.5" xlink:href="#linear-gradient-25"/><filter id="luminosity-noclip-26" x="214.21" y="141.12" width="32.51" height="73.57" filterUnits="userSpaceOnUse" color-interpolation-filters="sRGB"><feFlood flood-color="#fff" result="bg"/><feBlend in="SourceGraphic" in2="bg"/></filter><mask id="mask-26" x="214.21" y="141.12" width="32.51" height="73.57" maskUnits="userSpaceOnUse"><g class="cls-41"><path class="cls-42" d="M219.41,198.52v-6.4c15.42-9.1,25.46-21.24,27.1-34.74v6.4c-1.64,13.5-11.68,25.64-27.1,34.74Zm27.32-24.36v-33c-.49,16.16-13,30.58-32.52,40.53v33c19.54-9.95,32-24.37,32.52-40.53Z"/></g></mask><linearGradient id="linear-gradient-29" x1="230.47" y1="214.69" x2="230.47" y2="141.12" xlink:href="#linear-gradient-25"/><linearGradient id="linear-gradient-30" x1="125.87" y1="202.92" x2="129.63" y2="202.92" gradientUnits="userSpaceOnUse"><stop offset="0.01" stop-color="#62c6bf"/><stop offset="0.99" stop-color="#3771b8"/></linearGradient><linearGradient id="linear-gradient-31" x1="178.24" y1="205.75" x2="183.58" y2="205.75" xlink:href="#linear-gradient-30"/><linearGradient id="linear-gradient-32" x1="138.77" y1="211" x2="166.58" y2="211" xlink:href="#linear-gradient-30"/><linearGradient id="linear-gradient-33" x1="121.73" y1="225.48" x2="189.66" y2="225.48" xlink:href="#linear-gradient-30"/><linearGradient id="linear-gradient-34" x1="115.77" y1="218.71" x2="127.1" y2="218.71" xlink:href="#linear-gradient-30"/><linearGradient id="linear-gradient-35" x1="115.8" y1="211.29" x2="189.67" y2="211.29" xlink:href="#linear-gradient-30"/><filter id="luminosity-noclip-27" x="127.1" y="58.17" width="9.54" height="168.67" filterUnits="userSpaceOnUse" color-interpolation-filters="sRGB"><feFlood flood-color="#fff" result="bg"/><feBlend in="SourceGraphic" in2="bg"/></filter><mask id="mask-27" x="127.1" y="58.17" width="9.54" height="168.67" maskUnits="userSpaceOnUse"><g class="cls-3"><path class="cls-4" d="M127.4,226.84l9.23-2.19V58.17H127.1Z"/></g></mask><linearGradient id="linear-gradient-36" x1="-1509.82" y1="2019.91" x2="-1585.16" y2="2150.4" gradientTransform="translate(1678.92 -1942.99)" gradientUnits="userSpaceOnUse"><stop offset="0" stop-color="#85d4eb"/><stop offset="1" stop-color="#85d4eb"/></linearGradient><filter id="luminosity-noclip-28" x="115.79" y="58.17" width="9.11" height="155.85" filterUnits="userSpaceOnUse" color-interpolation-filters="sRGB"><feFlood flood-color="#fff" result="bg"/><feBlend in="SourceGraphic" in2="bg"/></filter><mask id="mask-28" x="115.79" y="58.17" width="9.11" height="155.85" maskUnits="userSpaceOnUse"><g class="cls-5"><polyline class="cls-6" points="115.79 161.12 115.79 211.81 124.9 214.02 124.9 58.17 116.57 58.17"/></g></mask><linearGradient id="linear-gradient-37" x1="-1523.4" y1="2018.84" x2="-1592.21" y2="2138.01" xlink:href="#linear-gradient-36"/><filter id="luminosity-noclip-29" x="136.63" y="58.17" width="6.3" height="168.38" filterUnits="userSpaceOnUse" color-interpolation-filters="sRGB"><feFlood flood-color="#fff" result="bg"/><feBlend in="SourceGraphic" in2="bg"/></filter><mask id="mask-29" x="136.63" y="58.17" width="6.3" height="168.38" maskUnits="userSpaceOnUse"><g class="cls-7"><path class="cls-8" d="M136.63,58.17V224.65q1.29.51,2.79,1c1.24.38,2.42.68,3.51.91V58.17Z"/></g></mask><linearGradient id="linear-gradient-38" x1="-1501.89" y1="2020.85" x2="-1575.55" y2="2148.43" xlink:href="#linear-gradient-36"/><filter id="luminosity-noclip-30" x="124.9" y="58.17" width="2.2" height="159.9" filterUnits="userSpaceOnUse" color-interpolation-filters="sRGB"><feFlood flood-color="#fff" result="bg"/><feBlend in="SourceGraphic" in2="bg"/></filter><mask id="mask-30" x="124.9" y="58.17" width="2.2" height="159.9" maskUnits="userSpaceOnUse"><g class="cls-9"><path class="cls-10" d="M127.1,58.17v159.9a11.56,11.56,0,0,1-1.35-2,11.39,11.39,0,0,1-.85-2V58.17Z"/></g></mask><linearGradient id="linear-gradient-39" x1="-1518.03" y1="2020.67" x2="-1587.27" y2="2140.6" xlink:href="#linear-gradient-36"/><filter id="luminosity-noclip-31" x="142.93" y="58.17" width="2.15" height="174.05" filterUnits="userSpaceOnUse" color-interpolation-filters="sRGB"><feFlood flood-color="#fff" result="bg"/><feBlend in="SourceGraphic" in2="bg"/></filter><mask id="mask-31" x="142.93" y="58.17" width="2.15" height="174.05" maskUnits="userSpaceOnUse"><g class="cls-11"><polygon class="cls-12" points="142.93 226.55 145.09 232.22 145.09 58.17 142.93 58.17 142.93 226.55"/></g></mask><linearGradient id="linear-gradient-40" x1="-1496.95" y1="2022.45" x2="-1572.32" y2="2152.99" xlink:href="#linear-gradient-36"/><filter id="luminosity-noclip-32" x="153.86" y="58.17" width="3.86" height="174.52" filterUnits="userSpaceOnUse" color-interpolation-filters="sRGB"><feFlood flood-color="#fff" result="bg"/><feBlend in="SourceGraphic" in2="bg"/></filter><mask id="mask-32" x="153.86" y="58.17" width="3.86" height="174.52" maskUnits="userSpaceOnUse"><g class="cls-15"><polygon class="cls-16" points="157.72 58.17 157.72 227.33 153.86 232.69 153.86 58.17 157.72 58.17"/></g></mask><linearGradient id="linear-gradient-41" x1="-1486.02" y1="2021.47" x2="-1562.56" y2="2154.03" xlink:href="#linear-gradient-36"/><filter id="luminosity-noclip-33" x="157.72" y="58.17" width="6.65" height="169.16" filterUnits="userSpaceOnUse" color-interpolation-filters="sRGB"><feFlood flood-color="#fff" result="bg"/><feBlend in="SourceGraphic" in2="bg"/></filter><mask id="mask-33" x="157.72" y="58.17" width="6.65" height="169.16" maskUnits="userSpaceOnUse"><g class="cls-17"><path class="cls-18" d="M157.72,58.17V227.33c1-.1,2.09-.25,3.23-.45s2.36-.47,3.42-.74v-168Z"/></g></mask><linearGradient id="linear-gradient-42" x1="-1480.68" y1="2020.72" x2="-1555.59" y2="2150.47" xlink:href="#linear-gradient-36"/><filter id="luminosity-noclip-34" x="164.37" y="58.17" width="8.48" height="171.12" filterUnits="userSpaceOnUse" color-interpolation-filters="sRGB"><feFlood flood-color="#fff" result="bg"/><feBlend in="SourceGraphic" in2="bg"/></filter><mask id="mask-34" x="164.37" y="58.17" width="8.48" height="171.12" maskUnits="userSpaceOnUse"><g class="cls-19"><polygon class="cls-20" points="164.37 226.14 172.85 229.29 172.85 58.17 164.37 58.17 164.37 226.14"/></g></mask><linearGradient id="linear-gradient-43" x1="-1472.2" y1="2020.71" x2="-1547.05" y2="2150.36" xlink:href="#linear-gradient-36"/><filter id="luminosity-noclip-35" x="179.09" y="58.17" width="9.81" height="158.88" filterUnits="userSpaceOnUse" color-interpolation-filters="sRGB"><feFlood flood-color="#fff" result="bg"/><feBlend in="SourceGraphic" in2="bg"/></filter><mask id="mask-35" x="179.09" y="58.17" width="9.81" height="158.88" maskUnits="userSpaceOnUse"><g class="cls-21"><polygon class="cls-22" points="188.9 58.17 188.9 215.82 179.09 217.05 179.09 58.17 188.9 58.17"/></g></mask><linearGradient id="linear-gradient-44" x1="-1459.57" y1="2018.74" x2="-1530.82" y2="2142.15" xlink:href="#linear-gradient-36"/><filter id="luminosity-noclip-36" x="175.79" y="58.17" width="3.3" height="162.5" filterUnits="userSpaceOnUse" color-interpolation-filters="sRGB"><feFlood flood-color="#fff" result="bg"/><feBlend in="SourceGraphic" in2="bg"/></filter><mask id="mask-36" x="175.79" y="58.17" width="3.3" height="162.5" maskUnits="userSpaceOnUse"><g class="cls-23"><path class="cls-24" d="M179.09,58.17V217.05a16.78,16.78,0,0,1-1.36,1.75,16.59,16.59,0,0,1-1.94,1.87V58.17Z"/></g></mask><linearGradient id="linear-gradient-45" x1="-1466.67" y1="2020.31" x2="-1537.85" y2="2143.61" xlink:href="#linear-gradient-36"/><filter id="luminosity-noclip-37" x="175.79" y="58.17" width="3.82" height="167.86" filterUnits="userSpaceOnUse" color-interpolation-filters="sRGB"><feFlood flood-color="#fff" result="bg"/><feBlend in="SourceGraphic" in2="bg"/></filter><mask id="mask-37" x="175.79" y="58.17" width="3.82" height="167.86" maskUnits="userSpaceOnUse"><g class="cls-25"><polygon class="cls-26" points="175.79 220.66 179.61 226.03 179.61 58.17 175.79 58.17 175.79 220.66"/></g></mask><linearGradient id="linear-gradient-46" x1="-1464.4" y1="2021.32" x2="-1537.08" y2="2147.21" xlink:href="#linear-gradient-36"/><filter id="luminosity-noclip-38" x="121.75" y="58.17" width="5.65" height="168.67" filterUnits="userSpaceOnUse" color-interpolation-filters="sRGB"><feFlood flood-color="#fff" result="bg"/><feBlend in="SourceGraphic" in2="bg"/></filter><mask id="mask-38" x="121.75" y="58.17" width="5.65" height="168.67" maskUnits="userSpaceOnUse"><g class="cls-27"><polygon class="cls-28" points="121.75 58.17 121.75 222.91 127.4 226.84 127.4 58.17 121.75 58.17"/></g></mask><linearGradient id="linear-gradient-47" x1="-1517.12" y1="2021.02" x2="-1590.15" y2="2147.52" xlink:href="#linear-gradient-36"/><filter id="luminosity-noclip-39" x="115.79" y="58.17" width="0.78" height="153.64" filterUnits="userSpaceOnUse" color-interpolation-filters="sRGB"><feFlood flood-color="#fff" result="bg"/><feBlend in="SourceGraphic" in2="bg"/></filter><mask id="mask-39" x="115.79" y="58.17" width="0.78" height="153.64" maskUnits="userSpaceOnUse"><g class="cls-29"><polygon class="cls-30" points="116.57 206.72 115.79 211.81 115.79 58.17 116.57 58.17 116.57 206.72"/></g></mask><linearGradient id="linear-gradient-48" x1="-1529.67" y1="2020.03" x2="-1596.39" y2="2135.59" xlink:href="#linear-gradient-36"/><filter id="luminosity-noclip-40" x="145.09" y="58.17" width="8.78" height="174.52" filterUnits="userSpaceOnUse" color-interpolation-filters="sRGB"><feFlood flood-color="#fff" result="bg"/><feBlend in="SourceGraphic" in2="bg"/></filter><mask id="mask-40" x="145.09" y="58.17" width="8.78" height="174.52" maskUnits="userSpaceOnUse"><g class="cls-31"><polygon class="cls-32" points="145.09 58.17 145.09 232.22 153.86 232.69 153.86 58.17 145.09 58.17"/></g></mask><linearGradient id="linear-gradient-49" x1="-1490.56" y1="2021.08" x2="-1568.12" y2="2155.42" xlink:href="#linear-gradient-36"/><filter id="luminosity-noclip-41" x="172.85" y="58.17" width="6.76" height="171.12" filterUnits="userSpaceOnUse" color-interpolation-filters="sRGB"><feFlood flood-color="#fff" result="bg"/><feBlend in="SourceGraphic" in2="bg"/></filter><mask id="mask-41" x="172.85" y="58.17" width="6.76" height="171.12" maskUnits="userSpaceOnUse"><g class="cls-33"><polygon class="cls-34" points="172.85 58.17 172.85 229.29 179.61 226.03 179.61 58.17 172.85 58.17"/></g></mask><linearGradient id="linear-gradient-50" x1="-1465.5" y1="2020.68" x2="-1541.29" y2="2151.95" xlink:href="#linear-gradient-36"/><filter id="luminosity-noclip-42" x="188.9" y="58.17" width="0.78" height="157.65" filterUnits="userSpaceOnUse" color-interpolation-filters="sRGB"><feFlood flood-color="#fff" result="bg"/><feBlend in="SourceGraphic" in2="bg"/></filter><mask id="mask-42" x="188.9" y="58.17" width="0.78" height="157.65" maskUnits="userSpaceOnUse"><g class="cls-37"><polygon class="cls-38" points="189.68 58.17 189.68 210.74 188.9 215.82 188.9 58.17 189.68 58.17"/></g></mask><linearGradient id="linear-gradient-51" x1="-1455.7" y1="2020.53" x2="-1524.15" y2="2139.1" xlink:href="#linear-gradient-36"/><linearGradient id="linear-gradient-52" x1="1869.64" y1="176.59" x2="1877.52" y2="176.59" gradientTransform="matrix(-1, 0, 0, 1, 2083.91, 0)" xlink:href="#linear-gradient-30"/><linearGradient id="linear-gradient-53" x1="1856.57" y1="181.34" x2="1869.35" y2="181.34" gradientTransform="matrix(-1, 0, 0, 1, 2083.91, 0)" xlink:href="#linear-gradient-30"/><linearGradient id="linear-gradient-54" x1="1861.12" y1="186.2" x2="1869.58" y2="186.2" gradientTransform="matrix(-1, 0, 0, 1, 2083.91, 0)" xlink:href="#linear-gradient-30"/><linearGradient id="linear-gradient-55" x1="1861.33" y1="177.95" x2="1869.41" y2="177.95" gradientTransform="matrix(-1, 0, 0, 1, 2083.91, 0)" gradientUnits="userSpaceOnUse"><stop offset="0.01" stop-color="#f15c71"/><stop offset="0.99" stop-color="#f89b64"/></linearGradient><linearGradient id="linear-gradient-56" x1="1867.07" y1="187.07" x2="1876.86" y2="187.07" gradientTransform="matrix(-1, 0, 0, 1, 2083.91, 0)" xlink:href="#linear-gradient-30"/><linearGradient id="linear-gradient-57" x1="1861.98" y1="180.11" x2="1862.38" y2="180.11" gradientTransform="matrix(-1, 0, 0, 1, 2083.91, 0)" xlink:href="#linear-gradient-30"/><linearGradient id="linear-gradient-58" x1="1858.86" y1="173.67" x2="1864.95" y2="173.67" xlink:href="#linear-gradient-55"/><linearGradient id="linear-gradient-59" x1="1860.15" y1="173.67" x2="1863.66" y2="173.67" xlink:href="#linear-gradient-55"/><linearGradient id="linear-gradient-60" x1="1868.68" y1="181.8" x2="1870.22" y2="181.8" xlink:href="#linear-gradient-55"/></defs><g id="_03_box" data-name="03_box"><g id="Layer_10" data-name="Layer 10"><rect class="cls-43" x="1.33" y="1" width="298.25" height="298.25" rx="149.12"/><rect class="cls-44" x="12.8" y="12.47" width="275.3" height="275.3" rx="137.65"/><path class="cls-45" d="M34.83,150.78a115.85,115.85,0,1,0,231.69,0H34.83Z"/><g class="cls-46"><path class="cls-47" d="M150.46,288.51c-76.31,0-138.39-62.08-138.39-138.39S74.15,11.73,150.46,11.73,288.84,73.82,288.84,150.12,226.76,288.51,150.46,288.51Zm0-275.3C75,13.21,13.54,74.63,13.54,150.12S75,287,150.46,287s136.91-61.42,136.91-136.92S226,13.21,150.46,13.21Z"/></g><rect class="cls-48" x="40.33" y="40" width="220.24" height="220.24" rx="110.12"/></g><g id="Layer_11" data-name="Layer 11"><g class="cls-49"><path class="cls-50" d="M238.56,115.84a37,37,0,0,1,8,20v20.76a37.09,37.09,0,0,0-8-20V115.84Z"/><path class="cls-51" d="M230.66,107.5a60.05,60.05,0,0,1,5.5,5.42v20.77a60.05,60.05,0,0,0-5.5-5.42V107.5Z"/><path class="cls-50" d="M65.8,117.79c.19-.19.38-.37.56-.56v6.4A71.22,71.22,0,0,1,78,114.51q2.23-1.42,4.63-2.75v-6.4c.8-.45,1.61-.88,2.43-1.31v6.4q2.47-1.29,5.1-2.47v0c-9.82,4.43-18.13,9.94-24.36,16.21v-6.4ZM60,124.69c.57-.83,1.18-1.64,1.82-2.44v6.39c-.64.81-1.25,1.62-1.82,2.45v-6.4Z"/><path class="cls-52" d="M85.06,104.05c1.65-.85,3.35-1.68,5.1-2.46V108q-2.62,1.18-5.1,2.47v-6.4Z"/><path class="cls-52" d="M66.36,117.23A71.77,71.77,0,0,1,78,108.11v6.4a71.22,71.22,0,0,0-11.64,9.12v-6.4Z"/><path class="cls-53" d="M78,108.11q2.23-1.42,4.63-2.75v6.4q-2.4,1.32-4.63,2.75v-6.4Z"/><path class="cls-50" d="M55.32,126.9A40.2,40.2,0,0,1,60,118v6.65a40.42,40.42,0,0,0-4.69,8.86V140A40.2,40.2,0,0,1,60,131.09v6.65a40.2,40.2,0,0,0-4.69,8.86V126.9Z"/><path class="cls-52" d="M55.32,133.55A40.42,40.42,0,0,1,60,124.69v6.4A40.2,40.2,0,0,0,55.32,140v-6.4Z"/><path class="cls-50" d="M61.83,128.64a54.56,54.56,0,0,1,4-4.45v3.58a56.39,56.39,0,0,0-4,4.46v-3.59Zm0-10a56.39,56.39,0,0,1,4-4.46v3.59a54.67,54.67,0,0,0-4,4.46v-3.59Z"/><path class="cls-52" d="M61.83,122.25a54.67,54.67,0,0,1,4-4.46v6.4a54.56,54.56,0,0,0-4,4.45v-6.39Z"/><path class="cls-50" d="M220.25,100a78.18,78.18,0,0,1,7,4.77V125.5a82.63,82.63,0,0,0-7-4.77V100Z"/><path class="cls-50" d="M184,95.86c1.43.31,2.85.64,4.25,1v7.2c-1.4-.35-2.82-.68-4.25-1v-7.2Z"/><path class="cls-50" d="M176.14,101.59c1.49.24,3,.5,4.42.78v6c-1.46-.28-2.93-.54-4.42-.78v-6Z"/><path class="cls-50" d="M168,95.22c1.54.16,3.07.35,4.58.56v5.28c-1.51-.21-3-.4-4.58-.56V95.22Z"/><path class="cls-50" d="M159.65,89.18c1.59.09,3.16.2,4.72.33v10.63c-1.56-.13-3.13-.25-4.72-.34V89.18Z"/><path class="cls-50" d="M151.07,84.24h.51c1.45,0,2.89.05,4.32.1V99.63c-1.43,0-2.87-.08-4.32-.1h-.51V84.24Z"/><path class="cls-51" d="M142.49,89.05c1.58-.06,3.18-.11,4.78-.14V99.54c-1.6,0-3.2.07-4.78.14V89.05Z"/><path class="cls-50" d="M134.11,86.89c1.55-.14,3.1-.27,4.67-.37V99.88c-1.57.11-3.12.23-4.67.38V86.89Z"/><path class="cls-51" d="M126,82.11c1.5-.22,3-.42,4.54-.6v19.13c-1.53.18-3,.37-4.54.59V82.11Z"/><g class="cls-54"><path class="cls-55" d="M246.54,156.59V135.83a37,37,0,0,0-8-20V136.6a37.09,37.09,0,0,1,8,20Zm-10.38-22.9V112.92a60.05,60.05,0,0,0-5.5-5.42v20.77a60.05,60.05,0,0,1,5.5,5.42Zm-8.9-8.19V104.74a78.18,78.18,0,0,0-7-4.77v20.76a82.63,82.63,0,0,1,7,4.77Zm-11.71-1.3v-33c19.13,10.15,31.07,24.66,31.07,40.72v33c0-16.06-11.94-30.57-31.07-40.72Z"/></g><g class="cls-56"><path class="cls-57" d="M180.56,108.34v-6c-1.46-.28-2.93-.54-4.42-.78v6c1.49.24,3,.5,4.42.78Zm-8-7.28V95.78c-1.51-.21-3-.4-4.58-.56v5.28c1.54.16,3.07.35,4.58.56Zm15.62,3v-7.2c-1.4-.35-2.82-.68-4.25-1v7.2c1.43.31,2.85.64,4.25,1Zm-23.85-3.91V89.51c-1.56-.13-3.13-.24-4.72-.33V99.8c1.59.09,3.16.21,4.72.34Zm-17.1-.6V88.91c-1.6,0-3.2.08-4.78.14V99.68c1.58-.07,3.18-.11,4.78-.14Zm-8.49.34V86.52c-1.57.1-3.12.23-4.67.37v13.37c1.55-.15,3.1-.27,4.67-.38Zm17.12-.25V84.34c-1.43,0-2.87-.08-4.32-.1h-.51V99.53h.51c1.45,0,2.89,0,4.32.1Zm-25.4,1V81.51c-1.53.18-3,.38-4.54.6v19.12c1.5-.22,3-.41,4.54-.59ZM116.22,79.88a162.39,162.39,0,0,1,35.36-3.45,154.67,154.67,0,0,1,45.68,7.09v33a154.35,154.35,0,0,0-45.68-7.09,162.4,162.4,0,0,0-35.36,3.44v-33Z"/></g><g class="cls-58"><path class="cls-59" d="M60,124.69V118a40.2,40.2,0,0,0-4.69,8.86v19.7A40.2,40.2,0,0,1,60,137.74v-6.65c.57-.83,1.18-1.64,1.82-2.45v3.59a56.39,56.39,0,0,1,4-4.46v-3.58C72,117.92,80.34,112.41,90.16,108v-6.39c-1.75.78-3.45,1.61-5.1,2.46-.82.43-1.63.86-2.43,1.31a75.55,75.55,0,0,0-16.27,11.87c-.18.19-.37.37-.56.56V114.2a56.39,56.39,0,0,0-4,4.46v3.59c-.64.8-1.25,1.61-1.82,2.44Zm-6-.21c3.76-16.12,19.55-30,42-38.65v33c-22.41,8.64-38.2,22.53-42,38.65v-33Z"/></g></g><g class="cls-60"><polygon class="cls-61" points="204.94 77.21 200.08 74.41 200.08 73.34 204.94 76.15 204.94 77.21"/><polygon class="cls-61" points="207.43 78.65 205.68 77.64 205.68 76.57 207.43 77.58 207.43 78.65"/><polygon class="cls-61" points="209.36 79.77 208.17 79.08 208.17 78.01 209.36 78.7 209.36 79.77"/><polygon class="cls-61" points="202.73 78.37 200.08 76.84 200.08 75.78 202.73 77.31 202.73 78.37"/><polygon class="cls-61" points="206.72 80.68 203.47 78.8 203.47 77.73 206.72 79.61 206.72 80.68"/><polygon class="cls-61" points="208.65 81.79 207.46 81.1 207.46 80.04 208.65 80.72 208.65 81.79"/><polygon class="cls-61" points="210.49 82.85 209.3 82.17 209.3 81.1 210.49 81.78 210.49 82.85"/><polygon class="cls-51" points="202 80.39 200.08 79.28 200.08 78.22 202 79.32 202 80.39"/><polygon class="cls-51" points="203.39 81.19 202.74 80.82 202.74 79.75 203.39 80.13 203.39 81.19"/><polygon class="cls-61" points="205.32 82.31 204.14 81.62 204.14 80.56 205.32 81.24 205.32 82.31"/><polygon class="cls-61" points="207.15 85.8 200.08 81.72 200.08 80.65 207.15 84.74 207.15 85.8"/><polygon class="cls-61" points="209.64 87.24 207.89 86.23 207.89 85.16 209.64 86.17 209.64 87.24"/><polygon class="cls-61" points="202 85.26 200.08 84.16 200.08 83.09 202 84.2 202 85.26"/><polygon class="cls-61" points="206.49 87.86 202.74 85.69 202.74 84.63 206.49 86.79 206.49 87.86"/><polygon class="cls-61" points="208.42 88.97 207.24 88.29 207.24 87.22 208.42 87.91 208.42 88.97"/><polygon class="cls-61" points="204 88.86 200.08 86.6 200.08 85.53 204 87.79 204 88.86"/><polygon class="cls-51" points="207.58 90.92 204.74 89.29 204.74 88.22 207.58 89.86 207.58 90.92"/><polygon class="cls-61" points="210.24 92.46 208.32 91.35 208.32 90.29 210.24 91.39 210.24 92.46"/><polygon class="cls-61" points="201.4 89.8 200.08 89.03 200.08 87.97 201.4 88.73 201.4 89.8"/><polygon class="cls-61" points="203.9 91.24 202.15 90.23 202.15 89.16 203.9 90.17 203.9 91.24"/><polygon class="cls-61" points="207.46 93.29 204.64 91.67 204.64 90.6 207.46 92.23 207.46 93.29"/><polygon class="cls-61" points="204.14 93.81 200.08 91.47 200.08 90.4 204.14 92.75 204.14 93.81"/><polygon class="cls-61" points="208.68 96.44 204.88 94.24 204.88 93.17 208.68 95.37 208.68 96.44"/><polygon class="cls-51" points="210.61 97.55 209.42 96.86 209.42 95.8 210.61 96.48 210.61 97.55"/><polygon class="cls-61" points="212.46 98.62 211.27 97.93 211.27 96.87 212.46 97.55 212.46 98.62"/><polygon class="cls-61" points="202.51 95.31 200.08 93.91 200.08 92.84 202.51 94.25 202.51 95.31"/><polygon class="cls-51" points="212.67 81.68 216.04 83.62 216.04 82.56 212.67 80.61 212.67 81.68"/><polygon class="cls-61" points="213.39 84.53 216.04 86.06 216.04 84.99 213.39 83.46 213.39 84.53"/><polygon class="cls-61" points="214.13 87.39 216.04 88.5 216.04 87.43 214.13 86.32 214.13 87.39"/><polygon class="cls-61" points="213.25 89.33 216.04 90.94 216.04 89.87 213.25 88.26 213.25 89.33"/><polygon class="cls-61" points="214.13 92.27 216.04 93.37 216.04 92.31 214.13 91.2 214.13 92.27"/><polygon class="cls-61" points="213.61 94.41 216.04 95.81 216.04 94.74 213.61 93.34 213.61 94.41"/><polygon class="cls-61" points="214.72 97.48 216.04 98.25 216.04 97.18 214.72 96.42 214.72 97.48"/><polygon class="cls-61" points="213.48 99.21 216.04 100.69 216.04 99.62 213.48 98.14 213.48 99.21"/><polygon class="cls-61" points="213.61 101.72 216.04 103.12 216.04 102.06 213.61 100.65 213.61 101.72"/><polygon class="cls-61" points="204.29 96.34 203.25 95.74 203.25 94.67 204.29 95.27 204.29 96.34"/><polygon class="cls-61" points="207.35 98.11 205.03 96.77 205.03 95.7 207.35 97.04 207.35 98.11"/><polygon class="cls-61" points="223.78 88.05 218.93 85.25 218.93 84.18 223.78 86.98 223.78 88.05"/><polygon class="cls-61" points="226.28 89.49 224.53 88.48 224.53 87.41 226.28 88.42 226.28 89.49"/><polygon class="cls-51" points="228.21 90.6 227.02 89.92 227.02 88.85 228.21 89.54 228.21 90.6"/><polygon class="cls-61" points="221.57 89.21 218.93 87.68 218.93 86.62 221.57 88.14 221.57 89.21"/><polygon class="cls-61" points="225.56 91.51 222.31 89.64 222.31 88.57 225.56 90.45 225.56 91.51"/><polygon class="cls-51" points="227.49 92.63 226.3 91.94 226.3 90.88 227.49 91.56 227.49 92.63"/><polygon class="cls-61" points="229.33 93.69 228.14 93 228.14 91.94 229.33 92.62 229.33 93.69"/><polygon class="cls-61" points="220.84 91.23 218.93 90.12 218.93 89.05 220.84 90.16 220.84 91.23"/><polygon class="cls-61" points="222.24 92.03 221.58 91.66 221.58 90.59 222.24 90.97 222.24 92.03"/><polygon class="cls-61" points="224.17 93.15 222.98 92.46 222.98 91.39 224.17 92.08 224.17 93.15"/><polygon class="cls-61" points="226 96.64 218.93 92.56 218.93 91.49 226 95.57 226 96.64"/><polygon class="cls-61" points="228.49 98.08 226.74 97.07 226.74 96 228.49 97.01 228.49 98.08"/><polygon class="cls-61" points="220.84 96.1 218.93 95 218.93 93.93 220.84 95.03 220.84 96.1"/><polygon class="cls-61" points="225.34 98.7 221.58 96.53 221.58 95.46 225.34 97.63 225.34 98.7"/><polygon class="cls-61" points="227.27 99.81 226.08 99.13 226.08 98.06 227.27 98.75 227.27 99.81"/><polygon class="cls-51" points="222.84 99.7 218.93 97.43 218.93 96.37 222.84 98.63 222.84 99.7"/><polygon class="cls-61" points="226.42 101.76 223.59 100.13 223.59 99.06 226.42 100.69 226.42 101.76"/><polygon class="cls-61" points="229.08 103.3 227.16 102.19 227.16 101.12 229.08 102.23 229.08 103.3"/><polygon class="cls-61" points="220.25 100.64 218.93 99.87 218.93 98.8 220.25 99.57 220.25 100.64"/><polygon class="cls-61" points="222.74 102.08 220.99 101.06 220.99 100 222.74 101.01 222.74 102.08"/><polygon class="cls-51" points="226.3 104.13 223.48 102.5 223.48 101.44 226.3 103.06 226.3 104.13"/><polygon class="cls-61" points="222.98 104.65 218.93 102.31 218.93 101.24 222.98 103.58 222.98 104.65"/><polygon class="cls-61" points="227.52 107.27 223.72 105.08 223.72 104.01 227.52 106.21 227.52 107.27"/><polygon class="cls-61" points="229.45 108.39 228.26 107.7 228.26 106.64 229.45 107.32 229.45 108.39"/><polygon class="cls-61" points="231.31 109.46 230.12 108.77 230.12 107.7 231.31 108.39 231.31 109.46"/><polygon class="cls-61" points="221.35 106.15 218.93 104.75 218.93 103.68 221.35 105.08 221.35 106.15"/><polygon class="cls-51" points="231.52 92.52 234.88 94.46 234.88 93.39 231.52 91.45 231.52 92.52"/><polygon class="cls-61" points="232.24 95.37 234.88 96.9 234.88 95.83 232.24 94.3 232.24 95.37"/><polygon class="cls-61" points="232.97 98.23 234.88 99.33 234.88 98.27 232.97 97.16 232.97 98.23"/><polygon class="cls-61" points="232.1 100.16 234.88 101.77 234.88 100.71 232.1 99.1 232.1 100.16"/><polygon class="cls-61" points="232.97 103.11 234.88 104.21 234.88 103.14 232.97 102.04 232.97 103.11"/><polygon class="cls-61" points="232.46 105.25 234.88 106.65 234.88 105.58 232.46 104.18 232.46 105.25"/><polygon class="cls-61" points="233.56 108.32 234.88 109.09 234.88 108.02 233.56 107.25 233.56 108.32"/><polygon class="cls-61" points="232.32 110.04 234.88 111.52 234.88 110.46 232.32 108.98 232.32 110.04"/><polygon class="cls-61" points="232.46 112.56 234.88 113.96 234.88 112.89 232.46 111.49 232.46 112.56"/><polygon class="cls-51" points="223.13 107.17 222.1 106.58 222.1 105.51 223.13 106.11 223.13 107.17"/><polygon class="cls-61" points="226.2 108.95 223.87 107.6 223.87 106.54 226.2 107.88 226.2 108.95"/><polygon class="cls-61" points="204.94 99.17 200.08 96.36 200.08 95.29 204.94 98.1 204.94 99.17"/><polygon class="cls-61" points="207.43 100.61 205.68 99.6 205.68 98.53 207.43 99.54 207.43 100.61"/><polygon class="cls-61" points="209.36 101.72 208.17 101.03 208.17 99.97 209.36 100.65 209.36 101.72"/><polygon class="cls-61" points="202.73 100.33 200.08 98.8 200.08 97.73 202.73 99.26 202.73 100.33"/><polygon class="cls-61" points="206.72 102.63 203.47 100.76 203.47 99.69 206.72 101.56 206.72 102.63"/><polygon class="cls-61" points="208.65 103.75 207.46 103.06 207.46 101.99 208.65 102.68 208.65 103.75"/><polygon class="cls-61" points="210.49 104.81 209.3 104.12 209.3 103.05 210.49 103.74 210.49 104.81"/><polygon class="cls-61" points="202 102.34 200.08 101.24 200.08 100.17 202 101.28 202 102.34"/><polygon class="cls-61" points="203.39 103.15 202.74 102.77 202.74 101.7 203.39 102.08 203.39 103.15"/><polygon class="cls-61" points="205.32 104.27 204.14 103.58 204.14 102.51 205.32 103.2 205.32 104.27"/><polygon class="cls-61" points="207.15 107.76 200.08 103.67 200.08 102.61 207.15 106.69 207.15 107.76"/><polygon class="cls-61" points="209.64 109.2 207.89 108.19 207.89 107.12 209.64 108.13 209.64 109.2"/><polygon class="cls-61" points="202 107.22 200.08 106.11 200.08 105.05 202 106.15 202 107.22"/><polygon class="cls-61" points="206.49 109.81 202.74 107.65 202.74 106.58 206.49 108.75 206.49 109.81"/><polygon class="cls-61" points="208.42 110.93 207.24 110.24 207.24 109.18 208.42 109.86 208.42 110.93"/><polygon class="cls-61" points="204 110.81 200.08 108.55 200.08 107.48 204 109.75 204 110.81"/><polygon class="cls-61" points="207.58 112.88 204.74 111.24 204.74 110.17 207.58 111.81 207.58 112.88"/><polygon class="cls-61" points="210.24 114.41 208.32 113.31 208.32 112.24 210.24 113.35 210.24 114.41"/><polygon class="cls-61" points="201.4 111.75 200.08 110.99 200.08 109.92 201.4 110.69 201.4 111.75"/><polygon class="cls-61" points="203.9 113.19 202.15 112.18 202.15 111.11 203.9 112.12 203.9 113.19"/><polygon class="cls-61" points="207.46 115.25 204.64 113.62 204.64 112.55 207.46 114.18 207.46 115.25"/><polygon class="cls-61" points="204.14 115.77 200.08 113.43 200.08 112.36 204.14 114.7 204.14 115.77"/><polygon class="cls-61" points="208.68 118.39 204.88 116.2 204.88 115.13 208.68 117.32 208.68 118.39"/><polygon class="cls-61" points="210.61 119.5 209.42 118.82 209.42 117.75 210.61 118.44 210.61 119.5"/><polygon class="cls-61" points="212.46 120.58 211.27 119.89 211.27 118.82 212.46 119.51 212.46 120.58"/><polygon class="cls-61" points="202.51 117.27 200.08 115.86 200.08 114.8 202.51 116.2 202.51 117.27"/><polygon class="cls-61" points="212.67 103.63 216.04 105.58 216.04 104.51 212.67 102.56 212.67 103.63"/><polygon class="cls-61" points="213.39 106.48 216.04 108.01 216.04 106.95 213.39 105.42 213.39 106.48"/><polygon class="cls-61" points="214.13 109.35 216.04 110.45 216.04 109.39 214.13 108.28 214.13 109.35"/><polygon class="cls-61" points="213.25 111.28 216.04 112.89 216.04 111.82 213.25 110.21 213.25 111.28"/><polygon class="cls-61" points="214.13 114.22 216.04 115.33 216.04 114.26 214.13 113.15 214.13 114.22"/><polygon class="cls-61" points="213.61 116.36 216.04 117.77 216.04 116.7 213.61 115.3 213.61 116.36"/><polygon class="cls-61" points="214.72 119.44 216.04 120.2 216.04 119.14 214.72 118.37 214.72 119.44"/><polygon class="cls-61" points="213.48 121.16 216.04 122.64 216.04 121.57 213.48 120.09 213.48 121.16"/><polygon class="cls-61" points="213.61 123.68 216.04 125.08 216.04 124.01 213.61 122.61 213.61 123.68"/><polygon class="cls-61" points="204.29 118.29 203.25 117.69 203.25 116.63 204.29 117.22 204.29 118.29"/><polygon class="cls-61" points="207.35 120.06 205.03 118.72 205.03 117.65 207.35 119 207.35 120.06"/><polygon class="cls-61" points="209.28 128.26 205.35 126 205.35 124.93 209.28 127.2 209.28 128.26"/><polygon class="cls-61" points="211.97 129.81 210.42 128.92 210.42 127.86 211.97 128.75 211.97 129.81"/><polygon class="cls-61" points="223.78 110 218.93 107.2 218.93 106.13 223.78 108.94 223.78 110"/><polygon class="cls-61" points="226.28 111.44 224.53 110.43 224.53 109.37 226.28 110.38 226.28 111.44"/><polygon class="cls-61" points="228.21 112.56 227.02 111.87 227.02 110.81 228.21 111.49 228.21 112.56"/><polygon class="cls-61" points="221.57 111.17 218.93 109.64 218.93 108.57 221.57 110.1 221.57 111.17"/><polygon class="cls-61" points="225.56 113.47 222.31 111.59 222.31 110.53 225.56 112.4 225.56 113.47"/><polygon class="cls-61" points="227.49 114.58 226.3 113.9 226.3 112.83 227.49 113.52 227.49 114.58"/><polygon class="cls-61" points="229.33 115.64 228.14 114.96 228.14 113.89 229.33 114.58 229.33 115.64"/><polygon class="cls-61" points="220.84 113.18 218.93 112.08 218.93 111.01 220.84 112.11 220.84 113.18"/><polygon class="cls-61" points="222.24 113.99 221.58 113.61 221.58 112.54 222.24 112.92 222.24 113.99"/><polygon class="cls-61" points="224.17 115.1 222.98 114.42 222.98 113.35 224.17 114.03 224.17 115.1"/><polygon class="cls-61" points="226 118.59 218.93 114.51 218.93 113.44 226 117.53 226 118.59"/><polygon class="cls-61" points="228.49 120.03 226.74 119.02 226.74 117.96 228.49 118.97 228.49 120.03"/><polygon class="cls-61" points="220.84 118.06 218.93 116.95 218.93 115.88 220.84 116.99 220.84 118.06"/><polygon class="cls-61" points="225.34 120.65 221.58 118.48 221.58 117.42 225.34 119.58 225.34 120.65"/><polygon class="cls-61" points="227.27 121.77 226.08 121.08 226.08 120.01 227.27 120.7 227.27 121.77"/><polygon class="cls-61" points="222.84 121.65 218.93 119.39 218.93 118.32 222.84 120.58 222.84 121.65"/><polygon class="cls-61" points="226.42 123.72 223.59 122.08 223.59 121.01 226.42 122.65 226.42 123.72"/><polygon class="cls-61" points="229.08 125.25 227.16 124.14 227.16 123.08 229.08 124.18 229.08 125.25"/><polygon class="cls-61" points="220.25 122.59 218.93 121.83 218.93 120.76 220.25 121.52 220.25 122.59"/><polygon class="cls-61" points="222.74 124.03 220.99 123.02 220.99 121.95 222.74 122.96 222.74 124.03"/><polygon class="cls-61" points="226.3 126.08 223.48 124.46 223.48 123.39 226.3 125.02 226.3 126.08"/><polygon class="cls-61" points="222.98 126.61 218.93 124.26 218.93 123.2 222.98 125.54 222.98 126.61"/><polygon class="cls-61" points="227.52 129.23 223.72 127.03 223.72 125.97 227.52 128.16 227.52 129.23"/><polygon class="cls-61" points="229.45 130.34 228.26 129.66 228.26 128.59 229.45 129.28 229.45 130.34"/><polygon class="cls-61" points="231.31 131.41 230.12 130.73 230.12 129.66 231.31 130.35 231.31 131.41"/><polygon class="cls-61" points="221.35 128.1 218.93 126.7 218.93 125.63 221.35 127.04 221.35 128.1"/><polygon class="cls-61" points="231.52 114.47 234.88 116.41 234.88 115.35 231.52 113.4 231.52 114.47"/><polygon class="cls-61" points="232.24 117.32 234.88 118.85 234.88 117.78 232.24 116.26 232.24 117.32"/><polygon class="cls-61" points="232.97 120.18 234.88 121.29 234.88 120.22 232.97 119.12 232.97 120.18"/><polygon class="cls-61" points="232.1 122.12 234.88 123.73 234.88 122.66 232.1 121.05 232.1 122.12"/><polygon class="cls-61" points="232.97 125.06 234.88 126.17 234.88 125.1 232.97 123.99 232.97 125.06"/><polygon class="cls-61" points="232.46 127.2 234.88 128.6 234.88 127.54 232.46 126.13 232.46 127.2"/><polygon class="cls-61" points="233.56 130.28 234.88 131.04 234.88 129.97 233.56 129.21 233.56 130.28"/><polygon class="cls-61" points="232.32 132 234.88 133.48 234.88 132.41 232.32 130.93 232.32 132"/><polygon class="cls-61" points="232.46 134.51 234.88 135.92 234.88 134.85 232.46 133.45 232.46 134.51"/><polygon class="cls-61" points="223.13 129.13 222.1 128.53 222.1 127.47 223.13 128.06 223.13 129.13"/><polygon class="cls-61" points="226.2 130.9 223.87 129.56 223.87 128.49 226.2 129.83 226.2 130.9"/><polygon class="cls-61" points="228.12 139.1 224.2 136.84 224.2 135.77 228.12 138.03 228.12 139.1"/><polygon class="cls-61" points="230.81 140.65 229.26 139.76 229.26 138.69 230.81 139.59 230.81 140.65"/></g><g class="cls-62"><g class="cls-63"><path class="cls-64" d="M84,208.84v-5.58c1.12.6,2.26,1.18,3.43,1.75v5.58c-1.17-.57-2.31-1.15-3.43-1.75Zm-11-7V191.58c.93.7,1.88,1.38,2.87,2.06v10.28c-1-.67-1.94-1.36-2.87-2.06Zm5.24,3.62V193.35c1,.65,2.08,1.29,3.16,1.91V207.4c-1.08-.63-2.14-1.26-3.16-1.92ZM64.2,193.9V180.44c.71.78,1.46,1.55,2.23,2.32v13.46c-.77-.76-1.52-1.54-2.23-2.32Zm4.12,4.1V183.41c.82.75,1.68,1.48,2.56,2.2v14.58c-.88-.72-1.74-1.45-2.56-2.19ZM57.81,185.09V169.28c.48.86,1,1.71,1.53,2.54v15.81c-.54-.83-1.05-1.68-1.53-2.54Zm2.87,4.5V169c.6.82,1.23,1.64,1.89,2.44V192c-.66-.81-1.29-1.62-1.89-2.44Zm-5.06-9.16V157.2c.34.88.72,1.76,1.14,2.63v23.23c-.42-.87-.8-1.75-1.14-2.63Zm38.87,5.15c-22.1-8.9-37.37-23-40.57-39.08v33c3.2,16.12,18.47,30.19,40.57,39.09v-33Z"/></g><g class="cls-65"><path class="cls-66" d="M219.41,198.52v-6.4c15.42-9.1,25.46-21.24,27.1-34.74v6.4c-1.64,13.5-11.68,25.64-27.1,34.74Zm27.32-24.36v-33c-.49,16.16-13,30.58-32.52,40.53v33c19.54-9.95,32-24.37,32.52-40.53Z"/></g><path class="cls-50" d="M246.51,157.38c-1.64,13.5-11.68,25.64-27.1,34.74v6.4c15.42-9.1,25.46-21.24,27.1-34.74v-6.4Z"/><path class="cls-51" d="M56.76,159.83c-.42-.87-.8-1.75-1.14-2.63v23.23c.34.88.72,1.76,1.14,2.63V159.83Z"/><path class="cls-51" d="M59.34,171.82c-.54-.83-1.05-1.68-1.53-2.54v15.81c.48.86,1,1.71,1.53,2.54V171.82Z"/><path class="cls-50" d="M62.57,171.46c-.66-.8-1.29-1.62-1.89-2.44v20.57c.6.82,1.23,1.63,1.89,2.44V171.46Z"/><path class="cls-51" d="M66.43,182.76c-.77-.77-1.52-1.54-2.23-2.32V193.9c.71.78,1.46,1.56,2.23,2.32V182.76Z"/><path class="cls-50" d="M70.88,185.61c-.88-.72-1.74-1.45-2.56-2.2V198c.82.74,1.68,1.47,2.56,2.19V185.61Z"/><path class="cls-50" d="M75.89,193.64c-1-.68-1.94-1.36-2.87-2.06v10.28c.93.7,1.88,1.39,2.87,2.06V193.64Z"/><path class="cls-50" d="M81.42,195.26c-1.08-.62-2.14-1.26-3.16-1.91v12.13c1,.66,2.08,1.29,3.16,1.92V195.26Z"/><path class="cls-50" d="M87.44,205c-1.17-.57-2.31-1.15-3.43-1.75v5.58c1.12.6,2.26,1.18,3.43,1.75V205Z"/></g><polygon class="cls-67" points="129.63 201.79 125.89 196.53 125.87 204.05 129.6 209.31 129.63 201.79"/><polygon class="cls-68" points="183.58 199.59 178.26 204.4 178.24 211.92 183.56 207.11 183.58 199.59"/><path class="cls-69" d="M138.78,218.46s0-.06,0-.09a324667771757.25,324667771757.25,0,0,0,0-.2s0-.07,0-.1,0-.06,0-.09,0-.07,0-.11,0-.06,0-.09a.36.36,0,0,0,0-.1l0-.09a.3.3,0,0,1,0-.1l0-.09,0-.11,0-.09,0-.1a.36.36,0,0,1,0-.09s0-.07,0-.11l0-.08.06-.13,0-.06.08-.18h0l.11-.19,0,0,.09-.16.05-.07.08-.13.05-.08.08-.12.06-.07.09-.12.06-.07.17-.21h0l.19-.21.06-.06.15-.15.06-.06.21-.21.06,0,.13-.12.07-.06.12-.1.09-.07.11-.1.1-.07.12-.09.09-.07.12-.09.11-.07.12-.08.11-.07.13-.09.11-.07.13-.08.21-.12a15,15,0,0,1,2.68-1.22l.51-.16.34-.11.29-.08.35-.09.28-.08.36-.08.29-.06.37-.08.3-.05.11,0,.49-.08.13,0,.58-.08H150l.42,0,.43,0,.28,0,.46,0h2l.34,0,.34,0,.34,0,.35,0,.33,0,.35,0,.37.05.59.1.16,0,.51.09.07,0c.23,0,.44.09.66.15l.13,0,.62.16.18.05.23.07.19.06.22.07.19.07.22.07.19.07.21.08.15.06.38.16.1,0,.45.21.1,0,.35.17.12.06.42.23a11.13,11.13,0,0,1,2.11,1.57,6.8,6.8,0,0,1,.69.75c.14.17.26.34.38.51a5.48,5.48,0,0,1,.31.52,5,5,0,0,1,.43,1.06,2,2,0,0,1,.07.26,4.43,4.43,0,0,1,.13,1.08h0l0-7.52a5.84,5.84,0,0,0-2-4.18,10.69,10.69,0,0,0-2.11-1.56l-.42-.24-.12-.06-.35-.17-.1-.05-.45-.21-.1,0-.38-.15-.07,0-.08,0-.21-.08-.19-.07-.21-.07-.2-.07-.22-.07-.19-.06-.23-.07-.14,0h0l-.62-.16-.13,0a6.38,6.38,0,0,0-.66-.15h0l-.06,0-.51-.09-.16,0-.59-.1h-.08l-.29,0-.35-.05-.33,0-.35,0h-.05l-.29,0-.34,0-.34,0h-2l-.45,0-.29,0-.43,0h-.14l-.28,0-.11,0-.58.07-.13,0-.49.08-.11,0h0l-.25,0-.37.08-.29.06-.35.08-.29.08-.35.09-.29.08-.33.11-.09,0-.43.14a15.75,15.75,0,0,0-2.68,1.22l-.18.1,0,0-.13.08-.11.08a.57.57,0,0,0-.13.08l-.11.07-.12.08-.1.08-.12.08-.1.07-.12.09-.09.08-.12.09-.09.07-.12.1-.07.07a.69.69,0,0,0-.13.11l-.06.05h0l-.21.21-.06.06-.15.15-.06.06-.19.21h0l-.17.21,0,0,0,.05-.09.12a.22.22,0,0,0,0,.08l-.09.11a.56.56,0,0,1-.05.08l-.08.13,0,.07-.09.16,0,0h0l-.11.19v0l-.09.17,0,.06-.06.13,0,.08s0,.08,0,.11v0l0,.07,0,.1,0,.09,0,.11,0,.09a.36.36,0,0,0,0,.1.29.29,0,0,0,0,.09l0,.1v0a.15.15,0,0,0,0,.07.3.3,0,0,0,0,.1s0,.06,0,.09,0,.07,0,.1,0,.07,0,.1,0,.06,0,.1a.28.28,0,0,1,0,.09v.14s0,.08,0,.12l0,7.52c0-.05,0-.1,0-.16Z"/><path class="cls-70" d="M188.88,215.83l-9.8,1.23c-.11.16-.22.33-.34.49l-.12.16-.24.32-.16.2-.23.28-.18.2a2.85,2.85,0,0,1-.23.26l-.19.21-.25.25-.21.21-.25.24-.29.27a.86.86,0,0,0-.14.13l-.47.39,0,7.22-2.92,1.41-8.48-3.16-.81.2-.28.07-.53.12-.33.07-.49.1-.36.07-.46.09-.48.08-.36.06-.5.08-.35,0-.57.07-.28,0c-.28,0-.56.07-.85.09l-3.85,5.36-8.77-.47-2.16-5.66-.76-.17-.23-.06-.52-.13-.27-.07-.5-.13-.25-.07-.35-.1-.51-.15-.34-.11-.49-.16-.35-.12-.47-.16-.34-.13-.47-.17-.44-.18-9.24,2.19-5.65-3.92,0,7.52,5.65,3.92,9.23-2.19.23.09.22.09.47.17.34.13.47.16.35.12.48.16.35.1.51.16.24.07.11,0,.25.07.5.13.27.07.52.13.23.05.76.17h0l2.15,5.66,8.78.47,3.85-5.36.85-.09.27,0,.58-.07.34-.05.5-.08.36-.06.48-.08h0l.45-.08.35-.07.49-.1.33-.07.54-.13.27-.06.81-.2,8.48,3.15,6.76-3.26,0-7.51-3.06,1.47,0,0,.07-.07.26-.24.21-.21.24-.25.2-.21a2.85,2.85,0,0,0,.23-.26l.18-.2.23-.28.13-.17,0,0,.24-.32.12-.16c.12-.16.23-.33.34-.49l9.8-1.23.78-5.08,0-7.52Z"/><path class="cls-71" d="M127.08,225.6l0-7.52a12.07,12.07,0,0,1-2.2-4.05l-9.11-2.22,0,7.52,9.11,2.21A12,12,0,0,0,127.08,225.6Z"/><path class="cls-72" d="M172.85,229.29l-8.49-3.15a44.36,44.36,0,0,1-6.64,1.19l-3.86,5.36-8.77-.47-2.15-5.67a38.19,38.19,0,0,1-6.3-1.9l-9.23,2.19-5.65-3.93,5.34-4.83a12.08,12.08,0,0,1-2.19-4.06l-9.11-2.21.78-5.08,9.66-1.21a15.89,15.89,0,0,1,3.39-3.74l-3.73-5.25,6.75-3.26,8.31,3.09a44.65,44.65,0,0,1,6.66-1.21l3.8-5.27,8.77.47,2.11,5.55a38.75,38.75,0,0,1,6.45,1.94l9.19-2.18,5.65,3.93-5.32,4.81a12,12,0,0,1,2.22,4.11l9.18,2.23-.78,5.08-9.81,1.24a16.43,16.43,0,0,1-3.29,3.61L179.6,226Zm-13-11.15a15.84,15.84,0,0,0,2.69-1.21c4.49-2.61,5.32-6.65,2-9.82a10.9,10.9,0,0,0-2.12-1.57,18.3,18.3,0,0,0-6.43-2.1,22.76,22.76,0,0,0-10.51.9,15.11,15.11,0,0,0-2.69,1.22c-4.49,2.61-5.32,6.64-2,9.81a10.92,10.92,0,0,0,2.1,1.56c4.41,2.54,11.4,3.14,17,1.21"/><path class="cls-73" d="M197.19,102.33a1.72,1.72,0,0,1,0,.32c-.53.5-1.06,1-1.58,1.46a2.46,2.46,0,0,1,.14-.38C196.21,103.28,196.71,102.79,197.19,102.33Z"/><path class="cls-73" d="M197.17,102.65c0,.87-.1,1.71-.09,2.55a3.31,3.31,0,0,1-.5.68,6.42,6.42,0,0,1-.85,2.31h0c-.47,1.66-3,3.85-4.52,4.55l0,0a9.49,9.49,0,0,0-3.44-2.83,8,8,0,0,0-.35-1.22l0-.17a1.14,1.14,0,0,1,0-.45,1.38,1.38,0,0,1,.27-.6c.36-.43,1-.5,1.35-1.13a3.83,3.83,0,0,0,.13-2c1.23.18,1.72.76,1.69,1.47a2.34,2.34,0,0,1-.44,1.26h0a.59.59,0,0,1-.13.23,1.85,1.85,0,0,1,.58.06c.3.08.57.2.85.25l.24,0a35.93,35.93,0,0,1,3.59-2.88c0-.22.08-.46.14-.7C196.11,103.64,196.64,103.15,197.17,102.65Z"/><path class="cls-74" d="M187.39,108.72a8,8,0,0,1,.35,1.22,6.6,6.6,0,0,0-1.21-.45A7.45,7.45,0,0,1,187.39,108.72Z"/><path class="cls-75" d="M191.18,112.77a6.84,6.84,0,0,1,.85,1.5,4.18,4.18,0,0,0-.82,1l-.1,0a10.24,10.24,0,0,0-5.11-4.46l-.59-.21h-.08a10.09,10.09,0,0,0,1-1l.21-.21a6.6,6.6,0,0,1,1.21.45A9.49,9.49,0,0,1,191.18,112.77Z"/><path class="cls-76" d="M161.92,141.49c1.75-.92,4-1.37,5.57-2.29l.34-.08a8.12,8.12,0,0,1,.14,1.5,5.79,5.79,0,0,1-.26,1.73,17.33,17.33,0,0,1-6.14,1.3C161.7,142.94,161.81,142.22,161.92,141.49Z"/><path class="cls-77" d="M156.09,214.2c2.2-.34,3,.39,5-1.84,1.39.43,5.43-.07,7.06.08v0a.89.89,0,0,1,.71.41c.42.85-.49.85-1.06,1a25.2,25.2,0,0,1-4.66.78A14.64,14.64,0,0,1,156.09,214.2Z"/><path class="cls-76" d="M161.92,141.49c-.11.73-.22,1.45-.35,2.16l-.81.06c.05-.54.13-1.07.21-1.63A8.38,8.38,0,0,1,161.92,141.49Z"/><path class="cls-73" d="M158.25,89.76a11,11,0,0,1-.1-3.19,3.54,3.54,0,0,1,.5-.88,19.24,19.24,0,0,1,1.06,2.38,14.88,14.88,0,0,1-.3,4.2,5.94,5.94,0,0,0-.06,1C158.56,92.43,158.46,91,158.25,89.76Z"/><path class="cls-78" d="M155.81,93.4a8.58,8.58,0,0,1,3.25,2,1.63,1.63,0,0,1-.59.49,22,22,0,0,1-2.65.37C155.81,95.25,155.79,94.22,155.81,93.4Z"/><path class="cls-79" d="M156.47,89.87a5.2,5.2,0,0,1,.21,1.23,3.81,3.81,0,0,1,1.12-.59,25.6,25.6,0,0,1-.35-4.53c0-1,.93-1.65.36-3.6l.14-.1c.26.77.61,1.5.78,2.23a1.36,1.36,0,0,0-.08,1.18,3.54,3.54,0,0,0-.5.88,11,11,0,0,0,.1,3.19c.21,1.23.31,2.67,1.1,3.53a3.24,3.24,0,0,1-.29,2.11,8.58,8.58,0,0,0-3.25-2c0-.27,0-.52,0-.73-.23.07-.45-.22-.66-.63a9.62,9.62,0,0,1-.68-2.22,4,4,0,0,1,0-.67c.14-2.38,1.73-.61,2,.72Z"/><path class="cls-80" d="M163.61,216.26c-.93.09-8.15,0-10.56-.89l.08,0c.1-.56.24-.86.32-1.3.12.17-.18-.06.08,0a5.62,5.62,0,0,0,2.56.11,14.64,14.64,0,0,0,7.07.45,25.2,25.2,0,0,0,4.66-.78c.57-.14,1.48-.14,1.06-1a.89.89,0,0,0-.71-.41v0h.23c.6,0,1.81-.09,1.81-.09a1.88,1.88,0,0,1,1.21.54,1.79,1.79,0,0,1,.5,1.18v.08h0C170.52,215.87,165,216.11,163.61,216.26Z"/><path class="cls-81" d="M153.13,215.35c2.41.84,9.55,1,10.48.91,1.36-.15,6.91-.39,8.31-2.09,0,.49-.08,1-.14,1.87a15.87,15.87,0,0,1-4.65,1.51c-1.08.19-2.3.3-3.38.42-.46,0-1.07.05-1.44,0a6.4,6.4,0,0,1-1.12-.3c-.66-.23-1.6-1.17-2.39-.83-.31.13-.3.92-.7,1.13a12,12,0,0,1-1.58.16c-2.05-.19-1.89-.61-3.62-1.38a7.84,7.84,0,0,1,.23-1.43Z"/><path class="cls-82" d="M157.21,82.25c-1.39,1.21-3.81,1.44-5.52,1.16v0c.28,0,.57,0,.84,0-.21-.21-.31-.44-.52-.54,1.59-.39,4.51-3.54,3.33-5.39,1.61.13,3.44-.88,4.52.91.76,1.28-.47,2.94-1.91,3.89Z"/><path class="cls-79" d="M155.82,96.26c0,.88,0,1.75,0,2.39a12.15,12.15,0,0,0-3.37-1.26c-.55-.13-1.14-.27-1.72-.39a5.48,5.48,0,0,0,1-1.46,4.58,4.58,0,0,0,1.46-.26A29.29,29.29,0,0,1,155.16,92c.21.41.43.7.66.63,0,.21,0,.46,0,.73C155.79,94.22,155.81,95.25,155.82,96.26Z"/><path class="cls-82" d="M151.69,83.39a10.72,10.72,0,0,1-2.12-.19,2.87,2.87,0,0,1-1.81,2.53,6,6,0,0,0-.52-1.48c-2.07.62-4,1-6.1.26a14.62,14.62,0,0,1-.06-1.75h0a9.37,9.37,0,0,1,1-1.92,8.5,8.5,0,0,1,2.1-2.13,11,11,0,0,1,6.42-2.38,12.94,12.94,0,0,1,2.16.2,8.16,8.16,0,0,1,2.52,1h.09c1.18,1.85-1.74,5-3.33,5.39.21.1.31.33.52.54C152.26,83.41,152,83.41,151.69,83.39Z"/><path class="cls-73" d="M151.75,95.54a5.48,5.48,0,0,1-1,1.46,12.15,12.15,0,0,0-3.32-.32,5.51,5.51,0,0,0,.21-1.45,6.83,6.83,0,0,0,2.18.28c.51,0,1,0,1.54,0A2.75,2.75,0,0,0,151.75,95.54Z"/><path class="cls-83" d="M156.68,91.1a5.2,5.2,0,0,0-.21-1.23h0c-.3-1.33-1.89-3.1-2-.72a4,4,0,0,0,0,.67A4.13,4.13,0,0,1,152.12,92c0-.21-.22-.63-.11-1a7.8,7.8,0,0,1-6.7,1.55A45.32,45.32,0,0,1,142,88.8h0a13.41,13.41,0,0,1-.57-2.13,16.92,16.92,0,0,1-.28-2.17c2.15.78,4,.36,6.1-.26a6,6,0,0,1,.52,1.48,2.87,2.87,0,0,0,1.81-2.53,10.72,10.72,0,0,0,2.12.19v0c1.71.28,4.13,0,5.52-1.16l.74,0-.14.1c.57,2-.34,2.56-.36,3.6a25.6,25.6,0,0,0,.35,4.53A3.81,3.81,0,0,0,156.68,91.1Z"/><path class="cls-83" d="M145.31,92.58A7.8,7.8,0,0,0,152,91c-.11.32.11.74.11,1a4.13,4.13,0,0,0,2.36-2.16,9.62,9.62,0,0,0,.68,2.22,29.29,29.29,0,0,0-1.95,3.24,4.58,4.58,0,0,1-1.46.26,2.75,2.75,0,0,1-.41,0c-.52,0-1,0-1.54,0a6.83,6.83,0,0,1-2.18-.28l-.69-.19a6,6,0,0,0-1.39-2.2C145.46,92.75,145.39,92.66,145.31,92.58Z"/><path class="cls-77" d="M143.19,204.48a24.44,24.44,0,0,1-4,.25c2.31-.37,3.25-.45,4.59-2.45l1.22-.49c1,.36,1.87,0,2.94,0C148.71,203.32,144.37,204.29,143.19,204.48Z"/><path class="cls-84" d="M161.12,114.92c-5.14-3.54-.45-13.39,4.71-10.45a5.64,5.64,0,0,1,.75.52l0,0a8.1,8.1,0,0,1,1.06,1.05l-.62.16c-1.07-.32-1.7,1.8-1.81,2.76-.2,2.12.95,4.34,2,6.13,2.12,3.5,5.92,6.46,7.51,10.18.53-.74,1-1.7,1.49-2.44.11.53.32,1.16.42,1.8,1.07-.22,1.69-1.17,2.55-1.7a26.3,26.3,0,0,0,3.49-2.12,33.38,33.38,0,0,0,4.12-4.65,13,13,0,0,0-4.78-2.71.32.32,0,0,0,.1-.1c.28-.26.56-.52.85-.77s.51-.44.77-.64a15.12,15.12,0,0,1,1.63-1.23l.59.21a10.24,10.24,0,0,1,5.11,4.46c.07.18.15.35.22.53-4.81,5.34-8.7,10.4-14.83,14.78a4.71,4.71,0,0,1-3.19-.58h0a55.33,55.33,0,0,0-3.58-4.91C166.91,121.7,164,118.83,161.12,114.92Z"/><path class="cls-84" d="M157.94,118.66c-1-3-1.59-6.34-3.07-9.2s-5.09-4.13-8.16-5.1l-.25-.07c.43-2.89,1.33-5.35,3.11-6.12a39.21,39.21,0,0,1,4.64,1.14,45.67,45.67,0,0,1,5.93,2.47c.42.21.85.39,1.28.57a23.43,23.43,0,0,1,4.41,2.12c-5.16-2.94-9.85,6.91-4.71,10.45,2.9,3.91,5.79,6.78,8.61,10.24-.09,5.23-.29,10.85-.47,15.5l-1.29,0a8.12,8.12,0,0,0-.14-1.5l-.34.08c-1.62.92-3.82,1.37-5.57,2.29a53.55,53.55,0,0,0,.57-9.05c-.74,1.05-2.23,1.38-3.17,2.32a18.61,18.61,0,0,0,.94-5.92A42.86,42.86,0,0,0,157.94,118.66Z"/><path class="cls-84" d="M151.83,174.4c-.25-7.37-.8-17.44-.8-21.14a25.09,25.09,0,0,0,2.49.67c0,12,1.41,23.68,1,35.53-.28,7.74-2.72,16.83-1,24.63-.26-.1,0,.13-.08,0s-.72-.83-.64-1.13c-.12-.6-.5-4-.74-8.9-.11-1.86-.17-4-.23-6.17A114.55,114.55,0,0,1,153,185.94c-.08-3.7-.84-7.08-1.08-10.5C151.86,175.1,151.84,174.75,151.83,174.4Z"/><path class="cls-84" d="M150.39,152.83l-.07.19c-.63-.22-1.24-.45-1.82-.7.19-3.15.43-6.37.5-9.6,0-.18,0-.35,0-.53s0-.63,0-.94C149.75,144.94,149.44,149.45,150.39,152.83Z"/><path class="cls-84" d="M139.45,101.25c2.21,1.52,4.38,2.13,7,3a63.39,63.39,0,0,0-.15,11.32c.43,6.22,2.69,12,2.83,18.07.11,2.55,0,5.09-.12,7.57a.22.22,0,0,0,0-.08v1c0,.18,0,.35,0,.53-.07,3.23-.31,6.45-.5,9.6-.7-.28-1.34-.6-1.93-.88s-1.4-.76-2-1.09a10.65,10.65,0,0,1-1.82-1.31c1-9.51.67-21.74.11-24.54l.07,0c-.34-1.7-.71-3.27-1.08-4.75,0-.18-.09-.36-.14-.55a1.33,1.33,0,0,1,.06-.12c-.73-3.88-1.49-7.25-1.91-11.09A27.76,27.76,0,0,1,139.45,101.25Z"/><path class="cls-84" d="M138.84,100.79a20.3,20.3,0,0,1,1-2.14,11.57,11.57,0,0,0-.44,2.6C139.25,101.11,139,101,138.84,100.79Z"/><path class="cls-84" d="M139.16,204.73a23.11,23.11,0,0,1-2.74-.2c-.12-7.05,1.8-14.21,4.11-20.72a43.57,43.57,0,0,0,2.53-8.62c.43-2.67.14-5.49.57-8.18.43-3,1.27-5.79,1.55-8.75.27-2,.28-5.18,1.39-6.82.59.28,1.23.6,1.93.88s1.19.48,1.82.7l.71.24c0,3.7.55,13.77.8,21.14,0,.35,0,.7,0,1L145,201.79l-1.39,1.36c-1.34,2-2.11,1.21-4.42,1.58Z"/><path class="cls-85" d="M169.26,140.66c-.2,5.29-.38,9.35-.38,10.19q-.33.27-.69.51a16.47,16.47,0,0,1-8.25,3c.59-3.1.74-6.46,1.39-9.57l.24-1.17a17.33,17.33,0,0,0,6.14-1.3,5.79,5.79,0,0,0,.26-1.73Z"/><path class="cls-85" d="M176.68,124.6c-.1-.64-.31-1.27-.42-1.8-.53.74-1,1.7-1.49,2.44-1.59-3.72-5.39-6.68-7.51-10.18-1.07-1.79-2.22-4-2-6.13.11-1,.74-3.08,1.81-2.76l.62-.16a5.54,5.54,0,0,1,1.12,2h0c.69.77,1.37,1.55,2,2.35l.64.81a87.42,87.42,0,0,1,5.29,7.64c1.82-1.67,3.51-3.6,5.34-5.36a13,13,0,0,1,4.78,2.71,33.38,33.38,0,0,1-4.12,4.65,26.3,26.3,0,0,1-3.49,2.12C178.37,123.43,177.75,124.38,176.68,124.6Z"/><path class="cls-85" d="M146.71,104.36c3.07,1,6.56,2.12,8.16,5.1s2.11,6.24,3.07,9.2a42.86,42.86,0,0,1,2.32,10.18,18.61,18.61,0,0,1-.94,5.92c.94-.94,2.43-1.27,3.17-2.32a53.55,53.55,0,0,1-.57,9.05,8.38,8.38,0,0,0-.95.59c-.08.56-.16,1.09-.21,1.63l.81-.06-.24,1.17c-.65,3.11-.8,6.47-1.39,9.57a21.6,21.6,0,0,1-6.42-.46,25.09,25.09,0,0,1-2.49-.67l-.71-.24.07-.19c-.95-3.38-.64-7.89-1.37-11.58.08-2.48.23-5,.12-7.57-.14-6.06-2.4-11.85-2.83-18.07a63.39,63.39,0,0,1,.15-11.32Z"/><path class="cls-85" d="M161.11,212.36c-2,2.23-2.82,1.5-5,1.84a5.62,5.62,0,0,1-2.56-.11c-1.75-7.8.69-16.89,1-24.63.43-11.85-1-23.54-1-35.53a21.6,21.6,0,0,0,6.42.46,16.47,16.47,0,0,0,8.25-3C165.89,171.18,163.06,194,161.11,212.36Z"/><path class="cls-85" d="M150.73,97c.58.12,1.17.26,1.72.39a12.15,12.15,0,0,1,3.37,1.26,25.45,25.45,0,0,1,4.32,3.13,45.67,45.67,0,0,0-5.93-2.47,39.21,39.21,0,0,0-4.64-1.14,42.2,42.2,0,0,0-4.25-.6l0-.34a.73.73,0,0,0,.16-.11,6.5,6.5,0,0,1,1.89-.44A12.15,12.15,0,0,1,150.73,97Z"/><path class="cls-85" d="M139.42,109.28a22.86,22.86,0,0,1-.66-8.31s.05-.11.08-.18c.2.17.41.32.61.46a27.76,27.76,0,0,0,.45,6.72c.42,3.84,1.18,7.21,1.91,11.09a1.33,1.33,0,0,0-.06.12C140.89,115.75,140,112.74,139.42,109.28Z"/><path class="cls-85" d="M139.89,98.65a20.3,20.3,0,0,0-1,2.14.05.05,0,0,1,0,0c0-.12,0-.24.06-.35h0c.42-1.79,1.36-3.06,3.2-3,1.12,0,2.21.1,3.26.2a42.2,42.2,0,0,1,4.25.6c-1.78.77-2.68,3.23-3.11,6.12-2.63-.91-4.8-1.52-7-3A11.57,11.57,0,0,1,139.89,98.65Z"/><path class="cls-86" d="M138.8,100.77a.05.05,0,0,0,0,0c0,.07-.07.14-.08.18A.65.65,0,0,1,138.8,100.77Z"/><path class="cls-80" d="M139.16,204.73a6.19,6.19,0,0,1-2.74,0v-.15A23.11,23.11,0,0,0,139.16,204.73Z"/><path class="cls-87" d="M140.53,183.81c-2.31,6.51-4.23,13.67-4.11,20.72l-.57-.08a1.44,1.44,0,0,1-.63-.69,1.18,1.18,0,0,1-.06-.39c.26-1.4.4-3,.53-4.61.82-9.06,5.38-23.27,5.38-23.27a198.14,198.14,0,0,1,3.54-25.14c.56.33,1.22.71,2,1.09-1.11,1.64-1.12,4.81-1.39,6.82-.28,3-1.12,5.79-1.55,8.75-.43,2.69-.14,5.51-.57,8.18A43.57,43.57,0,0,1,140.53,183.81Z"/><path class="cls-88" d="M136.42,204.53v.15a2,2,0,0,1-.57-.23Z"/><path class="cls-81" d="M134.75,205.44c1.08,1.8,8.66.83,9.45.69,1.16-.23,5.8-1.41,7.1-3.17,0,.15-.05.83,0,1.1a2,2,0,0,1-.21,1.25A15.11,15.11,0,0,1,147,207c-.92.25-2,.42-2.9.6-.38,0-.91.1-1.23.1a4.06,4.06,0,0,1-.94-.24c-.56-.18-1.29-.59-2-.21-.28.14-.26.64-.61.86,0,0-1.11.06-1.42,0a6.36,6.36,0,0,1-2.36-.39c-.4-.25-.72-.38-.82-.82a3.55,3.55,0,0,1,0-1.34h0c0-.05,0-.09,0-.14Z"/><path class="cls-80" d="M149.82,201.64A1.32,1.32,0,0,1,151,202a1.25,1.25,0,0,1,.23,1.37s0,0,0,0c-1.3,1.77-5.81,2.53-7,2.76-.79.14-8.37,1.11-9.45-.69h0c0,.05,0,.09,0,.14a3.72,3.72,0,0,1,.5-1.82,1.44,1.44,0,0,0,.63.69,2,2,0,0,0,.57.23,6.19,6.19,0,0,0,2.74,0h0a24.44,24.44,0,0,0,4-.25c1.18-.19,5.52-1.16,4.76-2.67h.32a8.07,8.07,0,0,0,1.55-.18Z"/><g class="cls-89"><path class="cls-90" d="M127.4,226.84l9.23-2.19V58.17H127.1Z"/></g><g class="cls-91"><polyline class="cls-92" points="115.79 161.12 115.79 211.81 124.9 214.02 124.9 58.17 116.57 58.17"/></g><g class="cls-93"><path class="cls-94" d="M136.63,58.17V224.65q1.29.51,2.79,1c1.24.38,2.42.68,3.51.91V58.17Z"/></g><g class="cls-95"><path class="cls-96" d="M127.1,58.17v159.9a11.56,11.56,0,0,1-1.35-2,11.39,11.39,0,0,1-.85-2V58.17Z"/></g><g class="cls-97"><polygon class="cls-98" points="142.93 226.55 145.09 232.22 145.09 58.17 142.93 58.17 142.93 226.55"/></g><g class="cls-99"><polygon class="cls-100" points="157.72 58.17 157.72 227.33 153.86 232.69 153.86 58.17 157.72 58.17"/></g><g class="cls-101"><path class="cls-102" d="M157.72,58.17V227.33c1-.1,2.09-.25,3.23-.45s2.36-.47,3.42-.74v-168Z"/></g><g class="cls-103"><polygon class="cls-104" points="164.37 226.14 172.85 229.29 172.85 58.17 164.37 58.17 164.37 226.14"/></g><g class="cls-105"><polygon class="cls-106" points="188.9 58.17 188.9 215.82 179.09 217.05 179.09 58.17 188.9 58.17"/></g><g class="cls-107"><path class="cls-108" d="M179.09,58.17V217.05a16.78,16.78,0,0,1-1.36,1.75,16.59,16.59,0,0,1-1.94,1.87V58.17Z"/></g><g class="cls-109"><polygon class="cls-110" points="175.79 220.66 179.61 226.03 179.61 58.17 175.79 58.17 175.79 220.66"/></g><g class="cls-111"><polygon class="cls-112" points="121.75 58.17 121.75 222.91 127.4 226.84 127.4 58.17 121.75 58.17"/></g><g class="cls-113"><polygon class="cls-114" points="116.57 206.72 115.79 211.81 115.79 58.17 116.57 58.17 116.57 206.72"/></g><g class="cls-115"><polygon class="cls-116" points="145.09 58.17 145.09 232.22 153.86 232.69 153.86 58.17 145.09 58.17"/></g><g class="cls-117"><polygon class="cls-118" points="172.85 58.17 172.85 229.29 179.61 226.03 179.61 58.17 172.85 58.17"/></g><g class="cls-119"><polygon class="cls-120" points="189.68 58.17 189.68 210.74 188.9 215.82 188.9 58.17 189.68 58.17"/></g><g class="cls-60"><path class="cls-121" d="M82.91,190.76h0v.08h0c0,.11-.11.14-.22.08a.49.49,0,0,1-.23-.4c0-.14.1-.2.23-.13A.51.51,0,0,1,82.91,190.76Zm-.23.08c.09,0,.16,0,.16-.09a.36.36,0,0,0-.16-.28c-.09-.05-.16,0-.16.09a.36.36,0,0,0,.16.28"/><path class="cls-121" d="M79.61,185.67v.07a3.22,3.22,0,0,0,0,.43l.07,0a3.19,3.19,0,0,1,0-.42v-.07Z"/><path class="cls-121" d="M79.88,186.88a3.34,3.34,0,0,1-.14-.52h-.07c0,.17.09.35.15.53Z"/><path class="cls-121" d="M80.19,187.57q-.14-.25-.24-.51h-.06a3.65,3.65,0,0,0,.25.53Z"/><path class="cls-121" d="M80.06,184.61l.06.08a.73.73,0,0,1,.29-.15l0-.08A.89.89,0,0,0,80.06,184.61Z"/><path class="cls-121" d="M80.6,188.2a4.29,4.29,0,0,1-.32-.47l0,0a4.2,4.2,0,0,0,.33.49Z"/><path class="cls-121" d="M80.48,184.43l0,.09a1.45,1.45,0,0,1,.36,0l0-.09A1.6,1.6,0,0,0,80.48,184.43Z"/><path class="cls-121" d="M79.74,185.28a.56.56,0,0,1,0-.12l-.07-.06s0,.08,0,.12a2.34,2.34,0,0,0,0,.3l.07,0A1.26,1.26,0,0,1,79.74,185.28Z"/><path class="cls-121" d="M79.76,185l.07.07a1,1,0,0,1,.2-.29l0-.08A1.29,1.29,0,0,0,79.76,185Z"/><path class="cls-121" d="M79.39,185.6a.75.75,0,0,0-.29.18l.05.08a.58.58,0,0,1,.28-.17Z"/><path class="cls-121" d="M79.38,188.06a2.54,2.54,0,0,1-.17-.31l-.06,0,.18.32Z"/><polygon class="cls-121" points="81.84 189.02 81.43 188.79 81.43 188.82 81.43 188.87 81.46 188.88 81.84 189.1 81.84 189.02"/><path class="cls-121" d="M85.65,187.2l0,0v0l0,0Z"/><path class="cls-121" d="M82.21,183.58a1.5,1.5,0,0,0-.73.54.22.22,0,0,1,.06.07,1.51,1.51,0,0,1,.72-.53h0l0-.09Z"/><g class="cls-122"><polygon class="cls-121" points="79.41 188.07 79.41 188.15 80.87 188.99 80.87 188.91 79.41 188.07"/><path class="cls-121" d="M81.1,188.74a4.68,4.68,0,0,1-.38-.39l0,.05a3.68,3.68,0,0,0,.39.4Z"/><polygon class="cls-121" points="82.39 189.42 82.39 189.34 81.98 189.1 81.98 189.18 82.39 189.42"/><polygon class="cls-121" points="82.94 189.74 82.94 189.66 82.53 189.42 82.53 189.5 82.94 189.74"/><polygon class="cls-121" points="83.49 190.06 83.49 189.98 83.08 189.74 83.08 189.82 83.49 190.06"/><polygon class="cls-121" points="84.04 190.37 84.04 190.29 83.63 190.06 83.63 190.14 84.04 190.37"/><polygon class="cls-121" points="84.59 190.69 84.59 190.61 84.18 190.38 84.18 190.45 84.59 190.69"/><path class="cls-121" d="M81.21,184.59a3.62,3.62,0,0,0-.15,1.87l.07,0a3.49,3.49,0,0,1,.16-1.87Z"/><path class="cls-121" d="M81,184.45l0,.08.2.06.08,0,.12,0v-.08l-.08,0-.08,0A1.17,1.17,0,0,0,81,184.45Z"/><polygon class="cls-121" points="85.14 191.01 85.14 190.93 84.73 190.69 84.73 190.77 85.14 191.01"/><path class="cls-121" d="M81.39,184.24a1.51,1.51,0,0,0-.15.28l.08,0a1.71,1.71,0,0,1,.13-.23A.16.16,0,0,1,81.39,184.24Z"/><path class="cls-121" d="M79.78,184.37c-.54.66-.37,1.93,0,2.9a5.81,5.81,0,0,0,1.25,1.84l0-.06a5.56,5.56,0,0,1-1.22-1.79c-.4-.94-.57-2.18,0-2.81a1.31,1.31,0,0,1,1.49-.24l.06,0a.17.17,0,0,1,0-.07v0l-.06,0A1.38,1.38,0,0,0,79.78,184.37Z"/><path class="cls-121" d="M81.47,184.11s-.09,0-.1,0v0a.17.17,0,0,0,0,.07h0a.16.16,0,0,0,.06.08h0a.05.05,0,0,0,.09,0v-.08s0,0,0,0a.22.22,0,0,0-.06-.07Z"/><polygon class="cls-121" points="85.69 191.33 85.69 191.25 85.28 191.01 85.28 191.09 85.69 191.33"/><path class="cls-121" d="M81.44,189.2c-.1-.06-.1.11,0,.17h0l.34.21.69.39,2.11,1.21,2.11,1.23v-.17l-2.4-1.39-2-1.17Z"/><path class="cls-121" d="M82.69,185.3a2.09,2.09,0,0,0-.22.28l.06.07a1.44,1.44,0,0,1,.22-.27Z"/><polygon class="cls-121" points="86.71 191.91 86.71 191.83 86.38 191.65 86.38 191.72 86.71 191.91"/><polygon class="cls-121" points="86.79 191.96 86.79 191.88 86.78 191.87 86.77 191.95 86.79 191.96"/><polygon class="cls-121" points="87.34 192.28 87.34 192.2 86.93 191.96 86.93 192.04 87.34 192.28"/><polygon class="cls-121" points="88.78 194.13 82.91 190.76 82.89 190.75 82.89 190.83 82.9 190.84 88.78 194.21 88.78 194.13"/><path class="cls-121" d="M85.32,187.63l-4.6-.15.83,1.72,0,0-.14-.3,0,0v0l-.6-1.25,4.52.15Z"/><polygon class="cls-121" points="86.71 191.5 86.71 191.83 86.71 191.91 86.7 192.24 86.7 192.41 86.7 192.88 86.77 192.92 86.77 192.45 86.77 192.28 86.77 191.95 86.78 191.87 86.78 191.62 88.84 192.81 88.84 192.73 86.71 191.5"/><path class="cls-121" d="M86,187.88c0,.21-.15.29-.33.18a.64.64,0,0,1-.28-.34l0-.09a.59.59,0,0,1,0-.13c0-.21.15-.29.33-.19A.74.74,0,0,1,86,187.88Zm-.33.11a.16.16,0,0,0,.26-.15.59.59,0,0,0-.26-.45.16.16,0,0,0-.26.15.61.61,0,0,0,.26.45"/><path class="cls-121" d="M89.54,193.87c-.23-.14-.46-.26-.69-.39l-2.08-1.21v.18l.26.15c.68.38,1.35.77,2,1.16l.84.49c.1.05.1-.12,0-.17h0Z"/></g><path class="cls-121" d="M85.05,185.21v-.08a3.56,3.56,0,0,0-.41-.17v.09A3.47,3.47,0,0,1,85.05,185.21Z"/><path class="cls-121" d="M85.5,185.4l-.26-.16-.06,0v.08l.07,0,.25.16.09.06v-.07Z"/><path class="cls-121" d="M86.22,185.72a.19.19,0,0,0-.2,0l0,0,0,0a.14.14,0,0,1,0,.06v.06a.6.6,0,0,0,.28.48.21.21,0,0,0,.18,0,.05.05,0,0,0,0,0,0,0,0,0,0,0,0l0-.06a.19.19,0,0,0,0-.08A.6.6,0,0,0,86.22,185.72Z"/><path class="cls-121" d="M86,185.76l-.22-.19,0,.07.22.18A.14.14,0,0,0,86,185.76Z"/><path class="cls-121" d="M84.06,183.85a.11.11,0,0,1,0,.08l.09,0A6.05,6.05,0,0,1,86,185.73l0,0a6.12,6.12,0,0,0-1.87-1.8Z"/><path class="cls-121" d="M83.52,185l0-.09a1.17,1.17,0,0,0-.33.11l0,.08A2,2,0,0,1,83.52,185Z"/><path class="cls-121" d="M84,184.92l0-.09a1.51,1.51,0,0,0-.37,0l0,.09A1.4,1.4,0,0,1,84,184.92Z"/><path class="cls-121" d="M84,183.79a2.39,2.39,0,0,0-1.78-.26s0,0,0,.05l.05,0,0,.09h0a2.26,2.26,0,0,1,1.68.25,0,0,0,0,0,.06,0,.11.11,0,0,0,0-.08Z"/><path class="cls-121" d="M81.83,184.84l-.23-.15-.06,0v.08l.06,0,.23.15Z"/><path class="cls-121" d="M83.74,186.51h0c0,.14-.1.21-.23.13a.52.52,0,0,1-.24-.4c0-.15.11-.21.24-.14A.51.51,0,0,1,83.74,186.51Zm-.23.11a.13.13,0,0,0,.2-.12.44.44,0,0,0-.2-.35c-.11-.07-.2,0-.2.11a.47.47,0,0,0,.2.36"/><path class="cls-121" d="M83.06,185a1.38,1.38,0,0,0-.28.19l0,.08.27-.19Z"/><path class="cls-121" d="M81.66,184.29l-.1-.06v.08l.1.06a5.24,5.24,0,0,1,1.63,1.74l0,0A5.33,5.33,0,0,0,81.66,184.29Z"/><path class="cls-121" d="M87.34,188.92a.68.68,0,0,1,.16.3s0,.06,0,.09a.16.16,0,0,1-.27.15A.6.6,0,0,1,87,189c0-.17.13-.24.28-.15Zm-.1.42c.09.06.16,0,.16-.09a.36.36,0,0,0-.16-.29c-.1-.06-.17,0-.17.09a.34.34,0,0,0,.17.29"/><g class="cls-122"><polygon class="cls-121" points="87.94 188.65 87.93 188.64 87.87 188.64 87.88 188.66 87.94 188.65"/><path class="cls-121" d="M87.86,188.46c0-.12-.14-.31-.25-.53l0,0c.11.22.19.4.24.52Z"/><path class="cls-121" d="M87.52,187.76l-.3-.51,0,0,.3.49Z"/><path class="cls-121" d="M87.58,186.88a.9.9,0,0,0-.37.07l.16.29a.72.72,0,0,1,.36,0Z"/><path class="cls-121" d="M87.53,186.73s0,0,0,0l.06.12.15.32.18.36h0s0,0,0,0l-.17-.35-.15-.32-.07-.14Z"/><path class="cls-121" d="M89,189.15a1.82,1.82,0,0,0-1.64-.23.68.68,0,0,1,.16.3,1.64,1.64,0,0,1,1.48.21,2,2,0,0,1,.27.17l.06.05a.49.49,0,0,1,0-.12.33.33,0,0,1,0-.15l0,0Z"/><path class="cls-121" d="M89.6,189.35a.27.27,0,0,0-.14,0,.17.17,0,0,0-.13.07.33.33,0,0,0,0,.15.49.49,0,0,0,0,.12.7.7,0,0,0,.29.4.22.22,0,0,0,.2,0,.2.2,0,0,0,.11-.18v0a.7.7,0,0,0-.21-.45A.39.39,0,0,0,89.6,189.35Z"/><path class="cls-121" d="M88.21,187.08a1.7,1.7,0,0,0-.6-.2l.15.32a1.16,1.16,0,0,1,.45.16,2.15,2.15,0,0,1,.55.47,3.12,3.12,0,0,1,.7,1.48.27.27,0,0,1,.14,0,.39.39,0,0,1,.1.08,3.69,3.69,0,0,0-.83-1.78A2.83,2.83,0,0,0,88.21,187.08Z"/></g><path class="cls-121" d="M89.88,189.57l0,.07a4.59,4.59,0,0,1,.37.39l0-.05C90.14,189.83,90,189.7,89.88,189.57Z"/><path class="cls-121" d="M90.72,190.62a5.25,5.25,0,0,0-.33-.49l0,.05c.11.15.22.31.32.47Z"/><path class="cls-121" d="M90.89,191a1.3,1.3,0,0,0-.08-.17l0,0,.08.15a2.75,2.75,0,0,1,.15.36h.06A2.43,2.43,0,0,0,90.89,191Z"/><path class="cls-121" d="M91.26,192a5.18,5.18,0,0,0-.14-.53h-.06c0,.18.1.35.13.52Z"/><polygon class="cls-121" points="90.34 194.38 90.34 194.46 91.69 195.24 91.69 195.16 90.34 194.38"/><path class="cls-121" d="M89.8,190.08a4.34,4.34,0,0,1,.8,1.2c.53,1.23.29,2.48-.55,2.78l.15.3a1.41,1.41,0,0,0,.88-1.18,3.56,3.56,0,0,0-.28-1.94,5,5,0,0,0-.89-1.34A.2.2,0,0,1,89.8,190.08Z"/><path class="cls-121" d="M86.65,186.47c-.05-.07-.11-.13-.16-.19l0,.06.16.18Z"/><path class="cls-121" d="M87.11,187.09a4.37,4.37,0,0,0-.34-.47l0,0c.12.15.23.3.34.46Z"/><path class="cls-121" d="M86.44,186.36a.05.05,0,0,1,0,0,6.9,6.9,0,0,1,.8,2.22l.07,0A7.09,7.09,0,0,0,86.44,186.36Z"/><path class="cls-121" d="M78.84,186.4a.76.76,0,0,0,0,.15,1.73,1.73,0,0,0,0,.32l.06,0c0-.11,0-.21,0-.31a.66.66,0,0,1,0-.14v0l-.07-.05Z"/><path class="cls-121" d="M79.13,187.58a2.86,2.86,0,0,1-.17-.52h-.07a3.11,3.11,0,0,0,.18.54Z"/><path class="cls-121" d="M78.86,186.23l.07.06a.88.88,0,0,1,.15-.34l-.06-.08A1.19,1.19,0,0,0,78.86,186.23Z"/><polygon class="cls-121" points="86.24 191.65 86.24 191.57 85.83 191.33 85.83 191.41 86.24 191.65"/><polygon class="cls-121" points="87.89 192.6 87.89 192.52 87.48 192.28 87.48 192.36 87.89 192.6"/><polygon class="cls-121" points="88.44 192.92 88.44 192.84 88.03 192.6 88.03 192.68 88.44 192.92"/><polygon class="cls-121" points="89 193.23 89 193.16 88.58 192.92 88.58 193 89 193.23"/><polygon class="cls-121" points="89.55 193.55 89.55 193.47 89.13 193.23 89.13 193.31 89.55 193.55"/><polygon class="cls-121" points="89.88 193.75 89.88 193.67 89.68 193.55 89.68 193.63 89.88 193.75"/><path class="cls-121" d="M84.51,185l0-.08a1.8,1.8,0,0,0-.39-.08l0,.09A2.66,2.66,0,0,1,84.51,185Z"/><path class="cls-121" d="M91.28,192.22l-.06,0a3,3,0,0,1,0,.42v.06l.07,0v-.06A1.56,1.56,0,0,0,91.28,192.22Z"/><path class="cls-121" d="M91.36,193l-.14-.07V193l.13.06a2.47,2.47,0,0,1,.27.21l0-.07A2.32,2.32,0,0,0,91.36,193Z"/><path class="cls-121" d="M92,195.09a.44.44,0,0,1-.3.1l0,.09a.48.48,0,0,0,.32-.11Z"/><path class="cls-121" d="M91.75,193.37a2.32,2.32,0,0,1,.31.46l0,0a2.63,2.63,0,0,0-.33-.49Z"/><path class="cls-121" d="M92.31,194.7l-.07,0a.77.77,0,0,1-.12.36l.06.07A.86.86,0,0,0,92.31,194.7Z"/><path class="cls-121" d="M92.19,194.18a1.25,1.25,0,0,1,0,.32l.07,0a1.32,1.32,0,0,0-.12-.53h-.06A.64.64,0,0,1,92.19,194.18Z"/><path class="cls-121" d="M85.69,186.62a1.67,1.67,0,0,0-.07.4l0,0a1.59,1.59,0,0,1,.07-.39v0l0,0Z"/><path class="cls-121" d="M86,186.23l0,0a.81.81,0,0,0-.21.29l0,0A.74.74,0,0,1,86,186.23Z"/></g><g class="cls-60"><path class="cls-123" d="M200.25,74c.27.15.48,0,.48-.28a1,1,0,0,0-.48-.83c-.26-.16-.48,0-.48.27A1.07,1.07,0,0,0,200.25,74Z"/><path class="cls-123" d="M196.18,70.51c-.27-.15-.49,0-.49.28a1.08,1.08,0,0,0,.48.83c.27.16.49,0,.49-.27A1.1,1.1,0,0,0,196.18,70.51Z"/><path class="cls-123" d="M198.22,71.69c-.27-.15-.49,0-.49.28a1.08,1.08,0,0,0,.48.83c.27.15.48,0,.49-.28A1.08,1.08,0,0,0,198.22,71.69Z"/><path class="cls-123" d="M204,79.52a1.46,1.46,0,0,0,1.52-1.61c0-1.67-1.57-3.93-3.5-5l-.22-.12a9.1,9.1,0,0,0-3.59-4c-2.22-1.28-4-.78-4,1.13A6.53,6.53,0,0,0,196,73.82l-2,1.11,4.21.72.09.06a6.74,6.74,0,0,0,1.08.49A7.93,7.93,0,0,0,202,78.9l.07,0,3.76,3.71Zm-2-6.25s0,.09,0,.14a.88.88,0,0,0-.05-.15Zm-3.81,1.91-.17-.1-2.32-.4,1.05-.57-.33-.34a5.73,5.73,0,0,1-1.8-3.59c0-1.62,1.61-2,3.58-.87a8.15,8.15,0,0,1,3.05,3.18,1.09,1.09,0,0,1,.08.15,3,3,0,0,1,.16.37.78.78,0,0,1,.05.14,3.41,3.41,0,0,1,.23,1.16c0,1.26-1,1.77-2.37,1.39l-.1,0-.29-.1-.11,0A6.64,6.64,0,0,1,198.21,75.18Z"/></g><g class="cls-60"><path class="cls-121" d="M87.78,92.89c.28-.16.49-.19.49,0,.68-.17.56.65.46,1.28a.17.17,0,0,1,.06-.07,0,0,0,0,1,0,0c.08,0,0,.31,0,.44a1.24,1.24,0,0,1-.06.2.25.25,0,0,1-.06.21A2.66,2.66,0,0,1,88.33,96v.34a2.49,2.49,0,0,0,.55,0c.22-.56.69-.82,1.4-1.7v-.32c-.17,0-.23-.27-.29-.49,0,0,0,0,0-.08s0-.07,0-.13-.09-.26,0-.35l0,0s0,0,0,0a2.28,2.28,0,0,1,0-.8A2.45,2.45,0,0,1,91,91.22c.22-.12.38-.15.38,0,.55-.14.46.51.38,1a.15.15,0,0,1,0-.06s0,0,0,0,0,.25,0,.35a.91.91,0,0,1-.05.17.17.17,0,0,1,0,.16,2.12,2.12,0,0,1-.28.87V94c1,.09,1.56-.62,1.57,1l-2.14,1.23-.66.38a3.22,3.22,0,0,1,.11,1l-2.66,1.54L85,100.65a3.87,3.87,0,0,1,.11-1.12l-1.07.62-2.12,1.22c0-1.55.52-1.51,1.56-2.8v-.31c-.17,0-.23-.28-.29-.49,0,0,0,0,0-.09a.32.32,0,0,1,0-.13c0-.06-.1-.25,0-.35l0,0a0,0,0,0,1,0,0,2.33,2.33,0,0,1,0-.81,2.42,2.42,0,0,1,1.06-1.22c.22-.13.38-.16.39,0,.54-.14.45.52.37,1l0,0a0,0,0,0,1,0,0c.06,0,0,.25,0,.35a.69.69,0,0,1,0,.17.17.17,0,0,1,0,.16,2,2,0,0,1-.28.86v.27c.79.07,1.28-.32,1.48.2.24-.25.53-.55.86-1v-.39c-.22,0-.3-.35-.36-.62,0,0-.06,0-.06-.1a1,1,0,0,1-.07-.17c0-.08-.12-.31,0-.43l0,0s0,0,0,0a2.88,2.88,0,0,1,0-1A3,3,0,0,1,87.78,92.89Z"/></g><g class="cls-124"><g class="cls-125"><path class="cls-126" d="M213.23,171.53a19.66,19.66,0,0,0-4.94,5.24,22.39,22.39,0,0,0-1.9,3.55l7.88,1.34Z"/></g><path class="cls-121" d="M213.22,171.33a22.2,22.2,0,0,0-7,9l.45.09a20.9,20.9,0,0,1,6.59-8.46Z"/><g class="cls-125"><path class="cls-127" d="M214.55,181.71l8.16,6.63a26.6,26.6,0,0,0,4.62-14Z"/></g><g class="cls-125"><path class="cls-128" d="M214.33,182l2.82,9a17.25,17.25,0,0,0,4.44-5.85,15.22,15.22,0,0,0,1.2-3.79Z"/></g><g class="cls-125"><path class="cls-129" d="M221.94,173.9l-7.44,7.88,7.15.21C222.73,179,222.91,176,221.94,173.9Z"/></g><g class="cls-125"><path class="cls-130" d="M214.51,181.87q-3.73,3.74-7.46,7.46a4.21,4.21,0,0,0,3.31,2.9,6.77,6.77,0,0,0,4.13-1.07,13.3,13.3,0,0,0,2.35-1.73Q215.67,185.65,214.51,181.87Z"/></g><path class="cls-121" d="M207.38,187.45l-.22.17c0,.11.05.22.07.33l.21-.18Z"/><path class="cls-121" d="M207.63,188.39l-.21.2a4.87,4.87,0,0,0,.24.57l.2-.21A3.88,3.88,0,0,1,207.63,188.39Z"/><path class="cls-121" d="M208.49,189.89a3,3,0,0,1-.34-.44l-.19.23a2.66,2.66,0,0,0,.35.46Z"/><path class="cls-121" d="M209.3,190.59a4.35,4.35,0,0,1-.43-.32l-.17.26a2.83,2.83,0,0,0,.45.32Z"/><path class="cls-121" d="M210.28,191a3,3,0,0,1-.5-.17l-.15.27a2.47,2.47,0,0,0,.52.18Z"/><path class="cls-121" d="M211.4,191.13a2.66,2.66,0,0,1-.57,0l-.12.29a3.84,3.84,0,0,0,.59,0Z"/><path class="cls-121" d="M212.61,191a3.56,3.56,0,0,1-.62.12l-.08.29a4.84,4.84,0,0,0,.64-.13Z"/><path class="cls-121" d="M213.88,190.51c-.21.1-.43.18-.64.26l0,.27q.33-.12.66-.27Z"/><path class="cls-121" d="M214.62,190.13l-.09,0v.26l.09-.05c.19-.11.39-.23.58-.36l0-.24Z"/><path class="cls-121" d="M216.52,189l-.06-.22c-.21.19-.42.36-.63.52l0,.23Z"/><path class="cls-121" d="M217.77,187.77l-.09-.18c-.19.22-.4.43-.6.63l.07.19C217.36,188.21,217.57,188,217.77,187.77Z"/><path class="cls-121" d="M218.93,186.34l-.12-.14-.55.72.11.15C218.56,186.83,218.75,186.59,218.93,186.34Z"/><path class="cls-121" d="M220,184.76l-.16-.09c-.15.26-.31.53-.48.78l.14.11C219.63,185.3,219.8,185,220,184.76Z"/><path class="cls-121" d="M220.81,183.09l-.18,0c-.12.27-.25.55-.39.82l.17.06C220.55,183.66,220.69,183.37,220.81,183.09Z"/><path class="cls-121" d="M221.48,181.38h-.2q-.14.42-.3.84l.19,0C221.28,182,221.39,181.66,221.48,181.38Z"/><path class="cls-131" d="M221.93,179.67l-.21.06c-.06.27-.12.55-.19.82l.2,0C221.81,180.24,221.87,180,221.93,179.67Z"/><path class="cls-121" d="M221.93,178.13a7,7,0,0,1-.08.79l.22-.08c0-.27.06-.55.08-.81Z"/><path class="cls-121" d="M221.92,176.65c0,.23,0,.48,0,.72l.21-.12q0-.39,0-.75Z"/><path class="cls-121" d="M221.68,175.32a6,6,0,0,1,.15.64l.22-.17a6.38,6.38,0,0,0-.15-.66Z"/><path class="cls-121" d="M221.56,174.22l-.2.22.12.27.2-.2C221.65,174.41,221.6,174.32,221.56,174.22Z"/><path class="cls-121" d="M222.78,177.1c0,5.2-3.65,11.56-8.18,14.17s-8.22.51-8.24-4.69S210,175,214.54,172.41,222.77,171.9,222.78,177.1ZM214.6,191c4.37-2.53,7.92-8.67,7.91-13.7s-3.59-7.06-8-4.54-7.93,8.67-7.91,13.7,3.58,7.07,8,4.54"/><path class="cls-121" d="M204.93,187.22c0,6.26,4.46,8.8,9.91,5.65v-.63c-5.15,3-9.35.58-9.37-5.34Z"/><g class="cls-125"><path class="cls-132" d="M225.05,171.91a6.7,6.7,0,0,1-3,5.27c-1.68,1-3,.18-3.06-1.75a6.72,6.72,0,0,1,3-5.26C223.67,169.2,225.05,170,225.05,171.91Zm-3,5a6.11,6.11,0,0,0,2.77-4.79c0-1.75-1.26-2.47-2.79-1.58a6.08,6.08,0,0,0-2.76,4.79c0,1.75,1.25,2.46,2.78,1.58"/></g><path class="cls-133" d="M222,171.65a3.86,3.86,0,0,0-1.75,3c0,1.11.79,1.56,1.76,1a3.87,3.87,0,0,0,1.75-3C223.76,171.54,223,171.09,222,171.65Z"/><polygon class="cls-121" points="207.54 175.9 207.28 176.29 214.14 181.78 204.89 188.12 204.92 188.47 214.79 181.72 207.54 175.9"/><path class="cls-134" d="M214.45,180.92a1.69,1.69,0,0,0-.76,1.33c0,.48.34.68.77.44a1.68,1.68,0,0,0,.76-1.33C215.22,180.87,214.88,180.67,214.45,180.92Z"/><polygon class="cls-121" points="214.09 182.91 213.41 193.86 213.74 193.7 214.42 182.75 214.09 182.91"/><path class="cls-121" d="M209.19,177.08a1.35,1.35,0,0,0-.6,1c0,.38.27.53.6.34a1.32,1.32,0,0,0,.61-1C209.79,177,209.52,176.89,209.19,177.08Z"/></g></g></g></svg>