<svg xmlns="http://www.w3.org/2000/svg" xmlns:xlink="http://www.w3.org/1999/xlink" viewBox="0 0 300 300"><defs><style>.cls-1{fill:none;}.cls-2{isolation:isolate;}.cls-3{fill:url(#linear-gradient);}.cls-4{fill:url(#linear-gradient-2);}.cls-5{fill:#db1f26;}.cls-6{opacity:0.5;}.cls-7{fill:#010101;}.cls-8{fill:url(#linear-gradient-3);}.cls-9{fill:#f4f7fa;}.cls-10{fill:#bfc8d5;}.cls-11,.cls-13,.cls-49{fill:#fff;}.cls-12{fill:#d8dee8;}.cls-13{opacity:0.48;mix-blend-mode:soft-light;}.cls-14{fill:url(#linear-gradient-4);}.cls-15{fill:url(#linear-gradient-5);}.cls-16{fill:url(#linear-gradient-6);}.cls-17{fill:url(#linear-gradient-7);}.cls-18{fill:url(#linear-gradient-8);}.cls-19{fill:url(#linear-gradient-9);}.cls-20{fill:url(#linear-gradient-10);}.cls-21{fill:url(#linear-gradient-11);}.cls-22{fill:url(#linear-gradient-12);}.cls-23,.cls-40{opacity:0.3;mix-blend-mode:multiply;}.cls-24{fill:url(#linear-gradient-13);}.cls-25{fill:url(#linear-gradient-14);}.cls-26{clip-path:url(#clip-path);}.cls-27{fill:url(#linear-gradient-15);}.cls-28{fill:url(#linear-gradient-16);}.cls-29{fill:url(#linear-gradient-17);}.cls-30{fill:url(#linear-gradient-18);}.cls-31{fill:url(#linear-gradient-19);}.cls-32{fill:url(#linear-gradient-20);}.cls-33{fill:url(#linear-gradient-21);}.cls-34{fill:url(#linear-gradient-22);}.cls-35{fill:url(#linear-gradient-23);}.cls-36{fill:url(#linear-gradient-24);}.cls-37{fill:url(#linear-gradient-25);}.cls-38{fill:url(#linear-gradient-26);}.cls-39{fill:url(#linear-gradient-27);}.cls-40{fill:url(#linear-gradient-28);}.cls-41{fill:url(#linear-gradient-29);}.cls-42{fill:url(#linear-gradient-30);}.cls-43{fill:url(#linear-gradient-31);}.cls-44{fill:url(#linear-gradient-32);}.cls-45,.cls-46,.cls-47,.cls-49{opacity:0.67;}.cls-45{fill:url(#linear-gradient-33);}.cls-46{fill:url(#linear-gradient-34);}.cls-47{fill:url(#linear-gradient-35);}.cls-48{fill:url(#linear-gradient-36);}</style><linearGradient id="linear-gradient" x1="-903.8" y1="-87.51" x2="-605.56" y2="-87.51" gradientTransform="translate(62.33 904.66) rotate(90)" gradientUnits="userSpaceOnUse"><stop offset="0" stop-color="#fffffd"/><stop offset="1" stop-color="#e2e3e4"/></linearGradient><linearGradient id="linear-gradient-2" x1="-892.33" y1="-87.51" x2="-617.03" y2="-87.51" gradientTransform="translate(62.33 904.66) rotate(90)" gradientUnits="userSpaceOnUse"><stop offset="0" stop-color="#4a90cd"/><stop offset="1" stop-color="#2055a6"/></linearGradient><linearGradient id="linear-gradient-3" x1="-864.81" y1="-87.5" x2="-644.57" y2="-87.5" gradientTransform="translate(62.34 904.67) rotate(90)" xlink:href="#linear-gradient"/><linearGradient id="linear-gradient-4" x1="72.04" y1="217.58" x2="215.16" y2="217.58" gradientUnits="userSpaceOnUse"><stop offset="0.49" stop-color="#eceff2"/><stop offset="1" stop-color="#fff"/></linearGradient><linearGradient id="linear-gradient-5" x1="110.58" y1="88.47" x2="121.75" y2="189.41" gradientUnits="userSpaceOnUse"><stop offset="0" stop-color="#321944"/><stop offset="1" stop-color="#8a3a77"/></linearGradient><linearGradient id="linear-gradient-6" x1="151.96" y1="168.16" x2="195.53" y2="256.16" xlink:href="#linear-gradient-5"/><linearGradient id="linear-gradient-7" x1="82.87" y1="131.12" x2="146.87" y2="213.41" xlink:href="#linear-gradient-5"/><linearGradient id="linear-gradient-8" x1="208.34" y1="74.17" x2="165.84" y2="133.44" xlink:href="#linear-gradient-5"/><linearGradient id="linear-gradient-9" x1="114.2" y1="88.54" x2="125.26" y2="188.54" gradientUnits="userSpaceOnUse"><stop offset="0" stop-color="#ffc546"/><stop offset="1" stop-color="#f36f56"/></linearGradient><linearGradient id="linear-gradient-10" x1="155.57" y1="168.16" x2="199.14" y2="256.16" gradientUnits="userSpaceOnUse"><stop offset="0" stop-color="#d191c0"/><stop offset="1" stop-color="#8172b4"/></linearGradient><linearGradient id="linear-gradient-11" x1="86.49" y1="131.14" x2="148.22" y2="210.5" gradientUnits="userSpaceOnUse"><stop offset="0" stop-color="#9681bc"/><stop offset="1" stop-color="#6166ae"/></linearGradient><linearGradient id="linear-gradient-12" x1="218.56" y1="64.57" x2="171.8" y2="129.76" gradientUnits="userSpaceOnUse"><stop offset="0" stop-color="#f58f86"/><stop offset="1" stop-color="#ed72ac"/></linearGradient><linearGradient id="linear-gradient-13" x1="134.63" y1="179.13" x2="177.4" y2="265.51" xlink:href="#linear-gradient-10"/><linearGradient id="linear-gradient-14" x1="109.05" y1="89.2" x2="120.09" y2="189.01" xlink:href="#linear-gradient-9"/><clipPath id="clip-path"><path id="SVGID" class="cls-1" d="M117.54,160.45a10.57,10.57,0,0,1-10.68,9.49,11.46,11.46,0,0,1-11.47-11.28c0-6.69,5.93-11.38,12.57-10.28A11.41,11.41,0,0,1,117.54,160.45Z"/></clipPath><linearGradient id="linear-gradient-15" x1="1739.08" y1="-695.65" x2="1701.51" y2="-620.51" gradientTransform="matrix(0.78, 0.63, -0.63, 0.78, -1664.64, -366.31)" gradientUnits="userSpaceOnUse"><stop offset="0" stop-color="#ed72ac"/><stop offset="1" stop-color="#f58f86"/></linearGradient><linearGradient id="linear-gradient-16" x1="-2781" y1="-5234.6" x2="-2818.57" y2="-5159.46" gradientTransform="matrix(-0.78, -0.62, 0.62, -0.78, 1265.9, -5725.43)" xlink:href="#linear-gradient-11"/><linearGradient id="linear-gradient-17" x1="224.86" y1="135.5" x2="218.73" y2="123.12" gradientUnits="userSpaceOnUse"><stop offset="0" stop-color="#f36f56"/><stop offset="1" stop-color="#ffc546"/></linearGradient><linearGradient id="linear-gradient-18" x1="-63.6" y1="126.27" x2="-55.86" y2="157.78" gradientTransform="matrix(0.98, 0.19, -0.19, 0.98, 308.54, 28.25)" xlink:href="#linear-gradient-11"/><linearGradient id="linear-gradient-19" x1="-979.36" y1="127.78" x2="-980.1" y2="118.88" gradientTransform="matrix(1, 0.05, -0.05, 1, 1198.83, 59.82)" gradientUnits="userSpaceOnUse"><stop offset="0" stop-color="#ac316e"/><stop offset="1" stop-color="#7a2e3e"/></linearGradient><linearGradient id="linear-gradient-20" x1="-982" y1="114.65" x2="-981.29" y2="140.89" gradientTransform="matrix(1, 0.05, -0.05, 1, 1198.83, 59.82)" xlink:href="#linear-gradient-17"/><linearGradient id="linear-gradient-21" x1="-720.21" y1="153.04" x2="-713.21" y2="160.42" gradientTransform="matrix(-0.97, -0.26, -0.26, 0.97, -437.3, -203.3)" xlink:href="#linear-gradient-17"/><linearGradient id="linear-gradient-22" x1="170.09" y1="135.93" x2="165.77" y2="128.97" xlink:href="#linear-gradient-17"/><linearGradient id="linear-gradient-23" x1="-622.16" y1="229.89" x2="-626.86" y2="214.38" gradientTransform="matrix(-1, 0.01, 0.01, 1, -431.61, 15.17)" gradientUnits="userSpaceOnUse"><stop offset="0" stop-color="#454c8d"/><stop offset="1" stop-color="#26274f"/></linearGradient><linearGradient id="linear-gradient-24" x1="-1705.06" y1="-246.06" x2="-1705.06" y2="-270.97" gradientTransform="matrix(-0.98, -0.19, -0.19, 0.98, -1523.95, 151.77)" xlink:href="#linear-gradient-9"/><linearGradient id="linear-gradient-25" x1="-654.51" y1="223.6" x2="-654.51" y2="198.69" gradientTransform="matrix(-1, 0.01, 0.01, 1, -431.61, 15.17)" xlink:href="#linear-gradient-9"/><linearGradient id="linear-gradient-26" x1="-652.78" y1="224.54" x2="-657.48" y2="209.03" xlink:href="#linear-gradient-23"/><linearGradient id="linear-gradient-27" x1="503.15" y1="406.3" x2="500.86" y2="457.78" gradientTransform="matrix(-0.98, 0.21, 0.21, 0.98, 621.3, -327.13)" xlink:href="#linear-gradient-5"/><linearGradient id="linear-gradient-28" x1="503.15" y1="406.3" x2="500.86" y2="457.78" gradientTransform="matrix(-0.98, 0.21, 0.21, 0.98, 621.3, -327.13)" xlink:href="#linear-gradient-11"/><linearGradient id="linear-gradient-29" x1="-604.07" y1="193.84" x2="-654.83" y2="191.54" gradientTransform="matrix(-1, 0.01, 0.01, 1, -431.61, 15.17)" xlink:href="#linear-gradient-5"/><linearGradient id="linear-gradient-30" x1="195.93" y1="143.51" x2="203.67" y2="175.03" xlink:href="#linear-gradient-11"/><linearGradient id="linear-gradient-31" x1="188.3" y1="143.26" x2="217.42" y2="187.58" xlink:href="#linear-gradient-11"/><linearGradient id="linear-gradient-32" x1="110.14" y1="101.1" x2="113.19" y2="88.46" xlink:href="#linear-gradient-5"/><linearGradient id="linear-gradient-33" x1="109.56" y1="101.12" x2="112.66" y2="88.23" xlink:href="#linear-gradient-5"/><linearGradient id="linear-gradient-34" x1="110.8" y1="101.42" x2="113.9" y2="88.53" xlink:href="#linear-gradient-5"/><linearGradient id="linear-gradient-35" x1="112.04" y1="101.72" x2="115.15" y2="88.82" xlink:href="#linear-gradient-5"/><linearGradient id="linear-gradient-36" x1="135.47" y1="95.24" x2="31.91" y2="-28.03" xlink:href="#linear-gradient-9"/></defs><g class="cls-2"><g id="_12_budget" data-name="12_budget"><g id="Layer_46" data-name="Layer 46"><rect class="cls-3" x="0.72" y="0.86" width="298.25" height="298.25" rx="149.12"/><rect class="cls-4" x="12.19" y="12.33" width="275.3" height="275.3" rx="137.65"/><path class="cls-5" d="M34.83,150.78a115.85,115.85,0,1,0,231.69,0H34.83Z"/><g class="cls-6"><path class="cls-7" d="M149.84,288.37C73.53,288.37,11.45,226.29,11.45,150S73.53,11.59,149.84,11.59,288.23,73.68,288.23,150,226.15,288.37,149.84,288.37Zm0-275.3C74.34,13.07,12.92,74.49,12.92,150S74.34,286.9,149.84,286.9,286.75,225.48,286.75,150,225.33,13.07,149.84,13.07Z"/></g><rect class="cls-8" x="39.72" y="39.86" width="220.24" height="220.24" rx="110.12"/></g><g id="Layer_47" data-name="Layer 47"><path class="cls-9" d="M135.78,59.89c-23.51.38-59.88,8.58-70.35,29.64-3.66,7.36-3.41,18.17-2.92,39.8a211.57,211.57,0,0,0,2.08,27.12c3.52,23.88,5.92,40.14,15,49.61,22.72,23.72,104.81,23,139.87-19.67,19.12-23.3,22.06-56.44,4.58-83.83C204.77,72.41,167.25,59.38,135.78,59.89Z"/><path class="cls-10" d="M215.16,216.53,72,215.29V219a1.94,1.94,0,0,0,1.47,2L114,228.15a5.88,5.88,0,0,0,1.45.06L213.6,220a1.86,1.86,0,0,0,1.56-1.95Z"/><path class="cls-10" d="M162.49,210.66l-91,6.7a2.76,2.76,0,0,1-3-2.85V146.78a3,3,0,0,1,3-3.07h91a2.62,2.62,0,0,1,2.43,2.77v61.23A2.87,2.87,0,0,1,162.49,210.66Z"/><path class="cls-11" d="M163.94,210.66l-91,6.7a2.76,2.76,0,0,1-3-2.85V146.78a3,3,0,0,1,3-3.07h91a2.62,2.62,0,0,1,2.43,2.77v61.23A2.87,2.87,0,0,1,163.94,210.66Z"/><path class="cls-12" d="M161.11,206.34l-84.73,5.82a2.26,2.26,0,0,1-2.4-2.33V150.52a2.47,2.47,0,0,1,2.4-2.51l84.73-.36a2.14,2.14,0,0,1,2,2.26v54A2.33,2.33,0,0,1,161.11,206.34Z"/><path class="cls-11" d="M121.67,145.57a1,1,0,1,1-1-1.14A1.1,1.1,0,0,1,121.67,145.57Z"/><path class="cls-13" d="M73,217.36l90.5-6.67.46,0a2.39,2.39,0,0,0,1.6-.81c-6.51-.36-10.55-2.67-13.16-5.06-5.24-4.79-4.34-9.52-10-12.67-7-3.94-12.59,1-17.94-3.87-3.24-3-1.65-5.2-5.64-9.66-4.42-4.93-7.29-3.27-11.73-7.72-5.62-5.61-2.81-10-7.65-14-5.87-4.89-12.19-.36-17.78-5.05a14.32,14.32,0,0,1-4.42-8.1H73a3,3,0,0,0-3,3.07v67.73A2.76,2.76,0,0,0,73,217.36Z"/><path class="cls-14" d="M168.23,210.29,72,217.34,114,224.81a5.43,5.43,0,0,0,1.45.06l99.73-8.34-45.4-6.19A7.13,7.13,0,0,0,168.23,210.29Z"/><polygon class="cls-12" points="86.08 217.4 166.15 211.44 190.94 214.79 111.55 221.16 86.08 217.4"/><path class="cls-15" d="M119.87,135.92l3.66,0s4-11.55,14.69-11.6l.55-31c-22.69.08-42.71,12.76-51.83,31.5Z"/><path class="cls-16" d="M163.64,149.66c-1.86,10.18-11.21,18.19-22.67,18.54a15.13,15.13,0,0,1-6.11-1.59,22.15,22.15,0,0,1-3.53,0L113.45,194A59,59,0,0,0,141,199c28.57-1.63,51-23,53.52-48.64Z"/><path class="cls-17" d="M107.85,191.15l3.58.12L125.9,163.6A21.19,21.19,0,0,1,117,146.47a20.52,20.52,0,0,1,.59-4.92l-29.47-11-3.59.05a50.24,50.24,0,0,0-2.73,16.34C81.83,165.74,92.25,182,107.85,191.15Z"/><path class="cls-18" d="M144.48,124.43c10.43,1.54,18.45,9.56,19.4,19.47l50.45,1.45v-.06s7.61-1.22,7.61-1.22c0-.34-68.92-72.19-68.92-72.19l-7.64,1.24Z"/><path class="cls-19" d="M123.48,135.92a24,24,0,0,1,18.35-11.62l.55-31c-22.69.08-42.71,12.76-51.83,31.5Z"/><path class="cls-20" d="M167.25,149.66c-1.86,10.18-11.21,18.19-22.67,18.54a24.6,24.6,0,0,1-9.64-1.62L117.06,194a59,59,0,0,0,27.52,5c28.57-1.63,51-23,53.52-48.64Z"/><path class="cls-21" d="M111.46,191.15l18-27.55a21.19,21.19,0,0,1-8.87-17.13,20.52,20.52,0,0,1,.59-4.92l-33.06-11a50.24,50.24,0,0,0-2.73,16.34C85.44,165.74,95.86,182,111.46,191.15Z"/><path class="cls-22" d="M152.08,123.12c10.43,1.54,18.46,9.56,19.41,19.47L221.94,144V144c0-36.71-29.49-68.12-69-72.16Z"/><g class="cls-23"><path class="cls-24" d="M137.68,167.45a25.67,25.67,0,0,1-2.74-.87L117.06,194a59,59,0,0,0,27.52,5,59.63,59.63,0,0,0,22.1-5.6,33.71,33.71,0,0,1-17.61-7.79C143.58,180.81,140,174.1,137.68,167.45Z"/></g><g class="cls-23"><path class="cls-25" d="M131.68,105.61a25.56,25.56,0,0,0-8.57-9.08A56.33,56.33,0,0,0,90.55,124.8l32.93,11.12a23.49,23.49,0,0,1,10-9.27C134.39,118.41,135.37,112.35,131.68,105.61Z"/></g><polygon class="cls-11" points="154.47 183.22 149.13 183.1 149.13 175.12 154.47 175.32 154.47 183.22"/><polygon class="cls-11" points="161.8 183.37 156.47 183.26 156.47 171.54 161.8 171.77 161.8 183.37"/><polygon class="cls-11" points="168.91 183.52 163.8 183.41 163.8 168.54 168.91 168.8 168.91 183.52"/><polygon class="cls-11" points="169.8 186.82 148.02 186.51 148.02 184.71 169.8 185.1 169.8 186.82"/><path class="cls-11" d="M131.86,113.89l-1,.06a9,9,0,0,0-.72-2.53l.83-.54a1.05,1.05,0,0,0,.35-1.4l-.12-.21a1,1,0,0,0-1.36-.28l-.83.55a9,9,0,0,0-1.93-1.82l.46-.9a1,1,0,0,0-.4-1.39l-.21-.11a1,1,0,0,0-1.35.48l-.45.91a8.72,8.72,0,0,0-2.6-.53l0-1a1,1,0,0,0-1-1l-.24,0a1,1,0,0,0-.92,1.12l0,1a8.75,8.75,0,0,0-2.48.9l-.52-.82a.93.93,0,0,0-1.34-.28l-.19.14a1,1,0,0,0-.25,1.41l.53.81a8.9,8.9,0,0,0-1.65,2l-.83-.42a.9.9,0,0,0-1.24.44l-.09.21a1,1,0,0,0,.46,1.3l.82.42a8.88,8.88,0,0,0-.42,2.53l-.89,0a.88.88,0,0,0-.82,1l0,.22a1,1,0,0,0,1,.88l.88,0a9.25,9.25,0,0,0,.84,2.35l-.71.47a.88.88,0,0,0-.21,1.24l.12.18a.9.9,0,0,0,1.24.26l.72-.46a8.58,8.58,0,0,0,1.84,1.61l-.38.76a.88.88,0,0,0,.41,1.17l.19.09a.88.88,0,0,0,1.19-.36l.38-.75a9,9,0,0,0,2.38.51l.05.85a.9.9,0,0,0,.94.83h.21a.87.87,0,0,0,.86-.9l0-.85a9,9,0,0,0,2.36-.72l.46.73a.93.93,0,0,0,1.26.27l.19-.11A.89.89,0,0,0,128,123l-.47-.73a9.44,9.44,0,0,0,1.75-1.82l.79.41a1,1,0,0,0,1.29-.4l.11-.19a.89.89,0,0,0-.36-1.25l-.8-.41a9.54,9.54,0,0,0,.64-2.51l.94,0a1,1,0,0,0,1-1v-.24A.91.91,0,0,0,131.86,113.89ZM122.27,122a6.53,6.53,0,0,1-6.76-6,6.62,6.62,0,0,1,6.11-7.16,6.5,6.5,0,0,1,6.94,6.43A6.63,6.63,0,0,1,122.27,122Z"/><path class="cls-11" d="M182.09,98.46h0a.86.86,0,0,1,.76.85v1.46a20.78,20.78,0,0,1,2.54.44c.62.15,1.24.32,1.86.52a.85.85,0,0,1,.58.88l-.18,1.84a.69.69,0,0,1-1,.57,11.05,11.05,0,0,0-1.25-.47,11.78,11.78,0,0,0-2.35-.44h-.22v4.19a10.93,10.93,0,0,1,4.87,2.49,5.25,5.25,0,0,1,1.56,3.88,5.13,5.13,0,0,1-1.73,4,7.91,7.91,0,0,1-4.88,1.72V122a.73.73,0,0,1-.76.75h0a.81.81,0,0,1-.77-.81v-1.6h-.34a24.79,24.79,0,0,1-2.83-.3c-.66-.12-1.32-.27-2-.45a.84.84,0,0,1-.61-.87l.21-2.36a.75.75,0,0,1,1-.62,15.74,15.74,0,0,0,1.72.57,15.08,15.08,0,0,0,2.74.46l0-4.67a10.11,10.11,0,0,1-4.74-2.32,5.34,5.34,0,0,1-1.57-4,4.63,4.63,0,0,1,1.7-3.84,7.53,7.53,0,0,1,4.8-1.34v-1.5A.69.69,0,0,1,182.09,98.46Zm-.77,5.59a2.64,2.64,0,0,0-1.53.54,1.58,1.58,0,0,0-.55,1.26,1.67,1.67,0,0,0,.51,1.25,3.65,3.65,0,0,0,1.57.8Zm1.35,8.45v4.27a2.39,2.39,0,0,0,1.64-.51,1.83,1.83,0,0,0,.57-1.44,2,2,0,0,0-.53-1.4A3.78,3.78,0,0,0,182.67,112.5Z"/><path class="cls-11" d="M182.05,127.29a16.67,16.67,0,1,1,16.67-16.67A16.69,16.69,0,0,1,182.05,127.29Zm0-32a15.34,15.34,0,1,0,15.33,15.34A15.36,15.36,0,0,0,182.05,95.28Z"/><path class="cls-11" d="M106.84,170.36A12.11,12.11,0,0,1,94.7,158.47c0-7.07,6.28-12,13.3-10.83a12.06,12.06,0,0,1,10,12.75A11.13,11.13,0,0,1,106.84,170.36ZM108,148.63a10.17,10.17,0,0,0-12.14,9.93,11.11,11.11,0,0,0,11.08,11,10.24,10.24,0,0,0,10.36-9.21A11.07,11.07,0,0,0,108,148.63Z"/><g class="cls-26"><path class="cls-11" d="M111.38,157a3.76,3.76,0,0,1-4.09,3.51,4.29,4.29,0,0,1-3.94-4.35,3.75,3.75,0,0,1,4.34-3.6A4.28,4.28,0,0,1,111.38,157Z"/><path class="cls-11" d="M115.43,169.62a8.64,8.64,0,0,0-8.2-6.94,10.09,10.09,0,0,0-10.16,6.84Z"/></g><path class="cls-27" d="M79.37,178.48c1.83.89,3.67,1.69,5.52,2.42a88.67,88.67,0,0,1-5.65-17.14,125.75,125.75,0,0,0-12.31,17.31q2.92-1.45,5.83-2.94c.26,11,5.62,20.71,12.64,27.43A47.48,47.48,0,0,0,109,217.7c16.21,3.11,27.32-2.61,27.24-2.47a55.42,55.42,0,0,1-32.35-4.69A47.6,47.6,0,0,1,86,196C78.75,185.75,79.43,178.4,79.37,178.48Z"/><path class="cls-28" d="M220,102.39c-1.84-.88-3.68-1.67-5.53-2.4a88.67,88.67,0,0,1,5.7,17.12,124.86,124.86,0,0,0,12.25-17.34c-1.94,1-3.88,2-5.81,3-.3-11-5.69-20.69-12.73-27.38a47.52,47.52,0,0,0-23.66-12.08c-16.23-3-27.32,2.7-27.23,2.55a55.53,55.53,0,0,1,32.36,4.6,47.6,47.6,0,0,1,18,14.47C220.54,95.12,219.88,102.48,220,102.39Z"/><path class="cls-29" d="M220.47,125.83a7.18,7.18,0,0,1-2.2-1.17c-.49-.57.19-2.23-.55-4.3-.54-1.51,1.25.84,1.42,1.36a4.47,4.47,0,0,0,1.56,2.88Z"/><path class="cls-30" d="M221.4,123.94l-2,1.87c1.95,2.13,4.19,5.27,3.54,8.42-1,4.76-7.65,5.08-9,9.88s3.37,12,7.36,12c5.08,0,11.85-11.71,9-21.49C228.46,128.45,223.32,125.07,221.4,123.94Z"/><path class="cls-31" d="M211.84,133.48c-.61-1.21-.87-1.21-1-1.85-.35-1.46.55-3.31,1.3-3.34.49,0,.53.74,1.56,1.92,1.26,1.45,2,1.26,2.77,2.51.18.3,1,1.62.48,2.6-.62,1.26-3,1.46-4.05.49C212.4,135.35,212.6,135,211.84,133.48Z"/><path class="cls-32" d="M213.66,134.79a14.22,14.22,0,0,0-.13,4.19c.28,1.69,3.42,3.45,4,4s-1.6,1.05-3.62.79-7.54-2-8.38-3,1-.5,2.5-.68,3-2.75,3-4.06S213.66,134.79,213.66,134.79Z"/><path class="cls-33" d="M213,136.51a3,3,0,0,1-2.91-.41c-1.23-1,.59-4,1.84-4a2,2,0,0,1,1.38.72,8.88,8.88,0,0,0,.58.84c.32.39.47.42.52.61s0,.62-.89,1.28a.84.84,0,0,1,.92.28.58.58,0,0,1,.06.28C214.45,136.54,213.85,136.75,213,136.51Z"/><path class="cls-34" d="M168,129.93s-.92.18-1.23-1.6c-.25-1.4-.57-1.79-.8-1.44s0,1.12,0,1.12a6.79,6.79,0,0,1-2.39-1.68c-.91-1.11-.84.06-.72.73a6.19,6.19,0,0,0,2.15,2.6,8.66,8.66,0,0,1,1.77,1.62Z"/><path class="cls-35" d="M198.14,228.87c.48,1,.35,1.4.23,1.59-.35.54-1.2,0-3.41.29a3.64,3.64,0,0,1-1.37-.05c-.52-.12-1.15-.4-1.12-.54s.1-.08.14-.08c.61-.13,4.45-1.31,4.45-1.31Z"/><path class="cls-36" d="M199,226.91l-.65,1.73a.73.73,0,0,1-.62.47.53.53,0,0,1-.65-.51,11.94,11.94,0,0,1,.27-2.14Z"/><polygon class="cls-37" points="224.72 224.01 225.65 226.54 226.99 226.33 226.68 223.99 224.72 224.01"/><path class="cls-38" d="M226.07,227.93c.65-.77,1.23-.7,1.35-1.23a1.09,1.09,0,0,0-.55-1.12,1.46,1.46,0,0,0-1.35.25c-1,.65-.73,1.67-1.68,2.12a2.53,2.53,0,0,0-.81.48c-.14.13-.47.44-.4.66s.69.24,1.26.23a2.46,2.46,0,0,0,1.36-.22C225.7,228.82,225.56,228.53,226.07,227.93Z"/><path class="cls-39" d="M222.61,171.26a72.64,72.64,0,0,1,.84,13.11c-.1,3.93-.45,4.66-.22,7.32.5,5.78,2.48,6.26,4,12.62a42.09,42.09,0,0,1-.55,20.08c-.54.69-1.58.66-2.67.63-1.56-6.36-3.15-12.32-4.72-18.68L210.23,178Z"/><path class="cls-40" d="M224,225c-1.56-6.36-3.15-12.32-4.72-18.68L210.23,178l12.38-6.73c0,.34.09.66.14,1-5.18,6.48-5.61,10.94-5,13.81.72,3.5,3,4.88,3.51,10,.4,3.69-.58,4.53,0,7.81.77,4.22,3,6.26,4.35,8.54s2.2,5.48,1.43,10.54c-.13.53-.25,1-.37,1.41C226.14,225.08,225.1,225.05,224,225Z"/><path class="cls-41" d="M215.42,177.4a31.94,31.94,0,0,1-2.08,10.19c-2.11,5.49-4.42,6.8-5.38,11.39-1,4.79.83,6.67.93,11.08.08,4.13-1.36,10-8.53,17.41l-3.48-.32A98.48,98.48,0,0,0,199.67,211c.31-3.49.36-6,.38-7,.13-5.8.95-15.65,4-33.42Z"/><path class="cls-42" d="M165.86,130.61l2.22-1.27c8.17,8,15.3,10.26,20.31,10.79,7.57.8,12.86-2.28,23-.18,3.18.66,8.72,1.89,11.8,6.42.8,1.19,1.09,2.09,2.43,10.64,1.72,10.92,1.78,12.82,1.54,15.18-.45,4.3-.71,6.91-2.7,9.22-5.27,6.13-16.47,3-17.87,2.55-2.6-.77-6.63-2-8.23-5.39-1.19-2.54.09-4,.49-9,.2-2.49.82-10.28-2.88-14.91-2.66-3.33-6.35-3.54-10-4.67C180.23,148.21,172.85,143.51,165.86,130.61Z"/><g class="cls-23"><path class="cls-43" d="M219.69,178.49c-3.08-2.78-4.9-1.93-6.78-4.13-4.33-5.1,2.12-13.49-1.69-17.51-3-3.23-8.86.37-12.19-3.45-2.2-2.53-.22-4.77-2.18-7.39-3.1-4.15-10-1.18-19.15-3.78a28.61,28.61,0,0,1-5.69-2.32c5,6.09,9.89,8.82,14,10.09,3.62,1.13,7.31,1.34,10,4.67,3.7,4.63,3.08,12.42,2.88,14.91-.4,4.95-1.68,6.45-.49,9,1.6,3.43,5.63,4.62,8.23,5.39,1.28.38,10.75,3,16.39-1.18A14.81,14.81,0,0,0,219.69,178.49Z"/></g><path class="cls-44" d="M148.11,87.48H88.4l-1,0a2.8,2.8,0,0,1-2.91-2.52V61.47a2.56,2.56,0,0,1,2.91-2.3l.9,0,58.33,3.94c1.41.07,2.74.35,2.74,1.62V84.16Z"/><polygon class="cls-45" points="140.14 70.33 94.95 68.32 94.95 65.53 140.14 67.67 140.14 70.33"/><polygon class="cls-46" points="140.14 75.66 94.95 73.91 94.95 71.11 140.14 72.99 140.14 75.66"/><polygon class="cls-47" points="140.14 80.99 94.95 79.49 94.95 76.7 140.14 78.32 140.14 80.99"/><path class="cls-48" d="M156.71,89.12,88.8,87.44a2.79,2.79,0,0,1-2.9-2.52V61.47a2.55,2.55,0,0,1,2.9-2.3l59.42,3.18a2.59,2.59,0,0,1,2.55,2.43V84.16Z"/><polygon class="cls-49" points="141.5 70.33 96.31 68.32 96.31 65.53 141.5 67.67 141.5 70.33"/><polygon class="cls-49" points="141.5 75.66 96.31 73.91 96.31 71.11 141.5 72.99 141.5 75.66"/><polygon class="cls-49" points="141.5 80.99 96.31 79.49 96.31 76.7 141.5 78.32 141.5 80.99"/></g></g></g></svg>