<svg id="ปฏิทิน" xmlns="http://www.w3.org/2000/svg" viewBox="0 0 363.42 378.38"><defs><style>.cls-1{fill:#d40029;opacity:0.21;}.cls-2{fill:#ded8d0;}.cls-3{fill:#c9c4bd;}.cls-4{fill:#1b75bc;}.cls-5{fill:#27aae1;}.cls-6{fill:#be1e2d;}.cls-7{fill:#f5a947;}.cls-8{fill:#50b6cf;}.cls-9{fill:#fff;}.cls-10{fill:#0d0f23;}</style></defs><title>calendar</title><path class="cls-1" d="M429.78,303.78C422.83,403.6,348.66,485,248.6,485A181.18,181.18,0,0,1,67.42,303.78C67.42,203.72,223.6,57.86,248.6,122.6,334.39,344.75,442.7,118,429.78,303.78Z" transform="translate(-67.42 -106.58)"/><path class="cls-2" d="M337.58,218.35a16.84,16.84,0,0,1,16.85,16.85v167A16.84,16.84,0,0,1,337.58,419H152.25a16.84,16.84,0,0,1-16.85-16.84v-167a16.84,16.84,0,0,1,16.85-16.85Z" transform="translate(-67.42 -106.58)"/><path class="cls-3" d="M152.25,419H337.58a16.84,16.84,0,0,0,16.85-16.84V311c-39.86,43.61-107.3,75.69-219,81.68v9.48A16.84,16.84,0,0,0,152.25,419Z" transform="translate(-67.42 -106.58)"/><circle class="cls-4" cx="270.17" cy="292.89" r="46.33"/><path class="cls-5" d="M365.35,362.44a46.28,46.28,0,0,1-64.8,64.8,46.3,46.3,0,1,0,64.8-64.8Z" transform="translate(-67.42 -106.58)"/><path class="cls-6" d="M354.43,260.47h-219V235.2a16.85,16.85,0,0,1,16.85-16.85H337.58a16.85,16.85,0,0,1,16.85,16.85Z" transform="translate(-67.42 -106.58)"/><path class="cls-7" d="M173.31,239.41a8.42,8.42,0,0,1-8.42-8.42V205.72a8.42,8.42,0,1,1,16.84,0V231A8.42,8.42,0,0,1,173.31,239.41Z" transform="translate(-67.42 -106.58)"/><path class="cls-7" d="M219.64,239.41a8.42,8.42,0,0,1-8.42-8.42V205.72a8.43,8.43,0,1,1,16.85,0V231A8.42,8.42,0,0,1,219.64,239.41Z" transform="translate(-67.42 -106.58)"/><path class="cls-7" d="M270.19,239.41a8.43,8.43,0,0,1-8.43-8.42V205.72a8.43,8.43,0,1,1,16.85,0V231A8.42,8.42,0,0,1,270.19,239.41Z" transform="translate(-67.42 -106.58)"/><path class="cls-7" d="M316.52,239.41A8.42,8.42,0,0,1,308.1,231V205.72a8.43,8.43,0,1,1,16.85,0V231A8.43,8.43,0,0,1,316.52,239.41Z" transform="translate(-67.42 -106.58)"/><path class="cls-8" d="M160.67,281.53H186v25.28H160.67Z" transform="translate(-67.42 -106.58)"/><path class="cls-8" d="M207,281.53h25.27v25.28H207Z" transform="translate(-67.42 -106.58)"/><path class="cls-9" d="M253.34,281.53h25.27v25.28H253.34Z" transform="translate(-67.42 -106.58)"/><path class="cls-8" d="M299.67,281.53H325v25.28H299.67Z" transform="translate(-67.42 -106.58)"/><path class="cls-8" d="M160.67,327.87H186v25.27H160.67Z" transform="translate(-67.42 -106.58)"/><path class="cls-9" d="M207,327.87h25.27v25.27H207Z" transform="translate(-67.42 -106.58)"/><path class="cls-9" d="M253.34,327.87h25.27v25.27H253.34Z" transform="translate(-67.42 -106.58)"/><path class="cls-8" d="M299.67,327.87H325v25.27H299.67Z" transform="translate(-67.42 -106.58)"/><path class="cls-8" d="M160.67,374.2H186v25.27H160.67Z" transform="translate(-67.42 -106.58)"/><path class="cls-8" d="M207,374.2h25.27v25.27H207Z" transform="translate(-67.42 -106.58)"/><path class="cls-8" d="M253.34,374.2h25.27v25.27H253.34Z" transform="translate(-67.42 -106.58)"/><path class="cls-10" d="M348.11,353.58V235.2a21.09,21.09,0,0,0-21.06-21.06h-8.42v-8.42a12.64,12.64,0,1,0-25.27,0v8.42H272.29v-8.42a12.64,12.64,0,1,0-25.27,0v8.42H221.75v-8.42a12.64,12.64,0,1,0-25.27,0v8.42H175.42v-8.42a12.64,12.64,0,1,0-25.28,0v8.42h-8.42a21.09,21.09,0,0,0-21.06,21.06V403.68a21.09,21.09,0,0,0,21.06,21.07H283.35a50.51,50.51,0,1,0,64.76-71.17ZM301.78,205.72a4.21,4.21,0,1,1,8.42,0V231a4.21,4.21,0,1,1-8.42,0Zm-46.33,0a4.21,4.21,0,1,1,8.42,0V231a4.21,4.21,0,1,1-8.42,0Zm-50.55,0a4.22,4.22,0,1,1,8.43,0V231a4.22,4.22,0,0,1-8.43,0Zm-46.33,0a4.21,4.21,0,1,1,8.42,0V231a4.21,4.21,0,0,1-8.42,0Zm-16.85,16.84h8.42V231a12.64,12.64,0,1,0,25.28,0v-8.43h21.06V231a12.64,12.64,0,1,0,25.27,0v-8.43H247V231a12.64,12.64,0,1,0,25.27,0v-8.43h21.07V231a12.64,12.64,0,1,0,25.27,0v-8.43h8.42a12.65,12.65,0,0,1,12.64,12.64v21.06H129.08V235.2A12.65,12.65,0,0,1,141.72,222.56Zm0,193.76a12.65,12.65,0,0,1-12.64-12.64v-139H339.69v85.9a48.17,48.17,0,0,0-21.06-.9V327.87a4.21,4.21,0,0,0-4.21-4.21H289.14a4.21,4.21,0,0,0-4.21,4.21v25.27a4.21,4.21,0,0,0,4.21,4.21h10a50.26,50.26,0,0,0-19.71,59ZM310.2,348.93H293.36V332.08H310.2Zm16.85,92.66a42.12,42.12,0,1,1,42.12-42.12A42.17,42.17,0,0,1,327.05,441.59Z" transform="translate(-67.42 -106.58)"/><path class="cls-9" d="M331.26,392.22V365.78h-8.42v26.44a8.37,8.37,0,0,0-4.21,7.25,8.54,8.54,0,0,0,.12,1.25L303.36,413l5.26,6.58L324,407.31a8.27,8.27,0,0,0,3,.59,8.4,8.4,0,0,0,4.21-15.68Z" transform="translate(-67.42 -106.58)"/><path class="cls-10" d="M175.42,277.32H150.14a4.22,4.22,0,0,0-4.21,4.21v25.28a4.22,4.22,0,0,0,4.21,4.21h25.28a4.22,4.22,0,0,0,4.21-4.21V281.53A4.22,4.22,0,0,0,175.42,277.32Zm-4.22,25.27H154.36V285.75H171.2Z" transform="translate(-67.42 -106.58)"/><path class="cls-10" d="M221.75,277.32H196.48a4.22,4.22,0,0,0-4.22,4.21v25.28a4.22,4.22,0,0,0,4.22,4.21h25.27a4.21,4.21,0,0,0,4.21-4.21V281.53A4.21,4.21,0,0,0,221.75,277.32Zm-4.21,25.27H200.69V285.75h16.85Z" transform="translate(-67.42 -106.58)"/><path class="cls-10" d="M268.08,277.32H242.81a4.21,4.21,0,0,0-4.21,4.21v25.28a4.21,4.21,0,0,0,4.21,4.21h25.27a4.21,4.21,0,0,0,4.21-4.21V281.53A4.21,4.21,0,0,0,268.08,277.32Zm-4.21,25.27H247V285.75h16.85Z" transform="translate(-67.42 -106.58)"/><path class="cls-10" d="M289.14,311h25.28a4.22,4.22,0,0,0,4.21-4.21V281.53a4.22,4.22,0,0,0-4.21-4.21H289.14a4.22,4.22,0,0,0-4.21,4.21v25.28A4.22,4.22,0,0,0,289.14,311Zm4.22-25.27H310.2v16.84H293.36Z" transform="translate(-67.42 -106.58)"/><path class="cls-10" d="M175.42,323.66H150.14a4.21,4.21,0,0,0-4.21,4.21v25.27a4.21,4.21,0,0,0,4.21,4.21h25.28a4.21,4.21,0,0,0,4.21-4.21V327.87A4.21,4.21,0,0,0,175.42,323.66Zm-4.22,25.27H154.36V332.08H171.2Z" transform="translate(-67.42 -106.58)"/><path class="cls-10" d="M221.75,323.66H196.48a4.21,4.21,0,0,0-4.22,4.21v25.27a4.21,4.21,0,0,0,4.22,4.21h25.27a4.2,4.2,0,0,0,4.21-4.21V327.87A4.2,4.2,0,0,0,221.75,323.66Zm-4.21,25.27H200.69V332.08h16.85Z" transform="translate(-67.42 -106.58)"/><path class="cls-10" d="M268.08,323.66H242.81a4.2,4.2,0,0,0-4.21,4.21v25.27a4.2,4.2,0,0,0,4.21,4.21h25.27a4.2,4.2,0,0,0,4.21-4.21V327.87A4.2,4.2,0,0,0,268.08,323.66Zm-4.21,25.27H247V332.08h16.85Z" transform="translate(-67.42 -106.58)"/><path class="cls-10" d="M175.42,370H150.14a4.21,4.21,0,0,0-4.21,4.21v25.27a4.21,4.21,0,0,0,4.21,4.21h25.28a4.21,4.21,0,0,0,4.21-4.21V374.2A4.21,4.21,0,0,0,175.42,370Zm-4.22,25.27H154.36V378.41H171.2Z" transform="translate(-67.42 -106.58)"/><path class="cls-10" d="M221.75,370H196.48a4.21,4.21,0,0,0-4.22,4.21v25.27a4.21,4.21,0,0,0,4.22,4.21h25.27a4.2,4.2,0,0,0,4.21-4.21V374.2A4.2,4.2,0,0,0,221.75,370Zm-4.21,25.27H200.69V378.41h16.85Z" transform="translate(-67.42 -106.58)"/><path class="cls-10" d="M268.08,370H242.81a4.2,4.2,0,0,0-4.21,4.21v25.27a4.2,4.2,0,0,0,4.21,4.21h25.27a4.2,4.2,0,0,0,4.21-4.21V374.2A4.2,4.2,0,0,0,268.08,370Zm-4.21,25.27H247V378.41h16.85Z" transform="translate(-67.42 -106.58)"/></svg>