<svg xmlns="http://www.w3.org/2000/svg" xmlns:xlink="http://www.w3.org/1999/xlink" viewBox="0 0 300 300"><defs><style>.cls-1{fill:none;}.cls-2{fill:url(#linear-gradient);}.cls-3{fill:url(#linear-gradient-2);}.cls-4{fill:#db1f26;}.cls-5{opacity:0.5;}.cls-6{fill:#010101;}.cls-7{fill:url(#linear-gradient-3);}.cls-8{fill:#259687;}.cls-9{fill:#fff;}.cls-10{fill:#f9bc1e;}.cls-11{fill:#040404;}.cls-12{fill:#fbda2c;}.cls-13{fill:#025e4e;}.cls-14{fill:#f05554;}.cls-15{fill:#e0935f;}.cls-16{fill:#f2b78b;}.cls-17{fill:#061a38;}.cls-18{fill:#047897;}.cls-19{fill:#42aeba;}.cls-20{fill:#152a52;}.cls-21{fill:#15162f;}.cls-22{fill:#0e0f1c;}.cls-23{fill:#2a7d54;}.cls-24{fill:#1d3564;}.cls-25{fill:#2f5a90;}.cls-26{clip-path:url(#clip-path);}.cls-27{fill:#4da78c;}.cls-28{fill:#a7d4c6;}.cls-29{fill:#103b61;}.cls-30{fill:#00527d;}</style><linearGradient id="linear-gradient" x1="696.2" y1="-407.51" x2="994.44" y2="-407.51" gradientTransform="translate(-257.67 -695.34) rotate(90)" gradientUnits="userSpaceOnUse"><stop offset="0" stop-color="#fffffd"/><stop offset="1" stop-color="#e2e3e4"/></linearGradient><linearGradient id="linear-gradient-2" x1="707.67" y1="-407.51" x2="982.97" y2="-407.51" gradientTransform="translate(-257.67 -695.34) rotate(90)" gradientUnits="userSpaceOnUse"><stop offset="0" stop-color="#4a90cd"/><stop offset="1" stop-color="#2055a6"/></linearGradient><linearGradient id="linear-gradient-3" x1="735.19" y1="-407.5" x2="955.43" y2="-407.5" gradientTransform="translate(-257.66 -695.33) rotate(90)" xlink:href="#linear-gradient"/><clipPath id="clip-path"><path class="cls-1" d="M143.07,179.73a7.47,7.47,0,0,0,3.15,3.14L148.6,175,144.8,173Z"/></clipPath></defs><g id="_22_car-booking" data-name="22_car-booking"><g id="Layer_81" data-name="Layer 81"><rect class="cls-2" x="0.72" y="0.86" width="298.25" height="298.25" rx="149.12"/><rect class="cls-3" x="12.19" y="12.33" width="275.3" height="275.3" rx="137.65"/><path class="cls-4" d="M34.83,150.78a115.85,115.85,0,1,0,231.69,0H34.83Z"/><g class="cls-5"><path class="cls-6" d="M149.84,288.37C73.53,288.37,11.45,226.29,11.45,150S73.53,11.59,149.84,11.59,288.23,73.68,288.23,150,226.15,288.37,149.84,288.37Zm0-275.3C74.34,13.07,12.92,74.49,12.92,150S74.34,286.9,149.84,286.9,286.75,225.48,286.75,150,225.33,13.07,149.84,13.07Z"/></g><rect class="cls-7" x="39.72" y="39.86" width="220.24" height="220.24" rx="110.12"/></g><g id="Layer_83" data-name="Layer 83"><path class="cls-8" d="M212.06,225H150.42a8,8,0,0,1-8-8V69.89a8,8,0,0,1,8-8h61.64a8,8,0,0,1,8,8V217a8,8,0,0,1-8,8Z"/><rect class="cls-9" x="145.75" y="80.11" width="70.98" height="126.08"/><path class="cls-10" d="M200.26,147.39a1.11,1.11,0,0,1-1.1.59,6.67,6.67,0,0,0,.09,1.21s.67-.35,1.06-.17A6.66,6.66,0,0,0,200.26,147.39Z"/><path class="cls-10" d="M202.66,145.92c-1.7,0-3.17.85-2.92,2.53.23,1.44,4.39.9,4.39-.31S204,145.92,202.66,145.92Z"/><path class="cls-10" d="M162.22,147.39a1.11,1.11,0,0,0,1.1.59,6,6,0,0,1-.1,1.21s-.67-.35-1.05-.17A6.66,6.66,0,0,1,162.22,147.39Z"/><path class="cls-10" d="M159.82,145.92c1.7,0,3.17.85,2.91,2.53-.22,1.44-4.38.9-4.38-.31S158.51,145.92,159.82,145.92Z"/><rect class="cls-11" x="195.28" y="158.41" width="5.73" height="13.81" rx="2.87"/><rect class="cls-11" x="161.46" y="158.41" width="5.73" height="13.81" rx="2.87" transform="translate(328.66 330.63) rotate(-180)"/><path class="cls-12" d="M160.32,160.6a10.59,10.59,0,0,1,0-3.64c.42-2.26,1.83-3.94,2.07-5.25.67-3.63,3-11.69,4.26-13.2,2.12-2.63,3-2.73,14.59-2.73s12.46.1,14.59,2.73c1.22,1.51,3.59,9.57,4.26,13.2.24,1.31,1.65,3,2.07,5.25a10.59,10.59,0,0,1,0,3.64c-1.55.72-6.54,1.71-20.92,1.71S161.87,161.32,160.32,160.6Z"/><path class="cls-10" d="M202.16,160.6c-1.55.72-6.54,1.71-20.92,1.71s-19.37-1-20.92-1.71c-.71,0-.19,3.71.48,5.13,1.27,2.71,8.45,3,20.44,3s19.17-.31,20.44-3C202.34,164.31,202.87,160.6,202.16,160.6Z"/><path class="cls-9" d="M193.62,138.75c-2-1.63-9.55-1.47-12.38-1.47s-10.44-.16-12.38,1.47c-2.91,2.43-4.41,13-4.41,13H198S196.53,141.18,193.62,138.75Z"/><path class="cls-9" d="M192.17,157.06c.26-.43,6.65-1.75,7.17-1.6s1.36,3.14.82,3.42-7,1.26-7.72.88C192.08,159.56,192,157.43,192.17,157.06Z"/><path class="cls-9" d="M170.31,157.58c-.26-.42-6.65-1.74-7.17-1.59s-1.36,3.13-.82,3.41,7,1.26,7.72.88C170.4,160.08,170.54,158,170.31,157.58Z"/><path class="cls-10" d="M188.19,157.65h-13.9c-.94,0-1.34,2.6-1.26,2.84s.36.64,8.21.64,8.14-.39,8.21-.64S189.13,157.65,188.19,157.65Z"/><path class="cls-13" d="M189.1,72H173.38a1,1,0,0,1-.85-.45,1,1,0,0,1-.16-.56h0a.92.92,0,0,1,.1-.44,1,1,0,0,1,.91-.57H189.1a1,1,0,0,1,.81.41,1,1,0,0,1,.2.6h0a1,1,0,0,1-.26.68A1,1,0,0,1,189.1,72Z"/><path class="cls-13" d="M188.81,218.23H173.59a2.62,2.62,0,0,1-2.62-2.62h0a2.62,2.62,0,0,1,2.62-2.63h15.22a2.63,2.63,0,0,1,2.62,2.63h0a2.61,2.61,0,0,1-2.62,2.62Z"/><rect class="cls-10" x="150.68" y="92.28" width="55.29" height="3.02"/><rect class="cls-10" x="150.68" y="98.76" width="29.62" height="3.02"/><rect class="cls-10" x="150.68" y="105.24" width="61.11" height="3.02"/><rect class="cls-10" x="150.68" y="111.72" width="38.79" height="3.02"/><rect class="cls-10" x="150.68" y="118.2" width="33.53" height="3.02"/><polygon class="cls-10" points="157.32 189.9 157.32 191.97 160.48 194.25 157.32 189.9 157.32 189.9"/><polygon class="cls-12" points="157.32 189.9 157.32 184.53 156.11 188.24 157.32 189.9"/><polygon class="cls-12" points="157.32 189.9 157.32 189.9 162.43 188.24 158.53 188.24 157.32 189.9"/><polygon class="cls-10" points="154.16 194.25 157.32 189.9 155.36 190.54 154.16 194.25"/><polygon class="cls-10" points="157.32 189.9 159.28 190.54 162.43 188.24 157.32 189.9 157.32 189.9"/><polygon class="cls-12" points="155.36 190.54 157.32 189.9 157.32 189.9 152.2 188.24 155.36 190.54"/><polygon class="cls-10" points="157.32 189.9 158.53 188.24 157.32 184.53 157.32 189.9"/><polygon class="cls-12" points="154.16 194.25 157.32 191.97 157.32 189.9 157.32 189.9 154.16 194.25"/><polygon class="cls-12" points="157.32 189.9 160.48 194.25 159.28 190.54 157.32 189.9"/><polygon class="cls-10" points="152.2 188.24 157.32 189.9 157.32 189.9 156.11 188.24 152.2 188.24"/><polygon class="cls-10" points="169.39 189.9 169.39 191.97 172.56 194.25 169.39 189.9 169.39 189.9"/><polygon class="cls-12" points="169.39 189.9 169.39 184.53 168.18 188.24 169.39 189.9"/><polygon class="cls-12" points="169.39 189.9 169.39 189.9 174.51 188.24 170.61 188.24 169.39 189.9"/><polygon class="cls-10" points="166.23 194.25 169.39 189.9 167.43 190.54 166.23 194.25"/><polygon class="cls-10" points="169.39 189.9 171.35 190.54 174.51 188.24 169.39 189.9 169.39 189.9"/><polygon class="cls-12" points="167.43 190.54 169.39 189.9 169.39 189.9 164.28 188.24 167.43 190.54"/><polygon class="cls-10" points="169.39 189.9 170.61 188.24 169.39 184.53 169.39 189.9"/><polygon class="cls-12" points="166.23 194.25 169.39 191.97 169.39 189.9 169.39 189.9 166.23 194.25"/><polygon class="cls-12" points="169.39 189.9 172.56 194.25 171.35 190.54 169.39 189.9"/><polygon class="cls-10" points="164.28 188.24 169.39 189.9 169.39 189.9 168.18 188.24 164.28 188.24"/><polygon class="cls-10" points="181.47 189.9 181.47 191.97 184.63 194.25 181.47 189.9 181.47 189.9"/><polygon class="cls-12" points="181.47 189.9 181.47 184.53 180.26 188.24 181.47 189.9"/><polygon class="cls-12" points="181.47 189.9 181.47 189.9 186.58 188.24 182.68 188.24 181.47 189.9"/><polygon class="cls-10" points="178.31 194.25 181.47 189.9 179.51 190.54 178.31 194.25"/><polygon class="cls-10" points="181.47 189.9 183.43 190.54 186.58 188.24 181.47 189.9 181.47 189.9"/><polygon class="cls-12" points="179.51 190.54 181.47 189.9 181.47 189.9 176.35 188.24 179.51 190.54"/><polygon class="cls-10" points="181.47 189.9 182.68 188.24 181.47 184.53 181.47 189.9"/><polygon class="cls-12" points="178.31 194.25 181.47 191.97 181.47 189.9 181.47 189.9 178.31 194.25"/><polygon class="cls-12" points="181.47 189.9 184.63 194.25 183.43 190.54 181.47 189.9"/><polygon class="cls-10" points="176.35 188.24 181.47 189.9 181.47 189.9 180.26 188.24 176.35 188.24"/><polygon class="cls-10" points="193.54 189.9 193.54 191.97 196.71 194.25 193.54 189.9 193.54 189.9"/><polygon class="cls-12" points="193.54 189.9 193.54 184.53 192.33 188.24 193.54 189.9"/><polygon class="cls-12" points="193.54 189.9 193.54 189.9 198.66 188.24 194.76 188.24 193.54 189.9"/><polygon class="cls-10" points="190.38 194.25 193.54 189.9 191.58 190.54 190.38 194.25"/><polygon class="cls-10" points="193.54 189.9 195.51 190.54 198.66 188.24 193.54 189.9 193.54 189.9"/><polygon class="cls-12" points="191.58 190.54 193.54 189.9 193.54 189.9 188.43 188.24 191.58 190.54"/><polygon class="cls-10" points="193.54 189.9 194.76 188.24 193.54 184.53 193.54 189.9"/><polygon class="cls-12" points="190.38 194.25 193.54 191.97 193.54 189.9 193.54 189.9 190.38 194.25"/><polygon class="cls-12" points="193.54 189.9 196.71 194.25 195.51 190.54 193.54 189.9"/><polygon class="cls-10" points="188.43 188.24 193.54 189.9 193.54 189.9 192.33 188.24 188.43 188.24"/><polygon class="cls-10" points="205.62 189.9 205.62 191.97 208.78 194.25 205.62 189.9 205.62 189.9"/><polygon class="cls-12" points="205.62 189.9 205.62 184.53 204.41 188.24 205.62 189.9"/><polygon class="cls-12" points="205.62 189.9 205.62 189.9 210.74 188.24 206.83 188.24 205.62 189.9"/><polygon class="cls-10" points="202.46 194.25 205.62 189.9 203.66 190.54 202.46 194.25"/><polygon class="cls-10" points="205.62 189.9 207.58 190.54 210.74 188.24 205.62 189.9 205.62 189.9"/><polygon class="cls-12" points="203.66 190.54 205.62 189.9 205.62 189.9 200.5 188.24 203.66 190.54"/><polygon class="cls-10" points="205.62 189.9 206.83 188.24 205.62 184.53 205.62 189.9"/><polygon class="cls-12" points="202.46 194.25 205.62 191.97 205.62 189.9 205.62 189.9 202.46 194.25"/><polygon class="cls-12" points="205.62 189.9 208.78 194.25 207.58 190.54 205.62 189.9"/><polygon class="cls-10" points="200.5 188.24 205.62 189.9 205.62 189.9 204.41 188.24 200.5 188.24"/><path class="cls-10" d="M141.48,177.31a2.13,2.13,0,0,1-2.11,1.13,11.54,11.54,0,0,0,.19,2.33s1.29-.67,2-.33A13.18,13.18,0,0,0,141.48,177.31Z"/><path class="cls-10" d="M146.1,174.5c-3.26,0-6.1,1.63-5.6,4.85.43,2.77,8.42,1.74,8.42-.58S148.61,174.5,146.1,174.5Z"/><path class="cls-10" d="M68.46,177.31a2.13,2.13,0,0,0,2.12,1.13,11.54,11.54,0,0,1-.19,2.33s-1.29-.67-2-.33A12.91,12.91,0,0,1,68.46,177.31Z"/><path class="cls-10" d="M63.84,174.5c3.27,0,6.1,1.63,5.61,4.85-.43,2.77-8.42,1.74-8.42-.58S61.34,174.5,63.84,174.5Z"/><rect class="cls-11" x="131.93" y="198.48" width="11.01" height="26.51" rx="5.5"/><rect class="cls-11" x="67.01" y="198.48" width="11.01" height="26.51" rx="5.5" transform="translate(145.03 423.46) rotate(180)"/><path class="cls-12" d="M64.8,202.69a20.5,20.5,0,0,1,0-7c.8-4.35,3.51-7.58,4-10.09,1.28-7,5.83-22.43,8.18-25.34C81,155.22,82.78,155,105,155s23.93.2,28,5.25c2.35,2.91,6.9,18.38,8.18,25.34.46,2.51,3.17,5.74,4,10.09a20.51,20.51,0,0,1,0,7c-3,1.36-12.55,3.27-40.17,3.27S67.79,204.05,64.8,202.69Z"/><path class="cls-10" d="M145.14,202.69c-3,1.36-12.55,3.27-40.17,3.27s-37.18-1.91-40.17-3.27c-1.35,0-.34,7.12.93,9.83,2.43,5.22,16.22,5.81,39.24,5.81s36.81-.59,39.25-5.81C145.49,209.81,146.5,202.69,145.14,202.69Z"/><path class="cls-9" d="M128.75,160.73C125,157.6,110.41,157.9,105,157.9s-20-.3-23.77,2.83c-5.58,4.67-8.46,24.88-8.46,24.88H137.2S134.33,165.4,128.75,160.73Z"/><path class="cls-9" d="M126,195.88c.5-.82,12.76-3.35,13.77-3.06s2.6,6,1.58,6.55-13.53,2.42-14.83,1.69C125.79,200.68,125.53,196.6,126,195.88Z"/><path class="cls-9" d="M84,196.89c-.5-.82-12.76-3.36-13.77-3.06s-2.6,6-1.58,6.55,13.53,2.42,14.83,1.69C84.16,201.68,84.42,197.6,84,196.89Z"/><path class="cls-10" d="M118.32,197H91.63c-1.8,0-2.56,5-2.42,5.46s.7,1.22,15.76,1.22,15.62-.75,15.77-1.22S120.12,197,118.32,197Z"/><path class="cls-14" d="M105,104.2a12.26,12.26,0,0,0-12.26,12.26c0,10.26,10,22.78,12.26,22.78s12.27-12.52,12.27-22.78A12.26,12.26,0,0,0,105,104.2Zm0,19.62a7.36,7.36,0,1,1,7.36-7.36A7.37,7.37,0,0,1,105,123.82Z"/><path class="cls-11" d="M215.34,138.09c2.62,1.59,2.31,5.46,3.42,8.31,2.1,5.39,7.46,9.86,5.54,11.95-2.21,2.4-5.82-.14-10.56,3.3-3.28,2.39-4.89-21.49-4.89-21.49a3.86,3.86,0,0,1,.58-1.28C210.38,137.53,213.32,136.86,215.34,138.09Z"/><path class="cls-15" d="M213.76,145.32A6,6,0,0,0,215.6,149a2.75,2.75,0,0,1-1.8,2.28,2.13,2.13,0,0,1-2.75-.47l-.59-3.1S211.88,145.49,213.76,145.32Z"/><path class="cls-16" d="M212.34,140.5a7.29,7.29,0,0,1,1,2.82s1-1.19,1.78-.37.27,2-.92,2.43c-1.93,3.05-5.09,2.84-5.53,2.08-1.55-2.64.16-7.3.16-7.3S210.94,139.21,212.34,140.5Z"/><path class="cls-16" d="M193.62,219.76l2.47.66-.47,1.39-1.73,1.25-2.47.08-1-1.14a7.64,7.64,0,0,0,2.42-.75A2.75,2.75,0,0,0,193.62,219.76Z"/><path class="cls-11" d="M190.45,222a5.21,5.21,0,0,0,5.17-.19,3.77,3.77,0,0,1-.07,1.88A4.31,4.31,0,0,1,195,225l-.73-.2.24-1a14.24,14.24,0,0,1-4,0C187.29,222.93,187.68,221.84,190.45,222Z"/><path class="cls-17" d="M206.36,178.62h9.85c-.84,10-8.48,15.57-13.3,23.45a109.57,109.57,0,0,0-6.07,18.57c-1.27-.36-2.57-.63-3.83-1,.69-7.75,1.74-14.78,4.78-21.71S206.36,178.62,206.36,178.62Z"/><path class="cls-16" d="M198.31,138c-.46-1.09.07-3.93-1.39-3.8s-1.94,1.8-1.78,3.59a7.57,7.57,0,0,0,1.14,3l.36,5.58,2.45-.22-.77-5.56a3.74,3.74,0,0,0,.9-1.67c.1-1,.8-2.21.54-2.48C199.33,136,198.42,137.28,198.31,138Z"/><path class="cls-18" d="M198.88,141.28l-3,.36c.07,5,1.19,10.67,4.84,13.93,2.65,2.37,13.31,5.88,14.33,1.58.85-3.61-8.82-4.25-11.88-5.78C200.75,150.19,199.09,144.34,198.88,141.28Z"/><path class="cls-19" d="M205.52,157.85c.69-3.17,5.53-7,5.53-7s2,.34,4.56-1.81c2.94,2.58,4.22,5.48,2.51,14.6-.86,4.59-3.77,11.3-.71,15h-11c1.41-3.83,1.17-12.7.76-14C206.24,161.75,205,160.35,205.52,157.85Z"/><path class="cls-16" d="M219.44,132.24c-.2-1.16-2.17-3.27-.88-4s2.61.48,3.44,2.07a7.42,7.42,0,0,1,.65,3.14l2.25,4.7-2.18,1.13-1.89-4.9a3.79,3.79,0,0,1-1.66-.92c-.65-.82-1.87-1.43-1.79-1.81C217.5,131.11,218.94,131.68,219.44,132.24Z"/><path class="cls-18" d="M216.13,153a.33.33,0,0,1-.44.05.32.32,0,0,1,0-.44c.49-.62,1-1.23,1.62-1.84.12.17.24.35.35.53C217.1,151.88,216.59,152.45,216.13,153Z"/><path class="cls-18" d="M217.38,158.45a.31.31,0,0,1-.3-.21.31.31,0,0,1,.19-.4,7.4,7.4,0,0,0,1.62-.84c0,.24,0,.49,0,.75a7.38,7.38,0,0,1-1.39.68Z"/><path class="cls-19" d="M220.72,135.29l2.75-1.33a19.33,19.33,0,0,1,2.37,14.69c-1,3.42-8.05,12.13-11.23,9-2.66-2.58,5.15-8.33,6.9-11.27C222.87,144.15,222.19,138,220.72,135.29Z"/><path class="cls-11" d="M213.37,141.5v1.82a20.08,20.08,0,0,0-1-2.17c-.55-1-3.51-1-3.51-1l2.1-1.93Z"/><path class="cls-16" d="M236.51,208.34l1.11-2.3,1.28.72.9,1.94-.39,2.44-1.3.73a7.72,7.72,0,0,0-.28-2.51A2.75,2.75,0,0,0,236.51,208.34Z"/><path class="cls-11" d="M238.11,211.87a5.07,5.07,0,0,0,1.11-2.76,5.22,5.22,0,0,0-.32-2.35,3.89,3.89,0,0,1,1.83.42,4.36,4.36,0,0,1,1.18.76l-.33.68-.92-.42a14.62,14.62,0,0,1-.75,3.9C238.43,215.15,237.44,214.57,238.11,211.87Z"/><path class="cls-20" d="M223.69,197.45c4.56,3.05,14.3,7.91,14.3,7.91-.59,1.2-1.18,2.33-1.74,3.6,0,0-14.28-4.3-19.14-9.3-5.38-5.54-7.74-13.57-9.37-21h9.67C221.74,183.4,222,196.35,223.69,197.45Z"/><polygon class="cls-16" points="127.39 220.38 126.92 221.79 125.19 223.05 124.61 221.08 124.91 219.71 127.39 220.38"/><path class="cls-11" d="M122.15,221.9a10.28,10.28,0,0,0,2.46-.82,2,2,0,0,0,2.31.71,4.81,4.81,0,0,1-.6,3.2l-2.14-.58.12-.48a15.61,15.61,0,0,1-3.61-.46c-1.75-.47-1.94-1.07-1.68-1.31S120.47,222.2,122.15,221.9Z"/><path class="cls-21" d="M137.65,178.24h9.86c-.84,10-8.49,15.69-13.3,23.64a110.29,110.29,0,0,0-6.07,18.72c-1.28-.36-2.57-.63-3.84-1,.69-7.81,1.75-14.9,4.79-21.89S137.65,178.24,137.65,178.24Z"/><polygon class="cls-16" points="163.18 218.57 162.91 220.65 161.14 219.84 160.39 218.75 162.51 217.33 163.18 218.57"/><path class="cls-11" d="M161.14,219.84a2,2,0,0,0,2-1.27A4.23,4.23,0,0,1,165,221l-1.82,1.23-.26-.38a16.44,16.44,0,0,1-2.74,2.39c-1.49,1-2,.77-2,.43s1-1.06,1.91-2.5A10.94,10.94,0,0,0,161.14,219.84Z"/><path class="cls-22" d="M153.19,200.85c3.41,5.3,6.74,10.65,9.83,16.14-1.09.75-2.18,1.44-3.26,2.24-4.56-6.2-9.84-11.32-13.75-18.12s-5.21-15.23-6.95-22.87h9.65C151.52,185.54,150.12,193.6,153.19,200.85Z"/><path class="cls-16" d="M125.75,176.44c-.66.36-2.21.37-2.11-.23.06-.37,1.41-.51,2.32-1a3.66,3.66,0,0,1,1.87-.26l4-3.92,1.63,1.84-4.28,3.6a7.46,7.46,0,0,1-1.73,2.69c-1.35,1.19-2.94,1.84-4,.7S125.15,177.47,125.75,176.44Z"/><rect class="cls-23" x="123.63" y="174.48" width="3.77" height="6.3" transform="translate(341.57 202.58) rotate(131.83)"/><path class="cls-24" d="M136.91,163.34c1.66-5.35,4.81-11.6,7.36-10.42,3,1.41-.24,8.37-2.82,12.55-3.56,5.76-11.31,10.78-11.31,10.78l-2.25-2.1S135.63,167.5,136.91,163.34Z"/><path class="cls-15" d="M145.05,144.94a6,6,0,0,0,1.85,3.68,2.76,2.76,0,0,1-1.8,2.28,2.16,2.16,0,0,1-2.76-.47l-.59-3.1S143.17,145.11,145.05,144.94Z"/><path class="cls-11" d="M141.28,137.5a1.29,1.29,0,0,1,1.45-1,1.23,1.23,0,0,1,1.21,1.21,1.39,1.39,0,0,1,1.82-.39,1.48,1.48,0,0,1,.55,1.9,1.19,1.19,0,0,1,1.38.87,2,2,0,0,1-.7,2.19,1.09,1.09,0,0,1,.79,1.47c-.42,1.28-2.52,1.27-2.52,1.27l.6-2.68h0c-.5-.47-1.94-1.87-1.7-2s.77-.32,1.2-.48l-2-.94a1.11,1.11,0,0,0,0-.13,11.55,11.55,0,0,1-2,.47l-1.12.77a12.16,12.16,0,0,1,.25,1.58c-.05.14-.64-1.09-.64-1.09a1.75,1.75,0,0,1-.4-2.81A1.52,1.52,0,0,1,141.28,137.5Z"/><path class="cls-11" d="M145.51,138.94s.68,2.26.68,2.26v2.5a22.76,22.76,0,0,1-3.3,1.92c-.44,0-1.66-3.11-1.66-3.11L140,139.19l2.63-1.06S145.47,138.9,145.51,138.94Z"/><path class="cls-16" d="M140.59,140.3c1,.06,2.3.28,3-.19a37.1,37.1,0,0,0,.3,4.3l.54-.22s.23-1.3.25-1.33c.23-.25,1-1,1.71-.29s.27,2-.92,2.42c-1.93,3.06-5.09,2.85-5.53,2.09-1.16-2-.48-5.11-.07-6.54A1.08,1.08,0,0,1,140.59,140.3Z"/><path class="cls-11" d="M143.34,139.15s2.46.7,2.46.72-1.63,3-1.63,3l-.24,1.54c-.16-1.64-.12-2.48-.89-3.08a4.77,4.77,0,0,0-3.13-.79C139.75,139.69,143.34,139.15,143.34,139.15Z"/><path class="cls-25" d="M138.45,157.46c.7-3.16,3.89-7,3.89-7s2,.33,4.56-1.81c2.95,2.58,5.09,5.42,4,14.64-.6,5.38-2.24,12.16-2.24,15H137.65s.47-4,.74-8.78C138.78,162.46,137.65,161.15,138.45,157.46Z"/><path class="cls-24" d="M150,169.66l-.06.32c0,.25-.09.51-.13.76-.17.94-.34,1.85-.48,2.71-.67,1.94-1.38,3.63-1.91,4.79h-.68a48.2,48.2,0,0,0,3.32-9.72l.13,0C150.1,168.92,150,169.29,150,169.66Z"/><path class="cls-24" d="M145.53,165.23a33.79,33.79,0,0,1-.88-8.69.31.31,0,0,1,.33-.29.31.31,0,0,1,.29.33,33,33,0,0,0,.87,8.52c.79,3.57-1.37,10.64-2.2,13.14h-.66C144,176,146.3,168.7,145.53,165.23Z"/><g class="cls-26"><path class="cls-16" d="M141.93,180.93a3.82,3.82,0,0,1,1.56-1.09l1.79-5.32,2.29.9-2.17,5.15a7.54,7.54,0,0,1-.32,3.19c-.66,1.68-1.78,3-3.2,2.42s.38-2.84.45-4c-.43.62-1.8,1.33-2,.75C140.23,182.55,141.37,181.82,141.93,180.93Z"/></g><path class="cls-25" d="M145.84,165.16c-1.22-5.47-1.58-12.46,1.22-12.7,3.34-.28,3.94,7.39,3.77,12.3-.24,6.77-4.49,15-4.49,15l-3-.71S146.78,169.41,145.84,165.16Z"/><path class="cls-11" d="M90.3,138.74c0-2.17-2.78-3.21-5-2.36-4.45,1.71-1.86,11-3.47,12.11s-1.55,4.93,0,5.63,9.15-.45,9.15-.85a50.7,50.7,0,0,1-1.36-5C89.26,145.88,90.3,138.74,90.3,138.74Z"/><path class="cls-15" d="M85.15,143.14a6,6,0,0,1-1.84,3.68,2.74,2.74,0,0,0,1.8,2.27,2.13,2.13,0,0,0,2.75-.46l.59-3.1S87,143.3,85.15,143.14Z"/><path class="cls-16" d="M86.58,138.31a35.38,35.38,0,0,1-.31,4.29l-.54-.21s-.22-1.31-.25-1.33c-.23-.25-1-1-1.7-.3s-.28,2,.91,2.43c1.93,3.06,5.09,2.85,5.54,2.08,1.16-2,.48-5.1.07-6.53C89.22,137.66,87.5,138.89,86.58,138.31Z"/><path class="cls-16" d="M110.09,165.53c.75,0,2.1-.77,1.72-1.24-.23-.3-1.48.26-2.53.24a3.62,3.62,0,0,0-1.76.69l-5.43-1.44-.51,2.41,5.49,1a7.59,7.59,0,0,0,2.84,1.49c1.76.38,3.46.15,3.78-1.33S111.11,166.13,110.09,165.53Z"/><path class="cls-27" d="M94.85,158.67c-2.44-3-5.66-10.88-9.06-9.25-4,1.88,2.28,9.94,5.12,12.27,3.93,3.2,9.67,5.2,15,5.78l1.06-2.94C103.21,164,96.74,161,94.85,158.67Z"/><path class="cls-28" d="M93.39,155.66c-.69-3.17-5.53-7-5.53-7s-2,.33-4.55-1.81c-3,2.58-4.23,5.47-2.52,14.59.86,4.59,3.1,10.73.71,15h11c0-.4-1.17-12.7-.76-14.05C92.67,159.56,93.94,158.16,93.39,155.66Z"/><path class="cls-27" d="M86.1,163.12a41.81,41.81,0,0,0,.13-5.4.31.31,0,0,0-.12-.23.32.32,0,0,0-.19-.07.33.33,0,0,0-.23.1.31.31,0,0,0-.08.23,39.33,39.33,0,0,1-.14,5.31c-.33,3.77,2.94,10.84,4,13a.32.32,0,0,1-.12.4h1l0-.06C90.27,176.29,85.72,167.32,86.1,163.12Z"/><path class="cls-27" d="M82.44,169.66A53.26,53.26,0,0,0,86,176.44h.74a47.64,47.64,0,0,1-4.85-9.89C82.14,167.58,82.32,168.63,82.44,169.66Z"/><path class="cls-16" d="M96.88,221.83a2.59,2.59,0,0,1-.22-1.6L94.12,220v1.42l1.22,1.72,2.3.92,1.28-.69A8,8,0,0,1,96.88,221.83Z"/><path class="cls-11" d="M98.91,223.34a5.47,5.47,0,0,1-4.8-2,3.47,3.47,0,0,0-.54,1.71,3.9,3.9,0,0,0,.07,1.34l.74.08.1-1a14.56,14.56,0,0,0,3.73,1.37C101.57,225.27,101.56,224.16,98.91,223.34Z"/><path class="cls-29" d="M92.55,176.44H82.9c.66,9,5.29,16.53,8.39,24.78,1,6.08,1.6,12.53,2.12,18.67l3.9.44c.62-7.47.88-15.8-.29-23.1S94.31,183.47,92.55,176.44Z"/><path class="cls-30" d="M83.44,201.33c-.28,3.66.49,19.18.49,19.18h3.93s1.85-17.75,2.18-22,1-19.58,1-22H81.5C76.68,184.58,83,192.18,83.44,201.33Z"/><path class="cls-19" d="M93.36,171.75a.52.52,0,0,0-.34-.24.54.54,0,0,0-.39.06l-9.48,5.88a.53.53,0,0,0-.17.73l4.1,6.62a.52.52,0,0,0,.44.25.51.51,0,0,0,.29-.08l9.48-5.88a.48.48,0,0,0,.24-.32.51.51,0,0,0-.07-.4Z"/><path class="cls-16" d="M91.68,178.23a3.74,3.74,0,0,0-1.68-.88l-2.46-5-2.16,1.18,2.82,4.83a7.57,7.57,0,0,0,.72,3.12c.87,1.58,2.15,2.72,3.48,2s-.74-2.77-1-3.93c.51.56,2,1.09,2.07.49C93.58,179.62,92.35,179,91.68,178.23Z"/><path class="cls-28" d="M85.79,163.09c.5-5.58,0-12.56-2.85-12.44-3.34.15-3,7.84-2.15,12.68,1.1,6.68,6.37,14.27,6.37,14.27L90,176.52S85.4,167.43,85.79,163.09Z"/><path class="cls-16" d="M87.5,222.07a2.55,2.55,0,0,1-.38-1.56H84.57l.13,1.41,1.39,1.57,2.38.68,1.2-.82A8.06,8.06,0,0,1,87.5,222.07Z"/><path class="cls-11" d="M89.67,223.35a5.48,5.48,0,0,1-5-1.43,3.4,3.4,0,0,0-.37,1.74,3.9,3.9,0,0,0,.21,1.33h.75v-1a14.74,14.74,0,0,0,3.84,1C92.51,225,92.39,223.89,89.67,223.35Z"/><path class="cls-11" d="M88.67,137.55a7.33,7.33,0,0,0-3.65.76c-1.91.93-2.45,3.18-2.55,5.37S80,148.44,80.85,150c1.3,2.56,4.87-1.48,5.44-4.75.33-1.9.31-4.88,1.29-6.13.69-.9,2.43-.41,2.72-.33A1.75,1.75,0,0,0,88.67,137.55Z"/></g></g></svg>