<svg xmlns="http://www.w3.org/2000/svg" xmlns:xlink="http://www.w3.org/1999/xlink" viewBox="0 0 300 300"><defs><style>.cls-1{fill:url(#linear-gradient);}.cls-2{fill:url(#linear-gradient-2);}.cls-3{fill:#db1f26;}.cls-4{opacity:0.5;}.cls-19,.cls-5{fill:#010101;}.cls-6{fill:url(#linear-gradient-3);}.cls-7{fill:#ffdb59;}.cls-10,.cls-11,.cls-12,.cls-13,.cls-14,.cls-15,.cls-16,.cls-17,.cls-18,.cls-19,.cls-20,.cls-21,.cls-22,.cls-23,.cls-24,.cls-25,.cls-26,.cls-27,.cls-28,.cls-29,.cls-30,.cls-31,.cls-32,.cls-33,.cls-34,.cls-35,.cls-36,.cls-37,.cls-38,.cls-39,.cls-40,.cls-41,.cls-7,.cls-8,.cls-9{fill-rule:evenodd;}.cls-8{fill:#f89c3f;}.cls-9{fill:#cc236a;}.cls-10{fill:#76cedb;}.cls-11{fill:#128e90;}.cls-12{fill:#96bfe6;}.cls-13{fill:#427cbf;}.cls-14{fill:#6b9fd5;}.cls-15{fill:#adb0d9;}.cls-16{fill:#1169a5;}.cls-17{fill:#0b3251;}.cls-18{fill:#0d152e;}.cls-20{fill:#03568c;}.cls-21{fill:#db8156;}.cls-22{fill:#ed9971;}.cls-23{fill:#20bdbf;}.cls-24{fill:#f9aa85;}.cls-25{fill:#f066a5;}.cls-26{fill:#f1f0f8;}.cls-27{fill:#dddef0;}.cls-28{fill:#ed448b;}.cls-29{fill:#452414;}.cls-30{fill:#7b3b1e;}.cls-31{fill:#d2edf0;}.cls-32{fill:#d0e3f5;}.cls-33{fill:#fdbc5a;}.cls-34{fill:#a96344;}.cls-35{fill:#e19785;}.cls-36{fill:#fff;}.cls-37{fill:#dde4ed;}.cls-38{fill:#f49ec4;}.cls-39{fill:#f9af88;}.cls-40{fill:#ffedad;}.cls-41{fill:#eaf2fb;}</style><linearGradient id="linear-gradient" x1="-1223.8" y1="232.36" x2="-925.56" y2="232.36" gradientTransform="translate(382.33 1224.66) rotate(90)" gradientUnits="userSpaceOnUse"><stop offset="0" stop-color="#fffffd"/><stop offset="1" stop-color="#e2e3e4"/></linearGradient><linearGradient id="linear-gradient-2" x1="-1212.33" y1="232.36" x2="-937.03" y2="232.36" gradientTransform="translate(382.33 1224.66) rotate(90)" gradientUnits="userSpaceOnUse"><stop offset="0" stop-color="#4a90cd"/><stop offset="1" stop-color="#2055a6"/></linearGradient><linearGradient id="linear-gradient-3" x1="-1184.81" y1="232.37" x2="-964.57" y2="232.37" gradientTransform="translate(382.34 1224.67) rotate(90)" xlink:href="#linear-gradient"/></defs><g id="_08_circular-chart" data-name="08_circular-chart"><g id="Layer_28" data-name="Layer 28"><rect class="cls-1" x="0.85" y="0.86" width="298.25" height="298.25" rx="149.12"/><rect class="cls-2" x="12.32" y="12.33" width="275.3" height="275.3" rx="137.65"/><path class="cls-3" d="M34.83,150.78a115.85,115.85,0,1,0,231.69,0H34.83Z"/><g class="cls-4"><path class="cls-5" d="M150,288.37C73.66,288.37,11.58,226.29,11.58,150S73.66,11.59,150,11.59,288.36,73.68,288.36,150,226.28,288.37,150,288.37Zm0-275.3C74.47,13.07,13.05,74.49,13.05,150S74.47,286.9,150,286.9,286.88,225.48,286.88,150,225.46,13.07,150,13.07Z"/></g><rect class="cls-6" x="39.85" y="39.86" width="220.24" height="220.24" rx="110.12"/></g><g id="Layer_31" data-name="Layer 31"><path class="cls-7" d="M225.59,118.19l-.4-.22-.91-.48a1.55,1.55,0,0,1-.78-1,1.34,1.34,0,0,1-.07-.39,1.63,1.63,0,0,1,.14-.72l.06-.13a1.57,1.57,0,0,1,1-.78,1.51,1.51,0,0,1,1.23.11l1.78.94a1.63,1.63,0,0,1,.79,1,1.57,1.57,0,0,1-.11,1.24,1.5,1.5,0,0,1-.77.72l-.2.07a1.57,1.57,0,0,1-1.24-.11Zm.72,13.84.3-.13,0,0c.11.57.24,1.12.39,1.68l-1-.79-.06.07a.28.28,0,0,0,0-.09.92.92,0,0,1,0-.37Zm11.42,14.22c.09.49.15.94.19,1.33.12,1.16.3,2.61.52,4.35a.3.3,0,0,1,0,.13l.38,4.77.21,2.71v.15a.59.59,0,0,0,0,.14v.65a.91.91,0,0,1-.07.25,10,10,0,0,1-3.89,4.86,12.74,12.74,0,0,1-3,1.51c-.28-.87-.7-2.09-1.26-3.67-.2-.56-.38-1.11-.56-1.64-.24-.72-.47-1.41-.67-2.07-.26-2.27,0-3.84.69-4.73a4,4,0,0,0,.66-3.49,5.34,5.34,0,0,0-1.29-2.92,5.53,5.53,0,0,0-2-1.38,6,6,0,0,0-4.26.09l-.06-1.1a16.35,16.35,0,0,1,.19-2.57,12.1,12.1,0,0,1,.4-1.73l3.61-4.75a4.22,4.22,0,0,0,.49-.61,16.88,16.88,0,0,0,5.75,7.68A12.41,12.41,0,0,0,237.73,146.25ZM61.36,141.73l.09.66.17,0c.06.22.12.45.19.68l.63,2.39a6.07,6.07,0,0,0-2,4.4q0,3.65,4.53,6.26a20.89,20.89,0,0,0,9.24,2.58l1.18.73v4.16a6.8,6.8,0,0,1-1-.45L52.13,150.33a4.56,4.56,0,0,1-.67-.52,2,2,0,0,1-.63-.83.5.5,0,0,1-.07-.25v0a.5.5,0,0,1,0-.12.64.64,0,0,1,0-.23,2,2,0,0,1,.67-.88l0,0Q51.66,147.35,61.36,141.73Zm48.85-47.87a3.44,3.44,0,0,1,.27-.27c.36.23.82.53,1.37.92a.38.38,0,0,0,.52,0s0,0,.06,0a.28.28,0,0,0,0-.43,4.36,4.36,0,0,0-1.1-1.3l.13-.14.69-.67,4.6,7.33.47-.69a10.32,10.32,0,0,0,1,.9c.68.49,1.47,1,2.37,1.55.54.33,1.12.66,1.73,1a3.9,3.9,0,0,0,.79-1.48c.12-.38.23-.81.34-1.29a9.06,9.06,0,0,0,.24-1.62l.41.34L124,96.75a4.27,4.27,0,0,0,.9-.49l.23-.15a3.54,3.54,0,0,0,1.24-2.28,6.24,6.24,0,0,0,.07-1.17c-.09-2.11-.21-4.25-.34-6.41l-.09.41c0-.2.06-.42.09-.64a9.34,9.34,0,0,0,.07-2.86l.28.18A8.76,8.76,0,0,1,130,88.19a16.13,16.13,0,0,1,.26,7.13c-.12.91-.23,1.78-.35,2.6-.6,4.53-1,7.78-1.36,9.73a20.21,20.21,0,0,0-.26,2.93l-9.78,5.64h-.2l-.14,0-1.35-.07-.42-.09,0,0a20.67,20.67,0,0,1-4.21-.9h0c0-.07,0-.14,0-.21,0-.31.06-.62.08-1q.22-2.92.32-6.19c0-1.37.07-2.6.1-3.69,0-.62,0-1.2,0-1.73a19.13,19.13,0,0,0-.4-4.46,7.12,7.12,0,0,0-.3-1.08c0-.07,0-.13-.07-.2.24.18.46.13.66-.14a.35.35,0,0,0,.11-.18.47.47,0,0,0-.13-.6A7.52,7.52,0,0,0,110.21,93.86Zm-15.85,46a4.37,4.37,0,0,0-1,.36,1.88,1.88,0,0,1,.16-.23,3.9,3.9,0,0,1,.33-.38,2.81,2.81,0,0,1,2.07-.85,2.78,2.78,0,0,1,1.8.61l-.45.31-.85.61a2.49,2.49,0,0,0-1.58-.47A2.15,2.15,0,0,0,94.36,139.84Zm39.45,27.68a3,3,0,0,0,.12.45,2.24,2.24,0,0,0,.2.41,2.27,2.27,0,0,0,1.53,1l13-7.5.55-.32,1.68-1,2.54,1.48,10.31,6v.45a2.84,2.84,0,0,1-.26,1.12H163l-1.24-.05-.58,0h-.12l-.18,0h-.1l-.14,0-1.15.88a.76.76,0,0,0-.11.14h-.18l-.57,0a2.29,2.29,0,0,0-1.84,1.24,4.69,4.69,0,0,0-.6,1.12,3,3,0,0,1-.17.64,3.49,3.49,0,0,0-.06.65v.67a5,5,0,0,0,1.08,2.81,13.58,13.58,0,0,0,1.46,1.34,23.48,23.48,0,0,0,2.62,1.82,10.68,10.68,0,0,0,5.92,1.4c2.27-.07,3.79-.79,4.58-2.17a4.92,4.92,0,0,0,.24-.45,4.18,4.18,0,0,0,.44-1.44,2.5,2.5,0,0,0-.06-.68c-.08-.17-.19-.37-.31-.61a3.17,3.17,0,0,1-.7-2.48c.51-.42,1.57-.34,3.17.24a23.14,23.14,0,0,1,3.64,1.57l9,5.2-36.17,20.89-36.15-20.89,10.62-6.13,2.23-1.3a1,1,0,0,0-.13-.42l.13-.09a2,2,0,0,0-.87-1.35.55.55,0,0,0-.14-.09,6.61,6.61,0,0,0-2-.66c-.3-.07-.57-.13-.81-.2h-.06l-.48-.16L123,171a2,2,0,0,1-.51-.29,2.09,2.09,0,0,1-.83-1.08,3,3,0,0,1-.12-.45c0-.12,0-.23,0-.34q.18-2.75,3.69-4.66a14.49,14.49,0,0,1,3-1.26,10,10,0,0,1,2.52-.4h.36a2.3,2.3,0,0,1,2,1.09,6.71,6.71,0,0,1,.48,2.41A8.36,8.36,0,0,0,133.81,167.52Z"/><path class="cls-8" d="M232.09,167.1l-.06,0-.07,0a.11.11,0,0,0-.07,0l-1.46.36c-.41.07-.82.13-1.24.16a3.84,3.84,0,0,1-.83,0,5,5,0,0,1-.77-.13l-.25-.07-.57-.21-.55-.29a6.87,6.87,0,0,1-2.16-2.14l0,.1-.08-.12-1.91-2.64-.47-.31c-.21-.15-.4-.3-.59-.45a8.5,8.5,0,0,1-1.17-1.15l-.17-.24.13,0a1.25,1.25,0,0,1,.09.25h0a2.72,2.72,0,0,0-.11-.25l4.3-2.21.54-.29a5.46,5.46,0,0,0,.49-.25l.47-.25h0l.42-.24,2.43-1.65a3.64,3.64,0,0,0,1.63-3.26c0-1.08-.67-2.29-2-3.62a5.51,5.51,0,0,0-2.16-.81,4.79,4.79,0,0,0-2.14.06,4.42,4.42,0,0,0-1.91,1.83,11.6,11.6,0,0,1-2.23,2.47c-.35.28-.7.55-1.05.79.07-1.11.17-2.13.31-3.06a23.25,23.25,0,0,1,.91-3.58c.27-.85.6-1.8,1-2.86l.43,2.3,2.64-3.47a12.1,12.1,0,0,0-.4,1.73,16.35,16.35,0,0,0-.19,2.57l.06,1.1a6,6,0,0,1,4.26-.09,5.53,5.53,0,0,1,2,1.38A5.34,5.34,0,0,1,231,151.5a4,4,0,0,1-.66,3.49c-.72.89-.95,2.46-.69,4.73.2.66.43,1.35.67,2.07.18.53.36,1.08.56,1.64C231.39,165,231.81,166.23,232.09,167.1ZM75.41,163.63V165c-.12.29-.23.59-.34.89-.31.85-.59,1.68-.84,2.51l-2.14-1.23L52.2,155.67c-1-.57-1.43-1.14-1.44-1.69l0,0,0-3.79,0,0,0-1.4a.5.5,0,0,0,.07.25,2,2,0,0,0,.63.83,4.56,4.56,0,0,0,.67.52l22.33,12.85A6.8,6.8,0,0,0,75.41,163.63Zm-1.18-4.89A20.89,20.89,0,0,1,65,156.16q-4.53-2.61-4.53-6.26a6.07,6.07,0,0,1,2-4.4c.13.48.26,1,.38,1.43a15.89,15.89,0,0,0,4.37,7.48,11.85,11.85,0,0,0,2.9,2Q72.21,157.53,74.23,158.74Zm35.75-67-.85-.54a8.11,8.11,0,0,0,1.05.29q.66.09.81-.45a3.28,3.28,0,0,0-1.1-.72,7.9,7.9,0,0,0-1.26-.4.82.82,0,0,0-.22,0h0a4,4,0,0,0-.49,0,22,22,0,0,1,2-1.94c.74-.6,1.5-1.17,2.3-1.71l.07-.06.1.15a4.28,4.28,0,0,0-1,1.42,2.81,2.81,0,0,0,.42,3.49l.4.63-.69.67-.13.14-.39-.3C110.74,92.23,110.4,92,110,91.76Zm.5,1.83a3.44,3.44,0,0,0-.27.27,19,19,0,0,0-2.79-1.18,3.14,3.14,0,0,1,1.46.14,5.11,5.11,0,0,1,.88.34A7.67,7.67,0,0,1,110.48,93.59Zm-1.31,2a8.27,8.27,0,0,0-.83-.59,5.11,5.11,0,0,0-.7-.38,2.63,2.63,0,0,0-.35-.15l.37.1h0a9.3,9.3,0,0,1,4.14,2.07.27.27,0,0,0,.08.07c0,.07,0,.13.07.2a7.12,7.12,0,0,1,.3,1.08,19.13,19.13,0,0,1,.4,4.46c0,.53,0,1.11,0,1.73,0,1.09-.06,2.32-.1,3.69q-.09,3.27-.32,6.19c0,.33,0,.64-.08,1,0,.07,0,.14,0,.21a10.58,10.58,0,0,1-1.89-.71,4.7,4.7,0,0,0,.86-2c.36-2.15.72-4.26,1.1-6.33a13.1,13.1,0,0,0-1-8l.06,0a1.12,1.12,0,0,0,.2-.18.66.66,0,0,0,.07-.65,7.14,7.14,0,0,0-2.16-1.65ZM97.44,144.19a3,3,0,0,0,.07-.61c0-1.63-.38-2.73-1.14-3.31l.85-.61.45-.31a2.17,2.17,0,0,1,.29.24,2.92,2.92,0,0,1,.86,2.1,2.89,2.89,0,0,1-.86,2.07A3.49,3.49,0,0,1,97.44,144.19Zm53.44,58.68,36.62-21.16v5.76l-3.05,1.77-33.57,19.37Zm7.62-26a2.07,2.07,0,0,0-1.25.61,2.61,2.61,0,0,0-.22.24,5,5,0,0,1-1.08-2.81v-.36a4.25,4.25,0,0,1,.83-2.2,2.29,2.29,0,0,1,1.84-1.24h.43a4.17,4.17,0,0,0-.54,1.7,2.64,2.64,0,0,0,0,.29v3.76Zm-36.95-7.18a2.43,2.43,0,0,0,.47,1.07l-.37-.09-.11,0Zm3.8,5.64v-2.4a1.36,1.36,0,0,0-.15-.43A2,2,0,0,0,125,172a5.28,5.28,0,0,1,1.69.62l.07,0a1.94,1.94,0,0,1,.74.93,1,1,0,0,1,.13.42Z"/><path class="cls-9" d="M216,197.31h-2a2.17,2.17,0,0,1-2.45-2.46v-4.23a2.14,2.14,0,0,0,2.45,2.3h28a2.15,2.15,0,0,0,2.46-2.3v4.23a2.17,2.17,0,0,1-2.46,2.46Zm-149.69,1s0,.08,0,.12v-.16A.06.06,0,0,1,66.32,198.32ZM50.78,148.58a.5.5,0,0,0,0,.12v-.17S50.77,148.56,50.78,148.58Zm167.11,39.33c1.38.11,2.75.25,4.12.42a17.42,17.42,0,0,0,13.89-4.23,12.9,12.9,0,0,0,4.07-6.49c.14-.52.27-1.05.37-1.57a6.27,6.27,0,0,1,2.42,4.79c0,2.45-1.53,4.54-4.54,6.28a21.63,21.63,0,0,1-10.94,2.61,26.53,26.53,0,0,1-5.81-.63A20,20,0,0,1,217.89,187.91ZM83.23,106.53l-.19,1-1.29.36-.84-.55,1.19-1.75Zm17.72,56a4.89,4.89,0,0,0-.22,1.35,3,3,0,0,0,.8,2.07,14.1,14.1,0,0,1-1.61,6.73c-.06.11-.11.22-.17.32s-.14.28-.2.42a35.5,35.5,0,0,0-1.66,4.05l-.21.63c-.73,2.09-1.46,4.17-2.21,6.24l-.12.33c-.07.2-.13.4-.2.59a22.28,22.28,0,0,1-3.86-.7l-.89-5.62c-.39-3.35-.59-5.05-.59-5.11a54.89,54.89,0,0,1,2.88-17.55q1.17,1.08,4.29,1a49,49,0,0,1,3.28,4C100.5,161.64,100.73,162.05,101,162.49Zm26.72-21,0-5.71v0l.1-.1a5.19,5.19,0,0,0,1.1-2,9.62,9.62,0,0,1,.47-1.08,3.48,3.48,0,0,1,.59-.92,3.59,3.59,0,0,1,2.66-.86,20.08,20.08,0,0,1,3.06.52v5.76l-.37-.08a16.81,16.81,0,0,0-2.69-.46,3.55,3.55,0,0,0-2.66.88,4.4,4.4,0,0,0-.79,1.32c-.09.21-.18.43-.27.68a5.19,5.19,0,0,1-1.1,2Zm23,4.26V140l17-9.79v5.77Zm35.24-20.36a13.5,13.5,0,0,0-.08-3.77.86.86,0,0,0,.16-.18c.22-.36.43-.69.61-1s.33-.65.67-1.27v5.41Zm-10,5.77v-4.52a1.9,1.9,0,0,0,.43-.21c.08-.05.45-.34,1.09-.86a10.06,10.06,0,0,0,.15,2.19c0,.06,0,.12,0,.18.18.91.53,1.45,1,1.65Zm-4.18-10.53,0,5.69a2.42,2.42,0,0,0-.22-.63A2.52,2.52,0,0,0,169,124.6a14.27,14.27,0,0,0-5.54,1.26l-1.12.57a7.1,7.1,0,0,0-.86.56,3,3,0,0,1-.47-.23,2.91,2.91,0,0,1-1.22-2.74,1.39,1.39,0,0,1,.05-.32q.19-2.08,3.62-3.6a14.7,14.7,0,0,1,5.54-1.21,2.54,2.54,0,0,1,2.41,1A3.67,3.67,0,0,1,171.66,120.6Z"/><path class="cls-10" d="M219.83,160a2.72,2.72,0,0,1,.11.25h0A1.25,1.25,0,0,0,219.83,160Zm1.21,1.44-31,17.89-9.48-5.47c-.71-.22-1.6-.48-2.68-.78a28.38,28.38,0,0,0-4.61-1.06,2.45,2.45,0,0,0-1.67.4,1.22,1.22,0,0,0-.28.52,4.33,4.33,0,0,0-.12,1.13,1.06,1.06,0,0,0,0,.24.76.76,0,0,0,0,.15,3.17,3.17,0,0,0,.7,2.48c.12.24.23.44.31.61a1.43,1.43,0,0,1-1,1.85l0,0a6.56,6.56,0,0,1-3.47.79,6.82,6.82,0,0,1-2.5-.65,16.52,16.52,0,0,1-3-1.78,13.46,13.46,0,0,1-2.63-2.45,5,5,0,0,1-1.06-2.5,4.17,4.17,0,0,1,.54-1.7l.25-.4h0l.07-.09a.76.76,0,0,1,.11-.14l1.15-.88.14,0h.1l.18,0h.12l.58,0,1.24.05h.74a5.35,5.35,0,0,0,.9-.08,2.46,2.46,0,0,0,.48-.16,2.26,2.26,0,0,0,1.17-2.32v-1.39l-12.2-7.07,7.09-4.09,4.32-2.48,4.91-2.84a3.82,3.82,0,0,0-.07-.72l.07,0a2.38,2.38,0,0,0-1.22-2.39,9,9,0,0,0-2.68-.45,8.65,8.65,0,0,1-2.23-.34,1.57,1.57,0,0,1-.45-.22,2.48,2.48,0,0,1-1.14-1.83,2.66,2.66,0,0,1-.07-.45c.16-1.41,1.39-2.61,3.67-3.6a14.54,14.54,0,0,1,5.53-1.24,2.56,2.56,0,0,1,2.41,1,7.86,7.86,0,0,1,.57,2.25,3.86,3.86,0,0,0,1.1,2.27,5,5,0,0,0,2.77.95l11.39-6.55,4,2.33,5.61,3.24,5.7,3.29.84.48a5.19,5.19,0,0,0-1.36,1.67,43.25,43.25,0,0,0-4.39,12.08,11.47,11.47,0,0,1-.92,2.16c-.24.47-.62,1.17-1.15,2.1a8.75,8.75,0,0,0-1.31,4.43q.57-.28.75-.09a.43.43,0,0,1,0,.07,2.34,2.34,0,0,1,0,.54,1.58,1.58,0,0,0,.09.67.26.26,0,0,0,.15.16.75.75,0,0,0,.5,0,2.79,2.79,0,0,0,.54-1c.12-.3.21-.55.27-.74a.06.06,0,0,0,0-.05,1.63,1.63,0,0,1,.14-.31,4.22,4.22,0,0,1-.25,1.78c-.1.73.06,1.11.5,1.12H200l.36-.07a8,8,0,0,0,.77-2.38,5.52,5.52,0,0,1,.9-2.32c0,.15,0,.33-.07.54-.06.38-.14.85-.25,1.42-.16.84-.27,1.49-.31,2,0,.28.11.46.43.54h0a.47.47,0,0,0,.56-.3,17.69,17.69,0,0,0,.86-2.43,9.11,9.11,0,0,1,1-2.38,1.06,1.06,0,0,1,.79.56s0,0,0,0l.2.52c.06.15.12.32.18.5a2.92,2.92,0,0,0,.5.94,1.18,1.18,0,0,0,1,.34,12,12,0,0,0,.05-1.46,13.27,13.27,0,0,0-.93-4.35c.44.78,1.35,1.17,2.75,1.17q1.86,0,9.52-3.76c.48-.24.93-.48,1.36-.71l.17.24A8.5,8.5,0,0,0,221,161.43ZM74.46,192.88a4.27,4.27,0,0,0,1,1,17.16,17.16,0,0,0,2,3.62,5.56,5.56,0,0,0-.18,1.41,6.54,6.54,0,0,0,3,5.25l.12.25c.77,1.35,1.54,2,2.32,2a7,7,0,0,0,1.43-.13,23.75,23.75,0,0,0,8.65,1.5,21.61,21.61,0,0,0,10.94-2.61q4.53-2.61,4.55-6.28v0l5.64-4.39,4.11,2.37a7.48,7.48,0,0,1,.72.5,1.77,1.77,0,0,1,.67,1l0,0a.5.5,0,0,1,0,.38v.1a1.51,1.51,0,0,1-.3.49l-.55.49-22.7,13.15a7.9,7.9,0,0,1-.71.36l-.71.26a6.25,6.25,0,0,1-.72.17l-.78,0-.64,0h-.08a6.05,6.05,0,0,1-2.21-.78L67.69,200.08a3.38,3.38,0,0,1-.68-.52,1.86,1.86,0,0,1-.63-.83.68.68,0,0,1-.07-.26v0s0-.08,0-.12a.9.9,0,0,1,.06-.22,2,2,0,0,1,.68-.88l0,0c.07-.06,2-1.17,5.74-3.36C73.33,193.54,73.88,193.23,74.46,192.88ZM61.62,142.43l-.17,0-.09-.66a47.1,47.1,0,0,1-.25-9.72q.39-4.8,1.29-10.45A52.26,52.26,0,0,1,65.23,111a23.9,23.9,0,0,1,4.37-7.54,17.54,17.54,0,0,1,4-3.37,2.51,2.51,0,0,0,.81,1.57l1.21,1.92a6.84,6.84,0,0,0-2.19,1.74A23.09,23.09,0,0,0,71,108.51a26.66,26.66,0,0,0-3.8,7.94A65.41,65.41,0,0,0,66.13,124a72.68,72.68,0,0,0-.36,7.93,42.82,42.82,0,0,0,.86,6.73c.14.73.3,1.49.47,2.3l.09.44c0,.21.09.42.14.63q-.9.15-1.8.36a9,9,0,0,1-3.54.11Zm44.57-21.21q-.73-.82-5,.1l3.8-2.2a3.85,3.85,0,0,0,2.09,1.75Zm1.77,4a25.63,25.63,0,0,0,.76,2.59,18.66,18.66,0,0,0,1.35,3,4.45,4.45,0,0,0-2.59-.75,6.73,6.73,0,0,0-1.63.09L102.08,128l1.94-.74,1.55-.58.22-.09c.3,0,.56-.33.77-1l1.08-.33,0,0,.2,0Zm3.63,8,.29.42-.27-.15A2.13,2.13,0,0,0,111.59,133.24Zm94.17,29a3.61,3.61,0,0,0,.13.64,15.69,15.69,0,0,0-.81-1.65,6.44,6.44,0,0,1,.87-2.93v0s0,0,0,0l-.18,1.12v.07a.35.35,0,0,0,0,.14A13.36,13.36,0,0,0,205.76,162.24Zm10.3-9.4,1.17.68c-.33.2-.65.38-1,.55-.65.36-1.83,1-3.56,1.82a.08.08,0,0,0,0-.07.78.78,0,0,1,0-.14l.11-.53c.27-1.33.56-2.54.88-3.64ZM204.7,161l-.06,0h0Zm-.9-.39-.24-.07.19,0Z"/><path class="cls-11" d="M190.05,180.11l31.58-18.23.47.31,1.91,2.64.08.12a7.94,7.94,0,0,0,.45,1l0,0-24.14,14-4.5,2.6-5.82,3.35Zm-86.18,33.54-2.17,1.26-2.83,1.63-.72.42-2.3,1.33a5.36,5.36,0,0,1-5.74,0l-2.47-1.42L67.75,205.41c-.94-.57-1.42-1.13-1.44-1.69l0,0,0-3.78,0,0,0-1.4a.68.68,0,0,0,.07.26,1.86,1.86,0,0,0,.63.83,3.38,3.38,0,0,0,.68.52L90,212.93a6.05,6.05,0,0,0,2.21.78h.08l.64,0,.78,0a6.25,6.25,0,0,0,.72-.17l.71-.26a7.9,7.9,0,0,0,.71-.36l22.7-13.15.55-.49a1.51,1.51,0,0,0,.3-.49v4.77c.2.63-.27,1.26-1.39,1.91l-2.47,1.43L113.72,208l-4.14,2.38-2.32,1.34-1.38.8ZM121.73,97.86l-1.51.7-1.71-1.85.63-.92c.61.36,1.23.69,1.87,1a3.38,3.38,0,0,0,.72.24Zm-54.4,44.19c0-.21-.1-.42-.14-.63L67.1,141c-.17-.81-.33-1.57-.47-2.3a42.82,42.82,0,0,1-.86-6.73,72.68,72.68,0,0,1,.36-7.93,65.41,65.41,0,0,1,1.11-7.57,26.66,26.66,0,0,1,3.8-7.94,23.09,23.09,0,0,1,2.37-3.21,6.84,6.84,0,0,1,2.19-1.74l3.79,6,.48-.72a39.66,39.66,0,0,1,2.2,3.94L83,114q.27-1,.72-2.82a2.4,2.4,0,0,0,.12-.38,11.3,11.3,0,0,0,.41-3.41l.51.42-.49-4.35,1.12.18a5.58,5.58,0,0,0,.64.08,31,31,0,0,1,0,3.46c0,.78-.09,1.53-.19,2.27a44.16,44.16,0,0,1-1.68,7.27c-.49,1.59-.92,2.87-1.3,3.84-.85-.47-1.71-1-2.58-1.61a4.46,4.46,0,0,1-1.59-2.41q-.43-1.69-.66-2.52a11.77,11.77,0,0,0-.87-2.48q-2.32-3-4.48-1.55a5.06,5.06,0,0,0-.57.45,7.93,7.93,0,0,0-2.68,4.34,10.72,10.72,0,0,0,0,3.16c.17.75.33,1.48.5,2.2a10.47,10.47,0,0,0,1.39,3.45,12.24,12.24,0,0,0,1.22,1.64,12.89,12.89,0,0,0,3.58,2.74,18.46,18.46,0,0,0,4,1.49l.12,0q0,.39.06.78a12.43,12.43,0,0,0,1.07,2.54l.17.32a6.59,6.59,0,0,1,.07.9c-.06.6-.15,1.21-.27,1.82q-.27,1.38-.63,2.7l0,.13a4.15,4.15,0,0,1-1.43,2.12l-.32.22-.09.05a6.79,6.79,0,0,1-.67.32,6,6,0,0,1-2.62.47,3.86,3.86,0,0,1-.47,0l-2.65-.11-.27-.05a20.42,20.42,0,0,0-3.31.14l-1.43.25Zm38.52-11.86a2,2,0,0,0-1,.4,2.24,2.24,0,0,1-.6.36,11.85,11.85,0,0,1-2.32.52l-.18,0a7.71,7.71,0,0,0-1.94.54l-1.12-.65c-1-.57-1.43-1.13-1.44-1.69l0,0v-.17h.07l1.37-.39,1.65-.47c.27-.07.85-.28,1.73-.61Zm6,3.47c.62.87,1.25,1.72,1.91,2.56l3,3.91c.4.54.79,1.07,1.17,1.61l-5.88-3.38-.36.2c0-.07,0-.13,0-.18q-.24-.66-.48-1.23c.21-1.15.36-2.18.43-3.07a3.66,3.66,0,0,0,0-.57ZM135.25,137c.61.48,1.19.94,1.72,1.4l-6.38,3.68c-.16-.43-.34-.84-.53-1.26-.31-.7-.62-1.39-.95-2.08a4.4,4.4,0,0,1,.79-1.32,3.55,3.55,0,0,1,2.66-.88A16.81,16.81,0,0,1,135.25,137Z"/><path class="cls-12" d="M249.83,118.39a1.52,1.52,0,0,1-.31.47l-.54.5-3.5,2c0-.13,0-.26,0-.4a5,5,0,0,0-2-4,6.64,6.64,0,0,0-4.3-1.4c-.46,0-.89,0-1.28,0a10,10,0,0,0-3.74-3.37,21.27,21.27,0,0,0-10.94-2.59,24.52,24.52,0,0,0-6.73.84c.11-1.64.27-3.28.49-4.93l3.38-2a5.47,5.47,0,0,1,5.78,0l22.33,12.88a7.48,7.48,0,0,1,.72.49,1.8,1.8,0,0,1,.68,1s0,0,0,0a.5.5,0,0,1,0,.38v.11ZM226.61,131.9l-.2,0,.2-.21c0,.05,0,.11,0,.16ZM111.17,162a2.48,2.48,0,0,1-1-.61,16,16,0,0,0-1.4-1.24,9.4,9.4,0,0,0-1.26-.95,4.26,4.26,0,0,0-.61-.27,3.09,3.09,0,0,0-.72-.18h-.08a1.88,1.88,0,0,0-.68-.59q-.57-.32-1.41-.72l.1,0-.92-2.21h-.06a9.46,9.46,0,0,1,1-2.1,10.85,10.85,0,0,1,3.38-3.37v.06a4.9,4.9,0,0,0,.52-.24h0a.16.16,0,0,1,0,.09l0,.93v.18a8.5,8.5,0,0,0,.63,2.88,33.7,33.7,0,0,1,1.49,4.09c.33,1.16.66,2.53,1,4.12Zm5-14.34a9.81,9.81,0,0,0,.78-.75,1.74,1.74,0,0,0,0-1.08,3.77,3.77,0,0,0-.45-.9c-.21-.25-.4-.49-.56-.72a.53.53,0,0,1-.09-.11,10.13,10.13,0,0,1-.65-.92,1.48,1.48,0,0,0-1.26-.7l-.77,0a2.08,2.08,0,0,1-.74-.16,1.5,1.5,0,0,0-.61.18c0-.16,0-.32,0-.47a2.87,2.87,0,0,1-.12-1.76,4.9,4.9,0,0,0,.07-1.62l.36-.2,5.88,3.38,4.41,2.54a3.3,3.3,0,0,1,.22.81v.09a2.05,2.05,0,0,1-1.17,1.95l-.1.05a6.81,6.81,0,0,1-2.44.16h-.32a5.75,5.75,0,0,0-2.18.15ZM79,157.42c-.51.9-1,1.8-1.45,2.73l-1.64-1Zm16-6.94c.22-.53.48-1.12.76-1.77a7.92,7.92,0,0,0,.91,1,4.54,4.54,0,0,1-1.09.59Zm21.58,3.23a6.41,6.41,0,0,0,1.47,1.1,9.78,9.78,0,0,0,4.63,1.22h.14a4.36,4.36,0,0,0,3-.9,5.6,5.6,0,0,0,1.13-2,6.63,6.63,0,0,1,1-2l.18-.17a3.65,3.65,0,0,1,2.48-.73,10.26,10.26,0,0,1,1.74.23l1.32.28,5.75,3.32,6.52,3.76,2.29,1.32-14.39,8.32a8.36,8.36,0,0,1-.19-1.52,6.71,6.71,0,0,0-.48-2.41,2.3,2.3,0,0,0-2-1.09,3.57,3.57,0,0,0-.18-.53,2.44,2.44,0,0,0-2.23-1.13h-.18a9.74,9.74,0,0,0-2.52.43,14.54,14.54,0,0,0-1.65.56l-.06,0a10.29,10.29,0,0,0-1.33.66A6.78,6.78,0,0,0,119.5,166a5.06,5.06,0,0,0-.52-1.35c-.27-.69-.58-1.42-.94-2.18-.53-1.16-1.16-2.4-1.91-3.72q-2.66-4.43-3.83-6.71c-.26-.55-.24-1,0-1.21a2.19,2.19,0,0,1,.21-.23,16.56,16.56,0,0,1,2.07-1.77l1.06-.86a2.74,2.74,0,0,0-.52,1.8v.5A4.61,4.61,0,0,0,116.55,153.71Zm-12.08,22a5.56,5.56,0,0,0,1.55-5q-.22-1.07-.39-2.1A29.81,29.81,0,0,0,110.3,170a21.82,21.82,0,0,0,2.67.47c.52.06,1,.1,1.56.11h.25a7.37,7.37,0,0,0,.94,0,5.51,5.51,0,0,0,.63-.07,4.17,4.17,0,0,0,1.8-.85,5.47,5.47,0,0,0,.68-.79l.38-.58.08-.13a2.29,2.29,0,0,0,1,1.9q.23.14.51.27a5.43,5.43,0,0,0,.78.27l.11,0,.37.09.19,0,.13,0,.9.21.48.16.45.18.31.17a1.87,1.87,0,0,1,.47.46,2,2,0,0,1,.25.48l-13.15,7.57Zm100.69-52-1.56-.91c-.06-1.26-.11-2.52-.14-3.78,0-1.76,0-3.52.07-5.29.25,2.3.57,4.6.94,6.89A31.45,31.45,0,0,0,205.16,123.73Z"/><path class="cls-13" d="M246.61,126.09a4.59,4.59,0,0,1-.63-1,14.37,14.37,0,0,1-.5-3.7l3.5-2,.54-.5a1.52,1.52,0,0,0,.31-.47l0,4.75c.19.63-.27,1.27-1.4,1.91ZM122.32,152.48a1.76,1.76,0,0,1-.93.93,6.37,6.37,0,0,1-2.54.19,10,10,0,0,0-1.85,0l-.45.09a4.61,4.61,0,0,1-1.39-3.42v-.23a2.14,2.14,0,0,1,1.19-2.05,6,6,0,0,1,2.18-.18h.32a6.23,6.23,0,0,0,2.54-.18l.07,0a2.08,2.08,0,0,0,1.1-1.91v5.8A3.21,3.21,0,0,1,122.32,152.48Zm8.62,10h-.18a10,10,0,0,0-2.52.4,14.49,14.49,0,0,0-3,1.26q-3.51,1.92-3.69,4.66v.25a3.82,3.82,0,0,0,0,.61v0l-.38.29-.41.38q-.29-.13-.51-.27a2.29,2.29,0,0,1-1-1.9,2.49,2.49,0,0,0,.3-1.84,7.05,7.05,0,0,1,3.38-3.3,11.59,11.59,0,0,1,1.54-.76,13.88,13.88,0,0,1,1.5-.5,10,10,0,0,1,2.52-.41h.13A2.48,2.48,0,0,1,130.94,162.49Zm77.15-31.78-4.16-2.39c-.14-1.84-.25-3.67-.33-5.5l1.56.91a29.64,29.64,0,0,0,2.42,6C207.76,130.06,207.93,130.38,208.09,130.71Zm-59.44,31.16-13,7.5a2.27,2.27,0,0,1-1.53-1,2.24,2.24,0,0,1-.2-.41l14.72-8.52Zm15,7.72a3.49,3.49,0,0,0,.08-.6v.6Zm-51.6,16.76v-5.74l13.3-7.68v2.4l-10.62,6.13-.45.25v3.35Z"/><path class="cls-14" d="M216.28,118.58q-.06-2,0-4c0-1.39.08-2.79.18-4.18a24.52,24.52,0,0,1,6.73-.84,21.27,21.27,0,0,1,10.94,2.59,10,10,0,0,1,3.74,3.37c-1,0-1.76,0-2.3-.07a5.09,5.09,0,0,1-2.73-1.32l0,0a4,4,0,0,1-.5-.69,7.83,7.83,0,0,0-1.28-1.49,3.48,3.48,0,0,0-2.81-.9,4.82,4.82,0,0,0-4.28,2.9,10,10,0,0,0-.31,1.15.65.65,0,0,1,0,.11c0,.07,0,.15,0,.22a1.63,1.63,0,0,0-.14.72l-1.29.12a4.77,4.77,0,0,0-.65.2v0a1.92,1.92,0,0,0-.31.11C219.22,117.3,217.58,118,216.28,118.58Zm-139,42c-.7,1.44-1.33,2.91-1.91,4.4v-5.5Zm23.48,19.31a15.37,15.37,0,0,1,2.86-3.35c.17-.16.33-.31.48-.47l7.91,4.57v5.74Z"/><path class="cls-15" d="M86.06,107.14a31,31,0,0,0,0-3.46,3.32,3.32,0,0,0,.66,0,1.73,1.73,0,0,0,1.06-.79,5.43,5.43,0,0,1,.9-1.71,3.45,3.45,0,0,0,.77-1.76c1,0,1.36-.44,1.12-1.28A7.48,7.48,0,0,0,90.06,97c-.24-.51-.39-.85-.45-1A8,8,0,0,0,90,94.63l.74-.28h0l.12,0,.15,0c0,.08.08.16.13.24a2.16,2.16,0,0,0,2,1,28,28,0,0,0,4.64-1.21l2.13-.69.3-.1h0a5,5,0,0,1,0,.67l-.09,1.11a7.62,7.62,0,0,1-.2.79l-.18.49a.86.86,0,0,1-.36.43q-3.27,1.86-6.64,3.53a20.8,20.8,0,0,0-2.68,1.67A13.21,13.21,0,0,0,86.06,107.14Zm101.56-19-4.34-3.38.34-1.22a3.18,3.18,0,0,0,.26.77,3.82,3.82,0,0,0,.63.85q1.49,1.55,3.11,3Zm-48.15,16-3.09,1.78q-3.31-3.91-6.47-8c.12-.82.23-1.69.35-2.6a16.13,16.13,0,0,0-.26-7.13,36.91,36.91,0,0,1,1.7,3.73q1.47,3.6,2.1,4.73A46.56,46.56,0,0,0,139.47,104.13Zm-13-20.79-.28-.18,0-.13C126.25,83.13,126.35,83.24,126.45,83.34Zm-6.23,15.22.41,2.43c-.9-.54-1.69-1.06-2.37-1.55a10.32,10.32,0,0,1-1-.9l1.24-1.83Zm2.93,1.94-1.42-2.64V97a3.28,3.28,0,0,0,1,0l.28,0,.68.56a9.06,9.06,0,0,1-.24,1.62C123.38,99.69,123.27,100.12,123.15,100.5ZM108.34,95v.13L107,94.37l.26.06a2.63,2.63,0,0,1,.35.15A5.11,5.11,0,0,1,108.34,95Zm-.9,25.7-.18.14-.17.07a3.85,3.85,0,0,1-2.09-1.75c-.08-.13-.15-.27-.22-.41a12.26,12.26,0,0,1-1-4.53c0-1.27-.11-2.53-.2-3.78-.17-2.55-.27-5.11-.32-7.68v-2.47a4.6,4.6,0,0,0,1.77.67,1,1,0,0,0,.07-1,1.64,1.64,0,0,0-.45-.56c-.17-.16-.42-.37-.77-.66a1.94,1.94,0,0,1-.54-.7,7,7,0,0,1,.59-1l.63-1a6.49,6.49,0,0,1,3.26.52l.5.25c-.07,1.92-.23,4.39-.5,7.38q-.9,10.85-.11,12.6a4,4,0,0,0,1.55,1.31,4.08,4.08,0,0,0,1,.36Zm8.93-4.57,0,0,.42.09,1.35.07.14,0h.2l-3.85,2.22-.15.09h-.16a3.52,3.52,0,0,1-.59-.52l0,0a6.88,6.88,0,0,0,2.46-1.67A2,2,0,0,1,116.37,116.09Zm-34.3-3.26a39.66,39.66,0,0,0-2.2-3.94l1-1.52.84.55Zm1.16-6.3,1,.82a11.3,11.3,0,0,1-.41,3.41,2.4,2.4,0,0,1-.12.38L83,107.56Zm8.5,80.74-.44-2.75a22.28,22.28,0,0,0,3.86.7h0l-.7,2.25A22.8,22.8,0,0,1,91.73,187.27Zm89.39-105.4,1.5,2.33-1.7-1.33a1.08,1.08,0,0,0,.15-.38A2.68,2.68,0,0,0,181.12,81.87Zm14.23,114.68-3.67,2.1-.06-.1-2-2.84-.14.25a5.19,5.19,0,0,1,.16-1.38,12.35,12.35,0,0,1,1.51-3.28l.65-1.27c.1.18.2.37.29.57C193.53,193.37,194.61,195.35,195.35,196.55Zm-73.7,8.1c0-.24.07-.49.1-.75.45-3.49.72-6.47.79-8.93v-.88c0-.66,0-1.28,0-1.86l28.36,16.38,33.57-19.37c-.07.58-.15,1.15-.23,1.7v0c-.21,1.4-.45,2.7-.72,3.92a8,8,0,0,1-1.31,2.79c-.39.59-1,1.42-1.89,2.5-.26.33-.63.85-1.13,1.57a4.53,4.53,0,0,1-1.39,1.33l-.19.12a7.47,7.47,0,0,0-1.7.22,16.35,16.35,0,0,0-4.14,1.17,3,3,0,0,0-1.42,1.24l0,0-.63-.1q-5-.69-7.93.88a11.6,11.6,0,0,0-1.87.81c-2.1,1.15-3.16,2.56-3.19,4.21l.27,1.55.88,4.81-4.15,2.37a4.23,4.23,0,0,1-4.5,0Zm36.84-25.59a13.58,13.58,0,0,1-1.46-1.34,2.61,2.61,0,0,1,.22-.24,2.07,2.07,0,0,1,1.25-.61v1.67c0,.13,0,.27,0,.4Zm8.8,27.54a15.43,15.43,0,0,1,2.61.24l.2,0a10.79,10.79,0,0,1,3.54,1.33,6.5,6.5,0,0,1,1.79,1.49,3.57,3.57,0,0,1,.58,1.06,3.24,3.24,0,0,1,.17,1.12q-.06,2.16-2.75,3.65a14.69,14.69,0,0,1-11.85.37,7.85,7.85,0,0,1-1-.51q-2.59-1.53-2.52-3.69t2.74-3.65A13.29,13.29,0,0,1,167.29,206.6Z"/><path class="cls-16" d="M216.28,118.58a16.45,16.45,0,0,0-2.64,1.48,6,6,0,0,0-2.39,3.57l-.06.3-.07.22a7.77,7.77,0,0,0-.41,3c0,.27.07.54.11.81a2.6,2.6,0,0,1-.37,1c-.13-.77-.24-1.55-.34-2.34-.14-1.18-.23-2.37-.29-3.58,0-.8-.06-1.6-.06-2.42a46,46,0,0,1,.63-7.18c.11-.67.23-1.36.37-2.07s.29-1.68.41-2.51a51.19,51.19,0,0,0,.55-7.35,16,16,0,0,0-.3-2.42,24.17,24.17,0,0,0,5.11-4,7.76,7.76,0,0,0,1.12-1.45,17.43,17.43,0,0,1,.08,2.61,80.61,80.61,0,0,1-.76,9c0,.12,0,.22-.05.33-.22,1.65-.38,3.29-.49,4.93-.1,1.39-.16,2.79-.18,4.18S216.24,117.25,216.28,118.58Zm.95,34.94-1.17-.68c0-.4,0-.77,0-1.14a31.44,31.44,0,0,0-.19-3.55q1.35-.78,4-2.23a23.25,23.25,0,0,0-.91,3.58c-.14.93-.24,1.95-.31,3.06C218.16,152.92,217.69,153.23,217.23,153.52ZM199,218.12v0l-.75.82-.56.64a2.92,2.92,0,0,0-.38.41,2.93,2.93,0,0,0,1.4,2,2,2,0,0,0,2.34,0,13.74,13.74,0,0,0,1-1,23.5,23.5,0,0,0,1.8-2.39c.38-.57.72-1.08,1-1.53.75-1.1,1.26-1.81,1.53-2.14a24.73,24.73,0,0,0,1.64-2.57,2.6,2.6,0,0,0,.09-2.76h0a4.87,4.87,0,0,1,2.1,1,1.92,1.92,0,0,0-.29,1.1q0,.21,0,.45a4.27,4.27,0,0,1-1,2.25l-1.69,2.14-.27.52c-.13.27-.31.64-.52,1.12a16.87,16.87,0,0,1-1.62,2.66,9.73,9.73,0,0,1-2.79,2.57,7.61,7.61,0,0,1-3.85,1,8.32,8.32,0,0,1-2.73-.46,9.7,9.7,0,0,1-3.39-2.18,2.88,2.88,0,0,1,.36-.31,9.84,9.84,0,0,1,2.23-1.15,6.62,6.62,0,0,0,2.11-1.19,4.69,4.69,0,0,1,2.19-1.08Zm-71.38,7a7,7,0,0,1-.52,1.44,3.38,3.38,0,0,1-1.89,2,2.78,2.78,0,0,1-1,.16,1.54,1.54,0,0,1-.82-.35,7.06,7.06,0,0,1-.82-.78c-.87-1.05-1.59-1.87-2.16-2.47a10.43,10.43,0,0,0-6.75-3.58c-.23,0-.47,0-.7,0a3.17,3.17,0,0,0-.43,0,7.23,7.23,0,0,1,.5-.88c.24-.33.63-.82,1.17-1.46a2.45,2.45,0,0,1,.81-.64,1.53,1.53,0,0,1,.45-.13.93.93,0,0,1,.29.05,8.21,8.21,0,0,1,4.91,3.89l.09.14c.21.28.67.92,1.37,1.91v0a.3.3,0,0,1,.07.11h0l.23.31c.49.69.92,1.25,1.28,1.67a6.56,6.56,0,0,0-.27-.63l-.23-.47a7.67,7.67,0,0,1-.47-1.11l.07,0a5.47,5.47,0,0,1,1.57-.18,5.19,5.19,0,0,1,1.2.14,4.23,4.23,0,0,1,.7.18A3.39,3.39,0,0,1,127.65,225.15ZM156,100.77,152.92,99a16.9,16.9,0,0,0,3-1.75l1.4-1.12a26.87,26.87,0,0,0,2.05-1.91,20,20,0,0,0,5.15-11.39,31.09,31.09,0,0,1,2.77-9.26,7.69,7.69,0,0,1,1-1.21,7.7,7.7,0,0,0,.45,1.89c.26.66.44,1.12.56,1.4-.08.28-.16.57-.25.87q-.9,3.36-1.28,4.87t-1.56,5.13a33.48,33.48,0,0,1-2.4,6.25,30.17,30.17,0,0,1-6,6.44Zm76.33,68.47a17.44,17.44,0,0,1,.28,2.68c0,.17,0,.35,0,.52a7.81,7.81,0,0,1-1.57,4.47q-3.16,4.2-11.75,4.19c-2.28,0-4.77-.09-7.49-.28h-.18c-1.47-.1-3-.23-4.59-.38-2.48-.25-4.69-.42-6.63-.53l24.14-14a6.86,6.86,0,0,0,1.53,1.84l.25.21a6.2,6.2,0,0,0,3.55,1.4h.09A8.33,8.33,0,0,0,232.31,169.24ZM184.91,70.1a6.92,6.92,0,0,1,1.58,1.07,2.55,2.55,0,0,1,.5.54h0a3.49,3.49,0,0,1,.72,2.88,9.14,9.14,0,0,0,0,7.54l-2.91,1.15,2.64,1.3.65.91c.14-.54.29-1.07.45-1.61.23-.73.44-1.46.65-2.18s.57-1.61.9-2.36c.17-.38.34-.74.52-1.08a2.38,2.38,0,0,0,.2-.39,20.53,20.53,0,0,1,1.62-2.07l.3-.24a8.83,8.83,0,0,1,.94,1.12,6.81,6.81,0,0,1,1,2.72,15.57,15.57,0,0,1,.13,4.62c-.12,1.11-.35,2.54-.69,4.3-.31,1.5-.54,2.61-.68,3.31s-.2.89-.2.9c-.2,1.12-.95,4-2.25,8.62-.63,2.19-1.14,3.94-1.52,5.23s-.61,2-.76,2.44q-.12.36-.27.72a42.35,42.35,0,0,1-2.45,5.17l-.2.37-1,1.71-.39-.11a12.73,12.73,0,0,1-1.39-.5A1.69,1.69,0,0,1,182,114.9a2.34,2.34,0,0,1-.05-.47,1.4,1.4,0,0,1,.09-.7,2.39,2.39,0,0,1,.41-.79A14.16,14.16,0,0,0,184,110c.39-.89.76-1.76,1.12-2.63a19.8,19.8,0,0,0,.9-2.66,30.39,30.39,0,0,0,.86-4,16.6,16.6,0,0,0,.2-2c.08-1.61.15-3.19.23-4.75,0-.87.05-1.75.07-2.63,0-.53,0-1.06.07-1.59l0-.25c-.63-.32-1.26-.68-1.91-1.07s-1.47-.94-2.61-1.75c-.91-.65-2-1.44-3.26-2.39l.76-.56a43,43,0,0,0,5.79,4.55l1.27.77c0-.32.08-.64.13-1v0q-1.62-1.41-3.11-3a3.82,3.82,0,0,1-.63-.85,3.18,3.18,0,0,1-.26-.77l2.31-8.37a2.57,2.57,0,0,0-1.31-3.56l-.16-.08q.19-.43.36-.93l.09-.45ZM89.37,143.4q-2-.92-5.07-2.59c-1.43-.8-2.63-1.52-3.61-2.17l0-.13q.36-1.32.63-2.7c.12-.61.21-1.22.27-1.82a6.59,6.59,0,0,0-.07-.9l-.17-.32.6.5,0,0,1.09.79c.6.4,1.21.79,1.84,1.17l5,3.06C91,139,92,139.66,93,140.36a13.23,13.23,0,0,0-2.62,2C90.07,142.7,89.72,143,89.37,143.4ZM81,154.13q-5.44-3.3-8.76-5.64a14,14,0,0,1-4.64-6.1c0-.12-.1-.24-.14-.36l1.43-.25a20.42,20.42,0,0,1,3.31-.14l.27.05,2.65.11a3.86,3.86,0,0,0,.47,0,6,6,0,0,0,2.62-.47,6.79,6.79,0,0,0,.67-.32l.09-.05h0v0l0,0a.17.17,0,0,0,0,.1h0A20.66,20.66,0,0,0,80.11,145a9.74,9.74,0,0,0,2.52,3.62c.42.38.86.8,1.34,1.27-.52.71-1.06,1.45-1.61,2.22S81.42,153.45,81,154.13Zm50.3-10c.08.27.14.55.21.83.13.55.3,1.27.49,2.16.12,1.12.24,2.24.35,3.36a10.26,10.26,0,0,0-1.74-.23,3.65,3.65,0,0,0-2.48.73,48.08,48.08,0,0,0-1.87-6.46c-.27-.76-.57-1.53-.89-2.31a4,4,0,0,0,2.33-.79l.07-.07a5.19,5.19,0,0,0,1.1-2c.09-.25.18-.47.27-.68.33.69.64,1.38.95,2.08.19.42.37.83.53,1.26C130.85,142.76,131.08,143.46,131.27,144.17Zm-14.64-18.06,3.89,2.23a5.53,5.53,0,0,0-2.23.18.8.8,0,0,0-.16.08Zm30.57,17.63,3,1.74a12.15,12.15,0,0,0-.23,1.23c-.12,1.14-.25,2.27-.38,3.4,0,.34-.07.69-.11,1-.17,1.46-.33,2.92-.5,4.39a22.14,22.14,0,0,0,0,4.46c.05.52.13,1,.23,1.56l-.55.32v-2.42l-.45-.25-2.29-1.32c.23-2.28.44-4.34.61-6.18C146.86,148.24,147.08,145.59,147.2,143.74Zm65.29-7.09a4.22,4.22,0,0,0,1.17,1l-.15,0,.1,0h0l4,.09.3.07,0,0h0a4.53,4.53,0,0,1,.83.34q-1.14,1-2,1.77l-1,.85a3.71,3.71,0,0,0-2-1l-.11.13c-.1-.26-.19-.52-.3-.79s-.32-.83-.49-1.27S212.63,137,212.49,136.65ZM179.75,83.11l.65.6-1.92-.28,0,0q-.34-.52-.63-1l.48-.79a.5.5,0,0,0,0,.12C178.38,82,178.85,82.44,179.75,83.11Zm-2.16,120.1h.12a.18.18,0,0,1,.25,0,5.16,5.16,0,0,0-.6.39,4.42,4.42,0,0,0-.68.6.9.9,0,0,0,.09,1.49,1.5,1.5,0,0,0,2.07,0c.63-.53,1.23-1.06,1.82-1.6a47.61,47.61,0,0,1,5.24-4.19,12,12,0,0,0,3.58-3.91l.14-.25,2,2.84a6.61,6.61,0,0,0-.85.3,9.61,9.61,0,0,0-1.17.55,12.89,12.89,0,0,0-2.43,1.67l-.29.24q-1.63,1.45-3.25,3l-.56.53a13.51,13.51,0,0,1-2.32,1.76,14.1,14.1,0,0,1-1.6.81c-.34.13-.7.25-1.06.36a11.33,11.33,0,0,1-3.7-.25l-.24-.13a9.79,9.79,0,0,0-3-1.31,5.39,5.39,0,0,1-.63-.43l-.16.23a3,3,0,0,1,1.42-1.24,16.35,16.35,0,0,1,4.14-1.17A7.47,7.47,0,0,1,177.59,203.21Zm-63.31-18.1-9,7.72a4.36,4.36,0,0,1-.55.41,7.61,7.61,0,0,1-3.66,1.14,3.45,3.45,0,0,1-3.73-2.52,6.53,6.53,0,0,1-.42-1.57A6.63,6.63,0,0,1,97.3,187a1,1,0,0,0,.37-.34,11.87,11.87,0,0,0,1-2.63h0a4.74,4.74,0,0,0,.94-1.69,11.42,11.42,0,0,1,1.17-2.48l11.25,6.49,2.23-1.29Zm-10.41,28.54,2-1.16.18.15a7.87,7.87,0,0,1,2,2.25.16.16,0,0,1,.07.07,6.75,6.75,0,0,0,2.14,2.16c.15-.17.14-.36,0-.59a4.58,4.58,0,0,0-.65-.67,4.55,4.55,0,0,1-.7-.68.67.67,0,0,1-.19-.6.25.25,0,0,1,0-.07h1.59a.55.55,0,0,1,.18,0,6,6,0,0,1,1.71.4,2.3,2.3,0,0,1,1.47,1.49q-3.27,2.72-3.33,2.72a1.26,1.26,0,0,1-.41-.07,7.84,7.84,0,0,1-2.66-2.09q-1-1.09-2.31-2.61A4.88,4.88,0,0,0,103.87,213.65Zm11.94,10.92c-.21-.08-.43-.14-.65-.21a8.6,8.6,0,0,0-1.58-.31h.09A4.51,4.51,0,0,1,115.81,224.57Z"/><path class="cls-17" d="M211.59,187.54q-5.34-.24-10.62-.29c-.85,0-1.7,0-2.55,0a1.16,1.16,0,0,1-1.06-.33,16.17,16.17,0,0,1-1.49-4.39l4.5-2.6c1.94.11,4.15.28,6.63.53,1.59.15,3.12.28,4.59.38h.18c2.72.19,5.21.28,7.49.28q8.58,0,11.75-4.19a7.81,7.81,0,0,0,1.57-4.47c0-.17,0-.35,0-.52a17.44,17.44,0,0,0-.28-2.68l.48-.11.32-.09a9.22,9.22,0,0,0,3-1.49,7.22,7.22,0,0,0,3.16-5.42q.1.21.21.45a.16.16,0,0,1,0,.09,2.37,2.37,0,0,1,.15.45,25.89,25.89,0,0,1,1.13,5.49,25.16,25.16,0,0,1-.42,7.43c-.1.52-.23,1.05-.37,1.57a12.9,12.9,0,0,1-4.07,6.49A17.42,17.42,0,0,1,222,188.33c-1.37-.17-2.74-.31-4.12-.42l-1.89-.15C214.53,187.68,213.06,187.6,211.59,187.54Zm.63,26.76v.09a2.71,2.71,0,0,1-.32.9v0c-.11.2-.21.4-.31.6a14.28,14.28,0,0,0-1.71,6.78l0,.54a.92.92,0,0,1-.7,1l-.58.16-.77.13a1.33,1.33,0,0,1-.74-1,5.59,5.59,0,0,1-.07-1.44,4.79,4.79,0,0,0-.06-1.33.84.84,0,0,0-.79-.67l-.07,0a6,6,0,0,1,.37-.57h0a10.64,10.64,0,0,1,.84-1c.4-.45.83-.89,1.28-1.32.64-.62,1.34-1.23,2.09-1.83l.81-.61.05,0Zm-20.71,9.34a2.88,2.88,0,0,0,1.51,1.53,11.74,11.74,0,0,0,2.09.68,18.23,18.23,0,0,0,3.24.52,6.55,6.55,0,0,0,3.2-.57,3.79,3.79,0,0,0,.56-.36,7.3,7.3,0,0,0,1.62-2.07c.48-.87.76-1.36.84-1.48a6.4,6.4,0,0,1,1-1.29,25.51,25.51,0,0,0-1.49,3.38,5.87,5.87,0,0,1-2,2.57,1.59,1.59,0,0,1-.29.15,9,9,0,0,1-4.26.52,17.69,17.69,0,0,1-4.25-1,3.2,3.2,0,0,1-1.51-.94A1.55,1.55,0,0,1,191.51,223.64Zm-73.75,4.63-.13.21a24.41,24.41,0,0,0-.49,3.74c0,.3,0,.61,0,.92a1.64,1.64,0,0,1-.83.45,2.69,2.69,0,0,1-1.08.14,2.14,2.14,0,0,1-.49-.09.87.87,0,0,1-.61-1.15c0-.21,0-.42,0-.63a12.13,12.13,0,0,0-.36-4,22.79,22.79,0,0,0-.67-2.31c-.17-.48-.35-1-.57-1.54a4,4,0,0,1,.85,0l.21,0a8.6,8.6,0,0,1,1.58.31c.22.07.44.13.65.21l0,0,.1,0,.12,0a11,11,0,0,1,2.36,1.17,7.12,7.12,0,0,1,1.65,1.55,1.26,1.26,0,0,1,.47.36l0,0a7,7,0,0,1,.79.86l.29.4c.14.17.28.36.43.57a5.73,5.73,0,0,0,.61.67l1,.63h0l0,0h.07s0,0,0,0h.07a3.77,3.77,0,0,0,2.79-1.17l0,0,.07-.06.07-.07,0-.05,1.28-2.09a3.3,3.3,0,0,0,.12-.38v0a3.74,3.74,0,0,1-.5,2.21,4.92,4.92,0,0,1-1.53,1.8,4.17,4.17,0,0,1-2.12.83,2.93,2.93,0,0,1-2.13-.63c-1-.59-1.8-1-2.3-1.37l-.41-.27a6.35,6.35,0,0,1-1.37-1.29l-.16-.22Zm93.6-129.19a31.12,31.12,0,0,1-7.1,2.35q-3,.55-9-.78c.17-.68.32-1.36.47-2.05q.41-1.91.81-3.84c.3-1.54.6-3.05.92-4.55s.62-2.89.92-4.35a22,22,0,0,0,.34-2.34,18,18,0,0,0,.11-2.43,16.66,16.66,0,0,0-.31-2.72,3.58,3.58,0,0,0-.81-1.71,4.65,4.65,0,0,0-1.42-1.15l-1.19-.4,0,0h0a0,0,0,0,0,0,0,3.68,3.68,0,0,0-.81,0h-.09a0,0,0,0,0-.05,0,1.63,1.63,0,0,0-.31,0l0,0-.09,0h-.09l0,0-.58.25-.16.14-.3.24a20.53,20.53,0,0,0-1.62,2.07,2.38,2.38,0,0,1-.2.39c-.18.34-.35.7-.52,1.08-.33.75-.63,1.54-.9,2.36s-.42,1.45-.65,2.18c-.16.54-.31,1.07-.45,1.61l-.65-.91-2.64-1.3,2.91-1.15a9.14,9.14,0,0,1,0-7.54,3.49,3.49,0,0,0-.72-2.88h0a2.55,2.55,0,0,0-.5-.54,6.92,6.92,0,0,0-1.58-1.07l0,0,.06-.6a7.29,7.29,0,0,1,1.62.72c1.39,1,2.29,1.62,2.73,1.89a11.61,11.61,0,0,0,2.88.92,14.47,14.47,0,0,1,4.25,1.73,23.93,23.93,0,0,1,5.18,5q2.21,2.73,3.42,4.1a25.34,25.34,0,0,1,4.62,7.88c.08.21.19.63.35,1.25Q210.49,94.76,211.36,99.08Zm-31-15.37,0,0-.76.56c1.26,1,2.35,1.74,3.26,2.39,1.14.81,2,1.39,2.61,1.75s1.28.75,1.91,1.07l0,.25q-8.13-2.88-11.51-5.8c-.73-.63-1.38-1.25-1.94-1.84l-.24-.27a4.7,4.7,0,0,0,.76-.16,18.28,18.28,0,0,0,1.78-.67l.74,2.7.81-1.34q.28.49.63,1l0,0ZM84,149.89c-.48-.47-.92-.89-1.34-1.27A9.74,9.74,0,0,1,80.11,145,20.66,20.66,0,0,1,79,141.17h0a.17.17,0,0,1,0-.1l0,0v0h0l.32-.22a4.15,4.15,0,0,0,1.43-2.12c1,.65,2.18,1.37,3.61,2.17q3,1.68,5.07,2.59A71.35,71.35,0,0,0,84,149.89Zm-5.13,49.32a18.8,18.8,0,0,1-1.38-1.74,17.16,17.16,0,0,1-2-3.62,3.93,3.93,0,0,0,2.24.64C78.16,196.38,78.53,198,78.84,199.21Zm-3.43-39.74-1.18-.73q-2-1.22-4.14-2.29a11.85,11.85,0,0,1-2.9-2,15.89,15.89,0,0,1-4.37-7.48c-.12-.47-.25-1-.38-1.43l-.63-2.39c-.07-.23-.13-.46-.19-.68l.37.09a9,9,0,0,0,3.54-.11q.9-.21,1.8-.36l.1,0c0,.12.09.24.14.36a14,14,0,0,0,4.64,6.1q3.32,2.34,8.76,5.64c-.7,1.08-1.37,2.18-2,3.29l-3.09,1.78-.47.25Zm16.32,27.8a22.8,22.8,0,0,0,2.74.2h.74A5.19,5.19,0,0,0,97.3,187a6.63,6.63,0,0,0-.34,3.29,6.53,6.53,0,0,0,.42,1.57,3.45,3.45,0,0,0,3.73,2.52,7.61,7.61,0,0,0,3.66-1.14,4.36,4.36,0,0,0,.55-.41l9-7.72v2.36l4.66,2.69a5.3,5.3,0,0,1-1.28,1.43c-.71.5-1.41,1-2.1,1.55l-1.65,1.3-5.64,4.39L105.5,201A22.12,22.12,0,0,1,94,205.48a16.56,16.56,0,0,1-7.36-.9,5.45,5.45,0,0,0,.61-3.56l-.59-4.68a4.31,4.31,0,0,0,1.15.32,9.29,9.29,0,0,0,1.8-.16A3,3,0,0,0,91.75,195c.1-.27.19-.49.27-.67a7.67,7.67,0,0,0,0-5.22ZM184.26,205a9.49,9.49,0,0,1,2.29-1.45h0c1-.47,2.18-1,3.6-1.58a5,5,0,0,0,.78-.65l.26-.25q.5-.48.87-.81a2.75,2.75,0,0,1-.45,1.51,22,22,0,0,0-2.43,3.78A12.7,12.7,0,0,0,188,209.4c0,.16-.05.32-.07.47-.09.52-.47.77-1.14.74a5.84,5.84,0,0,1-1.6-.34c.19-1.09.34-1.92.45-2.47a7.51,7.51,0,0,0,.06-2.48,2.25,2.25,0,0,0-1-.29A1.55,1.55,0,0,0,184.26,205Zm-7.2,4.83a4.7,4.7,0,0,0,1.42-.26,7.64,7.64,0,0,0,2.61-2.16,9,9,0,0,1,2.54-2.25c-.18.21-.82,1-1.91,2.49a14.31,14.31,0,0,1-2.07,2.32,4.46,4.46,0,0,1-2.21.79A3.72,3.72,0,0,0,177.06,209.86Zm8.6-1.09v0l0,.16Zm-72,8.89a3.41,3.41,0,0,1-.9,2.4,6.78,6.78,0,0,1-2,1.69,3.49,3.49,0,0,1-2,.23,8.36,8.36,0,0,1-2-.68l-1.93-.88a5.75,5.75,0,0,0-1.25-.32,2.59,2.59,0,0,0-.62,0c-.07.43-.15.95-.22,1.55,0,.14,0,.27-.05.41v0a1.46,1.46,0,0,1,0,1.26,2,2,0,0,1-.9,1,1.6,1.6,0,0,1-1.21.24,1.22,1.22,0,0,1-.9-.92l0,0a8.44,8.44,0,0,0,.14-1.22,14.17,14.17,0,0,0-.67-5,10.69,10.69,0,0,0-.36-1l2.83-1.63a12.66,12.66,0,0,1,1.83,1.22l.49.4a10.09,10.09,0,0,1,1.48,1.58,6.65,6.65,0,0,1,.52.45,1.19,1.19,0,0,1,.18.15c.17.17.42.42.74.76l.25.26a4.34,4.34,0,0,0,2.39,1.3,3.74,3.74,0,0,0,2.47-1.12A8.29,8.29,0,0,0,113.69,217.66Zm5,9.74a1.39,1.39,0,0,0-.49.32,1.69,1.69,0,0,1,.51-.32h0s0,0,0,0Z"/><path class="cls-18" d="M111.59,133.24a3.35,3.35,0,0,0-1-2,3.57,3.57,0,0,0-.52-.44,18.66,18.66,0,0,1-1.35-3,25.63,25.63,0,0,1-.76-2.59,24.28,24.28,0,0,1,7.51.88,1,1,0,0,0,.72,0,.66.66,0,0,0,.27-.12l.17.1,1.5,2.49a1.83,1.83,0,0,0-.92,1.34,3.54,3.54,0,0,0-.07.47v.65l0,6v.11a4.78,4.78,0,0,0,.18.9,4.35,4.35,0,0,0,1.15,1.91,6.39,6.39,0,0,0,1.51,1.13,9.79,9.79,0,0,0,4.75,1.19,5.72,5.72,0,0,0,.59,0c.32.78.62,1.55.89,2.31A48.08,48.08,0,0,1,128.1,151l-.18.17a6.63,6.63,0,0,0-1,2,5.6,5.6,0,0,1-1.13,2,4.36,4.36,0,0,1-3,.9h-.14a21.12,21.12,0,0,1-.33-3.55,3.21,3.21,0,0,0,.24-1v-5.87a1.59,1.59,0,0,0,0-.29,1.24,1.24,0,0,0,0-.27,3.3,3.3,0,0,0-.22-.81l-4.41-2.54c-.38-.54-.77-1.07-1.17-1.61l-3-3.91c-.66-.84-1.29-1.69-1.91-2.56Zm24,3.83,11.58,6.67c-.12,1.85-.34,4.5-.68,8-.17,1.84-.38,3.9-.61,6.18l-6.52-3.76c0-.2,0-.39,0-.59,0-1.55,0-3.09.09-4.63,0-.12,0-.23,0-.35a15.21,15.21,0,0,1,1.13-5,2.49,2.49,0,0,0,.06-.49,1.74,1.74,0,0,0-.36-1.17,23.25,23.25,0,0,0-3.35-3.48c-.53-.46-1.11-.92-1.72-1.4Zm75.74-38,.06,0a16,16,0,0,1,.3,2.42,51.19,51.19,0,0,1-.55,7.35c-.12.83-.26,1.67-.41,2.51s-.26,1.4-.37,2.07a46,46,0,0,0-.63,7.18c0,.82,0,1.62.06,2.42.06,1.21.15,2.4.29,3.58.1.79.21,1.57.34,2.34a4.74,4.74,0,0,1-.42.6,8.79,8.79,0,0,0-1,1.46.75.75,0,0,0,.47.79c.57.32.87.48.88.5A13.76,13.76,0,0,0,212,136c.17.24.33.46.5.66.14.39.29.79.45,1.19s.34.87.49,1.27.2.53.3.79l0,0a.77.77,0,0,0-.2.52.67.67,0,0,0,0,.2.52.52,0,0,0,0,.11c0,.05,0,.1,0,.16v0l0,0v0l.23.41,0,.06c.11.11.21.21.32.3a7.74,7.74,0,0,0-1.56-.7,2.94,2.94,0,0,0-1.91,0l-.09.11c0-.16,0-.31-.05-.47a41.24,41.24,0,0,0-1.53-7.58,16.79,16.79,0,0,0-.95-2.47c-.16-.33-.33-.65-.51-1a29.64,29.64,0,0,1-2.42-6,31.45,31.45,0,0,1-.69-3.09c-.37-2.29-.69-4.59-.94-6.89-.1-.9-.19-1.81-.27-2.72,0-.36,0-.76,0-1.19l0-.14a.16.16,0,0,1,0-.09l0,0a9.86,9.86,0,0,0-.43-3.15c-.26-.29-.52-.58-.76-.88-.11.33-.21.66-.32,1a68.88,68.88,0,0,0-2.13,9c-.26,1.54-.46,3.08-.6,4.61-.15,1.72-.23,3.44-.24,5.15v.13s0,1.48,0,4.32q0,5,.45,9.2c.15,1.64.34,3.12.56,4.45l-5.61-3.24a40.35,40.35,0,0,0-.44-6c-.09-.59-.17-1.17-.25-1.74q-.37-3.79-1.1-7.58-.35-1.78-.75-3.51c-.21-1-.39-2.12-.54-3.2-.17-1.26-.35-2.52-.52-3.78.17-.39.39-.86.64-1.42.6-1.24,1.08-2.39,1.46-3.42s.74-2.16,1.13-3.38.75-2.44,1.08-3.69c.15-.59.3-1.19.43-1.78q6.06,1.34,9,.78A31.12,31.12,0,0,0,211.36,99.08Zm4.7,53.76-2.31-1.33a1.55,1.55,0,0,1,.07-.23c.23-.81.49-1.57.76-2.3l1.28-.81,0,0a31.44,31.44,0,0,1,.19,3.55C216.09,152.07,216.08,152.44,216.06,152.84Z"/><path class="cls-19" d="M116.55,82.58l0,0a.06.06,0,0,1,0,0,0,0,0,0,1,0,0,0,0,0,0,1,0,0c1,0,2-.07,3-.16h0a11.2,11.2,0,0,0,3-.74,2.23,2.23,0,0,1,.34-.14,4.33,4.33,0,0,0,1.06-.81,3.88,3.88,0,0,0,.79-1.42l0,0h.07a0,0,0,0,1,0,0l.65,1.53v0s0,0,0,0a0,0,0,0,1,0,0h-.06l0,0-.59-1.4a4.18,4.18,0,0,1-.76,1.29,3.89,3.89,0,0,1-1.1.83v0l-.34.14a10.36,10.36,0,0,1-3.08.74A28.29,28.29,0,0,1,116.55,82.58Z"/><path class="cls-20" d="M205.6,220.6a6.4,6.4,0,0,0-1,1.29c-.08.12-.36.61-.84,1.48a7.3,7.3,0,0,1-1.62,2.07,3.79,3.79,0,0,1-.56.36,6.55,6.55,0,0,1-3.2.57,18.23,18.23,0,0,1-3.24-.52,11.74,11.74,0,0,1-2.09-.68,2.88,2.88,0,0,1-1.51-1.53l0,0v-.11a2.13,2.13,0,0,1,.65-1.65,9.7,9.7,0,0,0,3.39,2.18,8.32,8.32,0,0,0,2.73.46,7.61,7.61,0,0,0,3.85-1,9.73,9.73,0,0,0,2.79-2.57,16.87,16.87,0,0,0,1.62-2.66c.21-.48.39-.85.52-1.12l.27-.52,1.69-2.14a4.27,4.27,0,0,0,1-2.25q0-.24,0-.45a1.92,1.92,0,0,1,.29-1.1,6.54,6.54,0,0,1,1,1.06l.2.27a3.15,3.15,0,0,1,.63,2.29l-.63.44-.05,0-.81.61c-.75.6-1.45,1.21-2.09,1.83-.45.43-.88.87-1.28,1.32a10.64,10.64,0,0,0-.84,1h0a6,6,0,0,0-.37.57A4.68,4.68,0,0,0,205.6,220.6Zm-77.27,6.49a3.3,3.3,0,0,1-.12.38l-1.28,2.09,0,.05-.07.07-.07.06,0,0a3.77,3.77,0,0,1-2.79,1.17h-.07s0,0,0,0h-.07l0,0h0l-1-.63a5.73,5.73,0,0,1-.61-.67c-.15-.21-.29-.4-.43-.57l-.29-.4a7,7,0,0,0-.79-.86l0,0a1.26,1.26,0,0,0-.47-.36,7.12,7.12,0,0,0-1.65-1.55,11,11,0,0,0-2.36-1.17l-.12,0-.1,0,0,0a4.51,4.51,0,0,0-2.14-.52h-.09l-.21,0a4,4,0,0,0-.85,0l-.22-.54s0,0,0-.05a3.59,3.59,0,0,1,.31-1.91,3.17,3.17,0,0,1,.43,0c.23,0,.47,0,.7,0a10.43,10.43,0,0,1,6.75,3.58c.57.6,1.29,1.42,2.16,2.47a7.06,7.06,0,0,0,.82.78,1.54,1.54,0,0,0,.82.35,2.78,2.78,0,0,0,1-.16,3.38,3.38,0,0,0,1.89-2,7,7,0,0,0,.52-1.44A2.24,2.24,0,0,1,128.33,227.09ZM211.42,99l-.06,0q-.87-4.32-1.31-6.18c-.16-.62-.27-1-.35-1.25a25.34,25.34,0,0,0-4.62-7.88q-1.22-1.36-3.42-4.1a23.93,23.93,0,0,0-5.18-5A14.47,14.47,0,0,0,192.23,73a11.61,11.61,0,0,1-2.88-.92c-.44-.27-1.34-.9-2.73-1.89a7.29,7.29,0,0,0-1.62-.72l.21-2V67c.73.07,1.47.18,2.23.33a37,37,0,0,1,13.95,6.93q4.67,3.72,9.14,7.65a86,86,0,0,1,7.56,8.47,3.92,3.92,0,0,1-.44,3.22A7.76,7.76,0,0,1,216.53,95,24.17,24.17,0,0,1,211.42,99Zm-20.93,15.3c-.23.49-.4.85-.51,1.06s-.36.75-.59,1.17a1.26,1.26,0,0,1-1,.58,3.7,3.7,0,0,1-.48,0h-.24l-1.92-.2-.25,0-.58-.14,1-1.71.2-.37a42.35,42.35,0,0,0,2.45-5.17q.15-.36.27-.72c.15-.41.4-1.22.76-2.44s.89-3,1.52-5.23c1.3-4.62,2.05-7.5,2.25-8.62,0,0,.07-.31.2-.9s.37-1.81.68-3.31c.34-1.76.57-3.19.69-4.3a15.57,15.57,0,0,0-.13-4.62,6.81,6.81,0,0,0-1-2.72,8.83,8.83,0,0,0-.94-1.12l.16-.14.58-.25,0,0h.09l.09,0,0,0a1.63,1.63,0,0,1,.31,0,0,0,0,0,1,.05,0h.09a3.68,3.68,0,0,1,.81,0,0,0,0,0,1,0,0h0l0,0,1.19.4a4.65,4.65,0,0,1,1.42,1.15,3.58,3.58,0,0,1,.81,1.71,16.66,16.66,0,0,1,.31,2.72,18,18,0,0,1-.11,2.43,22,22,0,0,1-.34,2.34c-.3,1.46-.61,2.91-.92,4.35s-.62,3-.92,4.55q-.4,1.93-.81,3.84c-.15.69-.3,1.37-.47,2.05s-.28,1.19-.43,1.78q-.5,1.88-1.08,3.69c-.39,1.22-.77,2.34-1.13,3.38s-.86,2.18-1.46,3.42C190.88,113.48,190.66,114,190.49,114.34ZM204.8,144.1c.17.87.36,1.73.6,2.6l-5.7-3.29c-.22-1.33-.41-2.81-.56-4.45q-.4-4.19-.45-9.2c0-2.84,0-4.28,0-4.32v-.13c0-1.71.09-3.43.24-5.15.14-1.53.34-3.07.6-4.61a68.88,68.88,0,0,1,2.13-9c.11-.33.21-.66.32-1,.24.3.5.59.76.88a9.86,9.86,0,0,1,.43,3.15l0,0a.16.16,0,0,0,0,.09l0,.14c0,.43,0,.83,0,1.19.08.91.17,1.82.27,2.72-.07,1.77-.09,3.53-.07,5.29,0,1.26.08,2.52.14,3.78.08,1.83.19,3.66.33,5.5v0q.39,4.72.34,9.48A32.15,32.15,0,0,0,204.8,144.1ZM161,103.65l-5-2.88,1.81-1.56a30.17,30.17,0,0,0,6-6.44,33.48,33.48,0,0,0,2.4-6.25q1.16-3.49,1.56-5.13T169,76.52c.09-.3.17-.59.25-.87l.09.2a17.81,17.81,0,0,0,0,2.34c0,.06.2.22.45.47s.56.59.92,1a2.76,2.76,0,0,1,.68,1.11,2.32,2.32,0,0,0,2.32,1.08l.24.27c-.18.29-.38.59-.58.9-.47,1.17-1.32,3-2.57,5.54q-1.73,3.53-2.49,5.58c-.32.7-.74,1.81-1.27,3.31a17.22,17.22,0,0,1-2.6,3.22,15.15,15.15,0,0,1-1.2,1.06c-.23.19-.47.38-.72.56S161.62,103.06,161,103.65Zm22.67,101.54a9,9,0,0,0-2.54,2.25,7.64,7.64,0,0,1-2.61,2.16,4.7,4.7,0,0,1-1.42.26,6.5,6.5,0,0,0-2.43-2.24l-.24-.14a11.33,11.33,0,0,0,3.7.25c.36-.11.72-.23,1.06-.36a14.1,14.1,0,0,0,1.6-.81,13.51,13.51,0,0,0,2.32-1.76l.56-.53q1.62-1.5,3.25-3l.29-.24a12.89,12.89,0,0,1,2.43-1.67,9.61,9.61,0,0,1,1.17-.55,6.61,6.61,0,0,1,.85-.3l.06.1a3.73,3.73,0,0,1,.41,1.63q-.37.33-.87.81l-.26.25a5,5,0,0,1-.78.65c-1.42.59-2.62,1.11-3.6,1.58h0a9.49,9.49,0,0,0-2.29,1.45A2.65,2.65,0,0,0,183.63,205.19Zm-12.51.85-.81-.17,0,0,.16-.23A5.39,5.39,0,0,0,171.12,206Zm-57.4,10.38a2.62,2.62,0,0,1,0,1.24,8.29,8.29,0,0,1-1.64,2.25,3.74,3.74,0,0,1-2.47,1.12,4.34,4.34,0,0,1-2.39-1.3l-.25-.26c-.32-.34-.57-.59-.74-.76a1.19,1.19,0,0,0-.18-.15,6.65,6.65,0,0,0-.52-.45,10.09,10.09,0,0,0-1.48-1.58l-.49-.4a12.66,12.66,0,0,0-1.83-1.22l2.17-1.26a4.88,4.88,0,0,1,1.14.72q1.26,1.51,2.31,2.61a7.84,7.84,0,0,0,2.66,2.09,1.26,1.26,0,0,0,.41.07S111.54,218.23,113.72,216.42Z"/><path class="cls-21" d="M213.66,137.64l3-.72a5.66,5.66,0,0,0,2.54-1.29h0a.85.85,0,0,0,.83-.83.69.69,0,0,0,0-.25h0a2,2,0,0,0,.49-.36,1.73,1.73,0,0,0,.52.43l0,0a3.58,3.58,0,0,0,1.4.23,7.78,7.78,0,0,0,1.13-.09l.29-.21a23,23,0,0,0,2.13-2.19.92.92,0,0,0,0,.37.28.28,0,0,1,0,.09.67.67,0,0,0,0,.45l0,.47-2.63,3-.11-.07-.07,0a3.91,3.91,0,0,0-1.35-.72,2.15,2.15,0,0,0-.71.15,6.61,6.61,0,0,0-1.11.52,2.58,2.58,0,0,0-.32.18q-.54.31-1.17.75l-.48.32h0l0,0-.3-.07Zm-90.78,86.61-.07,0a7.67,7.67,0,0,0,.47,1.11l.23.47a6.56,6.56,0,0,1,.27.63c-.36-.42-.79-1-1.28-1.67l-.23-.31h0a.3.3,0,0,0-.07-.11v0c-.7-1-1.16-1.63-1.37-1.91l-.09-.14a8.21,8.21,0,0,0-4.91-3.89.93.93,0,0,0-.29-.05,1.53,1.53,0,0,0-.45.13c0-.05,0-.1,0-.15,0-.3,0-.62,0-1,.3.09.61.2.94.32a23.14,23.14,0,0,1,3.85,1.87,15.27,15.27,0,0,1,1.6,1.06l.22.76,0,.09A21.11,21.11,0,0,0,122.88,224.25ZM114,87.88c.07.15.15.31.23.46a1.69,1.69,0,0,1,.15,1.24,4.41,4.41,0,0,0-.11.7c0,.11,0,.22,0,.33a1.05,1.05,0,0,1-.24-.27,8,8,0,0,1-.47-1.08,4.76,4.76,0,0,1-.23-1.89v0h0a.18.18,0,0,1,.05.07c.11.1.25.22.43.36A.77.77,0,0,0,114,87.88ZM79.06,96.56a1.68,1.68,0,0,0,.06.27v0l-.1.08a1.85,1.85,0,0,0-.63,1.57,2.21,2.21,0,0,0,.7,1.67,1.84,1.84,0,0,0,1.33.54c-.11.38.11.85.65,1.42a3.26,3.26,0,0,0,1.48,1l.2,0c-.1.28-.19.54-.26.77-.23.64-.39,1.07-.48,1.28a2.29,2.29,0,0,1-.1.23,10.76,10.76,0,0,1-5.7-5.89.75.75,0,0,0,.74-.46A10.74,10.74,0,0,1,77.52,98l.45-.88c.09-.2.18-.31.27-.34A3.25,3.25,0,0,1,79.06,96.56ZM119,164.67a34.35,34.35,0,0,0-7.81-2.72l0-.12c-.35-1.59-.68-3-1-4.12a33.7,33.7,0,0,0-1.49-4.09,8.5,8.5,0,0,1-.63-2.88v-.18l0-.93a.16.16,0,0,0,0-.09h0a5.55,5.55,0,0,0,.74-.44,6.35,6.35,0,0,0,2.11-2.52,8.39,8.39,0,0,0,.74-2.27l.46-.05a3.71,3.71,0,0,1,2,.39A1.5,1.5,0,0,1,115,146c0-.09-.53.43-1.6,1.57a5.73,5.73,0,0,1-3.69,1.8,1.5,1.5,0,0,1-.9-.27,23.18,23.18,0,0,0,4.3,10.63,24.92,24.92,0,0,0,4.88,2.72l.07.05C118.4,163.25,118.71,164,119,164.67Zm-13.32-15.22a4,4,0,0,1-1.69,1.17,13.3,13.3,0,0,0-4.48,2.79,7.65,7.65,0,0,0-.48,1.07l-4.27-.71-.27-.38c-.06-.13-.19-.42-.38-.88.22-.51.51-1.19.88-2l.58-.19a4.54,4.54,0,0,0,1.09-.59q.21.2.42.36c1.44,1.08,2.48,1.53,3.13,1.35a5.53,5.53,0,0,0,1.85-1.06c.58-.51,1-.75,1.12-.72A7,7,0,0,0,105.66,149.45Zm104.25-4.55.33.3a5.5,5.5,0,0,1,.63.63c-.24.66-.56,1.42-1,2.27-.3.66-.6,1.32-.9,2s-.55,1.16-.85,1.73-.46,1-.66,1.49-.46,1.22-.67,1.82a17,17,0,0,0-.54,1.71c-.13.48-.25,1-.35,1.49a6.44,6.44,0,0,0-.87,2.93,15.69,15.69,0,0,1,.81,1.65l.18.46a13.27,13.27,0,0,1,.93,4.35,3.15,3.15,0,0,1-.75-1.33c-.45-1.31-.69-2-.74-2.07a18.14,18.14,0,0,0-1.35-1.78,3,3,0,0,1-.79-1.76,2.45,2.45,0,0,1,0-.27l.07,0c.29-.91,1-2.92,2.19-6.06s1.87-5.2,2.18-6.36a4.54,4.54,0,0,0,.16-.87,4.3,4.3,0,0,0-.16-1.1L208,146l.08,0,.72-.45.16-.09ZM204.7,161l0,0h0Zm-.9-.39-.05,0-.19,0ZM122.54,195a35.66,35.66,0,0,0-3.12,3.91v-.18a.5.5,0,0,0,0-.38l0,0a1.77,1.77,0,0,0-.67-1,7.48,7.48,0,0,0-.72-.5l-4.11-2.37,1.65-1.3c.69-.54,1.39-1,2.1-1.55a5.3,5.3,0,0,0,1.28-1.43l3.58,2.07c0,.58,0,1.2,0,1.86V195ZM197.9,169.6a.43.43,0,0,0,0-.07q-.18-.19-.75.09a13,13,0,0,1,.45-1.75c.39-1.19.75-1.78,1.09-1.78a.66.66,0,0,1,.11.29C198.4,167.76,198.11,168.83,197.9,169.6Zm.29,1.37c.15-.66.47-1.69.95-3.1.69-2,1-2.44,1-1.33l-.66,2.56a.06.06,0,0,1,0,.05c-.06.19-.15.44-.27.74a2.79,2.79,0,0,1-.54,1A.75.75,0,0,1,198.19,171Zm1.72.72a25.93,25.93,0,0,1,1.1-4.21c.78-2.35,1.17-2.62,1.17-.78a5.8,5.8,0,0,1-.25.76c0-.21,0-.39.07-.54a5.52,5.52,0,0,0-.9,2.32,8,8,0,0,1-.77,2.38l-.36.07Zm1.93-.31.32-.88c.43-1.25.77-2.13,1-2.66a7.91,7.91,0,0,1,1.19-2.79c.3-.27.6.5.88,2.32l-.2-.52s0,0,0,0a1.06,1.06,0,0,0-.79-.56,9.11,9.11,0,0,0-1,2.38,17.69,17.69,0,0,1-.86,2.43A.47.47,0,0,1,201.84,171.38ZM189,185.22q.92,1.32,2,3.15c.3.51.6,1.06.9,1.66l-.65,1.27a12.35,12.35,0,0,0-1.51,3.28,5.19,5.19,0,0,0-.16,1.38,12,12,0,0,1-3.58,3.91,47.61,47.61,0,0,0-5.24,4.19c-.59.54-1.19,1.07-1.82,1.6a1.5,1.5,0,0,1-2.07,0,.9.9,0,0,1-.09-1.49,4.42,4.42,0,0,1,.68-.6,1.34,1.34,0,0,0,.4.06c1.77,0,4-1.29,6.66-3.89q3.6-3.5,3.6-4.5,0-2.46-3.31-4l-.49-.23v0c.08-.55.16-1.12.23-1.7l3.05-1.77v-3.08Zm-74.8,25.17v0c-.08-.51-.23-1.3-.43-2.37l1.83-1.06c-.2.52-.43,1.08-.66,1.67S114.39,209.86,114.15,210.39Zm-8.27,2.1,1.38-.8c.09.31.19.61.29.9a4.88,4.88,0,0,0,1.18,2,.67.67,0,0,0,.19.6,4.55,4.55,0,0,0,.7.68,4.58,4.58,0,0,1,.65.67c.17.23.18.42,0,.59a6.75,6.75,0,0,1-2.14-2.16.16.16,0,0,0-.07-.07,7.87,7.87,0,0,0-2-2.25Z"/><path class="cls-22" d="M217.23,131.78q-3.72-.06-6.52-4.66a7.77,7.77,0,0,1,.41-3l.07-.22,0,.18a.78.78,0,0,1,0,.16,6,6,0,0,0,2,3.26l1.51,1.35.32.27a8.56,8.56,0,0,1,1,1.13,11,11,0,0,1,1,1.23A3.2,3.2,0,0,0,217.23,131.78Zm6.13,5-2.75,3.1c-.18-.27-.34-.49-.47-.65h0l-.07-.09-.13-.14a4.87,4.87,0,0,0-1-.8,4.53,4.53,0,0,0-.83-.34l.48-.32q.63-.44,1.17-.75a2.58,2.58,0,0,1,.32-.18,6.61,6.61,0,0,1,1.11-.52,2.15,2.15,0,0,1,.71-.15,3.91,3.91,0,0,1,1.35.72l.07,0ZM198.28,219c.78,1.08,1.54,1.61,2.28,1.61q1.35,0,4-5.15,2.39-4.71,2.39-5.58a33.33,33.33,0,0,0-.39-5,21.34,21.34,0,0,0,1.73,4.88h0a2.6,2.6,0,0,1-.09,2.76,24.73,24.73,0,0,1-1.64,2.57c-.27.33-.78,1-1.53,2.14-.32.45-.66,1-1,1.53a23.5,23.5,0,0,1-1.8,2.39,13.74,13.74,0,0,1-1,1,2,2,0,0,1-2.34,0,2.93,2.93,0,0,1-1.4-2,2.92,2.92,0,0,1,.38-.41Zm-8.23-33.12,5.82-3.35a16.17,16.17,0,0,0,1.49,4.39,1.16,1.16,0,0,0,1.06.33c.85,0,1.7,0,2.55,0,.22.29.43.58.62.87v0l0,0a.59.59,0,0,0,0,.08c-.13.16-.27.34-.4.52s-.41.64-.59.95a14.45,14.45,0,0,0-1.76,4.78,12.45,12.45,0,0,0-.13,1.72,33.2,33.2,0,0,0,.9,6.86q.44,1.95.66,3.21c.09.43.15.8.2,1.11l-.41-1c-.34-.8-.71-1.63-1.12-2.49-1.54-3.05-2.65-5.35-3.36-6.89l-.3-.49c-.74-1.2-1.82-3.18-3.26-6-.09-.2-.19-.39-.29-.57-.3-.6-.6-1.15-.9-1.66q-1-1.83-2-3.15Zm-75.38,27.43c-.23-1.22-.41-2.19-.52-2.89.24-.53.48-1.13.74-1.81s.46-1.15.66-1.67l2.47-1.43c1.12-.65,1.59-1.28,1.39-1.91v-4.69a35.66,35.66,0,0,1,3.12-3.91c-.07,2.46-.34,5.44-.79,8.93,0,.26-.06.51-.1.75-.34,2.63-.56,4.34-.64,5.11a58.81,58.81,0,0,0-.38,5.89c0,.37.05.73.09,1.09a22.44,22.44,0,0,0,.81,4,15.27,15.27,0,0,0-1.6-1.06,23.14,23.14,0,0,0-3.85-1.87c-.33-.12-.64-.23-.94-.32A14.39,14.39,0,0,0,115,215ZM90.11,92A6.75,6.75,0,0,1,86,94.1a5.86,5.86,0,0,0,.12-.63,7.42,7.42,0,0,0,.06-.94v-.16a.35.35,0,0,1,0-.18.73.73,0,0,1,.18-.14l.42-.22.5-.27a6.42,6.42,0,0,0,1.39-.88,4.91,4.91,0,0,0,.67-.61l.62,1v.09a1.18,1.18,0,0,1,.07.2.18.18,0,0,0,0,.11,1.1,1.1,0,0,0,0,.18v0a.08.08,0,0,0,0,0A1.24,1.24,0,0,0,90.11,92Zm10.91,5a3.66,3.66,0,0,1,0-.81c0-.07,0-.14,0-.2-.2-.32-.5-.33-.9-.05a0,0,0,0,0,0,0l-.15.07a7.62,7.62,0,0,0,.2-.79l.09-1.11a5,5,0,0,0,0-.67h0a5.43,5.43,0,0,0-.49-1.66l.92-.26.11,0,.27,0a2.84,2.84,0,0,1,.86,2.12s-.1.69-.29,2A3.94,3.94,0,0,1,101,97.05Zm6.85-7.13a4,4,0,0,1,.49,0h0a.82.82,0,0,1,.22,0,7.9,7.9,0,0,1,1.26.4,3.28,3.28,0,0,1,1.1.72q-.15.54-.81.45a8.11,8.11,0,0,1-1.05-.29l.85.54c-.43-.21-1-.5-1.69-.88-.32-.17-.61-.33-.86-.48s-.43-.24-.6-.35l.41-.07Q107.56,89.94,107.87,89.92Zm17.94-8.2a6.38,6.38,0,0,1-1,.73c-1.83,1.15-4.53,1.73-8.12,1.73h-.14a9.48,9.48,0,0,0,0-1.6,28.29,28.29,0,0,0,3.07-.16,10.36,10.36,0,0,0,3.08-.74l.34-.14v0a3.89,3.89,0,0,0,1.1-.83,4.18,4.18,0,0,0,.76-1.29l.59,1.4,0,0h.06C125.67,81.12,125.74,81.42,125.81,81.72ZM168.37,69c.38.22.8.44,1.26.65.3.12.62.23,1,.34a10.64,10.64,0,0,0,1.71.4l.67.09a5.18,5.18,0,0,0,.65.07h.07l.45,0q.36,0,.84,0c.21,0,.43,0,.67,0h.83l0,0c.1.12.42.6.94,1.44a4,4,0,0,1,.28.48l0,.06.22.58-.53,0a6,6,0,0,1-.62,0,26,26,0,0,1-2.73-.13,19.15,19.15,0,0,1-2.47-.38,11.89,11.89,0,0,1-1.49-.43,9.07,9.07,0,0,1-1.3-.55l0,0a1.89,1.89,0,0,1-.67-.7A9.7,9.7,0,0,1,168.37,69Zm15,4.33a7.53,7.53,0,0,1-3,7.3l0,0-.2,0a6.59,6.59,0,0,1-.86-.27l-.25,0h0l-.13-.6a6.27,6.27,0,0,0,1.12-.91,4,4,0,0,0,1.06-2.75c.06.26.47,0,1.24-.87a2.2,2.2,0,0,0,.59-1.45A3.73,3.73,0,0,0,183.35,73.36ZM125.46,88.79l-.33.14a2.35,2.35,0,0,0-1,.72l0,1,.75-.4,0,0a6.82,6.82,0,0,1-.28.79l-.26.13a8.5,8.5,0,0,1-.92.43l-.62.24a9,9,0,0,1-.89.24,3,3,0,0,1-.58-.37v0l.27-.16.09,0,.11-.07a7.75,7.75,0,0,1,2.34-.77l-.56-.81a5.9,5.9,0,0,0-.59-.06,4.61,4.61,0,0,0-2.43,1h-.51a3.16,3.16,0,0,1-.64-.16,5.32,5.32,0,0,1,.84-.45,20.89,20.89,0,0,1,2.22-.83l.14,0,.54-.17A8.21,8.21,0,0,1,125.46,88.79Zm-15,4.8a7.67,7.67,0,0,0-.72-.43,5.11,5.11,0,0,0-.88-.34l-1.38-.77a.86.86,0,0,0,.23-.38,9.16,9.16,0,0,1,2.59,1.06l.66.36c1,.56,1.45,1,1.45,1.31v0s0,0-.06,0a.38.38,0,0,1-.52,0C111.3,94.12,110.84,93.82,110.48,93.59Zm2.2,2.76a.35.35,0,0,1-.11.18c-.2.27-.42.32-.66.14a.27.27,0,0,1-.08-.07,9.3,9.3,0,0,0-4.14-2.07h0c-.37-.28-.56-.48-.56-.58s0-.3,0-.3.07,0,.07,0A10.78,10.78,0,0,1,110.43,95l.7.37A9.16,9.16,0,0,1,112.68,96.35Zm-6.49,24.87.9-.35.17-.07.18-.14.18.36v0a5.44,5.44,0,0,0,.8,1.42c.27.29,2,1,5.33,2.21l1.14.44a18.37,18.37,0,0,1,1.72.78,1,1,0,0,1-.16.12.66.66,0,0,1-.27.12,1,1,0,0,1-.72,0,24.28,24.28,0,0,0-7.51-.88h-.07l-.2,0,0,0-1.08.33a8,8,0,0,0,.27-1.12.51.51,0,0,0,0-.09,4.59,4.59,0,0,0,.09-.87,1.31,1.31,0,0,0,0-.28,3.08,3.08,0,0,0-.74-2Zm12,2.37v0l-.42.48a.05.05,0,0,0,0,0,.06.06,0,0,0-.06,0l0,0h0s0,0,0,0l-1,.36-.12,0h0a1.8,1.8,0,0,1-.34-.16c-.21-.14-.32-.27-.33-.41s.3-.37.74-.58A5.53,5.53,0,0,1,118.17,123.59Zm.54-2a1.39,1.39,0,0,1-.56.49l0,0,0,.05h0l-.07,0c-.24.12-.37.22-.4.3v.09a.35.35,0,0,0,.09.11l-1,0a.89.89,0,0,0-.09-.16.66.66,0,0,1-.07-.38c0-.2,0-.31.07-.34l.09-.09A6.71,6.71,0,0,1,118.71,121.59Zm-2.33-1.39-.37.08a2.21,2.21,0,0,0,.77.16h0l.82,0,.18,0h0l.66.27a1.34,1.34,0,0,1,.11.14c-.49,0-.92-.11-1.31-.17a3.62,3.62,0,0,1-2-.73.85.85,0,0,1,.38-.23,6.16,6.16,0,0,1,1-.19,23.89,23.89,0,0,1,2.44-.14,12,12,0,0,1,2,.09,0,0,0,0,0,0,0c0,.33-.2.49-.5.47-1.1,0-1.85,0-2.27,0l-.8,0C117.1,120.09,116.73,120.14,116.38,120.2Zm-3-2.67c.1.1.23.25.4.44l0,0a3.52,3.52,0,0,0,.59.52h.43c-.18.07-.39.15-.63.22l-.11,0c-.46.17-1.12.37-2,.62l-.34-.13c0,.09,0,0,0-.38a.55.55,0,0,1,.22-.36A8.12,8.12,0,0,1,113.33,117.53Zm-2.11-19.42-.06,0a.45.45,0,0,1-.32-.07l-2.52-1.23-.5-.25a6.49,6.49,0,0,0-3.26-.52l-.63,1a7,7,0,0,0-.59,1,1.94,1.94,0,0,0,.54.7c.35.29.6.5.77.66a1.64,1.64,0,0,1,.45.56l-.23,0a2,2,0,0,1-1.6-1l0,0a2.66,2.66,0,0,1-.59-1.38,3.51,3.51,0,0,1,.66-2.4q1.14-1.28,4.32.4l.72.41a18.79,18.79,0,0,1,2.7,2l0,0ZM79.06,96.56a1.79,1.79,0,0,1,.81.06,1.75,1.75,0,0,0-.74.24v0A1.68,1.68,0,0,1,79.06,96.56Zm28.47,53.15a10.85,10.85,0,0,0-3.38,3.37,9.46,9.46,0,0,0-1,2.1l-4.16-.7a7.65,7.65,0,0,1,.48-1.07,13.3,13.3,0,0,1,4.48-2.79,4,4,0,0,0,1.69-1.17l.36-.11a2.63,2.63,0,0,0,.44-.72.86.86,0,0,0,1-.45V149a1.31,1.31,0,0,1,0,.15A4.61,4.61,0,0,1,107.53,149.71Zm8.15-1.72-1.06.86a16.56,16.56,0,0,0-2.07,1.77,2.19,2.19,0,0,0-.21.23c-.28.25-.3.66,0,1.21q1.17,2.28,3.83,6.71c.75,1.32,1.38,2.56,1.91,3.72l-.07-.05a24.92,24.92,0,0,1-4.88-2.72,23.18,23.18,0,0,1-4.3-10.63,1.5,1.5,0,0,0,.9.27,5.73,5.73,0,0,0,3.69-1.8c1.07-1.14,1.6-1.66,1.6-1.57a1.5,1.5,0,0,0-.9-1.35,3.71,3.71,0,0,0-2-.39l-.46.05a9.8,9.8,0,0,0,.12-1.89,1.5,1.5,0,0,1,.61-.18,2.08,2.08,0,0,0,.74.16l.77,0a1.48,1.48,0,0,1,1.26.7,10.13,10.13,0,0,0,.65.92.53.53,0,0,0,.09.11c.16.23.35.47.56.72a3.77,3.77,0,0,1,.45.9,1.74,1.74,0,0,1,0,1.08,9.81,9.81,0,0,1-.78.75A1.52,1.52,0,0,0,115.68,148Zm98-8.06.07.08,0,0a12.48,12.48,0,0,1,1.07,1.51l.08.14c0,.15,0,.22,0,.22l-.23.05-.14,0-.12-.05a2.09,2.09,0,0,1-.55-.41l0-.06-.23-.41v0l0,0v0c0-.06,0-.11,0-.16a.52.52,0,0,1,0-.11.67.67,0,0,1,0-.2A.77.77,0,0,1,213.7,139.93Zm-36.19-12.2v-.11a27.81,27.81,0,0,1,3.31-.88c2.29-.52,3.47-.81,3.53-.85.3-.27.43-1.62.4-4a1.58,1.58,0,0,0,1-.26,13.5,13.5,0,0,1,.08,3.77,2.14,2.14,0,0,1-.06.35,3.09,3.09,0,0,1-3,2.85,21.44,21.44,0,0,0-3.13.95l-.11,0,0,0s0,0,0,0a1.66,1.66,0,0,1-.94,0c-.51-.2-.86-.74-1-1.65C177.54,127.85,177.52,127.79,177.51,127.73Zm-.15-2.19c-.64.52-1,.81-1.09.86a1.9,1.9,0,0,1-.43.21,1.72,1.72,0,0,1-1.28,0c.1-.45.22-.89.35-1.3s.16-.51.25-.75a7.61,7.61,0,0,1,3.45-4.28,19.52,19.52,0,0,0-1,3.34c-.06.29-.12.59-.18.91l-.06.39C177.38,125.1,177.37,125.33,177.36,125.54Zm36.3,12.1h0l-.1,0Zm3.39,5.23a3.7,3.7,0,0,1-.06,2.19,3.24,3.24,0,0,1-1.51,1.76q-.48,1-.9,2.16c-.27.73-.53,1.49-.76,2.3a1.55,1.55,0,0,0-.07.23c-.32,1.1-.61,2.31-.88,3.64l-.11.53,0,.21c-1.3.66-2.58,1.24-3.82,1.73a15.33,15.33,0,0,0-2.95,1.92l-.2,0v-.07l.18-1.12.58-.29a11.79,11.79,0,0,0,3-2.07,10.14,10.14,0,0,0,2-3c.36-.79.69-1.54,1-2.25l.21-.53c.1-.24.19-.48.27-.71a13.63,13.63,0,0,1,.93-1.94c.12-.22.25-.44.39-.67s.3-.48.46-.72l0,0c.16-.18.35-.38.57-.59a3.81,3.81,0,0,0,1.16-2.26,3.62,3.62,0,0,0-.26-2.15h0a4.26,4.26,0,0,1,.83,1.66Zm-11.81,24.5c-.28-1.82-.58-2.59-.88-2.32a7.91,7.91,0,0,0-1.19,2.79c-.24.53-.58,1.41-1,2.66l-.32.88h0c-.32-.08-.46-.26-.43-.54,0-.47.15-1.12.31-2,.11-.57.19-1,.25-1.42a5.8,5.8,0,0,0,.25-.76c0-1.84-.39-1.57-1.17.78a25.93,25.93,0,0,0-1.1,4.21c-.44,0-.6-.39-.5-1.12a4.22,4.22,0,0,0,.25-1.78,1.63,1.63,0,0,0-.14.31l.66-2.56c0-1.11-.35-.67-1,1.33-.48,1.41-.8,2.44-.95,3.1a.26.26,0,0,1-.15-.16,1.58,1.58,0,0,1-.09-.67,2.34,2.34,0,0,0,0-.54c.21-.77.5-1.84.86-3.22a.66.66,0,0,0-.11-.29c-.34,0-.7.59-1.09,1.78a13,13,0,0,0-.45,1.75,8.75,8.75,0,0,1,1.31-4.43c.53-.93.91-1.63,1.15-2.1a11.47,11.47,0,0,0,.92-2.16,43.25,43.25,0,0,1,4.39-12.08,5.19,5.19,0,0,1,1.36-1.67c.12-.11.26-.21.4-.32L208,146l-.12.09a4.3,4.3,0,0,1,.16,1.1,4.54,4.54,0,0,1-.16.87c-.31,1.16-1,3.28-2.18,6.36s-1.9,5.15-2.19,6.06l-.07,0a2.45,2.45,0,0,0,0,.27,3,3,0,0,0,.79,1.76,18.14,18.14,0,0,1,1.35,1.78c.05.07.29.76.74,2.07a3.15,3.15,0,0,0,.75,1.33,12,12,0,0,1-.05,1.46,1.18,1.18,0,0,1-1-.34,2.92,2.92,0,0,1-.5-.94C205.36,167.69,205.3,167.52,205.24,167.37Zm4.67-22.47-.35-.35a1.51,1.51,0,0,1-.09-1.76l.16.14a9.91,9.91,0,0,1,1.16,1.08c.08.08.15.17.21.24a1.15,1.15,0,0,1,.27.61,3.72,3.72,0,0,1-.38,1h0a5.5,5.5,0,0,0-.63-.63Zm-32.55,58.67a5.16,5.16,0,0,1,.6-.39.18.18,0,0,0-.25,0h-.12l.19-.12a4.53,4.53,0,0,0,1.39-1.33c.5-.72.87-1.24,1.13-1.57.87-1.08,1.5-1.91,1.89-2.5a8,8,0,0,0,1.31-2.79c.27-1.22.51-2.52.72-3.92l.49.23q3.31,1.57,3.31,4,0,1-3.6,4.5c-2.67,2.6-4.89,3.89-6.66,3.89A1.34,1.34,0,0,1,177.36,203.57Z"/><path class="cls-23" d="M120.63,101l-.41-2.43,1.51-.7,1.42,2.64a3.9,3.9,0,0,1-.79,1.48C121.75,101.65,121.17,101.32,120.63,101ZM80.26,204.13a6.54,6.54,0,0,1-3-5.25,5.56,5.56,0,0,1,.18-1.41,18.8,18.8,0,0,0,1.38,1.74c.42,1.72.72,2.86.89,3.41S80.13,203.82,80.26,204.13Zm90.07-55.69a3.82,3.82,0,0,1,.07.72L165.49,152c-.39-.06-.73-.12-1-.18a2.93,2.93,0,0,1-.66-.3,2.43,2.43,0,0,1-1.14-1.84V144a2.52,2.52,0,0,0,1.14,1.82,1.89,1.89,0,0,0,.45.21,7.56,7.56,0,0,0,2.23.33,8.16,8.16,0,0,1,2.68.48A2.13,2.13,0,0,1,170.33,148.44ZM153.42,159l12.86,7.43V167a2.26,2.26,0,0,1-1.17,2.32,2.46,2.46,0,0,1-.48.16,5.35,5.35,0,0,1-.9.08V168l-10.31-6Zm-69.29,47.3a3.78,3.78,0,0,0,2.37-1.49,1.43,1.43,0,0,0,.14-.2,16.56,16.56,0,0,0,7.36.9A22.12,22.12,0,0,0,105.5,201l2.77-2.12v0q0,3.68-4.55,6.28a21.61,21.61,0,0,1-10.94,2.61A23.75,23.75,0,0,1,84.13,206.27ZM187.5,181.71l-.45-.25-9-5.2a23.14,23.14,0,0,0-3.64-1.57c-1.6-.58-2.66-.66-3.17-.24a.76.76,0,0,1,0-.15,1.67,1.67,0,0,1,.38-1.1l.08-.07a2.76,2.76,0,0,1,1.59-.33,29,29,0,0,1,4.61,1c1.08.3,2,.56,2.68.77l9.48,5.49v5.74l-1.1-.63-1.45-.83Zm-15.65-2.05a4.92,4.92,0,0,1-.24.45c-.79,1.38-2.31,2.1-4.58,2.17a10.68,10.68,0,0,1-5.92-1.4,23.48,23.48,0,0,1-2.62-1.82v-.12c0-.13,0-.27,0-.4v-5.2a4.92,4.92,0,0,0,1.08,2.76,13.15,13.15,0,0,0,2.63,2.44,15.92,15.92,0,0,0,3,1.77,6.58,6.58,0,0,0,2.5.68,6.46,6.46,0,0,0,3.47-.81l0,0A3.15,3.15,0,0,0,171.85,179.66Z"/><path class="cls-24" d="M210.71,127.12q2.81,4.6,6.52,4.66a3.52,3.52,0,0,0,.91.81,1.18,1.18,0,0,1,.34-.65,3.56,3.56,0,0,1,.36-.25.38.38,0,0,1,.13-.06l.11-.07a1.1,1.1,0,0,1,.81-.05h0a1.67,1.67,0,0,1,.54.48,2.24,2.24,0,0,1,.33.78,0,0,0,0,0,0,0v.2a2.32,2.32,0,0,1-.34,1.17l0,0a2,2,0,0,1-.49.36h0a1,1,0,0,0-.21-.34.8.8,0,0,0-.58-.24.78.78,0,0,0-.59.24.83.83,0,0,0-.25.59.81.81,0,0,0,.25.58.73.73,0,0,0,.54.25,5.66,5.66,0,0,1-2.54,1.29l-3,.72a4.22,4.22,0,0,1-1.17-1c-.17-.2-.33-.42-.5-.66a13.76,13.76,0,0,1-1.62-3.73s-.31-.18-.88-.5A.75.75,0,0,1,209,131a8.79,8.79,0,0,1,1-1.46,4.74,4.74,0,0,0,.42-.6,2.6,2.6,0,0,0,.37-1C210.78,127.66,210.74,127.39,210.71,127.12ZM198.28,219l.75-.82v0l.54-.67.11-.13a8.78,8.78,0,0,0,2-6.26,30.28,30.28,0,0,0-1.17-3.65c0-.31-.11-.68-.2-1.11q-.22-1.26-.66-3.21a33.2,33.2,0,0,1-.9-6.86,12.45,12.45,0,0,1,.13-1.72,14.45,14.45,0,0,1,1.76-4.78c.18-.31.38-.63.59-.95s.27-.36.4-.52a.59.59,0,0,1,0-.08,18.75,18.75,0,0,1,3.08,7.55c.27,1,.53,2.17.79,3.63l0,.22c.08.45.17,1,.27,1.64.08.41.16.85.25,1.33,0,.14,0,.28.08.43s0,0,0,.05c.12.61.25,1.2.38,1.77a33.33,33.33,0,0,1,.39,5q0,.87-2.39,5.58-2.61,5.15-4,5.15C199.82,220.58,199.06,220.05,198.28,219ZM90,94.63A8,8,0,0,1,89.61,96c.06.18.21.52.45,1a7.48,7.48,0,0,1,.47,1.13c.24.84-.13,1.27-1.12,1.28a3.45,3.45,0,0,1-.77,1.76,5.43,5.43,0,0,0-.9,1.71,1.73,1.73,0,0,1-1.06.79,3.32,3.32,0,0,1-.66,0,5.58,5.58,0,0,1-.64-.08l-1.12-.18-.19,0c-.49-.08-.93-.16-1.31-.25l-.2,0a3.26,3.26,0,0,1-1.48-1c-.54-.57-.76-1-.65-1.42a1.84,1.84,0,0,1-1.33-.54,2.21,2.21,0,0,1-.7-1.67A1.85,1.85,0,0,1,79,96.94l.1-.08a1.75,1.75,0,0,1,.74-.24c.72.24,1.21,1,1.46,2.28a6,6,0,0,1,1.32,1.73,1.12,1.12,0,0,0,.61.32,6.32,6.32,0,0,0,1.31.11c.09,0,.15,0,.18-.07l0-.09c-.36-.84-.6-1.43-.72-1.78a6,6,0,0,1-.38-1.84,5.29,5.29,0,0,0,2-2.41,3.12,3.12,0,0,0,.15-.43A1.89,1.89,0,0,0,86,94.1,6.75,6.75,0,0,0,90.11,92,8.09,8.09,0,0,1,90,94.63Zm13.26,5.62a5.69,5.69,0,0,1-1.18-1A4,4,0,0,1,101,97.05a3.94,3.94,0,0,0,.57-1.37c.19-1.29.29-2,.29-2a2.84,2.84,0,0,0-.86-2.12,6.1,6.1,0,0,0,1,0l.79-.16a14.41,14.41,0,0,0,1.93-.65,16,16,0,0,1,1.94-.65l.2,0c.17.11.37.22.6.35s.54.31.86.48c.69.38,1.26.67,1.69.88s.76.47,1,.65l.39.3a4.36,4.36,0,0,1,1.1,1.3.28.28,0,0,1,0,.43v0c0-.32-.48-.75-1.45-1.31l-.66-.36a9.16,9.16,0,0,0-2.59-1.06.86.86,0,0,1-.23.38l1.38.77a3.14,3.14,0,0,0-1.46-.14,19,19,0,0,1,2.79,1.18,7.52,7.52,0,0,1,2.34,1.89.47.47,0,0,1,.13.6,9.16,9.16,0,0,0-1.55-1l-.7-.37a10.78,10.78,0,0,0-3.22-1.33s0,0-.07,0,0,.1,0,.3.19.3.56.58l-.37-.1-.26-.06,1.31.72.83.46.16.08a7.14,7.14,0,0,1,2.16,1.65.66.66,0,0,1-.07.65,1.12,1.12,0,0,1-.2.18l-.14-.14,0,0a18.79,18.79,0,0,0-2.7-2l-.72-.41q-3.18-1.68-4.32-.4a3.51,3.51,0,0,0-.66,2.4,2.66,2.66,0,0,0,.59,1.38l0,0a2,2,0,0,0,1.6,1l.23,0a1,1,0,0,1-.07,1A4.6,4.6,0,0,1,103.26,100.25ZM114,87.88a.77.77,0,0,1-.18-.1c-.18-.14-.32-.26-.43-.36a.18.18,0,0,0-.05-.07h0a6.07,6.07,0,0,0-.58-.54,1.78,1.78,0,0,1-.28-.32l-.09-.13-.1-.15a5.09,5.09,0,0,1-.32-.66c-.09-.41-.06-.63.09-.65a.6.6,0,0,1,.86.42,1.23,1.23,0,0,0,.12.26C113.32,86.36,113.65,87.12,114,87.88Zm12.16-4.72A9.34,9.34,0,0,1,126.1,86c0,.22-.06.44-.09.64l-.5,2.11-.05,0a8.21,8.21,0,0,0-2.29.44l-.54.17-.14,0a20.89,20.89,0,0,0-2.22.83,5.32,5.32,0,0,0-.84.45,3.8,3.8,0,0,1-.49-.26,2.6,2.6,0,0,1-1,.11,1.52,1.52,0,0,1-.84-.29,7.83,7.83,0,0,1-.74-.86,3.53,3.53,0,0,1-.52-1.89,6.51,6.51,0,0,0-.18-1.13h0a2.87,2.87,0,0,0,.9-1.88.31.31,0,0,0,0-.13c0-.07,0-.14,0-.2h.14c3.59,0,6.29-.58,8.12-1.73a6.38,6.38,0,0,0,1-.73l.31,1.2a.36.36,0,0,1,0,.11Zm47.56-1.3a2.32,2.32,0,0,1-2.32-1.08,2.76,2.76,0,0,0-.68-1.11c-.36-.42-.66-.75-.92-1s-.4-.41-.45-.47a17.81,17.81,0,0,1,0-2.34l-.09-.2c-.12-.28-.3-.74-.56-1.4a7.7,7.7,0,0,1-.45-1.89c-.05-.39-.08-.81-.1-1.24a1.89,1.89,0,0,0,.67.7l0,0a9.07,9.07,0,0,0,1.3.55,11.89,11.89,0,0,0,1.49.43,19.15,19.15,0,0,0,2.47.38,26,26,0,0,0,2.73.13,6,6,0,0,0,.62,0l.53,0,.45,1.13v.05c0,.07,0,.16,0,.25.09.75.35,1.07.78,1a1.76,1.76,0,0,0,1.11-1,13.58,13.58,0,0,1,1.06-1.62c.4-.56.78-.66,1.12-.32a1.1,1.1,0,0,1,.38.62.81.81,0,0,1,0,.16,1,1,0,0,1-.05.28l.05,0a2.2,2.2,0,0,1-.59,1.45c-.77.84-1.18,1.13-1.24.87a4,4,0,0,1-1.06,2.75,6.27,6.27,0,0,1-1.12.91,8.36,8.36,0,0,1-.88.5l-.23.1-.77.36-.78.34a18.28,18.28,0,0,1-1.78.67A4.7,4.7,0,0,1,173.73,81.86Zm-49.11,9.23a4.34,4.34,0,0,1-.17.4,1.67,1.67,0,0,1-1.26,1,3.16,3.16,0,0,1-1.26-.31,9,9,0,0,0,.89-.24l.62-.24a8.5,8.5,0,0,0,.92-.43Zm-11.29,26.44a8.12,8.12,0,0,0-1.44,1,.55.55,0,0,0-.22.36c0,.34,0,.47,0,.38l.34.13c.87-.25,1.53-.45,2-.62l.11,0c.24-.07.45-.15.63-.22h0c1.18,0,2.09,0,2.72,0a10.3,10.3,0,0,1,3.16.48.49.49,0,0,1,.38.54,12,12,0,0,0-2-.09,23.89,23.89,0,0,0-2.44.14,6.16,6.16,0,0,0-1,.19.85.85,0,0,0-.38.23,3.62,3.62,0,0,0,2,.73c.39.06.82.12,1.31.17a1.34,1.34,0,0,0-.11-.14,1,1,0,0,1,.27.48.69.69,0,0,1,0,.32l0,0a6.71,6.71,0,0,0-2,.11l-.09.09s-.07.14-.07.34a.66.66,0,0,0,.07.38.89.89,0,0,1,.09.16l1,0a1,1,0,0,0,.27.18.72.72,0,0,1,.22.72,5.53,5.53,0,0,0-1.66-.11c-.44.21-.68.4-.74.58s.12.27.33.41a1.8,1.8,0,0,0,.34.16h0l-.15,0a.93.93,0,0,1,.49.54.58.58,0,0,1-.09.54.56.56,0,0,1-.09.14,18.37,18.37,0,0,0-1.72-.78l-1.14-.44c-3.28-1.19-5.06-1.92-5.33-2.21a5.44,5.44,0,0,1-.8-1.42v0l-.18-.36,2.87-2.18,1.54-1.17a1,1,0,0,1,1.37.11A.37.37,0,0,1,113.33,117.53Zm-2.16,19.62q.24.57.48,1.23c0,.05,0,.11,0,.18a4.9,4.9,0,0,1-.07,1.62,2.87,2.87,0,0,0,.12,1.76c0,.15,0,.31,0,.47a9.8,9.8,0,0,1-.12,1.89,8.39,8.39,0,0,1-.74,2.27,6.35,6.35,0,0,1-2.11,2.52,5.55,5.55,0,0,1-.74.44,4.9,4.9,0,0,1-.52.24v-.06a4.61,4.61,0,0,0,0-.53,1.31,1.31,0,0,0,0-.15v-.86a.86.86,0,0,1-1,.45c.07-.17.14-.36.21-.56.23-.69.39-1.2.5-1.51a2.3,2.3,0,0,1,2.41-1.67,14,14,0,0,1,.27-2c0-.15.09-.29.13-.42l.33-.94.06-.2,0,0,.33-1.21V140a.16.16,0,0,0,0-.09.25.25,0,0,0,0-.07.08.08,0,0,0,0,0,10.56,10.56,0,0,0,.2-1.19,6.84,6.84,0,0,0,.05-.79C111.09,137.61,111.13,137.38,111.17,137.15Zm94.75,21.24s0,0,0,0v0c.1-.51.22-1,.35-1.49a17,17,0,0,1,.54-1.71c.21-.6.43-1.21.67-1.82s.42-1,.66-1.49.58-1.14.85-1.73.6-1.3.9-2c.39-.85.71-1.61,1-2.27h0a3.72,3.72,0,0,0,.38-1,1.15,1.15,0,0,0-.27-.61c-.06-.07-.13-.16-.21-.24a9.91,9.91,0,0,0-1.16-1.08l-.16-.14a.08.08,0,0,1,0,0,8.42,8.42,0,0,1,.59-.88c.13-.16.31-.38.54-.64l.09-.11a2.94,2.94,0,0,1,1.91,0,7.74,7.74,0,0,1,1.56.7c-.11-.09-.21-.19-.32-.3a2.09,2.09,0,0,0,.55.41l.12.05.14,0,.23-.05s0-.07,0-.22l-.08-.14a12.48,12.48,0,0,0-1.07-1.51l0,0-.07-.08,0,0,.11-.13a3.71,3.71,0,0,1,2,1l.06.05.27.32v0h0a3.62,3.62,0,0,1,.26,2.15,3.81,3.81,0,0,1-1.16,2.26c-.22.21-.41.41-.57.59l0,0c-.16.24-.32.48-.46.72s-.27.45-.39.67a13.63,13.63,0,0,0-.93,1.94c-.08.23-.17.47-.27.71l-.21.53c-.29.71-.62,1.46-1,2.25a10.14,10.14,0,0,1-2,3,11.79,11.79,0,0,1-3,2.07Zm-.21,1.33a.35.35,0,0,1,0-.14l.2,0Z"/><path class="cls-25" d="M240.34,176a25.16,25.16,0,0,0,.42-7.43H242a2.17,2.17,0,0,1,2.46,2.45v19.56a2.15,2.15,0,0,1-2.46,2.3H214a2.14,2.14,0,0,1-2.45-2.3v-3.08c1.47.06,2.94.14,4.41.22l1.89.15a20,20,0,0,0,3.58,1.18,26.53,26.53,0,0,0,5.81.63,21.63,21.63,0,0,0,10.94-2.61c3-1.74,4.53-3.83,4.54-6.28A6.27,6.27,0,0,0,240.34,176Zm-65.18-51.53a4,4,0,0,1-2.06-.88,3.9,3.9,0,0,1-1.13-2.27c-.12-.64-.22-1.15-.31-1.53a4,4,0,0,0-.25-.7,2.56,2.56,0,0,0-2.41-1,14.72,14.72,0,0,0-5.54,1.22c-2.44,1-3.67,2.35-3.67,3.91a2.48,2.48,0,0,0,.05.45,1.39,1.39,0,0,0-.05.32,2.91,2.91,0,0,0,1.22,2.74,3,3,0,0,0,.47.23,8.43,8.43,0,0,0,2.23.34,9.07,9.07,0,0,1,2.68.45,2.18,2.18,0,0,1,1.12,1.64l-16.88,9.77-15-8.64a18.82,18.82,0,0,0-3.06-.52,3.59,3.59,0,0,0-2.66.85,5,5,0,0,0-.85,1.48c-.07.16-.14.34-.21.53a5.53,5.53,0,0,1-1.1,2l-.38.29a5,5,0,0,1-2.61.61,9.56,9.56,0,0,1-2.64-.36,9.24,9.24,0,0,1-2.11-.88,5.41,5.41,0,0,1-1.51-1.1,4.67,4.67,0,0,1-1.22-2.32,3,3,0,0,1-.13-.7,3.54,3.54,0,0,1,.07-.47,1.83,1.83,0,0,1,.92-1.34.8.8,0,0,1,.16-.08,5.53,5.53,0,0,1,2.23-.18h.31a13.05,13.05,0,0,0,2,0,2.13,2.13,0,0,0,.51-.18,2,2,0,0,0,1.15-1.92v-.36a2.45,2.45,0,0,0,0-.27.74.74,0,0,0,0-.18v-.36a3.78,3.78,0,0,0-.2-1.08l-6.83-3.91.8,0c.42,0,1.17,0,2.27,0,.3,0,.47-.14.5-.47a0,0,0,0,1,0,0,.49.49,0,0,0-.38-.54,10.3,10.3,0,0,0-3.16-.48c-.63,0-1.54,0-2.72,0l-.16-.09,3.85-2.22,9.78-5.64,8.09-4.67,3.09-1.78,3-1.71,8.2-4.74L152.92,99l3.06,1.77,5,2.88,20.63,11.92a11.64,11.64,0,0,1-1.42,2.26,2.91,2.91,0,0,0-.39.67,1.8,1.8,0,0,0-.12.9c-.29.12-.57.25-.87.41q-.09.19-.18.42A7.61,7.61,0,0,0,175.16,124.51Zm8.12-39.79,4.34,3.38c-.05.33-.09.65-.13,1l-1.27-.77a43,43,0,0,1-5.79-4.55l0,0-.65-.6.17.12s.05,0,.11,0a1,1,0,0,0,.87-.38l0,0,1.7,1.33.56.88ZM82.07,112.83l-.32-4.91,1.29-.36.67,3.58q-.45,1.8-.72,2.82Zm21.05,46.82s-.43.47-1.2,1.26a4.34,4.34,0,0,0-1,1.58c-.22-.44-.45-.85-.69-1.24a49,49,0,0,0-3.28-4,.38.38,0,0,0,.15,0q2-.78,6.92.12.84.41,1.41.72a1.88,1.88,0,0,1,.68.59A4,4,0,0,0,103.12,159.65Zm-8,25.57h0c.07-.19.13-.39.2-.59l.12-.33c.75-2.07,1.48-4.15,2.21-6.24l.21-.63a35.5,35.5,0,0,1,1.66-4.05c.06-.14.13-.28.2-.42s.11-.21.17-.32a14.1,14.1,0,0,0,1.61-6.73,5.28,5.28,0,0,0,1.11.94c1.31.84,2,1.33,2.23,1.47a.06.06,0,0,1,0,0h0l.67.28q.16,1,.39,2.1a5.56,5.56,0,0,1-1.55,5l-.33.35c-.15.16-.31.31-.48.47a15.37,15.37,0,0,0-2.86,3.35,11.42,11.42,0,0,0-1.17,2.48,4.74,4.74,0,0,1-.94,1.69,3.47,3.47,0,0,1-.45.41A4.4,4.4,0,0,1,95.17,185.22Z"/><path class="cls-26" d="M212.76,155.68a.78.78,0,0,0,0,.14.08.08,0,0,1,0,.07c1.73-.85,2.91-1.46,3.56-1.82.31-.17.63-.35,1-.55s.93-.6,1.41-1,.7-.51,1.05-.79a11.6,11.6,0,0,0,2.23-2.47,4.42,4.42,0,0,1,1.91-1.83c.23.18.45.37.68.57.82.64,1.24,1.2,1.24,1.66q0,2.67-7.16,6.53c-1.14.61-2.4,1.24-3.81,1.89-1.81.85-4.32,2-7.51,3.38-.57.27-1.08.51-1.51.74a13.36,13.36,0,0,1,0-2.52l.23-.18a15.33,15.33,0,0,1,2.95-1.92c1.24-.49,2.52-1.07,3.82-1.73Zm26.48,6.45a7.22,7.22,0,0,1-3.16,5.42,9.22,9.22,0,0,1-3,1.49l-.32.09a.09.09,0,0,0,0,0,2.23,2.23,0,0,0-.15-.47,7.67,7.67,0,0,0-.38-.79l-.34-.63a12.16,12.16,0,0,0,3.24-1.58,10,10,0,0,0,3.9-4.86,6.24,6.24,0,0,1,.2,1.26A.49.49,0,0,1,239.24,162.13ZM75.6,103.56l-1.21-1.92a2.51,2.51,0,0,1-.81-1.57A3.07,3.07,0,0,1,74,98.4a7.2,7.2,0,0,1,.76-1.08,8.83,8.83,0,0,1,.32,1.87,2.84,2.84,0,0,0,1.11.35,10.76,10.76,0,0,0,5.7,5.89l.24.11-.06.08-1.19,1.75-1,1.52-.48.72Zm24.12-11.7a5.43,5.43,0,0,1,.49,1.66l-.3.1-2.13.69a28,28,0,0,1-4.64,1.21,2.16,2.16,0,0,1-2-1c0-.08-.09-.16-.13-.24l-.15,0,.31-.12c1.56-.63,2.63-1,3.22-1.23l.22-.1.63-.18.66-.18.2,0c.56-.14,1.69-.49,3.4-1.06ZM130,88.19a8.76,8.76,0,0,0-3.55-4.85c-.1-.1-.2-.21-.31-.31a.36.36,0,0,0,0-.11,18.21,18.21,0,0,1,2.18.65,6.76,6.76,0,0,1,3.4,2.88,154.1,154.1,0,0,0,10.73,16l-3,1.71a46.56,46.56,0,0,1-5.67-7.48q-.63-1.12-2.1-4.73A36.91,36.91,0,0,0,130,88.19Zm53.62-4.69-.34,1.22-.1.36-.56-.88-1.5-2.33-.75-1.16,0,0a7.53,7.53,0,0,0,3-7.3,6.94,6.94,0,0,0,1.11-1.87l.16.08a2.57,2.57,0,0,1,1.31,3.56Zm-2.26,37.55c-.27-.12-.53-.25-.79-.39a1.5,1.5,0,0,1-.91-1.26,1.8,1.8,0,0,1,.12-.9,2.91,2.91,0,0,1,.39-.67,11.64,11.64,0,0,0,1.42-2.26l.06-.13.32-.54a1.69,1.69,0,0,0,1.12,1.28,12.73,12.73,0,0,0,1.39.5l-.3.38-1,1.31-.45.62C182.15,119.81,181.69,120.5,181.36,121.05ZM114.27,90.61a3.23,3.23,0,0,0,1.25,2.61,24.51,24.51,0,0,0,3.62,2.57l-.63.92-1.24,1.83-.47.69-4.6-7.33-.4-.63a2.81,2.81,0,0,1-.42-3.49,4.28,4.28,0,0,1,1-1.42l.09.13a1.78,1.78,0,0,0,.28.32,6.07,6.07,0,0,1,.58.54v0a4.76,4.76,0,0,0,.23,1.89,8,8,0,0,0,.47,1.08A1.05,1.05,0,0,0,114.27,90.61ZM108.34,95a8.27,8.27,0,0,1,.83.59l-.83-.46Zm5.39,23c-.17-.19-.3-.34-.4-.44a.37.37,0,0,0-.11-.11,1,1,0,0,0-1.37-.11l-1.54,1.17a4.08,4.08,0,0,1-1-.36,4,4,0,0,1-1.55-1.31q-.79-1.75.11-12.6c.27-3,.43-5.46.5-7.38l2.52,1.23a.45.45,0,0,0,.32.07,13.1,13.1,0,0,1,1,8c-.38,2.07-.74,4.18-1.1,6.33a4.7,4.7,0,0,1-.86,2,10.58,10.58,0,0,0,1.89.71h0a20.67,20.67,0,0,0,4.21.9,2,2,0,0,0-.18.21A6.88,6.88,0,0,1,113.73,118Zm-12.53,3.35q4.26-.93,5-.1h0a3.08,3.08,0,0,1,.74,2c-.64.14-1.53.35-2.65.64s-2.72.7-4.51,1.19a76.13,76.13,0,0,1-8.32,2,23.57,23.57,0,0,1-9.64-1.79c-.32-.14-.64-.3-.94-.46a14.52,14.52,0,0,1-4.19-3.29q-3.94-4.47-4-11.61,2.16-1.47,4.48,1.55a11.77,11.77,0,0,1,.87,2.48q.22.83.66,2.52a4.46,4.46,0,0,0,1.59,2.41c.87.6,1.73,1.14,2.58,1.61A18,18,0,0,0,97,122.42C98.58,122,100,121.58,101.2,121.32Zm-8.51,34.92c.3-.9.62-1.8,1-2.69l.43-1c.19.46.32.75.38.88l.27.38,4.27.71,4.16.7h.06l.92,2.21-.1,0q-4.87-.9-6.92-.12a.38.38,0,0,1-.15,0Q93.86,157.32,92.69,156.24ZM111.17,162a34.35,34.35,0,0,1,7.81,2.72,5.06,5.06,0,0,1,.52,1.35,1.82,1.82,0,0,1,.07.25s0,0,0,.08a2.49,2.49,0,0,1-.3,1.84l-.08.13-.38.58-4.68-1.42q-6.51-2.1-9.06-4.43a6.47,6.47,0,0,1-1-1.13s-.18-.39-.49-1.1a10.16,10.16,0,0,1-.47-1.17,4,4,0,0,1,3-1h.08a3.09,3.09,0,0,1,.72.18,4.26,4.26,0,0,1,.61.27,9.4,9.4,0,0,1,1.26.95,16,16,0,0,1,1.4,1.24A2.48,2.48,0,0,0,111.17,162Zm67.89-81.61-.76,1.26-.48.79L177,83.73l-.74-2.7.78-.34.77-.36.23-.1a8.36,8.36,0,0,0,.88-.5l.13.6Zm-15.8,21.4a15.15,15.15,0,0,0,1.2-1.06l-.34,1.39a2.63,2.63,0,0,0-.7-.29Zm53.79,41.13,0,0a4.26,4.26,0,0,0-.83-1.66h0v0l-.27-.32-.06-.05,1-.85q.87-.74,2-1.77a4.87,4.87,0,0,1,1,.8l.13.14.07.09h0c.13.16.29.38.47.65l-.31.36,0,.18-.14.11-1.38,1.06A19.91,19.91,0,0,0,217.05,142.87ZM97.3,187a5.19,5.19,0,0,1-2.09.47h-.74l.7-2.25a4.4,4.4,0,0,0,3.07-.78,3.47,3.47,0,0,0,.45-.41h0a11.87,11.87,0,0,1-1,2.63A1,1,0,0,1,97.3,187Z"/><path class="cls-27" d="M220.33,140.38l.51,2.68c-.38,1.06-.71,2-1,2.86q-2.61,1.46-4,2.23l0,0-1.28.81q.42-1.14.9-2.16a3.24,3.24,0,0,0,1.51-1.76,3.7,3.7,0,0,0,.06-2.19,19.91,19.91,0,0,1,1.76-1.32l1.38-1.06Zm-14.44,22.5a3.61,3.61,0,0,1-.13-.64c.43-.23.94-.47,1.51-.74,3.19-1.4,5.7-2.53,7.51-3.38,1.41-.65,2.67-1.28,3.81-1.89q7.16-3.85,7.16-6.53c0-.46-.42-1-1.24-1.66-.23-.2-.45-.39-.68-.57a4.79,4.79,0,0,1,2.14-.06,5.51,5.51,0,0,1,2.16.81c1.34,1.33,2,2.54,2,3.62a3.64,3.64,0,0,1-1.63,3.26l-2.43,1.65-.42.24h0l-.47.25a5.46,5.46,0,0,1-.49.25l-.54.29-4.3,2.21-.13,0c-.43.23-.88.47-1.36.71q-7.65,3.76-9.52,3.76c-1.4,0-2.31-.39-2.75-1.17ZM226,167.79a7,7,0,0,1-1.5-1.86,7.94,7.94,0,0,1-.45-1l0-.1a6.87,6.87,0,0,0,2.16,2.14l.55.29.57.21.25.07a5.07,5.07,0,0,0,1.65.17,13.45,13.45,0,0,0,2.67-.54l.34.63a7.67,7.67,0,0,1,.38.79,2.23,2.23,0,0,1,.15.47.09.09,0,0,1,0,0l-.48.11a8.33,8.33,0,0,1-2.38.16h-.09a6.2,6.2,0,0,1-3.55-1.4Zm-38.81-48.62c-.34.62-.56,1-.67,1.27s-.39.61-.61,1a.86.86,0,0,1-.16.18,1.58,1.58,0,0,1-1,.26l-.15,0a9.51,9.51,0,0,1-2-.36l-.09,0-.09,0-.7-.24-.4-.14c.33-.55.79-1.24,1.39-2.06l.45-.62,1-1.31.3-.38.39.11.58.14.25,0,1.92.2h.24a3.7,3.7,0,0,0,.48,0c-.21.4-.44.81-.68,1.24C187.5,118.67,187.36,118.93,187.23,119.17Zm-63.5-21.58-.68-.56.1,0a7.8,7.8,0,0,0,.85-.26l.14,1.18Zm-39.47,5.83.49,4.35-.51-.42-1-.82-1.13-.91.06-.08-.24-.11a2.29,2.29,0,0,0,.1-.23c.09-.21.25-.64.48-1.28.07-.23.16-.49.26-.77.38.09.82.17,1.31.25Zm-4,26-.12,0a18.46,18.46,0,0,1-4-1.49,12.89,12.89,0,0,1-3.58-2.74,12.24,12.24,0,0,1-1.22-1.64,10.47,10.47,0,0,1-1.39-3.45c-.17-.72-.33-1.45-.5-2.2a10.72,10.72,0,0,1,0-3.16,7.93,7.93,0,0,1,2.68-4.34,5.06,5.06,0,0,1,.57-.45q0,7.14,4,11.61a14.52,14.52,0,0,0,4.19,3.29c.3.16.62.32.94.46a23.57,23.57,0,0,0,9.64,1.79,76.13,76.13,0,0,0,8.32-2c1.79-.49,3.29-.88,4.51-1.19s2-.5,2.65-.64a1.31,1.31,0,0,1,0,.28,4.59,4.59,0,0,1-.09.87.51.51,0,0,1,0,.09,8,8,0,0,1-.27,1.12c-.21.65-.47,1-.77,1l-.22.09-1.55.58-1.94.74c-.88.33-1.46.54-1.73.61l-1.65.47-1.37.39h-.07a7.77,7.77,0,0,0-.81.24c-.19.06-.75.19-1.69.4l-2.74.54Q88.09,131.49,80.25,129.45Zm25.38,39.17-.67-.28h0a.06.06,0,0,0,0,0c-.18-.14-.92-.63-2.23-1.47a5.28,5.28,0,0,1-1.11-.94,3,3,0,0,1-.8-2.07,4.89,4.89,0,0,1,.22-1.35,4.34,4.34,0,0,1,1-1.58c.77-.79,1.17-1.22,1.2-1.26a10.16,10.16,0,0,0,.47,1.17c.31.71.48,1.07.49,1.1a6.47,6.47,0,0,0,1,1.13q2.55,2.32,9.06,4.43l4.68,1.42a5.47,5.47,0,0,1-.68.79,4.17,4.17,0,0,1-1.8.85,5.51,5.51,0,0,1-.63.07,7.37,7.37,0,0,1-.94,0h-.25c-.53,0-1-.05-1.56-.11a21.82,21.82,0,0,1-2.67-.47A29.81,29.81,0,0,1,105.63,168.62Z"/><path class="cls-28" d="M120.52,128.34l-3.89-2.23-.17-.1a1,1,0,0,0,.16-.12.56.56,0,0,0,.09-.14.58.58,0,0,0,.09-.54.93.93,0,0,0-.49-.54l.15,0,.12,0,1-.36s0,0,0,0h0l0,0a.06.06,0,0,1,.06,0,.05.05,0,0,1,0,0l.42-.48v0a.72.72,0,0,0-.22-.72,1,1,0,0,1-.27-.18.35.35,0,0,1-.09-.11v-.09c0-.08.16-.18.4-.3l.07,0h0l0-.05,0,0a1.39,1.39,0,0,0,.56-.49l0,0,5.59,3.23c0,.09.05.17.07.25a4.58,4.58,0,0,1,.11.56,2.45,2.45,0,0,1,0,.27v.36a2,2,0,0,1-1.15,1.92,2.13,2.13,0,0,1-.51.18,13.05,13.05,0,0,1-2,0Zm7.11,7.41,0,5.71a4,4,0,0,1-2.33.79,5.72,5.72,0,0,1-.59,0,9.79,9.79,0,0,1-4.75-1.19,6.39,6.39,0,0,1-1.51-1.13,4.35,4.35,0,0,1-1.15-1.91,4.78,4.78,0,0,1-.18-.9V137l0-6a3.87,3.87,0,0,0,.13.84,4.72,4.72,0,0,0,1.22,2.31,5.85,5.85,0,0,0,1.51,1.11,9.8,9.8,0,0,0,2.57,1,10.4,10.4,0,0,0,2.18.23A4.65,4.65,0,0,0,127.63,135.75Zm22.6,9.73-3-1.74-11.58-6.67v-5.76l15,8.64v5.77Zm-33.44-25h0a2.21,2.21,0,0,1-.77-.16l.37-.08Zm58.12,4.82c-.13.41-.25.85-.35,1.3a1.72,1.72,0,0,0,1.28,0v4.52a4.92,4.92,0,0,1-2.74-.94,4.06,4.06,0,0,1-1.13-2.26c-.12-.7-.23-1.25-.34-1.64l0-5.69c.09.39.19.91.31,1.57a4.16,4.16,0,0,0,1.13,2.28A4.11,4.11,0,0,0,174.91,125.26Zm5.46-44.55.75,1.16a2.68,2.68,0,0,1-.05.62,1.08,1.08,0,0,1-.15.38l0,0a1,1,0,0,1-.87.38c-.06,0-.1,0-.11,0l-.17-.12c-.9-.67-1.37-1.13-1.43-1.39a.5.5,0,0,1,0-.12l.76-1.26.25,0a6.59,6.59,0,0,0,.86.27Z"/><path class="cls-29" d="M223.9,113.93a2.58,2.58,0,0,1,2.32-1,4.75,4.75,0,0,1,1.62.81,8,8,0,0,1,3.13,4.75,15.49,15.49,0,0,1,.27,5.76c-.08.65-.16,1.3-.25,1.94-.1.79-.21,1.58-.31,2.36a10.87,10.87,0,0,0-.14,1.51,12.52,12.52,0,0,0,.14,2.36c0,.11,0,.21,0,.32a9,9,0,0,0,2,4.45,14.91,14.91,0,0,0,3,2.77l.1.07a16.47,16.47,0,0,0,4.45,1.62,14.71,14.71,0,0,0,5.83-.14c1.06-.24,2.11-.51,3.13-.81a9.14,9.14,0,0,0,4.39-2.74.18.18,0,0,0,0,.09,7.44,7.44,0,0,1-2.28,4.28,15.7,15.7,0,0,1-5.9,3.55l-.5.15a16,16,0,0,1-2.06.39,10.85,10.85,0,0,1-5.17-.14,12.41,12.41,0,0,1-4-2,16.88,16.88,0,0,1-5.75-7.68c0-.11-.08-.22-.13-.33-.32-.88-.61-1.76-.84-2.64-.15-.56-.28-1.11-.39-1.68,0,0,0-.11,0-.16a8.44,8.44,0,0,0,1.45-2.16c0-.07.06-.13.09-.21a8.72,8.72,0,0,0,.81-4.93,31.25,31.25,0,0,0-.54-3.31,8.14,8.14,0,0,0-.76-2.34,2.69,2.69,0,0,0-.16-.29,1.5,1.5,0,0,0,.77-.72,1.57,1.57,0,0,0,.11-1.24,1.63,1.63,0,0,0-.79-1l-1.78-.94a1.51,1.51,0,0,0-1.23-.11,1.57,1.57,0,0,0-1,.78l-.06.13c0-.07,0-.15,0-.22a.65.65,0,0,0,0-.11A10,10,0,0,1,223.9,113.93Zm-3.08,19v-.09a0,0,0,0,1,0,0,2.24,2.24,0,0,0-.33-.78,1.67,1.67,0,0,0-.54-.48h0l.09-.06a36.17,36.17,0,0,0,3.58-3.43,16.82,16.82,0,0,0,2.32-2.94,2.29,2.29,0,0,0,.1-.23,7.43,7.43,0,0,0,.33-2.5,9.57,9.57,0,0,0-1.12-4.38l.4.22.22.54a12.63,12.63,0,0,1,1.24,4,8.68,8.68,0,0,1-.9,3.73,17.59,17.59,0,0,1-3.46,4.69l-1.38,1.29-.31.3ZM79.87,96.62a1.79,1.79,0,0,0-.81-.06,3.25,3.25,0,0,0-.82.22c-.09,0-.18.14-.27.34l-.45.88A10.74,10.74,0,0,0,77,99.08a.75.75,0,0,1-.74.46,2.84,2.84,0,0,1-1.11-.35,8.83,8.83,0,0,0-.32-1.87c-.07-.27-.16-.55-.26-.83a3,3,0,0,1,.36-.17c.2-.08.43-.16.66-.23a13.34,13.34,0,0,1,3.32-.34h.37a9.81,9.81,0,0,1,1.34.13L81,96c.7.15,1.27.26,1.71.32a3,3,0,0,0,1.75-.66,5.41,5.41,0,0,0,1.44-1.19,3.12,3.12,0,0,1-.15.43,5.29,5.29,0,0,1-2,2.41,6,6,0,0,0,.38,1.84c.12.35.36.94.72,1.78l0,.09c0,.05-.09.07-.18.07a6.32,6.32,0,0,1-1.31-.11,1.12,1.12,0,0,1-.61-.32,6,6,0,0,0-1.32-1.73C81.08,97.62,80.59,96.86,79.87,96.62ZM72,92.55a3.91,3.91,0,0,1,2.36-1.71,10.12,10.12,0,0,1,2.95-.38,20.24,20.24,0,0,0,4.05,0,19.13,19.13,0,0,0,3.18-.67,13.69,13.69,0,0,0,2.74-1.12,5.14,5.14,0,0,0,.81-.52,3.66,3.66,0,0,0,.88-.88c.59-.91.86-1.48.81-1.72.09.26.17.53.25.81a3.85,3.85,0,0,1-.56,3.58l-.15.18a4.91,4.91,0,0,1-.67.61,6.42,6.42,0,0,1-1.39.88l-.5.27-.42.22a.73.73,0,0,0-.18.14h0s0,0,0,0a10.6,10.6,0,0,1-3,.87,14.36,14.36,0,0,1-2.21.13h-.4a12.29,12.29,0,0,0-5.45.79l-.79.36-.7.36a17.57,17.57,0,0,0-1.41-1.94A1.29,1.29,0,0,1,72,92.55Zm9.62-9.49a9.09,9.09,0,0,1,.73.91q.35.44,1,1.44a6,6,0,0,1,.34.56A2.23,2.23,0,0,1,84,87c0,.83-.54,1.24-1.62,1.24a1.23,1.23,0,0,1-.6-.16,2.44,2.44,0,0,1-.55-.42c-.24-.23-.62-.65-1.15-1.27a6.15,6.15,0,0,0-.67-.59,6.49,6.49,0,0,0-4-1.25l-.45,0,.69-.45A1.51,1.51,0,0,1,75.9,84h0a7.16,7.16,0,0,1,3.13-.77,19.2,19.2,0,0,1,2,0l.65,0-.09-.18Zm2.56-2.82c.22.22.46.48.72.79q2.36,2.7,2.36,4l0,.14a.21.21,0,0,0,0,.16,5.62,5.62,0,0,1-.36-.72,5.29,5.29,0,0,0-1.22-1.56,3.43,3.43,0,0,0-1.15-.85c-.54-.69-.77-1.16-.69-1.42a1.05,1.05,0,0,1,.29-.52ZM121.73,97a3.38,3.38,0,0,1-.72-.24c-.64-.3-1.26-.63-1.87-1a24.51,24.51,0,0,1-3.62-2.57,3.23,3.23,0,0,1-1.25-2.61c0-.11,0-.22,0-.33a4.41,4.41,0,0,1,.11-.7,1.69,1.69,0,0,0-.15-1.24c-.08-.15-.16-.31-.23-.46-.36-.76-.69-1.52-1-2.3a1.23,1.23,0,0,1-.12-.26.6.6,0,0,0-.86-.42c-.15,0-.18.24-.09.65,0,0,0,.07,0,.11a8.79,8.79,0,0,1-1.53-2.47A9.39,9.39,0,0,1,110,81.5q-.09-.66-.18-1.17a9.57,9.57,0,0,0,2.29,2.19,10.79,10.79,0,0,0,1.19.73,15.38,15.38,0,0,0,3.25,1.26,2.87,2.87,0,0,1-.9,1.88h0a2.39,2.39,0,0,1-.23.22,3,3,0,0,0-.34.6,2.67,2.67,0,0,0-.23.87,3,3,0,0,0,0,.84,4,4,0,0,0,.46,1.48,1,1,0,0,0,.08.14,12.8,12.8,0,0,0,2.72,2.54l.56.42a11.47,11.47,0,0,0,2.46,1.34,5.21,5.21,0,0,0,1.73.33,2.86,2.86,0,0,0,.91-.17,10.31,10.31,0,0,0,1.84-.79l.72-.39a3.54,3.54,0,0,1-1.24,2.28l-.23.15a4.27,4.27,0,0,1-.9.49,7.8,7.8,0,0,1-.85.26l-.1,0-.28,0A3.28,3.28,0,0,1,121.73,97ZM120,71.89a11.23,11.23,0,0,1,3.47,2.54s0,0,0,0a8.58,8.58,0,0,0-1.61.77,5.44,5.44,0,0,0-1.42,1.26,5.1,5.1,0,0,1-4,1.8,1.65,1.65,0,0,1,.38-.27,6.52,6.52,0,0,0,2.9-3.84A9.56,9.56,0,0,0,120,71.89ZM110,76.5a13.63,13.63,0,0,0,2.07,2.07,9.38,9.38,0,0,0,1.79,1.1,9,9,0,0,0,3.29.83h.55A8.93,8.93,0,0,0,123,78.77a9.25,9.25,0,0,0,1.21-1,4.63,4.63,0,0,0,1-1.29,6.4,6.4,0,0,0,.36-1.17c.1-.41.18-.71.23-.91l.24.14a2.39,2.39,0,0,1,1.06,1.91,5.41,5.41,0,0,1-.38,2.23,8.44,8.44,0,0,1-.74,1.53q-.27.39-.39.54L125,79.2a0,0,0,0,0,0,0h-.07l0,0a3.88,3.88,0,0,1-.79,1.42,4.33,4.33,0,0,1-1.06.81,2.23,2.23,0,0,0-.34.14,11.2,11.2,0,0,1-3,.74h0c-1,.09-2,.14-3,.16a0,0,0,0,0,0,0,0,0,0,0,0,0,0,7.54,7.54,0,0,1-2.73-.81l-.38-.2a11.12,11.12,0,0,1-1.53-1l-.23-.19A11.29,11.29,0,0,1,110.41,79c-.35-.45-.56-.72-.65-.81v-.11A10.78,10.78,0,0,1,110,76.5Zm75.21-9.41v.41l-.21,2-.06.6,0,0h0l-.09.45q-.16.5-.36.93a6.94,6.94,0,0,1-1.11,1.87,3.73,3.73,0,0,1-.41.39l-.05,0a1,1,0,0,0,.05-.28.81.81,0,0,0,0-.16,1.1,1.1,0,0,0-.38-.62c-.34-.34-.72-.24-1.12.32a13.58,13.58,0,0,0-1.06,1.62,1.76,1.76,0,0,1-1.11,1c-.43.1-.69-.22-.78-1,0-.09,0-.18,0-.25v-.05L178,73.25l-.22-.58,0-.06-.1-.21q.66-.15,2.94-1l.26-.09c.29-.1.56-.21.81-.32a6,6,0,0,0,2.54-1.84l0,0A7.66,7.66,0,0,0,185.21,67.09ZM185,65.36a6.89,6.89,0,0,1-1,1.25c-.22.25-.47.53-.76.84a8.18,8.18,0,0,1-2.21,1.63c-.28.15-.57.28-.88.42a23.05,23.05,0,0,1-3.7,1.19l0,0h-.83c-.24,0-.46,0-.67,0s-.6,0-.84,0l-.45,0h-.07a5.18,5.18,0,0,1-.65-.07l-.67-.09a10.64,10.64,0,0,1-1.71-.4c-.33-.11-.65-.22-1-.34-.46-.21-.88-.43-1.26-.65a5,5,0,0,1-2.32-2.46,3.87,3.87,0,0,1-.13-2.7l1.1.93a12.3,12.3,0,0,0,2.41,1.46,11.39,11.39,0,0,0,4.81,1,13.08,13.08,0,0,0,5.27-1,7.61,7.61,0,0,0,.81-.4c1.35-.75,2.09-1.55,2.21-2.42a2.11,2.11,0,0,0,0-.26,13.52,13.52,0,0,0-.4-2.07c-.09-.37-.17-.7-.23-1a3.47,3.47,0,0,0,.29.25,8.11,8.11,0,0,1,2.68,4.37L185,65c0,.09,0,.17.05.25v0S185,65.33,185,65.36ZM124.9,90.3l.16,0a.22.22,0,0,1,.09.07,6.83,6.83,0,0,1-.25,1.66,1.91,1.91,0,0,1-1.26,1.46,1.94,1.94,0,0,1-.56.08,2.69,2.69,0,0,1-.65-.08,1.93,1.93,0,0,1-.83-.49,2.88,2.88,0,0,1-.58-.73,0,0,0,0,0,0,0c0-.15.07-.32.34-.5a3,3,0,0,0,.58.37,3.16,3.16,0,0,0,1.26.31,1.67,1.67,0,0,0,1.26-1,4.34,4.34,0,0,0,.17-.4A6.82,6.82,0,0,0,124.9,90.3ZM91.29,184.52l.44,2.75.29,1.87a7.67,7.67,0,0,1,0,5.22c-.08.18-.17.4-.27.67a3,3,0,0,1-2.14,1.47,9.29,9.29,0,0,1-1.8.16,4.31,4.31,0,0,1-1.15-.32l.59,4.68a5.45,5.45,0,0,1-.61,3.56,1.43,1.43,0,0,1-.14.2,3.78,3.78,0,0,1-2.37,1.49,7,7,0,0,1-1.43.13c-.78,0-1.55-.67-2.32-2l.37.1c2,.54,3.17.21,3.44-1a3.85,3.85,0,0,0,0-1.36,75.51,75.51,0,0,1-2.11-18.35c0-1,0-2,.1-3A68.74,68.74,0,0,1,89.3,154q-4.83,16.17-4.88,28c0,1.06,0,2.1.08,3.11a38.12,38.12,0,0,0,2.16,11.25c3.68-1,5-2.37,4.08-4.28a45.12,45.12,0,0,1-1.62-5.31c-.25-1-.47-2-.65-3Q86.09,170.21,91.32,155c.37-1.09.78-2.18,1.21-3.27.15-.38.3-.76.46-1.15q.35-.84.72-1.68c.29-.69.6-1.37.92-2.05s.63-1.35,1-2c0-.08.09-.15.13-.22a3.12,3.12,0,0,0-.17-3.72,5.33,5.33,0,0,0-1.2-1.08,2.15,2.15,0,0,1,.43,0,2.49,2.49,0,0,1,1.58.47c.76.58,1.14,1.68,1.14,3.31a3,3,0,0,1-.07.61,8,8,0,0,1-.24.93,12.64,12.64,0,0,0,5.76,1.27q1.73,0,4.61-2c1-.66,1.71-1.16,2.28-1.49a14,14,0,0,0-.27,2,2.3,2.3,0,0,0-2.41,1.67c-.11.31-.27.82-.5,1.51-.07.2-.14.39-.21.56a2.63,2.63,0,0,1-.44.72l-.36.11a7,7,0,0,1-2.5.18c-.16,0-.54.21-1.12.72a5.53,5.53,0,0,1-1.85,1.06c-.65.18-1.69-.27-3.13-1.35q-.21-.17-.42-.36a7.92,7.92,0,0,1-.91-1c-.28.65-.54,1.24-.76,1.77-.37.84-.66,1.52-.88,2l-.43,1c-.35.89-.67,1.79-1,2.69a54.89,54.89,0,0,0-2.88,17.55c0,.06.2,1.76.59,5.11Zm-15.8,9.33a4.27,4.27,0,0,1-1-1,10.64,10.64,0,0,1-1.8-5.12c.73,2.14,1.34,3.11,1.84,2.91a1,1,0,0,0,.43-.54c-.11-1.95-.14-3.87-.1-5.76a62,62,0,0,1,2.19-15c.25-.92.53-1.84.83-2.74.53-1.6,1.12-3.17,1.79-4.73l.18-.43c.61-1.41,1.29-2.81,2-4.18a67.48,67.48,0,0,1,5.47-8.63l1.34-1.74-1.06,1.7a92.58,92.58,0,0,0-6.5,12.75l-.27.68c-.06.14-.12.29-.17.43-.63,1.61-1.2,3.21-1.69,4.79-.21.67-.4,1.35-.58,2a53.44,53.44,0,0,0-2,12.71,45.32,45.32,0,0,0,1.33,12.5A3.93,3.93,0,0,1,75.49,193.85Z"/><path class="cls-30" d="M223.43,116.13a1.34,1.34,0,0,0,.07.39,1.55,1.55,0,0,0,.78,1l.91.48a9.57,9.57,0,0,1,1.12,4.38,7.43,7.43,0,0,1-.33,2.5,2.29,2.29,0,0,1-.1.23,16.82,16.82,0,0,1-2.32,2.94,36.17,36.17,0,0,1-3.58,3.43l-.09.06a1.1,1.1,0,0,0-.81.05l-.11.07a.38.38,0,0,0-.13.06,3.56,3.56,0,0,0-.36.25,1.18,1.18,0,0,0-.34.65,3.52,3.52,0,0,1-.91-.81,3.2,3.2,0,0,1-.22-.27,11,11,0,0,0-1-1.23,8.56,8.56,0,0,0-1-1.13l-.32-.27-1.51-1.35a6,6,0,0,1-2-3.26.78.78,0,0,0,0-.16l0-.18.06-.3c.05-.16.09-.31.14-.45l.09.08a1.45,1.45,0,0,0,.18.16c.45.39,1,.85,1.55,1.39q3.48,3.16,4.52,3.17a4.65,4.65,0,0,0,4.75-3,10,10,0,0,0,.57-3.76,7.07,7.07,0,0,0-.32-2,14.35,14.35,0,0,0-1-2.33c-.09-.18-.18-.34-.27-.49v0a4.77,4.77,0,0,1,.65-.2Zm28.2,14.64a10,10,0,0,1,2.09,6.3c0,.27,0,.56-.06.86a9.14,9.14,0,0,1-4.39,2.74c-1,.3-2.07.57-3.13.81a14.71,14.71,0,0,1-5.83.14,16.47,16.47,0,0,1-4.45-1.62l-.1-.07a14.91,14.91,0,0,1-3-2.77,9,9,0,0,1-2-4.45c0-.11,0-.21,0-.32a12.52,12.52,0,0,1-.14-2.36,10.87,10.87,0,0,1,.14-1.51c.1-.78.21-1.57.31-2.36.09-.64.17-1.29.25-1.94a15.49,15.49,0,0,0-.27-5.76,8,8,0,0,0-3.13-4.75,4.75,4.75,0,0,0-1.62-.81,2.58,2.58,0,0,0-2.32,1,4.82,4.82,0,0,1,4.28-2.9,3.48,3.48,0,0,1,2.81.9,7.83,7.83,0,0,1,1.28,1.49,4,4,0,0,0,.5.69l0,0a10.5,10.5,0,0,1,2.89,5.47,9.37,9.37,0,0,1,0,3.73l-.09.44a29.87,29.87,0,0,0-.5,3.63c0,.39-.07.78-.08,1.18a11.29,11.29,0,0,0,.13,1.73,10.77,10.77,0,0,0,.55,2.08,9.93,9.93,0,0,0,2.65,3.8,6.16,6.16,0,0,0,2.29,1.14,9.91,9.91,0,0,0,6.49-.29,5.49,5.49,0,0,0,2.52-1.91A11.67,11.67,0,0,0,251.63,130.77Zm-26-12.58.47.25a1.57,1.57,0,0,0,1.24.11l.2-.07a2.69,2.69,0,0,1,.16.29,8.14,8.14,0,0,1,.76,2.34,31.25,31.25,0,0,1,.54,3.31,8.72,8.72,0,0,1-.81,4.93c0,.08-.06.14-.09.21a8.44,8.44,0,0,1-1.45,2.16l-.2.21-.1.1-.3.35a23,23,0,0,1-2.13,2.19l-.29.21a7.78,7.78,0,0,1-1.13.09,3.58,3.58,0,0,1-1.4-.23l0,0a1.73,1.73,0,0,1-.52-.43l0,0a2.32,2.32,0,0,0,.34-1.17v-.11l.18-.17.31-.3,1.38-1.29a17.59,17.59,0,0,0,3.46-4.69,8.68,8.68,0,0,0,.9-3.73,12.63,12.63,0,0,0-1.24-4ZM85.87,94.44a5.41,5.41,0,0,1-1.44,1.19,3,3,0,0,1-1.75.66c-.44-.06-1-.17-1.71-.32l-.39-.08a9.81,9.81,0,0,0-1.34-.13h-.37a13.34,13.34,0,0,0-3.32.34c-.23.07-.46.15-.66.23a3,3,0,0,0-.36.17l0-.14a9.6,9.6,0,0,0-.87-1.66s0,0,0,0l.7-.36.79-.36a12.29,12.29,0,0,1,5.45-.79h.4A14.36,14.36,0,0,0,83.13,93a10.6,10.6,0,0,0,3-.87s0,0,0,0h0a.35.35,0,0,0,0,.18v.16a7.42,7.42,0,0,1-.06.94,5.86,5.86,0,0,1-.12.63A1.89,1.89,0,0,1,85.87,94.44Zm3.92-8.94c0,.24-.22.81-.81,1.72a3.66,3.66,0,0,1-.88.88,5.14,5.14,0,0,1-.81.52,13.69,13.69,0,0,1-2.74,1.12,19.13,19.13,0,0,1-3.18.67,20.24,20.24,0,0,1-4.05,0,10.12,10.12,0,0,0-2.95.38A3.91,3.91,0,0,0,72,92.55l0,0v-.07a.5.5,0,0,1,0-.16,7.59,7.59,0,0,1,1.35-6A7.09,7.09,0,0,1,75,84.58l.45,0a6.49,6.49,0,0,1,4,1.25,6.15,6.15,0,0,1,.67.59c.53.62.91,1,1.15,1.27a2.44,2.44,0,0,0,.55.42,1.23,1.23,0,0,0,.6.16c1.08,0,1.62-.41,1.62-1.24a2.23,2.23,0,0,0-.34-1,6,6,0,0,0-.34-.56q-.64-1-1-1.44a9.09,9.09,0,0,0-.73-.91l-.19-.41a1.23,1.23,0,0,1,1.24-.84,5.14,5.14,0,0,1,1.78.39s0,0,0,0h0a3.43,3.43,0,0,1,1.15.85,5.29,5.29,0,0,1,1.22,1.56,5.62,5.62,0,0,0,.36.72.21.21,0,0,1,0-.16l0-.14q0-1.32-2.36-4c-.26-.31-.5-.57-.72-.79.69-.48,1.48-.32,2.38.49a11.26,11.26,0,0,1,3.2,4.71A.39.39,0,0,0,89.79,85.5Zm26.7-3a.06.06,0,0,0,0,0l0,0a9.48,9.48,0,0,1,0,1.6c0,.06,0,.13,0,.2a.31.31,0,0,1,0,.13,15.38,15.38,0,0,1-3.25-1.26,10.79,10.79,0,0,1-1.19-.73,9.57,9.57,0,0,1-2.29-2.19,10.5,10.5,0,0,1-.06-2.1v0c.09.09.3.36.65.81a11.29,11.29,0,0,0,1.21,1.33l.23.19a11.12,11.12,0,0,0,1.53,1l.38.2A7.54,7.54,0,0,0,116.49,82.51Zm-6.49-6a9.61,9.61,0,0,1,.75-1.87A4.22,4.22,0,0,1,112,73.12,17.92,17.92,0,0,1,113.67,72a9.3,9.3,0,0,1,1.89-.79,7.55,7.55,0,0,1,1.49-.16,5,5,0,0,1,2,.43c.32.12.64.26,1,.41a9.56,9.56,0,0,1-.34,2.28,6.52,6.52,0,0,1-2.9,3.84,1.65,1.65,0,0,0-.38.27,5.1,5.1,0,0,0,4-1.8,5.44,5.44,0,0,1,1.42-1.26,8.58,8.58,0,0,1,1.61-.77s0,0,0,0l.13-.05a2.86,2.86,0,0,1,2-.09,1.9,1.9,0,0,1,.45.23l-.24-.14c0,.2-.13.5-.23.91a6.4,6.4,0,0,1-.36,1.17,4.63,4.63,0,0,1-1,1.29,9.25,9.25,0,0,1-1.21,1,8.93,8.93,0,0,1-5.34,1.74h-.55a9,9,0,0,1-3.29-.83,9.38,9.38,0,0,1-1.79-1.1A13.63,13.63,0,0,1,110,76.5Zm71.92-16.32c.06.29.14.62.23,1a13.52,13.52,0,0,1,.4,2.07,2.11,2.11,0,0,1,0,.26c-.12.87-.86,1.67-2.21,2.42a7.61,7.61,0,0,1-.81.4,13.08,13.08,0,0,1-5.27,1,11.39,11.39,0,0,1-4.81-1A12.3,12.3,0,0,1,167,64.8l-1.1-.93.09-.18q.59-1.12,2.25-.72a1.82,1.82,0,0,0,.9-.18,4,4,0,0,0,1.28-1.08c.17-.19.39-.46.68-.81a11.41,11.41,0,0,1,1-.94q4.38-3.59,9.14-.27ZM185,65.36a10.7,10.7,0,0,1,.18,1.63v.1a7.66,7.66,0,0,1-1,2l0,0A6,6,0,0,1,181.63,71c-.25.11-.52.22-.81.32l-.26.09q-2.28.84-2.94,1l.1.21a4,4,0,0,0-.28-.48c-.52-.84-.84-1.32-.94-1.44a23.05,23.05,0,0,0,3.7-1.19c.31-.14.6-.27.88-.42a8.18,8.18,0,0,0,2.21-1.63c.29-.31.54-.59.76-.84A6.89,6.89,0,0,0,185,65.36Zm-63.68,26.4c-.27.18-.38.35-.34.5a0,0,0,0,1,0,0,2.88,2.88,0,0,0,.58.73,1.93,1.93,0,0,0,.83.49,2.69,2.69,0,0,0,.65.08,1.94,1.94,0,0,0,.56-.08,1.91,1.91,0,0,0,1.26-1.46,6.83,6.83,0,0,0,.25-1.66.22.22,0,0,0-.09-.07l-.16,0,0,0-.75.4,0-1a2.35,2.35,0,0,1,1-.72l.33-.14.05,0,.5-2.11.09-.41c.13,2.16.25,4.3.34,6.41a6.24,6.24,0,0,1-.07,1.17l-.72.39a10.31,10.31,0,0,1-1.84.79,2.86,2.86,0,0,1-.91.17,5.21,5.21,0,0,1-1.73-.33,11.47,11.47,0,0,1-2.46-1.34l-.56-.42a12.8,12.8,0,0,1-2.72-2.54,1,1,0,0,1-.08-.14,4,4,0,0,1-.46-1.48,3,3,0,0,1,0-.84,2.67,2.67,0,0,1,.23-.87,3,3,0,0,1,.34-.6,2.39,2.39,0,0,0,.23-.22h0a6.51,6.51,0,0,1,.18,1.13,3.53,3.53,0,0,0,.52,1.89,7.83,7.83,0,0,0,.74.86,1.52,1.52,0,0,0,.84.29,2.6,2.6,0,0,0,1-.11,3.8,3.8,0,0,0,.49.26,3.16,3.16,0,0,0,.64.16h.51a4.61,4.61,0,0,1,2.43-1,5.9,5.9,0,0,1,.59.06l.56.81a7.75,7.75,0,0,0-2.34.77l-.11.07-.09,0-.27.16ZM98.7,132.62a9.65,9.65,0,0,1,1.15-.59,7.71,7.71,0,0,1,1.94-.54l.18,0a11.85,11.85,0,0,0,2.32-.52A8.78,8.78,0,0,1,106.6,132a5.12,5.12,0,0,1,1.28,1.12,2.86,2.86,0,0,1,.62,1.76.57.57,0,0,1-.21.36.76.76,0,0,1-.6.29,7.77,7.77,0,0,1-1.74-1.06,7.85,7.85,0,0,0-2.07-1.21q-1-.26-2-.42l-.76-.1A21.24,21.24,0,0,0,98.7,132.62Zm11.89-1.33a3.35,3.35,0,0,1,1,2,2.13,2.13,0,0,1,0,.27,3.66,3.66,0,0,1,0,.57c-.07.89-.22,1.92-.43,3.07,0,.23-.08.46-.13.69a6.84,6.84,0,0,1-.05.79,10.56,10.56,0,0,1-.2,1.19.08.08,0,0,1,0,0,.25.25,0,0,1,0,.07.16.16,0,0,1,0,.09v.07l-.33,1.21,0,0-.06.2-.08.21a9.7,9.7,0,0,1-6.69,2.39,18.68,18.68,0,0,1-5.3-.7,2.77,2.77,0,0,0,.58-1.75,2.92,2.92,0,0,0-.86-2.1,2.17,2.17,0,0,0-.29-.24,2.78,2.78,0,0,0-1.8-.61,2.81,2.81,0,0,0-2.07.85,3.9,3.9,0,0,0-.33.38,10.06,10.06,0,0,1,.33-1.52,1,1,0,0,0,.06-.23l.09-.31s0-.06,0-.07a.25.25,0,0,0,0-.07c.18-.37.37-.73.56-1.08l1.06-1.44c.06-.08.12-.14.16-.2h0l.69,1,.16.24q2.67,3.8,6.07,3.79a10.93,10.93,0,0,0,4.32-.52q1.74-.94,2.87-4.68c.06-.16.1-.33.15-.5a12,12,0,0,0,.28-1.62.37.37,0,0,0,0-.11c.06-.41.11-.76.16-1C110.54,131.49,110.57,131.39,110.59,131.29Zm-16.23,8.55a5.33,5.33,0,0,1,1.2,1.08,3.12,3.12,0,0,1,.17,3.72c0,.07-.09.14-.13.22-.34.68-.66,1.35-1,2s-.63,1.36-.92,2.05-.49,1.12-.72,1.68c-.16.39-.31.77-.46,1.15-.43,1.09-.84,2.18-1.21,3.27q-5.23,15.17-2.85,28.68c.18,1,.4,2,.65,3a45.12,45.12,0,0,0,1.62,5.31c1,1.91-.4,3.33-4.08,4.28A68.76,68.76,0,0,1,85.4,185.5c0-1-.05-2,0-3a94.72,94.72,0,0,1,4.82-28.37c.41-1.28.85-2.58,1.31-3.88.29-.83.6-1.66.91-2.49L89.3,154a68.74,68.74,0,0,0-7.12,26.78c-.05,1-.09,2-.1,3a75.51,75.51,0,0,0,2.11,18.35,3.85,3.85,0,0,1,0,1.36c-.27,1.23-1.41,1.56-3.44,1l-.37-.1c0-.07,0-.13,0-.2-.33-1.44-.62-2.88-.87-4.31a83.06,83.06,0,0,1-1.2-20.21,71.14,71.14,0,0,1,1.54-10.87l.21-.91c0-.22.11-.43.16-.64a72.67,72.67,0,0,1,7.47-18.63c.32-.57.65-1.14,1-1.7l-1.34,1.74a67.48,67.48,0,0,0-5.47,8.63c-.72,1.37-1.4,2.77-2,4.18l-.18.43c-.67,1.56-1.26,3.13-1.79,4.73-.3.9-.58,1.82-.83,2.74a62,62,0,0,0-2.19,15c0,1.89,0,3.81.1,5.76a1,1,0,0,1-.43.54c-.5.2-1.11-.77-1.84-2.91a62.74,62.74,0,0,1,2.52-18.89c.32-1.08.67-2.14,1-3.19q.85-2.35,1.92-4.65c.07-.13.13-.27.19-.41q1-2.09,2.17-4.09c.37-.66.77-1.31,1.18-2q1.32-2.1,2.83-4.13a68.05,68.05,0,0,1,5.72-6.67c.88-.9,1.79-1.79,2.74-2.67Z"/><path class="cls-31" d="M221.63,161.88l-31.58,18.23-9.48-5.49c-.71-.21-1.6-.47-2.68-.77a29,29,0,0,0-4.61-1,2.76,2.76,0,0,0-1.59.33l-.08.07a1.67,1.67,0,0,0-.38,1.1,1.06,1.06,0,0,1,0-.24,4.33,4.33,0,0,1,.12-1.13,1.22,1.22,0,0,1,.28-.52,2.45,2.45,0,0,1,1.67-.4,28.38,28.38,0,0,1,4.61,1.06c1.08.3,2,.56,2.68.78l9.48,5.47,31-17.89C221.23,161.58,221.42,161.73,221.63,161.88Zm-51.3-13.44a2.13,2.13,0,0,0-1.15-1.64,8.16,8.16,0,0,0-2.68-.48,7.56,7.56,0,0,1-2.23-.33,1.89,1.89,0,0,1-.45-.21,2.52,2.52,0,0,1-1.14-1.82,5.45,5.45,0,0,1-.07-.94v-.3a2.66,2.66,0,0,0,.07.45,2.48,2.48,0,0,0,1.14,1.83,1.57,1.57,0,0,0,.45.22,8.65,8.65,0,0,0,2.23.34,9,9,0,0,1,2.68.45,2.38,2.38,0,0,1,1.22,2.39Zm-4.05,18L153.42,159l.66-.4,12.2,7.07v.76Zm-7.79,6.94v-.23a2.64,2.64,0,0,1,0-.29,5,5,0,0,0,1.06,2.5,13.46,13.46,0,0,0,2.63,2.45,16.52,16.52,0,0,0,3,1.78,6.82,6.82,0,0,0,2.5.65,6.56,6.56,0,0,0,3.47-.79l0,0a2.51,2.51,0,0,0,1.06-1.17,4.18,4.18,0,0,1-.44,1.44,3.15,3.15,0,0,1-.62.5l0,0a6.46,6.46,0,0,1-3.47.81,6.58,6.58,0,0,1-2.5-.68,15.92,15.92,0,0,1-3-1.77,13.15,13.15,0,0,1-2.63-2.44A4.92,4.92,0,0,1,158.49,173.34Z"/><path class="cls-32" d="M77.32,160.55l-1.91-1.1.47-.25,1.64,1Zm45.24-14.83a2.08,2.08,0,0,1-1.1,1.91l-.07,0a6.23,6.23,0,0,1-2.54.18h-.32a6,6,0,0,0-2.18.18,2.14,2.14,0,0,0-1.19,2.05v-.27a2.74,2.74,0,0,1,.52-1.8,1.52,1.52,0,0,1,.45-.38l.22-.12a5.75,5.75,0,0,1,2.18-.15h.32a6.81,6.81,0,0,0,2.44-.16l.1-.05a2.05,2.05,0,0,0,1.17-1.95v-.09a1.24,1.24,0,0,1,0,.27,1.59,1.59,0,0,1,0,.29Zm8.38,16.77a2.48,2.48,0,0,0-2.28-1.11h-.13a10,10,0,0,0-2.52.41,13.88,13.88,0,0,0-1.5.5,11.59,11.59,0,0,0-1.54.76,7.05,7.05,0,0,0-3.38,3.3s0-.06,0-.08a1.82,1.82,0,0,0-.07-.25,6.78,6.78,0,0,1,3.47-3.49,10.29,10.29,0,0,1,1.33-.66l.06,0a14.54,14.54,0,0,1,1.65-.56,9.74,9.74,0,0,1,2.52-.43h.18a2.44,2.44,0,0,1,2.23,1.13,3.57,3.57,0,0,1,.18.53Zm3,5.48a3,3,0,0,1-.12-.45l14.39-8.32.45.25Zm-8.58,5-13.3,7.68L104.14,176l.33-.35,7.58,4.38,13.15-7.57A1.36,1.36,0,0,1,125.35,172.93Z"/><polygon class="cls-33" points="150.88 208.61 122.52 192.23 118.94 190.16 114.28 187.47 114.28 185.11 114.28 185.06 114.28 181.71 150.88 202.87 150.88 208.61"/><path class="cls-34" d="M211.25,123.63a6,6,0,0,1,2.39-3.57,16.45,16.45,0,0,1,2.64-1.48c1.3-.61,2.94-1.28,4.9-2a1.92,1.92,0,0,1,.31-.11c.09.15.18.31.27.49a14.35,14.35,0,0,1,1,2.33,7.07,7.07,0,0,1,.32,2,10,10,0,0,1-.57,3.76,4.65,4.65,0,0,1-4.75,3q-1,0-4.52-3.17c-.58-.54-1.1-1-1.55-1.39a1.45,1.45,0,0,1-.18-.16l-.09-.08C211.34,123.32,211.3,123.47,211.25,123.63Zm40.38,7.14a11.67,11.67,0,0,1-2,4.37,5.49,5.49,0,0,1-2.52,1.91,9.91,9.91,0,0,1-6.49.29,6.16,6.16,0,0,1-2.29-1.14,9.93,9.93,0,0,1-2.65-3.8,10.77,10.77,0,0,1-.55-2.08,11.29,11.29,0,0,1-.13-1.73c0-.4,0-.79.08-1.18a29.87,29.87,0,0,1,.5-3.63l.09-.44a9.37,9.37,0,0,0,0-3.73,10.5,10.5,0,0,0-2.89-5.47,5.09,5.09,0,0,0,2.73,1.32c.54.05,1.31.07,2.3.07.39,0,.82,0,1.28,0a6.64,6.64,0,0,1,4.3,1.4,5,5,0,0,1,2,4c0,.14,0,.27,0,.4a14.37,14.37,0,0,0,.5,3.7,4.59,4.59,0,0,0,.63,1,9,9,0,0,0,.75.81,10,10,0,0,0,1.84,1.44A10.77,10.77,0,0,1,251.63,130.77Zm-141.56.08a3.57,3.57,0,0,1,.52.44c0,.1,0,.2-.07.32,0,.29-.1.64-.16,1a.37.37,0,0,1,0,.11,12,12,0,0,1-.28,1.62c0,.17-.09.34-.15.5q-1.12,3.74-2.87,4.68a10.93,10.93,0,0,1-4.32.52q-3.41,0-6.07-3.79l-.16-.24-.69-1a12.71,12.71,0,0,1,1.09-1.12,12.88,12.88,0,0,1,1.8-1.32,21.24,21.24,0,0,1,2.41.13l.76.1q1,.17,2,.42a7.85,7.85,0,0,1,2.07,1.21,7.77,7.77,0,0,0,1.74,1.06.76.76,0,0,0,.6-.29.57.57,0,0,0,.21-.36,2.86,2.86,0,0,0-.62-1.76A5.12,5.12,0,0,0,106.6,132a8.78,8.78,0,0,0-2.31-1.06,2.24,2.24,0,0,0,.6-.36,2,2,0,0,1,1-.4,6.73,6.73,0,0,1,1.63-.09A4.45,4.45,0,0,1,110.07,130.85Zm-35.84,37.5c.25-.83.53-1.66.84-2.51.11-.3.22-.6.34-.89.58-1.49,1.21-3,1.91-4.4l.2-.4c.46-.93.94-1.83,1.45-2.73.63-1.11,1.3-2.21,2-3.29.45-.68.91-1.35,1.39-2s1.09-1.51,1.61-2.22a71.35,71.35,0,0,1,5.4-6.49c.35-.36.7-.7,1-1a13.23,13.23,0,0,1,2.62-2l.29-.16a4.37,4.37,0,0,1,1-.36L93,141.1c-1,.88-1.86,1.77-2.74,2.67a68.05,68.05,0,0,0-5.72,6.67q-1.51,2-2.83,4.13c-.41.65-.81,1.3-1.18,2q-1.17,2-2.17,4.09c-.06.14-.12.28-.19.41q-1.07,2.29-1.92,4.65c-.38,1-.73,2.11-1,3.19a62.74,62.74,0,0,0-2.52,18.89,78,78,0,0,1-.27-8.28A37.4,37.4,0,0,1,74.23,168.35Zm35.62-25.45c-.57.33-1.33.83-2.28,1.49q-2.88,2-4.61,2a12.64,12.64,0,0,1-5.76-1.27,8,8,0,0,0,.24-.93,3.49,3.49,0,0,0,.52-.43,2.79,2.79,0,0,0,.28-.32,18.68,18.68,0,0,0,5.3.7,9.7,9.7,0,0,0,6.69-2.39l.08-.21-.33.94C109.94,142.61,109.89,142.75,109.85,142.9ZM80.38,204.38l-.12-.25c-.13-.31-.31-.82-.53-1.51s-.47-1.69-.89-3.41c-.31-1.26-.68-2.83-1.11-4.72A45.32,45.32,0,0,1,76.4,182a53.44,53.44,0,0,1,2-12.71c.18-.67.37-1.35.58-2,.49-1.58,1.06-3.18,1.69-4.79,0-.14.11-.29.17-.43l.27-.68a92.58,92.58,0,0,1,6.5-12.75l1.06-1.7c-.34.56-.67,1.13-1,1.7a72.67,72.67,0,0,0-7.47,18.63c-.05.21-.11.42-.16.64l-.21.91a71.14,71.14,0,0,0-1.54,10.87,83.06,83.06,0,0,0,1.2,20.21c.25,1.43.54,2.87.87,4.31C80.35,204.25,80.37,204.31,80.38,204.38Zm6.28-8a38.12,38.12,0,0,1-2.16-11.25c-.06-1-.08-2.05-.08-3.11q0-11.85,4.88-28l3.1-6.24c-.31.83-.62,1.66-.91,2.49-.46,1.3-.9,2.6-1.31,3.88a94.72,94.72,0,0,0-4.82,28.37c0,1,0,2,0,3A68.76,68.76,0,0,0,86.66,196.34Z"/><path class="cls-35" d="M226.61,131.9l-.3.13.1-.1Z"/><path class="cls-36" d="M220.61,139.84l2.75-3.1,2.63-3,0-.47a.67.67,0,0,1,0-.45l.06-.07,1,.79c.23.88.52,1.76.84,2.64.05.11.09.22.13.33a4.22,4.22,0,0,1-.49.61l-3.61,4.75-2.64,3.47-.43-2.3-.51-2.68,0-.18Zm-.62-5.29a.69.69,0,0,1,0,.25.85.85,0,0,1-.83.83h0a.73.73,0,0,1-.54-.25.81.81,0,0,1-.25-.58.83.83,0,0,1,.25-.59.78.78,0,0,1,.59-.24.8.8,0,0,1,.58.24A1,1,0,0,1,220,134.55Z"/><path class="cls-37" d="M170.31,205.87l.81.17a9.79,9.79,0,0,1,3,1.31,11.48,11.48,0,0,0-2.53-1c-.45-.12-.91-.23-1.39-.31a19.6,19.6,0,0,0-2.94-.26,16,16,0,0,0-5.54.86q2.91-1.58,7.93-.88Z"/><path class="cls-38" d="M157.84,218l-.88-4.81a6.13,6.13,0,0,0,2.63,2.73c.32.18.65.35,1,.51a15.41,15.41,0,0,0,6.38,1.31,14.76,14.76,0,0,0,7.45-1.69,6.11,6.11,0,0,0,2.93-2.93l-1.3,7.11-.79,4.43-.79,4.33v0a3.15,3.15,0,0,1-.16.81l0,.13s0,0-.05,0a4.29,4.29,0,0,1-2,2,10.65,10.65,0,0,1-5.2,1.17,9.83,9.83,0,0,1-5.11-1.29c-1.41-.82-2.1-1.81-2-3v0Zm-39.37-97.28-.66-.27h0l-.18,0-.82,0-.41-.24c.35-.06.72-.11,1.11-.14l6.83,3.91a3.78,3.78,0,0,1,.2,1.08v.36a.74.74,0,0,1,0,.18,4.58,4.58,0,0,0-.11-.56c0-.08,0-.16-.07-.25l-5.59-3.23a.69.69,0,0,0,0-.32A1,1,0,0,0,118.47,120.75Zm-3.69-2.22h-.27l.15-.09.16.09Zm52.73,10.89a3.26,3.26,0,0,1,.07.74l-17,9.79-15-8.64a20.08,20.08,0,0,0-3.06-.52,3.59,3.59,0,0,0-2.66.86,3.48,3.48,0,0,0-.59.92,9.62,9.62,0,0,0-.47,1.08,5.19,5.19,0,0,1-1.1,2l-.1.1v0a4.65,4.65,0,0,1-2.88.78,10.4,10.4,0,0,1-2.18-.23,9.8,9.8,0,0,1-2.57-1,5.85,5.85,0,0,1-1.51-1.11,4.72,4.72,0,0,1-1.22-2.31,3.87,3.87,0,0,1-.13-.84v-.65a3,3,0,0,0,.13.7,4.67,4.67,0,0,0,1.22,2.32,5.41,5.41,0,0,0,1.51,1.1,9.24,9.24,0,0,0,2.11.88,9.56,9.56,0,0,0,2.64.36,5,5,0,0,0,2.61-.61l.38-.29a5.53,5.53,0,0,0,1.1-2c.07-.19.14-.37.21-.53a5,5,0,0,1,.85-1.48,3.59,3.59,0,0,1,2.66-.85,18.82,18.82,0,0,1,3.06.52l15,8.64Zm7.65-4.91c-.09.24-.17.49-.25.75a4.11,4.11,0,0,1-1.81-.81,4.16,4.16,0,0,1-1.13-2.28c-.12-.66-.22-1.18-.31-1.57a3.67,3.67,0,0,0-.25-.7,2.54,2.54,0,0,0-2.41-1,14.7,14.7,0,0,0-5.54,1.21q-3.42,1.52-3.62,3.6a2.48,2.48,0,0,1-.05-.45c0-1.56,1.23-2.86,3.67-3.91a14.72,14.72,0,0,1,5.54-1.22,2.56,2.56,0,0,1,2.41,1,4,4,0,0,1,.25.7c.09.38.19.89.31,1.53a3.9,3.9,0,0,0,1.13,2.27A4,4,0,0,0,175.16,124.51Z"/><path class="cls-39" d="M184.75,121.85c0,2.42-.1,3.77-.4,4-.06,0-1.24.33-3.53.85a27.81,27.81,0,0,0-3.31.88v.11a10.06,10.06,0,0,1-.15-2.19c0-.21,0-.44,0-.67l.06-.39c.06-.32.12-.62.18-.91a19.52,19.52,0,0,1,1-3.34q.09-.23.18-.42c.3-.16.58-.29.87-.41a1.5,1.5,0,0,0,.91,1.26c.26.14.52.27.79.39l.4.14.7.24.09,0,.09,0a9.51,9.51,0,0,0,2,.36Z"/><path class="cls-40" d="M122,170.76a2.43,2.43,0,0,1-.47-1.07v0a3.82,3.82,0,0,1,0-.61v-.25c0,.11,0,.22,0,.34a3,3,0,0,0,.12.45,2.09,2.09,0,0,0,.83,1.08,2,2,0,0,0,.51.29l.23.08-.9-.21-.13,0Zm-7.74,11,.45-.25,36.15,20.89,36.17-20.89.45.25-36.62,21.16Zm44.77-10.59h-.43a2.29,2.29,0,0,0-1.84,1.24,4.25,4.25,0,0,0-.83,2.2v-.31a3.49,3.49,0,0,1,.06-.65,3,3,0,0,0,.17-.64,4.69,4.69,0,0,1,.6-1.12,2.29,2.29,0,0,1,1.84-1.24l.57,0h.18l-.07.09h0Zm-31.6,2.49a1.94,1.94,0,0,0-.74-.93l-.07,0A5.28,5.28,0,0,0,125,172a1.87,1.87,0,0,0-.47-.46l-.31-.17-.45-.18h.06c.24.07.51.13.81.2a6.61,6.61,0,0,1,2,.66.55.55,0,0,1,.14.09,2,2,0,0,1,.87,1.35Z"/><path class="cls-41" d="M163.47,169.59a2.84,2.84,0,0,0,.26-1.12V169a3.49,3.49,0,0,1-.08.6Z"/></g></g></svg>