<svg xmlns="http://www.w3.org/2000/svg" xmlns:xlink="http://www.w3.org/1999/xlink" viewBox="0 0 300 300"><defs><style>.cls-1{isolation:isolate;}.cls-2{fill:url(#linear-gradient);}.cls-3{fill:url(#linear-gradient-2);}.cls-4{fill:#db1f26;}.cls-5{opacity:0.5;}.cls-6{fill:#010101;}.cls-7{fill:url(#linear-gradient-3);}.cls-10,.cls-11,.cls-12,.cls-13,.cls-14,.cls-15,.cls-16,.cls-8,.cls-9{opacity:0.43;}.cls-8{fill:url(#linear-gradient-4);}.cls-9{fill:url(#linear-gradient-5);}.cls-10{fill:url(#linear-gradient-6);}.cls-11{fill:url(#linear-gradient-7);}.cls-12{fill:url(#linear-gradient-8);}.cls-13{fill:url(#linear-gradient-9);}.cls-14{fill:url(#linear-gradient-10);}.cls-15{fill:url(#linear-gradient-11);}.cls-16{fill:url(#linear-gradient-12);}.cls-17,.cls-18{fill:#fff;}.cls-18,.cls-21,.cls-24{opacity:0.37;}.cls-18{mix-blend-mode:multiply;}.cls-19{fill:#9581bc;}.cls-20{fill:url(#linear-gradient-13);}.cls-22{fill:url(#linear-gradient-14);}.cls-23{fill:#a796c8;}.cls-24{fill:url(#linear-gradient-15);}</style><linearGradient id="linear-gradient" x1="-263.8" y1="1192.36" x2="34.44" y2="1192.36" gradientTransform="translate(1342.33 264.66) rotate(90)" gradientUnits="userSpaceOnUse"><stop offset="0" stop-color="#fffffd"/><stop offset="1" stop-color="#e2e3e4"/></linearGradient><linearGradient id="linear-gradient-2" x1="-252.33" y1="1192.36" x2="22.97" y2="1192.36" gradientTransform="translate(1342.33 264.66) rotate(90)" gradientUnits="userSpaceOnUse"><stop offset="0" stop-color="#4a90cd"/><stop offset="1" stop-color="#2055a6"/></linearGradient><linearGradient id="linear-gradient-3" x1="-224.81" y1="1192.37" x2="-4.57" y2="1192.37" gradientTransform="translate(1342.34 264.67) rotate(90)" xlink:href="#linear-gradient"/><linearGradient id="linear-gradient-4" x1="19.21" y1="93.73" x2="209.65" y2="200.14" gradientUnits="userSpaceOnUse"><stop offset="0" stop-color="#ded3e8"/><stop offset="0.3" stop-color="#e1cee5"/><stop offset="0.65" stop-color="#e9c0da"/><stop offset="1" stop-color="#f6aacb"/></linearGradient><linearGradient id="linear-gradient-5" x1="39.19" y1="56.27" x2="229.64" y2="162.68" xlink:href="#linear-gradient-4"/><linearGradient id="linear-gradient-6" x1="64.69" y1="10.63" x2="255.14" y2="117.04" xlink:href="#linear-gradient-4"/><linearGradient id="linear-gradient-7" x1="0.1" y1="126.23" x2="190.55" y2="232.64" xlink:href="#linear-gradient-4"/><linearGradient id="linear-gradient-8" x1="-17.83" y1="158.33" x2="172.61" y2="264.74" xlink:href="#linear-gradient-4"/><linearGradient id="linear-gradient-9" x1="1.96" y1="122.9" x2="192.41" y2="229.3" xlink:href="#linear-gradient-4"/><linearGradient id="linear-gradient-10" x1="30.89" y1="71.13" x2="221.34" y2="177.54" xlink:href="#linear-gradient-4"/><linearGradient id="linear-gradient-11" x1="35.17" y1="63.46" x2="225.62" y2="169.87" xlink:href="#linear-gradient-4"/><linearGradient id="linear-gradient-12" x1="-9.87" y1="150.65" x2="180.58" y2="257.06" xlink:href="#linear-gradient-4"/><linearGradient id="linear-gradient-13" x1="151.68" y1="204.37" x2="151.98" y2="220.67" gradientUnits="userSpaceOnUse"><stop offset="0.33" stop-color="#a796c8"/><stop offset="0.41" stop-color="#9c8ec4"/><stop offset="0.64" stop-color="#8079b8"/><stop offset="0.85" stop-color="#6e6db1"/><stop offset="1" stop-color="#6868af"/></linearGradient><linearGradient id="linear-gradient-14" x1="101.54" y1="119.59" x2="185.75" y2="222.32" gradientUnits="userSpaceOnUse"><stop offset="0" stop-color="#fff"/><stop offset="0.15" stop-color="#faf9fc"/><stop offset="0.36" stop-color="#ebe7f3"/><stop offset="0.6" stop-color="#d3cae3"/><stop offset="0.86" stop-color="#b2a3cf"/><stop offset="0.93" stop-color="#a796c8"/></linearGradient><linearGradient id="linear-gradient-15" x1="151.94" y1="68.45" x2="221.36" y2="191.01" xlink:href="#linear-gradient-14"/></defs><g class="cls-1"><g id="_05_computer" data-name="05_computer"><g id="Layer_15" data-name="Layer 15"><rect class="cls-2" x="0.85" y="0.86" width="298.25" height="298.25" rx="149.12"/><rect class="cls-3" x="12.32" y="12.33" width="275.3" height="275.3" rx="137.65"/><path class="cls-4" d="M34.83,150.78a115.85,115.85,0,1,0,231.69,0H34.83Z"/><g class="cls-5"><path class="cls-6" d="M150,288.37C73.66,288.37,11.58,226.29,11.58,150S73.66,11.59,150,11.59,288.36,73.68,288.36,150,226.28,288.37,150,288.37Zm0-275.3C74.47,13.07,13.05,74.49,13.05,150S74.47,286.9,150,286.9,286.88,225.48,286.88,150,225.46,13.07,150,13.07Z"/></g><rect class="cls-7" x="39.85" y="39.86" width="220.24" height="220.24" rx="110.12"/></g><g id="Layer_18" data-name="Layer 18"><path class="cls-8" d="M72.65,127.25s3.63-45.14,22.57-51.19,18.14,3.63,22.57,10.88,5.65,9.68,23.38,11.69,2.42,10.08,10.48,17.74,20.56,11.28,12.09,28.21-29.42,6-44.13,5.64-29.63,33.86-47,35.47-23-3.62-24.18-18.94S64.59,142.16,72.65,127.25Z"/><path class="cls-9" d="M122.52,145c3-8.18,3.31-19.75,23-23s25.35,7.25,50.74-10.48,48.37-8.47,47.16,6.85-8.87,26.2-53.21,21.77S158.8,162.35,135,165.57,121.14,148.83,122.52,145Z"/><path class="cls-10" d="M180.16,96.85s-2.22-4,3.83-9.47,18.74-3.23,26.2-8.07,16.52-3.22,13.1,2.22-14.51,9.88-22.78,7.86S190.23,98.86,180.16,96.85Z"/><path class="cls-11" d="M87.05,189s-2.62-4,9.47-10.89,13.5-5.64,14.31-2.82-4.63,5.24-10.08,10.08S91.69,191.77,87.05,189Z"/><path class="cls-12" d="M71.13,198.82c-2.35-2.29-7.86-3.42-8.67,9.88S75.58,203.17,71.13,198.82Z"/><path class="cls-13" d="M120.5,210.51s-2.21-1.41,3.63-3.83,6.85-3,9.68-10.48,16.92-15.72,20.35-8.66S131.59,211.32,120.5,210.51Z"/><path class="cls-14" d="M176.53,163.76c-2.07-1.81-3.57-4.64,4.87-9.88s12.87-4.43,12.46-1.61S179.76,166.58,176.53,163.76Z"/><path class="cls-15" d="M205.82,179c-1.48-1.54.54-4.16,11.42-10.41s27-13.1,27.61-7.25-7.86,10-14.71,10.15-9.93,5.11-14.71,7S207.77,181.05,205.82,179Z"/><path class="cls-16" d="M75.15,223.22c-1.59-1.75,3.95-6.25,9.68-9.68,13.64-8.15,30.83-23.69,35.47-14.86s-14.51,11.44-19.55,14.26-12.35,6.85-16.86,10.28S77.42,225.71,75.15,223.22Z"/><rect class="cls-17" x="76.92" y="95.73" width="149.91" height="111.31" rx="34.89"/><rect class="cls-18" x="76.92" y="95.73" width="149.91" height="111.31" rx="34.89"/><path class="cls-19" d="M217.29,209.44H86.46A12,12,0,0,1,74.52,197.5V105.27A12,12,0,0,1,86.46,93.33H217.29a12,12,0,0,1,11.94,11.94V197.5A12,12,0,0,1,217.29,209.44ZM86.46,98.13a7.14,7.14,0,0,0-7.14,7.14V197.5a7.14,7.14,0,0,0,7.14,7.14H217.29a7.14,7.14,0,0,0,7.14-7.14V105.27a7.14,7.14,0,0,0-7.14-7.14Z"/><rect class="cls-20" x="74.52" y="209.44" width="154.71" height="11.04" rx="5.42"/><g class="cls-21"><path class="cls-22" d="M101.81,102.16h51.87A18.88,18.88,0,0,1,172.56,121v59.6a20.42,20.42,0,0,1-20.42,20.42H102A19.05,19.05,0,0,1,82.92,182V121A18.89,18.89,0,0,1,101.81,102.16Z"/><path class="cls-23" d="M167,201.9H88.13a6.05,6.05,0,0,1-6-6.05V107.32a6,6,0,0,1,6-6H167.4a6,6,0,0,1,6,6v88.16A6.43,6.43,0,0,1,167,201.9ZM88.08,103a4.33,4.33,0,0,0-4.32,4.32v88.53a4.37,4.37,0,0,0,4.37,4.37H167a4.74,4.74,0,0,0,4.74-4.74V107.32A4.32,4.32,0,0,0,167.4,103Z"/><path class="cls-23" d="M94.7,102.16h66.08a11.79,11.79,0,0,1,11.79,11.79v.22a0,0,0,0,1,0,0H82.92a0,0,0,0,1,0,0v-.22A11.79,11.79,0,0,1,94.7,102.16Z"/><ellipse class="cls-17" cx="88.24" cy="108.04" rx="2.07" ry="2.19"/><ellipse class="cls-17" cx="95.42" cy="108.04" rx="2.07" ry="2.19"/><ellipse class="cls-17" cx="102.6" cy="108.04" rx="2.07" ry="2.19"/><rect class="cls-23" x="88.99" y="173.72" width="77.66" height="20.75" rx="10.18"/><rect class="cls-17" x="91.37" y="175.75" width="13.73" height="16.6" rx="6.48"/><rect class="cls-17" x="109.68" y="176.92" width="43.28" height="4.39" rx="2.15"/><rect class="cls-17" x="109.68" y="183.99" width="32.84" height="4.39" rx="2.15"/><rect class="cls-17" x="144.81" y="119.27" width="24.4" height="23.92" rx="11.74"/><rect class="cls-17" x="144.81" y="146.85" width="24.4" height="22.68" rx="11.13"/><rect class="cls-17" x="88.86" y="119.27" width="52.67" height="50.18" rx="24.62"/></g><rect class="cls-24" x="178.45" y="102.16" width="40.44" height="97.57" rx="19.85"/></g></g></g></svg>