<svg xmlns="http://www.w3.org/2000/svg" xmlns:xlink="http://www.w3.org/1999/xlink" viewBox="0 0 300 300"><defs><style>.cls-1{fill:none;}.cls-2{fill:url(#linear-gradient);}.cls-3{fill:url(#linear-gradient-2);}.cls-4{fill:#db1f26;}.cls-5{opacity:0.5;}.cls-6{fill:#010101;}.cls-7{fill:url(#linear-gradient-3);}.cls-8{clip-path:url(#clip-path);}.cls-9{fill:url(#linear-gradient-4);}.cls-10{fill:url(#linear-gradient-5);}.cls-11{fill:url(#linear-gradient-6);}.cls-12{fill:url(#linear-gradient-7);}.cls-13{fill:url(#linear-gradient-8);}.cls-14{fill:url(#linear-gradient-9);}.cls-15{fill:url(#linear-gradient-10);}.cls-16{fill:url(#linear-gradient-11);}.cls-17{opacity:0.4;}.cls-18{fill:url(#linear-gradient-12);}.cls-19{fill:url(#linear-gradient-13);}.cls-20{fill:url(#linear-gradient-14);}.cls-21{fill:url(#linear-gradient-15);}.cls-22{fill:url(#linear-gradient-16);}.cls-23{fill:url(#linear-gradient-17);}.cls-24{fill:url(#linear-gradient-18);}.cls-25{fill:url(#linear-gradient-19);}.cls-26{fill:url(#linear-gradient-20);}.cls-27{fill:url(#linear-gradient-21);}.cls-28{fill:url(#linear-gradient-22);}.cls-29{fill:url(#linear-gradient-23);}.cls-30{fill:url(#linear-gradient-24);}.cls-31{fill:url(#linear-gradient-25);}.cls-32{fill:url(#linear-gradient-26);}.cls-33{fill:url(#linear-gradient-27);}.cls-34{fill:url(#linear-gradient-28);}.cls-35{fill:url(#linear-gradient-29);}.cls-36{fill:url(#linear-gradient-30);}.cls-37{fill:url(#linear-gradient-31);}.cls-38{fill:url(#linear-gradient-32);}.cls-39{fill:url(#linear-gradient-33);}.cls-40{fill:url(#linear-gradient-34);}.cls-41{fill:url(#linear-gradient-35);}.cls-42{fill:url(#linear-gradient-36);}.cls-43{fill:url(#linear-gradient-37);}.cls-44{fill:url(#linear-gradient-38);}.cls-45{fill:url(#linear-gradient-39);}.cls-46{fill:url(#linear-gradient-40);}.cls-47{fill:url(#linear-gradient-41);}.cls-48{fill:url(#linear-gradient-42);}.cls-49{fill:url(#linear-gradient-43);}.cls-50{fill:url(#linear-gradient-44);}.cls-51{fill:url(#linear-gradient-45);}.cls-52{fill:url(#linear-gradient-46);}.cls-53{fill:url(#linear-gradient-47);}.cls-54{fill:url(#linear-gradient-48);}.cls-55{fill:url(#linear-gradient-49);}.cls-56{fill:url(#linear-gradient-50);}.cls-57{fill:url(#linear-gradient-51);}.cls-58{fill:url(#linear-gradient-52);}.cls-59{fill:url(#linear-gradient-53);}.cls-60{fill:url(#linear-gradient-54);}.cls-61{fill:url(#linear-gradient-55);}.cls-62{fill:url(#linear-gradient-56);}.cls-63{fill:url(#linear-gradient-57);}.cls-64{fill:url(#linear-gradient-58);}.cls-65{fill:url(#linear-gradient-59);}.cls-66{fill:url(#linear-gradient-60);}.cls-67{fill:url(#linear-gradient-61);}.cls-68{fill:url(#linear-gradient-62);}.cls-69{fill:url(#linear-gradient-63);}.cls-70{fill:url(#linear-gradient-64);}.cls-71{fill:url(#linear-gradient-65);}.cls-72{fill:url(#linear-gradient-66);}.cls-73{fill:url(#linear-gradient-67);}.cls-74{fill:url(#linear-gradient-68);}.cls-75{fill:url(#linear-gradient-69);}.cls-76{fill:url(#linear-gradient-70);}.cls-77{fill:url(#linear-gradient-71);}.cls-78{fill:url(#linear-gradient-72);}.cls-79{fill:url(#linear-gradient-73);}.cls-80{fill:url(#linear-gradient-74);}.cls-81{fill:url(#linear-gradient-75);}.cls-82{fill:url(#linear-gradient-76);}.cls-83{fill:url(#linear-gradient-77);}.cls-84{fill:url(#linear-gradient-78);}.cls-85{fill:url(#linear-gradient-79);}.cls-86{fill:url(#linear-gradient-80);}.cls-87{fill:url(#linear-gradient-81);}.cls-88{fill:url(#linear-gradient-82);}.cls-89{fill:url(#linear-gradient-83);}.cls-90{fill:url(#linear-gradient-84);}.cls-91{fill:url(#linear-gradient-85);}.cls-92{fill:url(#linear-gradient-86);}.cls-93{fill:url(#linear-gradient-87);}.cls-94{fill:url(#linear-gradient-88);}.cls-95{fill:url(#linear-gradient-89);}.cls-96{fill:url(#linear-gradient-90);}.cls-97{fill:url(#linear-gradient-91);}.cls-98{fill:url(#linear-gradient-92);}.cls-99{fill:url(#linear-gradient-93);}.cls-100{fill:url(#linear-gradient-94);}.cls-101{fill:url(#linear-gradient-95);}.cls-102{fill:url(#linear-gradient-96);}.cls-103{fill:url(#linear-gradient-97);}.cls-104{fill:url(#linear-gradient-98);}.cls-105{fill:url(#linear-gradient-99);}.cls-106{fill:url(#linear-gradient-100);}.cls-107{fill:url(#linear-gradient-101);}.cls-108{fill:url(#linear-gradient-102);}.cls-109{fill:url(#linear-gradient-103);}.cls-110{fill:url(#linear-gradient-104);}.cls-111{fill:url(#linear-gradient-105);}.cls-112{fill:url(#linear-gradient-106);}.cls-113{fill:url(#linear-gradient-107);}.cls-114{fill:url(#linear-gradient-108);}.cls-115{fill:url(#linear-gradient-109);}.cls-116{fill:url(#linear-gradient-110);}.cls-117{fill:url(#linear-gradient-111);}.cls-118{fill:url(#linear-gradient-112);}.cls-119{fill:url(#linear-gradient-113);}.cls-120{fill:url(#linear-gradient-114);}.cls-121{fill:url(#linear-gradient-115);}.cls-122{fill:url(#linear-gradient-116);}.cls-123{fill:url(#linear-gradient-117);}</style><linearGradient id="linear-gradient" x1="-263.8" y1="-727.67" x2="34.44" y2="-727.67" gradientTransform="translate(-577.67 264.66) rotate(90)" gradientUnits="userSpaceOnUse"><stop offset="0" stop-color="#fffffd"/><stop offset="1" stop-color="#e2e3e4"/></linearGradient><linearGradient id="linear-gradient-2" x1="-252.33" y1="-727.67" x2="22.97" y2="-727.67" gradientTransform="translate(-577.67 264.66) rotate(90)" gradientUnits="userSpaceOnUse"><stop offset="0" stop-color="#4a90cd"/><stop offset="1" stop-color="#2055a6"/></linearGradient><linearGradient id="linear-gradient-3" x1="-224.81" y1="-727.66" x2="-4.57" y2="-727.66" gradientTransform="translate(-577.66 264.67) rotate(90)" xlink:href="#linear-gradient"/><clipPath id="clip-path"><rect class="cls-1" x="39.88" y="39.86" width="220.24" height="220.24" rx="110.12"/></clipPath><linearGradient id="linear-gradient-4" x1="4224.61" y1="100.28" x2="4256.86" y2="205.58" gradientTransform="matrix(-1, 0, 0, 1, 4348.35, 0)" gradientUnits="userSpaceOnUse"><stop offset="0" stop-color="#412d83"/><stop offset="1" stop-color="#1f1a56"/></linearGradient><linearGradient id="linear-gradient-5" x1="141.49" y1="150.34" x2="11.6" y2="227.51" gradientUnits="userSpaceOnUse"><stop offset="0" stop-color="#4571b8"/><stop offset="1" stop-color="#294da1"/></linearGradient><linearGradient id="linear-gradient-6" x1="4236.17" y1="143.76" x2="4268.41" y2="249.07" xlink:href="#linear-gradient-4"/><linearGradient id="linear-gradient-7" x1="4365.63" y1="244.78" x2="4242.02" y2="207.86" gradientTransform="matrix(1, 0, 0, -1, -4134.05, 415.23)" xlink:href="#linear-gradient-4"/><linearGradient id="linear-gradient-8" x1="4198.16" y1="161.91" x2="4230.41" y2="267.21" gradientTransform="matrix(1, 0, 0, -1, -4075.96, 415.23)" xlink:href="#linear-gradient-4"/><linearGradient id="linear-gradient-9" x1="4325.53" y1="287.35" x2="4267.36" y2="244.6" gradientTransform="matrix(1, 0, 0, -1, -4075.48, 407.71)" xlink:href="#linear-gradient-4"/><linearGradient id="linear-gradient-10" x1="4346.08" y1="259.41" x2="4287.91" y2="216.66" gradientTransform="matrix(1, 0, 0, -1, -4192.63, 407.71)" xlink:href="#linear-gradient-4"/><linearGradient id="linear-gradient-11" x1="294.44" y1="247.6" x2="93.58" y2="83.04" gradientUnits="userSpaceOnUse"><stop offset="0.07" stop-color="#b0c3e5"/><stop offset="0.81" stop-color="#7391ca"/></linearGradient><linearGradient id="linear-gradient-12" x1="46" y1="-79.18" x2="506.82" y2="760.43" xlink:href="#linear-gradient-11"/><linearGradient id="linear-gradient-13" x1="41.95" y1="-76.95" x2="502.77" y2="762.66" xlink:href="#linear-gradient-11"/><linearGradient id="linear-gradient-14" x1="12.29" y1="-60.68" x2="473.11" y2="778.94" xlink:href="#linear-gradient-11"/><linearGradient id="linear-gradient-15" x1="7.64" y1="-58.13" x2="468.46" y2="781.49" xlink:href="#linear-gradient-11"/><linearGradient id="linear-gradient-16" x1="65.82" y1="-90.06" x2="526.64" y2="749.56" xlink:href="#linear-gradient-11"/><linearGradient id="linear-gradient-17" x1="79.43" y1="-97.53" x2="540.25" y2="742.09" xlink:href="#linear-gradient-11"/><linearGradient id="linear-gradient-18" x1="79.27" y1="-97.44" x2="540.1" y2="742.18" xlink:href="#linear-gradient-11"/><linearGradient id="linear-gradient-19" x1="64.96" y1="-89.59" x2="525.78" y2="750.03" xlink:href="#linear-gradient-11"/><linearGradient id="linear-gradient-20" x1="77.2" y1="-96.3" x2="538.02" y2="743.31" xlink:href="#linear-gradient-11"/><linearGradient id="linear-gradient-21" x1="52.67" y1="-82.84" x2="513.49" y2="756.78" xlink:href="#linear-gradient-11"/><linearGradient id="linear-gradient-22" x1="47.93" y1="-80.24" x2="508.75" y2="759.38" xlink:href="#linear-gradient-11"/><linearGradient id="linear-gradient-23" x1="49.99" y1="-81.37" x2="510.81" y2="758.25" xlink:href="#linear-gradient-11"/><linearGradient id="linear-gradient-24" x1="48.11" y1="-80.34" x2="508.93" y2="759.28" xlink:href="#linear-gradient-11"/><linearGradient id="linear-gradient-25" x1="17.91" y1="-63.76" x2="478.73" y2="775.86" xlink:href="#linear-gradient-11"/><linearGradient id="linear-gradient-26" x1="-2668.81" y1="60.93" x2="-2911.18" y2="224.81" gradientTransform="translate(2882.74)" gradientUnits="userSpaceOnUse"><stop offset="0" stop-color="#921d58"/><stop offset="1" stop-color="#ef3f64"/></linearGradient><linearGradient id="linear-gradient-27" x1="-2581.12" y1="1.63" x2="-2771.16" y2="130.13" xlink:href="#linear-gradient-26"/><linearGradient id="linear-gradient-28" x1="-2704.77" y1="81.69" x2="-2743.43" y2="117.97" gradientTransform="translate(2882.74)" gradientUnits="userSpaceOnUse"><stop offset="0" stop-color="#edf1fa"/><stop offset="0.11" stop-color="#f1f4fb"/><stop offset="0.52" stop-color="#fcfcfe"/><stop offset="1" stop-color="#fff"/></linearGradient><linearGradient id="linear-gradient-29" x1="-2688.75" y1="65.6" x2="-2721.3" y2="96.15" xlink:href="#linear-gradient-28"/><linearGradient id="linear-gradient-30" x1="-2767.38" y1="119.52" x2="-2962.7" y2="251.59" xlink:href="#linear-gradient-26"/><linearGradient id="linear-gradient-31" x1="-2696.71" y1="71.73" x2="-2849.86" y2="175.29" xlink:href="#linear-gradient-26"/><linearGradient id="linear-gradient-32" x1="-2796.36" y1="136.25" x2="-2827.51" y2="165.49" xlink:href="#linear-gradient-28"/><linearGradient id="linear-gradient-33" x1="-2783.44" y1="123.28" x2="-2809.68" y2="147.9" xlink:href="#linear-gradient-28"/><linearGradient id="linear-gradient-34" x1="-2698.76" y1="93.99" x2="-2859.16" y2="202.45" xlink:href="#linear-gradient-26"/><linearGradient id="linear-gradient-35" x1="-2640.72" y1="54.74" x2="-2766.49" y2="139.79" xlink:href="#linear-gradient-26"/><linearGradient id="linear-gradient-36" x1="-2722.56" y1="107.73" x2="-2748.15" y2="131.74" xlink:href="#linear-gradient-28"/><linearGradient id="linear-gradient-37" x1="-2711.95" y1="97.08" x2="-2733.5" y2="117.29" xlink:href="#linear-gradient-28"/><linearGradient id="linear-gradient-38" x1="-2751.37" y1="88.06" x2="-2874.99" y2="171.65" xlink:href="#linear-gradient-26"/><linearGradient id="linear-gradient-39" x1="-2706.64" y1="57.82" x2="-2803.57" y2="123.36" xlink:href="#linear-gradient-26"/><linearGradient id="linear-gradient-40" x1="-2769.71" y1="98.66" x2="-2789.43" y2="117.16" xlink:href="#linear-gradient-28"/><linearGradient id="linear-gradient-41" x1="-2761.54" y1="90.45" x2="-2778.14" y2="106.03" xlink:href="#linear-gradient-28"/><linearGradient id="linear-gradient-42" x1="-2791.29" y1="148.88" x2="-2914.91" y2="232.47" xlink:href="#linear-gradient-26"/><linearGradient id="linear-gradient-43" x1="-2746.56" y1="118.64" x2="-2843.49" y2="184.18" xlink:href="#linear-gradient-26"/><linearGradient id="linear-gradient-44" x1="-2809.63" y1="159.48" x2="-2829.35" y2="177.98" xlink:href="#linear-gradient-28"/><linearGradient id="linear-gradient-45" x1="-2801.46" y1="151.27" x2="-2818.06" y2="166.85" xlink:href="#linear-gradient-28"/><linearGradient id="linear-gradient-46" x1="-307.67" y1="12047.67" x2="-235.65" y2="12012.73" gradientTransform="matrix(0.95, 0.16, -0.09, 1.01, 1502.12, -11947.46)" gradientUnits="userSpaceOnUse"><stop offset="0" stop-color="#fbcdcd"/><stop offset="1" stop-color="#f48587"/></linearGradient><linearGradient id="linear-gradient-47" x1="9643.97" y1="7143.53" x2="9654.17" y2="7061.31" gradientTransform="translate(-695.64 -11801.44) rotate(49.58)" xlink:href="#linear-gradient-4"/><linearGradient id="linear-gradient-48" x1="9641.87" y1="7100.44" x2="9645.07" y2="7098.88" gradientTransform="translate(-695.64 -11801.44) rotate(49.58)" xlink:href="#linear-gradient-4"/><linearGradient id="linear-gradient-49" x1="-19714.64" y1="5262.56" x2="-19782.76" y2="5231.72" gradientTransform="translate(6929.58 -19128.27) rotate(-55.72)" xlink:href="#linear-gradient-46"/><linearGradient id="linear-gradient-50" x1="6975.39" y1="-1905.15" x2="6891.69" y2="-1987.98" gradientTransform="matrix(-0.89, 0.46, 0.46, 0.89, 7244.17, -1318.34)" xlink:href="#linear-gradient-46"/><linearGradient id="linear-gradient-51" x1="6183.75" y1="205.47" x2="6176.6" y2="212.44" gradientTransform="matrix(-1, 0, 0, 1, 6360.31, 0)" gradientUnits="userSpaceOnUse"><stop offset="0" stop-color="#e8edf8"/><stop offset="1" stop-color="#aec3e5"/></linearGradient><linearGradient id="linear-gradient-52" x1="-63.9" y1="205.47" x2="-71.05" y2="212.44" gradientTransform="matrix(1, 0, -0.17, 1, 266.66, 0)" xlink:href="#linear-gradient-51"/><linearGradient id="linear-gradient-53" x1="-1699.52" y1="0.29" x2="-1699.52" y2="371.53" gradientTransform="translate(1873.13)" gradientUnits="userSpaceOnUse"><stop offset="0" stop-color="#934b68"/><stop offset="1" stop-color="#673751"/></linearGradient><linearGradient id="linear-gradient-54" x1="6181.79" y1="126.91" x2="6181.79" y2="210.31" gradientTransform="matrix(-1, 0, 0, 1, 6360.31, 0)" xlink:href="#linear-gradient-4"/><linearGradient id="linear-gradient-55" x1="6283.58" y1="24.22" x2="6283.95" y2="-67.06" gradientTransform="matrix(-1, 0.04, 0.04, 1, 6466.49, -104.34)" xlink:href="#linear-gradient-4"/><linearGradient id="linear-gradient-56" x1="6975.53" y1="-1905.29" x2="6891.82" y2="-1988.12" gradientTransform="matrix(-0.89, 0.46, 0.46, 0.89, 7244.17, -1318.34)" xlink:href="#linear-gradient-46"/><linearGradient id="linear-gradient-57" x1="-7539.3" y1="85.8" x2="-7555.84" y2="198.57" gradientTransform="matrix(-1, 0, 0, 1, -7361.23, 0)" xlink:href="#linear-gradient-4"/><linearGradient id="linear-gradient-58" x1="-7537.07" y1="208.05" x2="-7542.23" y2="57.77" gradientTransform="matrix(-1, 0, 0, 1, -7361.23, 0)" xlink:href="#linear-gradient-4"/><linearGradient id="linear-gradient-59" x1="6184.62" y1="176.77" x2="6179.31" y2="89.27" gradientTransform="matrix(-1, 0, 0, 1, 6360.31, 0)" xlink:href="#linear-gradient-46"/><linearGradient id="linear-gradient-60" x1="6180.13" y1="133.34" x2="6179.74" y2="123.79" gradientTransform="matrix(-1, 0, 0, 1, 6360.31, 0)" xlink:href="#linear-gradient-4"/><linearGradient id="linear-gradient-61" x1="4453.69" y1="133.37" x2="4453.29" y2="123.59" gradientTransform="translate(-4276.59)" xlink:href="#linear-gradient-4"/><linearGradient id="linear-gradient-62" x1="6970.78" y1="-1900.14" x2="6886.83" y2="-1983.22" gradientTransform="matrix(-0.89, 0.46, 0.46, 0.89, 7244.17, -1318.34)" xlink:href="#linear-gradient-46"/><linearGradient id="linear-gradient-63" x1="10063.2" y1="-808.87" x2="10072.53" y2="-816.26" gradientTransform="matrix(-0.99, 0.16, 0.16, 0.99, 10252.72, -643.15)" xlink:href="#linear-gradient-46"/><linearGradient id="linear-gradient-64" x1="10065.98" y1="-816.13" x2="10074.05" y2="-814.81" gradientTransform="matrix(-0.99, 0.16, 0.16, 0.99, 10252.72, -643.15)" xlink:href="#linear-gradient-4"/><linearGradient id="linear-gradient-65" x1="-13095.81" y1="-1389.1" x2="-13091.31" y2="-1386.79" gradientTransform="matrix(0.98, -0.2, 0.2, 0.98, 13277.45, -1184.11)" xlink:href="#linear-gradient-46"/><linearGradient id="linear-gradient-66" x1="-1653.16" y1="333.82" x2="-1666.84" y2="319.14" gradientTransform="translate(1805.81 -331.98) rotate(-4.16)" xlink:href="#linear-gradient-4"/><linearGradient id="linear-gradient-67" x1="181.51" y1="108.02" x2="203.16" y2="171.62" gradientTransform="matrix(1, 0, 0, 1, 0, 0)" xlink:href="#linear-gradient-53"/><linearGradient id="linear-gradient-68" x1="14225.51" y1="150.04" x2="14249.12" y2="136.37" gradientTransform="matrix(1, 0, -0.03, 1, -14039.61, 0)" xlink:href="#linear-gradient-5"/><linearGradient id="linear-gradient-69" x1="8983.55" y1="-17670.63" x2="8982.38" y2="-17662.57" gradientTransform="matrix(0.37, 0.92, -0.93, 0.39, -19545.51, -1179.45)" xlink:href="#linear-gradient-5"/><linearGradient id="linear-gradient-70" x1="-2940.19" y1="11.77" x2="-2918.01" y2="-41.42" gradientTransform="matrix(-1, -0.06, 0.07, 1.01, -2718.4, -27.59)" xlink:href="#linear-gradient-53"/><linearGradient id="linear-gradient-71" x1="-2456.41" y1="236.84" x2="-2432.54" y2="179.58" gradientTransform="matrix(-1, 0.03, 0.16, 1, -2276.86, 1.78)" xlink:href="#linear-gradient-53"/><linearGradient id="linear-gradient-72" x1="445.62" y1="96.46" x2="438.3" y2="178.77" gradientTransform="translate(-235.11)" xlink:href="#linear-gradient-4"/><linearGradient id="linear-gradient-73" x1="434.65" y1="213.2" x2="441.38" y2="206.47" gradientTransform="translate(-235.11)" xlink:href="#linear-gradient-51"/><linearGradient id="linear-gradient-74" x1="434.22" y1="203.99" x2="441.71" y2="217.28" gradientTransform="translate(-235.11)" xlink:href="#linear-gradient-51"/><linearGradient id="linear-gradient-75" x1="440.65" y1="151.34" x2="459.92" y2="217.72" gradientTransform="translate(-235.11)" xlink:href="#linear-gradient-4"/><linearGradient id="linear-gradient-76" x1="437.78" y1="150.3" x2="469.09" y2="258.13" gradientTransform="translate(-235.11)" xlink:href="#linear-gradient-4"/><linearGradient id="linear-gradient-77" x1="182.96" y1="94.78" x2="223.75" y2="185.51" xlink:href="#linear-gradient-5"/><linearGradient id="linear-gradient-78" x1="-4171.7" y1="-956.11" x2="-4149.91" y2="-984.56" gradientTransform="matrix(-1, 0.03, 0.03, 1.07, -3917.22, 1305.46)" xlink:href="#linear-gradient-53"/><linearGradient id="linear-gradient-79" x1="436.28" y1="125.85" x2="446.43" y2="125.85" gradientTransform="translate(-235.11)" xlink:href="#linear-gradient-53"/><linearGradient id="linear-gradient-80" x1="-4376.53" y1="-502.18" x2="-4387.18" y2="-483.1" gradientTransform="matrix(-1, -0.02, -0.02, 1, -4184.13, 519.62)" xlink:href="#linear-gradient-4"/><linearGradient id="linear-gradient-81" x1="450.09" y1="123.13" x2="433.8" y2="131.59" gradientTransform="translate(-235.11)" xlink:href="#linear-gradient-53"/><linearGradient id="linear-gradient-82" x1="449.1" y1="212.59" x2="455.67" y2="206.03" gradientTransform="translate(-235.11)" xlink:href="#linear-gradient-51"/><linearGradient id="linear-gradient-83" x1="447.2" y1="201.45" x2="454.71" y2="214.77" gradientTransform="translate(-235.11)" xlink:href="#linear-gradient-51"/><linearGradient id="linear-gradient-84" x1="437.72" y1="122.56" x2="438.35" y2="130.49" gradientTransform="translate(-235.11)" xlink:href="#linear-gradient-4"/><linearGradient id="linear-gradient-85" x1="-8469.67" y1="1960.94" x2="-8463.57" y2="1997.38" gradientTransform="matrix(-0.87, 0.49, 0.49, 0.87, -8133.22, 2604.82)" xlink:href="#linear-gradient-53"/><linearGradient id="linear-gradient-86" x1="195" y1="163.32" x2="233.29" y2="108.54" xlink:href="#linear-gradient-5"/><linearGradient id="linear-gradient-87" x1="10668.1" y1="-12486.23" x2="10666.94" y2="-12478.29" gradientTransform="matrix(-0.34, 0.94, -0.93, -0.37, -7786.29, -14470.87)" xlink:href="#linear-gradient-5"/><linearGradient id="linear-gradient-88" x1="-586.41" y1="829.84" x2="-599.2" y2="906.19" gradientTransform="translate(646.87 -788.21) rotate(-8.86)" xlink:href="#linear-gradient-51"/><linearGradient id="linear-gradient-89" x1="-587" y1="792.96" x2="-600.26" y2="872.14" gradientTransform="translate(646.87 -788.21) rotate(-8.86)" xlink:href="#linear-gradient-51"/><linearGradient id="linear-gradient-90" x1="-8462.26" y1="1959.7" x2="-8456.16" y2="1996.14" gradientTransform="matrix(-0.87, 0.49, 0.49, 0.87, -8133.22, 2604.82)" xlink:href="#linear-gradient-53"/><linearGradient id="linear-gradient-91" x1="-6434.11" y1="2356.26" x2="-6428" y2="2392.7" gradientTransform="matrix(-0.61, 0.79, 0.79, 0.61, -5636.7, 3766.9)" xlink:href="#linear-gradient-53"/><linearGradient id="linear-gradient-92" x1="-599.52" y1="829" x2="-611.89" y2="902.83" gradientTransform="translate(646.87 -788.21) rotate(-8.86)" xlink:href="#linear-gradient-51"/><linearGradient id="linear-gradient-93" x1="7725.97" y1="205.41" x2="7718.83" y2="212.37" gradientTransform="matrix(-1, 0, 0, 1, 7961.97, 0)" xlink:href="#linear-gradient-4"/><linearGradient id="linear-gradient-94" x1="-2675.12" y1="198.13" x2="-2544.65" y2="218.49" gradientTransform="translate(2836.98)" xlink:href="#linear-gradient-4"/><linearGradient id="linear-gradient-95" x1="11439.24" y1="153.51" x2="11740.89" y2="200.59" gradientTransform="matrix(-1, 0, 0, 1, 11833.3, 0)" xlink:href="#linear-gradient-4"/><linearGradient id="linear-gradient-96" x1="11275.48" y1="-127.34" x2="11195.46" y2="-206.53" gradientTransform="matrix(-1, -0.05, -0.05, 1, 11447.26, 906)" xlink:href="#linear-gradient-46"/><linearGradient id="linear-gradient-97" x1="1900.72" y1="4827.75" x2="1820.45" y2="4748.31" gradientTransform="translate(3358.2 -3939.67) rotate(58.78)" xlink:href="#linear-gradient-46"/><linearGradient id="linear-gradient-98" x1="9422.76" y1="145.3" x2="9369.9" y2="129.95" gradientTransform="matrix(-1, 0, 0, 1, 9621.64, 0)" xlink:href="#linear-gradient-51"/><linearGradient id="linear-gradient-99" x1="9442.52" y1="204.8" x2="9316.7" y2="75.65" gradientTransform="matrix(-1, 0, 0, 1, 9621.64, 0)" xlink:href="#linear-gradient-51"/><linearGradient id="linear-gradient-100" x1="-3101" y1="1811.24" x2="-3105.2" y2="1774.37" gradientTransform="matrix(0.99, 0.16, -0.14, 0.87, 3549.21, -951.47)" xlink:href="#linear-gradient-46"/><linearGradient id="linear-gradient-101" x1="-3112.26" y1="1269.19" x2="-3102.95" y2="1261.81" gradientTransform="matrix(0.99, 0.16, -0.16, 0.99, 3501.13, -643.15)" xlink:href="#linear-gradient-46"/><linearGradient id="linear-gradient-102" x1="-3109.49" y1="1261.95" x2="-3101.43" y2="1263.27" gradientTransform="matrix(0.99, 0.16, -0.16, 0.99, 3501.13, -643.15)" xlink:href="#linear-gradient-53"/><linearGradient id="linear-gradient-103" x1="-36.02" y1="1326.89" x2="-31.53" y2="1329.2" gradientTransform="matrix(-0.98, -0.2, -0.2, 0.98, 476.41, -1184.11)" xlink:href="#linear-gradient-46"/><linearGradient id="linear-gradient-104" x1="-4546" y1="1009.36" x2="-4546.43" y2="978.14" gradientTransform="translate(4865.02 -350.92) rotate(6.53)" xlink:href="#linear-gradient-51"/><linearGradient id="linear-gradient-105" x1="12170.74" y1="-4862.59" x2="12087.22" y2="-4945.25" gradientTransform="matrix(-0.85, 0.53, 0.53, 0.85, 13142.23, -2081.77)" xlink:href="#linear-gradient-46"/><linearGradient id="linear-gradient-106" x1="10455.31" y1="-7771.98" x2="10405.84" y2="-7820.94" gradientTransform="matrix(-0.58, 0.82, 0.82, 0.58, 12621.56, -3906.14)" xlink:href="#linear-gradient-46"/><linearGradient id="linear-gradient-107" x1="9679.6" y1="-304.19" x2="9551.99" y2="-435.17" gradientTransform="matrix(-1, 0.08, 0.08, 1, 9856.23, -240.96)" xlink:href="#linear-gradient-51"/><linearGradient id="linear-gradient-108" x1="-6583.66" y1="284" x2="-6458.66" y2="242.24" gradientTransform="matrix(-0.94, 0.35, 0.35, 0.94, -5941.98, 2189.91)" gradientUnits="userSpaceOnUse"><stop offset="0" stop-color="#d2ddf1"/><stop offset="1" stop-color="#8fadda"/></linearGradient><linearGradient id="linear-gradient-109" x1="-6497.37" y1="228.4" x2="-6538.78" y2="297.97" gradientTransform="matrix(-0.94, 0.35, 0.35, 0.94, -5941.98, 2189.91)" xlink:href="#linear-gradient-26"/><linearGradient id="linear-gradient-110" x1="-6495.16" y1="242.93" x2="-6529.35" y2="308.89" gradientTransform="matrix(-1, 0, 0, 1, -6249.65, -88.19)" xlink:href="#linear-gradient-26"/><linearGradient id="linear-gradient-111" x1="-6478.67" y1="211.16" x2="-6512.86" y2="277.12" gradientTransform="matrix(-1, 0, 0, 1, -6249.65, -88.18)" xlink:href="#linear-gradient-26"/><linearGradient id="linear-gradient-112" x1="-4897.08" y1="125.27" x2="-4890.57" y2="129.47" gradientTransform="translate(5123.37 13.4)" xlink:href="#linear-gradient-4"/><linearGradient id="linear-gradient-113" x1="-4898.94" y1="126.45" x2="-4880.07" y2="138.63" gradientTransform="translate(5123.38 13.4)" xlink:href="#linear-gradient-4"/><linearGradient id="linear-gradient-114" x1="-4892.34" y1="131.18" x2="-4884.83" y2="136.03" gradientTransform="matrix(0.53, 0.84, -0.84, 0.53, 2959.85, 4207.66)" gradientUnits="userSpaceOnUse"><stop offset="0" stop-color="#514b9f"/><stop offset="1" stop-color="#1c1953"/></linearGradient><linearGradient id="linear-gradient-115" x1="9386.05" y1="134.79" x2="9381.78" y2="137.53" gradientTransform="matrix(-1, 0, 0, 1, 9621.64, 0)" xlink:href="#linear-gradient-114"/><linearGradient id="linear-gradient-116" x1="9392.3" y1="134.68" x2="9387.64" y2="137.68" gradientTransform="matrix(-1, 0, 0, 1, 9621.64, 0)" xlink:href="#linear-gradient-114"/><linearGradient id="linear-gradient-117" x1="-4542.69" y1="1010.1" x2="-4543.17" y2="974.98" gradientTransform="translate(4865.02 -350.92) rotate(6.53)" xlink:href="#linear-gradient-51"/></defs><g id="_20_country" data-name="20_country"><g id="Layer_73" data-name="Layer 73"><rect class="cls-2" x="0.88" y="0.86" width="298.25" height="298.25" rx="149.12"/><rect class="cls-3" x="12.35" y="12.33" width="275.3" height="275.3" rx="137.65"/><path class="cls-4" d="M35,150.78a115.85,115.85,0,1,0,231.69,0H35Z"/><g class="cls-5"><path class="cls-6" d="M150,288.37C73.69,288.37,11.61,226.29,11.61,150S73.69,11.59,150,11.59,288.39,73.68,288.39,150,226.31,288.37,150,288.37Zm0-275.3C74.5,13.07,13.08,74.49,13.08,150S74.5,286.9,150,286.9,286.92,225.48,286.92,150,225.5,13.07,150,13.07Z"/></g><rect class="cls-7" x="39.88" y="39.86" width="220.24" height="220.24" rx="110.12"/></g><g id="Layer_75" data-name="Layer 75"><g class="cls-8"><path class="cls-9" d="M61.44,202.58h89.44a4.51,4.51,0,0,0,4.56-5.43L147.75,149a6.63,6.63,0,0,0-6.29-5.43H52A4.52,4.52,0,0,0,47.46,149l7.69,48.14A6.62,6.62,0,0,0,61.44,202.58Zm80.5-56a2.92,2.92,0,0,1,2.78,2.39l7.69,48.14a2,2,0,0,1-2,2.4H61a2.92,2.92,0,0,1-2.78-2.4L50.49,149a2,2,0,0,1,2-2.39Z"/><path class="cls-10" d="M155.68,197.15,148,149a4.76,4.76,0,0,0-4.53-3.91H54A3.24,3.24,0,0,0,50.74,149l7.69,48.14A4.77,4.77,0,0,0,63,201.07H152.4A3.25,3.25,0,0,0,155.68,197.15Z"/><path class="cls-11" d="M63.2,202.58h89.44a4.51,4.51,0,0,0,4.56-5.43L149.51,149a6.63,6.63,0,0,0-6.29-5.43H53.78A4.52,4.52,0,0,0,49.22,149l7.69,48.14A6.62,6.62,0,0,0,63.2,202.58Zm80.5-56a2.92,2.92,0,0,1,2.78,2.39l7.69,48.14a2,2,0,0,1-2,2.4H62.72a2.92,2.92,0,0,1-2.78-2.4L52.25,149a2,2,0,0,1,2-2.39Z"/><rect class="cls-12" x="57.01" y="205.13" width="100.29" height="4.97" rx="2.4" transform="translate(214.3 415.23) rotate(-180)"/><rect class="cls-13" x="86.05" y="205.13" width="100.29" height="4.97" rx="2.4" transform="translate(272.39 415.23) rotate(180)"/><rect class="cls-14" x="132.37" y="202.58" width="8.13" height="2.55" rx="1.23" transform="translate(272.87 407.71) rotate(180)"/><rect class="cls-15" x="73.8" y="202.58" width="8.13" height="2.55" rx="1.23" transform="translate(155.73 407.71) rotate(180)"/><circle class="cls-16" cx="151.93" cy="130.84" r="53.5"/><g class="cls-17"><path class="cls-18" d="M148.07,102.24a.65.65,0,0,0-.19-.71c-.37-.36-.78-.21-1.25-.18s-1.24,0-1.85,0a3.22,3.22,0,0,0-1.28.15c-.39.15-.7.52-.59.86a.79.79,0,0,0,.24.34,3.58,3.58,0,0,0,2.67.6,3.43,3.43,0,0,0,2-.65A.94.94,0,0,0,148.07,102.24Z"/><path class="cls-19" d="M143.77,99.81c.28-.28-.11-.58-.47-.62a7.17,7.17,0,0,1-.93,0c-.2,0-.58-.28-.39-.48a.91.91,0,0,1,.37-.17c.93-.28,1.22-1.05,1.86-1.59a7.52,7.52,0,0,0,1.36-1,.8.8,0,0,0,.15-.72c-.09-.27-.38-.46-.55-.71a1.08,1.08,0,0,1-.11-1A3.17,3.17,0,0,1,146.61,92c.6-.33,1.21-.64,1.84-.92h0c.56-.25.32-.95-.32-.91-.41,0-.8.07-1.15.12a4.61,4.61,0,0,1-1.92,0,5.71,5.71,0,0,1-1.2-.7c-1.55-.95-3.7-.84-5.55-.39a7.34,7.34,0,0,1-2.12.34c-.65,0-1.25-.28-1.89-.35-1.9-.21-3.51,1-5.35,1.12a13.51,13.51,0,0,0-1.91,0,12.43,12.43,0,0,0-2.79,1.29,25.08,25.08,0,0,0-2.84,1.7l-.23.17a.9.9,0,0,0-.21.23c-.22.41.21.69.65.84a2.32,2.32,0,0,0,.42.1,5.14,5.14,0,0,0,.55.06l.56,0a11.94,11.94,0,0,1,3.29.39,7.47,7.47,0,0,1,3.86,3.37,3.76,3.76,0,0,1,.65,2.87c-.18.74-.68,1.44-.54,2.22a2.48,2.48,0,0,0,1.16,1.71A2.94,2.94,0,0,0,135,105c.63-.73.57-1.78,1.33-2.42.91-.76,2.42-.61,3.43-1.3.27-.18.5-.41.77-.6.89-.61,2.22-.21,3.14-.81A.27.27,0,0,0,143.77,99.81Z"/><path class="cls-20" d="M139.35,141.7a6.5,6.5,0,0,0-2.18-.86,14.2,14.2,0,0,1-5.2-3.55c-.28-.25-.55-.52-.81-.8l-.77-.85a7.53,7.53,0,0,0-3.33-2.43,4.31,4.31,0,0,0-1.5-.15,5.91,5.91,0,0,0-1.14.17,6,6,0,0,0-1,.37,11.61,11.61,0,0,0-3,2,3.21,3.21,0,0,0-.39.33c-2,2.15-3.48,5.48-1.28,7.88.9,1,2.12,1.74,2.92,2.78a7.51,7.51,0,0,1,1.52,5.32c0,.26-.08.52-.13.77-.14.52-.32,1-.49,1.56l-.12.38c-.23.61-.47,1.21-.69,1.82a44.93,44.93,0,0,0-1.31,4.38,8.19,8.19,0,0,0-.31,3.22,5.94,5.94,0,0,0,.55,2.06,6.27,6.27,0,0,0,1.48,1.9c.59.5,1.62.15,1.62-.54a8.83,8.83,0,0,1,.54-3.8,14.56,14.56,0,0,1,3.1-4.21,70.57,70.57,0,0,0,5.72-6.45l.2-.25c1.07-.87,2-2.2,3.17-2.74l.34-.28a4.47,4.47,0,0,0,.42-.45l.18-.2c1.22-1.45,1.4-3.28,2-4.93C139.73,143.31,140.22,142.44,139.35,141.7Z"/><path class="cls-21" d="M130.35,164l-.12,0a1.5,1.5,0,0,0-.89,0,.73.73,0,0,0-.53.73.24.24,0,0,0,.07.16.51.51,0,0,0,.25.1,4.29,4.29,0,0,0,1.24,0,.47.47,0,0,0,.21-.06.37.37,0,0,0,.13-.21.68.68,0,0,0,0-.44A.36.36,0,0,0,130.35,164Z"/><path class="cls-22" d="M163.73,93a4,4,0,0,0,.57-.14c1.15-.37,2.11-1.13,3.36-1.31a2.78,2.78,0,0,0,1.65-.56c.77-.84-1.13-.88-1.81-.9h-.29a23.46,23.46,0,0,0-3.45.36c-.67.1-2.15.16-2.55.69a.82.82,0,0,0,0,.88A2.28,2.28,0,0,0,163.73,93Z"/><path class="cls-23" d="M178.85,90.06a.3.3,0,0,0-.14.41,1,1,0,0,0,.53.38c1.36.5,2.69,0,4-.33.93-.24,2-.33,2.92-.65L185.1,89c-1,.15-2,.4-3.08.47S179.61,89.51,178.85,90.06Z"/><path class="cls-24" d="M181.76,98.18a1.79,1.79,0,0,0,2.11-.47,7.74,7.74,0,0,0,.6-1.43,3.43,3.43,0,0,1,1.6-1.59c.83-.43,1.85-.33,2.66-.73,1.07-.52.29-.82-.69-.67l-.49.08c-.61.09-1.23.19-1.83.32a9.75,9.75,0,0,0-2.3.7,3.77,3.77,0,0,0-2.23,3.12A.69.69,0,0,0,181.76,98.18Z"/><path class="cls-25" d="M191,96.42c-1.49-.32-2.34.5-3.32,1.29a6.46,6.46,0,0,1-3.44,1.59,15.46,15.46,0,0,1-2.72,0,9.13,9.13,0,0,0-3.13.18l-.14,0a14.49,14.49,0,0,1-1.42.32,3.93,3.93,0,0,1-.48.06,7.77,7.77,0,0,1-3.57-1,4.25,4.25,0,0,0-.49-.21,10.62,10.62,0,0,0-1.13-.36l-.58-.14-.53-.08a4.52,4.52,0,0,0-.53-.06,9,9,0,0,0-1.27-.08A8.67,8.67,0,0,0,167,98a6,6,0,0,0-1.64.5,4.52,4.52,0,0,0-.49.25,8.44,8.44,0,0,0-1.35,1l-.43.4a19.88,19.88,0,0,1-2.78,2.24l-.34.25a9.38,9.38,0,0,0-.93.82h0a1.07,1.07,0,0,0-.18.19,2.51,2.51,0,0,0-.46.69l-.11.18a1.56,1.56,0,0,0,.27,1.93c.31.28.76.43,1.05.73a1.33,1.33,0,0,1,0,1.73,7.39,7.39,0,0,1-2.63,2c-.76.41-2.26.89-2.47,1.7-.14.56.32,1,.34,1.56a.83.83,0,0,1-.46.81,2.46,2.46,0,0,1-.95.15,6.78,6.78,0,0,0-1,0c-1.31.17-1.23,1.58-.7,2.35a3.18,3.18,0,0,0,.27.37,2.94,2.94,0,0,0,.31.3,2.81,2.81,0,0,0,2.73.44,4.31,4.31,0,0,0,2-1.62c.07-.09.15-.18.22-.28a3.62,3.62,0,0,0,.22-.32l.21-.33a2.23,2.23,0,0,1,1.41-1.08c1.46-.28,3.22,1.55,4.24,2.24a10.06,10.06,0,0,0,2.24,1.27c1.71.62,3.34.1,5,.36a11,11,0,0,1,2.08.29c1.35.51.27,1.49-.18,2.17-1.14,1.74.23,3.18,1.34,4.61.66.86,1.07,1.73,1.76,2.6a4.37,4.37,0,0,0,3.72,1.65c2.5-.2,4.47-2.62,6-4,1-.95,2.7-1.73,4.12-.84a4.32,4.32,0,0,1,1.6,1.73c.13.22.24.45.35.67.7,1.29.74,2.7,1.32,4a1.7,1.7,0,0,0,1.79,1.25,1,1,0,0,0,.86-.84c.19-1.73,1.54-5.63,4.55-5.19a1.7,1.7,0,0,1,.8.35,1.62,1.62,0,0,1,.53.67,7.08,7.08,0,0,0,4.21,4c0-.36,0-.71,0-1.07A53.27,53.27,0,0,0,193,96.67,5.72,5.72,0,0,1,191,96.42Z"/><path class="cls-26" d="M204.3,132.89a1.36,1.36,0,0,0-.06.87,5.76,5.76,0,0,0,.1.9c0,.25.28.75-.08.75s-.25-.47-.52-.66a.83.83,0,0,0-.71-.31.78.78,0,0,0-.73,1.14,15.93,15.93,0,0,0,2.49,3.56,52.15,52.15,0,0,0,.57-5.9,2.84,2.84,0,0,0-.41-.52A.53.53,0,0,0,204.3,132.89Z"/><path class="cls-27" d="M179.67,143.43c-.34.23-.44.6-.71.87a11.84,11.84,0,0,1-1.08.71,3,3,0,0,0-.89,1.63,4.26,4.26,0,0,0-.23,3.13.66.66,0,0,0,.2.28.74.74,0,0,0,.42.12,2.43,2.43,0,0,0,1.83-1,3.66,3.66,0,0,0,.41-.66,11.23,11.23,0,0,0,.76-2.93c.09-.33.17-.66.26-1S180.56,142.83,179.67,143.43Z"/><path class="cls-28" d="M180.62,131.56a1.24,1.24,0,0,0-.23-.17,2.62,2.62,0,0,0-.75-.23c-.6-.1-1.21-.15-1.79-.29a5.09,5.09,0,0,1-2.59-1.76c-1.11-1.28-1.8-2.77-2.86-4.08a22.51,22.51,0,0,0-1.64-2c-.25-.25-.5-.48-.77-.71a9.75,9.75,0,0,0-.86-.66,5.77,5.77,0,0,0-1.42-.73,2.72,2.72,0,0,0-1.57-.1c-.35.08-.66.25-1,.33a3.51,3.51,0,0,1-1.86-.26,5.39,5.39,0,0,1-2.16-1.3,4,4,0,0,0-.68-.74,3,3,0,0,0-2.81.15c-.44.2-.88.44-1.34.61a3.17,3.17,0,0,1-1.43.23,2.62,2.62,0,0,0-1.31-.11,2.72,2.72,0,0,0-1.09.47c-.34.28-.68.58-1,.88s-.67.63-1,1a16.14,16.14,0,0,0-3,3.63,7.64,7.64,0,0,0-.46,1c-1.32,3.1,1.09,6.39,4.45,7.81a6.45,6.45,0,0,0,.85.27,7.28,7.28,0,0,0,3.62-.1c.41-.08.82-.16,1.23-.22a3.4,3.4,0,0,1,.9,0,2,2,0,0,1,1.59.88,2,2,0,0,1,.26.51c.11.52.22,1,.36,1.56.07.26.14.51.22.77a2,2,0,0,0,.27.75c.09.22.2.44.3.66,1.13,1.57.65,3.23.21,4.93-.07.24-.13.48-.18.73a2.2,2.2,0,0,0,.12,1.22,5.15,5.15,0,0,0,.27.59c.21.26.41.53.6.8s.37.54.53.82a3,3,0,0,1,.44,1.37c.06.48.09,1,.14,1.49,0,.25.06.49.1.73a2.65,2.65,0,0,0,1.23,1.88,3.21,3.21,0,0,0,2.91.16,5.93,5.93,0,0,0,1.3-.68,10.47,10.47,0,0,0,2.06-1.59,2.89,2.89,0,0,0,.35-.35,16.08,16.08,0,0,0,2.2-3c.41-.7-.29-1.78.71-2.35a3.76,3.76,0,0,0,1.13-1,2.09,2.09,0,0,0,.34-1.34c-.08-1.6-1.28-3.32-.26-4.88a11,11,0,0,1,2.64-2.47C179.2,135.65,182.31,133.15,180.62,131.56Z"/><path class="cls-29" d="M153.88,108.5a3,3,0,0,1-.1,1.72.62.62,0,0,0,.06.48.82.82,0,0,0,.55.29,2,2,0,0,0,1.51-.42,1,1,0,0,0,.42-1c-.18-.51-.93-.71-1.34-1.12a1.6,1.6,0,0,1-.39-1.34c0-.36.18-.72-.29-.91a1.2,1.2,0,0,0-1.09.17c-.48.36-.31.89,0,1.29A4.22,4.22,0,0,1,153.88,108.5Z"/><path class="cls-30" d="M151.41,110l.2,0a1.57,1.57,0,0,0,1.61-1.27.55.55,0,0,0-.09-.41,1.65,1.65,0,0,0-1.17-.29.63.63,0,0,0-.45.33c-.13.18-.33.29-.45.48a.84.84,0,0,0,0,1A.63.63,0,0,0,151.41,110Z"/><path class="cls-31" d="M102.12,126.82c.42.33.86.66,1.3,1l.63.47c.84.63,1.69,1.24,2.58,1.83l.75.46c.76.46,1.52.91,2.26,1.38l.68.45a5.69,5.69,0,0,1,.65.33c1.56.86,3.43,2.26,5.1,1.31a.5.5,0,0,0,0-.55,2.39,2.39,0,0,0-.42-.47c-1.27-1.07-2.8-2-3.48-3.41-.24-.51-.09-1.39-.73-1.74-1-.58-1.45.66-1.75,1.24s-1,.27-1.43-.14l-.12-.29-.09-.23c0-.08,0-.16-.08-.23a1.46,1.46,0,0,1,0-.2c0-1.37,1.47-2.87,2.69-3.55a3.87,3.87,0,0,1,3.47-.32,3.75,3.75,0,0,1,1.69,1.55,1.38,1.38,0,0,0,.28.4.59.59,0,0,0,.49.17c.31-.05.45-.17.49-.33,0-.63-.65-1.06-.93-1.63a1.38,1.38,0,0,1,.16-1.25c.7-1.14,2.2-1.66,2.4-3a3.68,3.68,0,0,1,.26-1.47c.69-1.16,2.65-1.36,4-1.78a44.52,44.52,0,0,0,5.17-2c.85-.39,2.25-.88,2.38-1.79.08-.54-.3-.94-.76-1.28-1.66-1.21-4.13-2-4.67-3.74-.2-.67-.35-1.64-1.2-1.64-.47,0-.84.36-1.3.41a2,2,0,0,1-1.44-.69,4.07,4.07,0,0,0-1.49-.92,1.93,1.93,0,0,0-1.76.24c-1,.87.34,2.48-.51,3.45a2.33,2.33,0,0,1-1.61.61c-2.29.15-4.66-1.46-4.54-3.34a1.87,1.87,0,0,1,.69-1.35,3.51,3.51,0,0,1,2.84-.25,3.47,3.47,0,0,0,1.39.19c.47-.07.91-.47.73-.83s-.62-.41-.94-.61a1.13,1.13,0,0,1,0-1.85,3.15,3.15,0,0,1,2.39-.46,2.39,2.39,0,0,1,1.44.63.85.85,0,0,1,0,1.26c-.3.23-.8.34-.75.72a.53.53,0,0,0,.28.36,8.44,8.44,0,0,0,3.54,1.31c1.22.06,2.57-.6,2.64-1.6v-.19c0-.1,0-.2,0-.3a3,3,0,0,0-.84-1.56c-.4-.43-.81-.84-1.24-1.22l-.43-.37a36.78,36.78,0,0,0-4.9-3,1.57,1.57,0,0,1-.63-.43,1,1,0,0,1,0-1.07c.74-1.6,2.46-2.64,4.27-3.38.85-.35,2.61-.61,2.92-1.47.25-.65-.87-1.16-1.49-1.28a15.09,15.09,0,0,0-3.8-.21l-.73,0a53.44,53.44,0,0,0-19.68,34.92c.83.78,1.73,1.52,2.62,2.24Z"/></g><path class="cls-32" d="M179,80.13a13.46,13.46,0,0,0-9.35-3.95,13.38,13.38,0,0,0-9.54,22.88l9.46,9.46.08-.09L179,99.11A13.42,13.42,0,0,0,179,80.13Z"/><path class="cls-33" d="M160,80.1a13.38,13.38,0,0,0,.05,19l9.46,9.46.08-.09V76.18A13.31,13.31,0,0,0,160,80.1Z"/><circle class="cls-34" cx="169.53" cy="89.62" r="5.71"/><path class="cls-35" d="M163.83,89.62a5.7,5.7,0,0,0,5.7,5.7V83.91A5.7,5.7,0,0,0,163.83,89.62Z"/><path class="cls-36" d="M87.19,135a10.85,10.85,0,0,0-7.53-3.19A10.78,10.78,0,0,0,72,150.25l7.63,7.62.07-.07,7.51-7.51A10.81,10.81,0,0,0,87.19,135Z"/><path class="cls-37" d="M71.92,135a10.8,10.8,0,0,0,0,15.28l7.63,7.62.07-.07v-26A10.74,10.74,0,0,0,71.92,135Z"/><circle class="cls-38" cx="79.58" cy="142.64" r="4.6"/><path class="cls-39" d="M75,142.64a4.59,4.59,0,0,0,4.6,4.59V138A4.6,4.6,0,0,0,75,142.64Z"/><path class="cls-40" d="M160.84,106.7a8.85,8.85,0,1,0-12.5,12.52l6.26,6.26.06-.06,6.17-6.17A8.87,8.87,0,0,0,160.84,106.7Z"/><path class="cls-41" d="M148.31,106.68a8.85,8.85,0,0,0,0,12.54l6.26,6.26.06-.06V104.08A8.8,8.8,0,0,0,148.31,106.68Z"/><circle class="cls-42" cx="154.6" cy="112.97" r="3.78"/><path class="cls-43" d="M150.82,113a3.78,3.78,0,0,0,3.78,3.78V109.2A3.77,3.77,0,0,0,150.82,113Z"/><path class="cls-44" d="M113.54,97.86a6.83,6.83,0,0,0-4.76-2,6.76,6.76,0,0,0-4.9,2,6.83,6.83,0,0,0,0,9.67l4.82,4.83,0,0,4.75-4.75A6.83,6.83,0,0,0,113.54,97.86Z"/><path class="cls-45" d="M103.88,97.84a6.83,6.83,0,0,0,0,9.67l4.82,4.83,0,0V95.85A6.76,6.76,0,0,0,103.88,97.84Z"/><circle class="cls-46" cx="108.73" cy="102.7" r="2.91"/><path class="cls-47" d="M105.82,102.7a2.91,2.91,0,0,0,2.91,2.91V99.79A2.91,2.91,0,0,0,105.82,102.7Z"/><path class="cls-48" d="M73.62,158.68a6.83,6.83,0,0,0-4.77-2,6.75,6.75,0,0,0-4.89,2,6.82,6.82,0,0,0,0,9.67l4.82,4.83,0,0,4.76-4.75A6.85,6.85,0,0,0,73.62,158.68Z"/><path class="cls-49" d="M64,158.66a6.82,6.82,0,0,0,0,9.67l4.82,4.83,0,0V156.67A6.75,6.75,0,0,0,64,158.66Z"/><circle class="cls-50" cx="68.81" cy="163.52" r="2.91"/><path class="cls-51" d="M65.9,163.52a2.9,2.9,0,0,0,2.91,2.9v-5.81A2.91,2.91,0,0,0,65.9,163.52Z"/><path class="cls-52" d="M171.52,130.52c-2.9.31-1.55,8.11-5.74,12.76l0,0a28.67,28.67,0,0,1-13.77-.93,12.84,12.84,0,0,1-2.06-.84c-1.48-.9-2.11.05-1,1.13a15.54,15.54,0,0,0,2.54,1.71,27.78,27.78,0,0,0,3.3,1.58,28.41,28.41,0,0,0,4.38,1.33,26.39,26.39,0,0,0,5.09.59,22.73,22.73,0,0,0,3.69-.24,1.21,1.21,0,0,0,.67-.27l.72-.64a16.67,16.67,0,0,0,1.36-1.43C177,137.35,174,129.82,171.52,130.52Z"/><path class="cls-53" d="M168.78,147.5l.32-.28.39-.35a17.1,17.1,0,0,0,1.38-1.46c5.07-6.23,4.17-12.56,2.35-14.43a1.86,1.86,0,0,0-1.75-.65c-1.66.23-2,2.44-2.62,5.3-.54,2.5-1.29,5.37-3.21,7.49a28.48,28.48,0,0,1-12.28-.53.3.3,0,0,0-.36.15c-.21.41-.67,1.33-1,1.95a.2.2,0,0,0,.11.25,23.56,23.56,0,0,0,2.57,1.18,27.88,27.88,0,0,0,4.42,1.35,26.76,26.76,0,0,0,5.13.6,23.1,23.1,0,0,0,3.72-.24A1.47,1.47,0,0,0,168.78,147.5Z"/><path class="cls-54" d="M152.17,142.43l.85.27c-.31.66-.64,1.32-1,2l-.89-.52Q151.68,143.3,152.17,142.43Z"/><path class="cls-55" d="M150.27,138.66a.19.19,0,0,0-.14.12.43.43,0,0,0,0,.22,8,8,0,0,0,.13,1.47,4.34,4.34,0,0,0-.88-.57h0c-.43-.25-3.18-2.17-3.51-1.67-.11.15,1.58,1.42,2.46,2.07-.52,1.12-1.15,1.63-.56,2.28s3.35,1.52,3.35,1.52a7.44,7.44,0,0,0,.76-1.49c.4-.5-.93-2.59-1.05-2.93a3.6,3.6,0,0,0-.33-.9.29.29,0,0,0-.15-.12Z"/><path class="cls-56" d="M182.58,130.88a1.83,1.83,0,0,1,1.09-.77,1.63,1.63,0,0,1,1.25.08,5.76,5.76,0,0,1,2.49,3.41,26.3,26.3,0,0,1,.77,2.88c.37,1.58.6,3.22.85,4.82a66.32,66.32,0,0,1,.69,9.4c0,3.85-.3,7.38-.3,7.43a21.21,21.21,0,0,1-.34,2.54c-.41,1.19-1.37,1-1.37-.2,0-.14-.19-2-.22-2.31,0,0-.29-3.65-1-7.33s-1.42-7.48-1.55-8l0-.06,0-.07c-.63-2.58-1.32-5.12-2.18-7.6C182.34,133.79,181.72,132.16,182.58,130.88Z"/><path class="cls-57" d="M180.09,210.83c2.27,0,3.07-.18,2.57-1.78a16.42,16.42,0,0,0-1.28-2.56h-3.51s-.28,1.67-.38,2.76S177.86,210.83,180.09,210.83Z"/><path class="cls-58" d="M162.54,210.83c-2.27,0-3-.18-2.26-1.78a21.58,21.58,0,0,1,1.74-2.56h3.51s0,1.67-.11,2.76S164.78,210.83,162.54,210.83Z"/><path class="cls-59" d="M186.61,157.67a5.46,5.46,0,0,0,0-.91,24.68,24.68,0,0,0-1.8-7.56h-12.7a28.17,28.17,0,0,0-3.29,8.39c0,.13-.05.26-.07.38v.08a44.77,44.77,0,0,0-1.44,7.57q-.07.65-.15,1.26c-1.35,7.48-2.66,17.47-3.54,22a2.74,2.74,0,0,0,0,.28c-1.49,7.71-3,18.11-3,18.11h5.69L177,164.81l.87,42.31h4.94L186.3,164A39.7,39.7,0,0,0,186.61,157.67Z"/><rect class="cls-60" x="172.14" y="147.69" width="12.78" height="1.51"/><path class="cls-61" d="M189.43,159.08c0-.25.07-.5.11-.74l-2.09.2.09.83Z"/><path class="cls-62" d="M182.58,130.88a1.83,1.83,0,0,1,1.09-.77,1.63,1.63,0,0,1,1.25.08,5.76,5.76,0,0,1,2.49,3.41,26.3,26.3,0,0,1,.77,2.88c.37,1.58.6,3.22.85,4.82a66.32,66.32,0,0,1,.69,9.4c0,3.85-.3,7.38-.3,7.43s0,.24,0,.36c-.61.1-1.22.18-1.83.26,0-.28-.05-.51-.06-.59s-.29-3.65-1-7.33-1.42-7.48-1.55-8l0-.06,0-.07c-.63-2.58-1.32-5.12-2.18-7.6C182.34,133.79,181.72,132.16,182.58,130.88Z"/><path class="cls-63" d="M187.55,158.75h0l1.84-.26a.29.29,0,0,0,.24-.25l0-.35v0a.68.68,0,0,1,0-.12c.21-2.46.32-5,.29-7.2a63.15,63.15,0,0,0-.68-9.29c0-.26-.09-.53-.13-.8-.2-1.31-.41-2.66-.72-4,0-.12-.06-.24-.08-.35a24.1,24.1,0,0,0-.69-2.51,5.91,5.91,0,0,0-2.62-3.5,1.48,1.48,0,0,0-.86-.19,2.63,2.63,0,0,0-.59.08,2.12,2.12,0,0,0-1.27.88c-.89,1.3-.35,2.88.08,4.15l.07.21c.94,2.66,1.66,5.38,2.18,7.46l0,.13c.13.49.93,4.2,1.54,7.87.52,2.84.81,5.66.93,7.09,0,0,0,.07,0,.1h0c0,.08,0,.3.06.58a.29.29,0,0,0,.11.19A.31.31,0,0,0,187.55,158.75Z"/><path class="cls-64" d="M169.75,134h0a8.29,8.29,0,0,1,0-1c.25-3.46,3.68-4.21,8.55-4.21h.45c4.88,0,8.31,1.51,8.56,5a12,12,0,0,1-.06,1.83l-.95,15,.58,10.9h-8.65l-.5-4.57-1.5,4.49-8.16-1.75,2.75-10.57Z"/><path class="cls-65" d="M175.64,128.9a5.85,5.85,0,0,0,.76-2.47,24,24,0,0,0,.13-3.23l2.07.11,1.74-.19a24.07,24.07,0,0,0,.13,3.23,4.84,4.84,0,0,0,1.09,2.61,3.4,3.4,0,0,1-3,1.86A3.55,3.55,0,0,1,175.64,128.9Z"/><polygon class="cls-66" points="178.64 130.84 181.37 128.2 182.01 129 179.67 131.9 178.64 130.84"/><polygon class="cls-67" points="178.64 130.84 175.91 128.1 175.27 128.9 177.61 131.9 178.64 130.84"/><path class="cls-68" d="M186.34,161.53c-.18.62-.57,1.29-.29,1.45s.48-.52.82-1a5.31,5.31,0,0,0-.2,1.23,2.33,2.33,0,0,1-.53,1.42c-.09.22-.63.84-.41,1a5.51,5.51,0,0,0,2.89-2.05,15.06,15.06,0,0,0,.63-3.92l-1-.2C187.55,159.2,186.52,160.9,186.34,161.53Z"/><path class="cls-69" d="M177.19,124.13c.76.19,1.26,2.23,3.54,2.22,1.16,0,1.6-1.37,1.76-2.49s.36-4.65-1.88-5.61c-2.39-1-4.58-.31-5.35,1.45A3.17,3.17,0,0,0,177.19,124.13Z"/><path class="cls-70" d="M180.89,119.65c-1,.09-1.44-.22-2.42.06s-.37,2.9-.67,3a1.39,1.39,0,0,1-.92-.11c-.21-.1-.68.35-.33.82a1.05,1.05,0,0,1,0,1.07,11,11,0,0,1-1.52-2.7,3.71,3.71,0,0,1,.17-2.64c.25-.71.83-1.93,1.88-2a12,12,0,0,1,3.68.21c.88.29,1,.8,1,1s0,.81,0,.81A1.76,1.76,0,0,1,180.89,119.65Z"/><path class="cls-71" d="M177.26,122.89a.79.79,0,0,0-.62-.66c-.27,0-.53,0-.47.61a1.41,1.41,0,0,0,1.29,1.23Z"/><path class="cls-72" d="M174.9,120.26s-.7-3.91,3.78-3.5c3,.28,3.64-.08,3.64-.08s1,2-.27,2.91C180.31,120.84,174.9,120.26,174.9,120.26Z"/><path class="cls-73" d="M202.48,134c-2.47-.67-2.65,4.67-7.79,9.85-.26.27-.55.54-.85.81a53.24,53.24,0,0,1-6.09-.66h0a43.25,43.25,0,0,1-5.56-1.17c-1.28-.45-1.84.22-.87.83a32.85,32.85,0,0,0,6,2.2,44.27,44.27,0,0,0,6.43,1.29,2.26,2.26,0,0,0,.93-.1h0a2,2,0,0,0,.67-.35c.79-.6,1.57-1.24,2.3-1.92C203.3,139.56,204.39,134.51,202.48,134Z"/><path class="cls-74" d="M203.37,134.93a1.23,1.23,0,0,0-.87-1,1.64,1.64,0,0,0-.42-.06c-1.08,0-1.72,1.22-2.68,3.05a26.53,26.53,0,0,1-4.77,6.89c-.25.25-.52.51-.82.78-.53,0-1.1-.06-1.7-.11-.1.71-.28,1.41-.41,2.11l-.06.35c.7.13,1.4.23,2.09.31l.26,0a2.45,2.45,0,0,0,.71-.11,2.55,2.55,0,0,0,.69-.37c.83-.63,1.6-1.28,2.31-1.93C202,140.88,203.8,136.86,203.37,134.93Z"/><path class="cls-75" d="M191.27,145.51c0-1,.48-1.34.79-1.24l.32.1s.41-.49.58-.24l-.08.75a2.92,2.92,0,0,1-.29,1.69c-.42.68-1.17.82-1.31.55A6.17,6.17,0,0,1,191.27,145.51Z"/><path class="cls-76" d="M208.36,132.35a4.52,4.52,0,0,1,3.73,3.84,5.13,5.13,0,0,1,.06.81,15.9,15.9,0,0,1-.78,4.6c-1.68,5.74-2.51,9.43-2.51,9.43h-8.27a9.36,9.36,0,0,0,0-1.14c0-.34-.11-.83-.19-1.41-.18-2-.14-2.82-.46-4.84-.06-.34-.11-.68-.16-1,0-.78-.15-1.61-.26-2.47,0-.28-.07-.57-.1-.85a5.14,5.14,0,0,1,.71-3.86,7.58,7.58,0,0,1,.6-.8,8.45,8.45,0,0,1,6.68-2.46A3.62,3.62,0,0,1,208.36,132.35Z"/><path class="cls-77" d="M200.75,135.85a26.78,26.78,0,0,0-2.47,3.94c-.44,1.19,1.46,2.89,1.46,2.89s1.39-.4,1.59-2.88A7.11,7.11,0,0,0,200.75,135.85Z"/><path class="cls-78" d="M205.34,181.47c.1-.78,1-7.75,1.37-12.87.44-5.53,0-17.67,0-17.67h-6.13s-2,12.17-1.29,20.74c.43,5.58,1,9.66,1.12,10.58,0,.08,0,.15,0,.22a7.74,7.74,0,0,0,.56,2.27c.56,1.35,2.1,24,2.1,24h2.72s1.23-12.39,1.47-17.3A25,25,0,0,0,205.34,181.47Z"/><path class="cls-79" d="M203,206.69c-.52,0-.08.7-1.35,1.67a8.88,8.88,0,0,1-2.3,1.3s-1.28.28-1.43.69a3.37,3.37,0,0,0,0,1.3,6.06,6.06,0,0,0,4.15,0c2.71-.75,2.15-.41,3.11-.48s1.2-.41,1.2-.41a10,10,0,0,0-.26-2.4c-.16-.38.16-1.22.14-1.74a.32.32,0,0,0-.42-.25c-.2.06-.87.13-1.26.18A7.68,7.68,0,0,1,203,206.69Z"/><path class="cls-80" d="M203.11,206.36c-.64-.08-.61,1.45-1.61,2.14a14.58,14.58,0,0,1-2.11,1.16.78.78,0,0,0,.72.07,7.63,7.63,0,0,0,2.87-1.89C203.52,207,203.76,206.43,203.11,206.36Z"/><path class="cls-81" d="M208.86,150.93c1.18,1.33,4.56,4.28,3.57,8.93-.7,3.29-2.51,4.6-6.57,3.52s-3.58-6.46-3.61-8.12.13-4.33.15-4.33Z"/><path class="cls-82" d="M215.09,190.92a21.94,21.94,0,0,0-5-7.44c.32-2,1.09-6.85,1.58-11.41a125.13,125.13,0,0,0,.17-15.6l-9.54,1.13s.84,9.49,1.61,16.54c.73,6.72,1.66,11.42,1.66,11.42h0a6.67,6.67,0,0,0,1.34,1.76c1,1,10.37,19.56,10.37,19.56l2.57-.84S216.59,195.14,215.09,190.92Z"/><path class="cls-83" d="M212.61,158.26h0l-12.73-1.82a.09.09,0,0,1-.09-.11c.12-1.3.24-2.62.42-3.92a26.89,26.89,0,0,0,0-5.6,29.94,29.94,0,0,0-.34-3.16c-.05-.29-.09-.59-.14-.89-.08-.07-1.95-1.77-1.49-3,.26-.71.77-1.28,1-2a9.33,9.33,0,0,1,.83-2.34,5.81,5.81,0,0,1,.61-.82,8.71,8.71,0,0,1,5.91-2.55,6.11,6.11,0,0,1,.86.06,3.59,3.59,0,0,1,1,.17,4.62,4.62,0,0,1,3.81,3.93,17.21,17.21,0,0,1-.69,5.58,48.71,48.71,0,0,0-1.57,5.13,10.17,10.17,0,0,0,1.09,5.83,14.41,14.41,0,0,1,1.68,5.44.1.1,0,0,1-.1.1Z"/><path class="cls-84" d="M207.06,126.78a11.27,11.27,0,0,0-.06,2.88,5.89,5.89,0,0,0,.9,2.47,6.67,6.67,0,0,1-2.26,1.37c-1.59.43-2.29-.09-2.24-.59h0a13.37,13.37,0,0,0,.71-3,5.85,5.85,0,0,0-.25-2.92Z"/><path class="cls-85" d="M204.79,121.59c4,0,4.36,3.65,3.21,5.2s-1.4.67-2,1.8a4.16,4.16,0,0,1-3.21,1.53c-.92-.09-1.89-1.76-1.42-4.57S203.32,121.6,204.79,121.59Z"/><path class="cls-86" d="M202.24,123.62a1.85,1.85,0,0,0,.37.19,2.4,2.4,0,0,0,.38.12,19.4,19.4,0,0,1,2.36.2l.36.14a1.29,1.29,0,0,1,.85,1,1.88,1.88,0,0,1,0,.34c0,.13,0,.27,0,.4a3.9,3.9,0,0,0-.11,2,.64.64,0,0,0,.18.27.81.81,0,0,0,.4.14c.83-.07,1.33-.87,1.76-1.46a3.73,3.73,0,0,0,.27-.63l.09-.32a4.34,4.34,0,0,0,.12-1.81,2.27,2.27,0,0,0-.12-.5,2.63,2.63,0,0,0-.15-.35,3.9,3.9,0,0,0-3.2-2.25,4.4,4.4,0,0,0-.51,0,4.1,4.1,0,0,0-2.15.34c-.69.38-1.47.75-1.24,1.92Z"/><path class="cls-87" d="M206.39,127s.89-.59.79.29a1.09,1.09,0,0,1-1,.94Z"/><path class="cls-88" d="M216.91,205.89c-.5.09.08.69-.95,1.88a8.57,8.57,0,0,1-2,1.71s-1.19.5-1.25.93a3.56,3.56,0,0,0,.32,1.27,6,6,0,0,0,4.07-.76c2.49-1.24,2-.8,3-1s1.08-.62,1.08-.62a10.82,10.82,0,0,0-.79-2.32,6.52,6.52,0,0,1-.63-1.65.32.32,0,0,0-.47-.17,8,8,0,0,1-.82.34A7.48,7.48,0,0,1,216.91,205.89Z"/><path class="cls-89" d="M216.78,205.58h0l-.07,0c-.51.39-.33,1.07-.46,1.58a2.64,2.64,0,0,1-.18.38,1.72,1.72,0,0,1-.25.35,13.83,13.83,0,0,1-1.81,1.54.82.82,0,0,0,.72-.07,8.65,8.65,0,0,0,2.05-1.82l.2-.29a1.8,1.8,0,0,0,.29-1C217.25,206.14,217.16,205.44,216.78,205.58Z"/><path class="cls-90" d="M202.25,125.47c-.79-.19-1-.44-1.16-.1s-.23,1.4.2,1.34,1-.86,1-.86l.33.07s-.06,1,.54,1.13a1.41,1.41,0,0,0,1.46-.52c.16-.27.29-.64.15-.68S202.53,125.54,202.25,125.47Z"/><path class="cls-91" d="M199,143.47c.62.35,2.79,1.31,5.37,2.42a23.79,23.79,0,0,0,4.48,1.53c.93-7.3-1.28-12.73,1.1-13.69,1.9-.67,3,4.81,1.77,12.32a11,11,0,0,1-1.1,3.4,1.24,1.24,0,0,1-1.45.59,37.29,37.29,0,0,1-5.58-2.53,40.18,40.18,0,0,1-5.57-3.44C197.1,143.3,197.76,142.78,199,143.47Z"/><path class="cls-92" d="M210.18,150.09a1.29,1.29,0,0,0,.5-.51,11.1,11.1,0,0,0,1.11-3.44,32.25,32.25,0,0,0,.45-8c-.18-2.14-.66-3.63-1.34-4.2a.94.94,0,0,0-1-.2l-.2.1c-1.2.67-1.07,2.58-.88,5.47a41.13,41.13,0,0,1-.06,8.13,8.51,8.51,0,0,1-1.5-.44l-.08,0,0,.07c-.15.38-.33.76-.51,1.13s-.25.51-.36.78l0,.07.08,0a25.58,25.58,0,0,0,2.81,1.14,1.31,1.31,0,0,0,1-.11Z"/><path class="cls-93" d="M207.62,148.59c.28-1.05.61-1.81.13-1.89s-.5.08-.5.08,0-.45-.36-.45a1.68,1.68,0,0,0-.73.19,5.75,5.75,0,0,1-.22,1.21,2.89,2.89,0,0,1-.58.8s.21.48.57.55l.36.06s.06.39.56.33S207.62,148.59,207.62,148.59Z"/><polygon class="cls-94" points="197.1 137.21 199.94 148.41 192.88 145.93 190.23 135.49 197.1 137.21"/><polygon class="cls-95" points="183.94 137.99 186.88 148.74 192.88 145.93 190.23 135.49 183.94 137.99"/><path class="cls-96" d="M198.78,141.58a2.61,2.61,0,0,0-.7-.51l.23.82a4.24,4.24,0,0,0-1-.63,1.86,1.86,0,0,1-.87-1c-.13-.16-.38-.87-.59-.74a5.28,5.28,0,0,0,.32,3.32,10.74,10.74,0,0,0,2.89,2l.59-.84C200.13,143.49,199.2,142,198.78,141.58Z"/><path class="cls-97" d="M180.91,141.21a7.73,7.73,0,0,0-.8-.28l.49.74a4.47,4.47,0,0,0-1.15-.2,1.85,1.85,0,0,1-1.19-.6c-.19-.1-.69-.66-.83-.45a5.27,5.27,0,0,0,1.57,2.94,10.84,10.84,0,0,0,3.45.75l.22-1C182.89,142.45,181.44,141.41,180.91,141.21Z"/><polygon class="cls-98" points="184 137.96 186.88 148.74 179.78 146.68 177.14 136.24 184 137.96"/><path class="cls-99" d="M239.53,210.76c2.26,0,3.06-.17,2.56-1.77a16.42,16.42,0,0,0-1.28-2.56h-3.5s-.28,1.67-.38,2.76S237.3,210.77,239.53,210.76Z"/><path class="cls-100" d="M234.32,206.68a4.24,4.24,0,0,1,.36,1.4,10,10,0,0,1,0,1.07.74.74,0,0,1-.63.63,46.63,46.63,0,0,1-8.8,1c-.56,0-1.09-1.13.58-1.68a30.64,30.64,0,0,0,4.91-2.73Z"/><path class="cls-101" d="M226.81,170.66h0c0-1.44.06-3,.16-4.75a47.52,47.52,0,0,1,.81-7.14,4,4,0,0,1,.06-.47,51.88,51.88,0,0,1,2.55-9h12.76a37.32,37.32,0,0,1,1.69,7.14,35.64,35.64,0,0,1-.34,9.11c-.07.49-.13,1-.19,1.45h0v0c0,.34-.09.67-.14,1a134.35,134.35,0,0,0-.77,19q.06.89.06,1.89c.33,8-1.65,18.19-1.65,18.19l-4.56-.54-.32-21.19c-.13-3-.39-6.41-.64-9.93-.19-1.88-.29-4.33-.52-7.34-.56,2-1,3.82-1.41,5.41a29.17,29.17,0,0,0-.8,8.79c.51,4.6.73,3.74.92,6.26a32.6,32.6,0,0,1,.18,5.3c.12,5.61.22,13.4.22,13.4l-4.87-.41-3.57-24.46.06-.09C226.3,180.44,226.57,177.9,226.81,170.66Z"/><path class="cls-102" d="M231,131.08a1.7,1.7,0,0,1,1.27-.11,1.59,1.59,0,0,1,1,.67,5.51,5.51,0,0,1,.4,4,23.77,23.77,0,0,1-.76,2.74c-.46,1.48-1.06,2.95-1.63,4.39a62.8,62.8,0,0,1-4,8.09c-1.83,3.2-3.82,5.94-3.84,6a19.88,19.88,0,0,1-1.52,1.93c-.91.79-1.62.2-1-.82.07-.12.83-1.78.94-2,0,0,1.53-3.15,2.76-6.5s2.45-6.86,2.59-7.36l0-.07,0-.06c.72-2.43,1.39-4.87,1.88-7.33C229.37,133.36,229.64,131.72,231,131.08Z"/><path class="cls-103" d="M222.69,160.26c-.16.6-.18,1.34-.5,1.33-.15,0-.13-.66-.15-1.25a5,5,0,0,1-.45,1.1,2.21,2.21,0,0,0-.27,1.43c0,.22.09,1-.17,1a5.31,5.31,0,0,1-1.33-3.1,14,14,0,0,1,1.45-3.52l.93.35C222.86,157.76,222.85,159.66,222.69,160.26Z"/><path class="cls-104" d="M233.18,138.54l-.11.35q-.27.88-.6,1.77a16.74,16.74,0,0,1-4.85-2c.29-1.12.71-2.59.94-3.78l.05-.23c.27-1.31.6-2.94,2-3.61a2.09,2.09,0,0,1,1.53-.11,2.74,2.74,0,0,1,.55.22,1.64,1.64,0,0,1,.65.6,5.92,5.92,0,0,1,.48,4.34A21.27,21.27,0,0,1,233.18,138.54Z"/><path class="cls-105" d="M228.72,135c-.31-3.44,3-6.49,7.88-6.49H237c4.87,0,8.31,2.09,8.12,5.54-.7,13.17-.07,24.38-.07,24.41H227.78S230,149.54,228.72,135Z"/><path class="cls-106" d="M238.87,127.52a4.88,4.88,0,0,1-.23-2.12,7.29,7.29,0,0,1,.45-1.91s-1.89-.59-3,.31l-.2.17-.19.16c-.44.4-1.45,1.47-1.45,1.47s.61.09.55,1a10.21,10.21,0,0,1-.88,2.39,4.74,4.74,0,0,0,1.7.73h0a6.25,6.25,0,0,0,3.59-.5c.26-.1.54-.24.54-.24A12.38,12.38,0,0,1,238.87,127.52Z"/><path class="cls-107" d="M238.17,124.1c-.77.2-1.26,2.23-3.53,2.22-1.17,0-1.6-1.36-1.76-2.48s-.36-4.64,1.88-5.6,4.56-.31,5.34,1.45A3.16,3.16,0,0,1,238.17,124.1Z"/><path class="cls-108" d="M234.47,119.64c1,.09,1.44-.23,2.42.06s.37,2.89.67,3a1.39,1.39,0,0,0,.92-.11c.21-.1.67.34.32.82a1,1,0,0,0,0,1.06,11,11,0,0,0,1.51-2.69,3.69,3.69,0,0,0-.17-2.63c-.24-.71-.82-1.93-1.87-2a11.94,11.94,0,0,0-3.67.21c-.89.29-1,.79-1,1s0,.81,0,.81A1.75,1.75,0,0,0,234.47,119.64Z"/><path class="cls-109" d="M238.1,122.87a.79.79,0,0,1,.62-.66c.27,0,.52.05.46.61A1.39,1.39,0,0,1,237.9,124Z"/><polygon class="cls-110" points="234.11 128.16 235.09 129.57 234.08 130.77 233.37 129.01 234.11 128.16"/><path class="cls-111" d="M240.4,131a1.79,1.79,0,0,1,1-.85,1.67,1.67,0,0,1,1.26,0,5.82,5.82,0,0,1,2.74,3.2,26.8,26.8,0,0,1,1,2.8c.49,1.55.84,3.16,1.22,4.74a65.71,65.71,0,0,1,1.41,9.29c.34,3.83.28,7.37.28,7.41a23.53,23.53,0,0,1-.14,2.56c-.32,1.22-1.28,1.14-1.38-.09,0-.14-.34-2-.4-2.29,0,0-.57-3.6-1.51-7.21s-2-7.33-2.17-7.85l0-.07,0-.07c-.83-2.51-1.71-5-2.76-7.39C240.38,133.94,239.64,132.37,240.4,131Z"/><path class="cls-112" d="M247.36,162.2c.12.64.54,1,.87,1,.15,0,1.81.36,1.81-1.38a7.7,7.7,0,0,0-.82-2.69c-.33.1-.83.2-1.16.3C247.35,159.58,247.23,161.56,247.36,162.2Z"/><path class="cls-113" d="M242.43,139.72c-.48-1.3-1.16-2.95-1.77-4.32l-.09-.21c-.53-1.22-1.19-2.75-.4-4.12a2.13,2.13,0,0,1,1.19-1,4.52,4.52,0,0,1,.58-.13,1.62,1.62,0,0,1,.88.12,5.88,5.88,0,0,1,2.87,3.29,22.42,22.42,0,0,1,.88,2.44c0,.11.07.23.11.34.24.74.44,1.5.63,2.25A25.88,25.88,0,0,1,242.43,139.72Z"/><path class="cls-114" d="M248.21,161.83a.61.61,0,0,1,.77.36l8.77,23.71a.6.6,0,1,1-1.13.41l-8.77-23.7A.61.61,0,0,1,248.21,161.83Z"/><path class="cls-115" d="M248.1,161.55a.91.91,0,0,1,1.16.53l1.19,3.21a.44.44,0,0,1-.26.56l-.88.32a.42.42,0,0,1-.55-.25l-1.19-3.21A.9.9,0,0,1,248.1,161.55Z"/><rect class="cls-116" x="258.74" y="173.17" width="12.09" height="37.32" rx="3.18" transform="translate(-50.11 103.81) rotate(-20.31)"/><rect class="cls-117" x="264.46" y="173.18" width="0.6" height="37.32" transform="translate(-50.12 103.8) rotate(-20.31)"/><rect class="cls-118" x="231.78" y="142.26" width="2.38" height="1.78" rx="0.86" transform="translate(-0.37 0.6) rotate(-0.15)"/><rect class="cls-119" x="229.57" y="142.98" width="6.9" height="5.18" rx="2.5" transform="translate(-0.37 0.6) rotate(-0.15)"/><circle class="cls-120" cx="232.27" cy="145.55" r="1.33" transform="translate(-14.64 264.6) rotate(-57.81)"/><path class="cls-121" d="M235.88,143.73s.71-5.25,1.58-9.59,2.82-5.24,2.84-5.25l-.41-.1c-.08,0-1.86.86-2.76,5.29s-1.57,9.56-1.58,9.61Z"/><path class="cls-122" d="M229.93,143.5h.33c0-.12.06-11.86,3.31-14.54l-.41.12C229.78,131.87,229.93,143,229.93,143.5Z"/><polygon class="cls-123" points="239.31 128.04 235.09 129.57 235.72 131.27 240.03 128.83 239.31 128.04"/></g></g></g></svg>