<?xml version="1.0" encoding="UTF-8"?><svg id="Layer_1" xmlns="http://www.w3.org/2000/svg" viewBox="0 0 150 150"><defs><style>.cls-1{fill:#d4d5d7;}.cls-2{fill:#4e4e4e;}.cls-3{fill:#73297c;}.cls-4{fill:#d3b0d3;}.cls-5{fill:#b98dbe;}.cls-6{fill:#d0d1d3;}.cls-7{fill:#a652a0;}.cls-8{fill:#d2d3d5;}.cls-9{fill:#cccdcf;}.cls-10{fill:#eaedef;}</style></defs><g id="_ะบบ_E-Sarabun___E-Document"><circle class="cls-4" cx="75.04" cy="75" r="75"/><g><path class="cls-10" d="M50.42,53.13c.02-6.15,.03-12.31,.04-18.46q0-1.58,1.58-1.58c12.02,0,24.04,0,36.06,0,.43,0,.87-.1,1.27,.15-.02,3.14-.03,6.28-.06,9.43,0,.46,.17,.64,.63,.64,3.14-.03,6.28-.05,9.43-.07,.3,.58,.15,1.2,.15,1.8,.03,2.69,.04,5.39,.06,8.08,0,1.18,0,2.37,0,3.56-.02,.4-.05,.79-.05,1.19-.01,7.15-.02,14.3-.03,21.45-1.04,.83-1.35,2.15-2.09,3.17-.34,.47-.34,.75,.23,1.08,.6,.35,.74,0,.96-.38,.28-.5,.59-.98,.89-1.47,0,3.78,.02,7.56,.03,11.34-3.78-2.08-7.55-4.17-11.43-6.31,.6,3.2,1.17,6.25,1.75,9.3H50.56c-.03-.36-.08-.72-.08-1.08,0-7.85,0-15.7,0-23.54,0-4.92-.04-9.83-.06-14.75v-3.56Zm22.8-4.66h0c2.61,0,5.21,0,7.82,0,2.68,0,5.36,0,8.04,0,.31,0,.69,.07,.85-.31,.13-.31,.16-.67-.04-.94-.28-.38-.73-.24-1.11-.24-6.23,0-12.46,0-18.69,0-4.16,0-8.33,0-12.49,0-.95,0-1.34,.42-1.05,1.11,.23,.55,.73,.38,1.13,.38,5.18,.01,10.36,0,15.53,0Zm-.04,17.84h0c.98,0,1.96,0,2.93,0,4.31,0,8.62,0,12.93,0,.38,0,.86,.09,.94-.48,.05-.35,.14-.78-.31-.93-.3-.1-.64-.08-.96-.08-10.32,0-20.64,0-30.96,0-.18,0-.36,0-.54,0-.6-.01-.72,.36-.69,.86,.05,.8,.66,.63,1.13,.63,5.18,0,10.36,0,15.54,0Zm.11-16.74c-1.92,0-3.84,0-5.76,0-3.37,0-6.74,0-10.11,0-.45,0-.89,0-.89,.65,0,.64,.43,.66,.89,.66,.11,0,.22,0,.33,0,10.29,0,20.58,0,30.88,0,.29,0,.58,0,.87-.03,.42-.03,.52-.32,.51-.69,0-.34-.15-.56-.51-.58-.29-.02-.58-.02-.87-.02-5.11,0-10.22,0-15.33,0Zm-.03,3.92c5.07,0,10.15,0,15.22,0,.22,0,.43,0,.65,0,.47,0,.88-.05,.87-.68-.01-.56-.38-.63-.81-.63-.22,0-.43,0-.65,0-8.01,0-16.02,0-24.03,0-2.21,0-4.42-.02-6.63,.02-.49,0-1.32-.35-1.33,.61-.02,1.05,.87,.56,1.39,.68,.03,0,.07,0,.11,0,5.07,0,10.15,0,15.22,0Zm-.06,2.61c5.15,0,10.29,0,15.44-.02,.49,0,1.32,.35,1.34-.61,.02-1.04-.86-.57-1.38-.69-.1-.02-.22,0-.33,0-10.11,0-20.22,0-30.33,0-.33,0-.65,0-.98,.04-.36,.05-.43,.33-.43,.65,0,.33,.11,.58,.48,.6,.29,.02,.58,.02,.87,.02,5.11,0,10.22,0,15.33,0Zm.06,7.62c4.96,0,9.93,0,14.89,0,.4,0,.8,0,1.2-.01,.45,0,.66-.23,.64-.68,0-.4-.2-.6-.6-.62-.22,0-.43-.01-.65-.01-10.18,0-20.37,0-30.55,0-.29,0-.58,0-.87,0-.43,0-.8,.07-.81,.63,0,.54,.29,.69,.76,.68,.22,0,.43,0,.65,0,5.11,0,10.22,0,15.33,0Zm-.06,5.01c5.07,0,10.15,0,15.22,0,.25,0,.51,0,.76,0,.43,0,.8-.07,.81-.63,.01-.63-.39-.69-.87-.68-.18,0-.36,0-.54,0-10.11,0-20.22,0-30.33,0-.33,0-.65,.01-.98,0-.47,0-.77,.14-.76,.68,.01,.56,.37,.63,.81,.63,.25,0,.51,0,.76,0,5.04,0,10.07,0,15.11,0Zm.06,2.6c5.15,0,10.29,0,15.44,0,.25,0,.51,0,.76-.02,.41-.02,.55-.28,.54-.66,0-.4-.19-.61-.59-.62-.25,0-.51-.01-.76-.01-8.41,0-16.82,0-25.22,0-1.92,0-3.84-.01-5.76,.01-.46,0-1.12-.21-1.13,.61-.02,.9,.69,.64,1.18,.68,.32,.03,.65,.01,.98,.01,4.86,0,9.71,0,14.57,0Zm-3.92-12.63h0c3.95,0,7.9,0,11.85,0,.56,0,1.01-.05,.98-.8-.03-.79-.54-.71-1.07-.66-.58,.05-1.15,.15-1.73,.14-2.92-.07-5.83-.04-8.75,0-2.99,.04-5.98,.06-8.97-.01-1.44-.04-2.88-.02-4.32,.03-.32,.01-.69-.02-.79,.4-.06,.25-.09,.53,.11,.72,.29,.28,.69,.19,1.04,.19,3.88,0,7.76,0,11.64,0Zm-.06,15.23c3.88,0,7.75,0,11.63-.01,.47,0,1.2,.29,1.24-.61,.03-.89-.68-.68-1.17-.68-7.79-.01-15.58-.01-23.37,0-.48,0-1.1-.13-1.08,.68,.02,.82,.66,.62,1.12,.62,3.88,.01,7.75,0,11.63,0Zm18,9.7c.48-.04,.82-.64,.52-1.18-.51-.91-1.05-1.8-1.56-2.72-.22-.39-.4-.66-.89-.32-.39,.27-.7,.43-.34,.99,.59,.9,1.09,1.87,1.64,2.79,.12,.2,.17,.5,.64,.44Zm-3.94,3.9c.43-.07,.46-.5,.66-.77,.23-.32-.04-.46-.25-.58-.94-.54-1.9-1.05-2.81-1.63-.5-.32-.76-.31-1.09,.24-.36,.6-.01,.73,.38,.95,.69,.39,1.37,.8,2.06,1.2,.34,.2,.69,.39,1.05,.59Zm9.93-7.65c0-.5-.02-1.01,0-1.51,.03-.52-.08-.79-.7-.78-.55,.01-.66,.24-.65,.72,.02,1.04,.02,2.09,0,3.13,0,.47,.09,.72,.65,.73,.61,.01,.73-.27,.7-.78-.03-.5,0-1.01,0-1.51Zm-13.12,11.46c-.54,0-1.09,.02-1.63,0-.52-.03-.69,.17-.69,.69,0,.53,.21,.69,.71,.68,1.05-.02,2.1-.03,3.15,0,.59,.02,.73-.22,.73-.76,0-.6-.31-.63-.75-.61-.51,.02-1.01,0-1.52,0Z"/><path class="cls-2" d="M99.57,56.69c0-1.19,0-2.37,0-3.56,3.26,0,6.52-.04,9.79,0,3.32,.04,5.44,2.24,5.44,5.61,0,15.19,0,30.37,0,45.56,0,1.72-.56,2.28-2.27,2.28-9.06,0-18.12,.02-27.18-.02-.99,0-1.32,.25-1.28,1.26,.08,1.74,.04,3.48,.01,5.22-.01,.66,.21,.89,.88,.87,1.38-.04,2.75-.02,4.13,0,1.13,.01,1.78,.55,1.79,1.45,.02,.9-.63,1.52-1.74,1.53-3.66,.03-7.32,.02-10.98,.02-5.55,0-11.09,0-16.64,0-.18,0-.36,0-.54,0-1.19-.05-1.86-.61-1.85-1.55,.01-.93,.66-1.44,1.9-1.45,1.38-.01,2.76-.02,4.13,0,.56,.01,.77-.19,.76-.76-.02-1.92-.03-3.84,0-5.76,0-.61-.2-.83-.82-.82-1.38,.03-2.75,0-4.13,0-7.79,0-15.59,0-23.38,0-1.85,0-2.38-.53-2.38-2.4,0-15.15-.02-30.3-.01-45.45,0-3.43,2.13-5.58,5.54-5.61,3.23-.03,6.45,0,9.68,0,0,1.19,0,2.37,0,3.56-3.33,0-6.66,.04-10,0-.82,0-1.12,.18-1.12,1.07,.03,12.42,.03,24.85,0,37.27,0,.81,.23,1.06,1.04,1.05,3.4-.04,6.81-.02,10.21-.03,13.09,0,26.18,0,39.27,0,.34,1.62,.73,3.24,1,4.87,.14,.84,.39,.76,.93,.34,.71-.55,1.49-1.03,2.19-1.59,.54-.43,.85-.31,1.21,.21,.95,1.36,1.94,2.7,2.92,4.04,1.91,2.64,1.9,2.63,4.47,.62,.48-.38,.53-.64,.16-1.13-1.38-1.85-2.73-3.73-4.09-5.6-.78-1.08-.78-1.1,.54-1.71,3.44-.02,6.89-.06,10.33-.04,.85,0,1.2-.16,1.2-1.12-.03-12.4-.03-24.8,0-37.19,0-.89-.29-1.09-1.12-1.08-3.33,.03-6.67,0-10,0Zm-24.58,45.48c-.97,0-1.72,.73-1.73,1.69-.01,1.01,.77,1.81,1.75,1.81,.98,0,1.76-.82,1.73-1.82-.03-.96-.77-1.67-1.75-1.67Zm5.24-2.34c.09-.03,.16-.04,.22-.08,1.09-.63,2.18-1.25,3.26-1.9,.43-.26,.13-.56-.01-.83-.15-.28-.29-.59-.73-.33-1.05,.62-2.11,1.22-3.17,1.83-.26,.15-.36,.36-.16,.62,.18,.24,.21,.63,.59,.68Zm5.29,5.14c.21-.02,.3-.17,.39-.33,.59-1.03,1.17-2.06,1.79-3.08,.3-.5-.1-.62-.38-.81-.34-.23-.61-.3-.86,.16-.53,.98-1.12,1.93-1.66,2.9-.27,.49,.19,1.19,.73,1.15Z"/><path class="cls-3" d="M99.37,43.25c-3.14,.02-6.28,.04-9.43,.07-.46,0-.64-.17-.63-.64,.03-3.14,.04-6.28,.06-9.43,3.33,3.33,6.66,6.67,10,10Z"/><path class="cls-5" d="M50.56,96.06c-3.4,0-6.81-.02-10.21,.03-.81,.01-1.04-.24-1.04-1.05,.02-12.42,.02-24.85,0-37.27,0-.89,.31-1.08,1.12-1.07,3.33,.03,6.66,0,10,0,.02,4.92,.05,9.83,.06,14.75,0,7.85,0,15.7,0,23.54,0,.36,.05,.72,.08,1.08Z"/><path class="cls-5" d="M99.57,56.69c3.33,0,6.67,.04,10,0,.83,0,1.12,.2,1.12,1.08-.03,12.4-.03,24.8,0,37.19,0,.96-.35,1.12-1.2,1.12-3.44-.02-6.89,.02-10.33,.04,.57-.8,1.55-1.12,2.23-1.86l-1.89-1.19c0-3.78-.02-7.56-.03-11.34,.13-.26,.21-.56,.39-.77,.62-.73,.48-1.26-.38-1.63,0-7.15,.02-14.3,.03-21.45,0-.4,.03-.79,.05-1.19Zm5.15,36.31c.57,0,1.15-.02,1.72,0,.6,.03,.59-.36,.6-.78,0-.43-.11-.67-.61-.66-1.08,.02-2.15,.02-3.23,0-.49,0-.72,.14-.73,.67,0,.54,.17,.8,.74,.77,.5-.03,1.01,0,1.51,0Zm.67-7.78c0-.33-.67-.74-1.16-.47-.95,.52-1.87,1.09-2.82,1.6-.52,.28-.37,.56-.16,.95,.22,.4,.42,.5,.83,.25,.96-.58,1.93-1.12,2.9-1.69,.17-.1,.43-.14,.42-.64Z"/><path class="cls-7" d="M99.51,93.07l1.89,1.19c-.68,.75-1.65,1.07-2.23,1.86-1.32,.6-1.33,.63-.54,1.71,1.36,1.87,2.7,3.75,4.09,5.6,.37,.49,.32,.75-.16,1.13-2.57,2.01-2.56,2.02-4.47-.62-.97-1.35-1.97-2.68-2.92-4.04-.36-.52-.68-.64-1.21-.21-.7,.56-1.48,1.04-2.19,1.59-.54,.42-.79,.5-.93-.34-.27-1.63-.66-3.25-1-4.87-.57-3.05-1.15-6.1-1.75-9.3,3.88,2.14,7.65,4.22,11.43,6.31Z"/><path class="cls-1" d="M73.22,48.46c-5.18,0-10.36,0-15.53,0-.4,0-.9,.17-1.13-.38-.29-.69,.1-1.11,1.05-1.11,4.16,0,8.33,0,12.49,0,6.23,0,12.46,0,18.69,0,.38,0,.84-.14,1.11,.24,.2,.27,.17,.63,.04,.94-.16,.38-.54,.31-.85,.31-2.68,0-5.36,0-8.04,0-2.61,0-5.21,0-7.82,0h0Z"/><path class="cls-1" d="M73.18,66.3c-5.18,0-10.36,0-15.54,0-.47,0-1.08,.17-1.13-.63-.03-.5,.09-.87,.69-.86,.18,0,.36,0,.54,0,10.32,0,20.64,0,30.96,0,.32,0,.67-.02,.96,.08,.44,.15,.36,.59,.31,.93-.08,.57-.55,.48-.94,.48-4.31,0-8.62,0-12.93,0-.98,0-1.96,0-2.93,0h0Z"/><path class="cls-8" d="M73.29,49.56c5.11,0,10.22,0,15.33,0,.29,0,.58,0,.87,.02,.35,.02,.5,.25,.51,.58,.01,.37-.09,.65-.51,.69-.29,.02-.58,.03-.87,.03-10.29,0-20.58,0-30.88,0-.11,0-.22,0-.33,0-.46,0-.89-.03-.89-.66,0-.65,.44-.65,.89-.65,3.37,0,6.74,0,10.11,0,1.92,0,3.84,0,5.76,0Z"/><path class="cls-6" d="M73.26,53.48c-5.07,0-10.15,0-15.22,0-.04,0-.07,0-.11,0-.52-.13-1.4,.37-1.39-.68,.02-.96,.84-.6,1.33-.61,2.21-.04,4.42-.02,6.63-.02,8.01,0,16.02,0,24.03,0,.22,0,.43,0,.65,0,.43,0,.8,.07,.81,.63,.01,.63-.4,.69-.87,.68-.22,0-.43,0-.65,0-5.07,0-10.15,0-15.22,0Z"/><path class="cls-6" d="M73.2,56.09c-5.11,0-10.22,0-15.33,0-.29,0-.58,0-.87-.02-.36-.03-.47-.28-.48-.6,0-.32,.07-.6,.43-.65,.32-.04,.65-.04,.98-.04,10.11,0,20.22,0,30.33,0,.11,0,.22-.02,.33,0,.52,.12,1.4-.35,1.38,.69-.02,.96-.84,.6-1.34,.61-5.15,.03-10.29,.02-15.44,.02Z"/><path class="cls-6" d="M73.26,63.7c-5.11,0-10.22,0-15.33,0-.22,0-.43,0-.65,0-.46,0-.77-.14-.76-.68,.01-.56,.37-.63,.81-.63,.29,0,.58,0,.87,0,10.18,0,20.37,0,30.55,0,.22,0,.43,0,.65,.01,.39,.02,.59,.22,.6,.62,.01,.45-.2,.67-.64,.68-.4,0-.8,.01-1.2,.01-4.96,0-9.93,0-14.89,0Z"/><path class="cls-6" d="M73.2,68.72c-5.04,0-10.07,0-15.11,0-.25,0-.51,0-.76,0-.43,0-.8-.07-.81-.63-.01-.54,.29-.69,.76-.68,.33,0,.65,0,.98,0,10.11,0,20.22,0,30.33,0,.18,0,.36,0,.54,0,.47,0,.88,.05,.87,.68-.01,.56-.38,.63-.81,.63-.25,0-.51,0-.76,0-5.07,0-10.15,0-15.22,0Z"/><path class="cls-6" d="M73.26,71.32c-4.86,0-9.71,0-14.57,0-.33,0-.65,.02-.98-.01-.49-.04-1.2,.22-1.18-.68,.02-.82,.67-.61,1.13-.61,1.92-.02,3.84-.01,5.76-.01,8.41,0,16.82,0,25.22,0,.25,0,.51,0,.76,.01,.4,.01,.59,.22,.59,.62,0,.38-.13,.64-.54,.66-.25,.01-.51,.02-.76,.02-5.15,0-10.29,0-15.44,0Z"/><path class="cls-8" d="M69.34,58.69c-3.88,0-7.76,0-11.64,0-.35,0-.75,.1-1.04-.19-.2-.19-.17-.47-.11-.72,.11-.42,.47-.39,.79-.4,1.44-.05,2.88-.06,4.32-.03,2.99,.08,5.98,.06,8.97,.01,2.92-.04,5.83-.07,8.75,0,.57,.01,1.15-.08,1.73-.14,.53-.05,1.04-.13,1.07,.66,.03,.75-.42,.8-.98,.8-3.95,0-7.9,0-11.85,0h0Z"/><path class="cls-6" d="M69.28,73.92c-3.88,0-7.75,0-11.63,0-.46,0-1.1,.2-1.12-.62-.02-.81,.59-.68,1.08-.68,7.79,0,15.58,0,23.37,0,.5,0,1.21-.21,1.17,.68-.03,.9-.76,.6-1.24,.61-3.88,.02-7.75,.01-11.63,.01Z"/><path class="cls-7" d="M87.28,83.62c-.47,.06-.52-.24-.64-.44-.55-.93-1.05-1.89-1.64-2.79-.36-.56-.06-.72,.34-.99,.49-.33,.68-.06,.89,.32,.51,.91,1.05,1.81,1.56,2.72,.3,.54-.03,1.15-.52,1.18Z"/><path class="cls-7" d="M83.34,87.51c-.36-.2-.71-.39-1.05-.59-.69-.4-1.37-.81-2.06-1.2-.4-.22-.75-.36-.38-.95,.34-.55,.59-.56,1.09-.24,.91,.58,1.88,1.08,2.81,1.63,.21,.12,.48,.25,.25,.58-.2,.28-.23,.7-.66,.77Z"/><path class="cls-7" d="M99.49,79.32c.86,.37,1,.89,.38,1.63-.18,.21-.27,.51-.39,.77-.3,.49-.6,.97-.89,1.47-.22,.39-.37,.74-.96,.38-.57-.33-.57-.62-.23-1.08,.74-1.03,1.05-2.34,2.09-3.17Z"/><path class="cls-7" d="M93.27,79.87c0,.5-.02,1.01,0,1.51,.03,.52-.09,.8-.7,.78-.56-.01-.66-.26-.65-.73,.02-1.04,.02-2.09,0-3.13-.01-.48,.1-.7,.65-.72,.62-.02,.73,.26,.7,.78-.03,.5,0,1.01,0,1.51Z"/><path class="cls-7" d="M80.15,91.33c.51,0,1.01,.01,1.52,0,.44-.02,.76,.02,.75,.61,0,.55-.14,.78-.73,.76-1.05-.04-2.1-.03-3.15,0-.5,0-.71-.15-.71-.68,0-.52,.17-.72,.69-.69,.54,.03,1.09,0,1.63,0Z"/><path class="cls-9" d="M74.99,102.17c.98,0,1.73,.71,1.75,1.67,.03,1-.75,1.82-1.73,1.82-.98,0-1.76-.8-1.75-1.81,.01-.96,.76-1.69,1.73-1.69Z"/><path class="cls-7" d="M80.22,99.82c-.38-.05-.41-.44-.59-.68-.2-.26-.11-.46,.16-.62,1.06-.61,2.12-1.21,3.17-1.83,.44-.26,.57,.05,.73,.33,.15,.27,.44,.57,.01,.83-1.08,.64-2.17,1.27-3.26,1.9-.06,.03-.13,.05-.22,.08Z"/><path class="cls-7" d="M85.51,104.97c-.54,.04-1-.67-.73-1.15,.54-.97,1.13-1.92,1.66-2.9,.25-.46,.52-.39,.86-.16,.29,.19,.69,.3,.38,.81-.61,1.02-1.19,2.05-1.79,3.08-.09,.16-.18,.32-.39,.33Z"/><path class="cls-7" d="M104.72,93c-.5,0-1.01-.02-1.51,0-.57,.03-.75-.22-.74-.77,0-.53,.24-.68,.73-.67,1.08,.02,2.15,.02,3.23,0,.49-.01,.62,.23,.61,.66,0,.42,0,.8-.6,.78-.57-.03-1.15,0-1.72,0Z"/><path class="cls-7" d="M105.39,85.23c0,.5-.25,.54-.42,.64-.96,.57-1.94,1.11-2.9,1.69-.41,.25-.61,.15-.83-.25-.21-.39-.36-.67,.16-.95,.95-.51,1.88-1.07,2.82-1.6,.5-.28,1.17,.13,1.16,.47Z"/></g></g></svg>