<svg xmlns="http://www.w3.org/2000/svg" xmlns:xlink="http://www.w3.org/1999/xlink" viewBox="0 0 300 300"><defs><style>.cls-1{isolation:isolate;}.cls-2{fill:url(#linear-gradient);}.cls-3{fill:url(#linear-gradient-2);}.cls-4{fill:#db1f26;}.cls-5{opacity:0.5;}.cls-6{fill:#010101;}.cls-7{fill:url(#linear-gradient-3);}.cls-8{fill:#a6c4e7;}.cls-9{fill:#c2d3ed;}.cls-10{fill:#5f75b9;}.cls-11{fill:#82b4e1;}.cls-12{fill:#d5dbef;}.cls-13{fill:#e7ecf7;}.cls-14{fill:#a2abd7;}.cls-15{fill:#f597a6;}.cls-16,.cls-27{fill:#fff;}.cls-17{fill:#3e4266;}.cls-18,.cls-19{fill:#ecb4a0;}.cls-19,.cls-28{mix-blend-mode:multiply;}.cls-20{fill:#2e3154;}.cls-21{fill:#93c3e9;}.cls-22{fill:#f27072;}.cls-23{fill:#8492c9;}.cls-24{fill:#f4b29c;}.cls-25{fill:#e05344;}.cls-26{fill:#2e307b;}.cls-27{opacity:0.4;}.cls-28{fill:#bab4c1;}.cls-29{fill:#0d1539;}</style><linearGradient id="linear-gradient" x1="-903.67" y1="1191.88" x2="-605.42" y2="1191.88" gradientTransform="translate(1342.33 904.66) rotate(90)" gradientUnits="userSpaceOnUse"><stop offset="0" stop-color="#fffffd"/><stop offset="1" stop-color="#e2e3e4"/></linearGradient><linearGradient id="linear-gradient-2" x1="-892.19" y1="1191.88" x2="-616.89" y2="1191.88" gradientTransform="translate(1342.33 904.66) rotate(90)" gradientUnits="userSpaceOnUse"><stop offset="0" stop-color="#4a90cd"/><stop offset="1" stop-color="#2055a6"/></linearGradient><linearGradient id="linear-gradient-3" x1="-864.67" y1="1191.88" x2="-644.43" y2="1191.88" gradientTransform="translate(1342.34 904.67) rotate(90)" xlink:href="#linear-gradient"/></defs><g class="cls-1"><g id="_02_edoc" data-name="02_edoc"><g id="Layer_8" data-name="Layer 8"><rect class="cls-2" x="1.33" y="1" width="298.25" height="298.25" rx="149.12"/><rect class="cls-3" x="12.8" y="12.47" width="275.3" height="275.3" rx="137.65"/><path class="cls-4" d="M34.83,150.78a115.85,115.85,0,1,0,231.69,0H34.83Z"/><g class="cls-5"><path class="cls-6" d="M150.46,288.51c-76.31,0-138.39-62.08-138.39-138.39S74.15,11.73,150.46,11.73,288.84,73.82,288.84,150.12,226.76,288.51,150.46,288.51Zm0-275.3C75,13.21,13.54,74.63,13.54,150.12S75,287,150.46,287s136.91-61.42,136.91-136.92S226,13.21,150.46,13.21Z"/></g><rect class="cls-7" x="40.33" y="40" width="220.24" height="220.24" rx="110.12"/></g><g id="Layer_9" data-name="Layer 9"><polygon class="cls-8" points="226.41 78.84 119.58 78.84 87.42 88.71 94.86 129.9 226.41 93.04 226.41 78.84"/><polygon class="cls-9" points="226.97 208.32 194.81 220 194.48 90.62 226.77 79.45 226.97 208.32"/><rect class="cls-10" x="87.34" y="88.36" width="107.99" height="132.03"/><rect class="cls-11" x="93.62" y="90.9" width="94.22" height="41.19"/><rect class="cls-10" x="130.01" y="98.8" width="21.44" height="4.8"/><rect class="cls-12" x="130.01" y="96.54" width="21.44" height="4.8"/><rect class="cls-13" x="106.57" y="115.45" width="77.86" height="51.34"/><rect class="cls-12" x="106.06" y="116.82" width="77.86" height="51.34" transform="translate(-8.93 9.7) rotate(-3.72)"/><rect class="cls-14" x="103.29" y="116.86" width="76.65" height="51.34" transform="translate(-1.94 1.95) rotate(-0.78)"/><rect class="cls-12" x="100.02" y="117.42" width="77.86" height="51.34"/><rect class="cls-13" x="96.75" y="119.11" width="77.86" height="51.34" transform="translate(-3.21 3.08) rotate(-1.28)"/><rect class="cls-11" x="93.62" y="176.95" width="94.22" height="41.19"/><rect class="cls-15" x="150.97" y="114.46" width="13.28" height="19.01"/><rect class="cls-10" x="130.01" y="185.69" width="21.44" height="4.8"/><rect class="cls-12" x="130.01" y="183.43" width="21.44" height="4.8"/><rect class="cls-14" x="105.79" y="107" width="51.34" height="77.86" transform="translate(-16.13 275.53) rotate(-89.27)"/><rect class="cls-12" x="107.3" y="106.7" width="51.34" height="77.86" transform="translate(-21.13 268.69) rotate(-86.21)"/><rect class="cls-13" x="104.03" y="108.39" width="51.34" height="77.86" transform="matrix(0.02, -1, 1, 0.02, -20.52, 273.66)"/><rect class="cls-14" x="87.5" y="123.06" width="77.86" height="51.34" transform="translate(-3.75 3.27) rotate(-1.46)"/><rect class="cls-10" x="125.92" y="116.57" width="13.28" height="19.01"/><polygon class="cls-14" points="93.19 174.41 61.03 185.13 61.03 143.94 93.19 134.06 93.19 174.41"/><rect class="cls-12" x="84.22" y="123.63" width="77.86" height="51.34"/><rect class="cls-13" x="93.61" y="111.46" width="51.34" height="77.86" transform="translate(-35.05 264.52) rotate(-88.06)"/><rect class="cls-11" x="89.4" y="122.01" width="13.28" height="19.01"/><rect class="cls-12" x="77.68" y="126.73" width="77.86" height="51.34"/><rect class="cls-16" x="87.83" y="115.44" width="51.34" height="77.86" transform="translate(-42.51 265.62) rotate(-89.16)"/><path class="cls-10" d="M116.24,175.92c.08,1.35,2.3,1.91,3,3a7,7,0,0,1-3.9-.3c-1-.64-.25-2.24-1.36-3.17Z"/><path class="cls-10" d="M100.28,175.5c-.08,1.05.3,2.07.23,3.14a24.76,24.76,0,0,1-4.72.45c.39-1,1.26-1.17,2.17-1.76,1.46-.94.76-1.6,1.29-3Z"/><path class="cls-17" d="M111.34,138.86l5.72,37.37-3.35,0-7.4-26.68-5.24,27.27-2.62-.17s-.2-17-.1-22.25-.2-12.59,2.11-15.72C100.46,138.71,108.12,140.61,111.34,138.86Z"/><path class="cls-18" d="M103.64,120.72l.72-.18a3.35,3.35,0,0,0,2.33-1.89c.15-.28.74-2.44,1-2.48.92-.16,2.41-.48,3.09.23s.54,2.65.89,3.58c.19.51.69.86.9,1.32.81,1.81-1.2,4.79-1.81,6.47-.39,1.1-.71,3.09-2,3.69-2.75,1.29-4.54-4.89-5-6.28a18.35,18.35,0,0,1-.91-2.93C102.73,121.06,102.94,120.89,103.64,120.72Z"/><path class="cls-19" d="M111.66,120.11l-.1-.27c-.31-.92-.17-2.83-.79-3.55a2.18,2.18,0,0,0-2-.36c-.3.43-.66,1-.89,1.33a3.79,3.79,0,0,0,.27.53C108.86,119,110.34,120.38,111.66,120.11Z"/><path class="cls-18" d="M108.27,117.77a3.91,3.91,0,0,1-.47-.59c-.92-1.41.1-4.53.92-5.89a3.21,3.21,0,0,1,3.69-1.65c3.48.8,2.49,7.4.16,9.32C111.36,120,109.36,118.9,108.27,117.77Z"/><path class="cls-16" d="M110.89,117.42a2.28,2.28,0,0,0,2.49.27S112.05,120.22,110.89,117.42Z"/><path class="cls-20" d="M107.21,116.25c-.34-1.89-.9-3.14-.68-4.83a4.05,4.05,0,0,1,4.09-3.17,6.44,6.44,0,0,1,4.24,2.2,2.82,2.82,0,0,1,.76,2.25c-.19,1.22-.56,1.38-1.25,1.44a5.27,5.27,0,0,1-1.12-.29c.21,1.94-2.19.26-2.85.17-1.43-.18-1.87,1.36-2.73,2.12Z"/><rect class="cls-21" x="61.03" y="143.94" width="94.22" height="41.19"/><path class="cls-18" d="M93.13,142c-.71,1.13-3.63,4.56-3.51,4.72s1.78-1.38,2.09-1.67c-.16.37-1.38,2.13-1.17,2.26s2.3-2.45,2.93-2.92c.08.21-.6,1.6-.34,1.59.84-.05,2.69-4.41.92-4.52C94.05,141.47,93.84,140.89,93.13,142Z"/><path class="cls-18" d="M123.18,140.49c.71,1.13,3.64,4.56,3.51,4.72s-1.77-1.38-2.09-1.67c.17.37,1.38,2.14,1.17,2.26s-2.3-2.45-2.92-2.92c-.08.21.6,1.6.34,1.59-.84-.05-2.7-4.41-.93-4.52C122.26,140,122.47,139.37,123.18,140.49Z"/><path class="cls-22" d="M112.07,142.42c.14-2.29,1.29-11,1.31-13l3,4.85c1,1.35,4.28,7,4.73,7.28l2.12-1.62c-.34-.31-3.9-7.87-4-8.3a50.71,50.71,0,0,0-2.85-6.63c-1.24-2.53-.56-3.46-4.39-4.48,0,0,.87,1.73-2.8,1.88s-3.72-2.29-3.72-2.29-3.52-.31-5.54,2.18-2.88,5.43-4.51,8.91c-1.23,2.62-1.84,9.3-2.65,10.6l2.54,1.05c.31-.65.61-4.63,6.07-15.32,0,0-2.75,13.41-2.74,14.59a19,19,0,0,1,6.47-.22C109.14,142.33,112.07,142.42,112.07,142.42Z"/><polygon class="cls-23" points="187.98 173.44 155.82 185.13 155.82 143.94 187.98 134.06 187.98 173.44"/><rect class="cls-10" x="93.76" y="152.68" width="21.44" height="4.8"/><rect class="cls-12" x="93.76" y="150.43" width="21.44" height="4.8"/><path class="cls-24" d="M171.81,218.82s2.49,12.39,2.89,15.14a17.83,17.83,0,0,0,1.58,4.9c.37,1.07-1.82.95-3.29,1.57l-3,.2a14.34,14.34,0,0,0,3.1-2.6c.61-1-2.78-9.61-2.78-9.61l-3.77-8.73Z"/><path class="cls-17" d="M176.28,238.86a6.5,6.5,0,0,0-.28-.71,4.34,4.34,0,0,0-.4.17,9.37,9.37,0,0,1-4,1.14c-.82.64-1.64,1.17-1.64,1.17l3-.2C174.46,239.81,176.65,239.93,176.28,238.86Z"/><path class="cls-25" d="M173.46,183.68c.93.85,1.25,2-.55,2.73s-5.76,1.81-8.8-1-3.68-4.78-3.68-4.78l1.23-1s2.1,3.39,5.35,4.35S172.39,182.71,173.46,183.68Z"/><path class="cls-26" d="M158.13,161.88s-.8,2.59.72,8.3l-.88.25.54-.15-.88.25c-1.73-5.66-3.78-7.43-3.78-7.43Z"/><path class="cls-26" d="M164.88,185.53a1.75,1.75,0,0,1-.22,1.4,2.18,2.18,0,0,1-1.24.91l-.29.08a2,2,0,0,1-2.6-1.25l-4.6-16.07a1.49,1.49,0,0,1,.19-1.19,1.84,1.84,0,0,1,1-.77l1-.29a1.65,1.65,0,0,1,2.09,1Z"/><path class="cls-27" d="M164.15,145.78a12.68,12.68,0,1,1-15.68-8.71A12.68,12.68,0,0,1,164.15,145.78Z"/><path class="cls-26" d="M165.79,145.31a14.38,14.38,0,1,0-9.88,17.78A14.38,14.38,0,0,0,165.79,145.31Zm-10.34,16.15a12.68,12.68,0,1,1,8.7-15.68A12.69,12.69,0,0,1,155.45,161.46Z"/><path class="cls-24" d="M172.59,184.86c-.14.75,1.63,1,2.23,1.35a4.81,4.81,0,0,0,3.76-.05c.6-.21,1.34.69,1.58,0a3,3,0,0,0-.85-2.9,2.91,2.91,0,0,1-1.31-2.47c-.81-.15-1.6-.34-2.42-.41A2.94,2.94,0,0,1,174,182.7,3.44,3.44,0,0,0,172.59,184.86Z"/><path class="cls-24" d="M180.09,215.56l-.81,24.67s-5.23.76-6.18.84,2.79-1.74,3.3-2.74a4.52,4.52,0,0,0,.85-3.91c-.33-2.57-3.25-17.07-3.25-17.07l6.05-2.14Z"/><path class="cls-15" d="M178.3,183.18s3.24-.14,2.25,4.09-1.66,8.42-1.66,8.42l-7.92.25s1.13-1.63.43-2.9-2.82-2.53-1-5.49,1.28-2.63,2.35-3.83S176.89,184.45,178.3,183.18Z"/><path class="cls-28" d="M175.1,181.72a2.7,2.7,0,0,0,.48-1.3c.82.07,1.61.26,2.42.41a2.13,2.13,0,0,0,0,.25A2.6,2.6,0,0,1,175.1,181.72Z"/><path class="cls-24" d="M174.65,180.75c-1.85-.63-.52-4.62,1.08-6.16.84-.79,2.13-1.63,3.33-1.34s3.06,1.35,2.89,2.74c-.09.71-.78,1.25-1.11,1.87a8.78,8.78,0,0,1-1.66,2.54C178,181.46,176.51,181.38,174.65,180.75Z"/><path class="cls-24" d="M159.44,178.93c.25.48,1,.67,1.32,1.13a20.09,20.09,0,0,1,1.46,2.25c.38-.47.28-.84.68-1.31.54-.64.53-.7.12-1.42-.21-.35-.43-.71-.62-1.08a3.58,3.58,0,0,0-.07-1.78c-.35-.84-.2,1.19-.34.88-.44-1-1.32-2.89-1.42-3s.56,2.2.2,2.45c-.33-.33-1.05-2.8-1.19-2.52a13.59,13.59,0,0,0,.53,3.05c-.12-.27-1.1-2.55-1.24-2.2a9.33,9.33,0,0,0,.83,2.81,16.3,16.3,0,0,0-1.26-1.61C158.44,176.72,159.3,178.67,159.44,178.93Z"/><path class="cls-29" d="M179.49,178.8c.63.28,1.09-.22,1.1-.84,0-1.05-.6-.68-1.14-.78,0,0-.12-.16-.12-.16l.19-1.27s-2.43-.44-1.63-1.39c-.82-.09-2.95-.24-2.9-1.46.08-2.27,3.94-1.23,5-.74a5.12,5.12,0,0,1,2.66,2.56c.69,2-1.47,6.22-3.9,5.66Z"/><path class="cls-22" d="M179.75,184.49c1.35,1.19,1.82,2.87-.82,3.86s-8.25,1.15-9.34,1c-3.67-.39-8.8-9.13-8.8-9.13l1.79-1.4s3.35,6.11,7,6.75S178.2,183.11,179.75,184.49Z"/><path class="cls-20" d="M179.13,194.38l8.85,27s-2.9,1.4-12.6,2.1-15-3.2-15-3.2a43.09,43.09,0,0,1,3.49-11c2.46-4.76,7.73-15.29,7.73-15.29S176.15,195.3,179.13,194.38Z"/><path class="cls-29" d="M186.57,175.46a2.85,2.85,0,1,1-2.85-2.86A2.85,2.85,0,0,1,186.57,175.46Z"/><path class="cls-20" d="M179.33,238.69a6.89,6.89,0,0,1-4,.68c-1.22.88-2.87,1.77-2.2,1.7,1-.08,6.18-.84,6.18-.84Z"/><polygon class="cls-9" points="195.24 88.54 226.77 79.45 226.77 94.62 195.31 99.85 195.24 88.54"/></g></g></g></svg>