<svg xmlns="http://www.w3.org/2000/svg" xmlns:xlink="http://www.w3.org/1999/xlink" viewBox="0 0 300 300"><defs><style>.cls-1{fill:url(#linear-gradient);}.cls-2{fill:url(#linear-gradient-2);}.cls-3{fill:#db1f26;}.cls-4{opacity:0.5;}.cls-5{fill:#010101;}.cls-6{fill:url(#linear-gradient-3);}.cls-7{fill:url(#Áåçûìÿííûé_ãðàäèåíò_10);}.cls-8{fill:url(#Áåçûìÿííûé_ãðàäèåíò_10-2);}.cls-9{fill:#9a98cb;}.cls-10{fill:url(#Áåçûìÿííûé_ãðàäèåíò_10-3);}.cls-11{fill:#fff;}.cls-12{fill:#383a4d;}.cls-13{fill:#26283d;}.cls-14{fill:url(#linear-gradient-4);}.cls-15{fill:url(#linear-gradient-5);}.cls-16{fill:#e9dfe8;}.cls-17{fill:url(#linear-gradient-6);}.cls-18{fill:url(#linear-gradient-7);}.cls-19{fill:url(#linear-gradient-8);}.cls-20{fill:#f37860;}.cls-21{fill:url(#linear-gradient-9);}.cls-22{fill:url(#linear-gradient-10);}.cls-23{fill:url(#Áåçûìÿííûé_ãðàäèåíò_10-4);}.cls-24{fill:url(#Áåçûìÿííûé_ãðàäèåíò_10-5);}</style><linearGradient id="linear-gradient" x1="376.2" y1="-727.79" x2="674.44" y2="-727.79" gradientTransform="translate(-577.67 -375.34) rotate(90)" gradientUnits="userSpaceOnUse"><stop offset="0" stop-color="#fffffd"/><stop offset="1" stop-color="#e2e3e4"/></linearGradient><linearGradient id="linear-gradient-2" x1="387.67" y1="-727.79" x2="662.97" y2="-727.79" gradientTransform="translate(-577.67 -375.34) rotate(90)" gradientUnits="userSpaceOnUse"><stop offset="0" stop-color="#4a90cd"/><stop offset="1" stop-color="#2055a6"/></linearGradient><linearGradient id="linear-gradient-3" x1="415.19" y1="-727.78" x2="635.43" y2="-727.78" gradientTransform="translate(-577.66 -375.33) rotate(90)" xlink:href="#linear-gradient"/><linearGradient id="Áåçûìÿííûé_ãðàäèåíò_10" x1="162.73" y1="202.38" x2="219.46" y2="202.38" gradientTransform="translate(364.99 -14.96) rotate(82.02)" gradientUnits="userSpaceOnUse"><stop offset="0" stop-color="#fec340"/><stop offset="1" stop-color="#fee27f"/></linearGradient><linearGradient id="Áåçûìÿííûé_ãðàäèåíò_10-2" x1="187.98" y1="140.47" x2="253.83" y2="140.47" gradientTransform="matrix(1, 0, 0, 1, 0, 0)" xlink:href="#Áåçûìÿííûé_ãðàäèåíò_10"/><linearGradient id="Áåçûìÿííûé_ãðàäèåíò_10-3" x1="48.99" y1="119.54" x2="99.04" y2="119.54" gradientTransform="matrix(1, 0, 0, 1, 0, 0)" xlink:href="#Áåçûìÿííûé_ãðàäèåíò_10"/><linearGradient id="linear-gradient-4" x1="134.3" y1="136.35" x2="146.98" y2="121.89" gradientTransform="translate(15.38 1.09) rotate(-2.03)" gradientUnits="userSpaceOnUse"><stop offset="0" stop-color="#f79d8a"/><stop offset="1" stop-color="#fabaaa"/></linearGradient><linearGradient id="linear-gradient-5" x1="143.94" y1="102.4" x2="152.1" y2="100.85" gradientTransform="matrix(1, 0, 0, 1, 0, 0)" xlink:href="#linear-gradient-4"/><linearGradient id="linear-gradient-6" x1="142.49" y1="94.74" x2="150.65" y2="93.19" gradientTransform="matrix(1, 0, 0, 1, 0, 0)" xlink:href="#linear-gradient-4"/><linearGradient id="linear-gradient-7" x1="130.12" y1="121.06" x2="137.12" y2="121.27" gradientTransform="matrix(1, 0, 0, 1, 0, 0)" xlink:href="#linear-gradient-4"/><linearGradient id="linear-gradient-8" x1="135.13" y1="142.22" x2="161.76" y2="126.55" gradientTransform="matrix(1, 0, 0, 1, 0, 0)" xlink:href="#linear-gradient-4"/><linearGradient id="linear-gradient-9" x1="160.41" y1="140.1" x2="174.99" y2="123.47" gradientTransform="matrix(1, 0, 0, 1, 0, 0)" xlink:href="#linear-gradient-4"/><linearGradient id="linear-gradient-10" x1="134.47" y1="131.05" x2="156.11" y2="118.33" gradientTransform="matrix(1, 0, 0, 1, 0, 0)" xlink:href="#linear-gradient-4"/><linearGradient id="Áåçûìÿííûé_ãðàäèåíò_10-4" x1="108.11" y1="174.02" x2="121.29" y2="174.02" gradientTransform="matrix(1, 0, 0, 1, 0, 0)" xlink:href="#Áåçûìÿííûé_ãðàäèåíò_10"/><linearGradient id="Áåçûìÿííûé_ãðàäèåíò_10-5" x1="173.59" y1="93.38" x2="184.78" y2="93.38" gradientTransform="translate(243.88 -98.04) rotate(81.15)" xlink:href="#Áåçûìÿííûé_ãðàäèåíò_10"/></defs><g id="_23_esarabunfile" data-name="23_esarabunfile"><g id="Layer_76" data-name="Layer 76"><rect class="cls-1" x="1" y="0.86" width="298.25" height="298.25" rx="149.12"/><rect class="cls-2" x="12.47" y="12.33" width="275.3" height="275.3" rx="137.65"/><path class="cls-3" d="M35.11,150.78a115.85,115.85,0,1,0,231.69,0H35.11Z"/><g class="cls-4"><path class="cls-5" d="M150.12,288.37C73.81,288.37,11.73,226.29,11.73,150S73.81,11.59,150.12,11.59,288.51,73.68,288.51,150,226.43,288.37,150.12,288.37Zm0-275.3C74.62,13.07,13.2,74.49,13.2,150S74.62,286.9,150.12,286.9,287,225.48,287,150,225.61,13.07,150.12,13.07Z"/></g><rect class="cls-6" x="40" y="39.86" width="220.24" height="220.24" rx="110.12"/></g><g id="_23_esarabunfile-2" data-name="23_esarabunfile"><circle class="cls-7" cx="191.1" cy="202.38" r="28.36" transform="translate(-35.85 363.54) rotate(-82.02)"/><path class="cls-8" d="M253.83,117.79v45.36a2.18,2.18,0,0,1-2.19,2.18H190.16a2.18,2.18,0,0,1-2.18-2.18v-40.4a2.19,2.19,0,0,1,2.18-2.19h34a4.34,4.34,0,0,0,3.46-1.71l1.23-1.62a4.1,4.1,0,0,1,3.26-1.62h19.56A2.19,2.19,0,0,1,253.83,117.79Z"/><circle class="cls-9" cx="145" cy="151.92" r="76.77"/><path class="cls-10" d="M99,102.3v34.49a1.65,1.65,0,0,1-1.66,1.65H50.65A1.66,1.66,0,0,1,49,136.79V106.07a1.66,1.66,0,0,1,1.66-1.66H76.47a3.3,3.3,0,0,0,2.63-1.3l.94-1.23a3.09,3.09,0,0,1,2.48-1.23H97.38A1.65,1.65,0,0,1,99,102.3Z"/><path class="cls-11" d="M204,179.7H165.57a1.54,1.54,0,0,1-1.53-1.53V152.92a1.54,1.54,0,0,1,1.53-1.54H186.8a2.53,2.53,0,0,0,2-1l.77-1a2.78,2.78,0,0,1,2.18-1.08H204a1.54,1.54,0,0,1,1.54,1.54v28.35A1.54,1.54,0,0,1,204,179.7Zm-38.42-28a1.2,1.2,0,0,0-1.19,1.2v25.25a1.2,1.2,0,0,0,1.19,1.19H204a1.19,1.19,0,0,0,1.19-1.19V149.82a1.19,1.19,0,0,0-1.19-1.19H191.77a2.4,2.4,0,0,0-1.9.94l-.77,1a2.89,2.89,0,0,1-2.3,1.14Z"/><path class="cls-11" d="M117.87,151.74H79.45a1.54,1.54,0,0,1-1.53-1.53V125a1.54,1.54,0,0,1,1.53-1.54h21.23a2.56,2.56,0,0,0,2-1l.77-1a2.74,2.74,0,0,1,2.17-1.07h12.22a1.53,1.53,0,0,1,1.54,1.53v28.35A1.54,1.54,0,0,1,117.87,151.74Zm-38.42-28a1.2,1.2,0,0,0-1.19,1.2v25.25a1.2,1.2,0,0,0,1.19,1.19h38.42a1.2,1.2,0,0,0,1.2-1.19V121.86a1.19,1.19,0,0,0-1.2-1.19H105.65a2.4,2.4,0,0,0-1.9.94l-.77,1a2.88,2.88,0,0,1-2.3,1.14Z"/><path class="cls-12" d="M152.8,90.13a3.89,3.89,0,0,1-1,3.75c-1.37,1.37-2.18-3.18-2.18-3.18Z"/><path class="cls-11" d="M175,129.1H161.32l7.43-13.59a2.28,2.28,0,0,1,2-1.2h10.62a1,1,0,0,1,.9,1.53Zm-13.14-.34h12.94L182,115.68a.69.69,0,0,0-.6-1H170.76a2,2,0,0,0-1.71,1Z"/><polygon class="cls-13" points="154.49 142.25 153.49 209.08 146.8 209.08 143.06 148.97 146 142.17 154.49 142.25"/><path class="cls-12" d="M133.62,142.17l-8.14,67.89,7.34-1,12.23-58,1.53-1.14a5.38,5.38,0,0,0,2.06-3.25l.89-4.46Z"/><path class="cls-14" d="M170.28,131a3.41,3.41,0,0,1-2.19,1.45l-19.9,4.71a5.74,5.74,0,0,1-6.65-6.62l0-.06,8.93-.32,20.27.12Z"/><path class="cls-15" d="M151.59,105l-2.15-1.35a5.39,5.39,0,0,1-2-3.47l-.8-4.34-4.53-2s.1,5.63-3.33,9.2c-1.94,2,8.15,7.62,8.15,7.62l4-1.17Z"/><path class="cls-12" d="M182.29,116.06H171.68a2.14,2.14,0,0,0-1.87,1.1l-7.28,13.35h13.32l7.2-13.18A.86.86,0,0,0,182.29,116.06Z"/><rect class="cls-12" x="153.94" y="129.65" width="11.39" height="0.86"/><path class="cls-11" d="M156.07,117.07c.6-8-4.48-12-4.48-12l-.69.77a4.47,4.47,0,0,1-5.55,1l-6.58-3.67s-4.22,1.88-5.6,2.56c-2.37,1.19-4.22,4-4.72,10l8,1.85-2.8,24.71,20.87.08S155.75,121.3,156.07,117.07Z"/><polygon class="cls-16" points="136.42 117.46 139.78 142.17 133.62 142.17 136.42 117.46"/><path class="cls-12" d="M147.43,100.21l-.8-4.34-3.3-1.45c.24,3,1.49,6.9,5.35,8.54A5.46,5.46,0,0,1,147.43,100.21Z"/><path class="cls-17" d="M141.72,88c-.44,3,.12,12,8.75,12.13,2.9-8.45.27-13.49.27-13.49Z"/><polygon class="cls-18" points="128.45 115.61 127.44 126.18 135.38 126.62 136.42 117.46 128.45 115.61"/><path class="cls-19" d="M161.78,127.52,157.84,126l-4.2,1.8-.94.81-.39,1.06h5.31a1.57,1.57,0,0,0,1.55-1.73h0l1.72.08s.21.38.5,1a1.32,1.32,0,0,0,1.14.64Z"/><path class="cls-12" d="M141.86,96.4a4.06,4.06,0,0,1-1.18-5.15c-1.23-2.43,1.51-5.19,3.74-4.17l10-2.85s2,5.13-2,6.76a8.77,8.77,0,0,1-7.64-.53s.91,2.74-.73,3.81c0,0-.13-2-.89-2s-.87.85-.43,1.87A1.64,1.64,0,0,1,141.86,96.4Z"/><path class="cls-20" d="M135.88,122.22s-4.38.09-5.34,4.14l4.84.26Z"/><path class="cls-21" d="M170.44,130.78l2.41-4s-2.76-.38-3.76,1.39-1.77,3-1.77,3Z"/><path class="cls-13" d="M124.61,211.29a6.13,6.13,0,0,1,4.54-4c3.59-.74,5.07,4,5.07,4Z"/><path class="cls-13" d="M148.78,207.2l4.74-.66a10.13,10.13,0,0,0,4.51,2.71,23.22,23.22,0,0,0,3.39.47,1.84,1.84,0,0,1,1.75,1.57H147l-.2-2.21Z"/><path class="cls-13" d="M130.74,151.35V151a8.35,8.35,0,0,0,6.37-2.59,7.61,7.61,0,0,0,1.62-2.61l.33.1a8,8,0,0,1-1.68,2.73A8.71,8.71,0,0,1,130.74,151.35Z"/><polygon class="cls-16" points="137.11 134.38 151.38 129.81 137.91 132.2 137.11 134.38"/><path class="cls-22" d="M152.31,129.65l-18.09,3.2a5.87,5.87,0,0,1-6.79-6.74l27.06,1.31Z"/><path class="cls-12" d="M136.82,115.63l-.23,0s.34-2.39.8-4.69a4.45,4.45,0,0,0-2.17-5.16l.11-.2a4.66,4.66,0,0,1,2.29,5.41C137.16,113.24,136.82,115.6,136.82,115.63Z"/><rect class="cls-13" x="104.74" y="176.43" width="55.62" height="0.34" transform="translate(-61.71 281.59) rotate(-81.5)"/><rect class="cls-11" x="106.46" y="211.12" width="76.2" height="0.34"/><polygon class="cls-11" points="210.53 141.64 182.14 141.64 174.74 127.89 175.04 127.73 182.34 141.3 210.53 141.3 210.53 141.64"/><path class="cls-11" d="M117.62,180.86a9.53,9.53,0,1,1-9.51-10h0v-3.65h0a13.18,13.18,0,1,0,13.16,13.69Z"/><path class="cls-23" d="M108.11,167.17v3.65a9.53,9.53,0,0,1,9.53,9.53c0,.17,0,.34,0,.51h3.65c0-.17,0-.34,0-.51A13.19,13.19,0,0,0,108.11,167.17Z"/><rect class="cls-11" x="101.31" y="157.72" width="4.45" height="1.06"/><rect class="cls-11" x="101.31" y="159.99" width="9.75" height="1.06"/><rect class="cls-11" x="101.31" y="162.26" width="13.57" height="1.06"/><rect class="cls-11" x="163.97" y="186.52" width="8.89" height="1.06"/><rect class="cls-11" x="163.97" y="188.79" width="19.48" height="1.06"/><rect class="cls-11" x="163.97" y="191.05" width="12.5" height="1.06"/><circle class="cls-12" cx="108.11" cy="180.35" r="6.74"/><rect class="cls-11" x="185.56" y="128.93" width="2.42" height="12.54"/><rect class="cls-12" x="185.56" y="125.47" width="2.42" height="3.46"/><rect class="cls-12" x="190.21" y="133.02" width="2.42" height="2.18"/><rect class="cls-12" x="194.86" y="119.74" width="2.42" height="5.15"/><rect class="cls-12" x="199.5" y="129.43" width="2.42" height="1.7"/><rect class="cls-11" x="190.21" y="135.2" width="2.42" height="6.27"/><rect class="cls-11" x="194.86" y="124.89" width="2.42" height="16.58"/><rect class="cls-11" x="199.5" y="131.13" width="2.42" height="10.34"/><rect class="cls-11" x="173.07" y="160.52" width="23.4" height="11.7"/><rect class="cls-12" x="184.23" y="163.28" width="5.51" height="1.17"/><rect class="cls-12" x="184.23" y="165.78" width="8.27" height="1.17"/><rect class="cls-12" x="184.23" y="168.29" width="3.28" height="1.17"/><circle class="cls-12" cx="178.29" cy="166.37" r="3.39"/><polygon class="cls-12" points="169.14 84.23 169.14 96.92 162.53 103.53 169.14 103.53 170.76 103.53 204.4 103.53 204.4 84.23 169.14 84.23"/><rect class="cls-9" x="188.43" y="90.58" width="5.34" height="1.06"/><rect class="cls-9" x="188.43" y="92.85" width="11.7" height="1.06"/><rect class="cls-9" x="188.43" y="95.11" width="8.15" height="1.06"/><rect class="cls-11" x="108.85" y="96.04" width="13.52" height="1.06"/><rect class="cls-11" x="108.85" y="98.31" width="5.85" height="1.06"/><rect class="cls-11" x="108.85" y="100.58" width="8.15" height="1.06"/><rect class="cls-11" x="234.96" y="121.62" width="13.52" height="1.06"/><rect class="cls-11" x="234.96" y="123.89" width="5.85" height="1.06"/><rect class="cls-11" x="234.96" y="126.16" width="8.15" height="1.06"/><rect class="cls-12" x="54.26" y="113.26" width="13.52" height="1.06"/><rect class="cls-12" x="54.26" y="115.53" width="5.85" height="1.06"/><rect class="cls-12" x="54.26" y="117.79" width="8.15" height="1.06"/><circle class="cls-24" cx="179.18" cy="93.38" r="5.6" transform="translate(59.36 256.06) rotate(-81.15)"/><circle class="cls-11" cx="58.8" cy="129.43" r="4.54"/><polygon class="cls-11" points="179.18 86.94 179.18 93.38 183.87 88.69 179.18 86.94"/><path class="cls-12" d="M240.06,151.15V171.5a1,1,0,0,1-1,1H211.51a1,1,0,0,1-1-1V153.37a1,1,0,0,1,1-1h15.23a1.93,1.93,0,0,0,1.55-.77l.56-.72a1.81,1.81,0,0,1,1.46-.73h8.77A1,1,0,0,1,240.06,151.15Z"/><path class="cls-12" d="M90.23,169.36V189.7a1,1,0,0,1-1,1H61.68a1,1,0,0,1-1-1V171.58a1,1,0,0,1,1-1H76.91a1.93,1.93,0,0,0,1.55-.77l.55-.73a1.86,1.86,0,0,1,1.47-.72h8.77A1,1,0,0,1,90.23,169.36Z"/><path class="cls-11" d="M126.6,104.72h-20a1.7,1.7,0,0,1-1.7-1.7V94.65a1.7,1.7,0,0,1,1.7-1.69h20a1.7,1.7,0,0,1,1.7,1.69V103A1.7,1.7,0,0,1,126.6,104.72Zm-20-11.42a1.36,1.36,0,0,0-1.36,1.35V103a1.35,1.35,0,0,0,1.36,1.35h20A1.34,1.34,0,0,0,128,103V94.65a1.35,1.35,0,0,0-1.35-1.35Z"/><rect class="cls-12" x="151.55" y="127.17" width="1.15" height="2.65"/><rect class="cls-12" x="150.97" y="126.97" width="2.26" height="0.66"/></g></g></svg>