<svg xmlns="http://www.w3.org/2000/svg" xmlns:xlink="http://www.w3.org/1999/xlink" viewBox="0 0 300 300"><defs><style>.cls-1{fill:url(#linear-gradient);}.cls-2{fill:url(#linear-gradient-2);}.cls-3{fill:#db1f26;}.cls-4{opacity:0.5;}.cls-5{fill:#010101;}.cls-6{fill:url(#linear-gradient-3);}.cls-7{fill:#b2b4b6;}.cls-8{fill:#fff;}.cls-9{fill:#c1282d;}.cls-10{fill:#fbb03c;}.cls-11{fill:#079247;}</style><linearGradient id="linear-gradient" x1="-1543.67" y1="552.88" x2="-1245.42" y2="552.88" gradientTransform="translate(702.33 1544.66) rotate(90)" gradientUnits="userSpaceOnUse"><stop offset="0" stop-color="#fffffd"/><stop offset="1" stop-color="#e2e3e4"/></linearGradient><linearGradient id="linear-gradient-2" x1="-1532.19" y1="552.88" x2="-1256.89" y2="552.88" gradientTransform="translate(702.33 1544.66) rotate(90)" gradientUnits="userSpaceOnUse"><stop offset="0" stop-color="#4a90cd"/><stop offset="1" stop-color="#2055a6"/></linearGradient><linearGradient id="linear-gradient-3" x1="-1504.67" y1="552.88" x2="-1284.43" y2="552.88" gradientTransform="translate(702.34 1544.67) rotate(90)" xlink:href="#linear-gradient"/></defs><g id="_04_complain" data-name="04_complain"><g id="Layer_14" data-name="Layer 14"><rect class="cls-1" x="0.33" y="1" width="298.25" height="298.25" rx="149.12"/><rect class="cls-2" x="11.8" y="12.47" width="275.3" height="275.3" rx="137.65"/><path class="cls-3" d="M34.83,150.78a115.85,115.85,0,1,0,231.69,0H34.83Z"/><g class="cls-4"><path class="cls-5" d="M149.46,288.51c-76.31,0-138.39-62.08-138.39-138.39S73.15,11.73,149.46,11.73,287.84,73.82,287.84,150.12,225.76,288.51,149.46,288.51Zm0-275.3C74,13.21,12.54,74.63,12.54,150.12S74,287,149.46,287s136.91-61.42,136.91-136.92S225,13.21,149.46,13.21Z"/></g><rect class="cls-6" x="39.33" y="40" width="220.24" height="220.24" rx="110.12"/></g><g id="Layer_16" data-name="Layer 16"><circle class="cls-7" cx="116.43" cy="110.36" r="51.27" transform="translate(-43.93 114.65) rotate(-45)"/><circle class="cls-8" cx="116.43" cy="110.36" r="48.29" transform="translate(-43.93 114.65) rotate(-45)"/><circle class="cls-9" cx="116.43" cy="110.36" r="45.31"/><path class="cls-8" d="M104.31,95.84a12.34,12.34,0,0,1-24.1,5.3"/><path class="cls-8" d="M124.55,95.84a12.34,12.34,0,0,0,24.1,5.3"/><path class="cls-8" d="M102.08,136.08a1.33,1.33,0,0,1-.34-.05,1.2,1.2,0,0,1-.8-1.49,15.33,15.33,0,0,1,14.78-11.22c8.6,0,12.39,5.92,14.72,11.07a1.19,1.19,0,0,1-2.17,1c-2.17-4.79-5.35-9.68-12.55-9.68s-11.11,4.92-12.5,9.53A1.18,1.18,0,0,1,102.08,136.08Z"/><circle class="cls-7" cx="191.2" cy="147.13" r="60.24" transform="translate(-31.63 239.58) rotate(-60.11)"/><circle class="cls-8" cx="191.2" cy="147.13" r="56.74" transform="translate(-31.6 239.67) rotate(-60.13)"/><circle class="cls-10" cx="191.2" cy="147.13" r="53.24" transform="translate(-48.03 178.29) rotate(-45)"/><circle class="cls-8" cx="169.17" cy="138.97" r="11.39"/><circle class="cls-8" cx="213.48" cy="138.97" r="11.39"/><path class="cls-8" d="M206.73,173.14H175.67a1.65,1.65,0,1,1,0-3.29h31.06a1.65,1.65,0,1,1,0,3.29Z"/><circle class="cls-7" cx="140.98" cy="178.67" r="68.77" transform="translate(-72.2 98.96) rotate(-31.22)"/><circle class="cls-8" cx="140.98" cy="178.67" r="64.77" transform="translate(-72.24 99.07) rotate(-31.25)"/><circle class="cls-11" cx="140.98" cy="178.67" r="60.77" transform="translate(-85.05 152.02) rotate(-45)"/><path class="cls-8" d="M133.16,170.79a1.28,1.28,0,0,1-1.28-1.28c0-5.61-5.6-12.12-12.81-12.12s-12.81,6.51-12.81,12.12a1.29,1.29,0,0,1-2.57,0c0-6.79,6.72-14.69,15.38-14.69s15.38,7.9,15.38,14.69A1.28,1.28,0,0,1,133.16,170.79Z"/><path class="cls-8" d="M176.54,170.79a1.28,1.28,0,0,1-1.28-1.28c0-5.61-5.6-12.12-12.81-12.12s-12.81,6.51-12.81,12.12a1.29,1.29,0,0,1-2.57,0c0-6.79,6.72-14.69,15.38-14.69s15.38,7.9,15.38,14.69A1.28,1.28,0,0,1,176.54,170.79Z"/><path class="cls-8" d="M140.42,216.05c-15.53,0-22.39-10.74-26.63-20.09a1.6,1.6,0,1,1,2.91-1.32c4.09,9,10.1,18.21,23.72,18.21,13.83,0,20.51-9.85,23.67-18.12a1.6,1.6,0,0,1,3,1.14C164.2,203.41,156.9,216.05,140.42,216.05Z"/></g></g></svg>