<svg xmlns="http://www.w3.org/2000/svg" xmlns:xlink="http://www.w3.org/1999/xlink" viewBox="0 0 300 300"><defs><style>.cls-1{fill:url(#linear-gradient);}.cls-2{fill:url(#linear-gradient-2);}.cls-3{fill:#db1f26;}.cls-4{opacity:0.5;}.cls-5{fill:#010101;}.cls-6{fill:url(#linear-gradient-3);}.cls-7{fill:#e2e2e2;}.cls-8{opacity:0.3;}.cls-9{fill:#fff;}.cls-10{fill:#7fb5e2;}.cls-11{fill:#8bbb55;}.cls-12{fill:#fbaa19;}.cls-13{fill:#4f6676;}</style><linearGradient id="linear-gradient" x1="-263.8" y1="552.36" x2="34.44" y2="552.36" gradientTransform="translate(702.33 264.66) rotate(90)" gradientUnits="userSpaceOnUse"><stop offset="0" stop-color="#fffffd"/><stop offset="1" stop-color="#e2e3e4"/></linearGradient><linearGradient id="linear-gradient-2" x1="-252.33" y1="552.36" x2="22.97" y2="552.36" gradientTransform="translate(702.33 264.66) rotate(90)" gradientUnits="userSpaceOnUse"><stop offset="0" stop-color="#4a90cd"/><stop offset="1" stop-color="#2055a6"/></linearGradient><linearGradient id="linear-gradient-3" x1="-224.81" y1="552.37" x2="-4.57" y2="552.37" gradientTransform="translate(702.34 264.67) rotate(90)" xlink:href="#linear-gradient"/></defs><g id="_10_folders" data-name="10_folders"><g id="Layer_38" data-name="Layer 38"><rect class="cls-1" x="0.85" y="0.86" width="298.25" height="298.25" rx="149.12"/><rect class="cls-2" x="12.32" y="12.33" width="275.3" height="275.3" rx="137.65"/><path class="cls-3" d="M34.83,150.78a115.85,115.85,0,1,0,231.69,0H34.83Z"/><g class="cls-4"><path class="cls-5" d="M150,288.37C73.66,288.37,11.58,226.29,11.58,150S73.66,11.59,150,11.59,288.36,73.68,288.36,150,226.28,288.37,150,288.37Zm0-275.3C74.47,13.07,13.05,74.49,13.05,150S74.47,286.9,150,286.9,286.88,225.48,286.88,150,225.46,13.07,150,13.07Z"/></g><rect class="cls-6" x="39.85" y="39.86" width="220.24" height="220.24" rx="110.12"/></g><g id="Layer_39" data-name="Layer 39"><path class="cls-7" d="M219.18,99.32V219.61a5,5,0,0,1-5.05,5H87.06a5,5,0,0,1-5-5V99.32Z"/><g class="cls-8"><path class="cls-9" d="M219.18,99.32v96.91H204.54a96.91,96.91,0,0,1-96.92-96.91H219.18Z"/></g><path class="cls-10" d="M219.17,82.35v17H82v-17a5,5,0,0,1,5-5H214.14A5,5,0,0,1,219.17,82.35Z"/><g class="cls-8"><path class="cls-9" d="M219.17,82.35V92H127.9a14.66,14.66,0,0,1-14.66-14.66h100.9A5,5,0,0,1,219.17,82.35Z"/></g><g class="cls-8"><path class="cls-9" d="M212.05,93.94h0a2.19,2.19,0,0,0,2.2,2.19h4.92V81.07a3.75,3.75,0,0,0-3.75-3.75H193.07A6.92,6.92,0,0,0,200,84.25h2.37A9.69,9.69,0,0,1,212.05,93.94Z"/></g><path class="cls-9" d="M98.93,90.67h-4.4a2.35,2.35,0,1,1,0-4.69h4.4a2.35,2.35,0,0,1,0,4.69Z"/><path class="cls-9" d="M112,90.67h-4.4a2.35,2.35,0,1,1,0-4.69H112a2.35,2.35,0,0,1,0,4.69Z"/><path class="cls-9" d="M125.13,90.67h-4.4a2.35,2.35,0,1,1,0-4.69h4.4a2.35,2.35,0,1,1,0,4.69Z"/><path class="cls-9" d="M206.69,90.67H160.34a2.35,2.35,0,0,1,0-4.69h46.35a2.35,2.35,0,0,1,0,4.69Z"/><path class="cls-11" d="M150.6,192a12.87,12.87,0,0,1-1.4-.07c-.29,0-.57,0-.84-.08s-.54-.06-.79-.1a16.57,16.57,0,0,1-2.26-.55,18.1,18.1,0,0,1-4.9-2.38V133.71h20.38v55.11A18,18,0,0,1,150.6,192Z"/><g class="cls-8"><path class="cls-9" d="M140.41,133.71v8.78h7.9a6.14,6.14,0,0,1,6.14,6.14v42.88a18,18,0,0,0,6.34-2.69V133.71Z"/></g><path class="cls-12" d="M140.41,202.08a28,28,0,0,1-5.84-2.86l-6.5,4.66-7.32-7.34,4.64-6.51a29.29,29.29,0,0,1-3.93-9.54l-7.91-1.32V168.82l7.91-1.32a29.18,29.18,0,0,1,3.93-9.52l-4.64-6.53,7.32-7.32,6.5,4.67a29.13,29.13,0,0,1,5.84-2.89V188.8A17.77,17.77,0,0,0,150.6,192a18,18,0,0,0,10.19-3.16V145.91a29.67,29.67,0,0,1,5.84,2.89l6.52-4.67,7.33,7.32L175.81,158a29.22,29.22,0,0,1,3.95,9.52l7.91,1.32v10.35l-7.91,1.32a29.33,29.33,0,0,1-3.95,9.54l4.67,6.51-7.33,7.34-6.52-4.66a28.49,28.49,0,0,1-5.84,2.86,27.23,27.23,0,0,1-3.68,1.07l-1.32,7.91H145.41l-1.3-7.91A26.69,26.69,0,0,1,140.41,202.08Z"/><polygon class="cls-13" points="140.42 133.72 160.79 133.72 150.6 112.87 140.42 133.72"/><path class="cls-7" d="M140.41,188.8a18,18,0,0,1,0-29.61Z"/><path class="cls-7" d="M160.79,188.82V159.17a18,18,0,0,1,0,29.65Z"/></g></g></svg>