<svg xmlns="http://www.w3.org/2000/svg" xmlns:xlink="http://www.w3.org/1999/xlink" viewBox="0 0 300 300"><defs><style>.cls-1{fill:none;}.cls-2{isolation:isolate;}.cls-3{fill:url(#linear-gradient);}.cls-4{fill:url(#linear-gradient-2);}.cls-5{fill:#db1f26;}.cls-6{opacity:0.5;}.cls-7{fill:#010101;}.cls-8{fill:url(#linear-gradient-3);}.cls-11,.cls-9{fill:#7289ad;}.cls-10,.cls-28{fill:#fff;}.cls-11,.cls-14,.cls-19,.cls-21,.cls-23,.cls-25,.cls-31,.cls-32,.cls-33,.cls-36,.cls-37,.cls-38{mix-blend-mode:multiply;}.cls-12{fill:#bcbcbc;}.cls-13{fill:#d33e59;}.cls-14{fill:#cdd9ef;}.cls-15{fill:#5484c3;}.cls-16{clip-path:url(#clip-path);}.cls-17{fill:#f2eadd;}.cls-18,.cls-19{fill:#fcc8a9;}.cls-20{fill:#1f3a6f;}.cls-21{fill:#f38cab;}.cls-22{fill:#d3c6ae;}.cls-24{fill:#84a1b7;}.cls-25,.cls-26{fill:#4f9ad4;}.cls-27{fill:#acdfe8;opacity:0.55;}.cls-28{opacity:0.77;}.cls-29{fill:#b5cee4;}.cls-30{fill:#e5a67c;}.cls-31{fill:#acc8e9;}.cls-32{fill:url(#linear-gradient-4);}.cls-33{fill:url(#linear-gradient-5);}.cls-34{fill:#fccaa4;}.cls-35{fill:#fba924;}.cls-36{fill:url(#linear-gradient-6);}.cls-37{fill:#c692a5;}.cls-38{fill:#db9680;}.cls-39{fill:#bac8e2;}</style><linearGradient id="linear-gradient" x1="-583.67" y1="1512.88" x2="-285.42" y2="1512.88" gradientTransform="translate(1662.33 584.66) rotate(90)" gradientUnits="userSpaceOnUse"><stop offset="0" stop-color="#fffffd"/><stop offset="1" stop-color="#e2e3e4"/></linearGradient><linearGradient id="linear-gradient-2" x1="-572.19" y1="1512.88" x2="-296.89" y2="1512.88" gradientTransform="translate(1662.33 584.66) rotate(90)" gradientUnits="userSpaceOnUse"><stop offset="0" stop-color="#4a90cd"/><stop offset="1" stop-color="#2055a6"/></linearGradient><linearGradient id="linear-gradient-3" x1="-544.67" y1="1512.88" x2="-324.43" y2="1512.88" gradientTransform="translate(1662.34 584.67) rotate(90)" xlink:href="#linear-gradient"/><clipPath id="clip-path"><circle class="cls-1" cx="132.78" cy="131.84" r="13.7" transform="translate(-19.61 23.26) rotate(-9.32)"/></clipPath><linearGradient id="linear-gradient-4" x1="216.43" y1="214.52" x2="247.08" y2="214.52" gradientUnits="userSpaceOnUse"><stop offset="0" stop-color="#fff"/><stop offset="0.35" stop-color="#eaf4fc"/><stop offset="0.7" stop-color="#dcedfa"/><stop offset="1" stop-color="#d7ebf9"/></linearGradient><linearGradient id="linear-gradient-5" x1="86.73" y1="229.44" x2="132.42" y2="229.44" xlink:href="#linear-gradient-4"/><linearGradient id="linear-gradient-6" x1="123.99" y1="229.53" x2="183.02" y2="229.53" xlink:href="#linear-gradient-4"/></defs><g class="cls-2"><g id="_01_HR" data-name="01_HR"><g id="Layer_5" data-name="Layer 5"><rect class="cls-3" x="0.33" y="1" width="298.25" height="298.25" rx="149.12"/><rect class="cls-4" x="11.8" y="12.47" width="275.3" height="275.3" rx="137.65"/><path class="cls-5" d="M34.83,150.78a115.85,115.85,0,1,0,231.69,0H34.83Z"/><g class="cls-6"><path class="cls-7" d="M149.46,288.51c-76.31,0-138.39-62.08-138.39-138.39S73.15,11.73,149.46,11.73,287.84,73.82,287.84,150.12,225.76,288.51,149.46,288.51Zm0-275.3C74,13.21,12.54,74.63,12.54,150.12S74,287,149.46,287s136.91-61.42,136.91-136.92S225,13.21,149.46,13.21Z"/></g><rect class="cls-8" x="39.33" y="40" width="220.24" height="220.24" rx="110.12"/></g><g id="Layer_30" data-name="Layer 30"><polygon class="cls-9" points="136.72 137.5 91.83 137.5 100.53 106.4 136.72 106.4 136.72 137.5"/><rect class="cls-10" x="111.22" y="117.69" width="94.99" height="73.41"/><path class="cls-9" d="M132.55,78.5H75.7s0-4.38,4.87-4.38h52Z"/><path class="cls-11" d="M83.81,82.57v36.64a7.35,7.35,0,0,1,2.22-.43V83.24A7.53,7.53,0,0,1,83.81,82.57Z"/><path class="cls-10" d="M188.42,78.83a4.77,4.77,0,0,0-5.64-4.71H80.57a4.78,4.78,0,0,1,3.94,4.71h0v24.32h0v22.21c0,.25,0,.49,0,.75s0,.49,0,.74v0h0c0,7.45,2.18,10.62,7.3,10.62s7.32-3.17,7.32-10.65h0v-9.16l89.23-1,0-13.56h0Z"/><path class="cls-12" d="M130.67,114.53a1,1,0,0,1-1,1H93.78a1,1,0,0,1-1-1h0a1,1,0,0,1,1-1h35.84a1,1,0,0,1,1,1Z"/><path class="cls-12" d="M130.67,118a1,1,0,0,1-1,1H93.78a1,1,0,0,1-1-1h0a1,1,0,0,1,1-1h35.84a1,1,0,0,1,1,1Z"/><path class="cls-12" d="M99.12,120.36H93.78a1,1,0,1,0,0,2h5.34Z"/><path class="cls-13" d="M116.13,110.39a1.51,1.51,0,0,1-1.56,1.45H94.21a1.51,1.51,0,0,1-1.56-1.45h0a1.51,1.51,0,0,1,1.56-1.46h20.36a1.51,1.51,0,0,1,1.56,1.46Z"/><path class="cls-14" d="M109.84,105.6c-6.33,0-8.83.11-10.52,6.81L113.41,114v3.87l75.19-.76V101.7s-.35,3.9-10.51,3.9Z"/><path class="cls-15" d="M130.33,121.54V108.17H143.7v13.37Zm11.49-1.88v-9.61h-9.61v9.61Z"/><path class="cls-15" d="M143.17,121H130.85V108.7h12.32Zm-11.49-.83h10.66V109.53H131.68Z"/><path class="cls-10" d="M167.93,117.69c0,6.3,20.6,11.4,26.89,11.4a11.4,11.4,0,0,0,0-22.79C188.53,106.3,167.93,111.4,167.93,117.69Z"/><path class="cls-10" d="M111.22,124.21h68.1l15.5-17.91h-90l2.94,3.18a12.18,12.18,0,0,1,3.5,8.21Z"/><path class="cls-9" d="M99.16,114.49c0,4.32,0,6,0,6,2.92,0,10.75,2.12,12.09-.24,0,0,0-4.38,0-5.78,0-4.32-1.55-7.83-5.87-7.83S99.16,110.17,99.16,114.49Z"/><path class="cls-13" d="M182.93,163.25V151.76h11.49v11.49Zm9.87-1.61v-8.26h-8.26v8.26Z"/><path class="cls-13" d="M194,162.8H183.38V152.21H194Zm-9.88-.71h9.16v-9.16h-9.16Z"/><polygon class="cls-13" points="184.57 157.25 185.71 156.11 188.04 158.44 191.53 153.93 192.8 154.92 188.2 160.88 184.57 157.25"/><polygon class="cls-13" points="188.15 160.2 185.2 157.25 185.71 156.74 188.09 159.12 191.61 154.56 192.17 155 188.15 160.2"/><path class="cls-13" d="M143,154.49a1.17,1.17,0,0,1-1.21,1.13H120.22a1.17,1.17,0,0,1-1.21-1.13h0a1.17,1.17,0,0,1,1.21-1.13h21.57a1.17,1.17,0,0,1,1.21,1.13Z"/><path class="cls-12" d="M160.71,157.72a.79.79,0,0,1-.82.75h-40a.78.78,0,0,1-.81-.75h0a.78.78,0,0,1,.81-.76h40a.79.79,0,0,1,.82.76Z"/><path class="cls-12" d="M160.71,160.38a.79.79,0,0,1-.82.75h-40a.78.78,0,0,1-.81-.75h0a.78.78,0,0,1,.81-.76h40a.79.79,0,0,1,.82.76Z"/><path class="cls-12" d="M133.22,163a.79.79,0,0,1-.82.76H119.89a.78.78,0,0,1-.81-.76h0a.78.78,0,0,1,.81-.76H132.4a.79.79,0,0,1,.82.76Z"/><path class="cls-13" d="M176.71,125.15a1.17,1.17,0,0,1-1.21,1.13H153.93a1.17,1.17,0,0,1-1.21-1.13h0a1.17,1.17,0,0,1,1.21-1.13H175.5a1.17,1.17,0,0,1,1.21,1.13Z"/><path class="cls-12" d="M194.42,128.37a.79.79,0,0,1-.81.76h-40a.78.78,0,0,1-.81-.76h0a.78.78,0,0,1,.81-.76h40a.79.79,0,0,1,.81.76Z"/><path class="cls-12" d="M194.42,131a.79.79,0,0,1-.81.76h-40a.78.78,0,0,1-.81-.76h0a.78.78,0,0,1,.81-.76h40a.79.79,0,0,1,.81.76Z"/><path class="cls-12" d="M194.42,134.15a.79.79,0,0,1-.81.76h-40a.78.78,0,0,1-.81-.76h0a.78.78,0,0,1,.81-.76h40a.79.79,0,0,1,.81.76Z"/><path class="cls-12" d="M166.93,137.92a.78.78,0,0,1-.81.76H153.6a.78.78,0,0,1-.81-.76h0a.78.78,0,0,1,.81-.76h12.52a.78.78,0,0,1,.81.76Z"/><path class="cls-13" d="M182.93,180.6V169.11h11.49V180.6ZM192.8,179v-8.26h-8.26V179Z"/><path class="cls-13" d="M194,180.15H183.38V169.56H194Zm-9.88-.71h9.16v-9.16h-9.16Z"/><polygon class="cls-13" points="184.57 174.6 185.71 173.46 188.04 175.79 191.53 171.28 192.8 172.27 188.2 178.22 184.57 174.6"/><polygon class="cls-13" points="188.15 177.55 185.2 174.6 185.71 174.09 188.09 176.47 191.61 171.91 192.17 172.35 188.15 177.55"/><path class="cls-13" d="M143,171.84a1.17,1.17,0,0,1-1.21,1.13H120.22a1.17,1.17,0,0,1-1.21-1.13h0a1.17,1.17,0,0,1,1.21-1.13h21.57a1.17,1.17,0,0,1,1.21,1.13Z"/><path class="cls-12" d="M160.71,175.07a.79.79,0,0,1-.82.75h-40a.78.78,0,0,1-.81-.75h0a.78.78,0,0,1,.81-.76h40a.79.79,0,0,1,.82.76Z"/><path class="cls-12" d="M160.71,177.73a.79.79,0,0,1-.82.75h-40a.78.78,0,0,1-.81-.75h0a.78.78,0,0,1,.81-.76h40a.79.79,0,0,1,.82.76Z"/><path class="cls-12" d="M133.22,180.36a.79.79,0,0,1-.82.76H119.89a.78.78,0,0,1-.81-.76h0a.78.78,0,0,1,.81-.76H132.4a.79.79,0,0,1,.82.76Z"/><path class="cls-13" d="M162.08,98.83V85.46h13.37V98.83ZM173.57,97V87.34H164V97Z"/><path class="cls-13" d="M174.93,98.3H162.61V86h12.32Zm-11.49-.83H174.1V86.81H163.44Z"/><polygon class="cls-13" points="163.99 91.84 165.32 90.51 168.03 93.23 172.09 87.99 173.57 89.13 168.21 96.06 163.99 91.84"/><polygon class="cls-13" points="168.16 95.27 164.73 91.84 165.32 91.25 168.08 94.02 172.18 88.72 172.84 89.23 168.16 95.27"/><path class="cls-13" d="M124.75,87.42a1.51,1.51,0,0,1-1.56,1.45H95.46a1.51,1.51,0,0,1-1.56-1.45h0A1.51,1.51,0,0,1,95.46,86h27.73a1.51,1.51,0,0,1,1.56,1.45Z"/><path class="cls-12" d="M147.5,91.56a1,1,0,0,1-1,1H95a1,1,0,0,1-1-1h0a1,1,0,0,1,1-1h51.43a1,1,0,0,1,1,1Z"/><path class="cls-12" d="M147.5,95a1,1,0,0,1-1,1H95a1,1,0,0,1-1-1h0a1,1,0,0,1,1-1h51.43a1,1,0,0,1,1,1Z"/><path class="cls-12" d="M112.17,98.37a1,1,0,0,1-1,1H95a1,1,0,0,1-1-1h0a1,1,0,0,1,1-1h16.09a1,1,0,0,1,1,1Z"/><path class="cls-10" d="M123.27,190.79h0a6,6,0,1,0-6,6A6,6,0,0,0,123.27,190.79Z"/><path class="cls-14" d="M206.21,194.67v-8.26s-.35,3.9-10.51,3.9l-74.53,1.95s.57,3.87-3.94,4.57Z"/><path class="cls-9" d="M196.75,190.72H184.68s0,0,0,.07h-61.4a6,6,0,0,1-6,6h89a6,6,0,0,0,6-6S196.75,190.74,196.75,190.72Z"/><circle class="cls-13" cx="132.78" cy="131.84" r="13.7" transform="translate(-40.52 202.42) rotate(-66.96)"/><g class="cls-16"><polygon class="cls-17" points="134.06 157.25 141.41 157.25 138.35 149.24 137.52 138.95 128.25 139.52 128.69 149.66 134.06 157.25"/><path class="cls-18" d="M128.19,139.71c.11,1.2,1.63,1.71,3.62,1.52l.16.33c2-.18,3.51-1.3,3.41-2.5L134.3,130c-.1-1.2-1.47-2.06-3.46-1.88h0c-2,.18-2.86,1.25-2.76,2.46Z"/><path class="cls-19" d="M134.89,136.22l-6.76-.86,0,1.82a16.45,16.45,0,0,0,4.72,2.43c.71.07,2.33-.94,2.32-1.34Z"/><path class="cls-18" d="M136,128.38l.75-.39c.63-.31,1.16,0,1.27.76.18,1.25-.86,1.39-.78,2.37l-1.61-.14Z"/><path class="cls-18" d="M127.14,130.92l-.83-.16c-.69-.12-1.11.36-1,1.09.18,1.25,1.16,1,1.48,2.12l1.44-.66Z"/><path class="cls-18" d="M137.17,134.24c-.47,1.76-1.82,4.29-3,4.61-1.35.35-5.52-1.42-6.2-2.57-1.89-3.17-3.46-11.91,3-12.51,1.72-.16,4.62-1.3,5.72,1.83A20.73,20.73,0,0,1,137.17,134.24Z"/><path class="cls-19" d="M137.17,134.24a20.73,20.73,0,0,0-.48-8.64c-1.1-3.13-4-2-5.72-1.83a5.67,5.67,0,0,0-2.86,1l.19.1a12.36,12.36,0,0,1,2.95,2.73c.07.08.29-.27.33-.18a7.24,7.24,0,0,0,2,.75c.6,0,2.85-.74,3.15.23a10.18,10.18,0,0,1,.33,5.34c-.94,3.92-2.87,5.13-2.87,5.13C135.35,138.53,136.7,136,137.17,134.24Z"/><path class="cls-20" d="M131.8,121.8c.45-.58-.15,2.49,1.14,1.5.58-.44,2-.12,2.87,1.24l-5.94,1.84c-.38,0-.76,0-1.14.08a2,2,0,0,0-1.69,1.86c-.51-.24-1-.47-1.54-.75C125.47,122.19,130.29,123.8,131.8,121.8Z"/><path class="cls-20" d="M135.41,121.78c.24.67-.3,1.6-1.21,2.09a2.48,2.48,0,0,1-2.81-1c-.24-.66.85-.13,1.74-1.08C133.87,121,135.16,121.12,135.41,121.78Z"/><path class="cls-20" d="M135.5,127.34c1.46-.17,1.84,2.79,1.84,2.79.4-.08.38-2.29-.19-4C136.79,125,134.44,127.46,135.5,127.34Z"/><path class="cls-21" d="M135.5,127.34c1.46-.17,1.84,2.79,1.84,2.79.4-.08.38-2.29-.19-4C136.79,125,134.44,127.46,135.5,127.34Z"/><path class="cls-20" d="M137,124.81a2.32,2.32,0,0,1-1.55,2.8c-2.77,1.27-3.54-.6-7.42.58-.33.1.31.9-.71,1.89a3.34,3.34,0,0,0-.62,2.85c-.57,0-1-4.16-1.1-4.59-.47-2.1,1.7-4.59,4.85-5.57S136.57,122.71,137,124.81Z"/><path class="cls-21" d="M126.67,131.72a43.19,43.19,0,0,1-.55-4.29c0-1.36.07-2.31,1.29-3.1a12.73,12.73,0,0,1,3.07-.8,3.57,3.57,0,0,0,1.92-1.21,3.68,3.68,0,0,1-.37.11c0-.47,0-.87-.23-.63-1.51,2-6.33.39-6.3,5.77l.08,0a2.55,2.55,0,0,0,.06.73c.09.43.53,4.63,1.1,4.59A9.48,9.48,0,0,1,126.67,131.72Z"/><path class="cls-17" d="M134.87,157.25l-7-13a8.88,8.88,0,0,1,.82-4.06c-6.31,1.7-4.94,3.56-5.73,6.43l2.32,10.6Z"/><path class="cls-22" d="M128.32,141.1a8,8,0,0,0-.49,3.18l.68,1.26Z"/><path class="cls-22" d="M139.11,140.06l3.07,2.08A7.22,7.22,0,0,0,139.11,140.06Z"/><path class="cls-22" d="M139.11,140.06c-.94-.64-1.62-1.11-1.59-1.11h-.09l-3,.18c.16.13.33.27.51.4A8.34,8.34,0,0,1,139.11,140.06Z"/><path class="cls-22" d="M134.6,152.51a.42.42,0,1,0,.4-.4A.4.4,0,0,0,134.6,152.51Z"/><path class="cls-22" d="M133.3,146.58a.42.42,0,0,0,.83,0,.42.42,0,0,0-.83,0Z"/><polygon class="cls-22" points="141.63 150.2 139.94 152.47 137.58 150.92 136.96 147.37 141 146.66 141.63 150.2"/><polygon class="cls-17" points="141.41 150.16 139.89 152.2 137.77 150.8 137.21 147.6 140.84 146.96 141.41 150.16"/><path class="cls-20" d="M144.35,144.09l-.18-.84a4.08,4.08,0,0,0-1.25-2,10.48,10.48,0,0,0-5.49-2.32c-1.78.12-2.47,0-2.41,1l.06,1.29c1.61,3.84,2.7,10,3.42,16h5.84c-.13-3.09-.24-5.28-.24-5.28C144,148.7,144.62,146.12,144.35,144.09Z"/><path class="cls-21" d="M135.08,141.27c1.61,3.84,2.7,10,3.42,16h1.84c.07-1.15.11-2.5.07-4.38-.08-4.31-.87-4.39-2.75-8-.69-1.32,1.36-3.31-.1-5.9l-.13,0c-1.78.12-2.47,0-2.41,1Z"/><polygon class="cls-22" points="136.4 139.24 133.75 143.53 132.81 141.07 136.25 137.64 136.4 139.24"/><polygon class="cls-17" points="136.4 139.24 133.68 142.82 132.8 140.94 136.21 137.26 136.4 139.24"/><path class="cls-20" d="M133.86,157.25a52.55,52.55,0,0,0-.56-6.76c-1.26-7.4-2.09-8.9-4.88-10.44.71-.1-3.63-.56-7.91,3.52-.18,3.28,2,10,3.28,13.68Z"/><path class="cls-20" d="M127.07,140.14c-2.35-1.07-8.47,4.47-8.47,4.47v6.72c1.72,3.11,3.27-.47,3.8,1.73,1.42.49-.86-7.56.39-6.76,2.58,1.66,1.25-1.14,3.34,1.12C126,145.68,128.18,141.65,127.07,140.14Z"/><path class="cls-21" d="M131,145.76c.84,1.2-.58,2.93.09,6.68.15.82.63,2.4,1.16,4.81h1.62a52.55,52.55,0,0,0-.56-6.76c-1.26-7.4-2.09-8.9-4.88-10.44.42-.06-.93-.24-3,.46C125.85,142.59,129.85,144.1,131,145.76Z"/><polygon class="cls-22" points="127.9 140.51 132.15 143.8 132.78 141.21 127.49 138.74 127.9 140.51"/><polygon class="cls-17" points="127.9 140.51 132.06 143.39 132.82 141.08 127.41 138.33 127.9 140.51"/></g><path class="cls-15" d="M224.6,213.9c0,.93-1.26,1.3-2.25,1.26s-3.3.21-3.29-.5c0-.93,1.28-.82,2.58-2.38.45-.53,1.69-1.45,2.36-.86A6.26,6.26,0,0,1,224.6,213.9Z"/><path class="cls-10" d="M220.34,214.84l.57,0a5.54,5.54,0,0,0,1,0c.46-.09,1.1-.12,1.56-.21s.76-.46,1.12-.81c0,.06,0,.12,0,.15,0,.93-1.26,1.3-2.25,1.26s-3.3.21-3.29-.5v0A2.75,2.75,0,0,0,220.34,214.84Z"/><g class="cls-23"><path class="cls-24" d="M216.84,178.44l-11.53-19.61.07-.09a7.41,7.41,0,0,0,1.8-5,19.66,19.66,0,1,0-13.85,5.62c.42,0,.83,0,1.24,0l.24.22a7.44,7.44,0,0,0,5.11,1.8l11.81,20.08a1.3,1.3,0,0,0,1.77.46l2.89-1.7A1.29,1.29,0,0,0,216.84,178.44Zm-40.55-38.81a17.14,17.14,0,1,1,17.06,17.22A17.14,17.14,0,0,1,176.29,139.63Z"/></g><path class="cls-18" d="M217.13,172s6.2,1.71,8.35,1.66a1.81,1.81,0,0,0,2-1.72c.11-.81-.56-1-1.57-1.2l-7-.39-.64-.13a5.5,5.5,0,0,1-.76-.44l-4.76-4.37c-.66-.81-2.31-1.95-2.35-1.74a12.64,12.64,0,0,0,1.31,2.05l4.29,5.51A2.89,2.89,0,0,0,217.13,172Z"/><path class="cls-20" d="M217.51,174.27l-13.59-23.1a3.3,3.3,0,0,1-.22.3,4.71,4.71,0,0,1-3.12,1.74,4.92,4.92,0,0,1-1.89.78l13.7,23.29a1.3,1.3,0,0,0,1.77.46l2.89-1.7A1.31,1.31,0,0,0,217.51,174.27Z"/><path class="cls-25" d="M211.83,173.14c-2-2.78-6.4-10.17-7.06-12.39s.73-2.8,2.34-4.14l-3.19-5.44a3.3,3.3,0,0,1-.22.3,4.71,4.71,0,0,1-3.12,1.74,4.92,4.92,0,0,1-1.89.78l13.7,23.29a1.3,1.3,0,0,0,1.77.46l2.89-1.7a1.27,1.27,0,0,0,.58-.77C213.71,176.29,214,176.19,211.83,173.14Z"/><path class="cls-26" d="M207.42,147.24a5.5,5.5,0,0,1-2.07,2.93c-3.42,2.39-7.24,4.17-11.43,3.39a7.34,7.34,0,0,0,1.52,1.79,7.5,7.5,0,0,0,12-8.11Z"/><path class="cls-20" d="M207.45,147.29a5.46,5.46,0,0,1-2.07,2.93c-3.42,2.39-7.24,4.17-11.43,3.4a7.73,7.73,0,0,0,1.52,1.78,7.5,7.5,0,0,0,12-8.11Z"/><path class="cls-20" d="M213.76,135.64A19.67,19.67,0,1,0,194,155.21,19.67,19.67,0,0,0,213.76,135.64ZM194,152.69a17.14,17.14,0,1,1,17.22-17.06A17.15,17.15,0,0,1,194,152.69Z"/><circle class="cls-27" cx="194.09" cy="135.55" r="17.14" transform="translate(-26.22 48.89) rotate(-13.46)"/><path class="cls-28" d="M209.07,143.65a17.14,17.14,0,0,0-.14-16.62Q209,135.34,209.07,143.65Z"/><path class="cls-28" d="M201.13,119.88a17.16,17.16,0,0,0-10.72-1.16c.13,11.18.2,22.37.28,33.56a17.22,17.22,0,0,0,10.68-1.34C201.34,140.59,201.22,130.24,201.13,119.88Z"/><path class="cls-28" d="M183,122.81q-.47.41-.9.84a17.15,17.15,0,0,0,.16,24.24c.31.3.63.58,1,.86Q183.11,135.77,183,122.81Z"/><path class="cls-15" d="M225.11,176.64l2.23-3c.65-.89,1.4-2.24,2.22-1.67a3.71,3.71,0,0,1,.92,3.91,9.78,9.78,0,0,1-1,2.13A35.55,35.55,0,0,1,225.11,176.64Z"/><g class="cls-23"><path class="cls-29" d="M225.11,176.64l2.23-3c.65-.89,1.4-2.24,2.22-1.67a3.71,3.71,0,0,1,.92,3.91,9.78,9.78,0,0,1-1,2.13A35.55,35.55,0,0,1,225.11,176.64Z"/></g><path class="cls-18" d="M211.57,173.85c-.93,0-1.75.31-1.6.94l-.23,0c.15.63,1.06,1,2,1h7.18c.93,0,1.57-.51,1.42-1.14h0a2,2,0,0,0-1.95-1.15Z"/><path class="cls-15" d="M221.4,173.27l.86,1.44c1.78,1,.22,1.67.17,1.65-.72-.35-3.24.12-3.3.17l-1.19-3,2.34-.92,1.33-.79C222.22,171.56,220.88,172.5,221.4,173.27Z"/><path class="cls-18" d="M210.43,174.42a1.45,1.45,0,0,1,1-.24,9.43,9.43,0,0,0-.61-.81l-3.77-5.5a20.4,20.4,0,0,1-1.65-2.64s-1,.79-.55,1.63l4.34,7.19a9.74,9.74,0,0,0,.69,1A1.67,1.67,0,0,1,210.43,174.42Z"/><path class="cls-18" d="M224.05,200.93c0,1-.3,1.87-1.05,1.85l.17-.05c-.75,0-1.37-.87-1.4-1.92a136.54,136.54,0,0,1-.06-14.61l5.29.14c.75,0-1.46,2.81-1.43,3.85Z"/><path class="cls-15" d="M241.05,208.52c.59.72-.14,1.8-.92,2.41s-2.41,2.26-2.86,1.71c-.58-.71.47-1.44.47-3.48,0-.69.37-2.19,1.27-2.17C239.49,207,240.85,208.27,241.05,208.52Z"/><path class="cls-10" d="M238.37,212l.43-.39a4.78,4.78,0,0,0,.74-.68c.3-.36.77-.79,1.06-1.16a2.19,2.19,0,0,0,.34-1.34l.11.12c.59.72-.14,1.8-.92,2.41s-2.41,2.26-2.86,1.71v0A2.67,2.67,0,0,0,238.37,212Z"/><path class="cls-18" d="M222.51,212.33a1.87,1.87,0,0,0,.46.09,1,1,0,0,0,.79-.26l.63-8-.41-3c.06-1,.25-2-.49-2.17l-.34-.06c-.75-.12-1.39.63-1.44,1.67l.78,10.77A3.21,3.21,0,0,0,222.51,212.33Z"/><path class="cls-18" d="M228.05,200.45c.08,1,.24,1.89,1,1.84l.33,0a1.64,1.64,0,0,0,1.27-1.92l-.56-10.78c-.08-1-.1-4.29-.85-4.25l-2.69,1.08c-.74,0-3.16,3.92-.38,4Z"/><path class="cls-18" d="M238.25,208.52a2.5,2.5,0,0,0,.82-.1c.23-.08.63-.3.5-.62a2.42,2.42,0,0,0-.18-.36l-6.26-5.24a36.93,36.93,0,0,0-4.56-1.7l-.23.25c-.51.55.06,1.46.87,2.11l9,5.63Z"/><path class="cls-19" d="M239.44,207.54c-.84,1.92-10.27-5.45-10.41-6-.61-2.61-1.07-4.23,1.45-4.26l-.4-7.66c-.08-1-.1-4.29-.85-4.25l-2.69,1.08c-.74,0-3.16,3.92-.38,4l1.89,10.07c0,.28,0,.55.1.8a2.46,2.46,0,0,0,1.06,1.61l9,5.63,0,0a2.5,2.5,0,0,0,.82-.1c.23-.08.63-.3.5-.62A2.1,2.1,0,0,0,239.44,207.54Z"/><g class="cls-23"><path class="cls-18" d="M222.27,212.23a1.74,1.74,0,0,0,.7.19.48.48,0,0,0,.12,0,.84.84,0,0,0-.05-.52c-.43-1.09-.6-5.62-.64-12,0-1.66.33-2.47,1.83-2.54,2.2-.11,5-9.67,5.71-10.08-.1-1.13-.27-2-.71-2l-2.52,1-5-.13c-.26,8.65-.06,12.86,0,14.16a2.4,2.4,0,0,0,0,.28l.49,10.8A2,2,0,0,0,222.27,212.23Z"/></g><path class="cls-15" d="M220.19,196.39c-.32,1.51,12,.74,11.55-.7-1.82-6.32-1.9-19.73-2.91-23.89-.19-.78-1.35-1-2.65-1.57a4.72,4.72,0,0,0-2.94.1c-1.7.57-2.75.49-2.9,2C219.58,180.12,222.16,187.28,220.19,196.39Z"/><g class="cls-23"><path class="cls-29" d="M231.74,195.69c-1.82-6.32-1.9-19.73-2.91-23.89-.19-.78-1.35-1-2.65-1.57a3.88,3.88,0,0,0-2.11-.1v.31c1,.09,1.21,1.19,2.42,1.31.35,0,1.94.41,2.26,1.14a16.31,16.31,0,0,1,.41,4.21c.43,6.76,1.25,16.77.74,17.62-1.56,2.61-6.38,1.41-9.25,2.14C222.83,197.69,232.11,196.94,231.74,195.69Z"/></g><path class="cls-18" d="M226.21,171.21c0,.49-.54.93-1.3,1h0c-.75.07-1.4-.28-1.44-.77l-.31-3.67c0-.49.54-.93,1.29-1h0c.76-.06,1.41.29,1.45.78Z"/><path class="cls-30" d="M226.13,170.38l-.23-2.84c0-.49-.69-.84-1.45-.78s-1.34.51-1.29,1l.32,3.82A2.64,2.64,0,0,0,226.13,170.38Z"/><path class="cls-20" d="M223.19,175.72c-5.37-1.2-2.14-14.09-1-14.6.59-.66,2.8-2.66,5.59-.12,1.35,1.24,3.24,10.08-.44,10.81C223.92,172.48,225.08,176.14,223.19,175.72Z"/><g class="cls-23"><path class="cls-26" d="M227.8,161a3.76,3.76,0,0,0-3.54-1.16c3,.14,4.59,3.59,4.22,7a6.18,6.18,0,0,1-2.51,4.41,6.76,6.76,0,0,0-1.43,1.21,8.15,8.15,0,0,1-.45,1.61,2.61,2.61,0,0,1-1.23,1.58l.33.1c1.89.42.73-3.24,4.17-3.91C231,171.08,229.15,162.24,227.8,161Z"/></g><path class="cls-31" d="M75.2,78.33a5.55,5.55,0,0,0-.72,0C73.59,78.28,73.94,78.3,75.2,78.33Z"/><path class="cls-32" d="M217.08,215a122,122,0,0,0,13.51.4c6.6-.07,18.71-.27,16.13-.76-3.06-.6-7.73-1-18.06-1S214.84,214.71,217.08,215Z"/><path class="cls-33" d="M87.7,230c3.71.35,10.94.55,20.15.47,9.82-.08,27.88-.32,24-.9-4.57-.68-11.53-1.1-26.92-1.1S84.36,229.66,87.7,230Z"/><path class="cls-18" d="M92.84,227.9s-1.38,1.1-1.38.44c.05-6,.32-14.9.22-19.15,0-1.15-.32-18.64,3.35-19.1,3.34-.43,2,0,2.92,2,.78,1.68-1.86,16.13-2.47,17.53-.2.47-.61,2.87-.71,3.37A140.24,140.24,0,0,0,92.84,227.9Z"/><path class="cls-18" d="M97.81,227.88s-1.28.4-1.34-.25c-.48-6-.19-14.27-.66-18.5-.13-1.14-4.36-18.39-.75-19.17,3.29-.72,3.69-.36,4.79,1.57.93,1.6.26,16.16-.22,17.61-.16.49-.36,2.92-.42,3.43C98.45,219.74,97.81,227.88,97.81,227.88Z"/><path class="cls-19" d="M91.6,219l.65-.65c.6-.56,1.22-1.1,1.85-1.62.2-1.21.42-2.48.67-3.76.1-.5.51-2.9.71-3.37.61-1.4,3.25-15.85,2.47-17.53-.94-2,.42-2.41-2.92-2-3.67.46-3.38,17.95-3.35,19.1C91.74,211.65,91.67,215.24,91.6,219Z"/><path class="cls-19" d="M96.07,213.61l.28-.2c1-.7,2-1.38,3-2.1a17.83,17.83,0,0,1,.3-2.17c.48-1.45,1.15-16,.22-17.61-1.1-1.93-1.5-2.29-4.79-1.57-3.61.78.62,18,.75,19.17S96,211.91,96.07,213.61Z"/><path class="cls-18" d="M100.92,193.67c.07.27.08,2.14.08,2.14-1,.06-1.11-.29-1.11-.29l-2.64-8c-.28-1.25.34-2.31,1.39-2.37h0c1.06-.06,1.41,1.15,1.7,2.4Z"/><path class="cls-18" d="M102,196.2c1.9,1.71-1,3.09-2,1.84-.38-.46-.84-4.74-.84-4.74l1.71-.18S101.41,195.66,102,196.2Z"/><path class="cls-13" d="M100.07,189.34a16.35,16.35,0,0,1,.37-7.25c.6-2.83,1-4.78,1-4.78a4.87,4.87,0,0,0-2-4.34c-.83-.68-1.66-1.88-3.48-1.88-4.86,0-4.61,3.17-4.61,6.56,0,0-.15,8.09-.18,10.1-.06,4.29-1.68,9.58-.91,21.45.12,1.93,7.21-.34,10-.46C100.38,208.72,101.6,195.83,100.07,189.34Z"/><path class="cls-18" d="M111.76,184.41c.29.1-.59-.31-.59-.31.09-1.14,0-1.26,0-1.26l-8.78-3.73c-1.34-.44-2.49.11-2.59,1.25h0c-.1,1.14,1.18,1.65,2.52,2.1Z"/><path class="cls-13" d="M91.63,172.29a3.25,3.25,0,0,0,.43,4.25l9.11,5.69a9.12,9.12,0,0,1,1.8-3,10.45,10.45,0,0,1-1.6-1.59l-6.46-5C93.75,171.67,92.55,170.87,91.63,172.29Z"/><path class="cls-20" d="M91.16,227.42c0,.54-1.21,2.18,1,2.18,5.45,0,5,.17,4.74-.32-.66-1.17-3.46-.28-3.69-2C93.22,227.26,91.16,226.87,91.16,227.42Z"/><path class="cls-20" d="M95.79,227.42c0,.54-1.21,2.18,1,2.18,5.46,0,5,.17,4.74-.32-.66-1.17-3-.28-3.28-2C98.25,227.26,95.79,226.87,95.79,227.42Z"/><path class="cls-18" d="M93.88,171.14c-.28.9-.22,1.53,1.11,1.51s4.63.56,3.11-.64c-2.18-1.72,0-5.84-2.92-5.81C92.63,166.24,94.89,168,93.88,171.14Z"/><path class="cls-19" d="M94.68,172.66a4.79,4.79,0,0,1,.52,0c-1.44-.62-.13-3.28,1-4.13.21-.21.24.82.48.65-.18-1.46.39-3-1.49-3-2.55,0-.35,1.44-1.3,4.94C93.55,172.39,93.92,172.51,94.68,172.66Z"/><path class="cls-34" d="M92.37,163.82a13.21,13.21,0,0,0,.6,4.57c.35,1,2.83,1.9,3,1.9.91,0,3.14-1.44,3.29-2.18a18,18,0,0,0,.34-5.24c-.22-2.69-2.16-4.63-4.34-4.35S92.44,160.79,92.37,163.82Z"/><g class="cls-23"><path class="cls-18" d="M99.55,162.87c-.22-2.69-2.16-4.63-4.34-4.35a2.63,2.63,0,0,0-1.87,1.06,4.93,4.93,0,0,1,1.11.35A11.39,11.39,0,0,1,97,161.74a.61.61,0,0,1,.22.68s.44,0,.47,0A6.14,6.14,0,0,1,98.86,168a4.69,4.69,0,0,1-1.15,1.44,5.27,5.27,0,0,1-1.79.85c.91,0,3.14-1.44,3.29-2.18A18,18,0,0,0,99.55,162.87Z"/></g><path class="cls-35" d="M91.35,159.32a2.07,2.07,0,1,0,2.12-2A2.07,2.07,0,0,0,91.35,159.32Z"/><path class="cls-35" d="M99.29,165.62c0,.32-.05,2-.05,2.32.34-.24.46,3.32.79,3.07,1.23-6.74-.34-11.7-1.08-11.92a5,5,0,0,0-6.9.33c-.78.7-1.2,3.37-1.36,6.11.59,2.43,1.49,2.54,2.4,2.82-1.31-2.61,1-5.6,2.43-5.74a8.94,8.94,0,0,0,2.37-.23A5.7,5.7,0,0,1,99.29,165.62Z"/><path class="cls-36" d="M124.39,229.63c-1.38.07-.57,1.28,25.08.93,1.76,0,4.75.35,6.73.26,13.68-.56,26.82.13,26.82-1s-23.9-2.38-33.83-1.06C145.15,229.29,127.68,229.45,124.39,229.63Z"/><path class="cls-20" d="M131.93,209.3c-.07,1.47.89.48,1.92.76l.68,1.86c1,.29,1.77-2.36,2.17-3.7l5.58-13.45c.39-1.34.11-3.77-.93-4.06l-2,.87c-1-.29-3.91.09-4.31,1.42Z"/><polygon class="cls-18" points="131.62 228.73 133.18 228.94 133.56 226.52 132 226.31 131.62 228.73"/><path class="cls-19" d="M133.56,226.52l-.13.84a.72.72,0,0,0-.29-.06c-.42,0-.78,0-1,.43a1.28,1.28,0,0,0,0,.75c0,.11,0,.22.06.33l-.65-.08.38-2.42Z"/><path class="cls-20" d="M126.29,229.52s0-.1,0-.29,1.94-.55,3.13-.68a2.35,2.35,0,0,0,.87-.28c.16-.13.06-.13.17-.07.31.15.59,0,.85,0l-.22,2-4.54-.36c-.32,0-.31-.15-.29-.31A.14.14,0,0,1,126.29,229.52Z"/><path class="cls-37" d="M126.29,229.52s0-.1,0-.29,1.94-.55,3.13-.68a2.35,2.35,0,0,0,.87-.28c.16-.13.06-.13.17-.07.31.15.53,0,.85,0l-.22,2-4.54-.36c-.32,0-.31-.15-.29-.31A.14.14,0,0,1,126.29,229.52Z"/><path class="cls-20" d="M131.14,229.89l0,.37-4.54-.36c-.32,0-.31-.15-.29-.31a.14.14,0,0,1,0-.06Z"/><path class="cls-38" d="M131.14,229.9l0,.36-4.54-.36c-.32,0-.31-.15-.29-.31s0,0,0-.05Z"/><path class="cls-20" d="M127.18,229.65c0,.17,0,.3.29.32.76.06,5.69.47,5.93.44s.33-.11.35-.27h0a.32.32,0,0,0-.29-.32l-5.94-.44a.31.31,0,0,0-.34.27Z"/><path class="cls-20" d="M133.76,230a61.6,61.6,0,0,1-6.49-.41c-.11,0-.09,0-.06-.31s1.94-.55,3.13-.68a2.41,2.41,0,0,0,.87-.28c.16-.13.06-.13.16-.08,1.95,1,1.9-.09,2.22.05S133.75,229.84,133.76,230Z"/><path class="cls-20" d="M131,229a.08.08,0,0,0,.07,0h0s.06,0,.05-.06l-.2-.51s0,0-.08,0h0s-.05,0,0,.06Z"/><path class="cls-20" d="M130.53,229s0,0,.07,0h0s.05,0,.05,0l-.11-.42s0,0-.07,0h0s-.06,0-.05,0Z"/><path class="cls-20" d="M130.13,228.85a.08.08,0,0,0,.07,0h0l.06,0-.06-.26s0,0-.07,0h0s-.06,0,0,0Z"/><path class="cls-20" d="M134,207.45h.49c1.09,0,1.67.7,1.59,2.23l-2.36,16.18-.24,1.35-2.1-.32.44-17A2.32,2.32,0,0,1,134,207.45Z"/><path class="cls-20" d="M140.88,210.43c-.06,1.4.88,0,2,.08l.52,0c1.15.05,1.88-1.06,1.94-2.46l1.37-14.26c.06-1.4,0-3.91-1.17-4l-1.85,1.29c-1.14-.06-4,.94-4.09,2.34Z"/><polygon class="cls-18" points="142.35 228.5 143.92 228.59 144.09 226.16 142.52 226.06 142.35 228.5"/><path class="cls-19" d="M144.09,226.16,144,227a.57.57,0,0,0-.29,0c-.42,0-.78.08-.93.5a1.35,1.35,0,0,0,.1.74,2,2,0,0,1,.09.33l-.65,0,.17-2.44Z"/><path class="cls-20" d="M147.74,229.81s0-.1,0-.29-1.55-.71-2.53-1a1.73,1.73,0,0,1-.69-.35c-.11-.15,0-.13-.13-.09-.28.13-.49,0-.72,0l-.11,2,3.86,0c.28,0,.28-.12.29-.28A.16.16,0,0,0,147.74,229.81Z"/><path class="cls-37" d="M147.74,229.81s0-.1,0-.29-1.55-.71-2.53-1a1.73,1.73,0,0,1-.69-.35c-.11-.15,0-.13-.13-.09-.28.13-.45,0-.72,0l-.11,2,3.86,0c.28,0,.28-.12.29-.28A.16.16,0,0,0,147.74,229.81Z"/><path class="cls-20" d="M143.61,229.74l0,.38,3.86,0c.28,0,.28-.12.29-.28a.16.16,0,0,0,0-.07Z"/><path class="cls-38" d="M143.61,229.76l0,.36,3.86,0c.28,0,.28-.12.29-.28v0Z"/><path class="cls-20" d="M146.46,229.85c0,.17,0,.3-.25.29-.55,0-4.12,0-4.29,0a.29.29,0,0,1-.21-.3h0a.29.29,0,0,1,.25-.29l4.29.06c.13,0,.22.13.21.29Z"/><path class="cls-20" d="M141.72,229.67a31.49,31.49,0,0,0,4.68.13c.08,0,.07,0,.09-.31s-1.32-.7-2.15-.93a1.47,1.47,0,0,1-.59-.35c-.09-.14,0-.13-.1-.09-1.52.81-1.35-.25-1.59-.13S141.74,229.49,141.72,229.67Z"/><path class="cls-20" d="M143.82,228.87s0,0,0,0h0a0,0,0,0,1,0-.06l.21-.49s0,0,.05,0h0a0,0,0,0,1,0,.06Z"/><path class="cls-20" d="M144.29,228.94s0,0-.06,0h0a.05.05,0,0,1,0,0l.14-.4s0,0,0,0h0a.05.05,0,0,1,0,0Z"/><path class="cls-20" d="M144.68,229h-.05s0,0,0,0l.07-.25s0,0,.05,0h0s0,0,0,0Z"/><path class="cls-20" d="M144,228.38s0,0,0,0h0a.06.06,0,0,1,.05-.06l.64-.08s.05,0,0,0h0a.05.05,0,0,1-.05.05Z"/><path class="cls-20" d="M144.38,228.56s0,0,0,0h0s0-.05,0-.05l.55-.09s0,0,0,0h0a.07.07,0,0,1,0,0Z"/><path class="cls-20" d="M144.71,228.75s0,0,0,0h0s0-.05,0-.05l.53-.17a.05.05,0,0,1,.05,0h0a.05.05,0,0,1,0,.06Z"/><path class="cls-20" d="M142.93,207.11l.52-.05c1.15-.1,1.83.58,1.89,2.12l-1.07,16.3-.13,1.36-2.26-.17-1-17A2.34,2.34,0,0,1,142.93,207.11Z"/><path class="cls-21" d="M139.63,195c.11.05.79,5.75.83,6.78.06,1.68,1.65,22.23,2,24.9l-.56-.05-1-16.24a3.69,3.69,0,0,1,0-.75l-.74-9.63Z"/><path class="cls-21" d="M139.63,195l.48,5-3.41,8.23c-.16.55-.38,1.31-.65,2,0-.66,1.28-4.53,2.71-8.27C140,198.73,139.09,195.39,139.63,195Z"/><path class="cls-21" d="M131.85,209.87a4.89,4.89,0,0,1,.08-.57h0L135,193c.4-1.33,3.28-1.71,4.31-1.42l2-.87a1.35,1.35,0,0,1,.79.88,4.73,4.73,0,0,1,1.58-.32l.52,0c.79,0,2,1.82,2.48,2.72l-.08.45s-3.83.13-6.15-1c0,0-.11.33-2.51.94-1.62.41-4.39,13.47-4.62,14.76-.89,4.94-1,13.45-1,17.77l-1-.08Z"/><polygon class="cls-17" points="137.42 169.16 137.01 175.69 140.41 181.22 143.41 175.69 143.41 168.96 137.42 169.16"/><path class="cls-18" d="M147.62,195.93c-2,1.73.9,3.2,2,1.93.4-.47,1.07-4.24,1.07-4.24l-1.94-.74S148.23,195.39,147.62,195.93Z"/><path class="cls-18" d="M113,182.87c2.22-.52,2.6,1.9,1.09,2a31.85,31.85,0,0,1-4.21-1.07l0-1.54A11.55,11.55,0,0,0,113,182.87Z"/><path class="cls-18" d="M114.7,182.48c-2.39-1-2.51,2.19-.91,2.61.6.16,4.29-.84,4.29-.84l-.15-2.08S115.45,182.81,114.7,182.48Z"/><path class="cls-20" d="M117.44,182l11.91-1.86a3.51,3.51,0,0,0,1.18,2.35c.34,1.87-3.12,2.14-4.31,2l-8.8.62c-.46,0-.65-1.73-.45-2.69C117.1,181.8,117.44,182,117.44,182Z"/><path class="cls-20" d="M128.41,178.63l2.53-3.88c.68-1.22,1.91-4.88,3.27-5.36l4.35,6.18c-1.94-.28-4.32,2.07-4.95,3.2l-2.87,4c-.24.37-.34.52-.63.9l-3.67-2.2C127,180.71,127.68,179.83,128.41,178.63Z"/><path class="cls-21" d="M131.28,175.14c-1.55,2.36-3,5.27-3.84,5.66s-4.69.4-4.73.39l4.44-.7,3.79-5.74c.15-.35.71-1.53,1.06-2.3,1.24-2.72,2.08-3,2.08-3C134.94,169.42,131.8,174.35,131.28,175.14Z"/><path class="cls-20" d="M143.15,168.85h0a8.56,8.56,0,0,1,.68,3.25c0,.74-3.42,9.12-3.42,9.12-.46.09-1-3.94-1.34-4.16-.72-.46-.28-2.53-.88-3.13-1.24-1.22-.52-3.45-.87-5.08h0c-3.36.21-3.51.74-3.92,1.28a2.72,2.72,0,0,0-.66,2.1L134,190.11c.07,1,.2,3.63.2,3.63.18.38,5.73-.52,6.79-1.53,0,0,.63,1.53,5.68,2.07.65.06.35-3.37.46-4L148.48,172C147.88,170.08,145,168.85,143.15,168.85Z"/><path class="cls-21" d="M133.64,169.87c.44-.45.44-.74,3.68-1a3.68,3.68,0,0,1,.08.58c-.28.21-.87,0-1.23.08-1.16.14-2.39,0-2.31,1.4.1,1.85,0,6,.14,7.84.36,3.59,1,10.8,1,11.59a2.73,2.73,0,0,0,.64,2.11c1.07.84,4.65-.22,5.07,0-1.49.93-6.37,1.69-6.53,1.34,0,0-.13-2.66-.2-3.63l-1.24-17.88A2.81,2.81,0,0,1,133.64,169.87Z"/><path class="cls-20" d="M147.34,170.3a8.46,8.46,0,0,1,3.7,5.07l.8,4.49c.31,1.37.39,3.34.56,4.53l-3.56,2c.37-1.31.07-1.19-.05-1.62l-2.23-10.09c-.11-.58-.23-1.17-.38-1.78Z"/><path class="cls-20" d="M148.25,193.94l.6-9.63c1.52.36,2-1.94,2-1.94,2.06.23,1.56,3.52,1.16,4.58L150.63,195c-.16.41-1,0-2-.49C148,194.2,148.25,193.94,148.25,193.94Z"/><path class="cls-21" d="M150.6,175.64c.23,2,1.6,8.32,1.67,8.32,0-1-.43-4.1-.43-4.1l-.8-4.49a4.63,4.63,0,0,0-.28-.85C150,174.22,150.49,174.7,150.6,175.64Z"/><path class="cls-18" d="M141,192.17v0A.1.1,0,0,0,141,192.17Z"/><path class="cls-20" d="M136,169.34a1.69,1.69,0,0,1,1.4-.89c.62,2.59,3,12.43,3.12,12.37s2.34-9.86,2.94-12.37a2.38,2.38,0,0,1,1.19.7s.75.95.54,1.25a4.26,4.26,0,0,1-.9.46s.7.86.62,1.08a57,57,0,0,0-4.18,9.31c0,2.89.19,10.16.22,10.92-.06-.84-.74-10.74-.76-10.81-1.27-5.16-3.89-8.16-4.24-9-.08-.22.62-1.08.62-1.08a4.26,4.26,0,0,1-.9-.46C135.48,170.48,136,169.34,136,169.34Z"/><path class="cls-21" d="M136,169.34a1.69,1.69,0,0,1,1.4-.89c.62,2.59,3,12.43,3.12,12.37s2.34-9.86,2.94-12.37a2.38,2.38,0,0,1,1.19.7s.75.95.54,1.25a4.26,4.26,0,0,1-.9.46s.7.86.62,1.08a57,57,0,0,0-4.18,9.31c0,2.89.19,10.16.22,10.92-.06-.84-.74-10.74-.76-10.81-1.27-5.16-3.89-8.16-4.24-9-.08-.22.62-1.08.62-1.08a4.26,4.26,0,0,1-.9-.46C135.48,170.48,136,169.34,136,169.34Z"/><path class="cls-18" d="M142.9,169.43c-.07.84-1.13,1.19-2.51,1.06l-.12.23c-1.37-.12-2.43-.9-2.36-1.74l.75-6.29c.07-.84,1-1.43,2.4-1.31h0c1.38.13,2,.87,1.92,1.71Z"/><path class="cls-19" d="M138.25,166l4.76-.5v1a13.16,13.16,0,0,1-3.36,1.82c-.49.05-1.62-.65-1.61-.93Z"/><polygon class="cls-39" points="143.32 169.1 141.04 171.84 140.26 170.25 143.33 167.9 143.32 169.1"/><polygon class="cls-17" points="143.32 169.1 141.04 171.56 140.22 170.17 143.33 167.62 143.32 169.1"/><polygon class="cls-39" points="137.54 169.1 139.82 172.09 140.33 170.18 137.53 167.9 137.54 169.1"/><polygon class="cls-17" points="137.54 169.1 139.82 171.56 140.32 170.09 137.53 167.62 137.54 169.1"/><path class="cls-18" d="M136.85,160.73l-.54-.24c-.45-.19-.8.06-.85.57-.07.88.65.93.63,1.62l1.11-.16Z"/><path class="cls-18" d="M143.11,162.14l.57-.13c.47-.12.78.2.73.71-.08.87-.76.77-.94,1.53l-1-.41Z"/><path class="cls-18" d="M136.28,164.83c.4,1.21,1.43,2.91,2.27,3.08s3.77-1.19,4.2-2c1.18-2.27,1.93-8.39-2.57-8.55-1.2-.05-3.26-.72-3.89,1.49A14.28,14.28,0,0,0,136.28,164.83Z"/><path class="cls-19" d="M136.28,164.83a14.28,14.28,0,0,1,0-6c.63-2.21,2.69-1.54,3.89-1.49a4,4,0,0,1,2,.57l-.12.08a8.37,8.37,0,0,0-1.94,2c0,.06-.21-.17-.23-.11a4.9,4.9,0,0,1-1.34.59c-.41.06-2-.4-2.17.29a7.07,7.07,0,0,0,0,3.71c.8,2.68,2.19,3.44,2.19,3.44C137.71,167.74,136.68,166,136.28,164.83Z"/><path class="cls-20" d="M139.52,156c-.33-.39.2,1.71-.73,1.08-.42-.29-1.42,0-1.94,1l4.19,1h.79a1.36,1.36,0,0,1,1.24,1.23c.35-.18.7-.37,1-.58C143.92,156,140.65,157.33,139.52,156Z"/><path class="cls-20" d="M137,156.13c-.14.47.27,1.1.92,1.4a1.72,1.72,0,0,0,1.91-.78c.14-.46-.6-.06-1.25-.68S137.17,155.67,137,156.13Z"/><path class="cls-20" d="M137.17,160c-1-.06-1.16,2-1.16,2-.29,0-.36-1.57,0-2.78C136.19,158.44,137.91,160,137.17,160Z"/><path class="cls-21" d="M137.17,160c-1-.06-1.16,2-1.16,2-.29,0-.36-1.57,0-2.78C136.19,158.44,137.91,160,137.17,160Z"/><path class="cls-20" d="M136,158.29a1.62,1.62,0,0,0,1.18,1.89c2,.77,2.43-.56,5.16.11.24.06-.17.63.57,1.28a2.32,2.32,0,0,1,.54,2c.4,0,.54-2.93.59-3.23.24-1.47-1.36-3.12-3.58-3.67S136.25,156.82,136,158.29Z"/><path class="cls-21" d="M143.46,162.68a29.69,29.69,0,0,0,.22-3c-.08-.93-.14-1.59-1-2.09a9.12,9.12,0,0,0-2.15-.44,2.41,2.41,0,0,1-1.38-.76l.26.06c0-.33,0-.61.13-.44,1.13,1.32,4.4,0,4.59,3.75l-.05,0a1.74,1.74,0,0,1,0,.51c-.05.3-.19,3.23-.59,3.23A6.93,6.93,0,0,0,143.46,162.68Z"/><path class="cls-21" d="M141.35,186.33a.28.28,0,0,1-.55,0,.26.26,0,0,1,.28-.25A.26.26,0,0,1,141.35,186.33Z"/><path class="cls-21" d="M139.9,182.65a.27.27,0,1,1-.27-.25A.26.26,0,0,1,139.9,182.65Z"/><path class="cls-21" d="M140.44,189.6a.27.27,0,0,1-.28.25.25.25,0,1,1,0-.5A.27.27,0,0,1,140.44,189.6Z"/></g></g></g></svg>