<svg xmlns="http://www.w3.org/2000/svg" xmlns:xlink="http://www.w3.org/1999/xlink" viewBox="0 0 300 300"><defs><style>.cls-1{fill:url(#linear-gradient);}.cls-2{fill:url(#linear-gradient-2);}.cls-3{fill:#db1f26;}.cls-4{opacity:0.5;}.cls-5{fill:#010101;}.cls-6{fill:url(#linear-gradient-3);}.cls-7{fill:#cce0f4;}.cls-8{fill:#db98b8;opacity:0.3;}.cls-9{fill:#cdcee8;opacity:0.6;}.cls-10{fill:#f27072;}.cls-11,.cls-16{fill:#2e307b;}.cls-12{fill:#82b4e1;}.cls-13{fill:#f4b29c;}.cls-14{fill:#0d1539;}.cls-15{fill:#5e6cab;}.cls-16{font-size:104.61px;font-family:DBHelvethaicaMonX-55Regular, DB HelvethaicaMon X;}</style><linearGradient id="linear-gradient" x1="-583.8" y1="232.49" x2="-285.56" y2="232.49" gradientTransform="translate(382.33 584.66) rotate(90)" gradientUnits="userSpaceOnUse"><stop offset="0" stop-color="#fffffd"/><stop offset="1" stop-color="#e2e3e4"/></linearGradient><linearGradient id="linear-gradient-2" x1="-572.33" y1="232.49" x2="-297.03" y2="232.49" gradientTransform="translate(382.33 584.66) rotate(90)" gradientUnits="userSpaceOnUse"><stop offset="0" stop-color="#4a90cd"/><stop offset="1" stop-color="#2055a6"/></linearGradient><linearGradient id="linear-gradient-3" x1="-544.81" y1="232.5" x2="-324.57" y2="232.5" gradientTransform="translate(382.34 584.67) rotate(90)" xlink:href="#linear-gradient"/></defs><g id="_11_kpi" data-name="11_kpi"><g id="Layer_41" data-name="Layer 41"><rect class="cls-1" x="0.72" y="0.86" width="298.25" height="298.25" rx="149.12"/><rect class="cls-2" x="12.19" y="12.33" width="275.3" height="275.3" rx="137.65"/><path class="cls-3" d="M34.83,150.78a115.85,115.85,0,1,0,231.69,0H34.83Z"/><g class="cls-4"><path class="cls-5" d="M149.84,288.37C73.53,288.37,11.45,226.29,11.45,150S73.53,11.59,149.84,11.59,288.23,73.68,288.23,150,226.15,288.37,149.84,288.37Zm0-275.3C74.34,13.07,12.92,74.49,12.92,150S74.34,286.9,149.84,286.9,286.75,225.48,286.75,150,225.33,13.07,149.84,13.07Z"/></g><rect class="cls-6" x="39.72" y="39.86" width="220.24" height="220.24" rx="110.12"/></g><g id="Layer_42" data-name="Layer 42"><path class="cls-7" d="M236.09,175.24A48.73,48.73,0,0,1,187.35,224c-1,0-2.07,0-3.09-.1A48.74,48.74,0,0,1,146,149.43c.35-.56.71-1.12,1.08-1.66.57-.82,1.15-1.63,1.76-2.41a.27.27,0,0,1,.07-.08,48.74,48.74,0,0,1,87.18,30Z"/><path class="cls-8" d="M231.73,133.63A52.65,52.65,0,1,1,179.08,81,52.65,52.65,0,0,1,231.73,133.63Z"/><path class="cls-9" d="M184.56,154a64.15,64.15,0,1,1-64.15-64.15A64.15,64.15,0,0,1,184.56,154Z"/><rect class="cls-10" x="110.08" y="158.25" width="27.29" height="65.4"/><rect class="cls-11" x="152" y="131.44" width="27.29" height="92.21"/><rect class="cls-12" x="193.91" y="95.29" width="27.29" height="128.36"/><rect class="cls-11" x="106.42" y="222.57" width="113.63" height="1.58"/></g><g id="Layer_45" data-name="Layer 45"><path class="cls-13" d="M97.71,178.94s-3.61-8.47-6.75-7.6c0,0-1.88,6,.24,14.78,1.29,5.35-1,8.45-1.1,11.9s2.43,27.83,2.72,30.13c1.83-.86,2.14-1,3.23-2.43.51-1.29-.82-1.83-1.75-1,0-1.13,0-3.63,0-3.63.14-2.84.59-7.42.59-7.42a99.65,99.65,0,0,1,1.15-10,76.86,76.86,0,0,0,1-15.48C96.72,185.82,97.71,178.94,97.71,178.94Z"/><path class="cls-14" d="M92.62,226.3a.84.84,0,0,0,.61.49c.65.18,1.64-.82,2-1.63.3-.66-.49-.53-.74-.54a2.17,2.17,0,0,1,.79-1.05c.51-.34,1.66-.61,2-.22s-.13,1.74-.44,2.05a14.76,14.76,0,0,1-4,2.75C92.75,227.54,92.69,226.92,92.62,226.3Z"/><path class="cls-15" d="M81.43,152.37l-2.34,10.08,5.31,11.49S87.76,155.55,81.43,152.37Z"/><path class="cls-13" d="M111.67,131.34c.09-.87.46-3.08,1-3.15s-.35,1.23,0,1.32,1.37-2.25,1.74-3.46c.6.67-.16,2.3-.33,3.06a16.44,16.44,0,0,1,1.51-2.92,6.36,6.36,0,0,1-.88,2.95c.61-.77.94-1.71,1.81-2.25-.29.83-.82,1.54-1.16,2.34.48-.34,1.14-1.5,1.52-1.33s-1.34,2.3-2.2,3.5-1.17,1.93-2.17,2.39c-.67,1-.82.46-1.37-.81C110.92,132.42,111.57,132.21,111.67,131.34Z"/><path class="cls-13" d="M88.28,143.23s1.29,3.58.23,6.05c0,0,5-.35,6.31-2L93,144.13s2.11.41,2.62-.69-.06-6-1.67-8.27-6.15-3.66-7.44.73A7.64,7.64,0,0,0,88.28,143.23Z"/><path class="cls-11" d="M97.43,148.74a3.46,3.46,0,0,0-2.27-2,18.24,18.24,0,0,0-5.84-.55A14,14,0,0,0,82.86,149a11.11,11.11,0,0,0-1.75,8.42c1.07,4.65,2.11,7.23,1.87,8.86s-.37,6.23-1.11,8c0,0,16.44,1.49,14-3.19s.74-6.41,2.18-12.06a15,15,0,0,0-.39-9.81C97.59,149.06,97.52,148.9,97.43,148.74Z"/><path class="cls-15" d="M113.33,133.32s-4.28,11.6-6.57,13.83a57.32,57.32,0,0,1-5.5,4.31c-1.18.9-2.71,3.14-4.08,3.62s-4.09-.25-4.63-1.61c-.6-1.52,1.11-3.41,2-4.47,2.32-2.61,5.44-4.38,8.27-6.35,2.38-1.65,3.65-4,5.06-5.63a22,22,0,0,0,3-5.24A19.5,19.5,0,0,1,113.33,133.32Z"/><path class="cls-13" d="M88.84,178.84s-3.6-8.46-6.74-7.6c0,0-1.89,6,.23,14.78,1.29,5.35-1,8.46-1.1,11.9s2.44,27.83,2.73,30.13c1.82-.86,2.14-1,3.23-2.42.5-1.3-.82-1.83-1.75-1,0-1.13,0-3.63,0-3.63.14-2.84.6-7.42.6-7.42s.16-3.66,1.14-10a77.89,77.89,0,0,0,1-15.48C87.86,185.72,88.84,178.84,88.84,178.84Z"/><path class="cls-14" d="M90.67,131.34c.33,0,.67.12,1,.2.64.14.31.14,1,0,.44-.11.86-.53,1.42-.49,3,.23,1,3.94,0,5s-1.5.95-1.36,2.69a6.42,6.42,0,0,0,1.42,3.38c2.06,2.49,2.55,7.69.93,10.63a6.44,6.44,0,0,1-2.85,2.69c-1.44.71-2.2,0-3-1.14l-.19.27c-.42.32-.48,1.2-.74,1.64A3.93,3.93,0,0,1,87,157.63a6.22,6.22,0,0,1-4.49.19,5.1,5.1,0,0,1-2.21-3.58,7.82,7.82,0,0,1,.1-2.22c.14-.61.65-1.15.71-1.74-1.72,0-1.8-2.26-1.39-3.43.59-1.75,2-3.09,2.55-4.87a13.5,13.5,0,0,0,.22-4,6.93,6.93,0,0,1,3.79-5.76A6.41,6.41,0,0,1,90.67,131.34Z"/><path class="cls-14" d="M98.18,186.5c-1,4.55-.62,9-.88,13.67-5,1.82-11,0-16,.06.47-8.43-2-17-1.55-25.56.11-2.27,3.11-6.86,3.11-6.86a31.52,31.52,0,0,0,5.48,1,40.56,40.56,0,0,0,6.85-.41s3.19,6.38,3.73,9C99.54,180.43,98.83,183.5,98.18,186.5Z"/><path class="cls-14" d="M83.75,226.2a.87.87,0,0,0,.62.5c.64.17,1.63-.83,2-1.64.3-.66-.5-.53-.75-.53a2.2,2.2,0,0,1,.79-1.05c.51-.35,1.66-.62,2-.23S88.29,225,88,225.3a14.71,14.71,0,0,1-4,2.75C83.88,227.44,83.82,226.82,83.75,226.2Z"/></g><g id="Layer_43" data-name="Layer 43"><text class="cls-16" transform="translate(78.09 119.91)">KPI</text></g></g></svg>