<svg id="E-mail" xmlns="http://www.w3.org/2000/svg" xmlns:xlink="http://www.w3.org/1999/xlink" viewBox="0 0 363.42 378.38"><defs><style>.cls-1{fill:#0027e9;opacity:0.21;}.cls-2{fill:url(#linear-gradient);}.cls-11,.cls-3{fill:#2626bc;}.cls-3{opacity:0.1;isolation:isolate;}.cls-4{fill:#9fb0fe;}.cls-5{fill:#8399fe;}.cls-6{fill:#6583fe;}.cls-7{fill:#b7c5ff;}.cls-8{fill:#02ffb3;}.cls-9{fill:#fff;}.cls-10{fill:#be1e2d;}.cls-12{fill:#ffdbed;}.cls-13{fill:#00eca2;}.cls-14{fill:#ff7eb8;}</style><linearGradient id="linear-gradient" x1="366.2" y1="51.89" x2="210.83" y2="257.72" gradientTransform="matrix(1, 0, 0, -1, 0, 514)" gradientUnits="userSpaceOnUse"><stop offset="0" stop-color="#c6d1ff"/><stop offset="0.58" stop-color="#e6d5f4"/><stop offset="1" stop-color="#ffd9ec"/></linearGradient></defs><title>mail</title><path class="cls-1" d="M429.78,303.78C422.83,403.6,348.66,485,248.6,485A181.18,181.18,0,0,1,67.42,303.78C67.42,203.72,223.6,57.86,248.6,122.6,334.39,344.75,442.7,118,429.78,303.78Z" transform="translate(-67.42 -106.58)"/><path class="cls-2" d="M412.38,230.35c-14.85-37.77-60.58-60.43-99.31-45.44-44.2,17.11-29.55,87.43-69.7,101.65-21.69,7.68-53.76-21-75.67-25.41C127.31,253,90.76,281.54,81.75,321c-9.18,40.25,5.55,94,49.78,105,52.69,13,80.13-34.35,124.33-47.95,45.35-14,95.78,19,133.33-21.1,27.74-29.62,37.88-89.15,23.19-126.55Z" transform="translate(-67.42 -106.58)"/><path class="cls-3" d="M395.76,247a47.49,47.49,0,0,0-91.91-16.77H132.14a13.28,13.28,0,0,0-13.28,13.28v147a13.28,13.28,0,0,0,13.28,13.27h234a13.28,13.28,0,0,0,13.28-13.27V282.81A47.39,47.39,0,0,0,395.76,247Z" transform="translate(-67.42 -106.58)"/><path class="cls-4" d="M366.11,387.15h-234a13.29,13.29,0,0,1-13.28-13.28v-147a13.28,13.28,0,0,1,13.28-13.28h234a13.28,13.28,0,0,1,13.28,13.28v147A13.29,13.29,0,0,1,366.11,387.15Z" transform="translate(-67.42 -106.58)"/><path class="cls-5" d="M379.39,226.86V283a47.49,47.49,0,0,1-64.75-69.39h51.47a13.28,13.28,0,0,1,13.28,13.28Z" transform="translate(-67.42 -106.58)"/><path class="cls-5" d="M379.39,226.86V243.6L261.26,334.34a19.89,19.89,0,0,1-24.27,0L118.86,243.6V226.86a13.28,13.28,0,0,1,13.28-13.28h234A13.28,13.28,0,0,1,379.39,226.86Z" transform="translate(-67.42 -106.58)"/><path class="cls-5" d="M253.17,276.91l126.22,97a13.29,13.29,0,0,1-13.28,13.28h-234a13.29,13.29,0,0,1-13.28-13.28l126.22-97a6.65,6.65,0,0,1,8.09,0Z" transform="translate(-67.42 -106.58)"/><path class="cls-6" d="M294.6,308.73l-33.34,25.61a19.89,19.89,0,0,1-24.27,0l-33.34-25.61,41.43-31.82a6.65,6.65,0,0,1,8.09,0Z" transform="translate(-67.42 -106.58)"/><path class="cls-7" d="M245.08,323.81,118.86,226.86a13.28,13.28,0,0,1,13.28-13.28h234a13.28,13.28,0,0,1,13.28,13.28L253.17,323.81A6.62,6.62,0,0,1,245.08,323.81Z" transform="translate(-67.42 -106.58)"/><path class="cls-8" d="M325.45,369.48H304.11a3.32,3.32,0,0,1-3.32-3.32V351.45a3.32,3.32,0,0,1,3.32-3.32h21.34a3.32,3.32,0,0,1,3.32,3.32v14.71A3.32,3.32,0,0,1,325.45,369.48Z" transform="translate(-67.42 -106.58)"/><path class="cls-9" d="M286.22,355.94H267.74a3.32,3.32,0,0,1,0-6.64h18.48a3.32,3.32,0,0,1,0,6.64Z" transform="translate(-67.42 -106.58)"/><path class="cls-9" d="M286.22,369.48h-65a3.32,3.32,0,0,1,0-6.64h65a3.32,3.32,0,0,1,0,6.64Z" transform="translate(-67.42 -106.58)"/><circle class="cls-10" cx="280.86" cy="123.77" r="47.48"/><path class="cls-11" d="M348.27,281.16a50.9,50.9,0,1,0-31.11-10.69l-66,50.71a3.32,3.32,0,0,1-4.05,0L122.3,225.31a10,10,0,0,1,9.84-8.41H284.43a3.32,3.32,0,0,0,0-6.64H132.14a16.62,16.62,0,0,0-16.6,16.6v147a16.62,16.62,0,0,0,16.6,16.6h234a16.62,16.62,0,0,0,16.6-16.6V286.13a3.32,3.32,0,0,0-6.64,0v81l-86.92-66.77,33.82-26a50.5,50.5,0,0,0,25.3,6.78ZM209.1,300.36l-86.92,66.77V233.59Zm166.83,75a10,10,0,0,1-9.82,8.43h-234a10,10,0,0,1-9.83-8.43l92.24-70.85,28.51,21.9a10,10,0,0,0,12.13,0l28.51-21.9Zm-71.82-145a44.17,44.17,0,1,1,44.16,44.17A44.21,44.21,0,0,1,304.11,230.35Z" transform="translate(-67.42 -106.58)"/><path class="cls-9" d="M327.55,214.16l6.77,16.19-6.77,16.2a3.31,3.31,0,0,0,4.36,4.33l40.92-17.47a3.33,3.33,0,0,0,0-6.11l-40.92-17.47A3.31,3.31,0,0,0,327.55,214.16Z" transform="translate(-67.42 -106.58)"/><path class="cls-12" d="M349.78,233.45l-20.4,8.72,4.94-11.82-4.94-11.82,20.4,8.72A3.47,3.47,0,0,1,349.78,233.45Z" transform="translate(-67.42 -106.58)"/><path class="cls-13" d="M298.81,182.6a9.62,9.62,0,1,1,6.8-2.81A9.62,9.62,0,0,1,298.81,182.6Zm0-12.61a3,3,0,1,0,2.11.87A3,3,0,0,0,298.81,170Z" transform="translate(-67.42 -106.58)"/><path class="cls-13" d="M224.25,433.34a9.62,9.62,0,1,1,6.81-2.81,9.62,9.62,0,0,1-6.81,2.81Zm0-12.61a3,3,0,1,0,2.11.88A3,3,0,0,0,224.25,420.73Z" transform="translate(-67.42 -106.58)"/><path class="cls-14" d="M274.87,191.15a3.27,3.27,0,0,1-2.34-1l-4-4-4,4a3.32,3.32,0,1,1-4.69-4.7l6.31-6.31a3.33,3.33,0,0,1,4.69,0l6.31,6.31a3.32,3.32,0,0,1-2.35,5.67Z" transform="translate(-67.42 -106.58)"/><path class="cls-14" d="M371.12,420.73a3.3,3.3,0,0,1-2.34-1l-4-4-4,4a3.32,3.32,0,0,1-4.7-4.69l6.31-6.31a3.31,3.31,0,0,1,4.69,0l6.31,6.31a3.32,3.32,0,0,1-2.35,5.66Z" transform="translate(-67.42 -106.58)"/><path class="cls-6" d="M197.92,423.89a3.32,3.32,0,0,1-2.35-1l-4-4-4,4a3.32,3.32,0,1,1-4.69-4.69l6.31-6.31a3.33,3.33,0,0,1,4.69,0l6.31,6.31a3.33,3.33,0,0,1-2.35,5.67Z" transform="translate(-67.42 -106.58)"/></svg>