<svg xmlns="http://www.w3.org/2000/svg" xmlns:xlink="http://www.w3.org/1999/xlink" viewBox="0 0 300 300"><defs><style>.cls-1{fill:url(#linear-gradient);}.cls-2{fill:url(#linear-gradient-2);}.cls-3{fill:#db1f26;}.cls-4{opacity:0.5;}.cls-5{fill:#010101;}.cls-6{fill:url(#linear-gradient-3);}.cls-7{fill:#4a3996;}.cls-8{fill:#9385bf;}.cls-9{fill:#fff;}.cls-10{fill:#fab99a;}.cls-11{fill:#fff2cb;}.cls-12{fill:#699ed5;}.cls-13{fill:#ffe094;}.cls-14{fill:#d6c0dd;}.cls-15{fill:#2d296f;}.cls-16{fill:#fed16f;}.cls-17{fill:#f58879;}.cls-18{fill:#733737;}.cls-19{fill:#161c36;}.cls-20{fill:#222c56;}.cls-21{fill:#f05361;}.cls-22{fill:none;}.cls-23{fill:#fbb778;}.cls-24{fill:#0e192f;}.cls-25{fill:#fcc49f;}.cls-26{fill:#4164ad;}.cls-27{fill:#8f5239;}.cls-28{fill:#f2e7e1;}.cls-29{fill:#c9beb9;}.cls-30{fill:#b06e53;}.cls-31{fill:#476766;}.cls-32{fill:#2d403e;}</style><linearGradient id="linear-gradient" x1="-583.8" y1="-407.51" x2="-285.56" y2="-407.51" gradientTransform="translate(-257.67 584.66) rotate(90)" gradientUnits="userSpaceOnUse"><stop offset="0" stop-color="#fffffd"/><stop offset="1" stop-color="#e2e3e4"/></linearGradient><linearGradient id="linear-gradient-2" x1="-572.33" y1="-407.51" x2="-297.03" y2="-407.51" gradientTransform="translate(-257.67 584.66) rotate(90)" gradientUnits="userSpaceOnUse"><stop offset="0" stop-color="#4a90cd"/><stop offset="1" stop-color="#2055a6"/></linearGradient><linearGradient id="linear-gradient-3" x1="-544.81" y1="-407.5" x2="-324.57" y2="-407.5" gradientTransform="translate(-257.66 584.67) rotate(90)" xlink:href="#linear-gradient"/></defs><g id="_16_meetings" data-name="16_meetings"><g id="Layer_59" data-name="Layer 59"><rect class="cls-1" x="0.72" y="0.86" width="298.25" height="298.25" rx="149.12"/><rect class="cls-2" x="12.19" y="12.33" width="275.3" height="275.3" rx="137.65"/><path class="cls-3" d="M34.83,150.78a115.85,115.85,0,1,0,231.69,0H34.83Z"/><g class="cls-4"><path class="cls-5" d="M149.84,288.37C73.53,288.37,11.45,226.29,11.45,150S73.53,11.59,149.84,11.59,288.23,73.68,288.23,150,226.15,288.37,149.84,288.37Zm0-275.3C74.34,13.07,12.92,74.49,12.92,150S74.34,286.9,149.84,286.9,286.75,225.48,286.75,150,225.33,13.07,149.84,13.07Z"/></g><rect class="cls-6" x="39.72" y="39.86" width="220.24" height="220.24" rx="110.12"/></g><g id="_15_accounting-2" data-name="15_accounting"><rect class="cls-7" x="70.66" y="90.18" width="156.53" height="105.93" rx="5.17"/><rect class="cls-8" x="71.84" y="216.35" width="156.52" height="3.43" rx="1.72"/><rect class="cls-9" x="75.83" y="95.34" width="48.73" height="31.87"/><rect class="cls-10" x="124.56" y="95.34" width="48.73" height="31.87"/><rect class="cls-11" x="75.83" y="127.21" width="48.73" height="31.87"/><rect class="cls-12" x="173.3" y="95.34" width="48.73" height="31.87"/><rect class="cls-13" x="75.83" y="159.08" width="48.73" height="31.87"/><rect class="cls-8" x="124.56" y="159.08" width="48.73" height="31.87"/><rect class="cls-14" x="173.3" y="159.08" width="48.73" height="31.87"/><rect class="cls-9" x="173.3" y="127.21" width="48.73" height="31.87"/><rect class="cls-15" x="124.56" y="127.21" width="48.73" height="31.87"/><rect class="cls-7" x="115.3" y="214.37" width="67.26" height="3.7"/><polygon class="cls-15" points="168.6 196.11 149.01 196.11 148.85 196.11 129.26 196.11 124.65 214.37 148.85 214.37 149.01 214.37 173.21 214.37 168.6 196.11"/><circle class="cls-9" cx="148.93" cy="85.49" r="7.37"/><circle class="cls-15" cx="148.93" cy="85.49" r="3.63"/><circle class="cls-9" cx="148.4" cy="84.6" r="1.32" transform="matrix(0.16, -0.99, 0.99, 0.16, 41.12, 217.53)"/><path class="cls-16" d="M140,154.2s-1.23,4.88-1.23,4.88h10.07s-2.21-7.8-2.84-10.34C143.21,149.48,140.78,151.19,140,154.2Z"/><path class="cls-16" d="M157.82,149.8a5.93,5.93,0,0,0-2.84-1.55l-1.73,10.83h8.16C160.79,156.11,160,152,157.82,149.8Z"/><path class="cls-9" d="M152,148c0,.11.07.22.1.33,1.11.12,1.9.44,1.9.83s-1.26.88-2.82.88-2.82-.39-2.82-.88c0-.3.49-.57,1.22-.72,0-.09.08-.18.11-.27-.83.1-1.63.23-2.36.34q-.68.1-1.32.27c.63,2.54,2.84,10.34,2.84,10.34h4.39L155,148.25A11.18,11.18,0,0,0,152,148Z"/><path class="cls-17" d="M148.37,149.12c0,.49,1.27.88,2.82.88s2.82-.39,2.82-.88-.79-.71-1.9-.83c0-.11-.06-.22-.1-.33s-.12-.44-.17-.66a4.5,4.5,0,0,0,2.07-2.33,10.57,10.57,0,0,0,.9-3.89.93.93,0,0,0,.42-.41c.13-.32.29-1.17-.14-1.38a2.28,2.28,0,0,0-.38-.14,8.06,8.06,0,0,0-.19-.88,4.74,4.74,0,0,1-5.76-2.66,4.62,4.62,0,0,1-2.76,3.2c0,.14,0,.29,0,.43a.59.59,0,0,0-.6.44,1.76,1.76,0,0,0,.17,1.38.61.61,0,0,0,.66.28,11.1,11.1,0,0,0,1.84,4.32A4.87,4.87,0,0,0,150,147.3c-.07.25-.16.55-.27.83,0,.09-.07.18-.11.27C148.86,148.55,148.37,148.82,148.37,149.12Z"/><path class="cls-9" d="M145.56,141.06a1.76,1.76,0,0,1-.17-1.38.59.59,0,0,1,.6-.44c0-.14,0-.29,0-.43a4.62,4.62,0,0,0,2.76-3.2,4.74,4.74,0,0,0,5.76,2.66,8.06,8.06,0,0,1,.19.88,2.28,2.28,0,0,1,.38.14c.43.21.27,1.06.14,1.38a.93.93,0,0,1-.42.41,10.57,10.57,0,0,1-.9,3.89c3.35.08,6.65.88,6-1.44-.81-3-2.5-7.67-5.11-9.05s-3.69-4.49-7.48-2.73c0,0-4.74,2.71-4.61,6.36s-3.39,8.4,0,8c2.3-.27,3.54-.24,5.33-.44a11.1,11.1,0,0,1-1.84-4.32A.61.61,0,0,1,145.56,141.06Z"/><path class="cls-18" d="M92.23,137.63l.06-.39a2.57,2.57,0,0,0,2.59-.12c1.64-.82,2-.8,3.17.42s1.33.6,2.76-.22,1.34,4.69,1.89,5.05h0c.56.35,1.68-.26,1.37-2.1s.74-3.52.84-5.23-2-2.52-3.19-3.23c-1.41-.84-2.61-3-4.37-1.75s-4,.61-5.69,1.43l-.18.09c-1.42.78-2.23,2.71-1.08,4a11.06,11.06,0,0,0,1.21,1.19c-.22,1.46-.58,4.7.47,5.5h0A35.26,35.26,0,0,1,92.23,137.63Z"/><path class="cls-17" d="M99.45,150.79A17,17,0,0,1,99.1,149a11,11,0,0,0,2.54-3.21,10.85,10.85,0,0,0,1.06-3.42c-.55-.36-.47-5.87-1.89-5.05s-1.53,1.43-2.76.22-1.53-1.24-3.17-.42a2.57,2.57,0,0,1-2.59.12l-.06.39a35.26,35.26,0,0,0-.15,4.65,16.72,16.72,0,0,0,1.27,6.16,2.87,2.87,0,0,0,3.49,1.86c-.08.3-.18.61-.28.88.7-.07,1.41-.13,2.12-.17Z"/><path class="cls-19" d="M104.54,151.49c-.42-.1-.84-.19-1.27-.26.36-.55.38-1.2,0-1.37s-2.15.41-3.83.93l-.77.22c-.71,0-1.42.1-2.12.17l-.6.07c-.83-.24-1.29-.78-2.19-.79s-.62.68-.33,1.17l-1.54.28a5.42,5.42,0,0,0-2.49,1.37c-1.51,1.27-4.17,1.76-4.61,4-.06.29-.07,1.84-.48,1.84h27.16S109.64,152.73,104.54,151.49Z"/><path class="cls-20" d="M149.53,166.3c.61.67,1.39,1.34,1.69,1.65,1.28,1.35,2.79,3.26,4.84,2.61.22-.07.43-.15.63-.23a13.39,13.39,0,0,1-.42,3.39,4.64,4.64,0,0,0,1.45-4c1.08-.9,1-2.2-.28-3.72-2.72-3.19-4.79-4.57-7.21-3a2.25,2.25,0,0,0-.87-.31c-2.23-.41-5.74,1.09-7.12,4.78-3.69,9.82,3.41,13.64,6.48,1.23C149,167.77,149.27,167,149.53,166.3Z"/><path class="cls-9" d="M161.88,188.82a12.43,12.43,0,0,0-2.9-5.27l-.17-.16a9.85,9.85,0,0,0-6.72-2.21c0,.2.11.4.17.59,1.3.14,2.24.53,2.24,1s-1.49,1-3.32,1-3.32-.47-3.32-1c0-.35.57-.67,1.44-.85.07-.18.15-.37.21-.56a28.13,28.13,0,0,0-5.34,1.24,9,9,0,0,0-6.15,6.15s-.26,1-.56,2.21h5.69a12,12,0,0,0,.54-3.55l.28,0a12.33,12.33,0,0,1-.52,3.58h13.36l-.67-3.08.27-.06.69,3.14h5.27C162.14,189.91,161.94,189,161.88,188.82Z"/><path class="cls-20" d="M144,187.36l-.28,0a12,12,0,0,1-.54,3.55h.3A12.33,12.33,0,0,0,144,187.36Z"/><polygon class="cls-20" points="156.14 187.86 156.81 190.94 157.1 190.94 156.41 187.8 156.14 187.86"/><path class="cls-17" d="M147.86,182.75c0,.57,1.48,1,3.32,1s3.32-.47,3.32-1-.94-.84-2.24-1c-.06-.19-.12-.39-.17-.59a6.39,6.39,0,0,1-.23-1.06,10.19,10.19,0,0,0,4.41-6.4,13.39,13.39,0,0,0,.42-3.39c-.2.08-.41.16-.63.23-2.05.65-3.56-1.26-4.84-2.61-.3-.31-1.08-1-1.69-1.65-.26.67-.54,1.47-.81,2.43-.77,2.72-3,5.34-4.67,7.07,1.11,2.9,3.11,5.23,5.62,5,0,.16-.1.33-.16.49s-.14.38-.21.56C148.43,182.08,147.86,182.4,147.86,182.75Z"/><path class="cls-20" d="M146,119.37c.89-.11,1.9-.21,3-.27.11-.51.3-1.18.45-1.72-2.78-1.18-4.75-4.89-5.16-7.57a8.53,8.53,0,0,1,.41-4.28,6.8,6.8,0,0,0,5.06-3.3c1,2.73,3,6.44,6.29,6.74-.19,3.78-1.17,8.28-4.27,8.74l.32,1.38a15.17,15.17,0,0,1,4.52.87h0c.83-3.14,2.34-9.34,2.51-13.3.24-5.48-4.29-9.42-8.46-9.13s-8.11,4.36-8.35,8.3c-.19,3.1,1.4,10.69,2.08,13.78l.36-.07Z"/><path class="cls-17" d="M152.11,119.09l-.32-1.38c3.1-.46,4.08-5,4.27-8.74-3.33-.3-5.29-4-6.29-6.74a6.8,6.8,0,0,1-5.06,3.3,8.53,8.53,0,0,0-.41,4.28c.41,2.68,2.38,6.39,5.16,7.57-.15.54-.34,1.21-.45,1.72-1.07.06-2.08.16-3,.27a5.56,5.56,0,0,0,4.69,3.2,7,7,0,0,0,5.9-2.61A15.17,15.17,0,0,0,152.11,119.09Z"/><path class="cls-9" d="M156.63,120a7,7,0,0,1-5.9,2.61,5.56,5.56,0,0,1-4.69-3.2l1.2,7.84h8.06Z"/><path class="cls-21" d="M146,119.37l-1.27.17-.36.07c-4,.9-6.38,7.21-6.61,7.6h9.44Z"/><path class="cls-21" d="M160.57,123.37a6.84,6.84,0,0,0-3.94-3.41h0l-1.33,7.25h7.09C162.21,126.81,161.73,125.78,160.57,123.37Z"/><polygon class="cls-22" points="203.91 106.29 204.37 108.2 204.37 108.2 203.91 106.29 203.91 106.29"/><path class="cls-23" d="M210.36,125.16a12,12,0,0,0-2.81-5.11l-.16-.16a9.55,9.55,0,0,0-6.51-2.14c.05.2.11.39.17.58,1.25.13,2.16.51,2.16,1s-1.44,1-3.22,1-3.21-.45-3.21-1c0-.35.55-.65,1.39-.83a5,5,0,0,0,.21-.54,27.28,27.28,0,0,0-5.17,1.2,8.71,8.71,0,0,0-6,6l-.54,2.14h5.51a11.5,11.5,0,0,0,.52-3.44l.27,0a11.84,11.84,0,0,1-.5,3.47h12.94l-.65-3,.27-.06.67,3h5.1C210.62,126.22,210.42,125.34,210.36,125.16Z"/><path class="cls-9" d="M193,123.74l-.27,0a11.5,11.5,0,0,1-.52,3.44h.29A11.84,11.84,0,0,0,193,123.74Z"/><polygon class="cls-9" points="204.8 124.22 205.45 127.21 205.74 127.21 205.07 124.16 204.8 124.22"/><path class="cls-17" d="M196.78,119.28c0,.55,1.44,1,3.21,1s3.22-.45,3.22-1-.91-.82-2.16-1c-.06-.19-.12-.38-.17-.58a6.88,6.88,0,0,1-.23-1,9.67,9.67,0,0,0,4.12-5.65,1.74,1.74,0,0,0,.56-2.41l-.06-.09a.86.86,0,0,0-.9-.38h0l-.46-1.91a.88.88,0,0,0-.85-.66h-.66a1.65,1.65,0,0,1-1,.41c-1.27.1-1.05-.36-2.58,0a14.21,14.21,0,0,1-3.28.41c-1.08,0-1,.28-1.54,1a19.93,19.93,0,0,0-1.32,3.67v0c.92,3.4,3.08,6.46,5.89,6.27,0,.15-.09.31-.15.47a5,5,0,0,1-.21.54C197.33,118.63,196.78,118.93,196.78,119.28Z"/><path class="cls-24" d="M194,107.48c.54-.75.46-1,1.54-1a14.21,14.21,0,0,0,3.28-.41c1.53-.36,1.31.1,2.58,0a1.65,1.65,0,0,0,1-.41h.66a.88.88,0,0,1,.85.66h0l.46,1.91a.86.86,0,0,1,.9.38,12.54,12.54,0,0,0,.06-1.49,6.21,6.21,0,0,0-2.39-5.12c-.25-.79-.61-1.59-1.31-1.59-1,0-1.39-.73-2.17-1.7s-3.7,0-4.26,1-2.27.16-3.25.73-1.13,2.11-.82,3.45.05,1.08-.42,2.22.52,1.64,1,2.77a22.55,22.55,0,0,1,.88,2.29l0,.06v0A19.93,19.93,0,0,1,194,107.48Z"/><path class="cls-25" d="M195.67,152h0c.83-.11,1.77-.2,2.77-.26.1-.47.28-1.09.42-1.6-2.6-1.1-4.43-4.57-4.82-7.07a9,9,0,0,1-.09-1.63,11.39,11.39,0,0,0,7.13-7.41h0c.63,2.79,2.94,5.81,4,7,0,3.7-.78,8.88-4,9.37l.3,1.28a14.18,14.18,0,0,1,4.22.82h0a6.38,6.38,0,0,1,3.68,3.18l.12.25c.8-1.7,2.69-6.1,2.16-8.55a7.26,7.26,0,0,0-3.75-5.17c-1.34-.75.75-7.1-.5-9.19s-5.76-1.66-5.76-1.66-.5-1.76-4.84-1.17-5,6.92-5.09,9.26-1.42,4.5-2.75,6.59c-1.1,1.71,1.85,6,2.94,7.42a5.35,5.35,0,0,1,2.72-1.35C194.84,152.09,195.24,152,195.67,152Z"/><path class="cls-17" d="M201.33,151.72l-.3-1.28c3.24-.49,4-5.67,4-9.37-1-1.24-3.34-4.26-4-7a11.39,11.39,0,0,1-7.13,7.41,9,9,0,0,0,.09,1.63c.39,2.5,2.22,6,4.82,7.07-.14.51-.32,1.13-.42,1.6-1,.06-1.94.15-2.77.26h0c.36.76-.6,5.68,4.42,5.27,6.21-.5,5.46-4.72,5.46-4.72h0A14.18,14.18,0,0,0,201.33,151.72Z"/><path class="cls-26" d="M209.35,156l-.12-.25a6.38,6.38,0,0,0-3.68-3.18s.75,4.22-5.46,4.72c-5,.41-4.06-4.51-4.42-5.27-.43,0-.83.1-1.19.16a5.35,5.35,0,0,0-2.72,1.35,16.67,16.67,0,0,0-3.67,5.58h22.73C210.61,158.61,210.18,157.7,209.35,156Z"/><path class="cls-27" d="M94.86,116.49l-.12-.39A1,1,0,0,0,94.86,116.49Z"/><path class="cls-27" d="M104.21,114.88c-.64,1.75-1.66,3.55-3.2,4.28.07.26.13.49.17.66a10,10,0,0,0,2-.24,12.59,12.59,0,0,0,1,1.1l.12.13.18.16A59.17,59.17,0,0,1,104.21,114.88Z"/><path class="cls-27" d="M98.27,119.32A5.23,5.23,0,0,1,95,116.89a17.89,17.89,0,0,1,.61,2.71c.35,0,1.29.12,2.41.17A3.87,3.87,0,0,0,98.27,119.32Z"/><path class="cls-17" d="M101.18,119.82c0-.17-.1-.4-.17-.66,1.54-.73,2.56-2.53,3.2-4.28a7.85,7.85,0,0,1,.52-3.44c.14.06.34,0,.63-.29.77-.79.19-3.58-.38-4.06-.37-.31-.8.48-1,1.06a12.36,12.36,0,0,0-1-2.27c-.57-.89-3.34,0-3.34,0s-.92-.33-3,1.29-.92,4.19-.83,5.62c.09,1.26-1.17,2.35-1.05,3.31l.12.39a2.59,2.59,0,0,1,.18.4,5.23,5.23,0,0,0,3.23,2.43,3.87,3.87,0,0,1-.21.45c.43,0,.88,0,1.34.06h.2C100.14,119.84,100.67,119.84,101.18,119.82Z"/><path class="cls-28" d="M99.29,124.19a1.58,1.58,0,0,1,.07-.75,1.29,1.29,0,0,0,.07-.52c0-.5-.06-1.51-.1-2.13l-.22.82s0,0,0,0c-.55.39-1.94,0-3.17-.38.07.48.1.79.1.79a2.23,2.23,0,0,1-2.18.54c-1.27-.34-1.86-.78-2-1.82l-.22,0c-2.48.48-5.91,6-6.1,6.39h5.63c-.07-.29-.76-3-.76-3.27a.09.09,0,0,1,.08-.09.09.09,0,0,1,.09.09c0,.25.55,2.43.76,3.25v0h8.28l-.15-1.64A9.52,9.52,0,0,1,99.29,124.19Zm-.64.13a.2.2,0,0,1-.19-.19.19.19,0,0,1,.19-.19.18.18,0,0,1,.19.19A.19.19,0,0,1,98.65,124.32Zm.37,2.13a.2.2,0,0,1-.2-.19.19.19,0,0,1,.2-.19.19.19,0,0,1,.19.19A.2.2,0,0,1,99,126.45Z"/><path class="cls-28" d="M103.23,119.58a10,10,0,0,1-2,.24c-.51,0-1,0-1.58,0,.07.55.34,1.73.9,1.83a15.26,15.26,0,0,0,3.76-1A12.59,12.59,0,0,1,103.23,119.58Zm-2.83,1.56a.19.19,0,0,1-.19-.2.19.19,0,0,1,.38,0A.19.19,0,0,1,100.4,121.14Z"/><path class="cls-28" d="M106.56,122.35l0,0a7.79,7.79,0,0,1-2-1.36l-.18-.16,0,0a18.46,18.46,0,0,1-3.72,1h-.16c-.6-.1-.87-1.07-1-1.65l0,.11c0,.17.13,1.92.13,2.64a1.63,1.63,0,0,1-.07.58,1.5,1.5,0,0,0-.06.69,10,10,0,0,0,.13,1.35h0l.16,1.65h6.54v-2.48a.08.08,0,0,1,.08-.08.08.08,0,0,1,.09.08v2.48H110S108.19,123,106.56,122.35Z"/><path class="cls-28" d="M95.65,119.6c.1.54.17,1.06.23,1.48l.13,0c1.52.52,2.53.66,2.95.4l.44-1.7c-.46,0-.91,0-1.34-.06C96.94,119.72,96,119.63,95.65,119.6Zm2.62,1.73a.2.2,0,0,1-.19-.19.2.2,0,0,1,.19-.2.19.19,0,0,1,.19.2A.19.19,0,0,1,98.27,121.33Z"/><path class="cls-29" d="M99.59,125.55h0a10,10,0,0,1-.13-1.35,1.5,1.5,0,0,1,.06-.69,1.63,1.63,0,0,0,.07-.58c0-.72-.12-2.47-.13-2.64l0-.11c.11.58.38,1.55,1,1.65h.16a18.46,18.46,0,0,0,3.72-1l0,0-.12-.13a15.26,15.26,0,0,1-3.76,1c-.56-.1-.83-1.28-.9-1.83h-.2l-.44,1.7c-.42.26-1.43.12-2.95-.4l-.13,0,0,.19c1.23.43,2.62.77,3.17.38,0,0,0,0,0,0l.22-.82c0,.62.1,1.63.1,2.13a1.29,1.29,0,0,1-.07.52,1.58,1.58,0,0,0-.07.75,9.52,9.52,0,0,0,.14,1.38l.15,1.64h.17Z"/><path class="cls-29" d="M98.65,123.94a.19.19,0,0,0-.19.19.2.2,0,0,0,.19.19.19.19,0,0,0,.19-.19A.18.18,0,0,0,98.65,123.94Z"/><path class="cls-29" d="M99,126.07a.19.19,0,0,0-.2.19.2.2,0,0,0,.2.19.2.2,0,0,0,.19-.19A.19.19,0,0,0,99,126.07Z"/><path class="cls-29" d="M100.4,120.75a.19.19,0,0,0-.19.19.19.19,0,1,0,.38,0A.19.19,0,0,0,100.4,120.75Z"/><path class="cls-29" d="M98.27,120.94a.2.2,0,0,0-.19.2.2.2,0,0,0,.19.19.19.19,0,0,0,.19-.19A.19.19,0,0,0,98.27,120.94Z"/><path class="cls-29" d="M90.54,123.94a.09.09,0,0,0-.09-.09.09.09,0,0,0-.08.09c0,.31.69,3,.76,3.27h.17v0C91.09,126.37,90.54,124.19,90.54,123.94Z"/><path class="cls-29" d="M106.37,124.65a.08.08,0,0,0-.08.08v2.48h.17v-2.48A.08.08,0,0,0,106.37,124.65Z"/><path class="cls-30" d="M93.83,122.6a2.23,2.23,0,0,0,2.18-.54s0-.31-.1-.79l0-.19c-.06-.42-.13-.94-.23-1.48a17.89,17.89,0,0,0-.61-2.71,2.59,2.59,0,0,0-.18-.4,1,1,0,0,1-.12-.39c-.12-1,1.14-2,1.05-3.31-.09-1.43-1.24-4,.83-5.62s3-1.29,3-1.29,2.77-.89,3.34,0a12.36,12.36,0,0,1,1,2.27c.25-.58.68-1.37,1-1.06.57.48,1.15,3.27.38,4.06-.29.3-.49.35-.63.29a7.85,7.85,0,0,0-.52,3.44,59.17,59.17,0,0,0,.35,6.09,7.79,7.79,0,0,0,2,1.36c.2-2,.75-7.63,1-10,.28-2.68.47-3.57,0-6s-.19-2.59-1.62-4.2a10.64,10.64,0,0,0-3-2.35,5.08,5.08,0,0,0-4.26.43l0,0c-.86-1-1.33.33-2.86,0a2,2,0,0,0-2.16,1.24l-2.33,3.91L90.83,110s0,2.67,0,4.38a7.37,7.37,0,0,0,1,3.31,23.13,23.13,0,0,0,0,2.79c0,.1,0,.18,0,.27C92,121.82,92.56,122.26,93.83,122.6Z"/><path class="cls-30" d="M193.71,169.64c.86-.58,2.58,0,3.42,0s1.27.14,2.28.07,2.81-.66,3.1-.33.73.45.83,1.41.16,2.35.16,2.35v0a.82.82,0,0,1,.9.44,1.63,1.63,0,0,1-.52,2.26,11.11,11.11,0,0,1-1.21,2.67c.65-.6,1.44-1.33,1.67-1.6a4.16,4.16,0,0,0,.92-3c-.19-1.16.2-4.15,0-5.2a8,8,0,0,0-1.64-2.78c.95-.35,0-1.08,0-1.08l.32-1.25-.32-.79-1.07-1.23a6.24,6.24,0,0,0-2.45,0c-1.06.29-1,2.47-1.78,2.6a17.87,17.87,0,0,0-4,1.39c-1.15.63-1.63,1.69-2.14,4.19a17.58,17.58,0,0,0,.39,6.14S192.84,170.21,193.71,169.64Z"/><path class="cls-31" d="M209.1,189a11.13,11.13,0,0,0-2.62-4.77l-.16-.15a8.61,8.61,0,0,0-5.67-2l-.39.09c.05.15.09.3.13.43,1.18.13,2,.48,2,.89s-1.35.94-3,.94-3-.42-3-.94c0-.32.52-.6,1.31-.77,0-.09.07-.18.11-.27l-.69,0-.37,0a24.76,24.76,0,0,0-3.69,1,8.14,8.14,0,0,0-5.58,5.57l-.5,2h5.15a10.87,10.87,0,0,0,.49-3.21l.25,0a10.79,10.79,0,0,1-.47,3.24h12.11l-.62-2.79.25-.06.63,2.85h4.77C209.34,190,209.16,189.2,209.1,189Z"/><path class="cls-32" d="M192.88,187.7l-.25,0a10.87,10.87,0,0,1-.49,3.21h.27A10.79,10.79,0,0,0,192.88,187.7Z"/><polygon class="cls-32" points="203.9 188.15 204.52 190.94 204.78 190.94 204.16 188.09 203.9 188.15"/><path class="cls-17" d="M197.82,182.48c0,.09-.08.18-.11.27-.79.17-1.31.45-1.31.77,0,.52,1.35.94,3,.94s3-.42,3-.94-.85-.76-2-.89c0-.13-.08-.28-.13-.43A9.87,9.87,0,0,1,197.82,182.48Z"/><path class="cls-30" d="M197.82,182.48a9.87,9.87,0,0,0,2.44-.28l.39-.09h0c.56-.14,1-1.67,1.14-2.12a1.13,1.13,0,0,0,.07-.41c-.2.23-.42.45-.64.66l-.44.37,0,0-.58.2a2.33,2.33,0,0,1-.64.3,1.27,1.27,0,0,1-.67,0c-.34-.05-.39-.25-.39-.25l-.18-.38s-.14-.23-.33-.23-.42.29-.42.29l-.39.47a1.14,1.14,0,0,1-.49.22.76.76,0,0,1-.69-.17l-1.64-1.22h0l0,0c.13.34.19,1.78.81,2s.2.38,1.54.51l.37,0Z"/><path class="cls-17" d="M196,181.06a.76.76,0,0,0,.69.17,1.14,1.14,0,0,0,.49-.22l.39-.47s.24-.29.42-.29.33.23.33.23l.18.38s0,.2.39.25a1.27,1.27,0,0,0,.67,0,2.33,2.33,0,0,0,.64-.3l.58-.2,0,0,.44-.37c.22-.21.44-.43.64-.66a10,10,0,0,0,2-3.71,1.63,1.63,0,0,0,.52-2.26.82.82,0,0,0-.9-.44v0s-.07-1.38-.16-2.35-.53-1.08-.83-1.41-2.09.26-3.1.33-1.44-.07-2.28-.07-2.56-.58-3.42,0-1.18,6.3-1.18,6.3a11.36,11.36,0,0,0,1.85,3.9h0Z"/><path class="cls-19" d="M93.15,173.74l.06-.09a.8.8,0,0,1,.84-.35l.43-1.78a.81.81,0,0,1,.79-.62h.61a1.56,1.56,0,0,0,1,.39c1.19.09,1-.34,2.4,0a13.89,13.89,0,0,0,3.06.38c1,.05.94.26,1.44,1a2.62,2.62,0,0,1,.27.51,1.42,1.42,0,0,1,1,.16,1.39,1.39,0,0,1,.67,1.64,1.76,1.76,0,0,1-.79,1l0,.11v0c0,.16-.09.32-.14.48.93.08,1.94-.08,2.25-1a15.76,15.76,0,0,0,.75-2.26c.13-.73.09-1.57.22-2.33s.77-1.58.71-2.38-.74-1.62-1-2.43a5.68,5.68,0,0,0-1.31-2.54c-.73-.68-1.76-.36-2.64-.49-1.13-.17-1.63-1.18-2.66-1.54a3.15,3.15,0,0,0-2.11.4,8.73,8.73,0,0,1-2.38.26c-1.15.1-1.19.89-2.1,1.28-.18.07-1.08.06-1.14.24a1.94,1.94,0,0,1-.8,1.21c-.24,0-.71.47-.83.67a2.3,2.3,0,0,0-.15,1.17.82.82,0,0,1,0,.22c-.16.51-.73.72-1.12,1a3.29,3.29,0,0,0-.73.61,2.5,2.5,0,0,0-.06,2,3.16,3.16,0,0,1,.2,1.06,9.25,9.25,0,0,0-.14,1.82c.1.6.53.75.93,1.1.69.61.23,2,1.19,2.3A5.64,5.64,0,0,0,94,177c-.14-.33-.26-.67-.37-1A1.62,1.62,0,0,1,93.15,173.74Z"/><path class="cls-15" d="M110,189a8.14,8.14,0,0,0-5.56-5.56,25.49,25.49,0,0,0-4.82-1.12c.06.17.13.35.2.51.78.16,1.29.45,1.29.77,0,.51-1.34.93-3,.93s-3-.42-3-.93.84-.76,2-.89l.15-.53a8.84,8.84,0,0,0-6.06,2l-.16.15a11.26,11.26,0,0,0-2.62,4.76c0,.17-.24,1-.45,1.91h4.76l.63-2.84.25.06L93,191h12.07a11.08,11.08,0,0,1-.48-3.23l.26,0a11,11,0,0,0,.48,3.2h5.14Z"/><path class="cls-8" d="M104.89,187.82l-.26,0a11.08,11.08,0,0,0,.48,3.23h.26A11,11,0,0,1,104.89,187.82Z"/><polygon class="cls-8" points="93.4 188.18 92.77 191.02 93.04 191.02 93.65 188.24 93.4 188.18"/><path class="cls-17" d="M95.13,183.63c0,.51,1.34.93,3,.93s3-.42,3-.93c0-.32-.51-.61-1.29-.77-.07-.16-.14-.34-.2-.51s-.1-.29-.14-.43c2.49.17,4.43-2.4,5.35-5.37,0-.16.1-.32.14-.48v0l0-.11a1.76,1.76,0,0,0,.79-1,1.39,1.39,0,0,0-.67-1.64,1.42,1.42,0,0,0-1-.16,2.62,2.62,0,0,0-.27-.51c-.5-.7-.43-.91-1.44-1a13.89,13.89,0,0,1-3.06-.38c-1.42-.34-1.21.09-2.4,0a1.56,1.56,0,0,1-1-.39h-.61a.81.81,0,0,0-.79.62l-.43,1.78a.8.8,0,0,0-.84.35l-.06.09a1.62,1.62,0,0,0,.52,2.24c.11.35.23.69.37,1a8.55,8.55,0,0,0,3.47,4.25,6,6,0,0,1-.21,1l-.15.53C96,182.87,95.13,183.22,95.13,183.63Z"/></g></g></svg>