<?xml version="1.0" encoding="UTF-8"?><svg id="Layer_1" xmlns="http://www.w3.org/2000/svg" xmlns:xlink="http://www.w3.org/1999/xlink" viewBox="0 0 150 150"><defs><style>.cls-1{fill:#fff;}.cls-2{fill:#4e4e4e;}.cls-3,.cls-4{fill:#73297c;}.cls-5{filter:url(#drop-shadow-1);}.cls-6{fill:#d3b0d3;}.cls-4{fill-rule:evenodd;}.cls-7{fill:#a652a0;}.cls-8{fill:#e9ecef;}.cls-9{fill:#eaedef;}</style><filter id="drop-shadow-1" filterUnits="userSpaceOnUse"><feOffset dx="3" dy="1"/><feGaussianBlur result="blur" stdDeviation="3"/><feFlood flood-color="#010101" flood-opacity=".3"/><feComposite in2="blur" operator="in"/><feComposite in="SourceGraphic"/></filter></defs><g id="_ะบบจองห้องประชุม"><circle class="cls-6" cx="75" cy="75" r="75"/><g class="cls-5"><path class="cls-3" d="M114.7,60.78c-3.77,.03-7.55,.09-11.32,.1-21.98,0-43.95,0-65.93,0-1.09,0-2.18-.06-3.27-.1,.05-4.46,.09-8.92,.14-13.38,.2-.14,.51-.23,.59-.42,2.4-6,7.47-6.95,11.69-6.72,.8,.04,1.63,.06,1.57,1.13-.11,1.88,.58,3.83-.71,5.61-1.25,1.72-.87,3.28,.77,4.61,1.2,.98,2.48,1.1,3.68,.23,1.61-1.18,2.19-2.96,1.13-4.63-1.17-1.85-.64-3.74-.78-5.61-.09-1.17,.69-1.35,1.64-1.34,2.94,.02,5.88,0,8.82,0,.79,0,1.66,.03,1.58,1.1-.12,1.88,.61,3.84-.7,5.61-1.32,1.78-.64,3.34,.82,4.65,1.14,1.03,2.47,1.08,3.67,.18,1.59-1.21,2.14-2.97,1.07-4.65-1.18-1.85-.6-3.74-.75-5.62-.06-.8,.34-1.26,1.19-1.26,3.19,0,6.39,0,9.58,0,.63,0,1.3,.16,1.25,.91-.11,1.88,.67,3.87-.59,5.63-1.36,1.89-.8,3.49,.78,4.86,1.16,1,2.48,1.03,3.67,.1,1.57-1.23,2.19-2.88,1.03-4.63-1.21-1.81-.63-3.73-.77-5.62-.07-1.01,.57-1.27,1.45-1.27,3.03,.01,6.05,0,9.08,0,.68,0,1.53,0,1.49,.92-.08,1.88,.66,3.86-.58,5.63-1.32,1.88-.67,3.51,.83,4.88,1.24,1.14,2.75,.91,3.94,.02,1.69-1.26,1.64-3.11,.63-4.71-1.16-1.84-.53-3.75-.67-5.63-.07-.88,.57-1.07,1.33-1.12,4.25-.27,7.95,.74,10.76,4.23,.73,.91,.57,2.33,1.79,2.89l.11,13.39Z"/><path class="cls-7" d="M114.6,47.4c-1.22-.57-1.06-1.98-1.79-2.89-2.81-3.49-6.51-4.5-10.76-4.23-.76,.05-1.39,.24-1.33,1.12,.14,1.88-.49,3.79,.67,5.63,1.01,1.59,1.06,3.45-.63,4.71-1.19,.89-2.7,1.12-3.94-.02-1.49-1.37-2.15-3-.83-4.88,1.24-1.77,.5-3.75,.58-5.63,.04-.91-.81-.92-1.49-.92-3.03,0-6.05,0-9.08,0-.88,0-1.52,.26-1.45,1.27,.14,1.88-.44,3.8,.77,5.62,1.16,1.74,.54,3.4-1.03,4.63-1.19,.93-2.51,.9-3.67-.1-1.59-1.38-2.14-2.97-.78-4.86,1.26-1.75,.49-3.74,.59-5.63,.04-.75-.62-.91-1.25-.91-3.19,0-6.39,0-9.58,0-.85,0-1.25,.46-1.19,1.26,.15,1.88-.43,3.77,.75,5.62,1.07,1.68,.53,3.44-1.07,4.65-1.19,.91-2.52,.86-3.67-.18-1.46-1.32-2.14-2.88-.82-4.65,1.31-1.77,.57-3.73,.7-5.61,.07-1.07-.8-1.1-1.58-1.1-2.94,0-5.88,.01-8.82,0-.95,0-1.73,.17-1.64,1.34,.14,1.88-.39,3.76,.78,5.61,1.06,1.68,.47,3.46-1.13,4.63-1.19,.87-2.47,.75-3.68-.23-1.64-1.33-2.02-2.89-.77-4.61,1.29-1.78,.6-3.73,.71-5.61,.06-1.07-.77-1.09-1.57-1.13-4.22-.23-9.29,.71-11.69,6.72-.08,.19-.39,.28-.59,.42-.33-5.8,3.7-10.07,9.91-10.46,1.33-.08,2.66-.03,4-.04,.47,.85,.39,1.77,.38,2.69-.03,2.93-.04,5.86-.03,8.78,0,1.1,.31,2.05,1.66,2.03,1.34-.02,1.62-.97,1.63-2.07,0-.75-.06-1.51-.03-2.26,.14-3.07-.38-6.16,.36-9.21,4.06,0,8.12,0,12.18,0,.58,.74,.33,1.62,.34,2.43,.03,3.1,0,6.2,.02,9.31,0,1.04,.45,1.8,1.63,1.8,1.17,0,1.61-.75,1.64-1.8,.02-.84-.05-1.68-.01-2.51,.14-3.07-.38-6.17,.36-9.22,4.06,0,8.12,0,12.18,0,.57,.74,.33,1.62,.33,2.43,.03,3.1,0,6.2,.02,9.3,0,1.04,.46,1.8,1.63,1.8,1.17,0,1.6-.75,1.64-1.8,.03-.75,.02-1.51,.04-2.26,.08-3.16-.46-6.34,.3-9.47,4.06,0,8.12,0,12.18,0,.57,.74,.33,1.61,.33,2.43,.03,3.1,0,6.2,.02,9.3,0,1.04,.47,1.8,1.64,1.81,1.18,0,1.59-.77,1.62-1.81,.03-.84-.05-1.68,0-2.51,.14-3.07-.37-6.17,.36-9.21,1.99,.11,4.01,.1,5.98,.36,5.08,.67,8.63,5.9,7.97,10.17Z"/><path class="cls-8" d="M52.21,36.87c-.74,3.04-.22,6.14-.36,9.21-.03,.75,.03,1.51,.03,2.26-.01,1.1-.29,2.05-1.63,2.07-1.35,.02-1.66-.93-1.66-2.03-.01-2.93,0-5.86,.03-8.78,0-.92,.09-1.84-.38-2.69,.04-.75,0-1.52,.15-2.25,.2-.98,.42-1.98,1.83-1.96,1.51,.02,1.74,1.07,1.92,2.17,.1,.66,.05,1.34,.07,2.01Z"/><path class="cls-8" d="M68.35,36.87c-.74,3.05-.22,6.15-.36,9.22-.04,.84,.03,1.68,.01,2.51-.03,1.05-.47,1.8-1.64,1.8-1.18,0-1.62-.76-1.63-1.8-.02-3.1,.01-6.2-.02-9.31,0-.82,.24-1.69-.34-2.43,.03-.75-.03-1.52,.11-2.26,.19-1,.49-1.93,1.87-1.93,1.37,0,1.69,.92,1.88,1.93,.14,.73,.08,1.5,.1,2.26Z"/><path class="cls-8" d="M84.5,36.87c-.76,3.14-.22,6.31-.3,9.47-.02,.75-.01,1.51-.04,2.26-.04,1.05-.47,1.8-1.64,1.8-1.18,0-1.63-.76-1.63-1.8-.02-3.1,.01-6.2-.02-9.3,0-.82,.24-1.69-.33-2.43,.02-.67-.04-1.36,.09-2,.21-1.05,.35-2.19,1.9-2.17,1.51,.02,1.73,1.1,1.93,2.17,.12,.65,.03,1.33,.04,2Z"/><path class="cls-8" d="M100.65,36.87c-.73,3.05-.22,6.14-.36,9.21-.04,.84,.04,1.67,0,2.51-.03,1.04-.44,1.82-1.62,1.81-1.17,0-1.63-.76-1.64-1.81-.03-3.1,0-6.2-.02-9.3,0-.81,.24-1.69-.33-2.43,.06-.83,.03-1.68,.19-2.49,.19-.93,.56-1.7,1.8-1.7,1.23,0,1.62,.75,1.8,1.69,.16,.81,.12,1.66,.17,2.5Z"/><path class="cls-9" d="M114.7,60.78c-3.77,.03-7.55,.09-11.32,.1-21.98,0-43.95,0-65.93,0-1.09,0-2.18-.06-3.27-.1-.03,15.2-.17,30.4-.05,45.6,.05,6.25,4.3,10.09,10.47,10.09,19.99,0,39.98,0,59.96,0,5.72,0,10.15-3.94,10.19-9.58,.1-15.37-.02-30.73-.05-46.1Zm-19.23,13.38q3.2,0,3.2,3.74c-.01,3.98,.71,3.75-3.71,3.76q-3.79,0-3.79-3.99,0-3.51,4.3-3.51Zm-13.43,0q3,0,3,4.62,0,2.88-3.97,2.88-3.53,0-3.53-4.09,0-3.41,4.5-3.41Zm-4.5,14.53c-.02-3.01,0-3.01,4.14-3.01,3.37,0,3.38,0,3.36,4.46-.02,3.57,.43,2.99-3.89,3.04-4.24,.01-3.57,.16-3.6-4.49Zm3.76,15.92q-3.78,0-3.76-4.54c.02-3.55-.07-2.85,4.64-2.86,3.5-.01,2.58-.3,2.93,4.85,.24,3.55-1.94,2.6-3.81,2.56Zm17.06-.2c-.39,.27-.93,.31-1.4,.31-5.8-.07-5.83-.05-5.8-3.27,.04-4.77-.55-4.22,2.92-4.24,1.01,0,2.03-.05,3.04,0,.42,.02,.99,.02,1.31,.34,.31,.31,.29,.84,.28,1.24,0,.83-.04,1.65-.05,2.48,0,.61,.05,1.2,.08,1.81,.03,.44,.02,1.05-.39,1.34Zm.21-12.15c-.11,.63-.52,.81-1.11,.85-1.76,.11-3.53,.09-5.29,.02-.26-.01-.55-.03-.74-.21-.17-.16-.22-.42-.24-.66-.12-1.1,0-2.21,0-3.32,0-.79-.08-1.59,.14-2.35,.17-.6,.66-1.11,1.27-1.25,.82-.18,1.65,.14,2.46,.23,.68,.08,1.37,.07,2.06,.06,.47,0,1.05-.03,1.35,.42,.26,.41,.2,.92,.22,1.39,.02,.55,.05,1.09,.07,1.64,.03,1.07,0,2.14-.18,3.19Z"/><rect class="cls-9" x="75.69" y="72.94" width="24.96" height="33.53"/><circle class="cls-1" cx="111.63" cy="111.28" r="10.89"/><path class="cls-4" d="M114.26,114.31h0l6.18-6.18c.59-.59,.59-1.53,0-2.12-.57-.57-1.53-.57-2.1,0l-6.5,6.49-5.74-4.3c-.66-.48-1.6-.35-2.08,.31-.5,.66-.37,1.6,.29,2.08l5.39,4.05-.74,.74c-.59,.59-.59,1.53,0,2.12,.57,.59,1.53,.59,2.1,0l1.07-1.05,.26,.18c.64,.5,1.58,.35,2.08-.29,.46-.64,.37-1.51-.22-2.02h0Zm-7.69-16.85c-1.75,.74-3.33,1.8-4.67,3.13-1.33,1.34-2.39,2.93-3.13,4.67-.7,1.69-1.09,3.55-1.09,5.5s.39,3.83,1.09,5.52c.74,1.75,1.8,3.33,3.13,4.67,1.34,1.33,2.92,2.39,4.67,3.13,1.69,.7,3.55,1.09,5.5,1.09s3.83-.39,5.52-1.09c1.75-.74,3.33-1.8,4.65-3.13,1.34-1.34,2.41-2.93,3.13-4.67,.7-1.69,1.1-3.55,1.1-5.52s-.39-3.81-1.1-5.5c-.72-1.75-1.78-3.33-3.13-4.67-1.33-1.32-2.91-2.39-4.65-3.13-1.69-.7-3.56-1.09-5.52-1.09s-3.81,.39-5.5,1.09h0Z"/></g><g><circle class="cls-2" cx="62.34" cy="71.78" r="4.62" transform="translate(-15.32 16.94) rotate(-13.8)"/><path class="cls-2" d="M53.94,94.95c.11,.02,.22,.03,.34,.03,.89,0,1.69-.64,1.86-1.55l1.46-8.06v4.98l-.32,6.1c.14-.01,.27-.02,.41-.02,1.73,0,3.26,.88,4.18,2.21l.16-3h.59l.43,8.17c.82,.31,1.51,.89,1.96,1.63,.58-.97,1.57-1.66,2.73-1.84-.3-.64-.47-1.36-.47-2.11,0-.56,.1-1.1,.27-1.61l-.52-9.47v-8.23l2.91,2.87c.35,.35,.83,.54,1.32,.54,.1,0,.19,0,.28-.02l6.12-.94c1.03-.16,1.73-1.12,1.57-2.15-.16-1.03-1.12-1.73-2.15-1.57l-5.18,.8-2.54-2.5c-1.17-1.16-2.21-1.76-2.69-1.94-.77-.28-1.73-.46-2.9-.46h-2.8c-3.01,0-4.61,1.23-5.35,2.07-.53,.61-.93,1.39-1.27,3.26l-1.91,10.63c-.18,1.02,.5,2,1.52,2.19Z"/><g><circle class="cls-2" cx="86.96" cy="101.48" r="3.32" transform="translate(-32.07 40.72) rotate(-22.36)"/><path class="cls-2" d="M93.1,109.26v-1.81c0-1.19-.98-2.17-2.17-2.17h-7.95c-1.19,0-2.17,.98-2.17,2.17v1.81h12.29Z"/><circle class="cls-2" cx="72.32" cy="101.48" r="3.32" transform="translate(-33.17 35.15) rotate(-22.36)"/><path class="cls-2" d="M78.46,109.26v-1.81c0-1.19-.98-2.17-2.17-2.17h-7.95c-1.19,0-2.17,.98-2.17,2.17v1.81h12.29Z"/><circle class="cls-2" cx="57.67" cy="101.48" r="3.32" transform="translate(-34.27 29.58) rotate(-22.36)"/><path class="cls-2" d="M63.82,109.26v-1.81c0-1.19-.98-2.17-2.17-2.17h-7.95c-1.19,0-2.17,.98-2.17,2.17v1.81h12.29Z"/></g><path class="cls-2" d="M66.68,67.14c.53,.5,.98,1.09,1.32,1.74h22.37v23.36h-21.52l.1,1.74h23.17v-26.84h-25.43Z"/></g></g></svg>