<svg id="Mobile_Application" data-name="Mobile Application" xmlns="http://www.w3.org/2000/svg" viewBox="0 0 363.42 378.38"><defs><style>.cls-1{fill:#0027e9;opacity:0.21;}.cls-2,.cls-6{fill:#2626bc;}.cls-2{opacity:0.1;isolation:isolate;}.cls-3{fill:#6583fe;}.cls-4{fill:#fff;}.cls-5{fill:#be1e2d;}.cls-7{fill:#b7c5ff;}.cls-8{fill:#8399fe;}.cls-9{fill:#ff7eb8;}.cls-10{fill:#ff5ba8;}.cls-11{fill:#ffdbed;}.cls-12{fill:#d2deff;}.cls-13{fill:#9fb0fe;}.cls-14{fill:#02ffb3;}.cls-15{fill:#01eca5;}</style></defs><title>mobile</title><path class="cls-1" d="M429.78,303.78C422.83,403.6,348.66,485,248.6,485A181.18,181.18,0,0,1,67.42,303.78C67.42,203.72,223.6,57.86,248.6,122.6,334.39,344.75,442.7,118,429.78,303.78Z" transform="translate(-67.42 -106.58)"/><path class="cls-2" d="M320.28,466.48H191.72A20.47,20.47,0,0,1,171.26,446V186.34a20.46,20.46,0,0,1,20.46-20.47H320.28a20.46,20.46,0,0,1,20.46,20.47V446A20.47,20.47,0,0,1,320.28,466.48Z" transform="translate(-67.42 -106.58)"/><path class="cls-3" d="M320.28,450.1H191.72a20.46,20.46,0,0,1-20.46-20.46V170a20.46,20.46,0,0,1,20.46-20.47H320.28A20.46,20.46,0,0,1,340.74,170V429.64A20.46,20.46,0,0,1,320.28,450.1Z" transform="translate(-67.42 -106.58)"/><path class="cls-4" d="M171.26,178.77H340.74V420.83H171.26Z" transform="translate(-67.42 -106.58)"/><path class="cls-5" d="M204.38,255.23l-3.68,3.67a3.42,3.42,0,0,0,0,4.83l3.68,3.68a10.23,10.23,0,0,1,3,7.24V420.83H171.26V178.77h36.12V248a10.23,10.23,0,0,1-3,7.24Z" transform="translate(-67.42 -106.58)"/><path class="cls-6" d="M320.28,453.51H191.72a23.9,23.9,0,0,1-23.87-23.87V170a23.9,23.9,0,0,1,23.87-23.88H320.28A23.9,23.9,0,0,1,344.15,170V429.64a23.9,23.9,0,0,1-23.87,23.87ZM191.72,152.91A17.07,17.07,0,0,0,174.67,170V429.64a17.07,17.07,0,0,0,17.05,17.05H320.28a17.07,17.07,0,0,0,17.05-17.05V170a17.07,17.07,0,0,0-17.05-17.06Z" transform="translate(-67.42 -106.58)"/><path class="cls-7" d="M267.93,168.17H244.07a3.41,3.41,0,0,1,0-6.82h23.86a3.41,3.41,0,0,1,0,6.82Z" transform="translate(-67.42 -106.58)"/><circle class="cls-7" cx="216.42" cy="58.18" r="3.41"/><path class="cls-4" d="M192.73,227.91v-10a3.41,3.41,0,1,0-6.82,0v10a3.41,3.41,0,1,0,6.82,0Z" transform="translate(-67.42 -106.58)"/><path class="cls-8" d="M221.44,223.25h50.94a3.42,3.42,0,1,0,0-6.83H221.44a3.42,3.42,0,0,0,0,6.83Z" transform="translate(-67.42 -106.58)"/><path class="cls-8" d="M221.44,235.79h30.48a3.41,3.41,0,1,0,0-6.82H221.44a3.41,3.41,0,0,0,0,6.82Z" transform="translate(-67.42 -106.58)"/><path class="cls-4" d="M192.73,266.33v-10a3.41,3.41,0,0,0-6.82,0v10a3.41,3.41,0,0,0,6.82,0Z" transform="translate(-67.42 -106.58)"/><path class="cls-4" d="M192.73,304.74v-10a3.41,3.41,0,1,0-6.82,0v10a3.41,3.41,0,1,0,6.82,0Z" transform="translate(-67.42 -106.58)"/><path class="cls-4" d="M192.73,343.15v-10a3.41,3.41,0,0,0-6.82,0v10a3.41,3.41,0,1,0,6.82,0Z" transform="translate(-67.42 -106.58)"/><path class="cls-9" d="M329.27,259.72v61.52a6.81,6.81,0,0,1-6.82,6.82H227.52a6.82,6.82,0,0,1-6.82-6.82V259.72a6.82,6.82,0,0,1,6.82-6.82h94.93a6.82,6.82,0,0,1,6.82,6.82Z" transform="translate(-67.42 -106.58)"/><path class="cls-10" d="M321.08,258a8.71,8.71,0,1,1-17.41,0,8.62,8.62,0,0,1,1.67-5.12h14.07a8.62,8.62,0,0,1,1.67,5.12Z" transform="translate(-67.42 -106.58)"/><circle class="cls-11" cx="244.96" cy="146.32" r="8.71"/><path class="cls-8" d="M329.27,362.09v58.74H220.7V362.09a6.82,6.82,0,0,1,6.82-6.82h94.93A6.81,6.81,0,0,1,329.27,362.09Z" transform="translate(-67.42 -106.58)"/><path class="cls-3" d="M321.08,360.39a8.71,8.71,0,1,1-15.74-5.12h14.07a8.66,8.66,0,0,1,1.67,5.12Z" transform="translate(-67.42 -106.58)"/><circle class="cls-12" cx="244.96" cy="248.69" r="8.71"/><path class="cls-12" d="M325.87,205.37H220A3.41,3.41,0,0,1,216.6,202v-7.52A3.41,3.41,0,0,1,220,191H325.87a3.41,3.41,0,0,1,3.41,3.41V202A3.41,3.41,0,0,1,325.87,205.37Z" transform="translate(-67.42 -106.58)"/><path class="cls-13" d="M325.87,191h-14v14.34h14a3.41,3.41,0,0,0,3.41-3.41v-7.52a3.41,3.41,0,0,0-3.41-3.41Z" transform="translate(-67.42 -106.58)"/><path class="cls-4" d="M284.75,296.91H239.94a3.41,3.41,0,1,0,0,6.82h44.81a3.41,3.41,0,1,0,0-6.82Z" transform="translate(-67.42 -106.58)"/><path class="cls-14" d="M301.55,302.55l7.19-14.69a3.41,3.41,0,0,0-6.13-3l-7.19,14.69a3.41,3.41,0,0,0,6.13,3Z" transform="translate(-67.42 -106.58)"/><path class="cls-4" d="M284.75,283.66H239.94a3.41,3.41,0,1,0,0,6.82h44.81a3.41,3.41,0,1,0,0-6.82Z" transform="translate(-67.42 -106.58)"/><path class="cls-4" d="M247.91,267.74h-8a3.41,3.41,0,1,0,0,6.82h8a3.41,3.41,0,1,0,0-6.82Z" transform="translate(-67.42 -106.58)"/><path class="cls-4" d="M284.75,399.35H239.94a3.41,3.41,0,0,0,0,6.82h44.81a3.41,3.41,0,1,0,0-6.82Z" transform="translate(-67.42 -106.58)"/><path class="cls-14" d="M301.55,405l7.19-14.69a3.41,3.41,0,0,0-6.13-3L295.42,402a3.41,3.41,0,0,0,6.13,3Z" transform="translate(-67.42 -106.58)"/><path class="cls-4" d="M284.75,386.1H239.94a3.41,3.41,0,0,0,0,6.82h44.81a3.41,3.41,0,1,0,0-6.82Z" transform="translate(-67.42 -106.58)"/><path class="cls-4" d="M247.91,370.17h-8a3.41,3.41,0,0,0,0,6.82h8a3.41,3.41,0,1,0,0-6.82Z" transform="translate(-67.42 -106.58)"/><path class="cls-10" d="M374.21,310.07a9.75,9.75,0,1,1,9.74-9.75,9.76,9.76,0,0,1-9.74,9.75Zm0-12.67a2.93,2.93,0,1,0,2.92,2.92A2.93,2.93,0,0,0,374.21,297.4Z" transform="translate(-67.42 -106.58)"/><path class="cls-3" d="M141.24,215.12a9.75,9.75,0,1,1,9.74-9.75A9.76,9.76,0,0,1,141.24,215.12Zm0-12.68a2.93,2.93,0,1,0,2.92,2.93A2.93,2.93,0,0,0,141.24,202.44Z" transform="translate(-67.42 -106.58)"/><path class="cls-15" d="M141.24,179.09a3.42,3.42,0,0,1-3.42-3.41,4.1,4.1,0,0,0-4.09-4.1,3.41,3.41,0,1,1,0-6.82,4.09,4.09,0,0,0,4.09-4.09,3.42,3.42,0,0,1,6.83,0,4.09,4.09,0,0,0,4.09,4.09,3.41,3.41,0,0,1,0,6.82,4.1,4.1,0,0,0-4.09,4.1A3.41,3.41,0,0,1,141.24,179.09Z" transform="translate(-67.42 -106.58)"/><path class="cls-3" d="M374.21,357.48a3.41,3.41,0,0,1-3.41-3.41,4.11,4.11,0,0,0-4.1-4.1,3.41,3.41,0,1,1,0-6.82,4.1,4.1,0,0,0,4.1-4.09,3.41,3.41,0,0,1,6.82,0,4.09,4.09,0,0,0,4.09,4.09,3.41,3.41,0,0,1,0,6.82,4.1,4.1,0,0,0-4.09,4.1A3.41,3.41,0,0,1,374.21,357.48Z" transform="translate(-67.42 -106.58)"/><path class="cls-3" d="M388.05,285.47a3.41,3.41,0,0,1-3.41-3.41,4.1,4.1,0,0,0-4.1-4.09,3.41,3.41,0,0,1,0-6.82,4.11,4.11,0,0,0,4.1-4.1,3.41,3.41,0,1,1,6.82,0,4.1,4.1,0,0,0,4.09,4.1,3.41,3.41,0,0,1,0,6.82,4.09,4.09,0,0,0-4.09,4.09A3.41,3.41,0,0,1,388.05,285.47Z" transform="translate(-67.42 -106.58)"/></svg>