<svg xmlns="http://www.w3.org/2000/svg" xmlns:xlink="http://www.w3.org/1999/xlink" viewBox="0 0 300 300"><defs><style>.cls-1{fill:url(#linear-gradient);}.cls-2{fill:url(#linear-gradient-2);}.cls-3{fill:#db1f26;}.cls-4{opacity:0.5;}.cls-5{fill:#010101;}.cls-6{fill:url(#linear-gradient-3);}.cls-7{fill:#1b2444;}.cls-8{fill:#d6eff5;}.cls-9{fill:#1b294c;}.cls-10{fill:#fff;}.cls-11,.cls-20{fill:#e89623;}.cls-11,.cls-12{stroke:#db8b27;}.cls-11,.cls-12,.cls-21{stroke-miterlimit:10;}.cls-12{fill:#f3ac3a;}.cls-13{fill:#f4a186;}.cls-14{fill:#f8b690;}.cls-15{fill:#4f2c12;}.cls-16{fill:#2ea8c9;}.cls-17{fill:#54bcd4;}.cls-18{fill:#0d233a;}.cls-19{fill:#243e4f;}.cls-21{fill:none;stroke:#fff;stroke-linecap:round;stroke-width:0.75px;}.cls-22{fill:#1c3546;}</style><linearGradient id="linear-gradient" x1="376.2" y1="552.49" x2="674.44" y2="552.49" gradientTransform="translate(702.33 -375.34) rotate(90)" gradientUnits="userSpaceOnUse"><stop offset="0" stop-color="#fffffd"/><stop offset="1" stop-color="#e2e3e4"/></linearGradient><linearGradient id="linear-gradient-2" x1="387.67" y1="552.49" x2="662.97" y2="552.49" gradientTransform="translate(702.33 -375.34) rotate(90)" gradientUnits="userSpaceOnUse"><stop offset="0" stop-color="#4a90cd"/><stop offset="1" stop-color="#2055a6"/></linearGradient><linearGradient id="linear-gradient-3" x1="415.19" y1="552.5" x2="635.43" y2="552.5" gradientTransform="translate(702.34 -375.33) rotate(90)" xlink:href="#linear-gradient"/></defs><g id="_13_money" data-name="13_money"><g id="Layer_49" data-name="Layer 49"><rect class="cls-1" x="0.72" y="0.86" width="298.25" height="298.25" rx="149.12"/><rect class="cls-2" x="12.19" y="12.33" width="275.3" height="275.3" rx="137.65"/><path class="cls-3" d="M34.83,150.78a115.85,115.85,0,1,0,231.69,0H34.83Z"/><g class="cls-4"><path class="cls-5" d="M149.84,288.37C73.53,288.37,11.45,226.29,11.45,150S73.53,11.59,149.84,11.59,288.23,73.68,288.23,150,226.15,288.37,149.84,288.37Zm0-275.3C74.34,13.07,12.92,74.49,12.92,150S74.34,286.9,149.84,286.9,286.75,225.48,286.75,150,225.33,13.07,149.84,13.07Z"/></g><rect class="cls-6" x="39.72" y="39.86" width="220.24" height="220.24" rx="110.12"/></g><g id="Layer_50" data-name="Layer 50"><path class="cls-7" d="M215.29,88.14v73.33a2.38,2.38,0,0,1-2.38,2.39H72.06a2.37,2.37,0,0,1-1.73-.75,2.34,2.34,0,0,1-.66-1.64V88.14a12.8,12.8,0,0,1,12.8-12.8h120A12.79,12.79,0,0,1,215.29,88.14Z"/><rect class="cls-8" x="108.84" y="57.4" width="67.28" height="124.4" rx="4.11" transform="translate(262.08 -22.89) rotate(90)"/><rect class="cls-9" x="60.53" y="164.92" width="163.91" height="9.59" rx="2.75"/><path class="cls-7" d="M219.56,178.1H64.89a2.55,2.55,0,0,1-2.22-1.29l-2.14-3.76H224.44l-2.79,4A2.56,2.56,0,0,1,219.56,178.1Z"/><path class="cls-10" d="M144.54,80.2a2.06,2.06,0,1,1-2.06-2.06A2.06,2.06,0,0,1,144.54,80.2Z"/><path class="cls-11" d="M132,145.66h24.15a1.79,1.79,0,0,1,1.79,1.79v.67a1.79,1.79,0,0,1-1.79,1.79H132a0,0,0,0,1,0,0v-4.24A0,0,0,0,1,132,145.66Z"/><path class="cls-12" d="M116.78,145.66h16a0,0,0,0,1,0,0v4.24a0,0,0,0,1,0,0h-16a1.65,1.65,0,0,1-1.65-1.65v-.93A1.65,1.65,0,0,1,116.78,145.66Z"/><path class="cls-11" d="M138.7,141.41h24.15a1.79,1.79,0,0,1,1.79,1.79v.67a1.79,1.79,0,0,1-1.79,1.79H138.7a0,0,0,0,1,0,0v-4.24A0,0,0,0,1,138.7,141.41Z"/><path class="cls-12" d="M123.5,141.41h16a0,0,0,0,1,0,0v4.24a0,0,0,0,1,0,0h-16a1.65,1.65,0,0,1-1.65-1.65v-.93A1.65,1.65,0,0,1,123.5,141.41Z"/><path class="cls-11" d="M132.26,137.3h24.15a1.79,1.79,0,0,1,1.79,1.79v.67a1.79,1.79,0,0,1-1.79,1.79H132.26a0,0,0,0,1,0,0V137.3A0,0,0,0,1,132.26,137.3Z"/><path class="cls-12" d="M117.06,137.3h16a0,0,0,0,1,0,0v4.24a0,0,0,0,1,0,0h-16a1.65,1.65,0,0,1-1.65-1.65V139A1.65,1.65,0,0,1,117.06,137.3Z"/><path class="cls-11" d="M130.56,132.93h24.15a1.79,1.79,0,0,1,1.79,1.79v.67a1.79,1.79,0,0,1-1.79,1.79H130.56a0,0,0,0,1,0,0v-4.24A0,0,0,0,1,130.56,132.93Z"/><path class="cls-12" d="M115.36,132.93h16a0,0,0,0,1,0,0v4.24a0,0,0,0,1,0,0h-16a1.65,1.65,0,0,1-1.65-1.65v-.93A1.65,1.65,0,0,1,115.36,132.93Z"/><path class="cls-11" d="M140.69,128.53h24.15a1.79,1.79,0,0,1,1.79,1.79V131a1.79,1.79,0,0,1-1.79,1.79H140.69a0,0,0,0,1,0,0v-4.24A0,0,0,0,1,140.69,128.53Z"/><path class="cls-12" d="M125.49,128.53h16a0,0,0,0,1,0,0v4.24a0,0,0,0,1,0,0h-16a1.65,1.65,0,0,1-1.65-1.65v-.93A1.65,1.65,0,0,1,125.49,128.53Z"/><path class="cls-11" d="M136.8,149.9H161a1.79,1.79,0,0,1,1.79,1.79v.67a1.79,1.79,0,0,1-1.79,1.79H136.8a0,0,0,0,1,0,0V149.9A0,0,0,0,1,136.8,149.9Z"/><path class="cls-12" d="M121.6,149.9h16a0,0,0,0,1,0,0v4.24a0,0,0,0,1,0,0h-16a1.65,1.65,0,0,1-1.65-1.65v-.93A1.65,1.65,0,0,1,121.6,149.9Z"/><path class="cls-11" d="M132.51,120.57h24.15a1.79,1.79,0,0,1,1.79,1.79V123a1.79,1.79,0,0,1-1.79,1.79H132.51a0,0,0,0,1,0,0v-4.24a0,0,0,0,1,0,0Z"/><path class="cls-12" d="M117.31,120.57h16a0,0,0,0,1,0,0v4.24a0,0,0,0,1,0,0h-16a1.65,1.65,0,0,1-1.65-1.65v-.93A1.65,1.65,0,0,1,117.31,120.57Z"/><path class="cls-11" d="M139.23,116.33h24.15a1.79,1.79,0,0,1,1.79,1.79v.67a1.79,1.79,0,0,1-1.79,1.79H139.23a0,0,0,0,1,0,0v-4.24A0,0,0,0,1,139.23,116.33Z"/><path class="cls-12" d="M124,116.33h16a0,0,0,0,1,0,0v4.24a0,0,0,0,1,0,0H124a1.65,1.65,0,0,1-1.65-1.65V118A1.65,1.65,0,0,1,124,116.33Z"/><path class="cls-11" d="M132.78,112.22h24.15a1.79,1.79,0,0,1,1.79,1.79v.67a1.79,1.79,0,0,1-1.79,1.79H132.78a0,0,0,0,1,0,0v-4.24a0,0,0,0,1,0,0Z"/><path class="cls-12" d="M117.58,112.22h16a0,0,0,0,1,0,0v4.24a0,0,0,0,1,0,0h-16a1.65,1.65,0,0,1-1.65-1.65v-.93A1.65,1.65,0,0,1,117.58,112.22Z"/><path class="cls-11" d="M131.08,107.84h24.15a1.79,1.79,0,0,1,1.79,1.79v.67a1.79,1.79,0,0,1-1.79,1.79H131.08a0,0,0,0,1,0,0v-4.24A0,0,0,0,1,131.08,107.84Z"/><path class="cls-12" d="M115.88,107.84h16a0,0,0,0,1,0,0v4.24a0,0,0,0,1,0,0h-16a1.65,1.65,0,0,1-1.65-1.65v-.93a1.65,1.65,0,0,1,1.65-1.65Z"/><path class="cls-11" d="M141.21,103.45h24.15a1.79,1.79,0,0,1,1.79,1.79v.67a1.79,1.79,0,0,1-1.79,1.79H141.21a0,0,0,0,1,0,0v-4.24A0,0,0,0,1,141.21,103.45Z"/><path class="cls-12" d="M126,103.45h16a0,0,0,0,1,0,0v4.24a0,0,0,0,1,0,0H126a1.65,1.65,0,0,1-1.65-1.65v-.93A1.65,1.65,0,0,1,126,103.45Z"/><path class="cls-11" d="M137.33,124.81h24.15a1.79,1.79,0,0,1,1.79,1.79v.67a1.79,1.79,0,0,1-1.79,1.79H137.33a0,0,0,0,1,0,0v-4.24A0,0,0,0,1,137.33,124.81Z"/><path class="cls-12" d="M122.12,124.81h16a0,0,0,0,1,0,0v4.24a0,0,0,0,1,0,0h-16a1.65,1.65,0,0,1-1.65-1.65v-.93A1.65,1.65,0,0,1,122.12,124.81Z"/><rect class="cls-13" x="167.19" y="116.96" width="10.36" height="21.98"/><path class="cls-14" d="M187.1,110c0,6-3.28,10.49-6.86,14.49-2.54,1.89-4.28,4.72-7.92,4.72s-5.74-3.4-8.27-5.22c-4.37-3.14-6.43-9.17-6.43-15.3,0-9.69,5-14.56,14.7-14.56S187.1,100.32,187.1,110Z"/><path class="cls-15" d="M176.06,99.63s-11.93,9.6-16.23,3.81c-.8,1.9-2.07,6.33-2.07,6.33a52.08,52.08,0,0,0,2.54,10C152,107,157.2,76.27,177.08,94.14c4.94-9.28,15.56,13.29,7.09,25.33,1.07-5.94,4-12.86,0-16.2C179.64,103.27,177.26,101.77,176.06,99.63Z"/><path class="cls-14" d="M159.05,112c.22,1.56,0,2.88-.56,3s-1.16-1.12-1.38-2.67,0-2.88.55-3S158.82,110.46,159.05,112Z"/><path class="cls-14" d="M187.05,112.3c-.25,1.53-.93,2.69-1.53,2.59s-.87-1.41-.62-2.94.93-2.68,1.52-2.59S187.29,110.78,187.05,112.3Z"/><path class="cls-16" d="M193.59,210.7H153.78L149,152.46c0-8.52,10-19.51,18.22-21.08,1,.33,5.73,2.17,10.35.16,2.36-.21,18.55,11.64,18.55,21Z"/><path class="cls-17" d="M162.23,133.3c-1.42,2.17-8.1,33.07-8.38,36.44,0,.68,8.44,8,11,9.88,1.92,1.4,13.89,8.77,12.68,11.08L173.69,198c-1.82,3.45-19.46-12.6-21.34-13.92-5.58-3.91-10.41-9.3-10.74-16.53a19.3,19.3,0,0,1,.73-5.64,55.54,55.54,0,0,1,6.92-15.44c2.43-4,4.44-8.62,8.36-11.45A10,10,0,0,1,162.23,133.3Z"/><path class="cls-17" d="M181.82,133.7c1.42,2.17,8.1,33.07,8.37,36.43.05.69-8.43,8.05-11,9.89-1.92,1.4-13.89,8.77-12.68,11.08,0,0,3.76,7.18,3.81,7.28,1.82,3.45,19.46-12.59,21.34-13.91,5.58-3.92,10.41-9.31,10.74-16.53a19.59,19.59,0,0,0-.73-5.64,55.6,55.6,0,0,0-6.92-15.45c-2.43-4-4.44-8.61-8.36-11.44A10,10,0,0,0,181.82,133.7Z"/><rect class="cls-18" x="147.97" y="166.28" width="53.75" height="40.3" rx="5.95"/><rect class="cls-14" x="199.49" y="217.16" width="7.82" height="12.6" transform="translate(-30.57 414.68) rotate(-86.95)"/><path class="cls-19" d="M121.26,195.7a.75.75,0,0,1,.07-.12c2.85-4.7,13-3.47,17.35-2.8a184.91,184.91,0,0,1,22.06,4.81c15,4.26,29.55,13.31,42.66,22,.35.23-.63,7-.86,7.78-18.58.93-40.17-7.35-57.7-12.94a63.94,63.94,0,0,1-14.73-6.3C127.77,206.63,118.44,201.27,121.26,195.7Z"/><path class="cls-20" d="M207.5,219.42l11.53-.54a5.08,5.08,0,0,1,5.3,5.15h0a5.08,5.08,0,0,1-5.44,5l-11.6-1a.53.53,0,0,1-.43-.45l.83-2.78a5,5,0,0,0,0-2.14l-.92-2.91C206.79,219.53,207.31,219.43,207.5,219.42Z"/><polyline class="cls-21" points="211.64 221.02 213.37 223.55 211.39 226.53"/><polyline class="cls-21" points="216.31 221.25 218.04 223.78 216.06 226.76"/><rect class="cls-14" x="136.19" y="219.55" width="12.6" height="7.82" transform="translate(-11.69 7.9) rotate(-3.05)"/><path class="cls-22" d="M224.62,195.7a.75.75,0,0,0-.07-.12c-2.85-4.7-13-3.47-17.35-2.8a184.91,184.91,0,0,0-22.06,4.81c-15,4.26-29.55,13.31-42.66,22-.35.23.63,7,.86,7.78,18.58.93,40.17-7.35,57.7-12.94a64.2,64.2,0,0,0,14.74-6.3C218.11,206.63,227.44,201.27,224.62,195.7Z"/><path class="cls-20" d="M138.38,219.42l-11.53-.54a5.08,5.08,0,0,0-5.3,5.15h0a5.08,5.08,0,0,0,5.44,5l11.6-1a.52.52,0,0,0,.43-.45l-.83-2.78a5,5,0,0,1,0-2.14l.92-2.91C139.09,219.53,138.57,219.43,138.38,219.42Z"/><polyline class="cls-21" points="134.24 221.02 132.51 223.55 134.49 226.53"/><polyline class="cls-21" points="129.57 221.25 127.84 223.78 129.82 226.76"/><path class="cls-10" d="M177.2,174.31a3.07,3.07,0,1,1-3.07-3.07A3.06,3.06,0,0,1,177.2,174.31Z"/></g></g></svg>