<?xml version="1.0" encoding="UTF-8"?><svg id="Layer_1" xmlns="http://www.w3.org/2000/svg" viewBox="0 0 150 150"><defs><style>.cls-1{fill:#4e4e4e;}.cls-2{fill:#73297c;}.cls-3{fill:#d3b0d3;}</style></defs><g id="_ะบบ_Portal"><circle class="cls-3" cx="75.04" cy="75" r="75"/><g><path class="cls-2" d="M51.91,70.92c.13-6.83,1.02-13.32,2.64-19.28l.04-.17-.17-.03c-4.11-.8-8.49-1.85-13.4-3.21l-.11-.03-.06,.09c-4.72,6.65-7.39,14.47-7.73,22.62v.17h18.78v-.16Z"/><path class="cls-2" d="M55.37,48.42l.14,.03,.04-.13c.84-2.54,1.81-4.91,2.89-7.06,1.93-3.84,4.17-6.95,6.66-9.22l.47-.43-.61,.15c-8.5,2.14-16.03,6.83-21.77,13.55l-.16,.19,.24,.07c4.4,1.19,8.36,2.12,12.11,2.85Z"/><path class="cls-2" d="M61.26,42.67c-.94,1.87-1.8,3.95-2.56,6.17l-.06,.18,.19,.03c5.14,.86,9.95,1.32,14.69,1.4h.16V30.97l-.19,.03c-4.59,.85-8.82,4.89-12.23,11.67Z"/><path class="cls-2" d="M91.66,48.99l.19-.03-.06-.18c-.75-2.2-1.61-4.26-2.54-6.11-3.41-6.79-7.64-10.83-12.23-11.67l-.19-.03v19.48h.16c4.68-.11,9.48-.58,14.67-1.45Z"/><path class="cls-2" d="M95.89,51.41l.05,.17c1.63,5.98,2.52,12.48,2.65,19.34v.16h18.79v-.17c-.34-8.15-3.02-15.98-7.75-22.63l-.06-.09-.11,.03c-4.93,1.33-9.31,2.37-13.4,3.17l-.17,.03Z"/><path class="cls-2" d="M92.07,41.26c1.07,2.13,2.04,4.49,2.87,7l.04,.13,.14-.03c3.73-.73,7.69-1.65,12.1-2.82l.25-.07-.16-.19c-5.73-6.71-13.25-11.39-21.75-13.53l-.61-.15,.47,.43c2.49,2.28,4.73,5.38,6.66,9.22Z"/><path class="cls-2" d="M58.44,104.04c-1.08-2.14-2.05-4.52-2.89-7.06l-.04-.13-.14,.03c-3.75,.73-7.71,1.66-12.11,2.85l-.24,.07,.16,.19c5.74,6.72,13.26,11.41,21.77,13.55l.61,.15-.47-.43c-2.49-2.28-4.73-5.38-6.66-9.22Z"/><path class="cls-2" d="M54.6,93.83l-.04-.17c-1.62-5.96-2.51-12.45-2.64-19.28v-.16h-18.79v.17c.34,8.15,3.01,15.97,7.73,22.62l.06,.09,.11-.03c4.91-1.35,9.29-2.4,13.4-3.21l.17-.03Z"/><path class="cls-2" d="M58.82,96.25l-.19,.03,.06,.18c.76,2.22,1.62,4.29,2.56,6.17,3.41,6.79,7.64,10.83,12.23,11.67l.19,.03v-19.48h-.16c-4.74,.08-9.55,.54-14.69,1.4Z"/><path class="cls-2" d="M95.44,70.91c-.13-6.69-1.02-13.01-2.62-18.79l-.04-.14-.14,.02c-5.53,.94-10.65,1.44-15.65,1.55h-.16v17.52h18.62v-.16Z"/><path class="cls-2" d="M57.85,52.06l-.14-.02-.04,.14c-1.6,5.77-2.47,12.07-2.61,18.74v.16h18.61v-17.52h-.16c-5.06-.08-10.18-.57-15.67-1.5Z"/><path class="cls-2" d="M55.06,74.39c.13,6.66,1.01,12.97,2.61,18.74l.04,.14,.14-.02c5.48-.93,10.61-1.41,15.67-1.5h.16v-17.52h-18.62v.16Z"/><path class="cls-2" d="M85.41,113.26l-.47,.43,.61-.15c1.44-.36,2.88-.81,4.29-1.34l-.88-3c-1.12,1.56-2.32,2.93-3.56,4.07Z"/><path class="cls-2" d="M98.59,74.38c-.06,3.14-.29,6.27-.68,9.31l15.86,6.07c2.17-4.87,3.38-10.04,3.6-15.37v-.17h-18.78v.16Z"/><path class="cls-2" d="M83.98,92.15l-2.47-8.42c-.39-1.35,0-2.78,1.03-3.73,.68-.63,1.56-.97,2.49-.97,.45,0,.89,.08,1.31,.24l8.52,3.26c.32-2.71,.52-5.44,.57-8.14v-.16h-18.61v17.52h.16c2.26,.05,4.61,.19,6.99,.41Z"/><path class="cls-2" d="M84.92,95.38c-2.74-.29-5.35-.47-7.93-.52h-.16v19.47l.19-.03c3.93-.73,7.66-3.86,10.79-9.07l-2.89-9.85Z"/><path class="cls-1" d="M122.5,114.35l-10.02-10.85,9.19-5.87c.46-.29,.71-.82,.66-1.36-.06-.54-.41-1-.92-1.2l-35.86-13.71c-.51-.19-1.09-.08-1.49,.29-.4,.37-.56,.94-.4,1.46l10.79,36.84c.15,.52,.58,.91,1.12,1.01,.53,.1,1.07-.11,1.4-.54l6.63-8.65,9.98,10.82c.3,.32,.7,.48,1.11,.46,.33-.01,.66-.14,.92-.38l6.81-6.28c.28-.26,.45-.62,.46-1,.02-.38-.12-.75-.38-1.03Zm-7.78,5.22l-10.17-11.02c-.28-.31-.69-.48-1.11-.46h-.02c-.42,.02-.82,.23-1.07,.56l-5.94,7.76-9.18-31.34,30.49,11.66-8.23,5.26c-.36,.23-.6,.6-.65,1.03-.05,.42,.08,.85,.37,1.16l10.21,11.06-4.7,4.33Z"/></g></g></svg>