<svg xmlns="http://www.w3.org/2000/svg" xmlns:xlink="http://www.w3.org/1999/xlink" viewBox="0 0 300 300"><defs><style>.cls-1,.cls-21,.cls-24,.cls-26{fill:none;}.cls-2{fill:url(#linear-gradient);}.cls-3{fill:url(#linear-gradient-2);}.cls-4{fill:#db1f26;}.cls-5{opacity:0.5;}.cls-6{fill:#010101;}.cls-7{fill:url(#linear-gradient-3);}.cls-8{fill:#d5d5eb;}.cls-9{fill:#fff;}.cls-10{fill:#663188;}.cls-11{fill:#f1606b;}.cls-12{fill:#f0eef7;}.cls-13{fill:#f26e6d;}.cls-14{fill:#f7a19f;}.cls-15{fill:#47b27c;}.cls-16{fill:#2e3690;}.cls-17{fill:#8557a3;}.cls-18{fill:#f8dfd2;}.cls-19{fill:#fbc4af;}.cls-20{fill:#f69b99;}.cls-21{stroke:#fbc4af;stroke-width:3.32px;}.cls-21,.cls-24,.cls-26{stroke-linecap:round;}.cls-21,.cls-26{stroke-miterlimit:10;}.cls-22{fill:#1b8a7f;}.cls-23{fill:#46b4ad;}.cls-24{stroke:#fff;stroke-linejoin:round;stroke-width:8.58px;}.cls-25{clip-path:url(#clip-path);}.cls-26{stroke:#f26e6d;stroke-width:5.94px;}.cls-27{fill:#f8b4b6;}</style><linearGradient id="linear-gradient" x1="1336.2" y1="-407.79" x2="1634.44" y2="-407.79" gradientTransform="translate(-257.67 -1335.34) rotate(90)" gradientUnits="userSpaceOnUse"><stop offset="0" stop-color="#fffffd"/><stop offset="1" stop-color="#e2e3e4"/></linearGradient><linearGradient id="linear-gradient-2" x1="1347.67" y1="-407.79" x2="1622.97" y2="-407.79" gradientTransform="translate(-257.67 -1335.34) rotate(90)" gradientUnits="userSpaceOnUse"><stop offset="0" stop-color="#4a90cd"/><stop offset="1" stop-color="#2055a6"/></linearGradient><linearGradient id="linear-gradient-3" x1="1375.19" y1="-407.78" x2="1595.43" y2="-407.78" gradientTransform="translate(-257.66 -1335.33) rotate(90)" xlink:href="#linear-gradient"/><clipPath id="clip-path"><rect class="cls-1" x="40" y="39.86" width="220.24" height="220.24" rx="110.12"/></clipPath></defs><g id="_25_registerform" data-name="25_registerform"><g id="Layer_88" data-name="Layer 88"><rect class="cls-2" x="1" y="0.86" width="298.25" height="298.25" rx="149.12"/><rect class="cls-3" x="12.47" y="12.33" width="275.3" height="275.3" rx="137.65"/><path class="cls-4" d="M35.11,150.78a115.85,115.85,0,1,0,231.69,0H35.11Z"/><g class="cls-5"><path class="cls-6" d="M150.12,288.37C73.81,288.37,11.73,226.29,11.73,150S73.81,11.59,150.12,11.59,288.51,73.68,288.51,150,226.43,288.37,150.12,288.37Zm0-275.3C74.62,13.07,13.2,74.49,13.2,150S74.62,286.9,150.12,286.9,287,225.48,287,150,225.61,13.07,150.12,13.07Z"/></g><rect class="cls-7" x="40" y="39.86" width="220.24" height="220.24" rx="110.12"/></g><g id="Layer_90" data-name="Layer 90"><path class="cls-8" d="M210.41,201.56H75.27a10.15,10.15,0,0,1-10.15-10.15V98.63H220.56v92.78A10.14,10.14,0,0,1,210.41,201.56Z"/><rect class="cls-9" x="106.4" y="172.68" width="75.82" height="16.83" rx="6.31" transform="translate(288.62 362.19) rotate(180)"/><rect class="cls-9" x="106.4" y="152.19" width="75.82" height="16.83" rx="6.31" transform="translate(288.62 321.21) rotate(180)"/><circle class="cls-10" cx="148.03" cy="181.1" r="2.36"/><circle class="cls-10" cx="139.83" cy="181.1" r="2.36"/><circle class="cls-10" cx="131.63" cy="181.1" r="2.36"/><circle class="cls-10" cx="123.42" cy="181.1" r="2.36"/><circle class="cls-10" cx="115.22" cy="181.1" r="2.36"/><rect class="cls-10" x="112.86" y="158.24" width="54.53" height="4.72" rx="2.36"/><path class="cls-11" d="M213.37,87h-141a7.19,7.19,0,0,0-7.2,7.19v4.46H220.56V94.2A7.19,7.19,0,0,0,213.37,87Z"/><circle class="cls-12" cx="212.01" cy="92.84" r="2.03"/><circle class="cls-12" cx="203.54" cy="92.84" r="2.03"/><circle class="cls-12" cx="195.08" cy="92.84" r="2.03"/><circle class="cls-12" cx="142.16" cy="124.6" r="19.46"/><circle class="cls-9" cx="142.16" cy="124.6" r="19.46"/><path class="cls-10" d="M142.16,144.06a19.43,19.43,0,0,0,16.24-8.75,18.45,18.45,0,0,0-32.49,0A19.45,19.45,0,0,0,142.16,144.06Z"/><circle class="cls-10" cx="142.16" cy="116.21" r="7.5"/><path class="cls-13" d="M89.73,121.52h0a7.09,7.09,0,0,0-7.11,4.56c-1.36,3.57-3,8.15-3.29,10.24,0,0-7.13,7-10,9.71l1.54,1.33s9.7-6.3,12.66-9.08S89.73,121.52,89.73,121.52Z"/><polygon class="cls-14" points="118.05 223.37 118.19 223.8 117.23 224.8 116.22 224.35 115.84 223.8 115.73 223.36 118.05 223.37"/><polygon class="cls-14" points="84 223.36 84.06 223.8 83.6 224.56 82.24 224.43 81.84 224.18 81.72 223.8 81.72 223.24 84 223.36"/><path class="cls-15" d="M97.07,150.76c-.34,0-.54-.89-.41-1.56a2.61,2.61,0,0,1,1.26-1.65,2.61,2.61,0,0,1,.25,1.5C98.05,149.91,97.45,150.82,97.07,150.76Z"/><path class="cls-15" d="M97,150.29c.1.33-.58.86-1.25,1a2.63,2.63,0,0,1-2-.46A2.56,2.56,0,0,1,95,150C95.85,149.75,96.93,149.92,97,150.29Z"/><path class="cls-15" d="M96.57,149.88c-.21.28-1,.05-1.57-.39a2.61,2.61,0,0,1-.83-1.9,2.65,2.65,0,0,1,1.43.5C96.29,148.61,96.8,149.57,96.57,149.88Z"/><path class="cls-16" d="M100.22,111.08h0a0,0,0,0,1,0,0v3.24a0,0,0,0,1,0,0h-2a0,0,0,0,1,0,0v-1.2A2,2,0,0,1,100.22,111.08Z" transform="translate(198.4 225.39) rotate(180)"/><path class="cls-17" d="M102.89,146.45s5.76,7.38,15.53,76.92H115.5l-23-64V146.45Z"/><path class="cls-17" d="M85.52,142.48s-7,5.47-6.93,20.16c0,6.58,3.13,60.6,3.13,60.6l2.28.12c4.06-20.57,7-40.78,10.33-61.7.48-.07,2.94-.24,3.36-.74.93-1.1,0-3,0-3.85.08-3.37.1-11.06-.11-13.89C94.92,143.4,88.05,142.73,85.52,142.48Z"/><path class="cls-10" d="M81.72,223.24s-3.11-54-3.13-60.6c0-14.69,6.93-20.16,6.93-20.16l1.79.2,1.64,1s-4.92,28.78-4.81,46c.07,9.56.06,22.83,0,32.73l-.18.91Z"/><path class="cls-18" d="M84.35,146.69a2,2,0,0,1-1.57-2.08A90.58,90.58,0,0,1,85,128c.62-2.68,1.33-5.19,2.09-7.53l9-2,6.94,2.71a112.29,112.29,0,0,1,.89,13.37,111.66,111.66,0,0,1-.6,12.24.83.83,0,0,1-.7.73,46.64,46.64,0,0,1-18.26-.8Z"/><path class="cls-19" d="M83.55,146.49a1.06,1.06,0,0,1-.8-1.07A90.89,90.89,0,0,1,85,128c.62-2.68,1.09-5.23,1.85-7.57,1.92-.43,4.07-.81,6-1.23a3,3,0,0,1,2,1.09,3.38,3.38,0,0,1,.17,2.7c-.65,2.38-2.39,11.73-4.75,24.81A47,47,0,0,1,83.55,146.49Z"/><polygon class="cls-20" points="99.03 114.06 98.23 120.69 93.95 120.19 94.85 113.23 99.03 114.06"/><path class="cls-13" d="M94.85,113.24l4.18.82,0,.38c-.44,1.81-2.25,3.48-4,3.11a2.31,2.31,0,0,1-.69-.27Z"/><path class="cls-20" d="M95.36,109.12a4,4,0,0,0-1.75,2.17c-.55,1.84.34,4.48,2.21,4.88s3.68-1.44,4-3.33c.3-1.67-.55-3.74-2.07-4.19A3.19,3.19,0,0,0,95.36,109.12Z"/><path class="cls-16" d="M93.63,107.4c-.44.85,1.42,2.54,1.6,2.7,1.59,1.42,4.18,2.32,4.93,1.49.55-.62,0-2.09-.63-3C97.9,106.51,94.15,106.41,93.63,107.4Z"/><path class="cls-20" d="M100.35,112.68a.89.89,0,1,0-1.74-.33.88.88,0,0,0,.7,1A.89.89,0,0,0,100.35,112.68Z"/><path class="cls-9" d="M94.25,114.57c0,.16.26.39.51.46a1.17,1.17,0,0,0,1.29-.7C94.65,114.27,94.28,114.41,94.25,114.57Z"/><path class="cls-13" d="M70.84,147.36l-1,1a3.23,3.23,0,0,1-.72,1.24,2.5,2.5,0,0,1-2.07,1c-.7-.13-1.35-.8-1.24-1.17a.42.42,0,0,1,.27-.25L69.3,146Z"/><path class="cls-20" d="M92.28,119.27l3.8-.83,4.13,1.61a6,6,0,0,1-3.14,1.36A5.32,5.32,0,0,1,92.28,119.27Z"/><path class="cls-20" d="M107.13,128.65a34,34,0,0,0,2.5-3.16,14.42,14.42,0,0,1,4.06,4.79c.74,1.65,0,3.67-1.37,5.75a15.43,15.43,0,0,1-5.43-1.1,14.35,14.35,0,0,1,1.58-1.57s-1.46-1.19-3.2-2.79A24.54,24.54,0,0,0,107.13,128.65Z"/><path class="cls-16" d="M84.06,223.8a1.5,1.5,0,0,1,0,2.21H79.17V223.8h2.55A2.47,2.47,0,0,0,84.06,223.8Z"/><path class="cls-16" d="M81.08,226H77.27v-.31a1.9,1.9,0,0,1,1.9-1.9h0a1.9,1.9,0,0,1,1.91,1.9Z"/><rect class="cls-18" x="77.1" y="226.01" width="7.16" height="0.36" transform="translate(161.36 452.38) rotate(180)"/><path class="cls-16" d="M115.84,223.8a1.5,1.5,0,0,0,0,2.21h5.78l-.21-2.21h-3.22A2.49,2.49,0,0,1,115.84,223.8Z"/><rect class="cls-18" x="115.64" y="226.01" width="7.89" height="0.36"/><path class="cls-16" d="M121.41,223.8a1.91,1.91,0,0,1,1.91,1.9V226h-1.91Z"/><path class="cls-19" d="M86.87,120.38h0a6,6,0,0,0-4.64,4.67l-.74,3.76,4.81.16Z"/><path class="cls-13" d="M68.43,146.89a5.9,5.9,0,0,0-1.15.12c-.14.1-.66,1-.36,1.47s.77-.91.77-.91Z"/><path class="cls-18" d="M105.27,130.57c-2.26-2.07-5-4.83-5.54-6.55-1-3,1.17-3.64,1.17-3.64a20.22,20.22,0,0,1,8.73,5.11,34,34,0,0,1-2.5,3.16A24.54,24.54,0,0,1,105.27,130.57Z"/><polygon class="cls-19" points="109.9 125.36 105.36 130.92 104.55 130.08 109.31 124.76 109.9 125.36"/><polygon class="cls-19" points="85.83 128.36 81.16 128.2 81.16 129.17 85.7 129.27 85.83 128.36"/><path class="cls-21" d="M100.21,120.05s-4.19,3.68-7.93-.78"/><path class="cls-22" d="M99.72,134.45a61.22,61.22,0,0,1-21-4.56,61.31,61.31,0,0,1-21.13,3.69c-.46,2.82-2.17,15.28,5.9,26.67A35.35,35.35,0,0,0,77.92,172a35.27,35.27,0,0,0,14.86-11.1c8.54-11,7.35-23.57,7-26.4"/><path class="cls-23" d="M96,134.19a61.07,61.07,0,0,1-17.23-4.3,61.31,61.31,0,0,1-21.13,3.69c-.46,2.82-2.17,15.28,5.9,26.67A35,35,0,0,0,74,169.89,35.33,35.33,0,0,0,88.81,158.8C96.12,149.34,96.29,138.8,96,134.19Z"/><polyline class="cls-24" points="70.61 146.4 78.38 154.5 86.58 146.63"/><path class="cls-20" d="M102.42,145.53c-.56.43-1.06.79-1.46,1.08l-.2.14-.88.61-.13-.78L99.48,145s2.78-4.25,5.46-7.73l.19-.24.74-.93c.47-.57.92-1.1,1.35-1.56,1.07.18,2.18.48,3.3.78.66.18,1.28.38,1.86.59-2.11,3.15-5.9,6.44-8.75,8.67Z"/><path class="cls-20" d="M98.58,145.81c-1.84,0-2.27.24-2.3.43s.64.79,1.35.63A1.26,1.26,0,0,0,98.58,145.81Z"/><path class="cls-20" d="M100.79,146.73l-.91.63a3.23,3.23,0,0,1-.79,1.2,2.49,2.49,0,0,1-2.11.85c-.69-.18-1.31-.88-1.18-1.24a.47.47,0,0,1,.29-.24l3.88-3.65Z"/></g><g id="Layer_92" data-name="Layer 92"><g class="cls-25"><path class="cls-20" d="M209.13,191.79h0c-11.89-3.3-21.41,3.88-24.71,15.77l-12.53,57.49,45.72.06,3.68-45.41C224.59,207.8,221,195.09,209.13,191.79Z"/><path class="cls-20" d="M200.2,234.59h0a18.16,18.16,0,0,1-18.27-18.05l-.24-43.43,62.65-.35.1,17.09A44.49,44.49,0,0,1,200.2,234.59Z"/><rect class="cls-13" x="245.34" y="128.21" width="13.18" height="15.74" rx="6.59" transform="translate(289.15 -147.82) rotate(69.09)"/><rect class="cls-10" x="197.7" y="98.59" width="54.05" height="96.7" rx="21.8"/><rect class="cls-17" x="195.25" y="98.59" width="54.05" height="96.7" rx="21.8"/><rect class="cls-8" x="197.38" y="107.25" width="49.78" height="79.38"/><path class="cls-8" d="M223.81,103.32a1.55,1.55,0,1,0-1.55,1.55A1.55,1.55,0,0,0,223.81,103.32Z"/><circle class="cls-10" cx="222.26" cy="191.18" r="2.99"/><path class="cls-17" d="M250.77,118.69h0v-7.16h0a1.15,1.15,0,0,1,1.16,1.15v4.86A1.16,1.16,0,0,1,250.77,118.69Z"/><path class="cls-17" d="M250.77,128h0v-7.17h0a1.16,1.16,0,0,1,1.16,1.15v4.86A1.16,1.16,0,0,1,250.77,128Z"/><rect class="cls-12" x="204.18" y="151.82" width="36.19" height="8.03" rx="3.25" transform="translate(444.55 311.67) rotate(180)"/><rect class="cls-12" x="204.18" y="142.04" width="36.19" height="8.03" rx="3.25" transform="translate(444.55 292.11) rotate(-180)"/><circle class="cls-10" cx="224.05" cy="155.83" r="1.13"/><circle class="cls-10" cx="220.13" cy="155.83" r="1.13"/><circle class="cls-10" cx="216.22" cy="155.83" r="1.13"/><circle class="cls-10" cx="212.3" cy="155.83" r="1.13"/><path class="cls-10" d="M209.52,155.83a1.13,1.13,0,1,0-1.13,1.13A1.13,1.13,0,0,0,209.52,155.83Z"/><rect class="cls-10" x="207.26" y="144.93" width="26.03" height="2.25" rx="1.13"/><rect class="cls-20" x="241.93" y="174.78" width="13.18" height="13.62" rx="6.59" transform="translate(428.7 -67.96) rotate(89.67)"/><rect class="cls-20" x="242.07" y="161.84" width="13.18" height="13.18" rx="6.59" transform="translate(415.68 -81.18) rotate(89.67)"/><path class="cls-20" d="M199.41,130.56h0l-8.5,9.66-5.43,6.2A17.64,17.64,0,0,0,181.1,158v21.12H195l0-21.44a2.84,2.84,0,0,1,.71-1.89l4.94-5.59A13.92,13.92,0,0,0,199.41,130.56Z"/><path class="cls-20" d="M181.08,168h0a26.57,26.57,0,0,1,26.57,26.57v6.95a21.39,21.39,0,0,1-21.39,21.39h-5.18a0,0,0,0,1,0,0V168a0,0,0,0,1,0,0Z"/><path class="cls-26" d="M207.66,195.47v4.83a21.26,21.26,0,0,1-3.24,11l-3.18,4.94"/><path class="cls-27" d="M247.87,163.93a4.51,4.51,0,0,0,0,9Z"/><path class="cls-20" d="M255.26,155.49v-1.36c0-3.26-2.31-5.9-5.12-5.88H249c-2.81,0-5.08,2.68-5.06,6v1.35c0,3.27,2.3,5.9,5.11,5.88h1.17C253,161.42,255.27,158.75,255.26,155.49Z"/><path class="cls-27" d="M248.9,150.34c-2.14,0-3.87,2-3.87,4.51s1.73,4.5,3.87,4.5Z"/><path class="cls-27" d="M247.87,177.09a4.51,4.51,0,0,0,0,9Z"/><polygon class="cls-27" points="199.4 130.56 196.17 138.19 192.68 138.19 199.4 130.56"/><circle class="cls-12" cx="222.27" cy="125.76" r="12.79"/><circle class="cls-9" cx="222.27" cy="125.76" r="12.79"/><path class="cls-10" d="M222.27,138.55A12.8,12.8,0,0,0,233,132.8a12.13,12.13,0,0,0-21.35,0A12.78,12.78,0,0,0,222.27,138.55Z"/><circle class="cls-10" cx="222.27" cy="120.25" r="4.93" transform="translate(-16.39 37.16) rotate(-9.22)"/><path class="cls-11" d="M233.62,163.93H210.9a4,4,0,0,0-4,4h0a4,4,0,0,0,4,4h22.72a4,4,0,0,0,4-4h0A4,4,0,0,0,233.62,163.93Z"/><path class="cls-12" d="M212.35,165.72a1.59,1.59,0,0,1,1.16.49l-.56.53a1,1,0,0,0-.84-.23.42.42,0,0,0-.26.16.48.48,0,0,0-.07.26.33.33,0,0,0,.21.29,4.07,4.07,0,0,0,.54.14,1.39,1.39,0,0,1,.71.35,1.13,1.13,0,0,1,.25,1v0a1.28,1.28,0,0,1-1.32.93,1.72,1.72,0,0,1-1.38-.85l.67-.38a1,1,0,0,0,.75.46.46.46,0,0,0,.46-.17.44.44,0,0,0,0-.43.46.46,0,0,0-.34-.18,3.33,3.33,0,0,1-.67-.19,1.11,1.11,0,0,1-.62-.68h0v0a1.32,1.32,0,0,1,.16-1,1.19,1.19,0,0,1,.72-.47,1.51,1.51,0,0,1,.42-.05Z"/><path class="cls-12" d="M215,165.72v3.94h-.77v-3.94Z"/><path class="cls-12" d="M217.64,165.72a1.79,1.79,0,0,1,1.3.58l-.53.56a1,1,0,0,0-.77-.37,1.21,1.21,0,0,0,0,2.41,1,1,0,0,0,.9-.56h-.91v-.83h1.74v.83a1.85,1.85,0,0,1-1.73,1.32,2,2,0,0,1,0-3.94Z"/><path class="cls-12" d="M222.15,167.78v-2.06h.77v3.94l-2-2.06v2.06h-.76v-3.94Z"/><path class="cls-12" d="M228,165.72v2.34c0,.64.36.84.72.84s.72-.2.72-.84v-2.34h.77v2.34a1.49,1.49,0,1,1-3,0v-2.34Z"/><path class="cls-12" d="M231,165.72h1.31a1.37,1.37,0,0,1,1.07.48,1.62,1.62,0,0,1,0,2,1.4,1.4,0,0,1-1.07.48h-.55v1H231Zm.76,2.2h.55a.58.58,0,0,0,.49-.21.82.82,0,0,0,.17-.51.87.87,0,0,0-.17-.51.61.61,0,0,0-.49-.2h-.55Z"/></g></g></g></svg>