<svg xmlns="http://www.w3.org/2000/svg" xmlns:xlink="http://www.w3.org/1999/xlink" viewBox="0 0 300 300"><defs><style>.cls-1{fill:url(#linear-gradient);}.cls-2{fill:url(#linear-gradient-2);}.cls-3{fill:#db1f26;}.cls-4{opacity:0.5;}.cls-5{fill:#010101;}.cls-6{fill:url(#linear-gradient-3);}.cls-27,.cls-7{fill:#4f3156;}.cls-16,.cls-17,.cls-18,.cls-19,.cls-20,.cls-21,.cls-22,.cls-26,.cls-7,.cls-8{fill-rule:evenodd;}.cls-12,.cls-19,.cls-22,.cls-28,.cls-31,.cls-8{fill:#fff;}.cls-28,.cls-8{opacity:0.1;}.cls-9{fill:#353251;}.cls-10,.cls-26{fill:#fecd82;}.cls-11{fill:#212121;}.cls-12{opacity:0.4;}.cls-13{fill:#e8d1a8;}.cls-14{fill:#101013;}.cls-15{fill:#b6e4fa;}.cls-15,.cls-25{opacity:0.3;}.cls-16{fill:#f4f4f4;}.cls-17{fill:#ddd;}.cls-18,.cls-24{fill:#eb7260;}.cls-20{fill:#ef3f3d;}.cls-21{fill:#a11e21;}.cls-22{opacity:0.2;}.cls-23{fill:#f3f3f3;}.cls-25{fill:#1e1330;}.cls-29{fill:#7fcbc3;}.cls-30{fill:#4eb8ae;}.cls-32{fill:#fce9b3;}.cls-33{fill:#f48166;}.cls-34{fill:#ffd79d;}</style><linearGradient id="linear-gradient" x1="376.2" y1="-87.51" x2="674.44" y2="-87.51" gradientTransform="translate(62.33 -375.34) rotate(90)" gradientUnits="userSpaceOnUse"><stop offset="0" stop-color="#fffffd"/><stop offset="1" stop-color="#e2e3e4"/></linearGradient><linearGradient id="linear-gradient-2" x1="387.67" y1="-87.51" x2="662.97" y2="-87.51" gradientTransform="translate(62.33 -375.34) rotate(90)" gradientUnits="userSpaceOnUse"><stop offset="0" stop-color="#4a90cd"/><stop offset="1" stop-color="#2055a6"/></linearGradient><linearGradient id="linear-gradient-3" x1="415.19" y1="-87.5" x2="635.43" y2="-87.5" gradientTransform="translate(62.34 -375.33) rotate(90)" xlink:href="#linear-gradient"/></defs><g id="_18_room-secu" data-name="18_room-secu"><g id="Layer_66" data-name="Layer 66"><rect class="cls-1" x="0.72" y="0.86" width="298.25" height="298.25" rx="149.12"/><rect class="cls-2" x="12.19" y="12.33" width="275.3" height="275.3" rx="137.65"/><path class="cls-3" d="M34.83,150.78a115.85,115.85,0,1,0,231.69,0H34.83Z"/><g class="cls-4"><path class="cls-5" d="M149.84,288.37C73.53,288.37,11.45,226.29,11.45,150S73.53,11.59,149.84,11.59,288.23,73.68,288.23,150,226.15,288.37,149.84,288.37Zm0-275.3C74.34,13.07,12.92,74.49,12.92,150S74.34,286.9,149.84,286.9,286.75,225.48,286.75,150,225.33,13.07,149.84,13.07Z"/></g><rect class="cls-6" x="39.72" y="39.86" width="220.24" height="220.24" rx="110.12"/></g><g id="Layer_67" data-name="Layer 67"><path class="cls-7" d="M152.93,188.55c0-3,.17-60.83.17-60.83a4,4,0,0,0-3.95-4H114a4,4,0,0,0-4,4v20.79l8,10.79,0,29.25Z"/><path class="cls-8" d="M131.61,188.57V123.79H114a4,4,0,0,0-4,3.95v20.79l8,7.63v32.41Z"/><path class="cls-9" d="M125.07,98.83a2.43,2.43,0,0,1-2.43,2.43h0a2.43,2.43,0,0,1-2.43-2.43V94a2.43,2.43,0,0,1,2.43-2.44h0A2.43,2.43,0,0,1,125.07,94Z"/><rect class="cls-10" x="125.97" y="118.52" width="10.48" height="6.97"/><path class="cls-10" d="M140.5,113.44a9.1,9.1,0,0,1-9.1,9.11h0a9.11,9.11,0,0,1-9.11-9.11V99.87a9.1,9.1,0,0,1,9.11-9.1h0a9.09,9.09,0,0,1,9.1,9.1Z"/><rect class="cls-9" x="134.05" y="99.02" width="3.99" height="1.47"/><path class="cls-11" d="M136.42,103.62a.65.65,0,0,1-.65.65.65.65,0,0,1,0-1.3A.66.66,0,0,1,136.42,103.62Z"/><path class="cls-9" d="M140.5,92.18a4.41,4.41,0,0,1-4.41,4.42H125.66a4.41,4.41,0,0,1-4.41-4.42v-5h14.84a4.41,4.41,0,0,1,4.41,4.42Z"/><path class="cls-9" d="M143.14,98.58a2.43,2.43,0,0,1-2.43,2.43h0a2.43,2.43,0,0,1-2.44-2.43V93.7a2.43,2.43,0,0,1,2.44-2.43h0a2.43,2.43,0,0,1,2.43,2.43Z"/><path class="cls-10" d="M143.68,103.09a2.07,2.07,0,1,1-2.07-2.08A2.07,2.07,0,0,1,143.68,103.09Z"/><path class="cls-12" d="M142.8,103.08a1.19,1.19,0,1,1-1.19-1.19A1.19,1.19,0,0,1,142.8,103.08Z"/><path class="cls-12" d="M129.12,99h-4.55a2.28,2.28,0,0,0-2.28,2.28v12.14a9.11,9.11,0,0,0,9.11,9.11V101.3A2.28,2.28,0,0,0,129.12,99Z"/><path class="cls-10" d="M131.4,101.55l-3.19,9.86a.65.65,0,0,0,.62.85h3.11Z"/><path class="cls-9" d="M131.42,116.06a5.86,5.86,0,0,1,3.24.9l-.29.41a6,6,0,0,0-6.16,0l-.23-.44A7.51,7.51,0,0,1,131.42,116.06Z"/><path class="cls-10" d="M133.85,120.12a2.42,2.42,0,1,1-2.42-2.42A2.42,2.42,0,0,1,133.85,120.12Z"/><path class="cls-10" d="M122.91,103.09a2.07,2.07,0,1,1-2.07-2.08A2.07,2.07,0,0,1,122.91,103.09Z"/><path class="cls-12" d="M122.91,103.09a2.07,2.07,0,1,1-2.07-2.08A2.07,2.07,0,0,1,122.91,103.09Z"/><path class="cls-13" d="M122,103.08a1.19,1.19,0,1,1-1.19-1.19A1.19,1.19,0,0,1,122,103.08Z"/><rect class="cls-9" x="124.6" y="99.02" width="3.99" height="1.47"/><path class="cls-11" d="M127.71,103.59a.64.64,0,0,1-.64.65.65.65,0,1,1,0-1.3A.64.64,0,0,1,127.71,103.59Z"/><rect class="cls-14" x="145.61" y="149.44" width="0.55" height="47.03"/><rect class="cls-15" x="132.87" y="101.27" width="5.74" height="3.76"/><polygon class="cls-12" points="138.66 105.01 138.66 101.26 132.92 101.26 138.66 105.01"/><path class="cls-9" d="M132.49,100.78h6.6v4.7h-6.6Zm6,.59h-5.42v3.52h5.42Z"/><rect class="cls-15" x="123.75" y="101.27" width="5.73" height="3.76"/><polygon class="cls-12" points="129.53 105.01 129.53 101.26 123.79 101.26 129.53 105.01"/><path class="cls-9" d="M123.36,100.78H130v4.7h-6.59Zm6,.59h-5.43v3.52h5.43Z"/><rect class="cls-9" x="129.76" y="102.19" width="2.86" height="0.65"/><polygon class="cls-16" points="119.76 123.77 131.32 150.21 142.85 123.77 119.76 123.77"/><polygon class="cls-17" points="139.26 132.01 130.09 123.77 142.85 123.77 139.26 132.01"/><polygon class="cls-17" points="123.36 132.01 132.55 123.77 119.76 123.77 123.36 132.01"/><polygon class="cls-18" points="134.08 131.06 128.35 131.06 127.56 123.77 134.88 123.77 134.08 131.06"/><polygon class="cls-19" points="122.98 131.14 131.18 123.77 119.76 123.77 122.98 131.14"/><polygon class="cls-20" points="131.34 150.15 134.7 142.37 134.08 131.05 131.34 131.05 131.34 150.15"/><polygon class="cls-21" points="134.12 131.76 128.32 131.74 128.35 131.06 134.06 131.06 134.12 131.76"/><polygon class="cls-22" points="131.21 123.77 131.21 131.06 128.36 131.06 127.56 123.77 131.21 123.77"/><polygon class="cls-19" points="139.65 131.14 131.44 123.77 142.85 123.77 139.65 131.14"/><polygon class="cls-18" points="131.32 150.21 127.74 142.02 128.35 131.06 134.08 131.06 134.7 142.37 131.32 150.21"/><polygon class="cls-22" points="131.32 131.13 128.35 131.13 127.74 142.09 131.32 150.28 131.32 150.27 131.32 131.13"/><rect class="cls-23" x="109.32" y="146.21" width="84.92" height="54.93"/><rect class="cls-24" x="109.32" y="144.48" width="84.92" height="2.23"/><rect class="cls-24" x="109.32" y="200.39" width="84.92" height="2.23"/><rect class="cls-25" x="119.93" y="154.12" width="0.43" height="42.24"/><rect class="cls-25" x="135.38" y="154.12" width="0.43" height="42.24"/><rect class="cls-25" x="150.82" y="154.12" width="0.44" height="42.24"/><rect class="cls-25" x="127.65" y="154.12" width="0.43" height="42.24"/><rect class="cls-25" x="143.1" y="154.12" width="0.44" height="42.24"/><rect class="cls-25" x="158.55" y="154.12" width="0.44" height="42.24"/><rect class="cls-25" x="174" y="154.12" width="0.43" height="42.24"/><rect class="cls-25" x="166.28" y="154.12" width="0.43" height="42.24"/><rect class="cls-25" x="181.73" y="154.12" width="0.42" height="42.24"/><rect class="cls-25" x="115.15" y="190.64" width="73.54" height="0.43"/><rect class="cls-25" x="115.15" y="175.19" width="73.54" height="0.44"/><rect class="cls-25" x="115.15" y="159.73" width="73.54" height="0.44"/><rect class="cls-25" x="115.15" y="167.46" width="73.54" height="0.44"/><rect class="cls-25" x="115.15" y="182.91" width="73.54" height="0.44"/><path class="cls-26" d="M123.75,172a2.84,2.84,0,0,1,.91,3.94l-1.22,2a2.83,2.83,0,0,1-3.92,1L111.58,174a2.85,2.85,0,0,1-.91-3.93l1.22-2a2.85,2.85,0,0,1,3.92-1Z"/><path class="cls-10" d="M124.37,172.29a.84.84,0,0,0-1.14.28h0a.84.84,0,0,0,.27,1.14l7.87,4.8a.83.83,0,0,0,1.14-.27h0a.83.83,0,0,0-.27-1.14Z"/><path class="cls-10" d="M120.28,172.51a.83.83,0,0,0-1.14.28h0a.82.82,0,0,0,.27,1.13l7.87,4.81a.83.83,0,0,0,1.14-.27h0a.82.82,0,0,0-.28-1.14Z"/><path class="cls-10" d="M119.14,174.23a.82.82,0,0,0-1.14.28h0a.84.84,0,0,0,.27,1.14l7.87,4.8a.83.83,0,0,0,1.14-.27h0A.82.82,0,0,0,127,179Z"/><path class="cls-10" d="M117,175.36a.82.82,0,0,0-1.14.28h0a.83.83,0,0,0,.27,1.14l7.87,4.8a.83.83,0,0,0,1.14-.27h0a.84.84,0,0,0-.28-1.14Z"/><path class="cls-10" d="M119.18,168.87a.82.82,0,0,0-1,.54h0a.83.83,0,0,0,.53,1l8.8,2.79a.82.82,0,0,0,1-.54h0a.82.82,0,0,0-.54-1Z"/><path class="cls-27" d="M112.48,124l5.55,8.55a20.37,20.37,0,0,0,.78,36l-4.58,7.26a31.76,31.76,0,0,1-13-13.4c-3.4-7-5-15-2.48-22.34A28.75,28.75,0,0,1,112.48,124Z"/><path class="cls-28" d="M112.48,124l5.55,8.55a20.37,20.37,0,0,0,.78,36l-4.58,7.26a31.76,31.76,0,0,1-13-13.4c-3.4-7-5-15-2.48-22.34A28.75,28.75,0,0,1,112.48,124Z"/><rect class="cls-23" x="92.89" y="97.23" width="21.13" height="14.03"/><polygon class="cls-23" points="107.72 110.98 114.83 116.09 111.61 110.98 107.72 110.98"/><rect class="cls-9" x="96.04" y="100.36" width="14.67" height="0.5"/><rect class="cls-9" x="96.04" y="103.83" width="14.67" height="0.5"/><rect class="cls-9" x="96.04" y="107.3" width="14.67" height="0.5"/><polygon class="cls-24" points="120.58 160.04 119.87 160.76 130.17 170.97 147.54 166.98 158.24 178.03 176.01 175.44 187.19 188.14 187.95 187.47 176.41 174.36 158.61 176.96 147.87 165.87 130.49 169.86 120.58 160.04"/><path class="cls-27" d="M178.25,174.84a2.2,2.2,0,1,0-2.19,2.2A2.2,2.2,0,0,0,178.25,174.84Z"/><path class="cls-27" d="M149.91,166.76a2.2,2.2,0,1,0-2.2,2.2A2.2,2.2,0,0,0,149.91,166.76Z"/><path class="cls-29" d="M132.5,170.47a2.2,2.2,0,1,0-2.2,2.2A2.2,2.2,0,0,0,132.5,170.47Z"/><path class="cls-27" d="M122.35,160a2.2,2.2,0,1,0-2.2,2.2A2.19,2.19,0,0,0,122.35,160Z"/><path class="cls-29" d="M161.58,177.47a3.11,3.11,0,1,0-3.11,3.11A3.11,3.11,0,0,0,161.58,177.47Z"/><polygon class="cls-24" points="187.55 183.61 187.15 187.39 183.08 187.54 183.12 188.55 188.07 188.37 188.55 183.72 187.55 183.61"/><path class="cls-27" d="M64,148.52a14,14,0,0,1,28,0h.57a14.58,14.58,0,0,0-20.26-13.43,14.27,14.27,0,0,0-4.63,3.12,14.56,14.56,0,0,0-4.28,10.31Z"/><rect class="cls-30" x="54.19" y="167.39" width="18.29" height="7.8"/><path class="cls-31" d="M71.84,174.67h-17v-6.76h17ZM55,174.46H71.63v-6.33H55Z"/><path class="cls-31" d="M64.87,171.29c0,1.32-.69,2.39-1.53,2.39s-1.53-1.07-1.53-2.39.68-2.38,1.53-2.38S64.87,170,64.87,171.29Z"/><rect class="cls-29" x="55.72" y="165.01" width="18.29" height="7.8"/><path class="cls-31" d="M73.37,172.29h-17v-6.76h17Zm-16.8-.21H73.16v-6.34H56.57Z"/><path class="cls-31" d="M66.4,168.91c0,1.32-.69,2.38-1.53,2.38s-1.53-1.06-1.53-2.38.68-2.38,1.53-2.38S66.4,167.6,66.4,168.91Z"/><path class="cls-24" d="M93.48,148.52a1.23,1.23,0,1,0-1.22,1.23A1.22,1.22,0,0,0,93.48,148.52Z"/><rect class="cls-24" x="207.99" y="113.06" width="12.2" height="17.42" rx="1.01"/><path class="cls-19" d="M219.36,116.18a.91.91,0,0,1-.91.91H209.7a.91.91,0,0,1-.91-.91v-1.3a.91.91,0,0,1,.91-.91h8.75a.91.91,0,0,1,.91.91Z"/><rect class="cls-31" x="209.1" y="118.9" width="3.06" height="2" rx="0.47"/><rect class="cls-31" x="212.55" y="118.9" width="3.06" height="2" rx="0.47"/><path class="cls-7" d="M219.07,120.43a.47.47,0,0,1-.47.47h-2.12a.47.47,0,0,1-.47-.47v-1.06a.47.47,0,0,1,.47-.47h2.12a.47.47,0,0,1,.47.47Z"/><rect class="cls-31" x="209.1" y="121.55" width="3.06" height="2" rx="0.47"/><rect class="cls-31" x="212.55" y="121.55" width="3.06" height="2" rx="0.47"/><rect class="cls-31" x="216.01" y="121.55" width="3.06" height="2" rx="0.47"/><path class="cls-19" d="M212.16,125.72a.47.47,0,0,1-.47.47h-2.12a.47.47,0,0,1-.47-.47v-1.06a.47.47,0,0,1,.47-.47h2.12a.47.47,0,0,1,.47.47Z"/><rect class="cls-31" x="212.55" y="124.19" width="3.06" height="2" rx="0.47"/><rect class="cls-31" x="216.01" y="124.19" width="3.06" height="2" rx="0.47"/><rect class="cls-31" x="209.1" y="126.84" width="3.06" height="2" rx="0.47"/><rect class="cls-31" x="212.55" y="126.84" width="3.06" height="2" rx="0.47"/><rect class="cls-31" x="216.01" y="126.84" width="3.06" height="2" rx="0.47"/><rect class="cls-30" x="86.83" y="166.4" width="4.92" height="0.72" transform="translate(-91.76 111.98) rotate(-45)"/><rect class="cls-30" x="86.83" y="166.4" width="4.92" height="0.72" transform="translate(34.51 347.81) rotate(-135)"/><rect class="cls-30" x="228.02" y="132" width="4.92" height="0.72" transform="translate(-26.09 201.74) rotate(-45)"/><rect class="cls-30" x="228.02" y="132" width="4.92" height="0.72" transform="translate(299.86 388.92) rotate(-135)"/><polygon class="cls-30" points="156.12 104.31 155.59 103.78 153.91 105.45 152.23 103.78 151.69 104.31 153.9 106.53 153.91 106.52 153.91 106.52 156.12 104.31"/><polygon class="cls-30" points="75.31 120.46 74.77 119.93 73.1 121.61 71.42 119.92 70.88 120.46 73.09 122.68 73.1 122.67 73.1 122.67 75.31 120.46"/><polygon class="cls-27" points="65.2 147.64 64.84 147.29 63.74 148.39 62.63 147.28 62.28 147.64 63.74 149.1 63.74 149.1 63.74 149.1 65.2 147.64"/><polygon class="cls-27" points="204.06 125.36 203.71 125.01 202.6 126.11 201.49 125.01 201.14 125.36 202.6 126.82 202.6 126.82 202.6 126.82 204.06 125.36"/><path class="cls-27" d="M204,167.82a1.29,1.29,0,1,1,1.29-1.29A1.29,1.29,0,0,1,204,167.82Zm0-2.14a.85.85,0,1,0,.85.85A.85.85,0,0,0,204,165.68Z"/><path class="cls-27" d="M208.13,170a1.29,1.29,0,1,1,1.29-1.29A1.29,1.29,0,0,1,208.13,170Zm0-2.14a.85.85,0,0,0,0,1.7.85.85,0,1,0,0-1.7Z"/><rect class="cls-27" x="205.78" y="165.05" width="0.45" height="5.25" transform="translate(100.33 -76.02) rotate(27.41)"/><path class="cls-27" d="M86.69,146.44a9.23,9.23,0,1,1-11.6-6A9.24,9.24,0,0,1,86.69,146.44Z"/><path class="cls-24" d="M75.09,140.44l5.6,17.6a9.23,9.23,0,0,0-5.6-17.6Z"/><path class="cls-32" d="M74,140.85l3.85,8.39,8.39-3.85A9.22,9.22,0,0,0,74,140.85Z"/><path class="cls-30" d="M72,142.13l5.9,7.11-9.24-.15A9.3,9.3,0,0,1,72,142.13Z"/><path class="cls-27" d="M88.58,132.36a8.57,8.57,0,1,1,8.56-8.57A8.58,8.58,0,0,1,88.58,132.36Zm0-15.85a7.29,7.29,0,1,0,7.28,7.28A7.29,7.29,0,0,0,88.58,116.51Z"/><path class="cls-19" d="M96.5,123.79a7.92,7.92,0,1,1-7.92-7.92A7.92,7.92,0,0,1,96.5,123.79Z"/><path class="cls-27" d="M83.42,127.38a.27.27,0,0,0,.1-.37.27.27,0,1,0-.1.37Z"/><path class="cls-27" d="M82.69,125.38a.27.27,0,0,0,.1-.37.26.26,0,0,0-.37-.09.25.25,0,0,0-.09.36A.25.25,0,0,0,82.69,125.38Z"/><rect class="cls-24" x="88.26" y="118.96" width="0.65" height="4.74"/><rect class="cls-24" x="90.4" y="122.55" width="0.65" height="5.78" transform="translate(-63.92 118.31) rotate(-51.48)"/><path class="cls-27" d="M88.07,123.79a.61.61,0,0,0,.61.61.61.61,0,1,0,0-1.21A.6.6,0,0,0,88.07,123.79Z"/><path class="cls-27" d="M88.31,118a.27.27,0,0,0,.54,0,.27.27,0,1,0-.54,0Z"/><path class="cls-27" d="M90.42,118.25a.27.27,0,0,0,.16.35.28.28,0,0,0,.35-.16.27.27,0,0,0-.17-.35A.26.26,0,0,0,90.42,118.25Z"/><path class="cls-27" d="M92.3,119.23a.27.27,0,1,0,.38,0A.27.27,0,0,0,92.3,119.23Z"/><path class="cls-27" d="M93.74,120.8a.27.27,0,0,0-.1.37.28.28,0,0,0,.37.1.27.27,0,1,0-.27-.47Z"/><path class="cls-27" d="M94.56,122.76a.27.27,0,1,0,.09.53.27.27,0,0,0,.22-.31A.27.27,0,0,0,94.56,122.76Z"/><path class="cls-27" d="M94.65,124.88a.29.29,0,0,0-.32.22.28.28,0,0,0,.23.32.28.28,0,0,0,.31-.22A.28.28,0,0,0,94.65,124.88Z"/><path class="cls-27" d="M94,126.91a.28.28,0,0,0-.37.1.27.27,0,0,0,.1.37.28.28,0,0,0,.37-.1A.27.27,0,0,0,94,126.91Z"/><path class="cls-27" d="M92.72,128.6a.27.27,0,0,0-.38,0,.28.28,0,0,0,0,.39.29.29,0,0,0,.39,0A.28.28,0,0,0,92.72,128.6Z"/><path class="cls-27" d="M90.93,129.74a.28.28,0,0,0-.35-.16.27.27,0,0,0-.16.35.26.26,0,0,0,.34.16A.27.27,0,0,0,90.93,129.74Z"/><path class="cls-27" d="M88.85,130.2a.27.27,0,1,0-.27.27A.27.27,0,0,0,88.85,130.2Z"/><path class="cls-27" d="M86.75,129.93a.28.28,0,0,0-.17-.35.27.27,0,1,0,.17.35Z"/><path class="cls-27" d="M84.86,129a.27.27,0,1,0-.42-.35.27.27,0,0,0,0,.38A.28.28,0,0,0,84.86,129Z"/><path class="cls-27" d="M82.51,123.29a.27.27,0,1,0,.09-.53.27.27,0,0,0-.31.22A.27.27,0,0,0,82.51,123.29Z"/><path class="cls-27" d="M83.15,121.27a.28.28,0,0,0,.37-.1.27.27,0,1,0-.47-.27A.28.28,0,0,0,83.15,121.27Z"/><path class="cls-27" d="M84.44,119.58a.28.28,0,0,0,.39,0,.27.27,0,1,0-.39,0Z"/><path class="cls-27" d="M86.23,118.44a.28.28,0,1,0,.17-.35A.28.28,0,0,0,86.23,118.44Z"/><path class="cls-27" d="M82.77,125a.31.31,0,0,0-.26-.1.25.25,0,0,0-.16.1Z"/><rect class="cls-29" x="208.47" y="137.23" width="4.39" height="18.34"/><rect class="cls-27" x="214.93" y="142.87" width="4.39" height="12.7"/><rect class="cls-24" x="221.39" y="140.67" width="4.39" height="14.89"/><rect class="cls-10" x="202.01" y="135.62" width="4.39" height="19.94"/><rect class="cls-30" x="227.85" y="151.39" width="4.39" height="4.18"/><path class="cls-32" d="M164.37,109.45a16.83,16.83,0,1,0,23.8,0A16.83,16.83,0,0,0,164.37,109.45Zm18.78,18.79a9.74,9.74,0,1,1,0-13.78A9.74,9.74,0,0,1,183.15,128.24Z"/><path class="cls-24" d="M183.15,114.46a9.68,9.68,0,0,1,2.5,4.27l5.41-5.41a16.83,16.83,0,0,0-6.76-6.76L178.89,112A9.57,9.57,0,0,1,183.15,114.46Z"/><path class="cls-24" d="M191.06,129.38,185.65,124a9.68,9.68,0,0,1-2.5,4.27,9.57,9.57,0,0,1-4.26,2.49l5.41,5.41a16.83,16.83,0,0,0,6.76-6.76Z"/><path class="cls-24" d="M169.38,128.24a9.77,9.77,0,0,1-2.5-4.27l-5.41,5.41a17,17,0,0,0,2.9,3.87,16.7,16.7,0,0,0,3.87,2.89l5.41-5.41A9.6,9.6,0,0,1,169.38,128.24Z"/><path class="cls-24" d="M161.47,113.32l5.41,5.41a9.77,9.77,0,0,1,2.5-4.27,9.6,9.6,0,0,1,4.27-2.49l-5.41-5.41a16.42,16.42,0,0,0-3.87,2.89A16.74,16.74,0,0,0,161.47,113.32Z"/><rect class="cls-32" x="72.07" y="182.47" width="28.46" height="16.72"/><rect class="cls-10" x="70.97" y="198.19" width="30.64" height="4.35" transform="translate(-5.17 2.31) rotate(-1.49)"/><rect class="cls-32" x="69.6" y="200.37" width="33.39" height="2.66"/><rect class="cls-24" x="73.67" y="180.14" width="2.35" height="18.08"/><rect class="cls-24" x="77.46" y="180.14" width="2.35" height="17.59" transform="translate(-9.33 4.16) rotate(-2.86)"/><rect class="cls-24" x="92.77" y="183.21" width="2.35" height="15.01"/><rect class="cls-24" x="96.57" y="189.92" width="2.35" height="8.31"/><rect class="cls-24" x="94.84" y="183.27" width="2.35" height="6.59" transform="translate(-80.28 72.78) rotate(-29.93)"/><rect class="cls-27" x="84.42" y="189.96" width="3.74" height="8.23"/><rect class="cls-27" x="73.17" y="180.69" width="3.35" height="1.25" transform="translate(-24.78 12.34) rotate(-8.09)"/><rect class="cls-27" x="76.97" y="180.1" width="3.35" height="1.25"/><rect class="cls-27" x="92.24" y="180.12" width="3.35" height="1.25"/><rect class="cls-27" x="92.24" y="196.95" width="3.35" height="1.25"/><rect class="cls-27" x="96.04" y="196.92" width="3.35" height="1.25"/><rect class="cls-27" x="73.17" y="196.97" width="3.35" height="1.25"/><rect class="cls-27" x="76.97" y="196.93" width="3.35" height="1.24"/><polygon class="cls-10" points="71.68 179.72 88.2 175.68 103.06 183.96 71.68 179.72"/><polygon class="cls-31" points="78.32 179.54 88 177.17 96.71 182.03 78.32 179.54"/><path class="cls-33" d="M88.56,179.09c-.09.67-.52,1.17-1,1.11s-.73-.65-.64-1.33.53-1.18,1-1.12S88.65,178.41,88.56,179.09Z"/><rect class="cls-34" x="71.47" y="181.8" width="31.68" height="1.06" transform="translate(25.24 -10.06) rotate(7.71)"/><rect class="cls-32" x="70.97" y="199.19" width="31.16" height="1" transform="translate(-8.95 4.12) rotate(-2.6)"/><path class="cls-24" d="M220.37,171a2.5,2.5,0,0,1-.85-3.48,2.56,2.56,0,0,1,3.51-.89l23.27,14.13a2.59,2.59,0,0,1,.83,3.53,2.51,2.51,0,0,1-3.49.85Z"/><path class="cls-27" d="M230.16,162.87a.66.66,0,0,1,.22.91l-8.89,14.64a.66.66,0,0,1-.91.22l-3.14-1.91a.66.66,0,0,1-.22-.91L224,164.71l3.31-2.82a.65.65,0,0,1,.9-.22Z"/><path class="cls-24" d="M222.1,182h-1.75l-1.2,2.12.6.72-1.15,1.84,1.15.79-1.29,1.94v3.22l-1-2.28v-1.72l-1.33-.69.74-2.44-.74-1,.92-.61-.92-1.32-.47-.58h-5.72a8.51,8.51,0,0,0-8.51,8.51h0a8.51,8.51,0,0,0,8.51,8.52H222.1a8.51,8.51,0,0,0,8.52-8.52h0A8.51,8.51,0,0,0,222.1,182Z"/><polygon class="cls-24" points="213.13 184.78 209.73 178.88 206.32 184.78 213.13 184.78"/><path class="cls-24" d="M209.3,201a1.28,1.28,0,0,0,1.28,1.28h0a1.27,1.27,0,0,0,1.27-1.28v-2.05a1.28,1.28,0,0,0-1.27-1.29h0a1.28,1.28,0,0,0-1.28,1.29Z"/><path class="cls-24" d="M216.86,201a1.27,1.27,0,0,0,1.27,1.28h0a1.28,1.28,0,0,0,1.28-1.28v-2.05a1.28,1.28,0,0,0-1.28-1.29h0a1.28,1.28,0,0,0-1.27,1.29Z"/><path class="cls-24" d="M220.69,201a1.28,1.28,0,0,0,1.28,1.28h0a1.28,1.28,0,0,0,1.28-1.28v-2.05a1.29,1.29,0,0,0-1.28-1.29h0a1.28,1.28,0,0,0-1.28,1.29Z"/><path class="cls-24" d="M213.13,201a1.28,1.28,0,0,0,1.28,1.28h0a1.28,1.28,0,0,0,1.28-1.28v-2.05a1.28,1.28,0,0,0-1.28-1.29h0a1.28,1.28,0,0,0-1.28,1.29Z"/><path class="cls-33" d="M232,182.06a.21.21,0,0,0,.28-.13h0a.21.21,0,0,0-.13-.27l-1.82.15a.22.22,0,0,0-.28.13h0a.21.21,0,0,0,.13.28Z"/><path class="cls-33" d="M230.59,184.49a.22.22,0,0,0,.28-.13h0a.21.21,0,0,0-.12-.28l-2.17-.8a.22.22,0,0,0-.28.13h0a.22.22,0,0,0,.13.28Z"/><path class="cls-33" d="M230.89,184.25a.22.22,0,0,1-.18.25h0a.22.22,0,0,1-.25-.18l-.4-2.27a.23.23,0,0,1,.18-.26h0a.22.22,0,0,1,.25.18Z"/><path class="cls-33" d="M229.11,185.72a.23.23,0,0,1-.17.26h0a.22.22,0,0,1-.25-.18l-.39-2.28a.21.21,0,0,1,.17-.25h0a.22.22,0,0,1,.25.18Z"/><path class="cls-27" d="M207.35,186.09a.28.28,0,0,0,.29.29.29.29,0,0,0,.29-.29.3.3,0,0,0-.29-.3A.29.29,0,0,0,207.35,186.09Z"/><path class="cls-27" d="M203.79,186.09a.29.29,0,0,0,.29.29.28.28,0,0,0,.29-.29.29.29,0,0,0-.29-.3A.3.3,0,0,0,203.79,186.09Z"/><polygon class="cls-24" points="216.72 184.78 213.31 178.88 209.9 184.78 216.72 184.78"/><polygon class="cls-32" points="216.12 184.78 213.25 179.8 210.38 184.78 216.12 184.78"/><path class="cls-32" d="M199.5,190.51a3.84,3.84,0,1,0,3.83-3.84A3.83,3.83,0,0,0,199.5,190.51Z"/><path class="cls-27" d="M203.93,190.51a.64.64,0,0,0,.63.64.64.64,0,0,0,.64-.64.64.64,0,0,0-.64-.64A.63.63,0,0,0,203.93,190.51Z"/><path class="cls-27" d="M201.1,190.51a.64.64,0,1,0,1.28,0,.64.64,0,1,0-1.28,0Z"/><path class="cls-10" d="M233.68,198a4.3,4.3,0,1,1-4.3-4.3A4.3,4.3,0,0,1,233.68,198Z"/><path class="cls-32" d="M231.83,198a2.46,2.46,0,1,1-2.45-2.46A2.45,2.45,0,0,1,231.83,198Z"/><rect class="cls-27" x="202.34" y="112.12" width="0.51" height="14.07"/></g></g></svg>