<svg xmlns="http://www.w3.org/2000/svg" xmlns:xlink="http://www.w3.org/1999/xlink" viewBox="0 0 300 300"><defs><style>.cls-1{fill:url(#linear-gradient);}.cls-2{fill:url(#linear-gradient-2);}.cls-3{fill:#db1f26;}.cls-4{opacity:0.5;}.cls-5{fill:#010101;}.cls-6{fill:url(#linear-gradient-3);}.cls-7{fill:#fab188;}.cls-8{fill:#192444;}.cls-9{fill:#670915;}.cls-10{fill:#fff;}.cls-11{fill:#182444;}.cls-12{fill:#d02027;}.cls-13{fill:#ed2224;}.cls-14{fill:none;stroke:#fff;stroke-miterlimit:10;stroke-width:5.6px;}</style><linearGradient id="linear-gradient" x1="696.2" y1="232.49" x2="994.44" y2="232.49" gradientTransform="translate(382.33 -695.34) rotate(90)" gradientUnits="userSpaceOnUse"><stop offset="0" stop-color="#fffffd"/><stop offset="1" stop-color="#e2e3e4"/></linearGradient><linearGradient id="linear-gradient-2" x1="707.67" y1="232.49" x2="982.97" y2="232.49" gradientTransform="translate(382.33 -695.34) rotate(90)" gradientUnits="userSpaceOnUse"><stop offset="0" stop-color="#4a90cd"/><stop offset="1" stop-color="#2055a6"/></linearGradient><linearGradient id="linear-gradient-3" x1="735.19" y1="232.5" x2="955.43" y2="232.5" gradientTransform="translate(382.34 -695.33) rotate(90)" xlink:href="#linear-gradient"/></defs><g id="_17_secu" data-name="17_secu"><g id="Layer_62" data-name="Layer 62"><rect class="cls-1" x="0.72" y="0.86" width="298.25" height="298.25" rx="149.12"/><rect class="cls-2" x="12.19" y="12.33" width="275.3" height="275.3" rx="137.65"/><path class="cls-3" d="M34.83,150.78a115.85,115.85,0,1,0,231.69,0H34.83Z"/><g class="cls-4"><path class="cls-5" d="M149.84,288.37C73.53,288.37,11.45,226.29,11.45,150S73.53,11.59,149.84,11.59,288.23,73.68,288.23,150,226.15,288.37,149.84,288.37Zm0-275.3C74.34,13.07,12.92,74.49,12.92,150S74.34,286.9,149.84,286.9,286.75,225.48,286.75,150,225.33,13.07,149.84,13.07Z"/></g><rect class="cls-6" x="39.72" y="39.86" width="220.24" height="220.24" rx="110.12"/></g><g id="Layer_70" data-name="Layer 70"><rect class="cls-7" x="158.48" y="165.16" width="2.04" height="3.14" transform="translate(89.6 386.62) rotate(-118.63)"/><polygon class="cls-8" points="171.65 196.32 161.79 169.86 159.63 170.34 162.14 184.61 164.22 198.11 171.65 196.32"/><path class="cls-7" d="M161.28,165.29l-.82-3.46a.38.38,0,0,0-.38-.37h0a.55.55,0,0,0-.53.56l.06,3Z"/><path class="cls-7" d="M157.36,167.15s-.22-.31-.15-.44a1.54,1.54,0,0,1,.42-.35s-.21-.32,0-.45.48-.31.48-.31.25-.45.49-.55a1.75,1.75,0,0,1,.52-.09,2.84,2.84,0,0,1,.6-.46c.21-.09.58.83.7,1.09s-.4.49-.6.39l.2.45c.05.11-.18.57-.51.13,0,0,.19.49-.12.61s-.58-.48-.58-.48.16.38-.11.46-.5-.25-.5-.25.36.35.18.5S157.85,167.64,157.36,167.15Z"/><path class="cls-7" d="M161.84,169.91s.77-3.62.74-3.67-2.39-1.78-2.39-1.78l-.17,1,.86,1.09-2.3,1.79.6,1.12.33.33.12.59Z"/><polygon class="cls-7" points="175.76 193.6 176.12 189.79 173.49 188.02 170.41 189.9 171.28 194.28 175.76 193.6"/><path class="cls-7" d="M171.6,191.6s-3.06-.58-3-1.13c0-.11.85-4.21,1.77-5.6,1-1.55,2.69-1,4.21.5a2.52,2.52,0,0,1-.42,3.86A34,34,0,0,0,171.6,191.6Z"/><path class="cls-9" d="M170.51,184.69l.22-1.31a21,21,0,0,1,3.05-.93c.83-.1,3.77,2.27,3.77,2.27l-1.46,5.64s-1.25.11-1.64-.38c0,0,0-1.71,0-2.34a.75.75,0,0,0-1.31-.49l-.14.62-.49-.23a21,21,0,0,1-.15-2.21Z"/><polygon class="cls-10" points="176.89 193.69 176 190.98 171.05 193.15 170.95 194.29 176.89 193.69"/><polygon class="cls-10" points="177.43 193.44 168.54 193.03 164.91 198.69 164.91 209.16 163.65 214.92 180.61 215.66 179.71 209.6 181.49 194.18 177.43 193.44"/><polygon class="cls-8" points="179.55 215.66 180.66 235.56 181.49 237.53 182.58 252.47 178.75 252.47 175.36 235.81 171.22 224.04 170.56 215.22 179.55 215.66"/><polygon class="cls-8" points="171.22 224.04 164.25 252.47 160.66 252.47 163.65 214.92 173.54 215.22 173.95 222.93 171.22 224.04"/><path class="cls-8" d="M177.55,200.5S187.1,202.76,190,203s5-1.82,4.91-2.67-5.76-8.77-5.76-8.77l-1.81,1.57,1.63,4.09-7.66-3.08Z"/><polygon class="cls-8" points="176.89 193.19 171.42 200.04 171.42 206.77 180.11 219.83 182.06 219.83 179.84 208.72 180.84 199.81 181.49 194.18 176.89 193.19"/><polygon class="cls-8" points="170.72 193.13 169.77 196.06 163.46 217.28 163.46 214.45 164.91 208.44 164.18 197.68 168.27 192.74 170.72 193.13"/><polygon class="cls-11" points="161.21 251.8 160.68 253.77 160.3 254.8 160.9 256.85 162.19 256.88 163.72 255.54 163.59 253.65 163.97 252.25 163.71 251.54 161.21 251.8"/><polygon class="cls-11" points="178.91 252.52 178.91 253.73 180.19 253.97 181.91 255.13 184.58 255.94 185.21 254.99 181.8 251.83 178.91 252.52"/><path class="cls-7" d="M189.11,191.55s-2.59-2.68-3.05-3a28.46,28.46,0,0,0-4-1h0a.57.57,0,0,0,.15.92l.49.23.54.21-2.49-.35h0a.82.82,0,0,0,.7.95l1.41.18.21,1,.34.13s.22,1,.25,1a1.68,1.68,0,0,0,.28.2l.2-.19.17.5.5.08.48-.72.82.62,1.22.79Z"/><polygon class="cls-8" points="176.89 193.19 176.38 192.12 171.42 200.04 176.89 193.19"/><rect class="cls-8" x="127.11" y="156.86" width="72.58" height="4.48" transform="translate(-8.66 9.41) rotate(-3.21)"/><rect class="cls-8" x="199.36" y="78.57" width="4.48" height="72.58" transform="translate(76.39 310.21) rotate(-87.01)"/><rect class="cls-8" x="166.67" y="50.96" width="4.48" height="72.58" transform="translate(80.39 255.5) rotate(-89.57)"/><rect class="cls-8" x="82.16" y="73.74" width="4.48" height="72.58" transform="translate(-26.26 193.6) rotate(-89.57)"/><rect class="cls-8" x="112.17" y="101.05" width="4.48" height="72.58" transform="translate(-28.53 244.68) rotate(-87.11)"/><circle class="cls-12" cx="196.35" cy="135.59" r="18.65"/><circle class="cls-13" cx="199.71" cy="136.07" r="18.65" transform="translate(47.63 323.88) rotate(-85.27)"/><path class="cls-10" d="M203.91,131.24a4.83,4.83,0,0,0-3.37-1.54c-1.46,0-2.23.52-2.23,1.89,0,2.77,8.23,2.63,8.23,8.53a5.83,5.83,0,0,1-4.88,6.08v3.26h-3.21v-3.09a10.51,10.51,0,0,1-5.56-2.42l2.14-3.28a7.2,7.2,0,0,0,4.41,1.8c1.7,0,2.44-.65,2.44-2,0-3-8.2-3.07-8.2-8.66a5.63,5.63,0,0,1,4.77-5.89v-3.24h3.21v3.18a7.85,7.85,0,0,1,4.66,2.58Z"/><circle class="cls-12" cx="141.49" cy="123.87" r="12.4"/><circle class="cls-13" cx="143.73" cy="124.19" r="12.4"/><circle class="cls-12" cx="137.78" cy="149.37" r="8.73"/><circle class="cls-13" cx="139.36" cy="149.6" r="8.73"/><circle class="cls-12" cx="174.25" cy="100.24" r="10.75"/><circle class="cls-13" cx="176.19" cy="100.52" r="10.75"/><circle class="cls-12" cx="85.82" cy="95.55" r="12.4"/><circle class="cls-13" cx="88.06" cy="95.87" r="12.4"/><circle class="cls-12" cx="230.77" cy="101.76" r="12.4"/><circle class="cls-13" cx="233" cy="102.08" r="12.4"/><circle class="cls-12" cx="168.9" cy="72.32" r="12.4"/><circle class="cls-13" cx="171.14" cy="72.64" r="12.4"/><rect class="cls-10" x="136.7" y="125.64" width="3.17" height="4.45"/><rect class="cls-10" x="141.91" y="123.89" width="3.17" height="6.2"/><rect class="cls-10" x="147.11" y="122.17" width="3.17" height="7.91"/><polygon class="cls-10" points="137.86 124.88 136.31 124.19 138.11 120.19 143.9 121.26 147.39 117.97 148.56 119.21 144.44 123.09 139.11 122.1 137.86 124.88"/><polygon class="cls-10" points="146.14 117.26 150.39 116.23 149.15 120.42 146.14 117.26"/><path class="cls-10" d="M234.2,105.38v1.28c0,.18-2.11.34-4.72.34s-4.72-.16-4.72-.34v-1.28Z"/><path class="cls-13" d="M224.76,105.38c0,.19,2.11.35,4.72.35s4.72-.16,4.72-.35-2.11-.34-4.72-.34S224.76,105.19,224.76,105.38Z"/><path class="cls-10" d="M234.2,103.9v1.28c0,.18-2.11.34-4.72.34s-4.72-.16-4.72-.34V103.9Z"/><ellipse class="cls-13" cx="229.48" cy="103.9" rx="4.72" ry="0.34"/><path class="cls-10" d="M234.2,102.42v1.27c0,.19-2.11.35-4.72.35s-4.72-.16-4.72-.35v-1.27Z"/><path class="cls-13" d="M224.76,102.42c0,.19,2.11.34,4.72.34s4.72-.15,4.72-.34-2.11-.34-4.72-.34S224.76,102.23,224.76,102.42Z"/><path class="cls-10" d="M241.06,106.19v1.27c0,.19-2.11.35-4.72.35s-4.72-.16-4.72-.35v-1.27Z"/><path class="cls-13" d="M231.62,106.19c0,.19,2.11.34,4.72.34s4.72-.15,4.72-.34-2.11-.34-4.72-.34S231.62,106,231.62,106.19Z"/><path class="cls-10" d="M241.06,104.71V106c0,.19-2.11.35-4.72.35s-4.72-.16-4.72-.35v-1.27Z"/><path class="cls-13" d="M231.62,104.71c0,.19,2.11.34,4.72.34s4.72-.15,4.72-.34-2.11-.34-4.72-.34S231.62,104.52,231.62,104.71Z"/><path class="cls-10" d="M241.06,103.23v1.27c0,.19-2.11.34-4.72.34s-4.72-.15-4.72-.34v-1.27Z"/><path class="cls-13" d="M231.62,103.23c0,.19,2.11.34,4.72.34s4.72-.15,4.72-.34-2.11-.34-4.72-.34S231.62,103,231.62,103.23Z"/><path class="cls-10" d="M241.06,101.75V103c0,.19-2.11.34-4.72.34s-4.72-.15-4.72-.34v-1.27Z"/><path class="cls-13" d="M231.62,101.75c0,.19,2.11.34,4.72.34s4.72-.15,4.72-.34-2.11-.34-4.72-.34S231.62,101.56,231.62,101.75Z"/><path class="cls-10" d="M241.06,100.27v1.27c0,.19-2.11.34-4.72.34s-4.72-.15-4.72-.34v-1.27Z"/><ellipse class="cls-13" cx="236.34" cy="100.27" rx="4.72" ry="0.34"/><path class="cls-10" d="M241.06,98.79v1.27c0,.19-2.11.34-4.72.34s-4.72-.15-4.72-.34V98.79Z"/><ellipse class="cls-13" cx="236.34" cy="98.79" rx="4.72" ry="0.34"/><path class="cls-10" d="M234.29,95.72l.76,1c.11.15-1.5,1.54-3.59,3.1s-3.88,2.69-4,2.54l-.76-1Z"/><path class="cls-13" d="M226.71,101.36c.11.15,1.9-1,4-2.54s3.7-2.95,3.59-3.1-1.9,1-4,2.55S226.6,101.21,226.71,101.36Z"/><path class="cls-10" d="M179.51,69.79a.76.76,0,0,0-.75-.19s0-.11,0-.16a.18.18,0,0,0-.14-.19.17.17,0,0,0-.18.15,1.69,1.69,0,0,0,0,.3l-.17.08a5.33,5.33,0,0,0-5-3.36l-5,.06a5.37,5.37,0,0,0-3,1L163.65,67l.66,1.33a5.27,5.27,0,0,0-1.06,1.91h-1.41l0,3.29,1.4,0a5.35,5.35,0,0,0,3.6,3.43l.36,1.92.72-.52.74.5,0-1.7,4.69-.06a5.44,5.44,0,0,0,1.22-.16l.35,1.84.72-.51.74.49,0-2.64a5.33,5.33,0,0,0,2.27-4.42h0a5.59,5.59,0,0,0-.27-1.6.2.2,0,0,1,.08,0,.7.7,0,0,0,.42.58.52.52,0,0,0,.21,0,.64.64,0,0,0,.49-.26A.49.49,0,0,0,179.51,69.79Zm-14.38,1.07a.47.47,0,0,1-.47-.46.45.45,0,0,1,.45-.47.47.47,0,0,1,0,.93Zm8.05-3.31-4.86.07a.34.34,0,0,1,0-.68l4.86-.06a.34.34,0,0,1,0,.67Zm6.13,2.67a.26.26,0,0,1-.31.1c-.12,0-.2-.18-.23-.39a.5.5,0,0,1,.5.08C179.34,70.09,179.35,70.16,179.31,70.22Z"/><path class="cls-10" d="M91.59,94.14a4,4,0,0,1,.18,3l3,1.76a7.31,7.31,0,0,0-3.45-9.67l-1.22,3.29A3.94,3.94,0,0,1,91.59,94.14Z"/><path class="cls-10" d="M88.66,92l1.22-3.28a7.35,7.35,0,0,0-3.58,0L87.49,92A4.17,4.17,0,0,1,88.66,92Z"/><path class="cls-10" d="M89.76,99.39a3.93,3.93,0,0,1-5.25-1.82,4,4,0,0,1-.38-1.64l-3.45-.63a7.32,7.32,0,0,0,.69,3.79A7.36,7.36,0,0,0,94,100.24l-3-1.77A3.74,3.74,0,0,1,89.76,99.39Z"/><path class="cls-10" d="M86,92.51l-1.19-3.34h0A7.37,7.37,0,0,0,81,93.77l3.46.64A3.89,3.89,0,0,1,86,92.51Z"/><circle class="cls-12" cx="97.17" cy="123.12" r="10.83"/><circle class="cls-13" cx="99.12" cy="123.4" r="10.83"/><path class="cls-10" d="M106.16,123.42a7.11,7.11,0,1,0-7.11,7.11A7.11,7.11,0,0,0,106.16,123.42Z"/><path class="cls-13" d="M93.47,123.43a5.63,5.63,0,1,1,5.63,5.63A5.64,5.64,0,0,1,93.47,123.43Zm.77,0a4.87,4.87,0,1,0,4.86-4.86A4.87,4.87,0,0,0,94.24,123.43Z"/><path class="cls-13" d="M97.3,123.43a1.8,1.8,0,1,1,1.8,1.8A1.81,1.81,0,0,1,97.3,123.43Zm.76,0a1,1,0,1,0,1-1A1,1,0,0,0,98.06,123.43Z"/><path class="cls-13" d="M95.38,123.43a3.72,3.72,0,1,1,3.72,3.72A3.73,3.73,0,0,1,95.38,123.43Zm.77,0a3,3,0,1,0,2.95-3A3,3,0,0,0,96.15,123.43Z"/><path class="cls-10" d="M98.89,123.67a.38.38,0,0,0,.26-.65l-5.4-5.31a.38.38,0,1,0-.53.54l5.4,5.31A.35.35,0,0,0,98.89,123.67Z"/><polygon class="cls-10" points="91.81 114.29 94.08 116.75 94.25 118.78 92 118.78 89.71 116.53 91.98 116.63 91.81 114.29"/><path class="cls-10" d="M181.43,99.73a.41.41,0,0,1-.36-.2A8.11,8.11,0,0,0,178.68,97a8,8,0,0,0-3.34-1.35.43.43,0,0,1-.35-.41,6.88,6.88,0,0,0-.24-1.9.4.4,0,0,1,.34-.51,7.86,7.86,0,0,1,8.74,6,.42.42,0,0,1-.36.5,7.19,7.19,0,0,0-1.9.43A.36.36,0,0,1,181.43,99.73Zm-5.63-4.86a8.84,8.84,0,0,1,3.34,1.43,9,9,0,0,1,2.46,2.53,8.59,8.59,0,0,1,1.31-.31,7,7,0,0,0-7.26-5A8.35,8.35,0,0,1,175.8,94.87Z"/><path class="cls-10" d="M176.18,108.42a7.86,7.86,0,0,1-7.65-6.14.42.42,0,0,1,.07-.33.39.39,0,0,1,.29-.17,7,7,0,0,0,1.75-.4.39.39,0,0,1,.49.19,8.39,8.39,0,0,0,2.49,2.72,8.3,8.3,0,0,0,3.32,1.35.41.41,0,0,1,.34.39,7.46,7.46,0,0,0,.26,1.81.4.4,0,0,1-.34.51A8.74,8.74,0,0,1,176.18,108.42Zm-6.74-5.89a7,7,0,0,0,7.2,5.06,7.17,7.17,0,0,1-.16-1.21,9,9,0,0,1-3.33-1.42,9.27,9.27,0,0,1-2.56-2.7A7.4,7.4,0,0,1,169.44,102.53Z"/><path class="cls-10" d="M176.87,106.45h-.07a9,9,0,0,1-6.38-4.47.39.39,0,0,1,0-.35.41.41,0,0,1,.24-.24A6.53,6.53,0,0,0,175,95.21a.42.42,0,0,1,.15-.31.39.39,0,0,1,.33-.09,8.78,8.78,0,0,1,3.67,1.49,8.88,8.88,0,0,1,2.64,2.82.41.41,0,0,1,0,.34.4.4,0,0,1-.24.25,6.54,6.54,0,0,0-4.29,6.32.43.43,0,0,1-.14.32A.45.45,0,0,1,176.87,106.45Zm-5.5-4.48a8.41,8.41,0,0,0,2.25,2.32,8.06,8.06,0,0,0,2.85,1.25,7.35,7.35,0,0,1,4.35-6.41A8,8,0,0,0,178.68,97a8.11,8.11,0,0,0-2.89-1.27,7.36,7.36,0,0,1-4.42,6.27Z"/><path class="cls-10" d="M170.21,96.56a.4.4,0,0,1-.31-.13.41.41,0,0,1,0-.52,7.82,7.82,0,0,1,5.21-3.11.41.41,0,0,1,.45.3,8.5,8.5,0,0,1,.27,2.12.4.4,0,0,1-.15.3.42.42,0,0,1-.32.1,7.26,7.26,0,0,0-4.93.89A.46.46,0,0,1,170.21,96.56Zm4.63-2.89A7.14,7.14,0,0,0,171.9,95a8.37,8.37,0,0,1,3.08-.24A8,8,0,0,0,174.84,93.67Z"/><path class="cls-10" d="M168.93,102.6a.42.42,0,0,1-.4-.32,7.77,7.77,0,0,1,1-5.84.4.4,0,0,1,.49-.17.41.41,0,0,1,.26.45,7.38,7.38,0,0,0,.86,4.85.4.4,0,0,1-.21.58,7.66,7.66,0,0,1-1.95.44Zm.46-3.84a7.11,7.11,0,0,0-.13,3,7.36,7.36,0,0,0,.93-.21A8.37,8.37,0,0,1,169.39,98.76Z"/><path class="cls-10" d="M182.43,105a.41.41,0,0,1-.4-.48,7.34,7.34,0,0,0-1-5,.41.41,0,0,1,0-.34.45.45,0,0,1,.24-.25,8.5,8.5,0,0,1,2.11-.48.42.42,0,0,1,.44.32,7.8,7.8,0,0,1-1.06,6.06A.43.43,0,0,1,182.43,105ZM182,99.56a8.43,8.43,0,0,1,.9,3,7,7,0,0,0,.19-3.29A6.61,6.61,0,0,0,182,99.56Z"/><path class="cls-10" d="M177.15,108.35a.4.4,0,0,1-.39-.3,7.58,7.58,0,0,1-.3-2,.41.41,0,0,1,.14-.31.41.41,0,0,1,.34-.09,7.37,7.37,0,0,0,4.94-.89.41.41,0,0,1,.51.08.41.41,0,0,1,0,.52,7.81,7.81,0,0,1-5.21,3Zm.15-1.84a8.62,8.62,0,0,0,.15,1,6.94,6.94,0,0,0,2.83-1.2A8.47,8.47,0,0,1,177.3,106.51Z"/><path class="cls-10" d="M182.26,105.26a.39.39,0,0,1-.23-.07L169.8,96.73a.4.4,0,0,1-.1-.56.41.41,0,0,1,.57-.11l12.22,8.46a.41.41,0,0,1,.1.57A.4.4,0,0,1,182.26,105.26Z"/><path class="cls-10" d="M172,107.09a.42.42,0,0,1-.24-.07.41.41,0,0,1-.1-.57l8.43-12.18a.41.41,0,0,1,.57-.11.41.41,0,0,1,.11.57l-8.44,12.19A.42.42,0,0,1,172,107.09Z"/><rect class="cls-10" x="132.61" y="149.89" width="1.78" height="3.19"/><rect class="cls-10" x="135.04" y="148.94" width="1.78" height="4.14"/><rect class="cls-10" x="137.46" y="150.13" width="1.78" height="2.95"/><rect class="cls-10" x="139.88" y="147.96" width="1.78" height="5.12"/><rect class="cls-10" x="142.31" y="147.06" width="1.78" height="6.02"/><rect class="cls-10" x="144.73" y="146.55" width="1.78" height="6.53"/><polyline class="cls-14" points="132.81 148.49 136.6 146.98 138.08 148.49 140.77 145.51 144.92 144.91"/><path class="cls-10" d="M132.38,148.49a.43.43,0,1,1,.42.42A.42.42,0,0,1,132.38,148.49Z"/><path class="cls-10" d="M136.14,147a.43.43,0,1,1,.85,0,.43.43,0,0,1-.85,0Z"/><path class="cls-10" d="M137.63,148.38a.43.43,0,0,1,.85,0,.43.43,0,1,1-.85,0Z"/><path class="cls-10" d="M140.35,145.55a.43.43,0,0,1,.85,0,.43.43,0,1,1-.85,0Z"/><path class="cls-10" d="M144.42,144.91a.43.43,0,1,1,.85,0,.43.43,0,0,1-.85,0Z"/></g></g></svg>