<svg xmlns="http://www.w3.org/2000/svg" xmlns:xlink="http://www.w3.org/1999/xlink" viewBox="0 0 300 300"><defs><style>.cls-1{fill:none;}.cls-2{fill:url(#linear-gradient);}.cls-3{fill:url(#linear-gradient-2);}.cls-4{fill:#db1f26;}.cls-5{opacity:0.5;}.cls-6{fill:#010101;}.cls-7{fill:url(#linear-gradient-3);}.cls-8{clip-path:url(#clip-path);}.cls-9{fill:#dbdada;}.cls-10{fill:#f3f3f3;}.cls-11{fill:#3954a3;}.cls-12{fill:#cb7942;}.cls-13{fill:#625f60;}.cls-14{fill:#726f70;}.cls-15{fill:#fab17e;}.cls-16{fill:#747391;}.cls-17{fill:#8280a2;}.cls-18{fill:#babf33;}.cls-19{fill:#fed6ae;}.cls-20{fill:#1c3544;}.cls-21{fill:#2e5873;}</style><linearGradient id="linear-gradient" x1="-903.8" y1="552.36" x2="-605.56" y2="552.36" gradientTransform="translate(702.33 904.66) rotate(90)" gradientUnits="userSpaceOnUse"><stop offset="0" stop-color="#fffffd"/><stop offset="1" stop-color="#e2e3e4"/></linearGradient><linearGradient id="linear-gradient-2" x1="-892.33" y1="552.36" x2="-617.03" y2="552.36" gradientTransform="translate(702.33 904.66) rotate(90)" gradientUnits="userSpaceOnUse"><stop offset="0" stop-color="#4a90cd"/><stop offset="1" stop-color="#2055a6"/></linearGradient><linearGradient id="linear-gradient-3" x1="-864.81" y1="552.37" x2="-644.57" y2="552.37" gradientTransform="translate(702.34 904.67) rotate(90)" xlink:href="#linear-gradient"/><clipPath id="clip-path"><rect class="cls-1" x="39.85" y="40.86" width="220.24" height="220.24" rx="110.12"/></clipPath></defs><g id="_07_send-file" data-name="07_send-file"><g id="Layer_25" data-name="Layer 25"><rect class="cls-2" x="0.85" y="0.86" width="298.25" height="298.25" rx="149.12"/><rect class="cls-3" x="12.32" y="12.33" width="275.3" height="275.3" rx="137.65"/><path class="cls-4" d="M34.83,150.78a115.85,115.85,0,1,0,231.69,0H34.83Z"/><g class="cls-5"><path class="cls-6" d="M150,288.37C73.66,288.37,11.58,226.29,11.58,150S73.66,11.59,150,11.59,288.36,73.68,288.36,150,226.28,288.37,150,288.37Zm0-275.3C74.47,13.07,13.05,74.49,13.05,150S74.47,286.9,150,286.9,286.88,225.48,286.88,150,225.46,13.07,150,13.07Z"/></g><rect class="cls-7" x="39.85" y="39.86" width="220.24" height="220.24" rx="110.12"/></g><g id="Layer_26" data-name="Layer 26"><g class="cls-8"><polygon class="cls-9" points="99.97 58.84 99.97 199.28 198.76 199.26 198.76 58.84 99.97 58.84"/><polygon class="cls-10" points="102.8 196.45 195.93 196.43 195.93 61.66 102.8 61.66 102.8 196.45"/><path class="cls-11" d="M157,146.85a1.72,1.72,0,0,1-1.72,1.72h-7.68a1.72,1.72,0,0,1-1.72-1.72h0a1.72,1.72,0,0,1,1.72-1.72h7.68a1.72,1.72,0,0,1,1.72,1.72Z"/><path class="cls-11" d="M166.65,73a1.72,1.72,0,0,1-1.72,1.72H133.8A1.72,1.72,0,0,1,132.08,73h0a1.72,1.72,0,0,1,1.72-1.72h31.13A1.72,1.72,0,0,1,166.65,73Z"/><path class="cls-11" d="M186.87,84.47a1.72,1.72,0,0,1-1.72,1.72H113.59a1.72,1.72,0,0,1-1.72-1.72h0a1.72,1.72,0,0,1,1.72-1.72h71.56a1.72,1.72,0,0,1,1.72,1.72Z"/><path class="cls-11" d="M174.74,93.57A1.72,1.72,0,0,1,173,95.29H113.59a1.72,1.72,0,0,1-1.72-1.72h0a1.72,1.72,0,0,1,1.72-1.72H173a1.72,1.72,0,0,1,1.72,1.72Z"/><path class="cls-11" d="M182.82,102.66a1.72,1.72,0,0,1-1.72,1.72H113.59a1.72,1.72,0,0,1-1.72-1.72h0a1.72,1.72,0,0,1,1.72-1.72H181.1a1.72,1.72,0,0,1,1.72,1.72Z"/><path class="cls-11" d="M186.87,111.76a1.72,1.72,0,0,1-1.72,1.72H113.59a1.72,1.72,0,0,1-1.72-1.72h0a1.72,1.72,0,0,1,1.72-1.72h71.56a1.72,1.72,0,0,1,1.72,1.72Z"/><path class="cls-11" d="M186.87,120.86a1.72,1.72,0,0,1-1.72,1.71H113.59a1.72,1.72,0,0,1-1.72-1.71h0a1.72,1.72,0,0,1,1.72-1.72h71.56a1.72,1.72,0,0,1,1.72,1.72Z"/><path class="cls-9" d="M222.92,194.77c9.66-7.18,16.64-14.14,15.59-15.55s-9.73,3.26-19.39,10.43-16.64,14.14-15.59,15.55S213.26,201.94,222.92,194.77Z"/><path class="cls-12" d="M177.56,144.77a37.85,37.85,0,0,1-11.27,2,8.36,8.36,0,0,1,3.46,2.21c2.16,2.07,3,3.65,3.89,7.81,1.25.48,4.44,1.25,6.79,3.88a21.78,21.78,0,0,0,2.44.9c9,3.12,10.27-7.69,5.54-13.6C182.26,148,178.3,144.39,177.56,144.77Z"/><path class="cls-13" d="M160.41,147.48a3.21,3.21,0,0,1,1.8-2.24l-4.57,1.4,3.18,3.27A3.46,3.46,0,0,1,160.41,147.48Z"/><path class="cls-14" d="M185.91,150l-23.35-4.83-.35.11a3.21,3.21,0,0,0-1.8,2.24,3.46,3.46,0,0,0,.41,2.43l.47.48,22.55,6.3h0a5.08,5.08,0,0,1-.33-3.52,4.92,4.92,0,0,1,2.41-3.21Z"/><path class="cls-15" d="M233.17,181.29c-10.34-25.44-11.36-37.21-15.75-41.72-1.93-2-15.75-4.87-25.76-6.41-4.85-.74-11.7-1.24-12.11-1.2-2.87.32-4.67,2.54-8.88,4.41s-11.65,2.95-12.9,4.51c-1,1.27-.74,5,4.9,5.69a36.57,36.57,0,0,0,14.89-1.8c.74-.38,4.7,3.2,10.85,3.18,4.73,5.91,3.49,16.72-5.54,13.6a21.78,21.78,0,0,1-2.44-.9c-2.35-2.63-5.54-3.4-6.79-3.88-.92-4.16-1.77-5.69-3.89-7.81-2.61-2.6-6.06-2.94-8.16.52-1.69,2.78,2,4.91-1.67,10.54,0,0-2,3.56,1.27,5.65s11.84,9,17.87,14.77,16.43,15.54,24.13,18.11,6.61,3.87,12.38,11.08c3.62,4.52,27.81-12.23,25-16.3C233.8,185.24,235.11,185.94,233.17,181.29Z"/><path class="cls-16" d="M188.33,149.68l-.24-.06-.11,0a3.3,3.3,0,0,0-2.06.36,4.92,4.92,0,0,0-2.41,3.21,5.08,5.08,0,0,0,.33,3.52,3.43,3.43,0,0,0,2,1.77l.09,0,.25.06,39.05,9.22,2.15-8.89Z"/><ellipse class="cls-17" cx="226.34" cy="163.34" rx="4.57" ry="3.73" transform="translate(12.71 343) rotate(-75.88)"/><path class="cls-18" d="M219.27,161.56A2.94,2.94,0,0,0,217,158l-21.4-4.21c-.65-.12-1.33.47-1.53,1.34l-.29,1.25a1.5,1.5,0,0,0,.8,1.87l21.09,5.56A2.92,2.92,0,0,0,219.27,161.56Z"/><path class="cls-19" d="M160.71,150.3s-.19-2,2.35-2.53,2.07.23,2.25,1.53.23,5.2-1.93,6.07-1.83,1.19-1.83,1.19Z"/><path class="cls-20" d="M229.59,204c11.1-8.24,19.11-16.24,17.91-17.86s-11.18,3.74-22.27,12S206.12,214.33,207.32,216,218.5,212.21,229.59,204Z"/><path class="cls-10" d="M222.92,194.77c-9.66,7.17-18.34,11.84-19.39,10.43l10,13.73,35-26-10-13.72C239.56,180.63,232.58,187.59,222.92,194.77Z"/><path class="cls-21" d="M229.59,204c-11.09,8.24-21.06,13.6-22.27,12l31.47,42.49,42.72-25.6-34-46.73C248.7,187.73,240.69,195.73,229.59,204Z"/><ellipse class="cls-9" cx="68.6" cy="204.61" rx="3.19" ry="21.79" transform="translate(-126.24 111.82) rotate(-46)"/><path class="cls-20" d="M59.22,214c9.94,9.6,19.14,16.2,20.54,14.75s-5.51-10.42-15.45-20S45.17,192.53,43.76,194,49.28,204.4,59.22,214Z"/><path class="cls-15" d="M136.73,188.35c-5.88-1.49-12.38,1.32-15.29,2.59a26.28,26.28,0,0,1-9.2,2.2c-3,.11-3.3-1.6-3.68-3.58s2.25-8.31,2.25-8.31c2.48-5.83,2.61-8.3,6-13.67s8.92-14.85,10.25-16.87a29.65,29.65,0,0,0,3.27-7c1-3,.49-5.89-3-6.37s-7.09,7.27-7.09,7.27c-2.6,5.26-15.77,21.23-17.64,23.11,1-2.89,3.44-6.07,5.15-8.18,1.9-2.34,10.12-14.15,13.5-18.39s5-6.21,5.23-8.25c.17-1.57-1.13-4.43-3.63-4.42s-4,2.62-4,2.62c-1.15,1.44-10.29,12.87-14,17.59-7.16,9.12-9.3,11-10,10.78s1.61-2.36,10.71-13.66,9.42-14.32,9.42-14.32c1.47-2.59-4.09-6.19-7-2.49-1.54,1.93-4,5.46-6.73,8.62-.55.63-1.11,1.24-1.68,1.84a3.26,3.26,0,0,0-1.87-2.81c-2.81-1.5-5.54,2.45-7.62,4.29s-14.22,16.63-17.67,20.65C65,170.41,60.1,182.45,59.29,185.17s-1.17,5.72-4.25,7.92S37.67,212,37.67,212s30.75,15.72,32.84,13.36c5.75-6.46,12.68-10.05,16-10.27s19.65-4.51,22.35-5.28,4.4-2.59,9.74-5a32.08,32.08,0,0,1,4.68-1.65,18.74,18.74,0,0,0,4.31-1.26,73.74,73.74,0,0,1,6.61-3.42c1.91-.83,3.83-1.61,5.75-2.42C142.35,195.06,142.62,189.84,136.73,188.35Z"/><path class="cls-19" d="M124.88,142.14c1.41.58,3.8-.62,4.69-2.16.61-1.06-2.23-3.17-4-2S122.86,141.32,124.88,142.14Z"/><path class="cls-19" d="M120,133.48c.77.43,3.16,1,5.12-1.84.36-.54-.91-4-3.9-2.43C121.23,129.21,117.63,132.15,120,133.48Z"/><path class="cls-19" d="M108.48,132.52c1,.63,2.92,1.42,5.38-2.26.22-.33-.4-1.61-1.61-2.2a2.81,2.81,0,0,0-2.35.05C109.32,128.39,106.81,131.45,108.48,132.52Z"/><path class="cls-19" d="M96.32,136.64h-.08s-3.11,2.39-1.08,3.86,3.63-.84,4-1.6S97.52,136.3,96.32,136.64Z"/><path class="cls-19" d="M133.49,195.36c.22,1.7,0,2.2,1.24,1.94a21.77,21.77,0,0,0,4.19-.94c.84-.45,2.31-.75,1.5-3.13s-3.08-3.19-3.85-3-3.45,1.17-3.49,2.28A15.63,15.63,0,0,0,133.49,195.36Z"/><path class="cls-10" d="M66.38,206.91c-8.65-8.36-14.68-16.17-13.46-17.43L41.85,200.62l31.34,30.27,11.08-11.14C83.05,221,75,215.26,66.38,206.91Z"/><path class="cls-21" d="M59.22,214c-9.94-9.6-16.86-18.57-15.46-20l-31.32,32.7,36,34.72,31.28-32.65C78.36,230.2,69.16,223.6,59.22,214Z"/></g></g></g></svg>