<svg xmlns="http://www.w3.org/2000/svg" xmlns:xlink="http://www.w3.org/1999/xlink" viewBox="0 0 300 300"><defs><style>.cls-1{fill:url(#linear-gradient);}.cls-2{fill:url(#linear-gradient-2);}.cls-3{fill:#db1f26;}.cls-4{opacity:0.5;}.cls-5{fill:#010101;}.cls-6{fill:url(#linear-gradient-3);}.cls-7{fill:#f0ab49;}.cls-8{fill:#9db4de;}.cls-16,.cls-9{fill:#fff;}.cls-10{fill:#132148;}.cls-11{fill:#f9aa74;}.cls-12{fill:#4e6db4;}.cls-13{fill:#607abc;}.cls-14{fill:#64bec9;}.cls-15{fill:#fbc4ab;}.cls-16{opacity:0.72;}.cls-17{fill:#45a2ab;}.cls-18{fill:#253a77;}.cls-19{fill:#f9bc89;}.cls-20{fill:#f8a89b;}.cls-21{fill:#5586c5;}.cls-22{fill:#afc4d5;}</style><linearGradient id="linear-gradient" x1="1016.2" y1="-87.51" x2="1314.44" y2="-87.51" gradientTransform="translate(62.33 -1015.34) rotate(90)" gradientUnits="userSpaceOnUse"><stop offset="0" stop-color="#fffffd"/><stop offset="1" stop-color="#e2e3e4"/></linearGradient><linearGradient id="linear-gradient-2" x1="1027.67" y1="-87.51" x2="1302.97" y2="-87.51" gradientTransform="translate(62.33 -1015.34) rotate(90)" gradientUnits="userSpaceOnUse"><stop offset="0" stop-color="#4a90cd"/><stop offset="1" stop-color="#2055a6"/></linearGradient><linearGradient id="linear-gradient-3" x1="1055.19" y1="-87.5" x2="1275.43" y2="-87.5" gradientTransform="translate(62.34 -1015.33) rotate(90)" xlink:href="#linear-gradient"/></defs><g id="_21_stationaries" data-name="21_stationaries"><g id="Layer_78" data-name="Layer 78"><rect class="cls-1" x="0.72" y="0.86" width="298.25" height="298.25" rx="149.12"/><rect class="cls-2" x="12.19" y="12.33" width="275.3" height="275.3" rx="137.65"/><path class="cls-3" d="M34.83,150.78a115.85,115.85,0,1,0,231.69,0H34.83Z"/><g class="cls-4"><path class="cls-5" d="M149.84,288.37C73.53,288.37,11.45,226.29,11.45,150S73.53,11.59,149.84,11.59,288.23,73.68,288.23,150,226.15,288.37,149.84,288.37Zm0-275.3C74.34,13.07,12.92,74.49,12.92,150S74.34,286.9,149.84,286.9,286.75,225.48,286.75,150,225.33,13.07,149.84,13.07Z"/></g><rect class="cls-6" x="39.72" y="39.86" width="220.24" height="220.24" rx="110.12"/></g><g id="Layer_79" data-name="Layer 79"><path class="cls-7" d="M189.55,179.43a51.4,51.4,0,0,0-.34-26.17l5.76-2.47-5.56-12.94-5.75,2.47a51.38,51.38,0,0,0-18.75-18.27l2.33-5.82L154.16,111l-2.33,5.82a51.37,51.37,0,0,0-26.16.33l-2.48-5.75L110.25,117l2.48,5.76a51.42,51.42,0,0,0-18.27,18.74l-5.82-2.32-5.22,13.08,5.82,2.32a51.41,51.41,0,0,0,.33,26.17l-5.75,2.47,5.55,12.94,5.76-2.47a51.43,51.43,0,0,0,18.74,18.27l-2.32,5.82L124.63,223l2.32-5.82a51.29,51.29,0,0,0,26.17-.34l2.47,5.76L168.53,217l-2.47-5.75a51.45,51.45,0,0,0,18.27-18.75l5.81,2.33,5.23-13.08ZM174,180.78a37.21,37.21,0,1,1-20.76-48.36A37.2,37.2,0,0,1,174,180.78ZM107.3,132.61a25.58,25.58,0,0,0-2.12,2l-1.78,1.8,1.65-1.91a26,26,0,0,1,2-2.12,25.66,25.66,0,0,1,2.8-2.54,37.5,37.5,0,0,1,3.58-2.69,42.15,42.15,0,0,1,4.3-2.58,43.63,43.63,0,0,1,15.63-4.85,49.14,49.14,0,0,1,5.35-.38,44.26,44.26,0,0,1,5,.29l2.3.28,2.13.43a26.54,26.54,0,0,1,3.66,1,20.73,20.73,0,0,1,2.75.94l2.35.92-2.41-.76a20.26,20.26,0,0,0-2.79-.75c-1.09-.25-2.31-.56-3.67-.74l-2.11-.34-2.28-.19c-1.56-.18-3.22-.09-4.92-.14a50.2,50.2,0,0,0-5.24.43,46.78,46.78,0,0,0-5.33,1,47.29,47.29,0,0,0-5.19,1.6,49,49,0,0,0-4.83,2.07c-1.5.82-3,1.55-4.29,2.42a39.7,39.7,0,0,0-3.64,2.51C109.09,131.07,108.13,131.87,107.3,132.61Zm75.3,54.1a47.08,47.08,0,0,1-45.68,27.85,46.94,46.94,0,0,1-42.47-32.85,42.48,42.48,0,0,1-1.24-4.8c-.22-1.12-.33-1.72-.33-1.72s.13.6.38,1.71a40.53,40.53,0,0,0,1.35,4.76,48.23,48.23,0,0,0,8.61,15.24,46.2,46.2,0,0,0,20.1,14,46.41,46.41,0,0,0,27.91,1.2,44.35,44.35,0,0,0,13.17-5.66A45.25,45.25,0,0,0,175,197.41a44.73,44.73,0,0,0,7-11,43.15,43.15,0,0,0,3.6-11.13,47.49,47.49,0,0,0,0-17.51,46,46,0,0,0-1.16-4.81l-.52-1.67.57,1.66c.35,1.09.83,2.7,1.28,4.79a46,46,0,0,1,.34,17.64A44.38,44.38,0,0,1,182.6,186.71Z"/><path class="cls-8" d="M83.69,196.75a13.1,13.1,0,0,0-6.22-2.38l0-1.59-3.58.09,0,1.6a13,13,0,0,0-6.07,2.71l-1.16-1.1-2.46,2.6,1.15,1.09A13.1,13.1,0,0,0,63,206l-1.59,0,.09,3.58,1.6,0a13,13,0,0,0,2.71,6.07l-1.1,1.16,2.6,2.46,1.09-1.15a13.1,13.1,0,0,0,6.22,2.38l0,1.59,3.58-.09,0-1.6a13,13,0,0,0,6.08-2.71l1.15,1.1,2.46-2.6-1.15-1.09a13.1,13.1,0,0,0,2.38-6.22l1.59,0-.09-3.58-1.59,0a13.08,13.08,0,0,0-2.72-6.07l1.1-1.16-2.6-2.46Zm-1.15,3.81a9.46,9.46,0,1,1-13.38.36A9.47,9.47,0,0,1,82.54,200.56ZM64.89,211.78a6.25,6.25,0,0,0,.27.69l.26.58-.3-.57a5.47,5.47,0,0,1-.31-.67,6.56,6.56,0,0,1-.34-.9,9.14,9.14,0,0,1-.3-1.1,11.63,11.63,0,0,1-.21-1.25,12.28,12.28,0,0,1-.05-1.37,11.11,11.11,0,0,1,.1-1.4,10.54,10.54,0,0,1,.28-1.38,12.35,12.35,0,0,1,.41-1.3,12.56,12.56,0,0,1,.54-1.16c.1-.17.19-.35.29-.51s.2-.32.3-.46a6.91,6.91,0,0,1,.56-.78,5,5,0,0,1,.49-.56l.43-.47-.4.5a3.93,3.93,0,0,0-.44.59c-.16.23-.35.49-.52.79l-.28.47-.26.52c-.19.35-.32.75-.5,1.15s-.29.83-.39,1.28a12.37,12.37,0,0,0-.26,1.35,12.83,12.83,0,0,0-.11,1.38,11.92,11.92,0,0,0,0,1.34c0,.43.08.85.16,1.24a9.71,9.71,0,0,0,.26,1.09C64.7,211.21,64.79,211.51,64.89,211.78Zm19.86-12.7a11.88,11.88,0,0,1,3.18,6.11,11.32,11.32,0,0,1,.13,3.72,11.59,11.59,0,0,1-1,3.58,12.16,12.16,0,0,1-7.3,6.43,11.79,11.79,0,0,1-4.46.51,10.05,10.05,0,0,1-1.25-.16l-.44-.08.44.07a11.5,11.5,0,0,0,1.26.13,12.35,12.35,0,0,0,4.41-.6,11.72,11.72,0,0,0,5.2-3.43,11.6,11.6,0,0,0,1.93-3,12,12,0,0,0-.27-10.5,11.18,11.18,0,0,0-1.93-2.7,11,11,0,0,0-2.29-1.89,12.07,12.07,0,0,0-4.13-1.66c-.53-.1-1-.15-1.25-.18l-.44,0,.44,0c.29,0,.72.06,1.26.15a11.72,11.72,0,0,1,4.2,1.58A11.18,11.18,0,0,1,84.75,199.08Z"/><path class="cls-8" d="M211.75,190.6a22.91,22.91,0,0,0-2.15-5.2l2.15-2.15L203,174.47l-2.15,2.15a23.18,23.18,0,0,0-5.2-2.15v-3.05H183.21v3.05a23.38,23.38,0,0,0-5.2,2.15l-2.15-2.15-8.78,8.78,2.15,2.15a23.38,23.38,0,0,0-2.15,5.2H164V203h3.05a23.18,23.18,0,0,0,2.15,5.2l-2.15,2.15,8.78,8.78L178,217a22.91,22.91,0,0,0,5.2,2.15v3.05h12.41v-3.05a22.73,22.73,0,0,0,5.2-2.15l2.15,2.15,8.78-8.78-2.15-2.15a22.73,22.73,0,0,0,2.15-5.2h3.05V190.6Zm-22.33,16.83A10.63,10.63,0,1,1,200,196.81,10.64,10.64,0,0,1,189.42,207.43Z"/><path class="cls-9" d="M208.24,202.18l-.25.8a19,19,0,0,1-.83,2.25,20.93,20.93,0,0,1-1.84,3.23,18.05,18.05,0,0,1-3.26,3.58,19.47,19.47,0,0,1-11.1,4.65c-.57,0-1.11.07-1.71.07l-1.69-.08a21.68,21.68,0,0,1-3.46-.63,19.8,19.8,0,0,1-6.42-3.07,20.06,20.06,0,0,1-4.92-5.15,19.74,19.74,0,0,1-3.15-12.74A19.75,19.75,0,0,1,171,189.5a19.37,19.37,0,0,1,4.92-6.95,19.05,19.05,0,0,1,1.87-1.49l.7-.48-.68.51a19.37,19.37,0,0,0-1.79,1.57,20.09,20.09,0,0,0-4.56,7,19.59,19.59,0,0,0-1.2,5.45,20.26,20.26,0,0,0,.54,6.19,18.55,18.55,0,0,0,2.66,6.06,19.73,19.73,0,0,0,10.87,7.88,22.06,22.06,0,0,0,3.28.63l1.69.09c.51,0,1.08,0,1.61,0a19.35,19.35,0,0,0,10.85-4.27,19.79,19.79,0,0,0,3.31-3.39,20.42,20.42,0,0,0,2-3.11A21.28,21.28,0,0,0,208,203Z"/><path class="cls-10" d="M208.31,150.72a7.13,7.13,0,0,1-.46-1.42,9.07,9.07,0,0,1-.38-2.31,2,2,0,0,1,1-1.38c3.23-2.11,7.32-1.87,7.46,2.61a6.82,6.82,0,0,1-.74,3.43.57.57,0,0,0-.07.22c0,.16.17.27.32.32,1,.35,1.82.51,2.35,1.53a5.85,5.85,0,0,1,.43,2.93,6.41,6.41,0,0,0,.48,3.67l-1.9-1a5.64,5.64,0,0,1-1.61-1.11,4.42,4.42,0,0,1-.85-1.79c-.21-.74-.44-1.48-.65-2.22a2.31,2.31,0,0,0-.19-.52,2.57,2.57,0,0,0-.38-.49,1.38,1.38,0,0,0-1.06-.58,6.23,6.23,0,0,1-1.48-.22,3.58,3.58,0,0,1-1.92-1.12A2.81,2.81,0,0,1,208.31,150.72Z"/><path class="cls-11" d="M197.83,172.32l-.08.05a6.14,6.14,0,0,0-.89.53,3,3,0,0,0-.78,1.08.45.45,0,0,1-.2.28.24.24,0,0,1-.27,0c-.19-.16-.12-.33-.13-.56,0,0,0-.08,0-.1l-.09,0a1.8,1.8,0,0,0-.87.37.94.94,0,0,1-.87.15.64.64,0,0,1-.26-.64,1.59,1.59,0,0,1,.32-.7h0a3.65,3.65,0,0,1,1.46-1.1c.39-.19.81-.35,1.21-.54a6.22,6.22,0,0,0,.56-.32,3.9,3.9,0,0,1,.54-.36.57.57,0,0,1,.55.14,1.93,1.93,0,0,1,.64,1.07.38.38,0,0,1,0,.15.3.3,0,0,1-.13.17A4.38,4.38,0,0,1,197.83,172.32Z"/><path class="cls-12" d="M212.62,156.82a6.38,6.38,0,0,0-.81.72c-1.45,1.58-4.7,5-6.15,6.26l-2,1.67c-2.43,2-5.87,4.65-6.76,5.34l-.17.13,0,.05,1.35,1.28.3-.16,0,0c2.52-1.41,5.17-2.56,7.68-4a55.35,55.35,0,0,0,7-5.23l.11-.08.62-.52a4.2,4.2,0,0,0,1.54-4.17,1.94,1.94,0,0,0-.83-1.52A1.69,1.69,0,0,0,212.62,156.82Z"/><path class="cls-11" d="M211.18,161.2a2.12,2.12,0,0,0,.86.49,4.27,4.27,0,0,0,1.13,0,6.39,6.39,0,0,0,1.3-.2,13.78,13.78,0,0,0,2.79-.84,5.19,5.19,0,0,0,2.63-1.95,3.55,3.55,0,0,0,.42-2.47.41.41,0,0,0-.1-.21c-.22-.25-.6-.13-.89-.18a9.22,9.22,0,0,0-1.57-.19,6.26,6.26,0,0,1-1.62-.13,5.84,5.84,0,0,1-1.26-.54,2.24,2.24,0,0,1-.79-.64,2.57,2.57,0,0,1-.69-2c.57-2.39-.85-6.37-4-5a2.35,2.35,0,0,0-1.19,1.25,4,4,0,0,0,.31,3.16,3.92,3.92,0,0,0,1.52,1.53c.53.3,1.1.3,1.4.88a12.68,12.68,0,0,1,.71,1.43,2.34,2.34,0,0,1-.38,1.94c-.14.28-.34.54-.51.81a3.06,3.06,0,0,0-.31.94,8,8,0,0,0-.15,1,1.29,1.29,0,0,0,0,.48,1.19,1.19,0,0,0,.3.44Z"/><path class="cls-10" d="M210.13,149a14.86,14.86,0,0,1,3.47,1.75c.37.27,1,1.07,1.47.82s.27-1.17.22-1.59a3.62,3.62,0,0,0-2.33-2.84,5.59,5.59,0,0,0-2.87-.2c-.54.09-2.37.48-2.17,1.13.12.4.87.53,1.28.64A9.15,9.15,0,0,1,210.13,149Z"/><path class="cls-9" d="M209.58,152.52a1.09,1.09,0,0,0,2-.93Z"/><path class="cls-10" d="M233.32,184.63A32.37,32.37,0,0,0,233,181c-.2-1.47-1-3.59-1.25-5.06,0,0-.66.62-.66.6h-15l-.48,3.52c-.88,6.45.09,12.92.7,19.37q.48,5.28,1,10.55.39,4.19.77,8.36c0,.15.23,2.85.27,2.85h.93l3.16-33.95h3.64l3.15,33.88h.92c.13-1.35.26-2.7.38-4,.3-3.17.59-6.34.89-9.52q.51-5.53,1-11.08A107.76,107.76,0,0,0,233.32,184.63Z"/><path class="cls-12" d="M217.49,220.14a3.36,3.36,0,0,0-2,1.21.68.68,0,0,0,.6,1.06h3.43v-2.89h-1.32a2.67,2.67,0,0,1,0,.49Z"/><path class="cls-12" d="M228.36,220.14a3.36,3.36,0,0,0-2.05,1.21.68.68,0,0,0,.61,1.06h3.42v-2.89H229a2.68,2.68,0,0,1,0,.49C228.81,220.05,228.58,220.09,228.36,220.14Z"/><path class="cls-12" d="M215.92,178.52l16.58-1.4c-1.88-3.39-4.1-10.62-6-14l-1.89-3.26c-.2-.33-.39-.67-.58-1a4.9,4.9,0,0,0-1.65-1.82,8.12,8.12,0,0,0-2.25-1.15c-.14,0-.29-.1-.43-.13a15.63,15.63,0,0,0-2.16-.2,2.36,2.36,0,0,1,.29,2.17,4.18,4.18,0,0,1-2.57,2.36,3.62,3.62,0,0,1-1.55.29,2.7,2.7,0,0,1-1.81-.88,1.16,1.16,0,0,1-.32-.57,3.88,3.88,0,0,1-.1-1l-.14.14a2.45,2.45,0,0,0-.57.67,3.83,3.83,0,0,0-.63,1.3,5,5,0,0,0,0,1.54,7.43,7.43,0,0,0,.36,1.55c.16.45.4.85.56,1.29,1,2.77,2.27,5.18,3.27,8C215,174.43,215.18,176.47,215.92,178.52Z"/><path class="cls-11" d="M203.38,176.12l-.09,0a6,6,0,0,1-.88.53,3,3,0,0,1-1.32.16.52.52,0,0,0-.35,0,.25.25,0,0,0-.1.25c0,.25.23.26.43.38a.16.16,0,0,1,.07.09.08.08,0,0,1,0,.08,1.9,1.9,0,0,1-.74.59c-.27.16-.55.4-.55.69a.62.62,0,0,0,.43.53,1.44,1.44,0,0,0,.77.06h0a3.7,3.7,0,0,0,1.66-.75c.36-.26.7-.55,1.06-.8a5.07,5.07,0,0,1,.55-.34,3.86,3.86,0,0,0,.57-.3.57.57,0,0,0,.15-.55,1.87,1.87,0,0,0-.64-1.07.27.27,0,0,0-.12-.09.39.39,0,0,0-.21,0A4.38,4.38,0,0,0,203.38,176.12Z"/><path class="cls-13" d="M217.84,161.63a80.3,80.3,0,0,1-7.12,8.39,69.36,69.36,0,0,1-7.36,6.18.69.69,0,0,1-.17.13.17.17,0,0,1-.05,0l1.35,1.28.33-.18c2.52-1.4,5.18-2.56,7.68-4a30.64,30.64,0,0,0,6.69-5.66c1.67-1.75,3.32-3.75,3.56-6.16a3.41,3.41,0,0,0-.28-1.92,1.83,1.83,0,0,0-1.57-1c-.92,0-1.59.86-2.12,1.61C218.47,160.76,218.16,161.2,217.84,161.63Z"/><path class="cls-14" d="M128.17,190.8c.13,1.28.27,2.56.4,3.84v.22c0,.39,0,.79-.06,1.18-.2,3.76-.51,7.6-.73,11.4,0,.8-.6,12.34-.71,12.34h-2.33l-.84-11.39c-.41-5.48-.22-11.36-2.75-16.4-.29-.88-2.63-5.94-2.41-6.34a10.25,10.25,0,0,0-.4,2.24c-.22,1.05-.44,2.1-.67,3.15q-.61,3-1.25,6c0,.16-.07.33-.1.5q-2.35,5-4.7,10c-1.44,3.07-2.85,6.19-4.32,9.26a3.82,3.82,0,0,1-1,1.63c-1.1.75-2.31.07-2-1.16.61-2.25,1.45-4.47,2.18-6.69l4.32-13.3q-.54-5.73-.56-11.48c0-3.42-.42-7.5,1-10.7A29.74,29.74,0,0,1,112.7,172c.1-.18,1.31-1.93,1.66-2.62,0-.12.11-.18,0-.29,2.09.8,4.71.85,6.9,1.21l6.06,1a31,31,0,0,0-.75,3.24c-.21,3.56.6,7.38,1,10.9C127.78,187.21,128,189,128.17,190.8Z"/><path class="cls-11" d="M129.93,153.21a13.42,13.42,0,0,1,1.29-1.89c.5-.6.6-.61.51-1.43-.31-2.74,1.82-7,5.16-5a2.65,2.65,0,0,1,1.16,1.56,4.41,4.41,0,0,1-.78,3.48,4.29,4.29,0,0,1-1.9,1.49c-.63.26-1.26.18-1.68.79l-1.7,2.48A11.43,11.43,0,0,0,129.93,153.21Z"/><path class="cls-10" d="M139.22,145.7c.42,1.22.13,3-1.41,3.17a6.41,6.41,0,0,0,.08-.9,2.23,2.23,0,0,0-.55-1.32c0,.14,0,.28-.07.42,0,0-.38-.52-.41-.57a8.2,8.2,0,0,0-.75-.78.49.49,0,0,0,.08.35c0,.11.05.27-.06.33l-.44-.49c-.23-.19-1.09-.63-.86,0,0,.12,0,.29-.08.33a.25.25,0,0,1-.12,0,1.3,1.3,0,0,0-1,.28c.07.09,0,.23-.1.29a4,4,0,0,0-1.75,2.82,6.47,6.47,0,0,1-.46-3.76,4.48,4.48,0,0,1,.61-1.4c.11-.16.44-.42.49-.59s-.07-.21,0-.36,0-.06,0-.09c.19-.16.58-.11.64-.35-.17,0-.17-.32,0-.41a.62.62,0,0,1,.5,0c.14.05.31.11.43,0a.57.57,0,0,0,.17-.28,1.73,1.73,0,0,1,.16-.3.29.29,0,0,1,.14-.13c.09,0,.17.05.23.12s.27.55.46.69c.55.4,1.5.38,2.12.69a5.88,5.88,0,0,1,1.31,1.12A2.58,2.58,0,0,1,139.22,145.7Z"/><path class="cls-9" d="M135.67,150.23a1.36,1.36,0,0,1-2.25-1.52Z"/><path class="cls-10" d="M129.58,220a4.16,4.16,0,0,0-2.59-1.87,3.69,3.69,0,0,0-.45-.11,7.59,7.59,0,0,0-1.65-.1h-.39v3.72h4.31A1.07,1.07,0,0,0,129.58,220Z"/><path class="cls-10" d="M108.45,220.36a4.22,4.22,0,0,0-1.56-2.79l-.37-.29a8.06,8.06,0,0,0-1.45-.77l-.36-.17-1.56,3.38,3.92,1.81A1.07,1.07,0,0,0,108.45,220.36Z"/><path class="cls-10" d="M110.45,176.86,127,180.44l0-.05,8.18-17a8.14,8.14,0,1,0-14.68-7.06L118.19,160a86.26,86.26,0,0,0-6.87,13.5l-.48,1.25Z"/><path class="cls-11" d="M133,167.43c.3,2.51.65,5.54.65,5.54l0,.14c-.13.86-1.58,10.6-1.69,10.59l1.49.18c1.31-3.6,2.52-7.18,3.64-10.84l-.09-8.79c0-.16-.2-.21-.36-.22l-2-.23a2.56,2.56,0,0,0-2,.35Z"/><path class="cls-15" d="M132,183.57a.24.24,0,0,1,0,.08,4,4,0,0,1-.21.75,2,2,0,0,1-.66.74c-.07.05-.16.1-.18.19a.24.24,0,0,0,.09.2c.16.13.27.05.46,0a.08.08,0,0,1,.08,0,.16.16,0,0,1,0,.07,1.35,1.35,0,0,1-.09.71.72.72,0,0,0,.07.69.53.53,0,0,0,.55.12,1,1,0,0,0,.46-.34h0a2.53,2.53,0,0,0,.53-1.26c.06-.33.09-.67.16-1a4.21,4.21,0,0,1,.12-.48,2.27,2.27,0,0,0,.16-.46.52.52,0,0,0-.22-.41,1.7,1.7,0,0,0-1-.34.2.2,0,0,0-.11,0,.26.26,0,0,0-.11.12A3.23,3.23,0,0,0,132,183.57Z"/><circle class="cls-16" cx="87.92" cy="146.68" r="21.06" transform="translate(-83.07 149.54) rotate(-60.02)"/><path class="cls-12" d="M69.64,132.76a23,23,0,0,0,35,29.66l6.12,4.66a4.58,4.58,0,0,0,1.65,4l24,19.61a5.61,5.61,0,0,0,6.8-8.93l-25.3-18a4.56,4.56,0,0,0-4.33-.51l-6.12-4.67a23,23,0,0,0-37.91-25.89Zm4.7,3.58a17.08,17.08,0,1,1,3.24,23.93A17.09,17.09,0,0,1,74.34,136.34Zm22.12-8.25a20,20,0,0,1,5.93,4,20.22,20.22,0,0,1,4.72,22,21.38,21.38,0,0,1-1.52,3.07c-.09.14-.16.29-.25.43l-1.11,1.6-1.2,1.42c-.1.11-.22.2-.32.31a20.13,20.13,0,0,1-11.63,5.86,18.41,18.41,0,0,1-5.4,0,20.35,20.35,0,0,1-2.21-.41c-.67-.18-1.28-.39-1.83-.55a20.73,20.73,0,0,1-2.43-1.09l-.83-.44.86.38a22.16,22.16,0,0,0,2.47.93c.55.13,1.16.3,1.83.45a21.89,21.89,0,0,0,2.19.3,20.31,20.31,0,0,0,5.25-.24,19.52,19.52,0,0,0,5.86-2,20.1,20.1,0,0,0,5.4-4.2l1.19-1.42,1-1.49a21,21,0,0,0,1.64-3.33,20,20,0,0,0-.3-14.79,19.24,19.24,0,0,0-4.09-6,21,21,0,0,0-5.59-4,19.41,19.41,0,0,0-5.93-1.76,20.53,20.53,0,0,0-5.26,0,20,20,0,0,0-4,.93,15,15,0,0,0-1.41.55,8,8,0,0,0-1,.47l-.84.42.81-.48a10.34,10.34,0,0,1,1-.54,13.63,13.63,0,0,1,1.4-.63,19.23,19.23,0,0,1,4-1.15,18.56,18.56,0,0,1,5.4-.22A19.93,19.93,0,0,1,96.46,128.09Z"/><path class="cls-11" d="M120.39,175.53l0,.07a3.81,3.81,0,0,0,.33.71,2,2,0,0,0,.76.62c.09,0,.18.08.21.16a.23.23,0,0,1,0,.22c-.14.15-.27.09-.45.09,0,0-.06,0-.08,0a.11.11,0,0,0,0,.07,1.34,1.34,0,0,0,.2.69.71.71,0,0,1,0,.7.53.53,0,0,1-.52.2,1.13,1.13,0,0,1-.51-.26h0a2.58,2.58,0,0,1-.73-1.16c-.1-.32-.19-.65-.31-1a4.32,4.32,0,0,0-.19-.45,2.46,2.46,0,0,1-.23-.42.49.49,0,0,1,.15-.44,1.75,1.75,0,0,1,.9-.5.25.25,0,0,1,.12,0,.23.23,0,0,1,.12.1A3.53,3.53,0,0,1,120.39,175.53Z"/><path class="cls-11" d="M120.33,160a29.12,29.12,0,0,0-1.94,3.21c-.33.85-.65,1.71-1,2.56l0,.07c.46,1.43.93,2.86,1.4,4.29a56.67,56.67,0,0,0,1.7,5.72l-1.23.89s0,0,0,0c-.93-1.92-1.81-3.85-2.67-5.79l-1.95-4.36c-.6-1.33-1.34-2.62-.69-4.1.43-1,.9-1.92,1.35-2.88.76-1.61,1.49-4,3.51-4.26a2.28,2.28,0,0,1,1.24.1,2,2,0,0,1,1.09,1.76,4.76,4.76,0,0,1-.52,2.11C120.56,159.57,120.45,159.8,120.33,160Z"/><path class="cls-10" d="M114.9,158.39l4.65,4.27,9-7.41a30.42,30.42,0,0,0-2.23-3.16c-.7-.34-2.5.37-3.16.63a25,25,0,0,0-4.53,2.28C117.22,156.09,114.9,158.39,114.9,158.39Z"/><path class="cls-10" d="M137.5,167.72l-5.42-.51-1.38-11a31.85,31.85,0,0,1,3.85-.41c.71.3,1.37,2.12,1.61,2.79a16.53,16.53,0,0,1,.8,3.61C137,162.45,137.51,167.72,137.5,167.72Z"/><path class="cls-11" d="M133.36,186.37a1.75,1.75,0,0,0-1.54-.73c-1.72.22-.76,1.94.36,2.26a1.25,1.25,0,0,0,1.27-.23A1,1,0,0,0,133.36,186.37Zm-2.21-.47,0,0h0a.12.12,0,0,1,.05,0,.47.47,0,0,1,.56-.15,1,1,0,0,0-.51.14l.2,0h0a.68.68,0,0,0-.35.22S131.15,185.92,131.15,185.9Zm.43-.14.28,0,.26.12A.88.88,0,0,0,131.58,185.76Z"/><path class="cls-15" d="M131.21,185.83l0,0,.09-.05Z"/><path class="cls-17" d="M151.34,134.53c0,1,0,2,.07,3a1.37,1.37,0,0,0,.05.4.94.94,0,0,0,.74.57,15,15,0,0,0,2,.09l2.42.08c.66,0,.53-.86.21-1.16a1.56,1.56,0,0,0-.6-.31l-.93-.32a2.67,2.67,0,0,1-.62-.28c-.53-.37-.75-1.73-.77-2.32h-2.59Z"/><path class="cls-11" d="M142.1,69.07c.55-1.4.94-2.84,1.57-4.21a1.83,1.83,0,0,1,.42-.64.3.3,0,0,1,.23-.1c.15,0,.19.2.18.35a11.17,11.17,0,0,1-.64,1.87.37.37,0,0,0,0,.18.31.31,0,0,0,.14.16c.4.27.94.28,1.2.73.56,1-1.57,2-2.24,2.27Z"/><path class="cls-14" d="M130,89.73c1.86-1.83,3.55-3.87,5.28-5.81.66-.74,1.3-1.5,1.91-2.29a15.52,15.52,0,0,0,1.05-1.7c.41-.75,5.71-10,5.66-10.07l-2.09-1.5q-2.62,3.54-5.4,6.94A22.33,22.33,0,0,1,134,77.9c-1,.88-2.11,1.59-3.17,2.38-1.55,1.15-3,2.39-4.55,3.58s-2.76,2.06-3.33,3.84a3.22,3.22,0,0,0,4.6,4.07,6.82,6.82,0,0,0,1.18-.9C129.17,90.5,129.58,90.12,130,89.73Z"/><path class="cls-10" d="M154.48,135.38H151c-.25-3.1-.64-6.17-1.15-9.24-.05-.37-.11-.72-.17-1.08a20.47,20.47,0,0,1,.18-9.15c-.92,0-1.85,0-2.77,0l-1.76,0-1.73,0-8.27.17-3.44.07-.42-.08c-8.14-1.78-3.8-8.16-3.8-8.16h8.44c1.85,0,3.77.74,5.63.85a76.85,76.85,0,0,1,7.89,1.33c1.63.26,3.12.47,4.12,1.72s.77,2.54.75,3.91c0,1.8-.06,3.59-.08,5.39C154.36,122.16,154.24,132.49,154.48,135.38Z"/><path class="cls-14" d="M146.81,134.53l.07,3a1.83,1.83,0,0,0,.05.4.94.94,0,0,0,.74.57,15,15,0,0,0,2,.09l2.43.08c.65,0,.52-.86.2-1.16a1.5,1.5,0,0,0-.6-.31l-.93-.32a2.6,2.6,0,0,1-.61-.28c-.53-.37-.75-1.73-.78-2.32h-2.59Z"/><path class="cls-18" d="M150,135.38h-3.54c-.28-3.46-.73-6.88-1.32-10.29a20.33,20.33,0,0,1,.18-9.12v0c-.92,0-1.84,0-2.77,0L139,116l-7.6.16a6.34,6.34,0,0,1-4-1.94,3.92,3.92,0,0,1-1-2.63,6.1,6.1,0,0,1,.55-2.41c.63-1.43,2.3-1.79,3.74-1.85a33.06,33.06,0,0,1,9.92,1.46c1.66.45,3.31.93,5,1.36a6.17,6.17,0,0,1,3.53,1.76c.92,1.14.77,2.54.75,3.91,0,1.79-.06,3.58-.08,5.37,0,.42,0,2.49,0,5C149.8,129.56,149.81,133.71,150,135.38Z"/><path class="cls-14" d="M125.23,84.09h-.1c-4.77.33-6.39,6.36-6,10.32a23.78,23.78,0,0,0,.58,3.12c1.38,5.93,2.29,12.13,5.2,17.55l9.93-6.92a1.57,1.57,0,0,0,.46-.43,1.45,1.45,0,0,0,.11-.75,41.81,41.81,0,0,0-.57-4.73c-.46-2.9-.93-5.8-1.39-8.69-.42-2.7-.83-5-2.75-7.1A7,7,0,0,0,125.23,84.09Z"/><path class="cls-11" d="M128.9,78.64a5.07,5.07,0,0,1-1,2.72c-.49.65-1.18,1-1.23,1.86s-.11,1.62-.18,2.44a2.67,2.67,0,0,1-2.86,0c0-1.17.35-2.64-.41-3.6-2-2.59-2.51-8.24,2.14-8.32a3.24,3.24,0,0,1,2.16.86A5.24,5.24,0,0,1,128.9,78.64Z"/><path class="cls-9" d="M128.08,79.17a1.62,1.62,0,1,1-3.23.09Z"/><path class="cls-10" d="M125.78,75.65c-1.68.35-2.48,1-2.81,2.64-.07-.15-.21-.19-.32,0a3.5,3.5,0,0,0-.3.78,3,3,0,0,0,0,1,4.06,4.06,0,0,0,.26,1c-.66,0-1-.68-1.38-1.13a4.61,4.61,0,0,1-.8-1.81,5.35,5.35,0,0,1,.78-4.68,4.75,4.75,0,0,1,3-1.82,24.5,24.5,0,0,1,2.71,0,3,3,0,0,0,2.41-1c.45,1.24.64,2.74-.18,3.76s-2.07,1.13-3.24,1.36Z"/><polygon class="cls-10" points="134.46 76.43 136.31 76.11 137.16 81.63 135.88 81.76 134.46 76.43"/><polygon class="cls-10" points="134.19 82.11 137.58 80.26 139.06 81.45 139.17 81.95 134.46 82.56 134.19 82.11"/><polygon class="cls-10" points="148.09 70.33 148.66 69.1 151.14 83.76 150.24 83.32 148.4 79.84 148.09 70.33"/><path class="cls-10" d="M139.65,87.07c-.46-.77-1.34-1.78-1.23-2.72.08-.63.57-1.14.72-1.75a2,2,0,0,0,0-.65,23.78,23.78,0,0,0-2.54.25h0l-.24,0h0l-1.93.32,1.59,2.7,2.61,4.45a1.08,1.08,0,0,0,1.12.52,1.09,1.09,0,0,0,.76-1.63Z"/><path class="cls-10" d="M151.14,74.48l.61,3.74a1.91,1.91,0,0,0-.61-3.74Z"/><path class="cls-10" d="M136.46,79.67l.33,2c.39-.06,1.2-.16,2.28-.23,2.85-.17,7.56-.08,11.17,1.87l-.89-5.41-.11-.62-.18-1.12-.1-.62-.87-5.23c-3.83,4.15-10.8,5.62-12.21,5.88Z"/><path class="cls-12" d="M149,68.45a.69.69,0,0,0-.56.76v0l.93,5.65.06.33.06.39.35,2.1.06.39.06.33,1,5.83a0,0,0,0,0,0,0,.66.66,0,0,0,.76.52.67.67,0,0,0,.56-.77l-.87-5.24,0-.25,0-.24-.62-3.74,0-.24,0-.24L149.74,69A.68.68,0,0,0,149,68.45Z"/><polygon class="cls-12" points="136.01 79.95 135.4 76.28 131.52 76.92 132.43 82.4 134.19 82.11 136.31 81.76 136.01 79.95"/><path class="cls-8" d="M159.22,75h0l-5.17.86a.25.25,0,0,0-.2.29.25.25,0,0,0,.28.2h0l5.17-.87a.25.25,0,0,0,.2-.28A.23.23,0,0,0,159.22,75Z"/><path class="cls-8" d="M153.49,75.11a.23.23,0,0,0,.24.1.17.17,0,0,0,.1,0l4.38-2.88a.25.25,0,0,0,.07-.34.25.25,0,0,0-.34-.07l-4.38,2.87A.25.25,0,0,0,153.49,75.11Z"/><path class="cls-8" d="M152.92,74.34a.22.22,0,0,0,.16-.11l2.85-4.39a.24.24,0,0,0-.07-.34.25.25,0,0,0-.34.07L152.67,74a.25.25,0,0,0,.07.34A.29.29,0,0,0,152.92,74.34Z"/><path class="cls-8" d="M159.18,78.21l-5.07-1.31a.24.24,0,0,0-.3.18.26.26,0,0,0,.18.3l5.07,1.31a.17.17,0,0,0,.1,0,.22.22,0,0,0,.2-.18A.24.24,0,0,0,159.18,78.21Z"/><path class="cls-8" d="M153.71,78a.25.25,0,1,0-.3.39l4.11,3.24a.25.25,0,0,0,.19,0,.24.24,0,0,0,.15-.09.24.24,0,0,0,0-.35Z"/><path class="cls-19" d="M122.62,77.75a.6.6,0,0,0-.69-.1.65.65,0,0,0-.28.49,1.25,1.25,0,0,0,.1.57,2.27,2.27,0,0,0,.69.93.62.62,0,0,0,.26.12c.21,0,.37-.17.47-.36a1.65,1.65,0,0,0-.15-1.17A1.44,1.44,0,0,0,122.62,77.75Z"/><path class="cls-11" d="M138.19,92.33c-.05-1.19-.56-2.1-.36-3.32a3.13,3.13,0,0,1,.47-1.3,1.49,1.49,0,0,1,1.17-.67,1,1,0,0,1,1,.8c.07.51-.33,1-.54,1.42-.54,1.21.6,4.2-1.31,4.35a.3.3,0,0,1-.16,0,.37.37,0,0,1-.13-.22A4.49,4.49,0,0,1,138.19,92.33Z"/><path class="cls-14" d="M123.48,92.53A39.08,39.08,0,0,0,129.94,98a41.69,41.69,0,0,0,8.94,5.26,2.07,2.07,0,0,0,1,.24c.3-.07.43-.38.55-.71a14.83,14.83,0,0,0,.76-4.41,65.37,65.37,0,0,0-.48-7.05l-3,.13A31.86,31.86,0,0,1,137,96.7c-1.8-1.53-3.63-3-5.42-4.58-1.58-1.39-3.11-2.8-4.8-4.06a9.4,9.4,0,0,0-1.92-1.21,3.44,3.44,0,0,0-2.21-.23,2,2,0,0,0-1.46,1.49,2.61,2.61,0,0,0,.07.92A8.56,8.56,0,0,0,123.48,92.53Z"/><path class="cls-8" d="M187,69a3.17,3.17,0,0,0,.1-.76,3,3,0,0,0-3-3,2.91,2.91,0,0,0-1.54.44,5.69,5.69,0,0,0-11.09,1.82v0a4,4,0,0,0-1.21-.2,3.75,3.75,0,0,0,0,7.49h16.13a1.77,1.77,0,0,0,.33,0A3,3,0,0,0,187,69Z"/><polygon class="cls-9" points="176.56 69.54 173.78 67.94 173.78 71.15 176.56 69.54"/><polygon class="cls-9" points="179.8 69.54 177.02 67.94 177.02 71.15 179.8 69.54"/><polygon class="cls-9" points="183.04 69.54 180.26 67.94 180.26 71.15 183.04 69.54"/><path class="cls-11" d="M216.56,117.18a16.63,16.63,0,0,1-21,5.89l-3.13,7.1a24.2,24.2,0,0,0,10.23,2.27,24.45,24.45,0,0,0,20.56-11.23Z"/><path class="cls-8" d="M185.9,108A16.73,16.73,0,0,1,202,91.27V83.5a24.45,24.45,0,0,0-9.61,46.67l3.13-7.1A16.73,16.73,0,0,1,185.9,108Z"/><path class="cls-12" d="M219.35,108a16.57,16.57,0,0,1-2.79,9.22l6.62,4a24.38,24.38,0,0,0-5.37-32.43l-4.87,6A16.7,16.7,0,0,1,219.35,108Z"/><path class="cls-7" d="M202.62,91.23a16.65,16.65,0,0,1,10.32,3.59l4.87-6a24.39,24.39,0,0,0-15.19-5.31c-.21,0-.41,0-.62,0v7.77C202.21,91.26,202.41,91.23,202.62,91.23Z"/><rect class="cls-8" x="161.34" y="91.42" width="1.84" height="10.09" transform="translate(60.47 255.44) rotate(-88.1)"/><polygon class="cls-8" points="151.72 96.11 160.37 92.81 160.13 99.99 151.72 96.11"/><path class="cls-7" d="M188.82,106.08A10.52,10.52,0,0,0,180.63,89V99.48Z"/><path class="cls-14" d="M180.63,89A10.51,10.51,0,0,0,172.39,106l8.24-6.53Z"/><path class="cls-12" d="M180.63,99.48,172.39,106a10.51,10.51,0,0,0,16.43.07Z"/><path class="cls-12" d="M198.06,100.41a1.06,1.06,0,1,1-1.05-1A1.05,1.05,0,0,1,198.06,100.41Z"/><path class="cls-20" d="M198.06,105.44a1.06,1.06,0,1,1-1.05-1.06A1.05,1.05,0,0,1,198.06,105.44Z"/><path class="cls-7" d="M198.06,105.44a1.06,1.06,0,1,1-1.05-1.06A1.05,1.05,0,0,1,198.06,105.44Z"/><path class="cls-20" d="M198.06,110.47a1.06,1.06,0,1,1-1.05-1.06A1.06,1.06,0,0,1,198.06,110.47Z"/><path class="cls-8" d="M198.06,110.47a1.06,1.06,0,1,1-1.05-1.06A1.06,1.06,0,0,1,198.06,110.47Z"/><path class="cls-11" d="M198.06,115.5a1.06,1.06,0,1,1-1.05-1.06A1.06,1.06,0,0,1,198.06,115.5Z"/><rect class="cls-21" x="199.77" y="99.72" width="8.91" height="0.32"/><rect class="cls-21" x="199.77" y="100.78" width="8.91" height="0.32"/><rect class="cls-21" x="199.77" y="104.79" width="8.91" height="0.32"/><rect class="cls-21" x="199.77" y="105.84" width="8.91" height="0.32"/><rect class="cls-21" x="199.77" y="109.85" width="8.91" height="0.32"/><rect class="cls-21" x="199.77" y="110.91" width="8.91" height="0.32"/><rect class="cls-21" x="199.77" y="114.91" width="8.91" height="0.32"/><rect class="cls-21" x="199.77" y="115.97" width="8.91" height="0.32"/><path class="cls-7" d="M87.92,137.74A9.07,9.07,0,1,0,97,146.81,9.07,9.07,0,0,0,87.92,137.74Zm0,17.12a8.05,8.05,0,1,1,8-8.05A8.06,8.06,0,0,1,87.92,154.86Z"/><path class="cls-7" d="M87.92,139.12a7.69,7.69,0,1,0,7.69,7.69A7.7,7.7,0,0,0,87.92,139.12Zm-3.56,10.49.83-1.69a5.3,5.3,0,0,0,3,1.25c.64,0,1-.23,1-.67,0-1.4-4.36-.55-4.36-3.48a2.55,2.55,0,0,1,2.46-2.46v-1.74H88.9v1.73a6,6,0,0,1,2.58.88l-.81,1.71a6.41,6.41,0,0,0-2.67-.88c-.52,0-.86.18-.86.56,0,1.37,4.35.59,4.35,3.56,0,1.45-1.11,2.3-2.59,2.5v1.81H87.33v-1.82A6,6,0,0,1,84.36,149.61Z"/><path class="cls-22" d="M166.91,162.24a3.39,3.39,0,0,0,.12-.91,3.53,3.53,0,0,0-5.37-3,6.8,6.8,0,0,0-13.24,2.17v.07a4.58,4.58,0,0,0-1.44-.24,4.47,4.47,0,0,0,0,8.94h19.25a2.56,2.56,0,0,0,.39,0,3.53,3.53,0,0,0,.29-7Z"/><polygon class="cls-9" points="154.45 162.9 151.13 160.98 151.13 164.81 154.45 162.9"/><polygon class="cls-9" points="158.32 162.9 155 160.98 155 164.81 158.32 162.9"/><polygon class="cls-9" points="162.19 162.9 158.87 160.98 158.87 164.81 162.19 162.9"/><rect class="cls-7" x="86.79" y="96.3" width="21.03" height="14.47" transform="translate(-37.14 57.58) rotate(-27.91)"/><polygon class="cls-9" points="103.21 92.22 102.71 92.48 97.13 103.18 85.14 101.79 84.63 102.06 84.82 102.41 95.1 103.6 91.2 114.45 91.4 114.84 91.83 114.62 95.77 103.67 97.49 103.87 98.3 102.33 109.56 105.22 109.98 105 109.78 104.62 98.61 101.74 103.4 92.57 103.21 92.22"/></g></g></svg>