<svg id="ระบบงานยุทธศาสตร์เพื่อใช้ติดตามแผนการดำเนินงาน" xmlns="http://www.w3.org/2000/svg" viewBox="0 0 363.42 378.38"><defs><style>.cls-1{fill:#0027e9;opacity:0.21;}.cls-2{fill:#1b75bc;}.cls-3{fill:#be1e2d;}.cls-4{fill:#fff;}.cls-5{fill:#31324d;}</style></defs><title>taskplan</title><path class="cls-1" d="M429.78,303.78C422.83,403.6,348.66,485,248.6,485A181.18,181.18,0,0,1,67.42,303.78C67.42,203.72,223.6,57.86,248.6,122.6,334.39,344.75,442.7,118,429.78,303.78Z" transform="translate(-67.42 -106.58)"/><path class="cls-2" d="M351.22,193.49H272.13V448.34h79.09a17.58,17.58,0,0,0,17.58-17.58V211.06A17.58,17.58,0,0,0,351.22,193.49ZM338,426.37H289.7V378H338Z" transform="translate(-67.42 -106.58)"/><path class="cls-3" d="M131.52,193.49a17.58,17.58,0,0,0-17.58,17.57v219.7a17.58,17.58,0,0,0,17.58,17.58H272.13V193.49Z" transform="translate(-67.42 -106.58)"/><rect class="cls-4" x="222.29" y="271.45" width="48.33" height="48.33"/><rect class="cls-4" x="222.29" y="187.97" width="48.33" height="48.33"/><rect class="cls-4" x="222.29" y="108.88" width="48.33" height="48.33"/><path class="cls-5" d="M351.22,189.09H131.52a22,22,0,0,0-22,22v219.7a22,22,0,0,0,22,22h219.7a22,22,0,0,0,22-22V211.06A22,22,0,0,0,351.22,189.09ZM267.73,360.46H118.34V281.37H267.73ZM131.52,197.88H267.73v74.7H118.34V211.06A13.2,13.2,0,0,1,131.52,197.88ZM118.34,430.76V369.25H267.73v74.69H131.52A13.19,13.19,0,0,1,118.34,430.76Zm246.06,0a13.19,13.19,0,0,1-13.18,13.18h-74.7V197.88h74.7a13.2,13.2,0,0,1,13.18,13.18Z" transform="translate(-67.42 -106.58)"/><path class="cls-5" d="M289.7,268.19H338a4.39,4.39,0,0,0,4.39-4.4V246.22h-8.79V259.4H294.1V219.85h13.18v-8.79H289.7a4.39,4.39,0,0,0-4.39,4.4v48.33A4.39,4.39,0,0,0,289.7,268.19Z" transform="translate(-67.42 -106.58)"/><path class="cls-5" d="M316.07,240,306,229.93l-6.21,6.21L313,249.32a4.39,4.39,0,0,0,6.22,0l30.75-30.76-6.21-6.21Z" transform="translate(-67.42 -106.58)"/><path class="cls-5" d="M333.64,338.49H294.1V298.94h13.18v-8.78H289.7a4.38,4.38,0,0,0-4.39,4.39v48.33a4.39,4.39,0,0,0,4.39,4.4H338a4.39,4.39,0,0,0,4.39-4.4V325.31h-8.79Z" transform="translate(-67.42 -106.58)"/><path class="cls-5" d="M316.07,319.09,306,309l-6.21,6.21L313,328.41a4.39,4.39,0,0,0,6.22,0l30.75-30.75-6.21-6.22Z" transform="translate(-67.42 -106.58)"/><path class="cls-5" d="M338,373.64H289.7a4.39,4.39,0,0,0-4.39,4.4v48.33a4.38,4.38,0,0,0,4.39,4.39H338a4.38,4.38,0,0,0,4.39-4.39V378A4.39,4.39,0,0,0,338,373.64ZM333.64,422H294.1V382.43h39.54Z" transform="translate(-67.42 -106.58)"/><rect class="cls-5" x="59.71" y="122.06" width="57.12" height="8.79"/><rect class="cls-5" x="90.47" y="209.94" width="57.12" height="8.79"/><rect class="cls-5" x="134.41" y="293.42" width="57.12" height="8.79"/></svg>