<svg xmlns="http://www.w3.org/2000/svg">
<defs>
<font id="DBHeaventt-Light" horiz-adv-x="0" >
  <font-face 
    font-family="DB Heavent Light"
    font-weight="300"
    font-stretch="normal"
    units-per-em="4096"
    panose-1="2 0 5 6 6 0 0 2 0 4"
    ascent="3276"
    descent="-820"
    x-height="1458"
    cap-height="1955"
    bbox="-2019 -1229 3473 3187"
    underline-thickness="82"
    underline-position="-463"
    unicode-range="U+000D-U+F880"
  />
<missing-glyph horiz-adv-x="1151" 
d="M1176 1114v-41h16c13.333 0 20 9.66699 20 29c-0.666992 2 -2 4 -4 6c-4 4 -9.33301 6 -16 6h-16zM1184 1069l-8 0.000976562v-37h-13v94h29c10 0 18 -2 24 -6s9 -10 9 -18c0 -16.667 -2.83301 -26.334 -8.5 -29.001s-12.5 -4 -20.5 -4l29 -37h-13zM1192 1020
c11.333 0 20.833 1.83301 28.5 5.5s14 8.16699 19 13.5s8.5 11 10.5 17s3 11.667 3 17c0 22.667 -5.5 39.334 -16.5 50.001s-25.833 16 -44.5 16s-34.334 -5.33301 -47.001 -16s-19 -27.334 -19 -50.001c0 -14.667 4.83301 -27.167 14.5 -37.5s26.834 -15.5 51.501 -15.5z
M1192 1147c22.667 0 40 -6.66699 52 -20s18 -31.333 18 -54c0 -14.667 -6 -28.5 -18 -41.5s-29.333 -19.5 -52 -19.5c-24.667 0 -43.167 6.5 -55.5 19.5s-18.5 26.833 -18.5 41.5c0 22.667 6.16699 40.667 18.5 54s30.833 20 55.5 20zM561 881.001
c18 -2 39.165 -4.5 63.498 -7.5s49.833 -6.5 76.5 -10.5s53.834 -8.5 81.501 -13.5s53.834 -10.5 78.501 -16.5s46.5 -12.5 65.5 -19.5s33.833 -14.5 44.5 -22.5c-19.333 36 -44.333 68.167 -75 96.5s-64.5 52.333 -101.5 72s-75.833 34.667 -116.5 45s-81 15.5 -121 15.5
c-32 0 -63.5 -3 -94.5 -9s-60.667 -15.167 -89 -27.5s-54.5 -27.833 -78.5 -46.5s-44.667 -40.334 -62 -65.001c33.333 2.66699 67 4.83398 101 6.50098s67.333 2.5 100 2.5h127zM1049 1102l-0.000976562 -397.002c-93.333 26.667 -197.166 49.667 -311.499 69
s-234.5 29 -360.5 29c-88.667 0 -176 -4 -262 -12c8 40.667 24.167 79.834 48.5 117.501s55.5 70.834 93.5 99.501s82 51.5 132 68.5s104.667 25.5 164 25.5c57.333 0 109 -6.5 155 -19.5s86.5 -29.167 121.5 -48.5s64.333 -40 88 -62s41.5 -41.667 53.5 -59v189h78z

<glyph glyph-name="plusminus" unicode="&#x2b;&#x2d;" horiz-adv-x="1679" 
d="M127 164h1425v-164h-1425v164zM758 1667h164v-626h630v-164h-630v-627h-164v627h-631v164h631v626z" />
    <glyph glyph-name="ellipsis" unicode="&#x2e;&#x2e;&#x2e;" horiz-adv-x="2798" 
d="M340 0v311h254v-311h-254zM1274 0v311h250v-311h-250zM2204 0v311h254v-311h-254z" />
    <glyph glyph-name="lessequal" unicode="&#x3c;&#x3d;" horiz-adv-x="1679" 
d="M1556 377l-1437 647v168l1437 651v-172l-1232 -561l1232 -565v-168zM1556 29h-1437v159h1437v-159z" />
    <glyph glyph-name="greaterequal" unicode="&#x3e;&#x3d;" horiz-adv-x="1683" 
d="M123 545l1237 565l-1237 561v172l1438 -651v-168l-1438 -647v168zM1561 29h-1438v159h1438v-159z" />
    <glyph glyph-name="fongmanfunnuthai" unicode="&#xe4f;&#x22;" horiz-adv-x="2028" 
d="M131 840c0 80.667 10.5 158.167 31.5 232.5s50.5 144 88.5 209s83.667 124.167 137 177.5s112.5 99 177.5 137s134.833 67.5 209.5 88.5s152.334 31.5 233.001 31.5s158.167 -10.5 232.5 -31.5s144 -50.5 209 -88.5s124.167 -83.667 177.5 -137s99 -112.5 137 -177.5
s67.5 -134.667 88.5 -209s31.5 -151.833 31.5 -232.5s-10.5 -158.334 -31.5 -233.001s-50.5 -144.5 -88.5 -209.5s-83.667 -124.167 -137 -177.5s-112.5 -99 -177.5 -137s-134.667 -67.5 -209 -88.5s-151.833 -31.5 -232.5 -31.5s-158.334 10.5 -233.001 31.5
s-144.5 50.5 -209.5 88.5s-124.167 83.667 -177.5 137s-99 112.5 -137 177.5s-67.5 134.833 -88.5 209.5s-31.5 152.334 -31.5 233.001zM319 840c0 -63.333 8.16699 -124.333 24.5 -183s39.5 -113.5 69.5 -164.5s65.833 -97.5 107.5 -139.5s88.167 -77.833 139.5 -107.5
s106.333 -52.667 165 -69s119.667 -24.5 183 -24.5s124.333 8.16699 183 24.5s113.5 39.333 164.5 69s97.5 65.5 139.5 107.5s77.833 88.5 107.5 139.5s52.667 105.833 69 164.5s24.5 119.667 24.5 183s-8.16699 124.333 -24.5 183s-39.333 113.5 -69 164.5
s-65.5 97.5 -107.5 139.5s-88.5 77.833 -139.5 107.5s-105.833 52.667 -164.5 69s-119.667 24.5 -183 24.5s-124.333 -8.16699 -183 -24.5s-113.667 -39.333 -165 -69s-97.833 -65.5 -139.5 -107.5s-77.5 -88.5 -107.5 -139.5s-53.167 -105.833 -69.5 -164.5
s-24.5 -119.667 -24.5 -183zM516 840c0 67.333 13 130.833 39 190.5s61.167 111.667 105.5 156s96.333 79.5 156 105.5s123.5 39 191.5 39c67.333 0 130.833 -13 190.5 -39s111.667 -61.167 156 -105.5s79.5 -96.333 105.5 -156s39 -123.167 39 -190.5
c0 -68 -13 -131.833 -39 -191.5s-61.167 -111.667 -105.5 -156s-96.333 -79.5 -156 -105.5s-123.167 -39 -190.5 -39c-68 0 -131.833 13 -191.5 39s-111.667 61.167 -156 105.5s-79.5 96.333 -105.5 156s-39 123.5 -39 191.5zM688 840c0 -44 8.33301 -85.5 25 -124.5
s39.5 -73 68.5 -102s63 -51.833 102 -68.5s80.5 -25 124.5 -25s85.333 8.33301 124 25s72.5 39.5 101.5 68.5s51.833 63 68.5 102s25 80.5 25 124.5s-8.33301 85.333 -25 124s-39.5 72.5 -68.5 101.5s-62.833 51.833 -101.5 68.5s-80 25 -124 25s-85.5 -8.33301 -124.5 -25
s-73 -39.5 -102 -68.5s-51.833 -62.833 -68.5 -101.5s-25 -80 -25 -124zM1110 2388h188l-28 -414h-127zM733 2388h185l-33 -414h-123z" />
    <glyph glyph-name="dochadaphinthuthai" unicode="&#xe0e;&#xe3a;" horiz-adv-x="1757" 
d="M1274 -713c0 22.667 4.5 44.167 13.5 64.5s21.167 38.166 36.5 53.499s33.166 27.5 53.499 36.5s41.833 13.5 64.5 13.5s43.834 -4.5 63.501 -13.5s37 -21.167 52 -36.5s26.833 -33.166 35.5 -53.499s13 -41.833 13 -64.5s-4.33301 -43.834 -13 -63.501
s-20.5 -37 -35.5 -52s-32.333 -26.833 -52 -35.5s-40.834 -13 -63.501 -13s-44.167 4.33301 -64.5 13s-38.166 20.5 -53.499 35.5s-27.5 32.333 -36.5 52s-13.5 40.834 -13.5 63.501zM1368 1049c0 40 -3.00195 80.168 -9.00195 120.501s-16.667 79 -32 116
s-35.666 71.667 -60.999 104s-57.166 60.333 -95.499 84s-84.166 42.5 -137.499 56.5s-115 21.333 -185 22c-90 0.666992 -167.333 -11 -232 -35s-118.334 -54 -161.001 -90s-75.5 -74.167 -98.5 -114.5s-38.167 -76.5 -45.5 -108.5c45.333 -26.667 78.5 -66.667 99.5 -120
s31.5 -117 31.5 -191v-815h-381v151h177v668c0 30 -1.33301 59.667 -4 89s-8.66699 57.333 -18 84s-23 51.167 -41 73.5s-42.333 41.166 -73 56.499c16.667 64.667 43.167 127.834 79.5 189.501s84.5 116.667 144.5 165s133 87.333 219 117s187 44.5 303 44.5
c96 0 180.667 -9 254 -27s136.833 -43 190.5 -75s98.5 -69.833 134.5 -113.5s64.833 -91.667 86.5 -144s37 -107.666 46 -165.999s13.5 -117.833 13.5 -178.5v-1393h-225c-17.333 26.667 -40.5 51 -69.5 73s-62.333 41 -100 57s-79 28.333 -124 37s-92.167 13 -141.5 13
c-51.333 0 -101.5 -6.66699 -150.5 -20s-94.333 -30 -136 -50s-78.334 -42 -110.001 -66s-55.167 -47 -70.5 -69v201c12.667 11.333 33.834 26 63.501 44s65.334 35.667 107.001 53s88 32.166 139 44.499s103.5 18.5 157.5 18.5c55.333 0 106 -4.16699 152 -12.5
s87.667 -19.5 125 -33.5s70.666 -29.833 99.999 -47.5s55.333 -35.834 78 -54.501v1242z" />
    <glyph glyph-name="topatakphintuthai" unicode="&#xe0f;&#xe3a;" horiz-adv-x="1757" 
d="M1274 -713c0 22.667 4.5 44.167 13.5 64.5s21.167 38.166 36.5 53.499s33.166 27.5 53.499 36.5s41.833 13.5 64.5 13.5s43.834 -4.5 63.501 -13.5s37 -21.167 52 -36.5s26.833 -33.166 35.5 -53.499s13 -41.833 13 -64.5s-4.33301 -43.834 -13 -63.501
s-20.5 -37 -35.5 -52s-32.333 -26.833 -52 -35.5s-40.834 -13 -63.501 -13s-44.167 4.33301 -64.5 13s-38.166 20.5 -53.499 35.5s-27.5 32.333 -36.5 52s-13.5 40.834 -13.5 63.501zM1368 1049c0 40 -3 80.1641 -9 120.497s-16.667 79 -32 116s-35.666 71.667 -60.999 104
s-57.166 60.333 -95.499 84s-84.166 42.5 -137.499 56.5s-115 21.333 -185 22c-90 0.666992 -167.333 -11 -232 -35s-118.334 -54 -161.001 -90s-75.5 -74.167 -98.5 -114.5s-38.167 -76.5 -45.5 -108.5c45.333 -26.667 78.5 -66.667 99.5 -120s31.5 -117 31.5 -191v-815
h-381v151h177v668c0 30 -1.33301 59.667 -4 89s-8.66699 57.333 -18 84s-23 51.167 -41 73.5s-42.333 41.166 -73 56.499c16.667 64.667 43.167 127.834 79.5 189.501s84.5 116.667 144.5 165s133 87.333 219 117s187 44.5 303 44.5c96 0 180.667 -9 254 -27
s136.833 -43 190.5 -75s98.5 -69.833 134.5 -113.5s64.833 -91.667 86.5 -144s37 -107.666 46 -165.999s13.5 -117.833 13.5 -178.5v-1405h-213c-12 27.333 -25.333 53 -40 77s-31.834 44.833 -51.501 62.5s-42.667 31.5 -69 41.5s-57.5 15 -93.5 15
c-34 0 -63.333 -5.83301 -88 -17.5s-45.667 -26.834 -63 -45.501s-31 -39.667 -41 -63s-17 -46.666 -21 -69.999h-188c-7.33301 23.333 -16.333 47 -27 71s-24.334 45.5 -41.001 64.5s-36.834 34.5 -60.501 46.5s-51.834 18 -84.501 18c-26 0 -49.167 -5.66699 -69.5 -17
s-38 -26.333 -53 -45s-27 -40 -36 -64s-15.167 -48.667 -18.5 -74h-180c5.33301 55.333 17.833 104.5 37.5 147.5s44.834 79.333 75.501 109s66 52.334 106 68.001s83 23.5 129 23.5c30.667 0 61.167 -3.33301 91.5 -10s59.166 -18 86.499 -34s52.833 -37.167 76.5 -63.5
s44.167 -58.833 61.5 -97.5c17.333 40.667 38.333 74.334 63 101.001s50.834 47.667 78.501 63s55.834 26 84.501 32s55.667 9 81 9c56 0 104.833 -11.333 146.5 -34s80.167 -57.667 115.5 -105v1233z" />
    <glyph glyph-name="dochadasarauthai" unicode="&#xe0e;&#xe38;" horiz-adv-x="1757" 
d="M1384 -1118v413h-147v136h340v-549h-193zM1372 1049c0 59.333 -7.50488 118.668 -22.5049 178.001s-41 113 -78 161s-86.833 87 -149.5 117s-141.667 45.667 -237 47c-80 0.666992 -150.333 -9 -211 -29s-112.167 -46.5 -154.5 -79.5s-75.666 -70.5 -99.999 -112.5
s-39.833 -84.333 -46.5 -127c42.667 -24.667 75.834 -61.667 99.501 -111s35.5 -116 35.5 -200v-815h-381v151h176v668c0 42 -2 79.333 -6 112s-11.167 61.334 -21.5 86.001s-24.166 46 -41.499 64s-39.333 33 -66 45c13.333 63.333 38.166 125.666 74.499 186.999
s84.333 116 144 164s131 86.833 214 116.5s177.833 44.5 284.5 44.5c90.667 0 170.834 -9 240.501 -27s130.167 -43 181.5 -75s94.166 -69.833 128.499 -113.5s62 -91.667 83 -144s36 -107.666 45 -165.999s13.5 -117.833 13.5 -178.5v-1393h-225
c-17.333 26.667 -40.5 51 -69.5 73s-62.333 41 -100 57s-79 28.333 -124 37s-91.833 13 -140.5 13c-51.333 0 -101.666 -6.66699 -150.999 -20s-94.833 -30 -136.5 -50s-78.167 -42 -109.5 -66s-54.666 -47 -69.999 -69v201c12 11.333 33 26 63 44s65.833 35.667 107.5 53
s87.834 32.166 138.501 44.499s103.334 18.5 158.001 18.5c55.333 0 105.833 -4.16699 151.5 -12.5s87.167 -19.5 124.5 -33.5s70.666 -29.833 99.999 -47.5s55.333 -35.834 78 -54.501v1242z" />
    <glyph glyph-name="topataksarauthai" unicode="&#xe0f;&#xe38;" horiz-adv-x="1757" 
d="M1384 -1118v413h-147v136h340v-549h-193zM1368 1049c0 40 -3 80.1641 -9 120.497s-16.667 79 -32 116s-35.666 71.667 -60.999 104s-57.166 60.333 -95.499 84s-84.166 42.5 -137.499 56.5s-115 21.333 -185 22c-90 0.666992 -167.333 -11 -232 -35
s-118.334 -54 -161.001 -90s-75.5 -74.167 -98.5 -114.5s-38.167 -76.5 -45.5 -108.5c45.333 -26.667 78.5 -66.667 99.5 -120s31.5 -117 31.5 -191v-815h-381v151h177v668c0 30 -1.33301 59.667 -4 89s-8.66699 57.333 -18 84s-23 51.167 -41 73.5
s-42.333 41.166 -73 56.499c16.667 64.667 43.167 127.834 79.5 189.501s84.5 116.667 144.5 165s133 87.333 219 117s187 44.5 303 44.5c96 0 180.667 -9 254 -27s136.833 -43 190.5 -75s98.5 -69.833 134.5 -113.5s64.833 -91.667 86.5 -144s37 -107.666 46 -165.999
s13.5 -117.833 13.5 -178.5v-1405h-213c-12 27.333 -25.333 53 -40 77s-31.834 44.833 -51.501 62.5s-42.667 31.5 -69 41.5s-57.5 15 -93.5 15c-34 0 -63.333 -5.83301 -88 -17.5s-45.667 -26.834 -63 -45.501s-31 -39.667 -41 -63s-17 -46.666 -21 -69.999h-188
c-7.33301 23.333 -16.333 47 -27 71s-24.334 45.5 -41.001 64.5s-36.834 34.5 -60.501 46.5s-51.834 18 -84.501 18c-26 0 -49.167 -5.66699 -69.5 -17s-38 -26.333 -53 -45s-27 -40 -36 -64s-15.167 -48.667 -18.5 -74h-180c5.33301 55.333 17.833 104.5 37.5 147.5
s44.834 79.333 75.501 109s66 52.334 106 68.001s83 23.5 129 23.5c30.667 0 61.167 -3.33301 91.5 -10s59.166 -18 86.499 -34s52.833 -37.167 76.5 -63.5s44.167 -58.833 61.5 -97.5c17.333 40.667 38.333 74.334 63 101.001s50.834 47.667 78.501 63s55.834 26 84.501 32
s55.667 9 81 9c56 0 104.833 -11.333 146.5 -34s80.167 -57.667 115.5 -105v1233z" />
    <glyph glyph-name="dochadasarauuthai" unicode="&#xe0e;&#xe39;" horiz-adv-x="1757" 
d="M590 -569h347.999v-172c0 -82.667 17.833 -144.334 53.5 -185.001s91.5 -61 167.5 -61c74.667 0 128.834 20.333 162.501 61s50.5 102.334 50.5 185.001v172h197v-172c0 -51.333 -7.16699 -99.833 -21.5 -145.5s-37.666 -85.667 -69.999 -120s-74.5 -61.5 -126.5 -81.5
s-116 -30 -192 -30c-74.667 0 -138.334 8.66699 -191.001 26s-95.5 43.166 -128.5 77.499s-57 77.333 -72 129s-22.5 111.834 -22.5 180.501h-155v136zM1368 1049c0 40 -3.00195 80.168 -9.00195 120.501s-16.667 79 -32 116s-35.666 71.667 -60.999 104
s-57.166 60.333 -95.499 84s-84.166 42.5 -137.499 56.5s-115 21.333 -185 22c-90 0.666992 -167.333 -11 -232 -35s-118.334 -54 -161.001 -90s-75.5 -74.167 -98.5 -114.5s-38.167 -76.5 -45.5 -108.5c45.333 -26.667 78.5 -66.667 99.5 -120s31.5 -117 31.5 -191v-815
h-381v151h177v668c0 30 -1.33301 59.667 -4 89s-8.66699 57.333 -18 84s-23 51.167 -41 73.5s-42.333 41.166 -73 56.499c16.667 64.667 43.167 127.834 79.5 189.501s84.5 116.667 144.5 165s133 87.333 219 117s187 44.5 303 44.5c96 0 180.667 -9 254 -27
s136.833 -43 190.5 -75s98.5 -69.833 134.5 -113.5s64.833 -91.667 86.5 -144s37 -107.666 46 -165.999s13.5 -117.833 13.5 -178.5v-1393h-225c-17.333 26.667 -40.5 51 -69.5 73s-62.333 41 -100 57s-79 28.333 -124 37s-92.167 13 -141.5 13
c-51.333 0 -101.5 -6.66699 -150.5 -20s-94.333 -30 -136 -50s-78.334 -42 -110.001 -66s-55.167 -47 -70.5 -69v201c12.667 11.333 33.834 26 63.501 44s65.334 35.667 107.001 53s88 32.166 139 44.499s103.5 18.5 157.5 18.5c55.333 0 106 -4.16699 152 -12.5
s87.667 -19.5 125 -33.5s70.666 -29.833 99.999 -47.5s55.333 -35.834 78 -54.501v1242z" />
    <glyph glyph-name="topataksarauuthai" unicode="&#xe0f;&#xe39;" horiz-adv-x="1757" 
d="M594 -569h347.998v-172c0 -82.667 17.833 -144.334 53.5 -185.001s91.5 -61 167.5 -61c74.667 0 128.834 20.333 162.501 61s50.5 102.334 50.5 185.001v172h197v-172c0 -51.333 -7.16699 -99.833 -21.5 -145.5s-37.666 -85.667 -69.999 -120s-74.5 -61.5 -126.5 -81.5
s-116 -30 -192 -30c-74.667 0 -138.167 8.66699 -190.5 26s-95 43.166 -128 77.499s-57 77.333 -72 129s-22.5 111.834 -22.5 180.501h-156v136zM1368 1049c0 40 -3 80.1641 -9 120.497s-16.667 79 -32 116s-35.666 71.667 -60.999 104s-57.166 60.333 -95.499 84
s-84.166 42.5 -137.499 56.5s-115 21.333 -185 22c-90 0.666992 -167.333 -11 -232 -35s-118.334 -54 -161.001 -90s-75.5 -74.167 -98.5 -114.5s-38.167 -76.5 -45.5 -108.5c45.333 -26.667 78.5 -66.667 99.5 -120s31.5 -117 31.5 -191v-815h-381v151h177v668
c0 30 -1.33301 59.667 -4 89s-8.66699 57.333 -18 84s-23 51.167 -41 73.5s-42.333 41.166 -73 56.499c16.667 64.667 43.167 127.834 79.5 189.501s84.5 116.667 144.5 165s133 87.333 219 117s187 44.5 303 44.5c96 0 180.667 -9 254 -27s136.833 -43 190.5 -75
s98.5 -69.833 134.5 -113.5s64.833 -91.667 86.5 -144s37 -107.666 46 -165.999s13.5 -117.833 13.5 -178.5v-1405h-213c-12 27.333 -25.333 53 -40 77s-31.834 44.833 -51.501 62.5s-42.667 31.5 -69 41.5s-57.5 15 -93.5 15c-34 0 -63.333 -5.83301 -88 -17.5
s-45.667 -26.834 -63 -45.501s-31 -39.667 -41 -63s-17 -46.666 -21 -69.999h-188c-7.33301 23.333 -16.333 47 -27 71s-24.334 45.5 -41.001 64.5s-36.834 34.5 -60.501 46.5s-51.834 18 -84.501 18c-26 0 -49.167 -5.66699 -69.5 -17s-38 -26.333 -53 -45s-27 -40 -36 -64
s-15.167 -48.667 -18.5 -74h-180c5.33301 55.333 17.833 104.5 37.5 147.5s44.834 79.333 75.501 109s66 52.334 106 68.001s83 23.5 129 23.5c30.667 0 61.167 -3.33301 91.5 -10s59.166 -18 86.499 -34s52.833 -37.167 76.5 -63.5s44.167 -58.833 61.5 -97.5
c17.333 40.667 38.333 74.334 63 101.001s50.834 47.667 78.501 63s55.834 26 84.501 32s55.667 9 81 9c56 0 104.833 -11.333 146.5 -34s80.167 -57.667 115.5 -105v1233z" />
    <glyph glyph-name=".notdef" horiz-adv-x="1151" 
d="M1176 1114v-41h16c13.333 0 20 9.66699 20 29c-0.666992 2 -2 4 -4 6c-4 4 -9.33301 6 -16 6h-16zM1184 1069l-8 0.000976562v-37h-13v94h29c10 0 18 -2 24 -6s9 -10 9 -18c0 -16.667 -2.83301 -26.334 -8.5 -29.001s-12.5 -4 -20.5 -4l29 -37h-13zM1192 1020
c11.333 0 20.833 1.83301 28.5 5.5s14 8.16699 19 13.5s8.5 11 10.5 17s3 11.667 3 17c0 22.667 -5.5 39.334 -16.5 50.001s-25.833 16 -44.5 16s-34.334 -5.33301 -47.001 -16s-19 -27.334 -19 -50.001c0 -14.667 4.83301 -27.167 14.5 -37.5s26.834 -15.5 51.501 -15.5z
M1192 1147c22.667 0 40 -6.66699 52 -20s18 -31.333 18 -54c0 -14.667 -6 -28.5 -18 -41.5s-29.333 -19.5 -52 -19.5c-24.667 0 -43.167 6.5 -55.5 19.5s-18.5 26.833 -18.5 41.5c0 22.667 6.16699 40.667 18.5 54s30.833 20 55.5 20zM561 881.001
c18 -2 39.165 -4.5 63.498 -7.5s49.833 -6.5 76.5 -10.5s53.834 -8.5 81.501 -13.5s53.834 -10.5 78.501 -16.5s46.5 -12.5 65.5 -19.5s33.833 -14.5 44.5 -22.5c-19.333 36 -44.333 68.167 -75 96.5s-64.5 52.333 -101.5 72s-75.833 34.667 -116.5 45s-81 15.5 -121 15.5
c-32 0 -63.5 -3 -94.5 -9s-60.667 -15.167 -89 -27.5s-54.5 -27.833 -78.5 -46.5s-44.667 -40.334 -62 -65.001c33.333 2.66699 67 4.83398 101 6.50098s67.333 2.5 100 2.5h127zM1049 1102l-0.000976562 -397.002c-93.333 26.667 -197.166 49.667 -311.499 69
s-234.5 29 -360.5 29c-88.667 0 -176 -4 -262 -12c8 40.667 24.167 79.834 48.5 117.501s55.5 70.834 93.5 99.501s82 51.5 132 68.5s104.667 25.5 164 25.5c57.333 0 109 -6.5 155 -19.5s86.5 -29.167 121.5 -48.5s64.333 -40 88 -62s41.5 -41.667 53.5 -59v189h78z
M425.997 351.999c0 16.667 -5 28.334 -15 35.001s-20 10 -30 10c-16.667 0 -29 -3.33301 -37 -10s-12 -18.334 -12 -35.001c0 -27.333 16.333 -41 49 -41c10 0 20 3.33301 30 10s15 17 15 31zM89.9971 388.999c0 42 8.5 79.499 25.5 112.499s39.333 60.833 67 83.5
s59.167 40 94.5 52s71.333 18 108 18c38 0 74.167 -5.16699 108.5 -15.5s64.333 -26.166 90 -47.499s46.167 -48.166 61.5 -80.499s23 -70.5 23 -114.5v-323h303v565h78v-635h-533v70h82v332c0 29.333 -5.5 54.833 -16.5 76.5s-26 39.5 -45 53.5s-41.167 24.5 -66.5 31.5
s-52.333 10.5 -81 10.5s-56.334 -4 -83.001 -12s-50.167 -19.833 -70.5 -35.5s-36.666 -34.667 -48.999 -57s-18.5 -47.833 -18.5 -76.5v-295l164 164c-4 0.666992 -9.5 3.16699 -16.5 7.5s-13.833 10 -20.5 17s-12.5 15.667 -17.5 26s-7.5 22.166 -7.5 35.499
c0 35.333 10.333 62.666 31 81.999s48.667 29 84 29c15.333 0 29.666 -2.83301 42.999 -8.5s25 -13.5 35 -23.5s18 -21.833 24 -35.5s9 -28.167 9 -43.5c0 -12 -1.83301 -23.167 -5.5 -33.5s-8 -19.166 -13 -26.499s-10.5 -13.333 -16.5 -18s-11 -7.33398 -15 -8.00098
c-1.33301 -4 -6.16602 -10.167 -14.499 -18.5l-31.5 -30.5l-42.5 -41c-15.667 -15.333 -31.167 -31.666 -46.5 -48.999l-64 -58.5l-67 -64.5h-90v385z" />
    <glyph glyph-name=".null" 
 />
    <glyph glyph-name=".null" 
 />
    <glyph glyph-name="nonmarkingreturn" unicode="&#xd;" horiz-adv-x="791" 
 />
    <glyph glyph-name="space" unicode=" " horiz-adv-x="696" 
 />
    <glyph glyph-name="exclam" unicode="!" horiz-adv-x="840" 
d="M315 1310v645h209v-645l-41 -829h-123zM295 0v304h250v-304h-250z" />
    <glyph glyph-name="quotedbl" unicode="&#x22;" horiz-adv-x="1036" 
d="M238 1955h184v-643h-184v643zM610 1955h185v-643h-185v643z" />
    <glyph glyph-name="numbersign" unicode="#" horiz-adv-x="1556" 
d="M1397 618h-307l-91 -618h-155l86 618h-377l-86 -618h-156l86 618h-307v144h324l64 441h-307v139h324l85 612h159l-89 -612h381l85 612h156l-85 -612h295v-139h-312l-64 -441h291v-144zM634 1203l-65 -441h381l65 441h-381z" />
    <glyph glyph-name="dollar" unicode="$" horiz-adv-x="1556" 
d="M827 109c38 1.33301 76.167 5.49902 114.5 12.499s75 17.333 110 31s67.5 31 97.5 52s56 45.667 78 74s39.333 60.833 52 97.5s19 77.667 19 123c0 39.333 -6.83301 75 -20.5 107s-32.167 60.833 -55.5 86.5s-50.5 48.5 -81.5 68.5s-63.833 37.667 -98.5 53
s-70.5 28.833 -107.5 40.5s-72.833 21.834 -107.5 30.501v-776zM713 1839c-51.333 -2 -100.833 -11.667 -148.5 -29s-90 -42.5 -127 -75.5s-66.667 -74.167 -89 -123.5s-33.5 -107 -33.5 -173c0 -59.333 11.5 -109 34.5 -149s53.167 -73.5 90.5 -100.5
s79.833 -48.833 127.5 -65.5s96.167 -31 145.5 -43v759zM266 636.999c0.666992 -74 12.5 -140.664 35.5 -199.997s54.333 -110.666 94 -153.999s86.667 -79 141 -107s113.166 -48 176.499 -60v781c-80 16.667 -155.667 37.667 -227 63s-134 59.166 -188 101.499
s-96.667 95.5 -128 159.5s-47 143 -47 237c0 81.333 15.667 154.666 47 219.999s74 121.333 128 168s116.667 83 188 109s147 40.667 227 44v212h123v-212c88.667 -5.33301 169.167 -22.833 241.5 -52.5s134.166 -69.5 185.499 -119.5s91 -109 119 -177s42 -143.333 42 -226
h-193c-1.33301 61.333 -12.166 116.833 -32.499 166.5s-48 92.5 -83 128.5s-76.333 64.167 -124 84.5s-99.5 32.166 -155.5 35.499v-782c52 -10.667 104 -23.167 156 -37.5s102 -31.833 150 -52.5s92.667 -44.834 134 -72.501s77.333 -60.334 108 -98.001
s54.834 -81 72.501 -130s26.5 -104.833 26.5 -167.5c0 -58.667 -8.66699 -112.667 -26 -162s-41 -94 -71 -134s-65.667 -75 -107 -105s-85.833 -55.333 -133.5 -76s-97.834 -36.5 -150.501 -47.5s-105.667 -17.167 -159 -18.5v-233h-123v233
c-205.333 28 -361.166 97.333 -467.499 208s-163.5 268.334 -171.5 473.001h192z" />
    <glyph glyph-name="percent" unicode="%" horiz-adv-x="2486" 
d="M639 1811c-54.667 0 -100.664 -12 -137.997 -36s-67.333 -54.833 -90 -92.5s-38.834 -79.5 -48.501 -125.5s-14.5 -91 -14.5 -135c0 -43.333 4.5 -87.5 13.5 -132.5s24.5 -86 46.5 -123s51.667 -67.167 89 -90.5s84.666 -35 141.999 -35c56 0 102.5 11.667 139.5 35
s66.5 53.5 88.5 90.5s37.333 78 46 123s13 89.167 13 132.5c0 44 -4.83301 89 -14.5 135s-25.834 87.833 -48.501 125.5s-52.167 68.5 -88.5 92.5s-81.5 36 -135.5 36zM1767 1956h156l-1243 -2052h-160zM639.003 1951c78.667 0 146.334 -13.167 203.001 -39.5
s103.334 -63 140.001 -110s63.834 -102.5 81.501 -166.5s26.5 -133.667 26.5 -209s-8.83301 -145 -26.5 -209s-44.834 -119.5 -81.501 -166.5s-83.334 -83.667 -140.001 -110s-124.334 -39.5 -203.001 -39.5s-146.5 13.167 -203.5 39.5s-104.167 63 -141.5 110
s-65 102.5 -83 166.5s-27 133.667 -27 209s9 145 27 209s45.667 119.5 83 166.5s84.5 83.667 141.5 110s124.833 39.5 203.5 39.5zM1866 872c-54.667 0 -100.664 -12 -137.997 -36s-67.333 -54.833 -90 -92.5s-38.834 -79.5 -48.501 -125.5s-14.5 -91 -14.5 -135
c0 -43.333 4.5 -87.5 13.5 -132.5s24.5 -86 46.5 -123s51.667 -67.167 89 -90.5s84.666 -35 141.999 -35c56 0 102.5 11.667 139.5 35s66.5 53.5 88.5 90.5s37.333 78 46 123s13 89.167 13 132.5c0 44 -4.83301 89 -14.5 135s-25.834 87.833 -48.501 125.5
s-52.167 68.5 -88.5 92.5s-81.5 36 -135.5 36zM1866.01 1012c78.667 0 146.335 -13.167 203.002 -39.5s103.334 -63 140 -110c36.667 -47 63.834 -102.5 81.5 -166.5c17.667 -64 26.5 -133.667 26.5 -209s-8.83301 -145 -26.5 -209s-44.834 -119.5 -81.5 -166.5
c-36.667 -47 -83.334 -83.667 -140.001 -110s-124.334 -39.5 -203.001 -39.5s-146.5 13.167 -203.5 39.5s-104.167 63 -141.5 110s-65 102.5 -83 166.5s-27 133.667 -27 209s9 145 27 209s45.667 119.5 83 166.5s84.5 83.667 141.5 110s124.833 39.5 203.5 39.5z" />
    <glyph glyph-name="ampersand" unicode="&#x26;" horiz-adv-x="1708" 
d="M684 973c-44 -25.333 -89 -53.3291 -135 -83.9961s-87.833 -65.167 -125.5 -103.5s-68.5 -80.833 -92.5 -127.5s-36 -98.334 -36 -155.001c0 -56 10.667 -107.333 32 -154s50.833 -86.834 88.5 -120.501s82.5 -59.834 134.5 -78.501s109 -28 171 -28
c44 0 89.5 8.5 136.5 25.5s91.5 38.5 133.5 64.5s80 54.667 114 86s60 61.666 78 90.999zM1303 247.004c-37.333 -41.333 -78.0068 -79.666 -122.007 -114.999s-91 -65.833 -141 -91.5s-102.5 -45.667 -157.5 -60s-111.5 -21.5 -169.5 -21.5c-88 0 -169.333 12 -244 36
s-139.167 59.667 -193.5 107s-96.833 105.833 -127.5 175.5s-46 150.167 -46 241.5c0 47.333 7 91.666 21 132.999s32.833 80 56.5 116s51.334 69.667 83.001 101s65.167 60.5 100.5 87.5s71.833 51.833 109.5 74.5l109.5 64l-94.5 126c-29 39.333 -54.167 78 -75.5 116
s-38 76.167 -50 114.5s-18 78.833 -18 121.5c0 62 11.833 118.167 35.5 168.5s55.834 93.5 96.501 129.5s88.334 63.667 143.001 83s113.334 29 176.001 29c62 0 120.333 -9.66699 175 -29s102.334 -47 143.001 -83s72.834 -79.167 96.501 -129.5s35.5 -106.5 35.5 -168.5
s-11 -117.667 -33 -167s-51 -94.5 -87 -135.5s-77.167 -78.833 -123.5 -113.5s-93.5 -67.667 -141.5 -99l211.5 -245l210.5 -246c12 28 21 56 27 84s10.333 55.833 13 83.5s4.33398 55.334 5.00098 83.001s1 55.5 1 83.5h193c0 -21.333 -2 -50.5 -6 -87.5
s-10.5 -77.667 -19.5 -122s-21 -90.333 -36 -138s-33.167 -92.834 -54.5 -135.501l352 -418h-250zM794.993 1817c-35.333 0 -68.5 -5.50195 -99.5 -16.502s-58.333 -26.833 -82 -47.5s-42.334 -46.167 -56.001 -76.5s-20.5 -64.833 -20.5 -103.5
c0 -30.667 6.5 -61.667 19.5 -93s29.833 -63 50.5 -95s43.834 -64.5 69.501 -97.5l77.5 -99.5c34 21.333 68.667 45 104 71s67.5 54.833 96.5 86.5s52.667 66.334 71 104.001s27.5 78.834 27.5 123.501c0 38.667 -7.16699 73.167 -21.5 103.5s-33.333 55.833 -57 76.5
s-51 36.5 -82 47.5s-63.5 16.5 -97.5 16.5z" />
    <glyph glyph-name="quotesingle" unicode="'" horiz-adv-x="778" 
d="M295 1955h192v-643h-192v643z" />
    <glyph glyph-name="parenleft" unicode="(" horiz-adv-x="676" 
d="M528 -532c-62 102 -117.5 202.835 -166.5 302.502s-90.167 201 -123.5 304s-58.833 209.5 -76.5 319.5s-26.5 227 -26.5 351c0 120.667 9.16699 238.5 27.5 353.5s44.5 226.5 78.5 334.5s75.333 212.667 124 314s103 199 163 293h164
c-64.667 -101.333 -120 -206.5 -166 -315.5s-83.667 -220.833 -113 -335.5s-50.833 -231.334 -64.5 -350.001s-20.5 -238.334 -20.5 -359.001c0 -101.333 8.83301 -205 26.5 -311s42.5 -211 74.5 -315s70.333 -205.667 115 -305s94 -193 148 -281h-164z" />
    <glyph glyph-name="parenright" unicode=")" horiz-adv-x="676" 
d="M143 2040c62.667 -102.667 118.663 -203.668 167.996 -303.001s91 -200.666 125 -303.999s60 -210 78 -320s27 -227 27 -351c0 -120.667 -9.16699 -238.334 -27.5 -353.001s-44.666 -226 -78.999 -334s-76.166 -212.667 -125.499 -314s-104.666 -199 -165.999 -293h-163
c64.667 101.333 120.167 206 166.5 314s84.5 218.833 114.5 332.5s52 229.667 66 348s21 238.5 21 360.5c0 101.333 -8.83301 205 -26.5 311s-42.5 211.333 -74.5 316s-70.667 206.834 -116 306.501s-95.666 194.167 -150.999 283.5h163z" />
    <glyph glyph-name="asterisk" unicode="*" horiz-adv-x="983" 
d="M66 1597l40 122l324 -114v344h123v-344l324 114l41 -122l-324 -107l205 -266l-107 -82l-205 270l-204 -270l-107 82l205 274z" />
    <glyph glyph-name="plus" unicode="+" horiz-adv-x="1679" 
d="M758 1417h164v-626h630v-164h-630v-627h-164v627h-631v164h631v626z" />
    <glyph glyph-name="comma" unicode="," horiz-adv-x="778" 
d="M516 311v-306.999c0 -41.333 -4.16699 -82.666 -12.5 -123.999s-22.166 -80 -41.499 -116s-45.333 -67.667 -78 -95s-73.334 -47.333 -122.001 -60v142c24.667 10 44.667 23.833 60 41.5s27.333 37.667 36 60s14.667 46.166 18 71.499s5 50.666 5 75.999h-119v311h254z
" />
    <glyph glyph-name="hyphen" unicode="-" horiz-adv-x="1176" 
d="M127 622v174h922v-174h-922z" />
    <glyph glyph-name="period" unicode="." horiz-adv-x="778" 
d="M262 0v311h254v-311h-254z" />
    <glyph glyph-name="slash" unicode="/" horiz-adv-x="930" 
d="M-37 -41l829 2040h160l-821 -2040h-168z" />
    <glyph glyph-name="zero" unicode="0" horiz-adv-x="1556" 
d="M778 1827c-72.667 0 -135.831 -13.333 -189.498 -40s-99.334 -62.167 -137.001 -106.5s-68.334 -95.5 -92.001 -153.5s-42.167 -118.5 -55.5 -181.5s-22.5 -126.5 -27.5 -190.5s-7.5 -124 -7.5 -180s2.5 -116 7.5 -180s14.167 -127.5 27.5 -190.5
s31.833 -123.5 55.5 -181.5s54.334 -109.167 92.001 -153.5s83.167 -79.833 136.5 -106.5s116.666 -40 189.999 -40s136.666 13.333 189.999 40s98.833 62.167 136.5 106.5s68.167 95.5 91.5 153.5s41.5 118.5 54.5 181.5s21.833 126.5 26.5 190.5s7 124 7 180
s-2.33301 116 -7 180s-13.5 127.5 -26.5 190.5s-31.167 123.5 -54.5 181.5s-53.833 109.167 -91.5 153.5s-83.167 79.833 -136.5 106.5s-116.666 40 -189.999 40zM778.003 1991c96 0 180.167 -14.333 252.5 -43s134.5 -67.834 186.5 -117.501s95 -107.667 129 -174
s60.833 -137.166 80.5 -212.499s33.5 -153 41.5 -233s12 -158.667 12 -236s-4 -156 -12 -236s-21.833 -157.667 -41.5 -233s-46.5 -146.166 -80.5 -212.499s-77 -124.333 -129 -174s-114.167 -88.834 -186.5 -117.501s-156.5 -43 -252.5 -43s-180 14.333 -252 43
s-134 67.834 -186 117.501s-95 107.667 -129 174s-61 137.166 -81 212.499s-34 153 -42 233s-12 158.667 -12 236s4 156 12 236s22 157.667 42 233s47 146.166 81 212.499s77 124.333 129 174s114 88.834 186 117.501s156 43 252 43z" />
    <glyph glyph-name="one" unicode="1" horiz-adv-x="1556" 
d="M262 1570c46.667 2.66699 91.168 6.33203 133.501 10.999s82.166 12 119.499 22s71.833 23.667 103.5 41s60 39.833 85 67.5s46.667 61.334 65 101.001s32.5 87.167 42.5 142.5h164v-1955h-193v1521c-30.667 -24 -64.5 -43.5 -101.5 -58.5s-77.167 -27 -120.5 -36
s-89.833 -15.5 -139.5 -19.5s-102.5 -7 -158.5 -9v172z" />
    <glyph glyph-name="two" unicode="2" horiz-adv-x="1556" 
d="M1397 0l-1303 0.00195312c1.33301 69.333 9.5 133.333 24.5 192s35.5 112.834 61.5 162.501s56.833 95.667 92.5 138s74.5 82.166 116.5 119.499s86.667 72.666 134 105.999l145 99l116.5 73.5c40.333 25 80.166 51.333 119.499 79s76.666 57 111.999 88
s66.333 64.833 93 101.5s47.834 76.667 63.501 120s23.5 91 23.5 143c0 62 -11.5 117.5 -34.5 166.5s-54 90.5 -93 124.5s-84.667 60 -137 78s-107.5 27 -165.5 27c-78.667 0 -145.667 -15.167 -201 -45.5s-100.5 -70.666 -135.5 -120.999s-60.333 -108.5 -76 -174.5
s-22.834 -135 -21.501 -207h-193c-2 102.667 9.66699 197.5 35 284.5s64.333 162.167 117 225.5s119.167 112.833 199.5 148.5s174.833 53.5 283.5 53.5c86.667 0 167.5 -12.167 242.5 -36.5s140.167 -60 195.5 -107s98.666 -105.5 129.999 -175.5s47 -150.333 47 -241
c0 -82 -14.333 -156.5 -43 -223.5s-66.834 -128.333 -114.501 -184s-102.5 -106.5 -164.5 -152.5s-126 -88.667 -192 -128c-78.667 -47.333 -149.667 -92.833 -213 -136.5s-118.333 -87.834 -165 -132.501s-84.667 -90.334 -114 -137.001s-49 -96 -59 -148h1073v-180z" />
    <glyph glyph-name="three" unicode="3" horiz-adv-x="1556" 
d="M279 635c-3.33301 -78 5.16602 -148.665 25.499 -211.998s51 -117.5 92 -162.5s92 -79.833 153 -104.5s130.5 -37 208.5 -37c63.333 0 124.5 9.33301 183.5 28s111.333 46 157 82s82.167 80.5 109.5 133.5s41 113.833 41 182.5c0 67.333 -11.5 125.833 -34.5 175.5
s-54.5 90.667 -94.5 123s-87.333 56.5 -142 72.5s-113.667 24 -177 24h-110v164h110c44 -1.33301 88.5 5.33398 133.5 20.001s85.667 37 122 67s66 67.667 89 113s34.5 98 34.5 158c0 63.333 -11.167 117.833 -33.5 163.5s-52.833 83.167 -91.5 112.5
s-83.5 50.833 -134.5 64.5s-105.167 20.5 -162.5 20.5c-72.667 0 -136.667 -12.167 -192 -36.5s-101.5 -58.5 -138.5 -102.5s-64.667 -96.333 -83 -157s-26.833 -127.334 -25.5 -200.001h-192c0.666992 94 16 181.333 46 262s72.167 150.5 126.5 209.5
s119.833 105.167 196.5 138.5s162.667 50 258 50c52.667 0 104.5 -4.33301 155.5 -13s99.333 -22 145 -40s87.834 -40.833 126.501 -68.5s72.167 -60.167 100.5 -97.5s50.5 -79.666 66.5 -126.999s24 -100 24 -158c0 -50 -6.66699 -98.5 -20 -145.5
s-32.5 -90.333 -57.5 -130s-55.667 -74.834 -92 -105.501s-77.5 -54.667 -123.5 -72c60.667 -12 113.667 -31.5 159 -58.5s83.166 -60.667 113.499 -101s53 -86.833 68 -139.5s22.5 -110.667 22.5 -174c0 -64 -8.33301 -123.333 -25 -178s-40.167 -104.334 -70.5 -149.001
s-66.333 -84.167 -108 -118.5s-87.667 -63 -138 -86s-104.166 -40.5 -161.499 -52.5s-116.333 -18 -177 -18c-102.667 0 -197 15.333 -283 46s-159.333 75 -220 133s-106.5 129.167 -137.5 213.5s-42.833 180.166 -35.5 287.499h193z" />
    <glyph glyph-name="four" unicode="4" horiz-adv-x="1556" 
d="M69 647l923 1308h172v-1328h291v-164h-291v-463h-180v463h-915v184zM984 627v1037l-731 -1037h731z" />
    <glyph glyph-name="five" unicode="5" horiz-adv-x="1556" 
d="M292 551c1.33301 -67.333 14.1689 -127.829 38.502 -181.496s57.166 -99.334 98.499 -137.001s90.166 -66.667 146.499 -87s117.166 -30.5 182.499 -30.5c74.667 0 141.834 14.167 201.501 42.5s110.334 66.5 152.001 114.5s73.667 103.667 96 167s33.5 130 33.5 200
c0 72 -12.333 138.667 -37 200s-59 114.5 -103 159.5s-96.333 80.333 -157 106s-127 38.5 -199 38.5c-42 0 -83.5 -5.33301 -124.5 -16s-80.167 -26 -117.5 -46s-72 -44.5 -104 -73.5s-60 -61.833 -84 -98.5h-163l168 1046h1015v-181h-876l-94 -631
c25.333 26.667 53.5 50.167 84.5 70.5s63.833 37.5 98.5 51.5s70.334 24.5 107.001 31.5s73.667 10.5 111 10.5c101.333 0 193.166 -17 275.499 -51s152.5 -81.333 210.5 -142s102.833 -132.834 134.5 -216.501s47.5 -175.167 47.5 -274.5
c0 -64.667 -8.33301 -126.334 -25 -185.001s-40 -112.834 -70 -162.501s-66 -94.5 -108 -134.5s-88.5 -74.167 -139.5 -102.5s-105.833 -50 -164.5 -65s-119.334 -22.5 -182.001 -22.5c-92 0 -177 14 -255 42s-145.5 68 -202.5 120s-102 115 -135 189s-50.833 157 -53.5 249
h193z" />
    <glyph glyph-name="six" unicode="6" horiz-adv-x="1556" 
d="M816 1125c-74 0 -140.832 -12.667 -200.499 -38s-110.5 -60.333 -152.5 -105s-74.333 -97.334 -97 -158.001s-34 -126.334 -34 -197.001c0 -59.333 9 -118.666 27 -177.999s46.167 -112.5 84.5 -159.5s87.666 -85.167 147.999 -114.5s133.166 -44 218.499 -44
c68.667 0 131 13.167 187 39.5s103.667 62 143 107s69.833 97.333 91.5 157s32.5 122.834 32.5 189.501c0 70.667 -10.667 136.5 -32 197.5s-51.666 114 -90.999 159s-86.5 80.333 -141.5 106s-116.167 38.5 -183.5 38.5zM1209 1491
c-6.66699 48.667 -20.168 93.334 -40.501 134.001s-46.833 75.667 -79.5 105s-71.5 52 -116.5 68s-95.167 24 -150.5 24c-70.667 0 -132.834 -12.5 -186.501 -37.5s-100.167 -58.5 -139.5 -100.5s-71.833 -91 -97.5 -147s-46.167 -114.667 -61.5 -176
s-26.166 -123.833 -32.499 -187.5s-9.5 -124.5 -9.5 -182.5c18 36 44.833 71.833 80.5 107.5s77.167 67.5 124.5 95.5s98.5 50.667 153.5 68s111.167 26 168.5 26c95.333 0 182.166 -15.833 260.499 -47.5s145.5 -76.5 201.5 -134.5s99.333 -127.833 130 -209.5
s46 -172.5 46 -272.5c0 -92 -16.5 -178 -49.5 -258s-79 -149.5 -138 -208.5s-129.167 -105.5 -210.5 -139.5s-170.666 -51 -267.999 -51c-124.667 0 -230.834 23.167 -318.501 69.5s-159.167 111.5 -214.5 195.5s-95.666 184.667 -120.999 302s-38 247 -38 389
c0 38.667 1.16699 83.5 3.5 134.5s7.5 105.167 15.5 162.5s19.167 116 33.5 176s33.333 118.333 57 175s52.834 110.167 87.501 160.5s76 94.333 124 132s103.667 67.5 167 89.5s135.333 33 216 33c174 0 310.833 -40.333 410.5 -121s161.167 -205.334 184.5 -374.001h-192z
" />
    <glyph glyph-name="seven" unicode="7" horiz-adv-x="1556" 
d="M135 1955l1274 0.000976562v-154c-40.667 -42.667 -88.334 -96.334 -143.001 -161.001s-111.334 -139.334 -170.001 -224.001s-116.5 -178.667 -173.5 -282s-108 -214.666 -153 -333.999s-81.5 -246 -109.5 -380s-42 -274 -42 -420h-208c0 168 17 328.833 51 482.5
s83.833 303.167 149.5 448.5s146.5 287.5 242.5 426.5s206 277.833 330 416.5h-1048v181z" />
    <glyph glyph-name="eight" unicode="8" horiz-adv-x="1556" 
d="M778 115c68 0 132.168 8.83398 192.501 26.501s113.166 44.334 158.499 80.001s81.166 80.667 107.499 135s39.5 118.5 39.5 192.5c0 69.333 -13.833 130.333 -41.5 183s-64.5 96.5 -110.5 131.5s-99 61.167 -159 78.5s-122.333 25.666 -187 24.999
c-66.667 0.666992 -130.167 -7.33301 -190.5 -24s-113.5 -42.5 -159.5 -77.5s-82.667 -78.833 -110 -131.5s-41 -114.334 -41 -185.001c0 -72.667 13.5 -136.167 40.5 -190.5s63.333 -99.5 109 -135.5s98.834 -63 159.501 -81s124.667 -27 192 -27zM1360 1487
c0 -50 -5.5 -97.665 -16.5 -142.998s-27.667 -87 -50 -125s-50.833 -71.5 -85.5 -100.5s-75.667 -52.167 -123 -69.5c59.333 -14.667 112.666 -36.834 159.999 -66.501s87.5 -65.834 120.5 -108.501s58.333 -91.334 76 -146.001s26.5 -114.334 26.5 -179.001
c0 -99.333 -18.667 -186.333 -56 -261s-87.5 -137 -150.5 -187s-136.333 -87.5 -220 -112.5s-171.5 -37.5 -263.5 -37.5c-93.333 0 -181.833 12.5 -265.5 37.5s-157.334 62.5 -221.001 112.5s-114.167 112.333 -151.5 187s-56 161.667 -56 261
c2 62.667 12.333 121.334 31 176.001s44.5 104 77.5 148s72.667 81.333 119 112s98.166 53.334 155.499 68.001c-47.333 17.333 -88.166 40.333 -122.499 69s-62.833 61.667 -85.5 99s-39.5 78.5 -50.5 123.5s-16.5 92.5 -16.5 142.5c0 82.667 16.667 154.834 50 216.501
s77.333 113.167 132 154.5s116.834 72.333 186.501 93s140.834 31 213.501 31c74 0 146 -10.333 216 -31s132.5 -51.667 187.5 -93s99.167 -92.833 132.5 -154.5s50 -133.834 50 -216.501zM778.001 1130c52 -1.33301 101.67 4.83496 149.003 18.502
s88.833 35.167 124.5 64.5s64 66.666 85 111.999s31.5 99.333 31.5 162c0 54 -9.5 101.667 -28.5 143s-45.667 76 -80 104s-75.5 49.167 -123.5 63.5s-100.667 21.5 -158 21.5c-53.333 0 -103.833 -7.16699 -151.5 -21.5s-89.334 -35.5 -125.001 -63.5s-64 -62.667 -85 -104
s-31.5 -89 -31.5 -143c0 -65.333 10.833 -121 32.5 -167s50.667 -83.167 87 -111.5s78.166 -48.833 125.499 -61.5s96.666 -18.334 147.999 -17.001z" />
    <glyph glyph-name="nine" unicode="9" horiz-adv-x="1556" 
d="M739 828c74 0 140.835 12.667 200.502 38s110.5 60.333 152.5 105s74.333 97.334 97 158.001s34 126.334 34 197.001c0 59.333 -9 118.666 -27 177.999s-46.167 112.5 -84.5 159.5s-87.833 85.167 -148.5 114.5s-133.334 44 -218.001 44
c-68.667 0 -131 -13.167 -187 -39.5s-103.667 -62 -143 -107s-69.833 -97.333 -91.5 -157s-32.5 -122.834 -32.5 -189.501c0 -70.667 10.667 -136.5 32 -197.5s51.666 -114 90.999 -159s86.5 -80.333 141.5 -106s116.167 -38.5 183.5 -38.5zM346.002 462
c6.66699 -49.333 20.167 -94.1689 40.5 -134.502s46.833 -75.166 79.5 -104.499s71.5 -52 116.5 -68s95.167 -24 150.5 -24c70.667 0 132.834 12.5 186.501 37.5s100.167 58.5 139.5 100.5s71.833 91 97.5 147s46.167 114.667 61.5 176s26.166 123.833 32.499 187.5
s9.5 124.5 9.5 182.5c-18 -36 -44.833 -71.833 -80.5 -107.5s-77.167 -67.5 -124.5 -95.5s-98.666 -50.667 -153.999 -68s-111.333 -26 -168 -26c-95.333 0 -182.166 15.833 -260.499 47.5s-145.5 76.5 -201.5 134.5s-99.333 127.833 -130 209.5s-46 172.5 -46 272.5
c0 92 16.5 178 49.5 258s79 149.5 138 208.5s129.167 105.5 210.5 139.5s170.666 51 267.999 51c124.667 0 230.834 -23.167 318.501 -69.5s159.167 -111.5 214.5 -195.5s95.666 -184.667 120.999 -302s38 -247 38 -389c0 -38.667 -1.16699 -83.5 -3.5 -134.5
s-7.5 -105.167 -15.5 -162.5s-19.167 -116 -33.5 -176s-33.333 -118.333 -57 -175s-52.834 -110.167 -87.501 -160.5s-76 -94.333 -124 -132s-103.667 -67.5 -167 -89.5s-135.333 -33 -216 -33c-174 0 -310.833 40.333 -410.5 121s-161.167 205.334 -184.5 374.001h192z" />
    <glyph glyph-name="colon" unicode=":" horiz-adv-x="778" 
d="M262 1081v312h254v-312h-254zM262 0v311h254v-311h-254z" />
    <glyph glyph-name="semicolon" unicode=";" horiz-adv-x="778" 
d="M262 1081v312h254v-312h-254zM516 311v-306.999c0 -41.333 -4.16699 -82.666 -12.5 -123.999s-22.166 -80 -41.499 -116s-45.333 -67.667 -78 -95s-73.334 -47.333 -122.001 -60v142c24.667 10 44.667 23.833 60 41.5s27.333 37.667 36 60s14.667 46.166 18 71.499
s5 50.666 5 75.999h-119v311h254z" />
    <glyph glyph-name="less" unicode="&#x3c;" horiz-adv-x="1679" 
d="M119 791l1437 641v-172l-1232 -551l1232 -552v-172l-1437 641v165z" />
    <glyph glyph-name="equal" unicode="=" horiz-adv-x="1679" 
d="M1552 901h-1425v164h1425v-164zM1552 348h-1425v168h1425v-168z" />
    <glyph glyph-name="greater" unicode="&#x3e;" horiz-adv-x="1679" 
d="M1556 626l-1437 -641v172l1232 552l-1232 551v172l1437 -641v-165z" />
    <glyph glyph-name="question" unicode="?" horiz-adv-x="1503" 
d="M148 1324c-4.66699 106 6.49805 201 33.498 285s68.167 155.167 123.5 213.5s123.5 103 204.5 134s173.167 46.5 276.5 46.5c80 0 155.167 -11.5 225.5 -34.5s131.5 -56.5 183.5 -100.5s93.167 -97.833 123.5 -161.5s45.5 -135.834 45.5 -216.501
c0 -51.333 -7.33301 -98.666 -22 -141.999s-34 -84 -58 -122s-51.833 -74.167 -83.5 -108.5s-64.5 -67.833 -98.5 -100.5c-40 -38 -73.5 -71.333 -100.5 -100s-49.167 -55.167 -66.5 -79.5s-30.833 -48 -40.5 -71s-16.834 -48.167 -21.501 -75.5s-7.66699 -58.333 -9 -93
s-2.66602 -75.667 -3.99902 -123h-192c-2 83.333 3.33301 155.833 16 217.5s32.167 117.5 58.5 167.5s59.333 96.667 99 140s85.167 88.666 136.5 135.999c22.667 22 45.334 46.667 68.001 74s43.334 56 62.001 86s33.834 60.833 45.501 92.5s17.5 63.167 17.5 94.5
c0 52 -9 100 -27 144s-44 82 -78 114s-75.333 57 -124 75s-103.334 27 -164.001 27c-74.667 0 -139.834 -13 -195.501 -39s-101.667 -62 -138 -108s-63.166 -100.667 -80.499 -164s-25 -132.666 -23 -207.999h-193zM638.998 304h250v-304h-250v304z" />
    <glyph glyph-name="at" unicode="@" horiz-adv-x="2236" 
d="M1192 1386c-46.667 0 -90.5 -9.33301 -131.5 -28s-78.833 -44 -113.5 -76s-65.667 -68.833 -93 -110.5s-50.666 -85.5 -69.999 -131.5s-34 -92.667 -44 -140s-15 -92.333 -15 -135c0 -45.333 5.66699 -84.333 17 -117s26.166 -59.5 44.499 -80.5s39.333 -36.667 63 -47
s48.167 -15.5 73.5 -15.5c46 0 90 10.167 132 30.5s80.833 47.5 116.5 81.5s67.834 72.833 96.501 116.5s53.167 89.167 73.5 136.5s36 94.333 47 141s16.5 90 16.5 130c0 30 -3 59.667 -9 89s-17 55.5 -33 78.5s-37.833 41.667 -65.5 56s-62.834 21.5 -105.501 21.5z
M1458 701c-10 -29.333 -18.002 -57.3271 -24.002 -83.9941s-8.66699 -50 -8 -70s5.66699 -36 15 -48s24.666 -18 45.999 -18c36 0 72.5 9.5 109.5 28.5s72.667 44.833 107 77.5s66.5 70.834 96.5 114.501s56.167 90.5 78.5 140.5s39.833 101.667 52.5 155
s19 105.666 19 156.999c0 73.333 -9.66699 141.833 -29 205.5s-46.5 121.667 -81.5 174s-76.667 99 -125 140s-101.666 75.5 -159.999 103.5s-120.666 49.333 -186.999 64s-134.5 22 -204.5 22c-86 0 -167.333 -10.667 -244 -32s-147.5 -51.5 -212.5 -90.5
s-123.333 -85.833 -175 -140.5s-95.667 -115.167 -132 -181.5s-64.166 -137.833 -83.499 -214.5s-29 -156.334 -29 -239.001c0 -81.333 10.167 -159.5 30.5 -234.5s49.166 -145 86.499 -210s82.5 -124.167 135.5 -177.5s112.167 -98.833 177.5 -136.5
s135.833 -66.834 211.5 -87.501s155.167 -31 238.5 -31c66.667 0 132.667 6.66699 198 20s127 33.166 185 59.499s111.167 58.666 159.5 96.999s88.833 82.5 121.5 132.5h168c-40.667 -70.667 -89.834 -133.5 -147.501 -188.5s-122.167 -101.5 -193.5 -139.5
s-148.5 -67 -231.5 -87s-169.5 -30 -259.5 -30c-100.667 0 -196.5 12 -287.5 36s-175.167 57.833 -252.5 101.5s-147 96.5 -209 158.5s-114.833 130.833 -158.5 206.5s-77.334 157.334 -101.001 245.001s-35.5 179.167 -35.5 274.5c0 98 12.167 191.5 36.5 280.5
s58.666 171.5 102.999 247.5s97.833 145 160.5 207s132.334 114.667 209.001 158s159.5 76.833 248.5 100.5s181.833 35.5 278.5 35.5c91.333 0 178.333 -9.33301 261 -28s159.5 -45.667 230.5 -81s135 -78.333 192 -129s105.667 -108 146 -172s71.333 -134 93 -210
s32.5 -156.667 32.5 -242c0 -74 -9 -145.167 -27 -213.5s-42.667 -132.166 -74 -191.499s-68.166 -113.333 -110.499 -162s-87.833 -90.334 -136.5 -125.001s-99.167 -61.5 -151.5 -80.5s-104.5 -28.5 -156.5 -28.5c-25.333 0 -48.166 5.33301 -68.499 16
s-37.166 25.667 -50.499 45s-23.166 42 -29.499 68s-8.5 54.667 -6.5 86c-28 -32 -57.5 -61 -88.5 -87s-63.167 -48.167 -96.5 -66.5s-67.5 -32.5 -102.5 -42.5s-70.5 -15 -106.5 -15c-59.333 0 -112.333 10.667 -159 32s-86.167 50.166 -118.5 86.499
s-57 79.166 -74 128.499s-25.5 102 -25.5 158c0 62.667 7.16699 126 21.5 190s35.166 125.667 62.499 185s60.666 115 99.999 167s83.833 97.167 133.5 135.5s104.334 68.5 164.001 90.5s123.167 33 190.5 33c78 0 140.5 -17.833 187.5 -53.5s82.833 -89.834 107.5 -162.501
l62 164h163z" />
    <glyph glyph-name="A" unicode="A" horiz-adv-x="1761" 
d="M778 1955h230l778 -1955h-225l-242 609h-877l-241 -609h-226zM504 781h745l-364 949z" />
    <glyph glyph-name="B" unicode="B" horiz-adv-x="1868" 
d="M410 176h605.998c46.667 0 92.334 2.5 137.001 7.5s87 13.333 127 25s76.833 27.167 110.5 46.5s62.834 43.333 87.501 72s43.834 62.5 57.501 101.5s20.5 83.833 20.5 134.5c0 60.667 -12.5 114.167 -37.5 160.5s-61 85 -108 116s-103.833 54.333 -170.5 70
s-141.334 23.5 -224.001 23.5h-606v-757zM200.998 1955l814.997 0.000976562c56.667 0 112.334 -3.5 167.001 -10.5s106.5 -18.5 155.5 -34.5s94 -37.167 135 -63.5s76.5 -58.666 106.5 -96.999s53.5 -83.333 70.5 -135s25.5 -111.167 25.5 -178.5
c0 -41.333 -6.83301 -82.333 -20.5 -123s-33.5 -78.834 -59.5 -114.501s-57.833 -67.334 -95.5 -95.001s-80.5 -49.5 -128.5 -65.5c58.667 -12 111.834 -32.5 159.501 -61.5s88.5 -64.5 122.5 -106.5s60.333 -89.5 79 -142.5s28 -109.5 28 -169.5
c0 -32 -3.16699 -68 -9.5 -108s-18.666 -80.667 -36.999 -122s-44.5 -81.666 -78.5 -120.999s-78.5 -74.333 -133.5 -105s-122.333 -55.334 -202 -74.001s-174.5 -28 -284.5 -28h-815v1955zM409.995 1109h606.001c76 0 142.167 8 198.5 24s103.166 38.333 140.499 67
s65.333 63 84 103s28 84.333 28 133c0 112 -38 197.167 -114 255.5s-188.333 87.5 -337 87.5h-606v-670z" />
    <glyph glyph-name="C" unicode="C" horiz-adv-x="1970" 
d="M1647 1346c-17.333 74.667 -44.8311 141.329 -82.498 199.996s-82.834 108.334 -135.501 149.001s-111.334 71.5 -176.001 92.5s-132.667 31.5 -204 31.5c-87.333 0 -166.333 -11 -237 -33s-133.334 -52.5 -188.001 -91.5s-101.667 -85.167 -141 -138.5
s-71.833 -111.166 -97.5 -173.499s-44.5 -128 -56.5 -197s-18 -138.5 -18 -208.5c0 -70.667 6 -140.667 18 -210s30.833 -135.166 56.5 -197.499s58.167 -120.333 97.5 -174s86.333 -100 141 -139s117.334 -69.5 188.001 -91.5s149.667 -33 237 -33
c60.667 0 117.167 8 169.5 24s100 37.833 143 65.5s81.667 60.5 116 98.5s64 79.333 89 124s45 91.334 60 140.001s25.167 98 30.5 148h205c-11.333 -112 -37.833 -215.167 -79.5 -309.5s-97.334 -175.666 -167.001 -243.999s-152 -121.833 -247 -160.5
s-201.5 -58 -319.5 -58c-106 0 -202.833 12.667 -290.5 38s-166.334 60.833 -236.001 106.5s-130.667 100 -183 163s-95.666 132.167 -129.999 207.5s-60.166 155.5 -77.499 240.5s-26 172.167 -26 261.5s8.66699 176.5 26 261.5s43.166 165.333 77.499 241
s77.666 145 129.999 208s113.333 117.333 183 163s148.334 81.167 236.001 106.5s184.5 38 290.5 38c63.333 0 126 -6.16699 188 -18.5s121.333 -30.833 178 -55.5s109.834 -55.167 159.501 -91.5s93.5 -78.5 131.5 -126.5s69.667 -101.833 95 -161.5
s42 -124.834 50 -195.501h-204z" />
    <glyph glyph-name="D" unicode="D" horiz-adv-x="1917" 
d="M410 176l470.001 0.000976562c113.333 -0.666992 214.666 13.333 303.999 42s165 75 227 139s109.333 146.667 142 248s49 224.666 49 369.999c0 144 -18 267.333 -54 370s-86.667 186.5 -152 251.5s-143.5 112.5 -234.5 142.5s-191.5 44.667 -301.5 44l-450 -1v-1606z
M201.001 1955h691.998c151.333 -4 284.333 -27.167 399 -69.5s210.334 -104 287.001 -185s134.334 -181.833 173.001 -302.5s58 -261.667 58 -423c0 -322 -77.167 -563.5 -231.5 -724.5s-382.833 -244.5 -685.5 -250.5h-692v1955z" />
    <glyph glyph-name="E" unicode="E" horiz-adv-x="1659" 
d="M201 1955h1380v-176h-1171v-672h1073v-176h-1073v-755h1183v-176h-1392v1955z" />
    <glyph glyph-name="F" unicode="F" horiz-adv-x="1503" 
d="M201 1955h1269v-176h-1060v-672h918v-176h-918v-931h-209v1955z" />
    <glyph glyph-name="G" unicode="G" horiz-adv-x="2073" 
d="M1909 0l-146.004 -0.00195312l-21 330c-34 -60.667 -76.5 -114 -127.5 -160s-107 -84.5 -168 -115.5s-125.667 -54.5 -194 -70.5s-137.166 -24 -206.499 -24c-106 0 -202.667 12.667 -290 38s-165.833 60.833 -235.5 106.5s-130.5 100 -182.5 163
s-95.167 132.167 -129.5 207.5s-60 155.5 -77 240.5s-25.5 172.167 -25.5 261.5s8.5 176.5 25.5 261.5s42.667 165.333 77 241s77.5 145 129.5 208s112.833 117.333 182.5 163s148.167 81.167 235.5 106.5s184 38 290 38c106.667 0 206.834 -15 300.501 -45
s177.167 -73.833 250.5 -131.5s134.833 -129 184.5 -214s83.834 -182.5 102.501 -292.5h-209c-4 37.333 -13.667 75.833 -29 115.5s-35.833 78.167 -61.5 115.5s-56.334 72.833 -92.001 106.5s-76.167 63 -121.5 88s-95.166 44.833 -149.499 59.5s-112.833 22 -175.5 22
c-87.333 0 -166.166 -11 -236.499 -33s-132.833 -52.5 -187.5 -91.5s-101.5 -85.167 -140.5 -138.5s-71.167 -111.166 -96.5 -173.499s-44 -128 -56 -197s-18 -138.5 -18 -208.5c0 -70.667 6 -140.667 18 -210s30.667 -135.166 56 -197.499s57.5 -120.333 96.5 -174
s85.833 -100 140.5 -139s117.167 -69.5 187.5 -91.5s149.166 -33 236.499 -33c103.333 0 197 17.833 281 53.5s155.667 85.167 215 148.5s104.833 138 136.5 224s46.834 179.667 45.501 281h-671v176h856v-1015z" />
    <glyph glyph-name="H" unicode="H" horiz-adv-x="1970" 
d="M201 1955h209v-841h1151v841h208v-1955h-208v937h-1151v-937h-209v1955z" />
    <glyph glyph-name="I" unicode="I" horiz-adv-x="623" 
d="M209 1955h205v-1955h-205v1955z" />
    <glyph glyph-name="J" unicode="J" horiz-adv-x="1377" 
d="M971 1955l204.997 0.000976562v-1357c0 -100 -8.5 -189.5 -25.5 -268.5s-46.667 -145.833 -89 -200.5s-99.166 -96.5 -170.499 -125.5s-161.333 -43.5 -270 -43.5c-75.333 0 -141.666 8.33301 -198.999 25s-106.833 39.834 -148.5 69.501s-76.5 65 -104.5 106
s-50.167 85.833 -66.5 134.5s-28 100.5 -35 155.5s-10.5 111.5 -10.5 169.5v29h209v-35c0.666992 -24.667 1.33398 -53.667 2.00098 -87s4 -67.833 10 -103.5s15.833 -70.834 29.5 -105.501s33.667 -65.834 60 -93.501s60 -50 101 -67s91.833 -25.5 152.5 -25.5
c72.667 0 131.834 11.5 177.501 34.5s81.167 55.167 106.5 96.5s42.666 90.833 51.999 148.5s14 121.167 14 190.5v1353z" />
    <glyph glyph-name="K" unicode="K" horiz-adv-x="1815" 
d="M201 1955h209v-1038l1134 1038h275l-901 -810l942 -1145h-267l-827 1009l-356 -340v-669h-209v1955z" />
    <glyph glyph-name="L" unicode="L" horiz-adv-x="1493" 
d="M201 1955h209v-1779h1045v-176h-1254v1955z" />
    <glyph glyph-name="M" unicode="M" horiz-adv-x="2331" 
d="M2134 1955v-1955h-205v1722l-672 -1722h-180l-676 1722v-1722h-204v1955h315l655 -1682l648 1682h319z" />
    <glyph glyph-name="N" unicode="N" horiz-adv-x="1970" 
d="M1532 0l-1131 1703v-1703h-204v1955h254l1114 -1687v1687h204v-1955h-237z" />
    <glyph glyph-name="O" unicode="O" horiz-adv-x="2073" 
d="M94 977c0 89.333 8.66992 176.5 26.0029 261.5s43.333 165.333 78 241s78.167 145 130.5 208s113.333 117.333 183 163s148.167 81.167 235.5 106.5s183.666 38 288.999 38s201.666 -12.667 288.999 -38s165.833 -60.833 235.5 -106.5s130.667 -100 183 -163
s95.833 -132.333 130.5 -208s60.667 -156 78 -241s26 -172.167 26 -261.5s-8.66699 -176.5 -26 -261.5s-43.333 -165.167 -78 -240.5s-78.167 -144.5 -130.5 -207.5s-113.333 -117.333 -183 -163s-148.167 -81.167 -235.5 -106.5s-183.666 -38 -288.999 -38
c-104.667 0 -200.834 12.667 -288.501 38s-166.334 60.833 -236.001 106.5s-130.667 100 -183 163s-95.833 132.167 -130.5 207.5s-60.667 155.5 -78 240.5s-26 172.167 -26 261.5zM303.003 977c0 -70.667 6 -140.667 18 -210s30.5 -135.166 55.5 -197.499
s57.167 -120.333 96.5 -174s86.166 -100 140.499 -139s116.5 -69.5 186.5 -91.5s148.667 -33 236 -33s166.166 11 236.499 33s132.666 52.5 186.999 91.5s101 85.333 140 139s71 111.667 96 174s43.5 128.166 55.5 197.499s18 139.333 18 210c0 70 -6 139.5 -18 208.5
s-30.5 134.667 -55.5 197s-57 120.166 -96 173.499s-85.667 99.5 -140 138.5s-116.666 69.5 -186.999 91.5s-149.166 33 -236.499 33s-166 -11 -236 -33s-132.167 -52.5 -186.5 -91.5s-101.166 -85.167 -140.499 -138.5s-71.5 -111.166 -96.5 -173.499
s-43.5 -128 -55.5 -197s-18 -138.5 -18 -208.5z" />
    <glyph glyph-name="P" unicode="P" horiz-adv-x="1761" 
d="M201 1955l880 -0.00195312c90 0 171.833 -12.667 245.5 -38s136.667 -62 189 -110s92.666 -107 120.999 -177s42.5 -149.667 42.5 -239s-14.167 -168.666 -42.5 -237.999s-68.666 -127.666 -120.999 -174.999s-115.333 -83.5 -189 -108.5s-155.5 -37.5 -245.5 -37.5h-671
v-832h-209v1955zM410 1008h626c65.333 0 125 7.5 179 22.5s100.167 38.333 138.5 70s68.166 71.5 89.499 119.5s32 105 32 171s-10.667 123.333 -32 172s-51.166 89 -89.499 121s-84.5 55.833 -138.5 71.5s-113.667 23.5 -179 23.5h-626v-771z" />
    <glyph glyph-name="Q" unicode="Q" horiz-adv-x="2073" 
d="M94 977c0 89.333 8.6709 176.503 26.0039 261.503s43.333 165.333 78 241s78.167 145 130.5 208s113.333 117.333 183 163s148.167 81.167 235.5 106.5s183.666 38 288.999 38s201.666 -12.667 288.999 -38s165.833 -60.833 235.5 -106.5s130.667 -100 183 -163
s95.833 -132.333 130.5 -208s60.667 -156 78 -241s26 -172.167 26 -261.5c0 -86.667 -8.16699 -171.334 -24.5 -254.001s-41 -160.834 -74 -234.501s-74 -141.834 -123 -204.501s-106.5 -117 -172.5 -163l266 -309h-249l-187 216c-55.333 -21.333 -114.333 -38 -177 -50
s-129.667 -18 -201 -18c-104.667 0 -200.834 12.667 -288.501 38s-166.334 60.833 -236.001 106.5s-130.667 100 -183 163s-95.833 132.167 -130.5 207.5s-60.667 155.5 -78 240.5s-26 172.167 -26 261.5zM1207 560.003l256.996 -300.001
c53.333 39.333 99.333 85.666 138 138.999s70.334 111 95.001 173s42.834 127.5 54.501 196.5s17.5 138.5 17.5 208.5s-6 139.5 -18 208.5s-30.5 134.667 -55.5 197s-57 120.166 -96 173.499s-85.667 99.5 -140 138.5s-116.666 69.5 -186.999 91.5s-149.166 33 -236.499 33
s-166 -11 -236 -33s-132.167 -52.5 -186.5 -91.5s-101.166 -85.167 -140.499 -138.5s-71.5 -111.166 -96.5 -173.499s-43.5 -128 -55.5 -197s-18 -138.5 -18 -208.5c0 -70.667 6 -140.667 18 -210s30.5 -135.166 55.5 -197.499s57.167 -120.333 96.5 -174
s86.166 -100 140.499 -139s116.5 -69.5 186.5 -91.5s148.667 -33 236 -33c48 0 93 3.33301 135 10s82 16.334 120 29.001l-334 389h250z" />
    <glyph glyph-name="R" unicode="R" horiz-adv-x="1857" 
d="M201 1955l908.999 -0.00292969c82.667 0 161.167 -10.167 235.5 -30.5s139.5 -51.666 195.5 -93.999s100.5 -96 133.5 -161s49.5 -142.167 49.5 -231.5c0 -64.667 -10.333 -126.5 -31 -185.5s-50 -112.167 -88 -159.5s-84 -87.166 -138 -119.499
s-114.333 -53.833 -181 -64.5c31.333 -12.667 59.833 -31.667 85.5 -57s48.334 -53 68.001 -83s36.334 -60 50.001 -90s24.5 -55.667 32.5 -77l121 -334c12 -34 23.333 -63.667 34 -89s21 -48.166 31 -68.499s20.333 -39.166 31 -56.499l34 -54h-231
c-12 15.333 -23.333 33 -34 53s-21 41 -31 63s-19.333 44.667 -28 68s-16.334 46.666 -23.001 69.999l-111 308c-11.333 32 -26.333 65 -45 99s-43 65.333 -73 94s-66.667 52.167 -110 70.5s-95.333 27.5 -156 27.5h-521v-853h-209v1955zM409.999 1026h647.002
c60.667 0 118.667 8.5 174 25.5s104.166 41.5 146.499 73.5s76 71.167 101 117.5s37.5 98.5 37.5 156.5s-8.83301 110.333 -26.5 157s-44 86.5 -79 119.5s-78.833 58.5 -131.5 76.5s-114.334 27 -185.001 27h-684v-753z" />
    <glyph glyph-name="S" unicode="S" horiz-adv-x="1761" 
d="M308 679c-2 -101.333 13 -186.84 45 -256.507s76.667 -126 134 -169s125 -74 203 -93s162 -28.5 252 -28.5c34 0 70.333 3.16699 109 9.5s77 16 115 29s74.333 29.833 109 50.5s65.334 45.5 92.001 74.5s47.834 62 63.501 99s23.5 78.833 23.5 125.5
c0 35.333 -5.83301 67.5 -17.5 96.5s-27.334 55.167 -47.001 78.5s-42.834 44 -69.501 62s-54.834 33.833 -84.501 47.5s-60.167 25.334 -91.5 35.001s-61.666 17.834 -90.999 24.501l-410 93c-60 12.667 -117.667 30.5 -173 53.5s-104.166 53.333 -146.499 91
s-76.166 83.834 -101.499 138.501s-38 120.667 -38 198c0 32 3.83301 68 11.5 108s21.167 80.667 40.5 122s45.5 81.5 78.5 120.5s75 73.833 126 104.5s112 55.334 183 74.001s153.833 28 248.5 28c100 0 195 -14.333 285 -43s168.667 -70.667 236 -126
s120.833 -123.166 160.5 -203.499s59.5 -172.166 59.5 -275.499h-209c-3.33301 74.667 -19.5 141.334 -48.5 200.001s-67.5 108.167 -115.5 148.5s-103.167 71 -165.5 92s-128.5 31.5 -198.5 31.5c-64.667 0 -126.167 -6.5 -184.5 -19.5s-109.666 -34.5 -153.999 -64.5
s-79.5 -69.333 -105.5 -118s-39 -108.334 -39 -179.001c0 -44 7.83301 -82 23.5 -114s37 -59.333 64 -82s58.333 -41.334 94 -56.001s73.5 -26.667 113.5 -36l447 -110c48 -11.333 94.333 -24.333 139 -39s86.5 -32.167 125.5 -52.5s74.667 -43.666 107 -69.999
s60.166 -56.666 83.499 -90.999s41.333 -73.166 54 -116.499s19 -92 19 -146c0 -16.667 -1.16699 -37.5 -3.5 -62.5s-7.5 -52.333 -15.5 -82s-19.5 -60.667 -34.5 -93s-35.167 -64 -60.5 -95s-56.833 -60.5 -94.5 -88.5s-82.834 -52.667 -135.501 -74
s-113.834 -38.333 -183.501 -51s-149.167 -19 -238.5 -19c-118.667 0 -228 14.5 -328 43.5s-185.5 73.167 -256.5 132.5s-125.167 134.166 -162.5 224.499s-53 196.5 -47 318.5h205z" />
    <glyph glyph-name="T" unicode="T" horiz-adv-x="1540" 
d="M16 1955h1508v-176h-653v-1779h-205v1779h-650v176z" />
    <glyph glyph-name="U" unicode="U" horiz-adv-x="1917" 
d="M958 -40c-140 0 -259.333 20 -358 60s-179.167 95.5 -241.5 166.5s-107.666 154.833 -135.999 251.5s-42.5 201.667 -42.5 315v1202h209v-1202c-1.33301 -110 10.667 -204.333 36 -283s62.166 -143 110.499 -193s108 -86.667 179 -110s152.167 -35 243.5 -35
c90.667 0 171.667 11.667 243 35s131.333 60 180 110s85.5 114.333 110.5 193s37.167 173 36.5 283v1202h209v-1202c0 -113.333 -14.333 -218.333 -43 -315s-74.167 -180.5 -136.5 -251.5s-142.833 -126.5 -241.5 -166.5s-218 -60 -358 -60z" />
    <glyph glyph-name="V" unicode="V" horiz-adv-x="1745" 
d="M755 0l-739 1955h224l632 -1718l632 1718h224l-739 -1955h-234z" />
    <glyph glyph-name="W" unicode="W" horiz-adv-x="2570" 
d="M15 1955h225l450 -1670l473 1670h254l481 -1670l447 1670h209l-553 -1955h-217l-498 1707l-489 -1707h-225z" />
    <glyph glyph-name="X" unicode="X" horiz-adv-x="1671" 
d="M47 1955h246l534 -795l552 795h233l-658 -944l709 -1011h-250l-586 855l-598 -855h-233l704 1015z" />
    <glyph glyph-name="Y" unicode="Y" horiz-adv-x="1777" 
d="M785 785l-769 1170h246l629 -994l625 994h246l-768 -1170v-785h-209v785z" />
    <glyph glyph-name="Z" unicode="Z" horiz-adv-x="1606" 
d="M111 1955h1421v-176l-1274 -1603h1274v-176h-1512v176l1274 1603h-1183v176z" />
    <glyph glyph-name="bracketleft" unicode="[" horiz-adv-x="676" 
d="M205 -537v2581h467v-164h-275v-2253h275v-164h-467z" />
    <glyph glyph-name="backslash" unicode="\" horiz-adv-x="930" 
d="M799 -41l-821 2040h160l829 -2040h-168z" />
    <glyph glyph-name="bracketright" unicode="]" horiz-adv-x="676" 
d="M471 2044v-2581h-467v164h275v2253h-275v164h467z" />
    <glyph glyph-name="asciicircum" unicode="^" horiz-adv-x="1679" 
d="M106 703l660 1253h147l660 -1253h-176l-561 1052l-549 -1052h-181z" />
    <glyph glyph-name="underscore" unicode="_" horiz-adv-x="1397" 
d="M0 -348v155h1397v-155h-1397z" />
    <glyph glyph-name="grave" unicode="`" horiz-adv-x="516" 
d="M-98 2044h240l292 -402h-155z" />
    <glyph glyph-name="a" unicode="a" horiz-adv-x="1450" 
d="M1072 727c-45.333 2.66699 -96.334 3.6709 -153.001 3.00391s-114.334 -4.33398 -173.001 -11.001s-115.667 -17.334 -171 -32.001s-104.666 -34.5 -147.999 -59.5s-78.166 -56 -104.499 -93s-39.5 -81.5 -39.5 -133.5c0 -43.333 8.66699 -82.166 26 -116.499
s40.166 -63.5 68.499 -87.5s60.666 -42.333 96.999 -55s73.5 -19 111.5 -19c64.667 0 126.334 10.167 185.001 30.5s110.334 49.666 155.001 87.999s80.167 85.166 106.5 140.499s39.5 117.666 39.5 186.999v158zM151.999 1004c0 76 13.5039 144.67 40.5039 206.003
s65 113.666 114 156.999s108 76.666 177 99.999s145.833 35 230.5 35c41.333 0 83.666 -2.83301 126.999 -8.5s85.5 -15.5 126.5 -29.5s79.5 -32.833 115.5 -56.5s67.667 -53.167 95 -88.5s48.833 -77.5 64.5 -126.5s23.5 -105.833 23.5 -170.5v-760
c0 -22 1.16699 -45.333 3.5 -70s5.16602 -48.834 8.49902 -72.501s7.33301 -45.834 12 -66.501s9.66699 -38.334 15 -53.001h-191c-10.667 35.333 -18.334 69.833 -23.001 103.5s-8.33398 70.5 -11.001 110.5c-32 -43.333 -64.333 -81 -97 -113s-68.167 -58.5 -106.5 -79.5
s-81.166 -36.667 -128.499 -47s-101.333 -15.5 -162 -15.5c-65.333 0 -128 8.5 -188 25.5s-112.833 43.167 -158.5 78.5s-82 80 -109 134s-40.5 118 -40.5 192c0 80 15.5 148.333 46.5 205s72.167 103.667 123.5 141s110.666 66.5 177.999 87.5s137.333 36.167 210 45.5
s145.667 14.166 219 14.499s141.666 -1.5 204.999 -5.5v142c0 54.667 -9.66699 101.834 -29 141.501s-45.166 72.334 -77.499 98.001s-70 44.667 -113 57s-87.833 18.5 -134.5 18.5c-60.667 0 -114.167 -7.66699 -160.5 -23s-85.333 -37.166 -117 -65.499
s-55.667 -63 -72 -104s-24.5 -86.833 -24.5 -137.5h-192z" />
    <glyph glyph-name="b" unicode="b" horiz-adv-x="1598" 
d="M1291 723c0 78.667 -8.5 153.997 -25.5 225.997s-43.5 135.333 -79.5 190s-82 98.334 -138 131.001s-123.333 49 -202 49c-60.667 0 -114.667 -7.83301 -162 -23.5s-88.833 -37.5 -124.5 -65.5s-65.834 -60.833 -90.501 -98.5s-44.667 -78.667 -60 -123
s-26.5 -90.666 -33.5 -138.999s-10.5 -97.166 -10.5 -146.499s3.5 -98.333 10.5 -147s18.167 -95.167 33.5 -139.5s35.333 -85.666 60 -123.999s54.834 -71.5 90.501 -99.5s77.167 -50 124.5 -66s101.333 -24 162 -24c52 0 99.167 8 141.5 24s80 38 113 66
s61.5 61.167 85.5 99.5s43.833 79.666 59.5 123.999s27.167 90.833 34.5 139.5s11 97.667 11 147zM172 1999h196.997v-794c22.667 46.667 50.834 87.667 84.501 123s71.167 64.833 112.5 88.5s85.833 41.334 133.5 53.001s96.5 17.5 146.5 17.5
c106.667 0 200 -19.333 280 -58s146.333 -92 199 -160s92.167 -148.333 118.5 -241s39.5 -193.334 39.5 -302.001s-13.333 -209.667 -40 -303s-66.5 -174.333 -119.5 -243s-119.333 -122.667 -199 -162s-172.5 -59 -278.5 -59c-53.333 0 -104.666 6.5 -153.999 19.5
s-95.166 31.667 -137.499 56s-80.833 54 -115.5 89s-63.667 74.5 -87 118.5v-242h-180v1999z" />
    <glyph glyph-name="c" unicode="c" horiz-adv-x="1499" 
d="M1182 987c-12.667 51.333 -29.6621 97.334 -50.9951 138.001s-48 75 -80 103s-69.667 49.5 -113 64.5s-93 22.5 -149 22.5c-84 0 -156.833 -16.5 -218.5 -49.5s-112.834 -77 -153.501 -132s-70.834 -117.833 -90.501 -188.5s-29.5 -144 -29.5 -220
s9.83301 -150.167 29.5 -222.5s49.834 -137 90.501 -194s91.834 -102.833 153.501 -137.5s134.5 -52 218.5 -52c53.333 0 103.333 10.167 150 30.5s87.667 48.666 123 84.999s64.166 79.5 86.499 129.5s36.166 104.667 41.499 164h193
c-11.333 -88 -33.5 -167.333 -66.5 -238s-75.167 -130.834 -126.5 -180.501s-110.833 -87.834 -178.5 -114.501s-141.834 -40 -222.501 -40c-74.667 0 -143.334 9.33301 -206.001 28s-119.334 44.834 -170.001 78.501s-95.167 74.167 -133.5 121.5s-70.5 99.5 -96.5 156.5
s-45.5 118 -58.5 183s-19.5 132.5 -19.5 202.5c0 104.667 14.667 203 44 295s72.833 172.333 130.5 241s129 122.834 214 162.501s183.5 59.5 295.5 59.5c78 0 150.333 -10.5 217 -31.5s125.5 -52.167 176.5 -93.5s93.167 -93 126.5 -155s55 -134 65 -216h-192z" />
    <glyph glyph-name="d" unicode="d" horiz-adv-x="1598" 
d="M307 723c0 -49.333 3.66699 -98.3301 11 -146.997s18.833 -95.167 34.5 -139.5s35.5 -85.666 59.5 -123.999s52.5 -71.5 85.5 -99.5s70.5 -50 112.5 -66s89.333 -24 142 -24c60.667 0 114.667 8 162 24s88.833 38 124.5 66s65.834 61.167 90.501 99.5
s44.667 79.666 60 123.999s26.5 90.833 33.5 139.5s10.5 97.667 10.5 147s-3.5 98.166 -10.5 146.499s-18.167 94.666 -33.5 138.999s-35.333 85.333 -60 123s-54.834 70.5 -90.501 98.5s-77.167 49.833 -124.5 65.5s-101.333 23.5 -162 23.5
c-78.667 0 -146 -16.333 -202 -49s-102 -76.334 -138 -131.001s-62.5 -118 -79.5 -190s-25.5 -147.333 -25.5 -226zM1426 0.00292969h-180.004v242c-23.333 -44 -52.333 -83.5 -87 -118.5s-73.167 -64.667 -115.5 -89s-88.166 -43 -137.499 -56
s-100.666 -19.5 -153.999 -19.5c-106 0 -198.833 19.667 -278.5 59s-146 93.333 -199 162s-92.833 149.667 -119.5 243s-40 194.333 -40 303s13.167 209.334 39.5 302.001s65.833 173 118.5 241s118.834 121.333 198.501 160s173.167 58 280.5 58
c50 0 98.833 -5.83301 146.5 -17.5s92.167 -29.334 133.5 -53.001s78.833 -53.167 112.5 -88.5s61.834 -76.333 84.501 -123v794h197v-1999z" />
    <glyph glyph-name="e" unicode="e" horiz-adv-x="1532" 
d="M297 676c0.666992 -66 10.999 -131.828 30.999 -197.495s49.5 -124.834 88.5 -177.501s87.5 -95.5 145.5 -128.5s126 -49.5 204 -49.5c61.333 0 116.166 8.66699 164.499 26s90.333 41 126 71s65.167 65.333 88.5 106s41 84.667 53 132h193
c-17.333 -70.667 -42.666 -136.334 -75.999 -197.001s-75.666 -113.334 -126.999 -158.001s-112 -79.834 -182 -105.501s-150 -38.5 -240 -38.5c-74.667 0 -142.834 10 -204.501 30s-117 47.667 -166 83s-91.667 77.333 -128 126s-66.5 101.334 -90.5 158.001
s-42 116.5 -54 179.5s-18 126.833 -18 191.5c0 62.667 5.83301 124.834 17.5 186.501s29.334 120.5 53.001 176.5s53.5 108 89.5 156s78.5 89.5 127.5 124.5s104.5 62.5 166.5 82.5s131 30 207 30c77.333 0 147.333 -10.333 210 -31s118.334 -49.334 167.001 -86.001
s90.5 -80.334 125.5 -131.001s63.5 -105.834 85.5 -165.501s37.667 -123 47 -190s12.666 -134.833 9.99902 -203.5h-1114zM1218 840.005c-2 65.333 -13.8301 126.831 -35.4971 184.498s-52 108 -91 151s-85.833 77 -140.5 102s-116.334 37.5 -185.001 37.5
s-130.334 -12.667 -185.001 -38s-101.834 -59.666 -141.501 -102.999s-71.5 -93.666 -95.5 -150.999s-39.667 -118.333 -47 -183h921z" />
    <glyph glyph-name="f" unicode="f" horiz-adv-x="758" 
d="M741 1294l-286.001 -0.000976562v-1294h-193v1294h-246v164h246v123c0 68.667 5.83301 130 17.5 184s31.167 99.5 58.5 136.5s63.333 65.333 108 85s100.334 29.5 167.001 29.5c34 0 64 -1.5 90 -4.5s51 -7.16699 75 -12.5v-168c-26 5.33301 -49 9.33301 -69 12
s-43.333 4 -70 4c-46 0 -81.333 -7.16699 -106 -21.5s-42.5 -34 -53.5 -59s-17.667 -54.167 -20 -87.5s-3.83301 -68.666 -4.5 -105.999v-115h286v-164z" />
    <glyph glyph-name="g" unicode="g" horiz-adv-x="1581" 
d="M766 180c74 0 138.998 15.9971 194.998 47.9971s103 74.333 141 127s66.667 113 86 181s29 137.667 29 209c0 46.667 -3.66699 93.5 -11 140.5s-18.666 92.5 -33.999 136.5s-35 85 -59 123s-52.667 71 -86 99s-71.666 50.167 -114.999 66.5s-92 24.5 -146 24.5
s-102.833 -7.66699 -146.5 -23s-82.5 -36.666 -116.5 -63.999s-63.333 -59.666 -88 -96.999s-45 -77.833 -61 -121.5s-27.833 -89.667 -35.5 -138s-11.5 -97.166 -11.5 -146.499c0 -71.333 9.33301 -141 28 -209s47 -128.333 85 -181s85.667 -95 143 -127s125 -48 203 -48z
M1409 153.997c-1.33301 -103.333 -16.333 -198.497 -45 -285.497s-70.167 -162 -124.5 -225s-121.333 -112.333 -201 -148s-170.5 -53.5 -272.5 -53.5c-47.333 0 -94.333 4.16699 -141 12.5s-91.5 21 -134.5 38s-83.167 38 -120.5 63s-70.333 54.333 -99 88
s-52 71.667 -70 114s-29 88.833 -33 139.5h192c10 -50.667 28.333 -94 55 -130s58.5 -65.667 95.5 -89s77.5 -40.5 121.5 -51.5s88.667 -16.5 134 -16.5c66.667 0 127.834 12.167 183.501 36.5s103.167 59.666 142.5 105.999s70 103 92 170s33 142.833 33 227.5v132
c-24.667 -42.667 -53.834 -80.5 -87.501 -113.5s-70.167 -60.833 -109.5 -83.5s-80.666 -39.834 -123.999 -51.501s-86.666 -17.5 -129.999 -17.5c-114 0 -212 19.667 -294 59s-149.5 93 -202.5 161s-92 147.5 -117 238.5s-37.5 188.167 -37.5 291.5
c0 66.667 6.66699 131.167 20 193.5s32.666 120.833 57.999 175.5s56.666 104.667 93.999 150s80 84.166 128 116.499s101.333 57.333 160 75s122.334 26.5 191.001 26.5c48 0 94.167 -6 138.5 -18s85.666 -29 123.999 -51s73.5 -48.667 105.5 -80s59.667 -66.333 83 -105
v209h192v-1304z" />
    <glyph glyph-name="h" unicode="h" horiz-adv-x="1516" 
d="M172 1999l193.002 -0.000976562v-769c30.667 42 65.167 79.167 103.5 111.5s78.5 59.5 120.5 81.5s85.167 38.667 129.5 50s87.833 17 130.5 17c94 0 172.5 -13.167 235.5 -39.5s113.667 -64.666 152 -114.999s65.666 -112 81.999 -185s24.5 -156.5 24.5 -250.5v-900
h-192v896c0 67.333 -5.33301 127.5 -16 180.5s-28.334 97.667 -53.001 134s-57.334 64 -98.001 83s-91 28.5 -151 28.5c-69.333 0 -132.166 -13.333 -188.499 -40s-105 -62.834 -146 -108.501s-73 -99.167 -96 -160.5s-35.5 -126.666 -37.5 -195.999v-817h-193v1999z" />
    <glyph glyph-name="i" unicode="i" horiz-adv-x="586" 
d="M197 1458h192v-1458h-192v1458zM197 1999h192v-296h-192v296z" />
    <glyph glyph-name="j" unicode="j" horiz-adv-x="586" 
d="M197 1458h191.998v-1624c0 -54 -4.33301 -103.5 -13 -148.5s-24.167 -83.667 -46.5 -116s-52.666 -57.333 -90.999 -75s-86.833 -26.5 -145.5 -26.5c-11.333 0 -24.166 0.166992 -38.499 0.5s-28.5 0.833008 -42.5 1.5s-27.167 1.5 -39.5 2.5
s-22.166 2.16699 -29.499 3.5v160c12 -1.33301 24.167 -2.33301 36.5 -3s23.666 -1.16699 33.999 -1.5s19 -0.5 26 -0.5h13.5c31.333 0 56.5 4.5 75.5 13.5s33.5 22.167 43.5 39.5s16.667 38.333 20 63s5 53 5 85v1626zM196.998 1999h192v-293h-192v293z" />
    <glyph glyph-name="k" unicode="k" horiz-adv-x="1446" 
d="M172 1999h193v-1233l774 692h262l-631 -545l664 -913h-242l-569 782l-258 -229v-553h-193v1999z" />
    <glyph glyph-name="l" unicode="l" horiz-adv-x="586" 
d="M197 2000h192v-2000h-192v2000z" />
    <glyph glyph-name="m" unicode="m" horiz-adv-x="2314" 
d="M172 1458h178.998l3 -228c47.333 84 109.333 148.333 186 193s165.667 67 267 67c92 0 172.5 -21 241.5 -63s123.167 -110.667 162.5 -206c22.667 46 50.5 85.833 83.5 119.5s69.333 61.667 109 84s81.5 38.833 125.5 49.5s88.667 16 134 16c155.333 0 274 -43 356 -129
s123 -215 123 -387v-974h-192v966c0 58 -5.66699 109.167 -17 153.5s-29.166 81.5 -53.499 111.5s-56 52.667 -95 68s-85.833 23 -140.5 23c-77.333 0 -141.333 -14.167 -192 -42.5s-91 -66.166 -121 -113.499s-51.167 -101.833 -63.5 -163.5s-18.5 -125.834 -18.5 -192.501
v-810h-192v961c0.666992 48 -3.66602 93.833 -12.999 137.5s-25 82 -47 115s-50.5 59.333 -85.5 79s-77.167 29.5 -126.5 29.5c-77.333 0 -142.5 -12.833 -195.5 -38.5s-96 -61.5 -129 -107.5s-57 -100.833 -72 -164.5s-22.833 -133.5 -23.5 -209.5v-802h-193v1458z" />
    <glyph glyph-name="n" unicode="n" horiz-adv-x="1532" 
d="M172 1458h179.001l3 -218c26.667 46 57.167 85.5 91.5 118.5s71.666 60.333 111.999 82s82.833 37.5 127.5 47.5s90.667 15 138 15c103.333 0 189.5 -13.167 258.5 -39.5s124.167 -63.833 165.5 -112.5s70.5 -108 87.5 -178s25.5 -148.333 25.5 -235v-938h-193v909
c0 61.333 -5.16699 118 -15.5 170s-28.833 97 -55.5 135s-63 67.667 -109 89s-104.667 32 -176 32c-68.667 0 -130.167 -12.167 -184.5 -36.5s-100.5 -58 -138.5 -101s-67.5 -94 -88.5 -153s-32.5 -123.167 -34.5 -192.5v-852h-193v1458z" />
    <glyph glyph-name="o" unicode="o" horiz-adv-x="1556" 
d="M778 1481c73.333 0 140.999 -9.33301 202.999 -28s118.333 -44.667 169 -78s95.5 -73.5 134.5 -120.5s71.667 -99 98 -156s46.166 -118 59.499 -183s20 -132.167 20 -201.5c0 -104.667 -15 -203.167 -45 -295.5s-74 -173.166 -132 -242.499
s-129.5 -124.166 -214.5 -164.499s-182.5 -60.5 -292.5 -60.5c-109.333 0 -206.5 20.167 -291.5 60.5s-156.5 95.166 -214.5 164.499s-102.167 150.166 -132.5 242.499s-45.5 190.833 -45.5 295.5c0 69.333 6.66699 136.5 20 201.5s33.333 126 60 183s59.334 109 98.001 156
s83.334 87.167 134.001 120.5s107 59.333 169 78s129.667 28 203 28zM777.999 1313c-82 0 -153.667 -16 -215 -48s-112.5 -75.333 -153.5 -130s-71.667 -118.334 -92 -191.001s-30.5 -149.334 -30.5 -230.001s10.167 -157.334 30.5 -230.001s51 -136.334 92 -191.001
s92.167 -98 153.5 -130s133 -48 215 -48s153.5 16 214.5 48s111.833 75.333 152.5 130s71 118.334 91 191.001s30 149.334 30 230.001s-10 157.334 -30 230.001s-50.333 136.334 -91 191.001s-91.5 98 -152.5 130s-132.5 48 -214.5 48z" />
    <glyph glyph-name="p" unicode="p" horiz-adv-x="1598" 
d="M1291 730c0 47.333 -3.66699 94.8311 -11 142.498s-18.833 93.5 -34.5 137.5s-35.5 84.833 -59.5 122.5s-52.5 70.5 -85.5 98.5s-70.667 50 -113 66s-89.5 24 -141.5 24c-60.667 0 -114.667 -7.66699 -162 -23s-88.833 -36.5 -124.5 -63.5s-65.834 -59 -90.501 -96
s-44.667 -77.333 -60 -121s-26.5 -89.5 -33.5 -137.5s-10.5 -96.667 -10.5 -146s3.5 -98.166 10.5 -146.499s18.167 -94.666 33.5 -138.999s35.333 -85.333 60 -123s54.834 -70.5 90.501 -98.5s77.167 -49.833 124.5 -65.5s101.333 -23.5 162 -23.5
c78.667 0 146 16.5 202 49.5s102 77 138 132s62.5 118.167 79.5 189.5s25.5 145 25.5 221zM172 1457l180.003 -0.00292969v-242c23.333 44 52.333 82.833 87 116.5s73.167 61.834 115.5 84.501s88.166 39.834 137.499 51.501s100.666 17.5 153.999 17.5
c106 0 198.833 -19.667 278.5 -59s146 -93 199 -161s92.833 -148.167 119.5 -240.5s40 -191.5 40 -297.5s-13.167 -205 -39.5 -297s-65.833 -172.167 -118.5 -240.5s-119 -122 -199 -161s-173.333 -58.5 -280 -58.5c-50 0 -98.833 5.83301 -146.5 17.5
s-92.167 29.334 -133.5 53.001s-78.833 53 -112.5 88s-61.834 76.167 -84.501 123.5v-794h-197v1999z" />
    <glyph glyph-name="q" unicode="q" horiz-adv-x="1598" 
d="M307 730c0 -76 8.5 -149.665 25.5 -220.998s43.5 -134.5 79.5 -189.5s82 -99 138 -132s123.333 -49.5 202 -49.5c60.667 0 114.667 7.83301 162 23.5s88.833 37.5 124.5 65.5s65.834 60.833 90.501 98.5s44.667 78.667 60 123s26.5 90.666 33.5 138.999
s10.5 97.166 10.5 146.499s-3.5 98 -10.5 146s-18.167 93.833 -33.5 137.5s-35.333 84 -60 121s-54.834 69 -90.501 96s-77.167 48.167 -124.5 63.5s-101.333 23 -162 23c-52 0 -99.167 -8 -141.5 -24s-80 -38 -113 -66s-61.5 -60.833 -85.5 -98.5
s-43.833 -78.5 -59.5 -122.5s-27.167 -89.833 -34.5 -137.5s-11 -95.167 -11 -142.5zM1426 -541.998l-196.996 0.00292969v794c-22.667 -47.333 -50.834 -88.5 -84.501 -123.5s-71.167 -64.333 -112.5 -88s-85.833 -41.334 -133.5 -53.001s-96.5 -17.5 -146.5 -17.5
c-107.333 0 -200.833 19.5 -280.5 58.5s-145.834 92.667 -198.501 161s-92.167 148.5 -118.5 240.5s-39.5 191 -39.5 297s13.333 205.167 40 297.5s66.5 172.5 119.5 240.5s119.333 121.667 199 161s172.5 59 278.5 59c53.333 0 104.666 -5.83301 153.999 -17.5
s95.166 -28.834 137.499 -51.501s80.833 -50.834 115.5 -84.501s63.667 -72.5 87 -116.5v242h180v-1999z" />
    <glyph glyph-name="r" unicode="r" horiz-adv-x="920" 
d="M172 1458l184.003 -0.000976562v-276c26 51.333 55 95.333 87 132s67.333 67 106 91s81.167 42 127.5 54s97.166 19 152.499 21c10.667 0.666992 21.667 0.5 33 -0.5s22.666 -1.83301 33.999 -2.5v-206c-14.667 3.33301 -29.834 5.83301 -45.501 7.5
s-30.5 2.83398 -44.5 3.50098c-64 1.33301 -122.833 -9.66699 -176.5 -33s-100.167 -56.5 -139.5 -99.5s-70 -94 -92 -153s-33 -123.167 -33 -192.5v-804h-193v1458z" />
    <glyph glyph-name="s" unicode="s" horiz-adv-x="1348" 
d="M1026 1006c-2 55.333 -12.4941 102.832 -31.4941 142.499s-44.333 72.334 -76 98.001s-68.334 44.5 -110.001 56.5s-86.167 18 -133.5 18c-36 0 -73.167 -4.16699 -111.5 -12.5s-73.5 -21.666 -105.5 -39.999s-58.333 -42.666 -79 -72.999s-31 -67.5 -31 -111.5
c0 -42.667 9.83301 -77.667 29.5 -105s44.167 -49.666 73.5 -66.999s61.166 -30.833 95.499 -40.5s66.5 -18.167 96.5 -25.5l217 -53c59.333 -14 113.333 -31.167 162 -51.5s90.5 -46 125.5 -77s62 -68.5 81 -112.5s28.5 -96.667 28.5 -158
c0 -53.333 -8.16699 -101 -24.5 -143s-38.333 -79.167 -66 -111.5s-60.334 -59.833 -98.001 -82.5s-77.834 -41.334 -120.501 -56.001s-87 -25.334 -133 -32.001s-91 -10 -135 -10c-83.333 0 -159.666 10.167 -228.999 30.5s-129.833 52 -181.5 95
s-93.334 97.333 -125.001 163s-51.167 144.167 -58.5 235.5h193c4 -59.333 17.167 -111.5 39.5 -156.5s51.666 -82.5 87.999 -112.5s78.5 -52.667 126.5 -68s99.667 -23 155 -23c38 0 79 4.33301 123 13s84.833 23 122.5 43s69 46.5 94 79.5s37.5 74.167 37.5 123.5
c0 40.667 -7.66699 74.834 -23 102.501s-36.166 50.667 -62.499 69s-56.833 33.166 -91.5 44.499s-71.334 21.666 -110.001 30.999l-213 49c-55.333 12.667 -107.833 29 -157.5 49s-93.167 45.833 -130.5 77.5s-67 70.167 -89 115.5s-33 99.666 -33 162.999
c0 48.667 7.66699 92.667 23 132s36.166 74 62.499 104s57.333 55.667 93 77s73.667 39 114 53s82 24.167 125 30.5s85.5 9.5 127.5 9.5c70.667 0 137.5 -10.667 200.5 -32s118 -52.666 165 -93.999s84.167 -92 111.5 -152s41 -128.333 41 -205h-192z" />
    <glyph glyph-name="t" unicode="t" horiz-adv-x="786" 
d="M446 1458l295 0.000976562v-164h-295v-962c0 -28 1.83301 -53 5.5 -75s10.667 -41 21 -57s24.666 -28.667 42.999 -38s42.5 -15 72.5 -17c27.333 0 52.5 0.166992 75.5 0.5s48.833 3.83301 77.5 10.5v-155c-8.66699 -2.66699 -20 -5 -34 -7s-28.833 -3.83301 -44.5 -5.5
s-31 -2.83398 -46 -3.50098s-27.833 -1 -38.5 -1c-61.333 1.33301 -112.666 7.33301 -153.999 18s-74.5 28.667 -99.5 54s-43 59 -54 101s-16.5 94.667 -16.5 158v979h-250v164h250v371h192v-371z" />
    <glyph glyph-name="u" unicode="u" horiz-adv-x="1516" 
d="M1343 0l-177 0.00488281l-5 232c-56 -86.667 -123 -153.834 -201 -201.501s-171.333 -71.5 -280 -71.5c-90 0 -167.167 13 -231.5 39s-117 63.333 -158 112s-71 107.167 -90 175.5s-28.5 145.166 -28.5 230.499v942h193v-946c2 -64.667 9.66699 -121.334 23 -170.001
s33.666 -89.167 60.999 -121.5s62.333 -56.666 105 -72.999s94 -24.5 154 -24.5c70.667 0 133.5 16.167 188.5 48.5s101.333 75.166 139 128.499s66.334 114.166 86.001 182.499s29.5 138.166 29.5 209.499v766h192v-1458z" />
    <glyph glyph-name="v" unicode="v" horiz-adv-x="1282" 
d="M0 1458h217l432 -1245l421 1245h204l-526 -1458h-205z" />
    <glyph glyph-name="w" unicode="w" horiz-adv-x="2060" 
d="M18 1458h209l350 -1204l355 1204h193l364 -1208l340 1208h209l-447 -1458h-209l-358 1188l-350 -1188h-209z" />
    <glyph glyph-name="x" unicode="x" horiz-adv-x="1348" 
d="M557 767l-506 691h229l396 -536l391 536h226l-507 -687l562 -771h-234l-446 615l-443 -615h-221z" />
    <glyph glyph-name="y" unicode="y" horiz-adv-x="1294" 
d="M5 1458l209.001 -0.00195312l454 -1208l415 1208h206l-617 -1675c-23.333 -63.333 -47.333 -115.333 -72 -156s-52.167 -72.667 -82.5 -96s-64.5 -39.666 -102.5 -48.999s-82 -14 -132 -14c-22.667 0 -44.834 2.16699 -66.501 6.5l-55.5 11.5v164
c9.33301 -3.33301 18.333 -6.16602 27 -8.49902s17.5 -4.16602 26.5 -5.49902s18.833 -2.5 29.5 -3.5s23 -1.5 37 -1.5c38.667 0 70 5.33301 94 16s44 25.667 60 45s29.5 42.666 40.5 69.999l36.5 91l61 159z" />
    <glyph glyph-name="z" unicode="z" horiz-adv-x="1303" 
d="M287 164h930v-164h-1168v156l914 1138h-848v164h1102v-135z" />
    <glyph glyph-name="braceleft" unicode="{" horiz-adv-x="930" 
d="M680 -532c-41.333 0 -77.6631 8.00586 -108.996 24.0059s-57.833 39 -79.5 69s-38 66.833 -49 110.5s-16.5 93.167 -16.5 148.5v409c0 54 -3 107.333 -9 160s-16.5 99.667 -31.5 141s-35.5 74.666 -61.5 99.999s-59 38 -99 38v163c40 0 73 12.667 99 38
s46.5 58.833 61.5 100.5s25.5 89 31.5 142s9 107.167 9 162.5v414c0 54 5.5 102.833 16.5 146.5s27.333 80.667 49 111s48.167 53.666 79.5 69.999s67.666 24.5 108.999 24.5h147v-164h-65c-26.667 0 -49.167 -7.83301 -67.5 -23.5s-33.166 -36.334 -44.499 -62.001
s-19.5 -55.334 -24.5 -89.001s-7.5 -68.5 -7.5 -104.5v-389c1.33301 -65.333 -4.83398 -123.5 -18.501 -174.5s-30.334 -95.333 -50.001 -133s-40.167 -68.834 -61.5 -93.501s-39.333 -43.667 -54 -57c13.333 -9.33301 30.666 -25 51.999 -47s42 -51.5 62 -88.5
s37 -81.833 51 -134.5s20.333 -114.334 19 -185.001v-389c0 -36 2.5 -70.5 7.5 -103.5s13.167 -62.333 24.5 -88s26.166 -46 44.499 -61s40.833 -22.5 67.5 -22.5h65v-163h-147z" />
    <glyph glyph-name="bar" unicode="|" horiz-adv-x="623" 
d="M229 1999h164v-2040h-164v2040z" />
    <glyph glyph-name="braceright" unicode="}" horiz-adv-x="930" 
d="M250 2040c42 0 79 -8.17578 111 -24.5088s59 -39.666 81 -69.999s38.5 -67.333 49.5 -111s16.5 -92.5 16.5 -146.5v-414c0 -55.333 2.83301 -109.166 8.5 -161.499s15.834 -99 30.501 -140s35 -74 61 -99s59.667 -37.5 101 -37.5v-164c-41.333 0 -75 -12.667 -101 -38
s-46.333 -58.666 -61 -99.999s-24.834 -88.166 -30.501 -140.499s-8.5 -105.833 -8.5 -160.5v-413c0 -110.667 -22 -197 -66 -259s-108 -93 -192 -93h-148v163h66c26.667 0 49.334 7.5 68.001 22.5s33.834 35.333 45.501 61s20.167 55 25.5 88s8 67.5 8 103.5v389
c-1.33301 69.333 4.66699 130.333 18 183s29.5 97.834 48.5 135.501s38.833 68 59.5 91s37.667 39.5 51 49.5c-13.333 9.33301 -30.333 25 -51 47s-40.5 51.333 -59.5 88s-35.167 81.334 -48.5 134.001s-19.333 114.334 -18 185.001v389c0 36 -2.66699 70.833 -8 104.5
s-13.833 63.334 -25.5 89.001s-26.834 46.334 -45.501 62.001s-41.334 23.5 -68.001 23.5h-66v164h148z" />
    <glyph glyph-name="asciitilde" unicode="~" horiz-adv-x="1672" 
d="M1470 914c-4 -52 -15.333 -99.1641 -34 -141.497s-43.167 -78.5 -73.5 -108.5s-65.833 -53.167 -106.5 -69.5s-84.334 -24.5 -131.001 -24.5c-45.333 0 -87.5 5 -126.5 15s-75.667 22.667 -110 38s-66.5 31.833 -96.5 49.5l-86.5 49.5c-27.667 15.333 -54.5 28 -80.5 38
s-51.667 15 -77 15c-12.667 0 -27.5 -2.66699 -44.5 -8s-33 -15 -48 -29s-27.833 -33.5 -38.5 -58.5s-16 -57.167 -16 -96.5h-199c3.33301 66.667 16.666 122.334 39.999 167.001s52 80.5 86 107.5s70.833 46.333 110.5 58s77.167 17.5 112.5 17.5
c38.667 0 74 -4.83301 106 -14.5s62.333 -21.834 91 -36.501s56.334 -30.334 83.001 -47.001s54.334 -32.334 83.001 -47.001s58.667 -26.834 90 -36.501s66 -14.5 104 -14.5c20 0 40.167 2.16699 60.5 6.5s39 13 56 26s31.667 31 44 54s20.5 53.167 24.5 90.5h177z" />
    <glyph glyph-name="saraileftthai" 
d="M-1700 2134h1090v-147h-1164z" />
    <glyph glyph-name="saraileftthai" unicode="&#xf701;" 
d="M-1700 2134h1090v-147h-1164z" />
    <glyph glyph-name="saraiileftthai" 
d="M-1700 2134h901v262h189v-409h-1164z" />
    <glyph glyph-name="saraiileftthai" unicode="&#xf702;" 
d="M-1700 2134h901v262h189v-409h-1164z" />
    <glyph glyph-name="saraueleftthai" 
d="M-1774 1987l73.999 147h623c-8.66699 14.667 -15.667 32.334 -21 53c-5.33301 20.667 -8 41.334 -8 62c0 36.667 7 71.167 21 103.5s32.833 60.5 56.5 84.5s51.334 43 83.001 57s65.5 21 101.5 21c38 0 73.167 -7 105.5 -21s60.5 -33 84.5 -57s42.667 -52.167 56 -84.5
s20 -66.833 20 -103.5c0 -37.333 -6.66699 -71.833 -20 -103.5s-32 -59.334 -56 -83c-24 -23.667 -52.167 -42.167 -84.5 -55.5s-67.5 -20 -105.5 -20h-930zM-971.001 2249c0 -17.333 3.33301 -33.833 10 -49.5s15.834 -29.167 27.501 -40.5s25.167 -20.333 40.5 -27
s31.666 -10 48.999 -10s33.666 3.33301 48.999 10s28.833 15.667 40.5 27s20.834 24.833 27.501 40.5s10 32.167 10 49.5s-3.33301 33.666 -10 49c-6.66699 15.333 -15.834 28.833 -27.501 40.5s-25.167 20.834 -40.5 27.5c-15.333 6.66699 -31.666 10 -48.999 10
s-33.666 -3.33301 -48.999 -10s-28.833 -15.834 -40.5 -27.5c-11.667 -11.667 -20.834 -25.167 -27.501 -40.5s-10 -31.666 -10 -49z" />
    <glyph glyph-name="saraueleftthai" unicode="&#xf703;" 
d="M-1774 1987l73.999 147h623c-8.66699 14.667 -15.667 32.334 -21 53c-5.33301 20.667 -8 41.334 -8 62c0 36.667 7 71.167 21 103.5s32.833 60.5 56.5 84.5s51.334 43 83.001 57s65.5 21 101.5 21c38 0 73.167 -7 105.5 -21s60.5 -33 84.5 -57s42.667 -52.167 56 -84.5
s20 -66.833 20 -103.5c0 -37.333 -6.66699 -71.833 -20 -103.5s-32 -59.334 -56 -83c-24 -23.667 -52.167 -42.167 -84.5 -55.5s-67.5 -20 -105.5 -20h-930zM-971.001 2249c0 -17.333 3.33301 -33.833 10 -49.5s15.834 -29.167 27.501 -40.5s25.167 -20.333 40.5 -27
s31.666 -10 48.999 -10s33.666 3.33301 48.999 10s28.833 15.667 40.5 27s20.834 24.833 27.501 40.5s10 32.167 10 49.5s-3.33301 33.666 -10 49c-6.66699 15.333 -15.834 28.833 -27.501 40.5s-25.167 20.834 -40.5 27.5c-15.333 6.66699 -31.666 10 -48.999 10
s-33.666 -3.33301 -48.999 -10s-28.833 -15.834 -40.5 -27.5c-11.667 -11.667 -20.834 -25.167 -27.501 -40.5s-10 -31.666 -10 -49z" />
    <glyph glyph-name="saraueeleftthai" 
d="M-1720 2134h503v262h185v-262h237v262h185v-409h-1184z" />
    <glyph glyph-name="saraueeleftthai" unicode="&#xf704;" 
d="M-1720 2134h503v262h185v-262h237v262h185v-409h-1184z" />
    <glyph glyph-name="maieklowleftthai" 
d="M-881 2454h189v-467h-189v467z" />
    <glyph glyph-name="maieklowleftthai" unicode="&#xf705;" 
d="M-881 2454h189v-467h-189v467z" />
    <glyph glyph-name="maitholowleftthai" 
d="M-1327 1987l0.000976562 258h-143v135h307v-250c76.667 0 141.167 7.5 193.5 22.5s95.333 34.333 129 58s59.667 50.334 78 80c18.333 29.667 32.166 59.5 41.499 89.5h201c-3.33301 -24 -11.333 -50.333 -24 -79s-30.167 -57.667 -52.5 -87s-49.833 -57.5 -82.5 -84.5
s-70.834 -51.167 -114.501 -72.5s-93.167 -38.333 -148.5 -51s-116.666 -19 -183.999 -19h-201z" />
    <glyph glyph-name="maitholowleftthai" unicode="&#xf706;" 
d="M-1327 1987l0.000976562 258h-143v135h307v-250c76.667 0 141.167 7.5 193.5 22.5s95.333 34.333 129 58s59.667 50.334 78 80c18.333 29.667 32.166 59.5 41.499 89.5h201c-3.33301 -24 -11.333 -50.333 -24 -79s-30.167 -57.667 -52.5 -87s-49.833 -57.5 -82.5 -84.5
s-70.834 -51.167 -114.501 -72.5s-93.167 -38.333 -148.5 -51s-116.666 -19 -183.999 -19h-201z" />
    <glyph glyph-name="maitrilowleftthai" 
d="M-958 1987c-2 22.667 -4.83008 45.167 -8.49707 67.5s-9.33398 42.5 -17.001 60.5s-17.667 32.5 -30 43.5s-28.166 16.5 -47.499 16.5c-17.333 0 -32.166 -5.33301 -44.499 -16s-22.5 -24.834 -30.5 -42.5c-8 -17.667 -13.833 -37.834 -17.5 -60.501
s-5.5 -45.667 -5.5 -69h-148c0 24.667 -2 48.334 -6 71.001s-10 42.667 -18 60s-18.167 31.166 -30.5 41.5c-12.333 10.333 -26.833 15.5 -43.5 15.5c-18.667 0 -34.334 -5.5 -47.001 -16.5s-22.834 -25.5 -30.501 -43.5s-12.834 -38.167 -15.501 -60.5s-3 -44.833 -1 -67.5
h-168c-5.33301 56 -1.66602 105.333 11.001 148s30.334 78.167 53.001 106.5s48.667 49.666 78 64c29.333 14.333 58.333 21.5 87 21.5c30 0 56.5 -3.83301 79.5 -11.5s43 -18.334 60 -32c17 -13.667 30.833 -29.834 41.5 -48.5c10.667 -18.667 18.667 -38.667 24 -60
c4 21.333 11.833 41.333 23.5 60s26.167 34.834 43.5 48.5c17.333 13.667 36.666 24.334 57.999 32c21.333 7.66699 44 11.5 68 11.5c26.667 0 51.667 -4 75 -12s44.333 -20.5 63 -37.5s34.5 -38.667 47.5 -65s22.167 -57.833 27.5 -94.5
c21.333 2.66699 43.166 10.667 65.499 24s42.5 31 60.5 53s32.333 48.5 43 79.5s15.667 66.167 15 105.5h188c0 -36.667 -5.16699 -71.834 -15.5 -105.5c-10.333 -33.667 -24.333 -65 -42 -94s-38 -55.167 -61 -78.5s-47.5 -43.5 -73.5 -60.5s-52.333 -30.167 -79 -39.5
s-52.334 -14.333 -77.001 -15h-155z" />
    <glyph glyph-name="maitrilowleftthai" unicode="&#xf707;" 
d="M-958 1987c-2 22.667 -4.83008 45.167 -8.49707 67.5s-9.33398 42.5 -17.001 60.5s-17.667 32.5 -30 43.5s-28.166 16.5 -47.499 16.5c-17.333 0 -32.166 -5.33301 -44.499 -16s-22.5 -24.834 -30.5 -42.5c-8 -17.667 -13.833 -37.834 -17.5 -60.501
s-5.5 -45.667 -5.5 -69h-148c0 24.667 -2 48.334 -6 71.001s-10 42.667 -18 60s-18.167 31.166 -30.5 41.5c-12.333 10.333 -26.833 15.5 -43.5 15.5c-18.667 0 -34.334 -5.5 -47.001 -16.5s-22.834 -25.5 -30.501 -43.5s-12.834 -38.167 -15.501 -60.5s-3 -44.833 -1 -67.5
h-168c-5.33301 56 -1.66602 105.333 11.001 148s30.334 78.167 53.001 106.5s48.667 49.666 78 64c29.333 14.333 58.333 21.5 87 21.5c30 0 56.5 -3.83301 79.5 -11.5s43 -18.334 60 -32c17 -13.667 30.833 -29.834 41.5 -48.5c10.667 -18.667 18.667 -38.667 24 -60
c4 21.333 11.833 41.333 23.5 60s26.167 34.834 43.5 48.5c17.333 13.667 36.666 24.334 57.999 32c21.333 7.66699 44 11.5 68 11.5c26.667 0 51.667 -4 75 -12s44.333 -20.5 63 -37.5s34.5 -38.667 47.5 -65s22.167 -57.833 27.5 -94.5
c21.333 2.66699 43.166 10.667 65.499 24s42.5 31 60.5 53s32.333 48.5 43 79.5s15.667 66.167 15 105.5h188c0 -36.667 -5.16699 -71.834 -15.5 -105.5c-10.333 -33.667 -24.333 -65 -42 -94s-38 -55.167 -61 -78.5s-47.5 -43.5 -73.5 -60.5s-52.333 -30.167 -79 -39.5
s-52.334 -14.333 -77.001 -15h-155z" />
    <glyph glyph-name="maichattawalowleftthai" 
d="M-799 2208v-221h-196v221h-250v135h250v217h196v-217h258v-135h-258z" />
    <glyph glyph-name="maichattawalowleftthai" unicode="&#xf708;" 
d="M-799 2208v-221h-196v221h-250v135h250v217h196v-217h258v-135h-258z" />
    <glyph glyph-name="thanthakhatlowleftthai" 
d="M-573 2245c-94.667 -6.66699 -171.168 -32 -229.501 -76s-92.5 -104.667 -102.5 -182h-197c8 63.333 25.5 118.5 52.5 165.5s62.833 86.333 107.5 118s97.834 56.167 159.501 73.5s131.5 28 209.5 32v-131z" />
    <glyph glyph-name="thanthakhatlowleftthai" unicode="&#xf709;" 
d="M-573 2245c-94.667 -6.66699 -171.168 -32 -229.501 -76s-92.5 -104.667 -102.5 -182h-197c8 63.333 25.5 118.5 52.5 165.5s62.833 86.333 107.5 118s97.834 56.167 159.501 73.5s131.5 28 209.5 32v-131z" />
    <glyph glyph-name="maieklowrightthai" 
d="M-373 2454h189v-467h-189v467z" />
    <glyph glyph-name="maieklowrightthai" unicode="&#xf70a;" 
d="M-373 2454h189v-467h-189v467z" />
    <glyph glyph-name="maitholowrightthai" 
d="M-900 1987l-0.00195312 258h-143v135h307v-250c76.667 0 141.167 7.5 193.5 22.5s95.5 34.333 129.5 58s60.167 50.334 78.5 80c18.333 29.667 32.166 59.5 41.499 89.5h200c-3.33301 -24 -11.166 -50.333 -23.499 -79s-29.666 -57.667 -51.999 -87
s-49.833 -57.5 -82.5 -84.5s-71 -51.167 -115 -72.5s-93.667 -38.333 -149 -51s-116.666 -19 -183.999 -19h-201z" />
    <glyph glyph-name="maitholowrightthai" unicode="&#xf70b;" 
d="M-900 1987l-0.00195312 258h-143v135h307v-250c76.667 0 141.167 7.5 193.5 22.5s95.5 34.333 129.5 58s60.167 50.334 78.5 80c18.333 29.667 32.166 59.5 41.499 89.5h200c-3.33301 -24 -11.166 -50.333 -23.499 -79s-29.666 -57.667 -51.999 -87
s-49.833 -57.5 -82.5 -84.5s-71 -51.167 -115 -72.5s-93.667 -38.333 -149 -51s-116.666 -19 -183.999 -19h-201z" />
    <glyph glyph-name="maitrilowrightthai" 
d="M-595 1987c-2 22.667 -4.83887 45.167 -8.50586 67.5s-9.16699 42.5 -16.5 60.5s-17.166 32.5 -29.499 43.5s-28.166 16.5 -47.499 16.5c-17.333 0 -32.333 -5.33301 -45 -16s-23 -24.834 -31 -42.5c-8 -17.667 -13.833 -37.834 -17.5 -60.501s-5.5 -45.667 -5.5 -69
h-147c0 24.667 -2 48.334 -6 71.001s-10.167 42.667 -18.5 60s-18.666 31.166 -30.999 41.5c-12.333 10.333 -26.5 15.5 -42.5 15.5c-18.667 0 -34.5 -5.5 -47.5 -16.5s-23.333 -25.5 -31 -43.5s-12.834 -38.167 -15.501 -60.5s-3 -44.833 -1 -67.5h-168
c-5.33301 56 -1.66602 105.333 11.001 148s30.5 78.167 53.5 106.5s49.167 49.666 78.5 64c29.333 14.333 58.333 21.5 87 21.5c30 0 56.5 -3.83301 79.5 -11.5s43 -18.334 60 -32c17 -13.667 30.833 -29.834 41.5 -48.5c10.667 -18.667 18.667 -38.667 24 -60
c4 21.333 11.833 41.333 23.5 60s26 34.834 43 48.5c17 13.667 36.333 24.334 58 32c21.667 7.66699 44.167 11.5 67.5 11.5c26.667 0 51.834 -4 75.501 -12s44.834 -20.5 63.501 -37.5s34.334 -38.667 47.001 -65s21.667 -57.833 27 -94.5
c21.333 2.66699 43.166 10.667 65.499 24s42.5 31 60.5 53s32.333 48.5 43 79.5s15.667 66.167 15 105.5h189c0 -55.333 -11.167 -106.666 -33.5 -153.999s-50.666 -88.5 -84.999 -123.5s-72 -62.833 -113 -83.5s-79.833 -31.334 -116.5 -32.001h-156z" />
    <glyph glyph-name="maitrilowrightthai" unicode="&#xf70c;" 
d="M-595 1987c-2 22.667 -4.83887 45.167 -8.50586 67.5s-9.16699 42.5 -16.5 60.5s-17.166 32.5 -29.499 43.5s-28.166 16.5 -47.499 16.5c-17.333 0 -32.333 -5.33301 -45 -16s-23 -24.834 -31 -42.5c-8 -17.667 -13.833 -37.834 -17.5 -60.501s-5.5 -45.667 -5.5 -69
h-147c0 24.667 -2 48.334 -6 71.001s-10.167 42.667 -18.5 60s-18.666 31.166 -30.999 41.5c-12.333 10.333 -26.5 15.5 -42.5 15.5c-18.667 0 -34.5 -5.5 -47.5 -16.5s-23.333 -25.5 -31 -43.5s-12.834 -38.167 -15.501 -60.5s-3 -44.833 -1 -67.5h-168
c-5.33301 56 -1.66602 105.333 11.001 148s30.5 78.167 53.5 106.5s49.167 49.666 78.5 64c29.333 14.333 58.333 21.5 87 21.5c30 0 56.5 -3.83301 79.5 -11.5s43 -18.334 60 -32c17 -13.667 30.833 -29.834 41.5 -48.5c10.667 -18.667 18.667 -38.667 24 -60
c4 21.333 11.833 41.333 23.5 60s26 34.834 43 48.5c17 13.667 36.333 24.334 58 32c21.667 7.66699 44.167 11.5 67.5 11.5c26.667 0 51.834 -4 75.501 -12s44.834 -20.5 63.501 -37.5s34.334 -38.667 47.001 -65s21.667 -57.833 27 -94.5
c21.333 2.66699 43.166 10.667 65.499 24s42.5 31 60.5 53s32.333 48.5 43 79.5s15.667 66.167 15 105.5h189c0 -55.333 -11.167 -106.666 -33.5 -153.999s-50.666 -88.5 -84.999 -123.5s-72 -62.833 -113 -83.5s-79.833 -31.334 -116.5 -32.001h-156z" />
    <glyph glyph-name="maichattawalowrightthai" 
d="M-184 2208v-221h-197v221h-250v135h250v217h197v-217h258v-135h-258z" />
    <glyph glyph-name="maichattawalowrightthai" unicode="&#xf70d;" 
d="M-184 2208v-221h-197v221h-250v135h250v217h197v-217h258v-135h-258z" />
    <glyph glyph-name="thanthakhatlowrightthai" 
d="M-41 2245c-94.667 -6.66699 -171 -31.834 -229 -75.5c-58 -43.667 -92.333 -104.5 -103 -182.5h-196c8 63.333 25.5 118.5 52.5 165.5s62.667 86.333 107 118s97.333 56.167 159 73.5s131.5 28 209.5 32v-131z" />
    <glyph glyph-name="thanthakhatlowrightthai" unicode="&#xf70e;" 
d="M-41 2245c-94.667 -6.66699 -171 -31.834 -229 -75.5c-58 -43.667 -92.333 -104.5 -103 -182.5h-196c8 63.333 25.5 118.5 52.5 165.5s62.667 86.333 107 118s97.333 56.167 159 73.5s131.5 28 209.5 32v-131z" />
    <glyph glyph-name="maihanakatleftthai" 
d="M-1200 1987v294h188v-147h1159v-147h-1347z" />
    <glyph glyph-name="maihanakatleftthai" unicode="&#xf710;" 
d="M-1200 1987v294h188v-147h1159v-147h-1347z" />
    <glyph glyph-name="nikhahitleftthai" 
d="M-1106 2228c0 38 6.66699 73.167 20 105.5s31.666 60.5 54.999 84.5s50.666 42.667 81.999 56s65 20 101 20c38 0 73.167 -6.66699 105.5 -20s60.5 -32 84.5 -56s42.667 -52.167 56 -84.5s20 -67.5 20 -105.5c0 -36 -6.66699 -69.667 -20 -101s-32 -58.666 -56 -82
c-24 -23.333 -52.167 -41.666 -84.5 -54.999s-67.5 -20 -105.5 -20c-36 0 -69.667 6.66699 -101 20s-58.666 31.666 -81.999 54.999s-41.666 50.666 -54.999 82c-13.333 31.333 -20 65 -20 101zM-967 2228c0 -16 3.16895 -31.333 9.50195 -46s14.833 -27.334 25.5 -38
c10.667 -10.667 23.334 -19.167 38.001 -25.5s30 -9.5 46 -9.5c18.667 0 35.667 3.16699 51 9.5s28.666 14.833 39.999 25.5s20.166 23.334 26.499 38c6.33301 14.667 9.5 30 9.5 46c0 37.333 -11.833 67.833 -35.5 91.5s-54.167 35.5 -91.5 35.5
c-16 0 -31.333 -3.16699 -46 -9.5s-27.334 -15.166 -38.001 -26.5c-10.667 -11.333 -19.167 -24.666 -25.5 -40c-6.33301 -15.333 -9.5 -32.333 -9.5 -51z" />
    <glyph glyph-name="nikhahitleftthai" unicode="&#xf711;" 
d="M-1106 2228c0 38 6.66699 73.167 20 105.5s31.666 60.5 54.999 84.5s50.666 42.667 81.999 56s65 20 101 20c38 0 73.167 -6.66699 105.5 -20s60.5 -32 84.5 -56s42.667 -52.167 56 -84.5s20 -67.5 20 -105.5c0 -36 -6.66699 -69.667 -20 -101s-32 -58.666 -56 -82
c-24 -23.333 -52.167 -41.666 -84.5 -54.999s-67.5 -20 -105.5 -20c-36 0 -69.667 6.66699 -101 20s-58.666 31.666 -81.999 54.999s-41.666 50.666 -54.999 82c-13.333 31.333 -20 65 -20 101zM-967 2228c0 -16 3.16895 -31.333 9.50195 -46s14.833 -27.334 25.5 -38
c10.667 -10.667 23.334 -19.167 38.001 -25.5s30 -9.5 46 -9.5c18.667 0 35.667 3.16699 51 9.5s28.666 14.833 39.999 25.5s20.166 23.334 26.499 38c6.33301 14.667 9.5 30 9.5 46c0 37.333 -11.833 67.833 -35.5 91.5s-54.167 35.5 -91.5 35.5
c-16 0 -31.333 -3.16699 -46 -9.5s-27.334 -15.166 -38.001 -26.5c-10.667 -11.333 -19.167 -24.666 -25.5 -40c-6.33301 -15.333 -9.5 -32.333 -9.5 -51z" />
    <glyph glyph-name="maitaikhuleftthai" 
d="M-1477 2294c0 -22 2.99707 -43.5 8.99707 -64.5s14.833 -39.833 26.5 -56.5s26.334 -30 44.001 -40s38.167 -15 61.5 -15c20 0 39.5 3.66699 58.5 11s36.667 18 53 32s30.666 31.167 42.999 51.5s21.166 43.5 26.499 69.5h124c9.33301 -49.333 29.333 -89 60 -119
s70 -45 118 -45c18 0 34.333 4.5 49 13.5s27.334 21.333 38.001 37s18.834 34.167 24.501 55.5s8.5 44.666 8.5 70h171c0 -45.333 -6.16699 -87.5 -18.5 -126.5s-30.666 -73 -54.999 -102s-54.666 -51.667 -90.999 -68s-78.166 -24.5 -125.499 -24.5
c-29.333 0 -55.833 3.33301 -79.5 10s-45.334 16 -65.001 28s-37.667 26.333 -54 43s-31.5 35 -45.5 55c-28 -38.667 -62.5 -71 -103.5 -97s-90.167 -39 -147.5 -39c-52.667 0 -98.667 9 -138 27s-72 42 -98 72s-45.5 64.333 -58.5 103s-19.5 78.334 -19.5 119
c0 58 10.5 107.667 31.5 149s49.167 75.166 84.5 101.5c35.333 26.333 76.333 45.666 123 58c46.667 12.333 95.667 18.5 147 18.5h757v-148l-743 1c-38 0 -70.667 -4.5 -98 -13.5s-49.833 -21.5 -67.5 -37.5s-30.5 -35 -38.5 -57s-12 -46 -12 -72z" />
    <glyph glyph-name="maitaikhuleftthai" unicode="&#xf712;" 
d="M-1477 2294c0 -22 2.99707 -43.5 8.99707 -64.5s14.833 -39.833 26.5 -56.5s26.334 -30 44.001 -40s38.167 -15 61.5 -15c20 0 39.5 3.66699 58.5 11s36.667 18 53 32s30.666 31.167 42.999 51.5s21.166 43.5 26.499 69.5h124c9.33301 -49.333 29.333 -89 60 -119
s70 -45 118 -45c18 0 34.333 4.5 49 13.5s27.334 21.333 38.001 37s18.834 34.167 24.501 55.5s8.5 44.666 8.5 70h171c0 -45.333 -6.16699 -87.5 -18.5 -126.5s-30.666 -73 -54.999 -102s-54.666 -51.667 -90.999 -68s-78.166 -24.5 -125.499 -24.5
c-29.333 0 -55.833 3.33301 -79.5 10s-45.334 16 -65.001 28s-37.667 26.333 -54 43s-31.5 35 -45.5 55c-28 -38.667 -62.5 -71 -103.5 -97s-90.167 -39 -147.5 -39c-52.667 0 -98.667 9 -138 27s-72 42 -98 72s-45.5 64.333 -58.5 103s-19.5 78.334 -19.5 119
c0 58 10.5 107.667 31.5 149s49.167 75.166 84.5 101.5c35.333 26.333 76.333 45.666 123 58c46.667 12.333 95.667 18.5 147 18.5h757v-148l-743 1c-38 0 -70.667 -4.5 -98 -13.5s-49.833 -21.5 -67.5 -37.5s-30.5 -35 -38.5 -57s-12 -46 -12 -72z" />
    <glyph glyph-name="maiekupperleftthai" 
d="M-799 3039h189v-426h-189v426z" />
    <glyph glyph-name="maiekupperleftthai" unicode="&#xf713;" 
d="M-799 3039h189v-426h-189v426z" />
    <glyph glyph-name="maithoupperleftthai" 
d="M-1200 2613l0.000976562 258h-143v135h307v-249c76.667 0 141.167 7.5 193.5 22.5s95.333 34.333 129 58s59.667 50.334 78 80c18.333 29.667 32.166 59.167 41.499 88.5h201c-3.33301 -24 -11.333 -50.333 -24 -79s-30.167 -57.5 -52.5 -86.5
s-49.833 -57.167 -82.5 -84.5s-70.834 -51.666 -114.501 -73c-43.667 -21.333 -93.167 -38.333 -148.5 -51s-116.666 -19 -183.999 -19h-201z" />
    <glyph glyph-name="maithoupperleftthai" unicode="&#xf714;" 
d="M-1200 2613l0.000976562 258h-143v135h307v-249c76.667 0 141.167 7.5 193.5 22.5s95.333 34.333 129 58s59.667 50.334 78 80c18.333 29.667 32.166 59.167 41.499 88.5h201c-3.33301 -24 -11.333 -50.333 -24 -79s-30.167 -57.5 -52.5 -86.5
s-49.833 -57.167 -82.5 -84.5s-70.834 -51.666 -114.501 -73c-43.667 -21.333 -93.167 -38.333 -148.5 -51s-116.666 -19 -183.999 -19h-201z" />
    <glyph glyph-name="maitriupperleftthai" 
d="M-705 2613c-2 22.667 -4.83203 45.167 -8.49902 67.5s-9.16699 42.5 -16.5 60.5s-17.166 32.667 -29.499 44s-28.166 17 -47.499 17c-17.333 0 -32.166 -5.5 -44.499 -16.5s-22.5 -25.333 -30.5 -43s-13.833 -37.834 -17.5 -60.5c-3.66699 -22.667 -5.5 -45.667 -5.5 -69
h-148c0 24.667 -2 48.334 -6 71c-4 22.667 -10 42.834 -18 60.5c-8 17.667 -18.167 31.667 -30.5 42s-26.833 15.5 -43.5 15.5c-18.667 0 -34.334 -5.66699 -47.001 -17s-22.834 -26 -30.501 -44s-12.834 -38.167 -15.501 -60.5s-3 -44.833 -1 -67.5h-168
c-5.33301 56.667 -1.66602 106.167 11.001 148.5s30.334 77.666 53.001 106c22.667 28.333 48.667 49.666 78 64c29.333 14.333 58.333 21.5 87 21.5c30 0 56.5 -3.83301 79.5 -11.5s43 -18.334 60 -32c17 -13.667 30.833 -29.667 41.5 -48s18.667 -38.166 24 -59.5
c4 21.333 11.833 41.166 23.5 59.5c11.667 18.333 26.167 34.333 43.5 48s36.666 24.334 57.999 32c21.333 7.66699 44 11.5 68 11.5c26.667 0 51.667 -4 75 -12s44.333 -20.333 63 -37s34.5 -38.334 47.5 -65c13 -26.667 22.167 -58.334 27.5 -95
c21.333 3.33301 43.166 11.5 65.499 24.5s42.5 30.667 60.5 53s32.333 49 43 80s15.667 65.833 15 104.5h188c0 -36.667 -5.16699 -71.834 -15.5 -105.5c-10.333 -33.667 -24.333 -65 -42 -94s-38 -55.167 -61 -78.5s-47.5 -43.5 -73.5 -60.5s-52.333 -30.167 -79 -39.5
s-52.334 -14.333 -77.001 -15h-156z" />
    <glyph glyph-name="maitriupperleftthai" unicode="&#xf715;" 
d="M-705 2613c-2 22.667 -4.83203 45.167 -8.49902 67.5s-9.16699 42.5 -16.5 60.5s-17.166 32.667 -29.499 44s-28.166 17 -47.499 17c-17.333 0 -32.166 -5.5 -44.499 -16.5s-22.5 -25.333 -30.5 -43s-13.833 -37.834 -17.5 -60.5c-3.66699 -22.667 -5.5 -45.667 -5.5 -69
h-148c0 24.667 -2 48.334 -6 71c-4 22.667 -10 42.834 -18 60.5c-8 17.667 -18.167 31.667 -30.5 42s-26.833 15.5 -43.5 15.5c-18.667 0 -34.334 -5.66699 -47.001 -17s-22.834 -26 -30.501 -44s-12.834 -38.167 -15.501 -60.5s-3 -44.833 -1 -67.5h-168
c-5.33301 56.667 -1.66602 106.167 11.001 148.5s30.334 77.666 53.001 106c22.667 28.333 48.667 49.666 78 64c29.333 14.333 58.333 21.5 87 21.5c30 0 56.5 -3.83301 79.5 -11.5s43 -18.334 60 -32c17 -13.667 30.833 -29.667 41.5 -48s18.667 -38.166 24 -59.5
c4 21.333 11.833 41.166 23.5 59.5c11.667 18.333 26.167 34.333 43.5 48s36.666 24.334 57.999 32c21.333 7.66699 44 11.5 68 11.5c26.667 0 51.667 -4 75 -12s44.333 -20.333 63 -37s34.5 -38.334 47.5 -65c13 -26.667 22.167 -58.334 27.5 -95
c21.333 3.33301 43.166 11.5 65.499 24.5s42.5 30.667 60.5 53s32.333 49 43 80s15.667 65.833 15 104.5h188c0 -36.667 -5.16699 -71.834 -15.5 -105.5c-10.333 -33.667 -24.333 -65 -42 -94s-38 -55.167 -61 -78.5s-47.5 -43.5 -73.5 -60.5s-52.333 -30.167 -79 -39.5
s-52.334 -14.333 -77.001 -15h-156z" />
    <glyph glyph-name="maichattawaupperleftthai" 
d="M-610 2834v-221h-197v221h-250v136h250v217h197v-217h258v-136h-258z" />
    <glyph glyph-name="maichattawaupperleftthai" unicode="&#xf716;" 
d="M-610 2834v-221h-197v221h-250v136h250v217h197v-217h258v-136h-258z" />
    <glyph glyph-name="thanthakhatupperleftthai" 
d="M-279 2687c-94 -6 -170.167 -31 -228.5 -75s-92.5 -105 -102.5 -183h-197c8 63.333 25.5 118.5 52.5 165.5s62.667 86.333 107 118s97.333 56.167 159 73.5s131.5 28 209.5 32v-131z" />
    <glyph glyph-name="thanthakhatupperleftthai" unicode="&#xf717;" 
d="M-279 2687c-94 -6 -170.167 -31 -228.5 -75s-92.5 -105 -102.5 -183h-197c8 63.333 25.5 118.5 52.5 165.5s62.667 86.333 107 118s97.333 56.167 159 73.5s131.5 28 209.5 32v-131z" />
    <glyph glyph-name="uni00A0" unicode="&#xa0;" horiz-adv-x="340" 
 />
    <glyph glyph-name="cent" unicode="&#xa2;" horiz-adv-x="1556" 
d="M1232 987c-12 48 -27.665 91.1719 -46.998 129.505s-43.333 71.5 -72 99.5s-62 50.167 -100 66.5s-81.667 26.5 -131 30.5v-1192c48 5.33301 92.833 19.166 134.5 41.499s78.167 51.333 109.5 87s57 77.167 77 124.5s32.333 98.666 37 153.999h193
c-10.667 -84 -31.334 -160.167 -62.001 -228.5s-69.667 -127 -117 -176s-102.5 -87.833 -165.5 -116.5s-131.833 -45.334 -206.5 -50.001v-285h-137v289c-96.667 11.333 -181.667 39.333 -255 84s-134.833 101.167 -184.5 169.5s-87.167 146.166 -112.5 233.499
s-38 179.666 -38 276.999c0 96.667 12.667 188.167 38 274.5s62.833 163 112.5 230s111.167 122.333 184.5 166s158.333 71.167 255 82.5v255h137v-252c72 -4 139 -17.333 201 -40s116.667 -54.667 164 -96s86.166 -91.833 116.499 -151.5s50.5 -128.5 60.5 -206.5h-192z
M347.002 725.005c0 -68 8 -135.167 24 -201.5s40.333 -126.666 73 -180.999s74 -100.666 124 -138.999s109 -63.833 177 -76.5v1180c-68 -12 -127 -36.333 -177 -73s-91.333 -81.334 -124 -134.001s-57 -111.334 -73 -176.001s-24 -131 -24 -199z" />
    <glyph glyph-name="sterling" unicode="&#xa3;" horiz-adv-x="1556" 
d="M119 998l168.001 0.00683594c-41.333 68 -74 136 -98 204s-36 142 -36 222c0 100 17.667 186.167 53 258.5s82.5 131.833 141.5 178.5s126.833 81 203.5 103s156.667 33 240 33c73.333 0 139.5 -8.33301 198.5 -25s111.667 -40.167 158 -70.5
s86.166 -66.5 119.499 -108.5s60.666 -88 81.999 -138s37 -103.333 47 -160s14.667 -115 14 -175h-193c0 37.333 -3 76 -9 116s-15.833 79.167 -29.5 117.5s-31.5 74.666 -53.5 108.999s-48.833 64.5 -80.5 90.5s-68.5 46.5 -110.5 61.5s-89.667 22.5 -143 22.5
c-57.333 0 -112.833 -8.66699 -166.5 -26s-101.167 -43.5 -142.5 -78.5s-74.333 -79.167 -99 -132.5s-37 -116 -37 -188c0 -45.333 4.66699 -85.833 14 -121.5s21.5 -69.334 36.5 -101.001s31.5 -62.834 49.5 -93.501s36 -63.334 54 -98.001h484v-117h-433
c19.333 -41.333 33 -83.166 41 -125.499s12 -80.5 12 -114.5c0 -96.667 -17.833 -180 -53.5 -250s-86.167 -129 -151.5 -177c9.33301 4 20.833 7.33301 34.5 10s28.334 5 44.001 7s32 3.5 49 4.5s33.5 1.16699 49.5 0.5c36.667 -1.33301 73.167 -7 109.5 -17l112.5 -32.5
c38.667 -11.667 79.167 -22.334 121.5 -32.001s87.833 -14.5 136.5 -14.5c26.667 0 55.667 1.16699 87 3.5s63.333 6.83301 96 13.5s65.334 16.167 98.001 28.5s63.667 28.166 93 47.499v-177c-25.333 -16.667 -53.333 -30.5 -84 -41.5s-62.334 -19.833 -95.001 -26.5
s-65.667 -11.334 -99 -14.001s-65.333 -4 -96 -4c-54.667 0 -102.667 4.5 -144 13.5s-81.5 19.333 -120.5 31s-79.333 23 -121 34s-90.167 18.5 -145.5 22.5c-35.333 2.66699 -71 1.16699 -107 -4.5s-71.167 -13.334 -105.5 -23.001s-67.833 -20.834 -100.5 -33.501l-92 -36
v163c35.333 23.333 70.5 51.833 105.5 85.5s66.333 71.167 94 112.5s50 86 67 134s25.5 98.667 25.5 152c0 18 -1.16699 38.333 -3.5 61s-6 45.834 -11 69.501s-11.333 46.667 -19 69s-16.5 42.5 -26.5 60.5h-233v117z" />
    <glyph glyph-name="yen" unicode="&#xa5;" horiz-adv-x="1556" 
d="M299 961l291 0.000976562l-590 994h217l557 -986l561 986h213l-594 -994h299v-136h-376c-1.33301 -1.33301 -2.33301 -2.83301 -3 -4.5s-1.66699 -3.83398 -3 -6.50098s-2.33301 -5.66699 -3 -9v-162h385v-141h-385v-502h-192v502h-377v141h377v162l-17 20h-360v136z" />
    <glyph glyph-name="copyright" unicode="&#xa9;" horiz-adv-x="2236" 
d="M1118 2048c99.333 0 194.333 -12.167 285 -36.5s174.834 -58.833 252.501 -103.5s148 -98.5 211 -161.5s116.833 -133.5 161.5 -211.5s79 -162.167 103 -252.5s36 -184.833 36 -283.5s-12 -193.167 -36 -283.5s-58.333 -174.333 -103 -252s-98.5 -148 -161.5 -211
s-133.333 -116.833 -211 -161.5s-161.834 -79.167 -252.501 -103.5s-185.667 -36.5 -285 -36.5c-98.667 0 -193.167 12.167 -283.5 36.5s-174.333 58.833 -252 103.5s-148 98.5 -211 161.5s-116.833 133.333 -161.5 211s-79.167 161.667 -103.5 252
s-36.5 184.833 -36.5 283.5s12.167 193.167 36.5 283.5s58.833 174.5 103.5 252.5s98.5 148.5 161.5 211.5s133.333 116.833 211 161.5s161.5 79.167 251.5 103.5s184.667 36.5 284 36.5zM1118 1884c-82.667 0 -161.5 -10.5 -236.5 -31.5s-144.5 -50.833 -208.5 -89.5
s-122.167 -84.834 -174.5 -138.501s-96.833 -113.334 -133.5 -179.001s-65 -136.167 -85 -211.5s-30 -153.666 -30 -234.999c0 -82 10 -160.667 30 -236s48.333 -145.833 85 -211.5s81.167 -125.334 133.5 -179.001s110.5 -99.5 174.5 -137.5s133.5 -67.5 208.5 -88.5
s153.833 -31.5 236.5 -31.5s161.667 10.5 237 31.5s145.333 50.5 210 88.5s123.167 83.833 175.5 137.5s97.166 113.334 134.499 179.001s66 136.167 86 211.5s30 154 30 236c0 81.333 -10 159.666 -30 234.999s-48.667 145.833 -86 211.5s-82.166 125.334 -134.499 179.001
s-110.833 99.834 -175.5 138.501s-134.667 68.5 -210 89.5s-154.333 31.5 -237 31.5zM1467 1186c-10 44 -23.8311 83.4961 -41.498 118.496s-39.334 64.667 -65.001 89s-55.834 43 -90.501 56s-74.334 19.5 -119.001 19.5c-66.667 0 -124.5 -13.833 -173.5 -41.5
s-89.667 -64.167 -122 -109.5s-56.333 -97.166 -72 -155.499s-23.5 -118.166 -23.5 -179.499s7.83301 -121.166 23.5 -179.499s39.667 -110.166 72 -155.499s73 -81.833 122 -109.5s106.833 -41.5 173.5 -41.5c42.667 0 82.5 8.33301 119.5 25s69.5 39.834 97.5 69.501
s51 65 69 106s29 86.167 33 135.5h179c-9.33301 -76 -27.833 -144.167 -55.5 -204.5s-63 -111.833 -106 -154.5s-92.833 -75.334 -149.5 -98.001s-119 -34 -187 -34c-93.333 0 -175.5 17 -246.5 51s-130.5 80.167 -178.5 138.5s-84.333 126.333 -109 204
s-37 160.167 -37 247.5s12.333 170 37 248s61 146.5 109 205.5s107.5 105.667 178.5 140s153.167 51.5 246.5 51.5c64.667 0 124.834 -9.16699 180.501 -27.5s104.667 -45.833 147 -82.5s77.5 -82.667 105.5 -138s47 -120 57 -194h-174z" />
    <glyph glyph-name="guillemotleft" unicode="&#xab;" horiz-adv-x="1192" 
d="M610 676v188l399 351v-217l-264 -228l264 -228v-221zM160 676v188l399 351v-217l-264 -228l264 -228v-221z" />
    <glyph glyph-name="registered" unicode="&#xae;" horiz-adv-x="2236" 
d="M1118 2048c99.333 0 194.333 -12.167 285 -36.5s174.834 -58.833 252.501 -103.5s148 -98.5 211 -161.5s116.833 -133.5 161.5 -211.5s79 -162.167 103 -252.5s36 -184.833 36 -283.5s-12 -193.167 -36 -283.5s-58.333 -174.333 -103 -252s-98.5 -148 -161.5 -211
s-133.333 -116.833 -211 -161.5s-161.834 -79.167 -252.501 -103.5s-185.667 -36.5 -285 -36.5c-98.667 0 -193.167 12.167 -283.5 36.5s-174.333 58.833 -252 103.5s-148 98.5 -211 161.5s-116.833 133.333 -161.5 211s-79.167 161.667 -103.5 252
s-36.5 184.833 -36.5 283.5s12.167 193.167 36.5 283.5s58.833 174.5 103.5 252.5s98.5 148.5 161.5 211.5s133.333 116.833 211 161.5s161.5 79.167 251.5 103.5s184.667 36.5 284 36.5zM1118 1884c-82.667 0 -161.5 -10.5 -236.5 -31.5s-144.5 -50.833 -208.5 -89.5
s-122.167 -84.834 -174.5 -138.501s-96.833 -113.334 -133.5 -179.001s-65 -136.167 -85 -211.5s-30 -153.666 -30 -234.999c0 -82 10 -160.667 30 -236s48.333 -145.833 85 -211.5s81.167 -125.334 133.5 -179.001s110.5 -99.5 174.5 -137.5s133.5 -67.5 208.5 -88.5
s153.833 -31.5 236.5 -31.5s161.667 10.5 237 31.5s145.333 50.5 210 88.5s123.167 83.833 175.5 137.5s97.166 113.334 134.499 179.001s66 136.167 86 211.5s30 154 30 236c0 81.333 -10 159.666 -30 234.999s-48.667 145.833 -86 211.5s-82.166 125.334 -134.499 179.001
s-110.833 99.834 -175.5 138.501s-134.667 68.5 -210 89.5s-154.333 31.5 -237 31.5zM897 389l-163.999 -0.000976562v1221h471c70 0 130 -9 180 -27s91.167 -42.667 123.5 -74s56.166 -67.833 71.499 -109.5s23 -86.167 23 -133.5c0 -46.667 -8.66699 -87.834 -26 -123.501
s-39.333 -66.167 -66 -91.5s-55.5 -45.5 -86.5 -60.5s-60.167 -24.833 -87.5 -29.5c23.333 -11.333 43.333 -25.5 60 -42.5s30.834 -34.667 42.501 -53s21.334 -36.5 29.001 -54.5s14.167 -34 19.5 -48l65 -192c14.667 -42.667 31 -77.834 49 -105.501
s37.333 -53.167 58 -76.5h-182c-6.66699 6.66699 -13.334 15.834 -20.001 27.501s-13 23.834 -19 36.501s-11.5 25.167 -16.5 37.5l-12.5 31.5l-79 225c-8.66699 24.667 -19.167 47.834 -31.5 69.501s-28.833 40.167 -49.5 55.5s-46.834 27.5 -78.501 36.5
s-71.5 13.5 -119.5 13.5h-154v-533zM1085 1065c44 0 87.166 2.33496 129.499 7.00195s80 14.167 113 28.5s59.667 34.666 80 60.999s30.5 61.166 30.5 104.499c0 40 -6.5 72.833 -19.5 98.5s-31.667 46 -56 61s-53.666 25.5 -87.999 31.5s-72.833 9 -115.5 9h-262v-401h188z
" />
    <glyph glyph-name="guillemotright" unicode="&#xbb;" horiz-adv-x="1192" 
d="M180 321v221l264 228l-264 228v217l399 -351v-188zM630 321v221l264 228l-264 228v217l399 -351v-188z" />
    <glyph glyph-name="onequarter" unicode="&#xbc;" horiz-adv-x="2335" 
d="M1597 1955h164l-1183 -1955h-168zM1782 243h-576v128l592 810h144v-806h188v-132h-188v-243h-160v243zM1374 375h408v575zM123 1692c48.667 3.33301 92.832 8.16699 132.499 14.5s74.334 18.5 104.001 36.5s54.5 43.833 74.5 77.5s35 79.167 45 136.5h139v-1182h-159v865
c-39.333 -31.333 -87.833 -53.333 -145.5 -66s-121.167 -20 -190.5 -22v140z" />
    <glyph glyph-name="onehalf" unicode="&#xbd;" horiz-adv-x="2335" 
d="M1602 1955h163l-1187 -1955h-168zM1366 765c-1.33301 64 5.83203 123 21.499 177s40.5 100.5 74.5 139.5s77.833 69.5 131.5 91.5s117.834 33 192.501 33c61.333 0 117.333 -7.16699 168 -21.5s94 -36 130 -65s64 -65.667 84 -110s30 -96.5 30 -156.5
c0 -49.333 -9.5 -94 -28.5 -134s-43.667 -76.333 -74 -109s-64.5 -61.667 -102.5 -87s-76 -48 -114 -68c-58.667 -30.667 -108.5 -59.834 -149.5 -87.501s-75.667 -54.5 -104 -80.5s-51.333 -51.833 -69 -77.5s-32.834 -51.5 -45.501 -77.5h689v-132h-869
c0.666992 66 12 124.833 34 176.5s50.833 98.167 86.5 139.5s76.167 78.5 121.5 111.5s92 64.167 140 93.5l106.5 59.5c38.333 21 74 44.833 107 71.5s60.5 57 82.5 91s33 73.667 33 119c0 32.667 -6.16699 62.167 -18.5 88.5s-30 48.666 -53 66.999
s-50.833 32.333 -83.5 42s-69 14.5 -109 14.5c-49.333 0 -90.666 -10.167 -123.999 -30.5s-60 -45.666 -80 -75.999s-34 -63.666 -42 -99.999s-11.667 -70.5 -11 -102.5h-155zM122.998 1692c48.667 3.33301 92.832 8.16699 132.499 14.5s74.334 18.5 104.001 36.5
s54.5 43.833 74.5 77.5s35 79.167 45 136.5h139v-1182h-159v865c-39.333 -31.333 -87.833 -53.333 -145.5 -66s-121.167 -20 -190.5 -22v140z" />
    <glyph glyph-name="threequarters" unicode="&#xbe;" horiz-adv-x="2335" 
d="M535 1442l64.0049 -0.000976562c27.333 0 54.166 3.66699 80.499 11s49.666 18.833 69.999 34.5s36.833 35.834 49.5 60.501s19 54.334 19 89.001c0 32 -6.5 60.167 -19.5 84.5s-30.833 44.5 -53.5 60.5s-48.834 28.167 -78.501 36.5s-60.834 12.5 -93.501 12.5
c-42 0 -78.667 -7.33301 -110 -22s-57.5 -34.167 -78.5 -58.5s-36.833 -52.333 -47.5 -84s-16 -64.834 -16 -99.501h-151c0.666992 54.667 9.83398 105.5 27.501 152.5s43.334 88 77.001 123s75.5 62.5 125.5 82.5s107.667 30 173 30c53.333 0 104 -5.83301 152 -17.5
s90.167 -30 126.5 -55s65.166 -57 86.499 -96s32 -86.167 32 -141.5c0 -27.333 -3.66699 -54.166 -11 -80.499s-18 -51.333 -32 -75s-31.5 -44.834 -52.5 -63.501s-45.5 -33.334 -73.5 -44.001c30 -8 57.333 -20.333 82 -37s46 -36.5 64 -59.5s32 -49.167 42 -78.5
s15 -61 15 -95c0 -54.667 -11 -103.667 -33 -147s-52.167 -80.166 -90.5 -110.499s-83.833 -53.5 -136.5 -69.5s-109.667 -24 -171 -24c-69.333 0 -130.5 9.66699 -183.5 29s-97.5 46.833 -133.5 82.5s-63.333 79 -82 130s-28.334 108.167 -29.001 171.5h152
c0 -42 6 -80.5 18 -115.5s29.667 -65 53 -90s52 -44.5 86 -58.5s73.667 -21 119 -21c36.667 0 72 5 106 15s63.667 24.5 89 43.5s45.666 42.5 60.999 70.5s23 60 23 96c0 30.667 -6.5 58.334 -19.5 83.001s-30.667 45.667 -53 63s-48.333 30.666 -78 39.999
s-61.5 14 -95.5 14h-71v128zM1810 1955h164l-1188 -1955h-168zM1897 242.999h-576v128l592 810h144v-806h188v-132h-188v-243h-160v243zM1489 374.999h408v575z" />
    <glyph glyph-name="multiply" unicode="&#xd7;" horiz-adv-x="1389" 
d="M692 590l-536 -570l-115 111l541 574l-541 573l115 115l536 -574l541 574l115 -115l-545 -573l545 -574l-115 -111z" />
    <glyph glyph-name="divide" unicode="&#xf7;" horiz-adv-x="1679" 
d="M672 1257c0 24.667 4.16895 47.3291 12.502 67.9961s19.666 38.334 33.999 53.001s31.5 26.167 51.5 34.5s42 12.5 66 12.5c22.667 0 43.834 -4.33301 63.501 -13s37 -20.5 52 -35.5s26.833 -32.667 35.5 -53s13 -42.5 13 -66.5c0 -21.333 -4.33301 -41.833 -13 -61.5
s-20.334 -37 -35.001 -52s-31.667 -27 -51 -36s-39.666 -13.5 -60.999 -13.5c-24.667 0 -47.334 4.33301 -68.001 13s-38.334 20.334 -53.001 35.001s-26.167 31.834 -34.5 51.501s-12.5 40.834 -12.5 63.501zM672.002 146.995c0 24 4.16895 45.9971 12.502 65.9971
s19.666 37.167 33.999 51.5s31.5 25.666 51.5 33.999s42 12.5 66 12.5c22.667 0 43.834 -4.16699 63.501 -12.5s37 -19.666 52 -33.999s26.833 -31.5 35.5 -51.5s13 -42 13 -66c0 -21.333 -4.33301 -41.833 -13 -61.5s-20.334 -37 -35.001 -52s-31.667 -27 -51 -36
s-39.666 -13.5 -60.999 -13.5c-24.667 0 -47.334 4.33301 -68.001 13s-38.334 20.334 -53.001 35.001s-26.167 31.834 -34.5 51.501s-12.5 40.834 -12.5 63.501zM127.004 624.992v168h1415v-168h-1415z" />
    <glyph glyph-name="kokaithai" unicode="&#xe01;" horiz-adv-x="1724" 
d="M815 1552c-60 0.666992 -114.334 -4.50098 -163.001 -15.501s-92 -25.833 -130 -44.5s-71.167 -40.167 -99.5 -64.5s-52.333 -49.5 -72 -75.5s-35.334 -51.833 -47.001 -77.5s-19.834 -49.167 -24.501 -70.5c45.333 -26.667 78.5 -66.667 99.5 -120s31.5 -117 31.5 -191
v-893h-205v897c0 30 -1.33301 59.667 -4 89s-8.5 57.333 -17.5 84s-22.5 51.167 -40.5 73.5s-42.333 41.166 -73 56.499c16 64.667 42.167 127.834 78.5 189.501s84.5 116.667 144.5 165s133 87.333 219 117s187 44.5 303 44.5c96 0 180.667 -9 254 -27
s136.833 -43 190.5 -75s98.5 -69.833 134.5 -113.5s64.833 -91.667 86.5 -144s37 -107.666 46 -165.999s13.5 -117.833 13.5 -178.5v-1012h-205v1049c0 40 -3 80.167 -9 120.5s-16.667 79 -32 116s-35.666 71.667 -60.999 104s-57.166 60.333 -95.499 84
s-84.166 42.5 -137.499 56.5s-115 21.333 -185 22z" />
    <glyph glyph-name="khokhaithai" unicode="&#xe02;" horiz-adv-x="1405" 
d="M586 0l-340 1540h-217v139h397l315 -1523h4l316 1523h221l-385 -1679h-311z" />
    <glyph glyph-name="khokhuatthai" unicode="&#xe03;" horiz-adv-x="1540" 
d="M655 1483c-6 -13.333 -14.8311 -27.4961 -26.498 -42.4961s-27.5 -28.667 -47.5 -41s-45 -22.666 -75 -30.999s-66.333 -12.5 -109 -12.5c-29.333 0 -62 4.66699 -98 14s-70.5 26.166 -103.5 50.499s-61.833 57.333 -86.5 99s-40.667 94.834 -48 159.501h181
c4 -24.667 11.333 -48 22 -70s24.5 -41.5 41.5 -58.5s36.833 -30.5 59.5 -40.5s48.334 -15 77.001 -15c58 0 105.333 16.833 142 50.5s59 78.167 67 133.5h189v-307c0 -27.333 -5.33301 -53.833 -16 -79.5s-26 -51.834 -46 -78.501s-43.833 -54.167 -71.5 -82.5l-92.5 -91.5
c-32 -32.667 -59.333 -63.167 -82 -91.5s-41.334 -56.833 -56.001 -85.5s-25.834 -58.667 -33.501 -90s-11.834 -66.333 -12.501 -105v-99c0 -69.333 9.16699 -131 27.5 -185s44 -99.5 77 -136.5s72 -65 117 -84s94.167 -28.5 147.5 -28.5c52 0 99.667 6.5 143 19.5
s80.5 35.333 111.5 67s55 73.667 72 126s25.5 118.166 25.5 197.499v1134h205v-1167c0 -94 -14 -175.833 -42 -245.5s-66.833 -127.167 -116.5 -172.5s-108.5 -79.166 -176.5 -101.499s-142 -33.5 -222 -33.5c-79.333 0 -154 12.5 -224 37.5s-131.167 61.167 -183.5 108.5
s-93.833 105.166 -124.5 173.499s-46 146.166 -46 233.499v70c0 45.333 1.33301 85.5 4 120.5s7 66.167 13 93.5s14 52.166 24 74.499s22.667 43.666 38 63.999s33.333 40.5 54 60.5s44.667 42 72 66l83 73.5c27.333 24.333 51.833 50 73.5 77s39.167 55.667 52.5 86
s20 63.5 20 99.5v86z" />
    <glyph glyph-name="khokhwaithai" unicode="&#xe04;" horiz-adv-x="1765" 
d="M389 0l-205 -0.000976562v999c0 60 4.16699 119.5 12.5 178.5s22.833 115 43.5 168s48.167 102.167 82.5 147.5s77.5 84.5 129.5 117.5s113.667 58.833 185 77.5s154 28 248 28c92.667 0 174.334 -9.33301 245.001 -28s131.667 -44.5 183 -77.5
s94.166 -72.167 128.499 -117.5s61.833 -94.5 82.5 -147.5s35.334 -109 44.001 -168s13 -118.5 13 -178.5v-999h-205v1040c0 39.333 -3.33301 79.5 -10 120.5s-17.5 80.333 -32.5 118s-35 73.167 -60 106.5s-55.667 62.333 -92 87s-79 44.167 -128 58.5
s-105.167 21.5 -168.5 21.5c-64 0 -120.833 -7.16699 -170.5 -21.5s-92.834 -33.833 -129.501 -58.5s-67.5 -53.667 -92.5 -87s-45.167 -68.833 -60.5 -106.5s-26.333 -77 -33 -118s-10 -81.167 -10 -120.5v-401v-4c32 68.667 69.5 124.5 112.5 167.5s89.5 76.667 139.5 101
s102.667 41 158 50s111.333 13.5 168 13.5v-164c-99.333 0 -185.333 -15.833 -258 -47.5s-132.667 -76.5 -180 -134.5s-82.5 -128.167 -105.5 -210.5s-34.5 -174.166 -34.5 -275.499v-135z" />
    <glyph glyph-name="khokhonthai" unicode="&#xe05;" horiz-adv-x="1786" 
d="M606 1520c-49.333 -21.333 -88.3311 -49.834 -116.998 -85.501s-50.334 -74.334 -65.001 -116.001s-24.167 -84.667 -28.5 -129s-6.5 -85.833 -6.5 -124.5v-426v-4c36 60.667 73.333 112 112 154s81.167 76.167 127.5 102.5s97.166 45.5 152.499 57.5s117.333 18 186 18
v-164c-93.333 0 -175.833 -15.833 -247.5 -47.5s-132 -76.5 -181 -134.5s-86.167 -128.167 -111.5 -210.5s-38 -174.166 -38 -275.499v-135h-205v1065c0 76.667 6.66699 150.167 20 220.5s37.333 134 72 191s82.334 105.333 143.001 145s138 67.167 232 82.5l242 -238
l225 238c95.333 -14 174.166 -40.833 236.499 -80.5s111.833 -88 148.5 -145s62.334 -121 77.001 -192s22 -144.833 22 -221.5v-1065h-205v1065c0 38.667 -2.16699 79.834 -6.5 123.501s-14.333 86 -30 127s-38.834 79.333 -69.501 115s-72 65.5 -124 89.5l-274 -267
c-4 -4 -8 -4 -12 0z" />
    <glyph glyph-name="khorakhangthai" unicode="&#xe06;" horiz-adv-x="1712" 
d="M618 1462c-8 -14 -19.833 -27.4971 -35.5 -40.4971s-33.834 -24.333 -54.501 -34s-43.334 -17.334 -68.001 -23.001s-49.667 -8.5 -75 -8.5c-30.667 0 -64.667 4.66699 -102 14s-73 26.166 -107 50.499s-63.833 57.333 -89.5 99s-42.167 94.834 -49.5 159.501h180
c4 -24.667 11.333 -48 22 -70s24.5 -41.5 41.5 -58.5s37 -30.5 60 -40.5s48.833 -15 77.5 -15c57.333 0 104.333 16.833 141 50.5s59.334 78.167 68.001 133.5h188v-307c-2 -38 -8.33301 -72.333 -19 -103s-25.167 -60 -43.5 -88s-40.5 -55.833 -66.5 -83.5l-88 -89.5
l-60 -56.5c-18 -16.333 -34 -32.333 -48 -48s-26.333 -31.5 -37 -47.5s-19.5 -34 -26.5 -54s-12.167 -42.833 -15.5 -68.5s-5 -55.834 -5 -90.501c0 -65.333 12.167 -128.833 36.5 -190.5s59.333 -116.334 105 -164.001s101.334 -85.834 167.001 -114.501
s140.167 -43 223.5 -43c65.333 0 122.166 9.5 170.499 28.5s88.333 46 120 81s55.334 77.5 71.001 127.5s23.5 106.333 23.5 169v1142h205v-1110c0 -89.333 -9.66699 -171.5 -29 -246.5s-50.666 -139.667 -93.999 -194s-99.833 -96.833 -169.5 -127.5
s-155.167 -46 -256.5 -46c-58.667 0 -116.5 5.83301 -173.5 17.5s-111.167 29.834 -162.5 54.501s-98.333 56.5 -141 95.5s-79 85.5 -109 139.5v4c0 -45.333 -1.33301 -89.666 -4 -132.999s-4 -87.666 -4 -132.999h-188v582c0 42 0.333008 79 1 111s2.66699 60.333 6 85
s8.83301 47.167 16.5 67.5s18.5 40 32.5 59s31.667 38.667 53 59s47.666 43.166 78.999 68.499l106.5 92c30.333 27.333 55.333 55.166 75 83.499s33.667 59 42 92s11.5 72.167 9.5 117.5v45z" />
    <glyph glyph-name="ngonguthai" unicode="&#xe07;" horiz-adv-x="1237" 
d="M512 246c14.667 -41.333 37.501 -72.832 68.501 -94.499s64.167 -32.5 99.5 -32.5c28 0 52.667 4.83301 74 14.5s39.166 22.5 53.499 38.5s25.333 34.667 33 56s11.5 43.666 11.5 66.999v1241h-250v143h451v-1327c0 -71.333 -9.33301 -132 -28 -182
s-44.667 -90.667 -78 -122s-73 -54 -119 -68s-96.667 -21 -152 -21c-54 0 -101.333 7 -142 21s-76 33.833 -106 59.5s-55.667 57 -77 94s-40 78.5 -56 124.5l-242 705h213z" />
    <glyph glyph-name="chochanthai" unicode="&#xe08;" horiz-adv-x="1483" 
d="M397 815l-216.999 0.00195312v143h373l274 -802l72.5 172.5l70.5 177.5c22.667 59.333 43.834 118 63.501 176s37.167 114 52.5 168s27.666 105 36.999 153s14.666 92 15.999 132c2 57.333 -3.66699 111 -17 161s-36 93.667 -68 131s-74.333 66.833 -127 88.5
s-117.334 32.5 -194.001 32.5c-129.333 0 -229.333 -26.333 -300 -79s-111.334 -127.334 -122.001 -224.001h-225c8 70 27.667 133.667 59 191s74.5 106.5 129.5 147.5s122.333 72.667 202 95s172.167 33.5 277.5 33.5c112.667 0 207.334 -15.5 284.001 -46.5
s138.334 -72.833 185.001 -125.5s79.667 -113.834 99 -183.501s28 -143.5 26 -221.5c-1.33301 -43.333 -7.66602 -92.166 -18.999 -146.499s-26.333 -112.5 -45 -174.5s-40.334 -126.833 -65.001 -194.5s-51.167 -136.334 -79.5 -206.001l-89 -209.5l-92.5 -204h-270z" />
    <glyph glyph-name="chochingthai" unicode="&#xe09;" horiz-adv-x="1749" 
d="M152 1249c10 61.333 30.6699 119.832 62.0029 175.499s75.166 104.5 131.499 146.5s126.166 75.333 209.499 100s182.333 37 297 37c96 0 180.5 -9 253.5 -27s135.833 -43 188.5 -75s96.5 -69.833 131.5 -113.5s62.833 -91.667 83.5 -144s35.167 -107.666 43.5 -165.999
s12.5 -117.833 12.5 -178.5v-1004h-189l-8 266c-32.667 -56 -71.834 -103.833 -117.501 -143.5s-95.334 -71.834 -149.001 -96.501s-110.334 -42.667 -170.001 -54s-120.167 -17 -181.5 -17c-110.667 0 -202.5 15.167 -275.5 45.5s-131 72.5 -174 126.5
s-73.167 118.667 -90.5 194s-26 158 -26 248v324h205v-356c0 -61.333 9.16699 -117 27.5 -167s44.833 -92.667 79.5 -128s76.834 -62.666 126.501 -81.999s105.834 -29 168.501 -29c97.333 0 181.666 14.167 252.999 42.5s130.5 68.5 177.5 120.5
s81.833 114.167 104.5 186.5s34 152.5 34 240.5v319c0 60.667 -7.66699 121 -23 181s-42.166 114 -80.499 162s-90.333 86.833 -156 116.5s-148.5 44.5 -248.5 44.5c-85.333 0 -156.833 -9.33301 -214.5 -28s-105 -42.5 -142 -71.5s-65 -60.833 -84 -95.5
s-31.833 -68 -38.5 -100h-221z" />
    <glyph glyph-name="chochangthai" unicode="&#xe0a;" horiz-adv-x="1483" 
d="M1122 688c0 59.333 -3.66113 109.5 -10.9941 150.5s-17.833 75.167 -31.5 102.5s-30.834 48.5 -51.501 63.5s-44.334 26.333 -71.001 34s-56.334 12.5 -89.001 14.5s-68 3.33301 -106 4h-53v155h53c72.667 2 134.5 14.667 185.5 38s92.5 55.333 124.5 96
s55.167 89.167 69.5 145.5s21.5 118.833 21.5 187.5h205c-2 -36 -5.33301 -72.833 -10 -110.5s-12 -74.5 -22 -110.5s-23.667 -70.5 -41 -103.5s-39.666 -63.167 -66.999 -90.5s-60.333 -51.166 -99 -71.499s-84.667 -35.5 -138 -45.5
c53.333 -6.66699 98.666 -19.334 135.999 -38.001s68.5 -41.167 93.5 -67.5s44.5 -55 58.5 -86s24.667 -62.333 32 -94s11.833 -62.5 13.5 -92.5s2.5 -57 2.5 -81v-168c0 -94 -15.833 -175.833 -47.5 -245.5s-74.167 -127.167 -127.5 -172.5
s-114.666 -79.166 -183.999 -101.499s-142 -33.5 -218 -33.5c-77.333 0 -151.666 12 -222.999 36s-134.5 59.167 -189.5 105.5s-99 104 -132 173s-49.5 148.5 -49.5 238.5v189c0 43.333 1 80.833 3 112.5s5.33301 59.5 10 83.5s11 45.5 19 64.5s18.167 37.667 30.5 56
s26.666 37.333 42.999 57l57.5 68.5c20.667 24.667 39.167 45.834 55.5 63.501s30.666 34.167 42.999 49.5s22.666 31.166 30.999 47.499s14.5 35.166 18.5 56.499c10 68 1 117.167 -27 147.5s-75 45.5 -141 45.5c-43.333 0 -82 -5.16699 -116 -15.5
s-66.333 -21.833 -97 -34.5v131c19.333 8 41.5 15.833 66.5 23.5s49.667 14.334 74 20.001s47.333 10.167 69 13.5s39.167 5 52.5 5c107.333 0 187.833 -26.667 241.5 -80s78.5 -130.333 74.5 -231c-2 -19.333 -5.16699 -36.5 -9.5 -51.5s-10.166 -29.667 -17.499 -44
s-16.333 -29.166 -27 -44.499s-23.667 -32.833 -39 -52.5l-54 -68.5l-71 -92c-21.333 -30.667 -37.5 -57.667 -48.5 -81s-18.667 -46 -23 -68s-6.83301 -44.833 -7.5 -68.5s-1.33398 -50.834 -2.00098 -81.501v-163c0 -70 9.83301 -132 29.5 -186s46.667 -99.5 81 -136.5
s75 -65 122 -84s97.833 -28.5 152.5 -28.5c53.333 0 102.666 7.16699 147.999 21.5s84.666 37.666 117.999 69.999s59.333 74.5 78 126.5s28 116 28 192v135z" />
    <glyph glyph-name="sosothai" unicode="&#xe0b;" horiz-adv-x="1495" 
d="M377 578c0 -70 9.83594 -131.997 29.5029 -185.997s46.834 -99.5 81.501 -136.5s75.5 -65 122.5 -84s97.5 -28.5 151.5 -28.5c53.333 0 102.666 7.16699 147.999 21.5s84.666 37.666 117.999 69.999s59.5 74.5 78.5 126.5s28.5 116 28.5 192v135
c0 59.333 -3.66699 109.5 -11 150.5s-17.833 75.167 -31.5 102.5s-30.834 48.5 -51.501 63.5s-44.334 26.333 -71.001 34s-56.5 12.5 -89.5 14.5s-68.5 3.33301 -106.5 4v155c72.667 2 134.5 14.667 185.5 38s92.5 55.333 124.5 96s55.333 89.167 70 145.5
s22 118.833 22 187.5h204c-2 -36 -5.33301 -72.833 -10 -110.5s-12 -74.5 -22 -110.5s-23.667 -70.5 -41 -103.5s-39.5 -63.167 -66.5 -90.5s-59.833 -51.166 -98.5 -71.499s-84.667 -35.5 -138 -45.5c53.333 -6.66699 98.5 -19.334 135.5 -38.001s68 -41.167 93 -67.5
s44.5 -55 58.5 -86s24.667 -62.333 32 -94s11.833 -62.5 13.5 -92.5s2.5 -57 2.5 -81v-168c0 -94 -15.833 -175.833 -47.5 -245.5s-74.167 -127.167 -127.5 -172.5s-114.666 -79.166 -183.999 -101.499s-142 -33.5 -218 -33.5c-51.333 0 -101.5 5.33301 -150.5 16
s-95.5 26.5 -139.5 47.5s-84.667 47 -122 78s-69.5 67 -96.5 108s-48 86.833 -63 137.5s-22.5 106 -22.5 166v62c0 45.333 1.5 85.166 4.5 119.499s7.66699 65 14 92s14.833 51.167 25.5 72.5s23.5 42.166 38.5 62.499s32.667 41 53 62l69.5 70.5l75.5 77
c23.667 24.667 44.5 50.167 62.5 76.5s32.167 54.333 42.5 84s15.5 62.5 15.5 98.5v86c-3.33301 -7.33301 -10.333 -18 -21 -32s-25.667 -28 -45 -42s-42.833 -26.333 -70.5 -37s-59.834 -16 -96.501 -16c-30 0 -61.667 4.66699 -95 14s-64.833 26.166 -94.5 50.499
s-55.667 57.333 -78 99s-36.833 94.834 -43.5 159.501h180c4 -24.667 10 -48 18 -70s19 -41.5 33 -58.5s31.167 -30.5 51.5 -40.5s44.833 -15 73.5 -15s53.667 4.5 75 13.5s39.333 21.5 54 37.5s26.5 35.333 35.5 58s15.5 47.667 19.5 75h189v-307
c0 -27.333 -3.83301 -53.5 -11.5 -78.5s-19.5 -50.5 -35.5 -76.5s-36.167 -53.333 -60.5 -82s-52.833 -60.334 -85.5 -95.001c-32 -32.667 -59.5 -63.167 -82.5 -91.5s-42 -56.833 -57 -85.5s-26.167 -58.667 -33.5 -90s-11 -66.333 -11 -105v-90z" />
    <glyph glyph-name="chochoethai" unicode="&#xe0c;" horiz-adv-x="2658" 
d="M1487 688c0 -76.667 9.83398 -148.324 29.501 -214.991s49 -124.834 88 -174.501s87.333 -88.667 145 -117s124.5 -42.5 200.5 -42.5c56 0 104.167 10.167 144.5 30.5s73.5 48.5 99.5 84.5s45 78.833 57 128.5s18 103.834 18 162.501v1134h205v-1101
c0 -84 -7.5 -163.333 -22.5 -238s-41 -139.834 -78 -195.501s-86.5 -99.834 -148.5 -132.501s-140 -49 -234 -49c-52 0 -102 5 -150 15s-93.5 26.667 -136.5 50s-83.333 54.166 -121 92.499s-72.5 85.5 -104.5 141.5l-9 -262h-188v1053c0 40 -3.16699 80.167 -9.5 120.5
s-16.833 79 -31.5 116s-34.167 71.667 -58.5 104s-54.5 60.333 -90.5 84s-78.5 42.5 -127.5 56.5s-105.5 21.333 -169.5 22c-83.333 1.33301 -155.5 -9.16699 -216.5 -31.5s-112.333 -51 -154 -86s-74.334 -73.833 -98.001 -116.5s-39.5 -83.334 -47.5 -122.001
c26.667 -14 48.5 -31.667 65.5 -53s30.333 -45.5 40 -72.5s16.334 -56.333 20.001 -88s5.5 -65.5 5.5 -101.5v-733h188v-152h-393v889c0 30 -0.833008 58.667 -2.5 86s-6.83398 53.666 -15.501 78.999s-22.167 50.166 -40.5 74.499s-43.833 48.166 -76.5 71.499
c11.333 42 26.833 84.167 46.5 126.5s44 82.666 73 120.999s62.833 74.166 101.5 107.499s83 62.166 133 86.499s105.667 43.5 167 57.5s129.333 21 204 21c90 0 169.667 -9 239 -27s129.5 -43 180.5 -75s94 -69.833 129 -113.5s63 -91.667 84 -144
s36.167 -107.666 45.5 -165.999s14 -117.833 14 -178.5v-328z" />
    <glyph glyph-name="yoyingthai" unicode="&#xe0d;" horiz-adv-x="2658" 
d="M2474 1679v-1261c0 -80 -3.5 -150.667 -10.5 -212s-16.5 -115.333 -28.5 -162s-26 -86.834 -42 -120.501s-32.667 -62.834 -50 -87.501c-32 -47.333 -67.667 -86.666 -107 -117.999s-81.833 -56.5 -127.5 -75.5s-94 -32.5 -145 -40.5s-103.5 -12 -157.5 -12
c-69.333 0 -136 8.5 -200 25.5s-121.833 42.5 -173.5 76.5s-95.667 76.667 -132 128s-61.5 111.333 -75.5 180h217c24.667 -90 67.834 -156.167 129.501 -198.5s138.5 -63.5 230.5 -63.5c59.333 0 112.333 7 159 21s87.667 33 123.001 57c35.333 24 65.166 52.5 89.5 85.5
c24.333 33 44.166 68.5 59.499 106.5s26.5 77.5 33.5 118.5s10.5 82.167 10.5 123.5v156c-32 -56.667 -66.833 -104.167 -104.5 -142.5s-78 -69.166 -121 -92.499s-88.5 -40 -136.5 -50s-98 -15 -150 -15c-94 0 -172 16.333 -234 49s-111.5 76.834 -148.5 132.501
s-63 120.834 -78 195.501s-22.5 154 -22.5 238v332c0 40 -3.16699 80.167 -9.5 120.5s-16.833 79 -31.5 116s-34.167 71.667 -58.5 104s-54.5 60.333 -90.5 84s-78.5 42.5 -127.5 56.5s-105.5 21.333 -169.5 22c-83.333 1.33301 -155.5 -9.16699 -216.5 -31.5
s-112.333 -51 -154 -86s-74.334 -73.833 -98.001 -116.5s-39.5 -83.334 -47.5 -122.001c26.667 -14 48.5 -31.667 65.5 -53s30.333 -45.5 40 -72.5s16.334 -56.333 20.001 -88s5.5 -65.5 5.5 -101.5v-733h188v-152h-393v889c0 30 -0.833008 58.667 -2.5 86
s-6.83398 53.666 -15.501 78.999s-22.167 50.166 -40.5 74.499s-43.833 48.166 -76.5 71.499c11.333 42 26.833 84.167 46.5 126.5s44 82.666 73 120.999s62.833 74.166 101.5 107.499s83 62.166 133 86.499s105.667 43.5 167 57.5s129.333 21 204 21
c90 0 169.667 -9 239 -27s129.5 -43 180.5 -75s94 -69.833 129 -113.5s63 -91.667 84 -144s36.167 -107.666 45.5 -165.999s14 -117.833 14 -178.5v-328c0 -58 6 -111.833 18 -161.5s31 -92.5 57 -128.5s59.167 -64.167 99.5 -84.5s88.5 -30.5 144.5 -30.5
c76 0 142.833 14.167 200.5 42.5s106 67.166 145 116.499s68.333 107.333 88 174s29.5 138.334 29.5 215.001v848h205z" />
    <glyph glyph-name="dochadathai" unicode="&#xe0e;" horiz-adv-x="1757" 
d="M1368 1049c0 40 -3.00195 80.167 -9.00195 120.5s-16.667 79 -32 116s-35.666 71.667 -60.999 104s-57.166 60.333 -95.499 84s-84.166 42.5 -137.499 56.5s-115 21.333 -185 22c-90 0.666992 -167.333 -11 -232 -35s-118.334 -54 -161.001 -90
s-75.5 -74.167 -98.5 -114.5s-38.167 -76.5 -45.5 -108.5c45.333 -26.667 78.5 -66.667 99.5 -120s31.5 -117 31.5 -191v-893h-381v152h177v745c0 30 -1.33301 59.667 -4 89s-8.66699 57.333 -18 84s-23 51.167 -41 73.5s-42.333 41.166 -73 56.499
c16.667 64.667 43.167 127.834 79.5 189.501s84.5 116.667 144.5 165s133 87.333 219 117s187 44.5 303 44.5c96 0 180.667 -9 254 -27s136.833 -43 190.5 -75s98.5 -69.833 134.5 -113.5s64.833 -91.667 86.5 -144s37 -107.666 46 -165.999s13.5 -117.833 13.5 -178.5
v-1557h-225c-17.333 26.667 -40.5 51 -69.5 73s-62.333 41 -100 57s-79 28.333 -124 37s-92.167 13 -141.5 13c-51.333 0 -101.5 -6.66699 -150.5 -20s-94.333 -30 -136 -50s-78.334 -42 -110.001 -66s-55.167 -46.667 -70.5 -68v200c12.667 11.333 33.834 26 63.501 44
s65.334 35.667 107.001 53s88 32.166 139 44.499s103.5 18.5 157.5 18.5c55.333 0 106 -4.16699 152 -12.5s87.667 -19.5 125 -33.5s70.666 -29.833 99.999 -47.5s55.333 -35.5 78 -53.5v1405z" />
    <glyph glyph-name="topatakthai" unicode="&#xe0f;" horiz-adv-x="1757" 
d="M1368 1049c0 40 -3 80.168 -9 120.501s-16.667 79 -32 116s-35.666 71.667 -60.999 104s-57.166 60.333 -95.499 84s-84.166 42.5 -137.499 56.5s-115 21.333 -185 22c-90 0.666992 -167.333 -11 -232 -35s-118.334 -54 -161.001 -90s-75.5 -74.167 -98.5 -114.5
s-38.167 -76.5 -45.5 -108.5c45.333 -26.667 78.5 -66.667 99.5 -120s31.5 -117 31.5 -191v-893h-381v152h177v745c0 30 -1.33301 59.667 -4 89s-8.66699 57.333 -18 84s-23 51.167 -41 73.5s-42.333 41.166 -73 56.499c16.667 64.667 43.167 127.834 79.5 189.501
s84.5 116.667 144.5 165s133 87.333 219 117s187 44.5 303 44.5c96 0 180.667 -9 254 -27s136.833 -43 190.5 -75s98.5 -69.833 134.5 -113.5s64.833 -91.667 86.5 -144s37 -107.666 46 -165.999s13.5 -117.833 13.5 -178.5v-1557h-213c-12 28 -25.333 54 -40 78
s-31.834 44.833 -51.501 62.5s-42.667 31.5 -69 41.5s-57.5 15 -93.5 15c-34 0 -63.333 -5.83301 -88 -17.5s-45.667 -26.834 -63 -45.501s-31 -39.834 -41 -63.501s-17 -47.167 -21 -70.5h-188c-7.33301 23.333 -16.333 47 -27 71s-24.334 45.667 -41.001 65
s-36.834 35 -60.501 47s-51.834 18 -84.501 18c-26 0 -49.167 -5.66699 -69.5 -17s-38 -26.333 -53 -45s-27 -40 -36 -64s-15.167 -49 -18.5 -75h-180c5.33301 55.333 17.833 104.5 37.5 147.5s44.834 79.333 75.501 109s66 52.334 106 68.001s83 23.5 129 23.5
c30.667 0 61.167 -3.33301 91.5 -10s59.166 -18 86.499 -34s52.833 -37 76.5 -63s44.167 -58.333 61.5 -97c17.333 40.667 38.333 74.167 63 100.5s50.834 47.166 78.501 62.499s55.834 26 84.501 32s55.667 9 81 9c56 0 104.833 -11.333 146.5 -34
s80.167 -57.667 115.5 -105v1385z" />
    <glyph glyph-name="thothanthai" unicode="&#xe10;" horiz-adv-x="1503" 
d="M1073 -143h192.999v-385h-201c-10 25.333 -20.833 49.166 -32.5 71.499s-25.5 41.833 -41.5 58.5s-34.833 29.834 -56.5 39.501s-47.834 14.5 -78.501 14.5c-23.333 0 -44.666 -4.83301 -63.999 -14.5s-35.833 -22.834 -49.5 -39.501s-24.167 -36.167 -31.5 -58.5
s-11 -46.166 -11 -71.499h-192c0 23.333 -2.83301 46.333 -8.5 69s-14.5 42.834 -26.5 60.501s-27.333 31.834 -46 42.501s-41 16 -67 16c-24.667 0 -45.667 -6 -63 -18s-31.666 -27.167 -42.999 -45.5s-19.666 -38.5 -24.999 -60.5s-8 -43.333 -8 -64h-172
c0 52 8.16699 98.5 24.5 139.5s38.333 75.667 66 104s60.167 50 97.5 65s77 22.5 119 22.5c21.333 0 44.166 -2.16699 68.499 -6.5s47.833 -12.5 70.5 -24.5s43.834 -28.5 63.501 -49.5s35.5 -48.5 47.5 -82.5c12 34 28.833 61.667 50.5 83s44.5 38.166 68.5 50.499
s47.833 20.5 71.5 24.5s43.5 5.66699 59.5 5c20.667 -1.33301 41.5 -4.83301 62.5 -10.5s41 -13.834 60 -24.501s36.667 -24 53 -40s30.166 -34.667 41.499 -56v185zM396.999 815l-216.996 0.00488281v143h373l274 -802l72.5 172.5l70.5 177.5
c22.667 59.333 43.834 118 63.501 176s37.167 114 52.5 168s27.666 105 36.999 153s14.666 92 15.999 132c2 57.333 -3.66699 111 -17 161s-36 93.667 -68 131s-74.333 66.833 -127 88.5s-117.334 32.5 -194.001 32.5c-129.333 0 -229.333 -26.333 -300 -79
s-111.334 -127.334 -122.001 -224.001h-225c8 70 27.667 133.667 59 191s74.5 106.5 129.5 147.5s122.333 72.667 202 95s172.167 33.5 277.5 33.5c45.333 0 88.166 -2.83301 128.499 -8.5s77.833 -13.834 112.5 -24.501c36.667 3.33301 69.667 10.666 99 21.999
s54.5 25.5 75.5 42.5s37.833 36.167 50.5 57.5s21 43.666 25 66.999h225c-4 -23.333 -12.667 -47.833 -26 -73.5s-32.5 -50.5 -57.5 -74.5s-56.5 -46.333 -94.5 -67s-83.667 -37.667 -137 -51c36 -26.667 66.333 -57.167 91 -91.5s44.834 -71.5 60.501 -111.5
s26.667 -82.333 33 -127s9.16602 -90.334 8.49902 -137.001c-1.33301 -43.333 -7.66602 -92.166 -18.999 -146.499s-26.333 -112.5 -45 -174.5s-40.334 -126.833 -65.001 -194.5s-51.167 -136.334 -79.5 -206.001l-89 -209.5l-92.5 -204h-270z" />
    <glyph glyph-name="thonangmonthothai" unicode="&#xe11;" horiz-adv-x="1724" 
d="M831 1438c61.333 53.333 116.167 97.167 164.5 131.5s91.666 61.5 129.999 81.5s72.166 33.833 101.499 41.5s56 11.5 80 11.5c42.667 0 78.834 -6.5 108.501 -19.5s53.834 -33 72.501 -60s32 -61 40 -102s12 -89.833 12 -146.5v-1376h-205v1376v64.5
c0 17 -1.5 30.833 -4.5 41.5s-7.83301 18.167 -14.5 22.5s-16.667 6.5 -30 6.5c-22 0 -48.5 -7.16699 -79.5 -21.5s-64.833 -34 -101.5 -59s-75.5 -54.333 -116.5 -88s-82.5 -69.834 -124.5 -108.501s-83.5 -79.167 -124.5 -121.5l-116.5 -125.5l-72 -83
c-20.667 -24 -38.334 -46.5 -53.001 -67.5s-27 -41.667 -37 -62s-17.833 -42.5 -23.5 -66.5s-9.66699 -50.833 -12 -80.5s-3.5 -64.167 -3.5 -103.5v-524h-205v508c0 41.333 0.333008 78 1 110s2.83398 61.167 6.50098 87.5s9 50.666 16 72.999s17 44.666 30 66.999
s29.5 45.833 49.5 70.5s44.333 52.334 73 83.001l79.5 85.5c23.667 25 44.834 48.333 63.501 70s34.667 42.834 48 63.501s24.333 43.167 33 67.5s15.167 51.333 19.5 81s6.5 64.167 6.5 103.5c-13.333 -23.333 -30.333 -42.166 -51 -56.499s-42.834 -25.5 -66.501 -33.5
s-47.5 -13.333 -71.5 -16s-45.667 -4 -65 -4c-17.333 0 -36.666 1.83301 -57.999 5.5s-43.5 10.167 -66.5 19.5s-45.833 21.833 -68.5 37.5s-43.5 35.334 -62.5 59.001s-35.333 51.667 -49 84s-22.834 70.166 -27.501 113.499h189c2.66699 -24.667 8.66699 -48 18 -70
s22 -41.5 38 -58.5s35.167 -30.5 57.5 -40.5s48.5 -15 78.5 -15c28 0 53.833 4.5 77.5 13.5s44.5 21.5 62.5 37.5s32.5 35.333 43.5 58s18.167 47.667 21.5 75h188v-241z" />
    <glyph glyph-name="thophuthaothai" unicode="&#xe12;" horiz-adv-x="2761" 
d="M1384 1065c0 52 -4.16406 101.168 -12.4971 147.501s-21.666 88.5 -39.999 126.5s-42.666 71.667 -72.999 101s-67.5 53 -111.5 71l-254 -258c-2 -2 -1.33301 -3 2 -3s4 1 2 3l-283 258c-42 -20 -77.333 -44.833 -106 -74.5s-51.834 -63.167 -69.501 -100.5
s-30.334 -78.833 -38.001 -124.5s-11.5 -94.5 -11.5 -146.5v-819l459 565h-184v143h413v-135l-667 -819h-226v1032c0 50.667 3 100.834 9 150.501s16 97.334 30 143.001s32.667 89 56 130s52.666 77.833 87.999 110.5s77 60.834 125 84.501s103.667 41.5 167 53.5l230 -238
l217 238c95.333 -16.667 174.166 -46.667 236.499 -90s111.666 -95.333 147.999 -156s61.833 -127.667 76.5 -201s22 -148.333 22 -225v-344c0 -76.667 9.83301 -148.334 29.5 -215.001s49 -124.834 88 -174.501s87.333 -88.667 145 -117s124.5 -42.5 200.5 -42.5
c56 0 104.167 10.167 144.5 30.5s73.5 48.5 99.5 84.5s45.167 78.833 57.5 128.5s18.5 103.834 18.5 162.501v1134h204v-1101c0 -84 -7.5 -163.333 -22.5 -238s-40.833 -139.834 -77.5 -195.501s-86.167 -99.834 -148.5 -132.501s-140.5 -49 -234.5 -49
c-52 0 -102 5 -150 15s-93.5 26.667 -136.5 50s-83.333 54.166 -121 92.499s-72.5 85.5 -104.5 141.5l-8 -262h-189v1065z" />
    <glyph glyph-name="nonenthai" unicode="&#xe13;" horiz-adv-x="2658" 
d="M1282 1053c0 40 -3.16602 80.1689 -9.49902 120.502s-16.833 79 -31.5 116s-34.167 71.667 -58.5 104s-54.5 60.333 -90.5 84s-78.5 42.5 -127.5 56.5s-105.5 21.333 -169.5 22c-83.333 1.33301 -155.5 -9.16699 -216.5 -31.5s-112.333 -51 -154 -86
s-74.334 -73.833 -98.001 -116.5s-39.5 -83.334 -47.5 -122.001c26.667 -14 48.5 -31.667 65.5 -53s30.333 -45.5 40 -72.5s16.334 -56.333 20.001 -88s5.5 -65.5 5.5 -101.5v-733h188v-152h-393v889c0 30 -0.833008 58.667 -2.5 86s-6.83398 53.666 -15.501 78.999
s-22.167 50.166 -40.5 74.499s-43.833 48.166 -76.5 71.499c11.333 42 26.833 84.167 46.5 126.5s44 82.666 73 120.999s62.833 74.166 101.5 107.499s83 62.166 133 86.499s105.667 43.5 167 57.5s129.333 21 204 21c90 0 169.667 -9 239 -27s129.5 -43 180.5 -75
s94 -69.833 129 -113.5s63 -91.667 84 -144s36.167 -107.666 45.5 -165.999s14 -117.833 14 -178.5v-471c0 -58.667 6 -112.834 18 -162.501s31 -92.5 57 -128.5s59.167 -64.167 99.5 -84.5s88.5 -30.5 144.5 -30.5c76 0 142.833 14.167 200.5 42.5s106 67.333 145 117
s68.333 107.834 88 174.501s29.5 138.334 29.5 215.001v991h205v-1679h-188l-9 262c-32 -56 -66.833 -103.167 -104.5 -141.5s-78 -69.166 -121 -92.499s-88.5 -40 -136.5 -50s-98 -15 -150 -15c-94 0 -172 16.333 -234 49s-111.5 76.834 -148.5 132.501
s-63 120.834 -78 195.501s-22.5 154 -22.5 238v475z" />
    <glyph glyph-name="dodekthai" unicode="&#xe14;" horiz-adv-x="1778" 
d="M389 246l471.005 573h-192v135h413v-135l-675 -819h-222v995c0 63.333 4.66699 125.166 14 185.499s24.666 117 45.999 170s49.666 101.667 84.999 146s79.166 82.5 131.499 114.5s113.833 56.833 184.5 74.5s152 26.5 244 26.5s173.333 -8.83301 244 -26.5
s132.167 -42.5 184.5 -74.5s96 -70.167 131 -114.5s63.333 -93 85 -146s37 -109.667 46 -170s13.5 -122.166 13.5 -185.499v-995h-204v1024c0 43.333 -3 86.5 -9 129.5s-16.5 84 -31.5 123s-34.833 75 -59.5 108s-55.5 61.667 -92.5 86s-80.833 43.333 -131.5 57
s-109.334 20.5 -176.001 20.5c-67.333 0 -126.333 -6.83301 -177 -20.5s-94.5 -32.667 -131.5 -57s-67.833 -53 -92.5 -86s-44.334 -69 -59.001 -108s-25 -80 -31 -123s-9 -86.167 -9 -129.5v-778z" />
    <glyph glyph-name="totaothai" unicode="&#xe15;" horiz-adv-x="1806" 
d="M410 0l-225.997 -0.00292969v1032c0 50.667 3 100.834 9 150.501s16 97.334 30 143.001s32.667 89 56 130s52.666 77.833 87.999 110.5s77 60.834 125 84.501s103.667 41.5 167 53.5l246 -238l234 238c95.333 -16.667 174.166 -46.667 236.499 -90
s111.666 -95.333 147.999 -156s61.833 -127.667 76.5 -201s22 -148.333 22 -225v-1032h-205v1065c0 52 -4.16699 101.167 -12.5 147.5s-21.666 88.5 -39.999 126.5s-42.666 71.667 -72.999 101s-67.5 53 -111.5 71l-271 -258c-4 -4 -8 -4 -12 0l-283 258
c-42 -20 -77.333 -44.833 -106 -74.5s-51.834 -63.167 -69.501 -100.5s-30.334 -78.833 -38.001 -124.5s-11.5 -94.5 -11.5 -146.5v-819l479 573h-188v135h414v-135z" />
    <glyph glyph-name="thothungthai" unicode="&#xe16;" horiz-adv-x="1720" 
d="M422 147l187.998 -0.000976562v-147h-393v897c0 30 -1.33301 59.667 -4 89s-8.5 57.333 -17.5 84s-22.5 51.167 -40.5 73.5s-42.333 41.166 -73 56.499c16 64.667 42.167 127.834 78.5 189.501s84.333 116.667 144 165s132 87.333 217 117s184.167 44.5 297.5 44.5
c94.667 0 178.334 -9 251.001 -27s135.5 -43 188.5 -75s97.333 -69.833 133 -113.5s64.167 -91.667 85.5 -144s36.5 -107.666 45.5 -165.999s13.5 -117.833 13.5 -178.5v-1012h-205v1049c0 40 -3 80.167 -9 120.5s-16.5 79 -31.5 116s-35 71.667 -60 104
s-56.5 60.333 -94.5 84s-83.167 42.5 -135.5 56.5s-112.833 21.333 -181.5 22c-88 0.666992 -163.667 -11 -227 -35s-116.166 -54 -158.499 -90s-75 -74.167 -98 -114.5s-37.833 -76.5 -44.5 -108.5c45.333 -26.667 78.5 -66.667 99.5 -120s31.5 -117 31.5 -191v-746z" />
    <glyph glyph-name="thothahanthai" unicode="&#xe17;" horiz-adv-x="1741" 
d="M389 1679v-274c40 64.667 82.5 117 127.5 157s92.667 71.167 143 93.5s103.166 37.333 158.499 45s113 11.5 173 11.5c101.333 0 187.833 -14.667 259.5 -44s130.167 -70.833 175.5 -124.5s78.333 -118 99 -193s31 -157.833 31 -248.5v-1102h-204v1102
c0 140.667 -32.5 248.167 -97.5 322.5s-165.167 111.5 -300.5 111.5c-97.333 0 -181.5 -15.167 -252.5 -45.5s-129.667 -71.833 -176 -124.5s-80.666 -114.667 -102.999 -186s-33.5 -148 -33.5 -230v-950h-205v1679h205z" />
    <glyph glyph-name="thothongthai" unicode="&#xe18;" horiz-adv-x="1585" 
d="M365 782v-310.997c0 -65.333 12.833 -120 38.5 -164s59 -79.333 100 -106s87.5 -45.667 139.5 -57s104 -17 156 -17c31.333 0 63.833 1.83301 97.5 5.5s66.667 10 99 19s63 21.333 92 37s54.5 35.5 76.5 59.5s39.333 53 52 87s19 73.667 19 119
c0 26.667 -1.66699 51.667 -5 75s-10.666 45.833 -21.999 67.5s-28 42.667 -50 63s-51.833 41 -89.5 62s-84.5 42.5 -140.5 64.5s-123.667 45.333 -203 70c-81.333 24.667 -156.833 50.334 -226.5 77.001s-129.834 57.167 -180.501 91.5s-90.167 74 -118.5 119
s-41.5 98.167 -39.5 159.5c0.666992 47.333 9.33398 90.166 26.001 128.499s39 72.666 67 102.999s60.833 56.666 98.5 78.999s77.834 40.833 120.501 55.5s86.667 25.5 132 32.5s89.666 10.5 132.999 10.5c90 0 173.833 -9.33301 251.5 -28s145.667 -47.5 204 -86.5
s105 -88.333 140 -148s55.167 -130.5 60.5 -212.5h-217c-6 55.333 -20.333 103 -43 143s-51.834 72.833 -87.501 98.5s-77.5 44.667 -125.5 57s-100.667 19.166 -158 20.499c-54 1.33301 -104.667 -4 -152 -16s-88.5 -29 -123.5 -51s-62.667 -48.167 -83 -78.5
s-30.5 -63.5 -30.5 -99.5c0 -30.667 8.5 -58.667 25.5 -84s39.167 -48.333 66.5 -69s58.333 -39.334 93 -56.001s69.334 -31.334 104.001 -44.001s68 -23.834 100 -33.501l82 -24.5c111.333 -32.667 205.5 -65 282.5 -97s139.5 -68.167 187.5 -108.5
s82.667 -87.166 104 -140.499s32 -117.666 32 -192.999c0 -87.333 -17.833 -162 -53.5 -224s-83.334 -112.667 -143.001 -152s-128.834 -68.166 -207.501 -86.499s-161 -27.5 -247 -27.5c-87.333 0 -169.666 9.33301 -246.999 28s-145 48.167 -203 88.5s-104 92 -138 155
s-51 139.167 -51 228.5v311h205z" />
    <glyph glyph-name="nonuthai" unicode="&#xe19;" horiz-adv-x="1741" 
d="M1352 0l0.00195312 273.999c-40 -64.667 -82.5 -117 -127.5 -157s-92.667 -71.167 -143 -93.5s-103.166 -37.333 -158.499 -45s-113 -11.5 -173 -11.5c-101.333 0 -187.833 14.667 -259.5 44s-130.167 70.833 -175.5 124.5s-78.5 118 -99.5 193
s-31.5 158.167 -31.5 249.5v1101h205v-1101c0 -141.333 32.333 -249.166 97 -323.499s164.667 -111.5 300 -111.5c97.333 0 181.666 15.167 252.999 45.5s130.166 71.833 176.499 124.5s80.666 114.667 102.999 186s33.5 148 33.5 230v950h204v-1679h-204z" />
    <glyph glyph-name="bobaimaithai" unicode="&#xe1a;" horiz-adv-x="1741" 
d="M872 123c63.333 0 119.168 7.16602 167.501 21.499s90.333 34.166 126 59.499s65.5 54.833 89.5 88.5s43.167 69.667 57.5 108s24.5 78.333 30.5 120s9 82.5 9 122.5v1036h204v-999c0 -60.667 -4 -120.5 -12 -179.5s-21.833 -115.167 -41.5 -168.5
s-46.167 -102.5 -79.5 -147.5s-75.333 -83.833 -126 -116.5s-111 -58.334 -181 -77.001s-151.333 -28 -244 -28c-94 0 -176.333 9.33301 -247 28s-131.5 44.334 -182.5 77.001s-93.167 71.5 -126.5 116.5s-59.833 94.167 -79.5 147.5s-33.334 109.5 -41.001 168.5
s-11.5 118.833 -11.5 179.5v999h205v-1036c0 -40.667 3 -81.667 9 -123s16.167 -81.166 30.5 -119.499s33.5 -74.333 57.5 -108s53.833 -63.167 89.5 -88.5s78 -45.166 127 -59.499s105.5 -21.5 169.5 -21.5z" />
    <glyph glyph-name="poplathai" unicode="&#xe1b;" horiz-adv-x="1749" 
d="M877 123c63.333 0 119.169 7.16602 167.502 21.499s90.5 34.166 126.5 59.499s66 54.833 90 88.5s43.333 69.667 58 108s25.167 78.333 31.5 120s9.5 82.5 9.5 122.5v1774h205v-1737c0 -60.667 -4.16699 -120.5 -12.5 -179.5s-22.5 -115.167 -42.5 -168.5
s-46.833 -102.5 -80.5 -147.5s-76 -83.833 -127 -116.5s-111.5 -58.334 -181.5 -77.001s-151.333 -28 -244 -28c-94.667 0 -177.334 9.33301 -248.001 28s-131.667 44.334 -183 77.001s-93.833 71.5 -127.5 116.5s-60.5 94.167 -80.5 147.5s-34 109.5 -42 168.5
s-12 118.833 -12 179.5v999h205v-1036c0 -40.667 3.16699 -81.667 9.5 -123s16.833 -81.166 31.5 -119.499s34.167 -74.333 58.5 -108s54.666 -63.167 90.999 -88.5s79 -45.166 128 -59.499s105.5 -21.5 169.5 -21.5z" />
    <glyph glyph-name="phophungthai" unicode="&#xe1c;" horiz-adv-x="1860" 
d="M184 1679l433.995 0.000976562v-143h-229v-1049c0 -69.333 4.83301 -127.166 14.5 -173.499s23.667 -83.333 42 -111s41 -47.167 68 -58.5s57.833 -17 92.5 -17c44.667 0 81.334 10.667 110.001 32s51.334 51 68.001 89s28 83.333 34 136s9 110.334 9 173.001v258h205
v-258c0 -62.667 3.5 -120.334 10.5 -173.001s19.333 -98 37 -136s41.667 -67.667 72 -89s68.5 -32 114.5 -32c34 0 63.667 5.66699 89 17s46.5 30.833 63.5 58.5s29.833 64.667 38.5 111s13 104.166 13 173.499v1192h205v-1224c0 -83.333 -9.16699 -155.333 -27.5 -216
s-43.666 -110.834 -75.999 -150.501s-70.833 -69.167 -115.5 -88.5s-93 -29 -145 -29c-35.333 0 -70.833 2.5 -106.5 7.5s-70.167 16.167 -103.5 33.5s-65 42.833 -95 76.5s-56.667 79.167 -80 136.5c-17.333 -56 -39.166 -100.833 -65.499 -134.5
s-55.5 -59.334 -87.5 -77.001s-66.167 -29.167 -102.5 -34.5s-72.833 -8 -109.5 -8c-54 0 -104.167 9.66699 -150.5 29s-86.166 48.833 -119.499 88.5s-59.5 89.834 -78.5 150.501s-28.5 132.667 -28.5 216v1224z" />
    <glyph glyph-name="fofathai" unicode="&#xe1d;" horiz-adv-x="1860" 
d="M184 1679l433.995 0.000976562v-143h-229v-1049c0 -69.333 4.83301 -127.166 14.5 -173.499s23.667 -83.333 42 -111s41 -47.167 68 -58.5s57.833 -17 92.5 -17c44.667 0 81.334 10.667 110.001 32s51.334 51 68.001 89s28 83.333 34 136s9 110.334 9 173.001v258h205
v-258c0 -62.667 3.5 -120.334 10.5 -173.001s19.333 -98 37 -136s41.667 -67.667 72 -89s68.5 -32 114.5 -32c34 0 63.667 5.66699 89 17s46.5 30.833 63.5 58.5s29.833 64.667 38.5 111s13 104.166 13 173.499v1930h205v-1962c0 -83.333 -9.16699 -155.333 -27.5 -216
s-43.666 -110.834 -75.999 -150.501s-70.833 -69.167 -115.5 -88.5s-93 -29 -145 -29c-35.333 0 -70.833 2.5 -106.5 7.5s-70.167 16.167 -103.5 33.5s-65 42.833 -95 76.5s-56.667 79.167 -80 136.5c-17.333 -56 -39.166 -100.833 -65.499 -134.5
s-55.5 -59.334 -87.5 -77.001s-66.167 -29.167 -102.5 -34.5s-72.833 -8 -109.5 -8c-54 0 -104.167 9.66699 -150.5 29s-86.166 48.833 -119.499 88.5s-59.5 89.834 -78.5 150.501s-28.5 132.667 -28.5 216v1224z" />
    <glyph glyph-name="phophanthai" unicode="&#xe1e;" horiz-adv-x="2097" 
d="M1167 1679l328 -1446l299 1446h221l-389 -1679h-250l-327 1442l-340 -1442h-250l-377 1679h221l279 -1446l336 1446h249z" />
    <glyph glyph-name="fofanthai" unicode="&#xe1f;" horiz-adv-x="2097" 
d="M1167 1679l328 -1446l467 2184h221l-557 -2417h-250l-327 1442l-340 -1442h-250l-377 1679h221l279 -1446l336 1446h249z" />
    <glyph glyph-name="phosamphaothai" unicode="&#xe20;" horiz-adv-x="1757" 
d="M1368 1049c0 40 -3.00195 80.166 -9.00195 120.499s-16.667 79 -32 116s-35.666 71.667 -60.999 104s-57.166 60.333 -95.499 84s-84.166 42.5 -137.499 56.5s-115 21.333 -185 22c-90 0.666992 -167.333 -11 -232 -35s-118.334 -54 -161.001 -90
s-75.5 -74.167 -98.5 -114.5s-38.167 -76.5 -45.5 -108.5c45.333 -26.667 78.5 -66.667 99.5 -120s31.5 -117 31.5 -191v-893h-381v152h177v745c0 30 -1.33301 59.667 -4 89s-8.66699 57.333 -18 84s-23 51.167 -41 73.5s-42.333 41.166 -73 56.499
c16.667 64.667 43.167 127.834 79.5 189.501s84.5 116.667 144.5 165s133 87.333 219 117s187 44.5 303 44.5c96 0 180.667 -9 254 -27s136.833 -43 190.5 -75s98.5 -69.833 134.5 -113.5s64.833 -91.667 86.5 -144s37 -107.666 46 -165.999s13.5 -117.833 13.5 -178.5
v-1012h-205v1049z" />
    <glyph glyph-name="momathai" unicode="&#xe21;" horiz-adv-x="1741" 
d="M184 0v1679h205v-950c0 -82 11.167 -158.667 33.5 -230s56.666 -133.333 102.999 -186s105 -94.167 176 -124.5s155.167 -45.5 252.5 -45.5c135.333 0 235.5 37.167 300.5 111.5s97.5 182.166 97.5 323.499v1101h204v-1101c0 -91.333 -10.333 -174.5 -31 -249.5
s-53.667 -139.333 -99 -193s-103.833 -95.167 -175.5 -124.5s-158.167 -44 -259.5 -44c-60 0 -117.667 3.83301 -173 11.5s-108.166 22.667 -158.499 45s-98 53.5 -143 93.5s-87.5 92.333 -127.5 157v-274h-205z" />
    <glyph glyph-name="yoyakthai" unicode="&#xe22;" horiz-adv-x="1675" 
d="M139 1307c0 50 6.33203 93.832 18.999 131.499s29.834 70.334 51.501 98.001s46.834 50.667 75.501 69s59 32.833 91 43.5s64.5 18.334 97.5 23.001s64.833 7 95.5 7h189v-155h-115c-15.333 0 -33 -0.333008 -53 -1s-40.833 -3.16699 -62.5 -7.5s-43 -11.166 -64 -20.499
s-39.667 -22.5 -56 -39.5s-29.666 -38.667 -39.999 -65s-15.5 -58.5 -15.5 -96.5c0 -49.333 7.66699 -91.5 23 -126.5s36.833 -64.167 64.5 -87.5s60.167 -41.166 97.5 -53.499s78 -19.833 122 -22.5h99v-160h-99c-46 -2 -87.833 -10.167 -125.5 -24.5s-70 -35 -97 -62
s-47.833 -60.333 -62.5 -100s-22 -85.5 -22 -137.5c0 -67.333 12.833 -126 38.5 -176s60 -91.333 103 -124s92.667 -57 149 -73s115.166 -24 176.499 -24c70 0 133.833 9 191.5 27s107.167 47.167 148.5 87.5s73.5 93.166 96.5 158.499s34.5 145 34.5 239v1044h201v-1101
c0 -100.667 -17.5 -189.334 -52.5 -266.001s-82.833 -140.834 -143.5 -192.501s-131.834 -90.667 -213.501 -117s-169.167 -39.5 -262.5 -39.5c-58 0 -115.167 4.66699 -171.5 14s-109.833 23.833 -160.5 43.5s-97.5 44.334 -140.5 74.001s-80.167 64.667 -111.5 105
s-55.833 86.166 -73.5 137.499s-26.5 108.333 -26.5 171c0 44.667 4 88.167 12 130.5s22.333 81.5 43 117.5s49 68.333 85 97s82.333 51.667 139 69c-65.333 21.333 -116.5 47.5 -153.5 78.5s-64.5 63.833 -82.5 98.5s-29 70 -33 106s-6 70 -6 102z" />
    <glyph glyph-name="roruathai" unicode="&#xe23;" horiz-adv-x="1413" 
d="M1067 1164c-2 66 -13.0029 122.661 -33.0029 169.994s-46.667 86 -80 116s-72 52 -116 66s-91 21 -141 21c-38 0 -77.5 -5.16699 -118.5 -15.5s-78.333 -26.833 -112 -49.5s-61.5 -52 -83.5 -88s-33 -79.667 -33 -131c0 -48 10.333 -87.667 31 -119
s46.5 -56.666 77.5 -75.999s64.833 -34.666 101.5 -45.999s70.667 -21 102 -29l231 -60c62 -16 118.833 -35.667 170.5 -59s95.834 -52.5 132.501 -87.5s65.167 -77.333 85.5 -127s30.5 -109.5 30.5 -179.5c0 -60 -8.5 -114 -25.5 -162s-40.333 -90.333 -70 -127
s-64.334 -68 -104.001 -94s-82.167 -47.167 -127.5 -63.5s-92.166 -28.333 -140.499 -36s-95.833 -11.5 -142.5 -11.5c-88 0 -168.833 11.5 -242.5 34.5s-137.834 58.833 -192.501 107.5s-98.834 110.5 -132.501 185.5s-54.167 164.167 -61.5 267.5h204
c4 -70 17.833 -131.667 41.5 -185s54.834 -98 93.501 -134s83.334 -63.167 134.001 -81.5s105.334 -27.5 164.001 -27.5c26.667 0 55.167 2.33301 85.5 7s60.166 12.167 89.499 22.5s57.5 23.666 84.5 39.999s50.833 36 71.5 59s37.167 49.833 49.5 80.5
s18.5 65.334 18.5 104.001c0 46.667 -8.16699 85.5 -24.5 116.5s-38.333 57 -66 78s-60 38 -97 51s-75.833 24.833 -116.5 35.5l-225 55c-58.667 14.667 -114.334 33.334 -167.001 56.001s-98.667 51.834 -138 87.501s-70.666 79.334 -93.999 131.001
s-35 113.834 -35 186.501c0 55.333 8.16699 105 24.5 149s38.5 82.833 66.5 116.5s60.833 62.334 98.5 86.001s77.834 43 120.501 58s86.834 26 132.501 33s90.5 10.5 134.5 10.5c74.667 0 145.167 -11.833 211.5 -35.5s124.5 -58.334 174.5 -104.001
s89.5 -102.167 118.5 -169.5s43.5 -145 43.5 -233h-204z" />
    <glyph glyph-name="ruthai" unicode="&#xe24;" horiz-adv-x="1708" 
d="M410 147l187.997 -0.000976562v-147h-393v897c0 30 -1.33301 59.667 -4 89s-8.5 57.333 -17.5 84s-22.5 51.167 -40.5 73.5s-42.333 41.166 -73 56.499c16 64.667 42.167 127.834 78.5 189.501s84.333 116.667 144 165s131.834 87.333 216.501 117s184 44.5 298 44.5
c94.667 0 178.167 -9 250.5 -27s135 -43 188 -75s97.333 -69.833 133 -113.5s64.334 -91.667 86.001 -144s37 -107.666 46 -165.999s13.5 -117.833 13.5 -178.5v-1557h-205v1594c0 40 -3 80.167 -9 120.5s-16.5 79 -31.5 116s-35 71.667 -60 104s-56.5 60.333 -94.5 84
s-83.167 42.5 -135.5 56.5s-112.833 21.333 -181.5 22c-88 0.666992 -163.667 -11 -227 -35s-116.166 -54 -158.499 -90s-75 -74.167 -98 -114.5s-37.833 -76.5 -44.5 -108.5c45.333 -26.667 78.5 -66.667 99.5 -120s31.5 -117 31.5 -191v-746z" />
    <glyph glyph-name="lolingthai" unicode="&#xe25;" horiz-adv-x="1667" 
d="M1278 838c-27.333 3.33301 -61.999 5.99902 -103.999 7.99902s-88 2.16699 -138 0.5s-102.667 -5.66699 -158 -12s-109.666 -15.833 -162.999 -28.5s-104.166 -29.167 -152.499 -49.5s-90.833 -45 -127.5 -74s-65.834 -63.167 -87.501 -102.5
s-32.5 -84.666 -32.5 -135.999c0 -66.667 11.5 -121.5 34.5 -164.5s52.667 -77 89 -102s77.333 -42.333 123 -52s91.5 -14.5 137.5 -14.5c25.333 0 50.833 1 76.5 3s48.5 5.66699 68.5 11v-141c-35.333 -8.66699 -68.333 -15 -99 -19s-64.667 -6 -102 -6
c-74 0 -144 9 -210 27s-123.833 46.167 -173.5 84.5s-89 87.333 -118 147s-43.5 131.167 -43.5 214.5c0 72.667 12.5 136.834 37.5 192.501s58.833 104 101.5 145s92.334 75.5 149.001 103.5s116.834 50.833 180.501 68.5s129 31 196 40s131.833 15.167 194.5 18.5
s121.667 4.33301 177 3s103.333 -3.33301 144 -6v215c0 51.333 -5.66699 95.5 -17 132.5s-27 68.167 -47 93.5s-43.5 45.833 -70.5 61.5s-56.333 27.667 -88 36s-64.834 13.833 -99.501 16.5s-69.334 4 -104.001 4c-66.667 0 -127.667 -5.16699 -183 -15.5
s-103.666 -28.5 -144.999 -54.5s-74.666 -61.167 -99.999 -105.5s-41 -100.5 -47 -168.5h-209c8 94 32.167 173 72.5 237s92.166 115.5 155.499 154.5s135.666 66.833 216.999 83.5s167.666 25 258.999 25c48.667 0 97.5 -2.83301 146.5 -8.5s96.167 -15.5 141.5 -29.5
s87.666 -32.667 126.999 -56s73.5 -52.5 102.5 -87.5s51.833 -76.333 68.5 -124s25 -102.834 25 -165.501v-1241h-205v838z" />
    <glyph glyph-name="luthai" unicode="&#xe26;" horiz-adv-x="1757" 
d="M1368 1049c0 40 -3.00195 80.166 -9.00195 120.499s-16.667 79 -32 116s-35.666 71.667 -60.999 104s-57.166 60.333 -95.499 84s-84.166 42.5 -137.499 56.5s-115 21.333 -185 22c-90 0.666992 -167.333 -11 -232 -35s-118.334 -54 -161.001 -90
s-75.5 -74.167 -98.5 -114.5s-38.167 -76.5 -45.5 -108.5c45.333 -26.667 78.5 -66.667 99.5 -120s31.5 -117 31.5 -191v-893h-381v152h177v745c0 30 -1.33301 59.667 -4 89s-8.66699 57.333 -18 84s-23 51.167 -41 73.5s-42.333 41.166 -73 56.499
c16.667 64.667 43.167 127.834 79.5 189.501s84.5 116.667 144.5 165s133 87.333 219 117s187 44.5 303 44.5c96 0 180.667 -9 254 -27s136.833 -43 190.5 -75s98.5 -69.833 134.5 -113.5s64.833 -91.667 86.5 -144s37 -107.666 46 -165.999s13.5 -117.833 13.5 -178.5
v-1557h-205v1594z" />
    <glyph glyph-name="wowaenthai" unicode="&#xe27;" horiz-adv-x="1462" 
d="M1143 848c0 126 -10.332 233.665 -30.999 322.998s-50.334 162.5 -89.001 219.5s-85.667 98.833 -141 125.5s-117.333 40 -186 40c-50 0 -97.333 -8.5 -142 -25.5s-84.667 -42.167 -120 -75.5s-65 -75 -89 -125s-40.667 -108.333 -50 -175h-213
c7.33301 82.667 27.333 158.5 60 227.5s75.667 128.167 129 177.5s116 87.666 188 114.999s151 41 237 41c112.667 0 210.667 -20.167 294 -60.5s152.333 -98 207 -173s95.5 -166 122.5 -273s40.5 -227.5 40.5 -361.5c0 -133.333 -13.667 -254.333 -41 -363
s-68.5 -201.667 -123.5 -279s-124 -137.166 -207 -179.499s-180.5 -63.5 -292.5 -63.5c-86 0 -165 13.5 -237 40.5s-134.667 65 -188 114s-96.333 108 -129 177s-52.667 145.5 -60 229.5h213c9.33301 -66.667 26.5 -125.167 51.5 -175.5s55.333 -92.5 91 -126.5
s75.667 -59.667 120 -77s90.5 -26 138.5 -26c68 0 129.5 14.333 184.5 43s102 72.834 141 132.501s69 135.334 90 227.001s31.5 200.5 31.5 326.5z" />
    <glyph glyph-name="sosalathai" unicode="&#xe28;" horiz-adv-x="1765" 
d="M1319 1606c50 -34 91.833 -73.6699 125.5 -119.003s60.667 -94.166 81 -146.499s34.666 -107.5 42.999 -165.5s12.5 -116.667 12.5 -176v-999h-205v1040c0 39.333 -3.33301 79.5 -10 120.5s-17.5 80.333 -32.5 118s-35 73.167 -60 106.5s-55.667 62.333 -92 87
s-79 44.167 -128 58.5s-105.167 21.5 -168.5 21.5c-64 0 -120.833 -7.16699 -170.5 -21.5s-92.834 -33.833 -129.501 -58.5s-67.5 -53.667 -92.5 -87s-45.167 -68.833 -60.5 -106.5s-26.333 -77 -33 -118s-10 -81.167 -10 -120.5v-405c32 68.667 69.5 124.5 112.5 167.5
s89.5 76.667 139.5 101s102.667 41 158 50s111.333 13.5 168 13.5v-164c-99.333 0 -185.333 -15.833 -258 -47.5s-132.667 -76.5 -180 -134.5s-82.5 -128.167 -105.5 -210.5s-34.5 -174.166 -34.5 -275.499v-135h-205v999c0 60 4.16699 119.5 12.5 178.5
s22.833 115 43.5 168s48.167 102.167 82.5 147.5s77.5 84.5 129.5 117.5s113.5 58.833 184.5 77.5s153.833 28 248.5 28c49.333 0 95.5 -2.83301 138.5 -8.5s84.167 -13.834 123.5 -24.501c34.667 0 66 5.33301 94 16s52.5 24.834 73.5 42.501s38.5 37.5 52.5 59.5
s24 44.333 30 67h225c-4 -24.667 -12.667 -49.667 -26 -75s-32.166 -49.666 -56.499 -72.999s-54.666 -44.833 -90.999 -64.5s-79.5 -36.167 -129.5 -49.5z" />
    <glyph glyph-name="sorusithai" unicode="&#xe29;" horiz-adv-x="1757" 
d="M852 864l-0.000976562 275h201v-131h315v671h205v-671h160v-144h-160v-184c0 -60 -3.83301 -119.333 -11.5 -178s-21.167 -114.5 -40.5 -167.5s-45.666 -101.833 -78.999 -146.5s-75.666 -83.5 -126.999 -116.5s-112.666 -58.667 -183.999 -77
s-154.666 -27.5 -249.999 -27.5c-96.667 0 -180.834 9.16699 -252.501 27.5s-133.334 44 -185.001 77s-94.167 71.833 -127.5 116.5s-59.833 93.5 -79.5 146.5s-33.334 108.833 -41.001 167.5s-11.5 118 -11.5 178v999h201v-1036c0 -40.667 2.66699 -81.5 8 -122.5
s14.833 -80.667 28.5 -119s32.334 -74.166 56.001 -107.499s54 -62.333 91 -87s81.167 -44.167 132.5 -58.5s111.333 -21.5 180 -21.5c68 0 127.333 7.16699 178 21.5s94 33.833 130 58.5s65.667 53.667 89 87s41.666 69.166 54.999 107.499s22.5 78 27.5 119
s7.5 81.833 7.5 122.5v221h-516z" />
    <glyph glyph-name="sosuathai" unicode="&#xe2a;" horiz-adv-x="1667" 
d="M1483 0l-204.998 -0.00390625v838c-27.333 3.33301 -62 6 -104 8s-88 2.16699 -138 0.5s-102.667 -5.66699 -158 -12s-109.666 -15.833 -162.999 -28.5s-104.166 -29.167 -152.499 -49.5s-90.833 -45 -127.5 -74s-65.834 -63.167 -87.501 -102.5
s-32.5 -84.666 -32.5 -135.999c0 -66.667 11.5 -121.5 34.5 -164.5s52.667 -77 89 -102s77.333 -42.333 123 -52s91.5 -14.5 137.5 -14.5c25.333 0 50.833 1 76.5 3s48.5 5.66699 68.5 11v-141c-35.333 -8.66699 -68.333 -15 -99 -19s-64.667 -6 -102 -6
c-74 0 -144 9 -210 27s-123.833 46.167 -173.5 84.5s-89 87.333 -118 147s-43.5 131.167 -43.5 214.5c0 72.667 12.5 136.834 37.5 192.501s58.833 104 101.5 145s92.334 75.5 149.001 103.5s116.834 50.833 180.501 68.5s129 31 196 40s131.833 15.167 194.5 18.5
s121.667 4.33301 177 3s103.333 -3.33301 144 -6v215c0 51.333 -5.66699 95.5 -17 132.5s-27 68.167 -47 93.5s-43.5 45.833 -70.5 61.5s-56.333 27.667 -88 36s-64.834 13.833 -99.501 16.5s-69.334 4 -104.001 4c-66.667 0 -127.667 -5.16699 -183 -15.5
s-103.666 -28.5 -144.999 -54.5s-74.666 -61.167 -99.999 -105.5s-41 -100.5 -47 -168.5h-209c8 94 32.167 173 72.5 237s92.166 115.5 155.499 154.5s135.666 66.833 216.999 83.5s167.666 25 258.999 25c43.333 0 86.166 -2.16699 128.499 -6.5
s84.166 -11.833 125.499 -22.5c34.667 0 66.167 5.33301 94.5 16s53 24.834 74 42.501s38.333 37.5 52 59.5s23.5 44.333 29.5 67h226c-4 -24.667 -12.667 -49.667 -26 -75s-32 -49.666 -56 -72.999s-54 -44.833 -90 -64.5s-78.333 -36.167 -127 -49.5
c26.667 -17.333 51 -37.833 73 -61.5s41 -50.667 57 -81s28.333 -64 37 -101s13 -77.5 13 -121.5v-1241z" />
    <glyph glyph-name="hohipthai" unicode="&#xe2b;" horiz-adv-x="1692" 
d="M389 1679l0.000976562 -749.001l864 749h283l-385 -319c78 -24.667 140.333 -56.667 187 -96s82.5 -84.833 107.5 -136.5s41.5 -109 49.5 -172s12 -130.167 12 -201.5v-754h-204v791c0 54 -4.66699 105.667 -14 155s-25.333 93.833 -48 133.5
s-53.334 72.834 -92.001 99.501s-87 44.667 -145 54l-615 -541v-692h-205v1679h205z" />
    <glyph glyph-name="lochulathai" unicode="&#xe2c;" horiz-adv-x="2077" 
d="M1581 0l-167.999 0.00195312l-364 1155l-402 -1155h-168l-397 1679h221l279 -1364l385 1139h168l356 -1139l197 815l21.5 97.5c7 33 11.333 65 13 96s0 60.667 -5 89s-16 53.833 -33 76.5s-40.667 42 -71 58s-69.833 27.333 -118.5 34v107
c53.333 4 101.666 11.667 144.999 23s81 27.833 113 49.5s58.5 48.834 79.5 81.501s35.5 72.667 43.5 120h250c-10 -48 -27 -92 -51 -132s-52.667 -74.833 -86 -104.5s-70.333 -53.834 -111 -72.501s-82.334 -30.334 -125.001 -35.001c46 -17.333 81.5 -42.5 106.5 -75.5
s42.333 -69.5 52 -109.5s12.834 -81.833 9.50098 -125.5s-10 -84.834 -20 -123.501z" />
    <glyph glyph-name="oangthai" unicode="&#xe2d;" horiz-adv-x="1663" 
d="M127 1212c21.333 74 51.668 142.003 91.001 204.003s87.666 115.5 144.999 160.5s124.333 80.167 201 105.5s163 38 259 38c133.333 0 246 -22 338 -66s166.667 -105 224 -183s98.833 -170.5 124.5 -277.5s38.5 -223.5 38.5 -349.5c0 -78.667 -5.66699 -155 -17 -229
s-29.333 -143.833 -54 -209.5s-56 -125.834 -94 -180.501s-83.833 -101.667 -137.5 -141s-115.167 -70 -184.5 -92s-147.333 -33 -234 -33c-87.333 0 -165.666 10.833 -234.999 32.5s-130.5 52.167 -183.5 91.5s-98.333 86.166 -136 140.499s-68.5 114.333 -92.5 180
s-41.5 135.667 -52.5 210s-16.5 151.166 -16.5 230.499v57h675v-143h-467c0 -95.333 12.667 -182.166 38 -260.499s60.5 -145.5 105.5 -201.5s98.5 -99.5 160.5 -130.5s130 -46.5 204 -46.5c78.667 0 149.667 16.167 213 48.5s117.166 79.5 161.499 141.5
s78.333 138 102 228s35.5 192.333 35.5 307c0 472 -172 708 -516 708c-59.333 0 -115.5 -8.16699 -168.5 -24.5s-101 -39.333 -144 -69s-79.5 -65.334 -109.5 -107.001s-51.667 -88.167 -65 -139.5h-209z" />
    <glyph glyph-name="honokhukthai" unicode="&#xe2e;" horiz-adv-x="1672" 
d="M127 1212c21.333 74 51.667 142 91 204s87.666 115.5 144.999 160.5s124.333 80.167 201 105.5s163 38 259 38c52 0 100.5 -3.66699 145.5 -11s88.167 -17.333 129.5 -30c32.667 3.33301 61.667 10.666 87 21.999s47 25.333 65 42s32.667 35.334 44 56.001
s19.666 42.334 24.999 65.001h233c-5.33301 -24 -14.166 -48.5 -26.499 -73.5s-30 -49.167 -53 -72.5s-52.167 -45.5 -87.5 -66.5s-78 -39.167 -128 -54.5c51.333 -38 95.333 -83.167 132 -135.5s66.834 -110.666 90.501 -174.999s41 -133.666 52 -207.999
s16.5 -152.5 16.5 -234.5c0 -78.667 -5.66699 -155 -17 -229s-29.333 -143.833 -54 -209.5s-56 -125.834 -94 -180.501s-83.833 -101.667 -137.5 -141s-115.167 -70 -184.5 -92s-147.333 -33 -234 -33c-87.333 0 -165.666 10.833 -234.999 32.5s-130.5 52.167 -183.5 91.5
s-98.333 86.166 -136 140.499s-68.5 114.333 -92.5 180s-41.5 135.667 -52.5 210s-16.5 151.166 -16.5 230.499v57h675v-143h-467c0 -95.333 12.667 -182.166 38 -260.499s60.5 -145.5 105.5 -201.5s98.5 -99.5 160.5 -130.5s130 -46.5 204 -46.5
c78.667 0 149.667 16.167 213 48.5s117.166 79.5 161.499 141.5s78.333 138 102 228s35.5 192.333 35.5 307c0 472 -172 708 -516 708c-59.333 0 -115.5 -8.16699 -168.5 -24.5s-101 -39.333 -144 -69s-79.5 -65.334 -109.5 -107.001s-51.667 -88.167 -65 -139.5h-209z" />
    <glyph glyph-name="paiyannoithai" unicode="&#xe2f;" horiz-adv-x="1675" 
d="M1286 0l0.00683594 930.002c-30.667 -44 -66.167 -81 -106.5 -111s-83.333 -54 -129 -72s-92.834 -31 -141.501 -39s-96.334 -12 -143.001 -12c-108.667 0 -203.834 12.5 -285.501 37.5s-149.834 60.833 -204.501 107.5s-95.834 102.667 -123.501 168
s-41.5 138.666 -41.5 219.999c0 56 7.5 106 22.5 150s35.167 82.667 60.5 116s55.166 61.666 89.499 84.999s71 42.333 110 57s79.167 25.334 120.5 32.001s81.666 10 120.999 10h201v-155h-201c-106.667 0 -185.167 -24.167 -235.5 -72.5s-75.5 -123.833 -75.5 -226.5
c0 -46 6.16699 -91.333 18.5 -136s34.5 -84.5 66.5 -119.5s75.5 -63.333 130.5 -85s125.167 -32.5 210.5 -32.5c88 0 165.333 8.5 232 25.5s122.5 43.167 167.5 78.5s79 80.666 102 135.999s34.5 121.333 34.5 198v389h205v-1679h-205z" />
    <glyph glyph-name="saraathai" unicode="&#xe30;" horiz-adv-x="909" 
d="M160 1176v270h188v-123h426v-147h-614zM160 295v266h188v-123h426v-143h-614z" />
    <glyph glyph-name="maihanakatthai" unicode="&#xe31;" 
d="M-1012 1987v294h189v-147h856v-147h-1045z" />
    <glyph glyph-name="saraaathai" unicode="&#xe32;" horiz-adv-x="1393" 
d="M61 1245c3.33301 78 22.0029 145.832 56.0029 203.499s78 105.834 132 144.501s115.167 67.5 183.5 86.5s138.5 28.5 210.5 28.5c80.667 0 155.5 -10.833 224.5 -32.5s128.833 -55 179.5 -100s90.167 -101.667 118.5 -170s42.5 -149.166 42.5 -242.499v-1163h-204v1106
c0 78 -7.83301 145 -23.5 201s-38.834 102.167 -69.501 138.5s-68.334 63.166 -113.001 80.499s-96.334 26 -155.001 26c-50 0 -95.833 -6.5 -137.5 -19.5s-78 -32.5 -109 -58.5s-56.167 -58.167 -75.5 -96.5s-32 -82.5 -38 -132.5h-222z" />
    <glyph glyph-name="saraamthai" unicode="&#xe33;" horiz-adv-x="1393" 
d="M61 1245c3.33301 78 22.0029 145.832 56.0029 203.499s78 105.834 132 144.501s115.167 67.5 183.5 86.5s138.5 28.5 210.5 28.5c80.667 0 155.5 -10.833 224.5 -32.5s128.833 -55 179.5 -100s90.167 -101.667 118.5 -170s42.5 -149.166 42.5 -242.499v-1163h-204v1106
c0 78 -7.83301 145 -23.5 201s-38.834 102.167 -69.501 138.5s-68.334 63.166 -113.001 80.499s-96.334 26 -155.001 26c-50 0 -95.833 -6.5 -137.5 -19.5s-78 -32.5 -109 -58.5s-56.167 -58.167 -75.5 -96.5s-32 -82.5 -38 -132.5h-222zM-565.997 2241
c0 38 6.66699 73.168 20 105.501s31.666 60.333 54.999 84s50.666 42.334 81.999 56c31.333 13.667 65 20.5 101 20.5c38 0 73.167 -6.83301 105.5 -20.5s60.333 -32.334 84 -56.001s42.334 -51.667 56.001 -84s20.5 -67.5 20.5 -105.5c0 -36 -6.83301 -69.667 -20.5 -101
s-32.334 -58.833 -56.001 -82.5s-51.667 -42.167 -84 -55.5s-67.5 -20 -105.5 -20c-36 0 -69.667 6.66699 -101 20s-58.666 31.833 -81.999 55.5s-41.666 51.167 -54.999 82.5s-20 65 -20 101zM-426.997 2241c0 -16.667 3.16699 -32.167 9.5 -46.5
s14.833 -26.833 25.5 -37.5s23.167 -19.167 37.5 -25.5s29.833 -9.5 46.5 -9.5c18 0 34.833 3.16699 50.5 9.5s29.167 14.833 40.5 25.5s20.166 23.167 26.499 37.5s9.5 29.833 9.5 46.5c0 18 -3.16699 34.833 -9.5 50.5s-15.166 29 -26.499 40s-24.833 19.667 -40.5 26
s-32.5 9.5 -50.5 9.5c-16.667 0 -32.167 -3.16699 -46.5 -9.5s-26.833 -15 -37.5 -26s-19.167 -24.333 -25.5 -40s-9.5 -32.5 -9.5 -50.5z" />
    <glyph glyph-name="saraithai" unicode="&#xe34;" 
d="M-1544 1987l74 147h1286v-147h-1360z" />
    <glyph glyph-name="saraiithai" unicode="&#xe35;" 
d="M-1470 2134h1097v262h189v-409h-1360z" />
    <glyph glyph-name="sarauethai" unicode="&#xe36;" 
d="M-1565 1987l74 147h823c-8 14.667 -14.667 32.334 -20 53c-5.33301 20.667 -8 41.334 -8 62c0 36.667 6.83301 71.167 20.5 103.5s32.5 60.5 56.5 84.5s51.833 43 83.5 57s65.5 21 101.5 21c38 0 73.167 -7 105.5 -21s60.333 -33 84 -57s42.334 -52.167 56.001 -84.5
s20.5 -66.833 20.5 -103.5c0 -37.333 -6.83301 -71.833 -20.5 -103.5s-32.334 -59.334 -56.001 -83c-23.667 -23.667 -51.667 -42.167 -84 -55.5s-67.5 -20 -105.5 -20h-1131zM-561 2249c0 -17.333 3.33301 -33.833 10 -49.5s15.667 -29.167 27 -40.5
s24.833 -20.333 40.5 -27s32.167 -10 49.5 -10s33.666 3.33301 48.999 10s28.833 15.667 40.5 27s20.834 24.833 27.501 40.5s10 32.167 10 49.5s-3.33301 33.666 -10 49c-6.66699 15.333 -15.834 28.833 -27.501 40.5s-25.167 20.834 -40.5 27.5
c-15.333 6.66699 -31.666 10 -48.999 10s-33.833 -3.33301 -49.5 -10s-29.167 -15.834 -40.5 -27.5c-11.333 -11.667 -20.333 -25.167 -27 -40.5s-10 -31.666 -10 -49z" />
    <glyph glyph-name="saraueethai" unicode="&#xe37;" 
d="M-1470 2134h671v262h185v-262h245v262h185v-409h-1360z" />
    <glyph glyph-name="sarauthai" unicode="&#xe38;" 
d="M-377 -766v414h-147v135h340v-549h-193z" />
    <glyph glyph-name="sarauuthai" unicode="&#xe39;" 
d="M-1163 -217l347.999 -0.00195312v-172c0 -82.667 17.833 -144.334 53.5 -185.001s91.5 -61 167.5 -61c74.667 0 128.834 20.333 162.501 61s50.5 102.334 50.5 185.001v172h197v-172c0 -51.333 -7.16699 -99.833 -21.5 -145.5s-37.666 -85.667 -69.999 -120
s-74.5 -61.5 -126.5 -81.5s-116 -30 -192 -30c-74.667 0 -138.334 8.66699 -191.001 26s-95.5 43.333 -128.5 78s-57 77.834 -72 129.501s-22.5 111.834 -22.5 180.501h-155v135z" />
    <glyph glyph-name="phinthuthai" unicode="&#xe3a;" 
d="M-492 -360c0 22.667 4.5 44 13.5 64s21.167 37.667 36.5 53s33.166 27.5 53.499 36.5s41.833 13.5 64.5 13.5s44 -4.5 64 -13.5s37.333 -21.167 52 -36.5s26.334 -33 35.001 -53s13 -41.333 13 -64s-4.33301 -44 -13 -64s-20.334 -37.333 -35.001 -52
s-32 -26.334 -52 -35.001s-41.333 -13 -64 -13s-44.167 4.33301 -64.5 13s-38.166 20.334 -53.499 35.001s-27.5 32 -36.5 52s-13.5 41.333 -13.5 64z" />
    <glyph glyph-name="PUCR2005" unicode="&#xe3e;" 
 />
    <glyph glyph-name="bahtthai" unicode="&#xe3f;" horiz-adv-x="1905" 
d="M201 1955l585.003 -0.000976562v188h185v-188h65c56.667 0 112.167 -3.33301 166.5 -10s105.666 -17.667 153.999 -33s92.666 -35.333 132.999 -60s75.333 -54.834 105 -90.501s52.667 -77.667 69 -126s24.5 -103.5 24.5 -165.5c0 -49.333 -7.33301 -96.666 -22 -141.999
s-35.834 -87.166 -63.501 -125.499s-61 -72 -100 -101s-82.5 -51.5 -130.5 -67.5c58.667 -12 111.834 -32.167 159.501 -60.5s88.5 -63 122.5 -104s60.333 -87.833 79 -140.5s28 -109 28 -169c0 -32 -2.66699 -68 -8 -108s-16.5 -80.667 -33.5 -122
s-41.5 -81.833 -73.5 -121.5s-74.833 -75 -128.5 -106s-119.834 -55.833 -198.501 -74.5s-173 -28 -283 -28h-65v-204h-185v204h-585v1955zM971.003 928.999l-0.000976562 -753.001h65c70 -1.33301 136.333 4 199 16s117.834 32.833 165.501 62.5s85.5 69.834 113.5 120.501
s42 114 42 190c0 122 -45.167 213.167 -135.5 273.5s-218.5 90.5 -384.5 90.5h-65zM971.002 1779l-0.000976562 -674.001h65c76 0 141.667 8.33301 197 25s101.333 39.334 138 68.001s63.834 62.5 81.501 101.5s26.5 81.167 26.5 126.5c0 235.333 -147.667 353 -443 353h-65
zM410.001 175.997h376v753h-376v-753zM410.001 1105h376v674h-376v-674z" />
    <glyph glyph-name="saraethai" unicode="&#xe40;" horiz-adv-x="684" 
d="M242 0v1679h200v-1679h-200z" />
    <glyph glyph-name="saraaethai" unicode="&#xe41;" horiz-adv-x="1077" 
d="M692 0v1679h201v-1679h-201zM184 0v1679h201v-1679h-201z" />
    <glyph glyph-name="saraothai" unicode="&#xe42;" horiz-adv-x="774" 
d="M287 1929c0 48 -6.33398 90.833 -19.001 128.5s-30.167 69.667 -52.5 96s-48.666 47.5 -78.999 63.5s-63.5 26.667 -99.5 32l41 147h753l78 -143h-626c34 -14.667 64 -33.5 90 -56.5s47.833 -48.667 65.5 -77s31 -58.166 40 -89.5c9 -31.333 13.5 -62.333 13.5 -93v-1794
h184v-143h-389v1929z" />
    <glyph glyph-name="saraaimaimuanthai" unicode="&#xe43;" horiz-adv-x="774" 
d="M492 143h184.003v-143h-389v1552c0.666992 44 4 84.167 10 120.5s15 70 27 101s27.333 60.167 46 87.5s41.334 54.333 68.001 81l46.5 52.5c15.667 17 29.667 34 42 51s22.5 34.833 30.5 53.5s12 38.667 12 60c0 19.333 -2.66699 38.666 -8 58
c-5.33301 19.333 -15.5 36.833 -30.5 52.5s-36.167 28.334 -63.5 38c-27.333 9.66699 -63 14.5 -107 14.5c-36.667 0 -69.167 -6.33301 -97.5 -19s-52.5 -30.5 -72.5 -53.5s-35.833 -50.667 -47.5 -83s-19.5 -67.833 -23.5 -106.5h-189
c3.33301 70.667 17.166 131 41.499 181s56.166 90.667 95.499 122s84.166 54.333 134.499 69s103.166 22 158.499 22c54.667 0 105.334 -5.33301 152.001 -16s87.334 -27.834 122.001 -51.5c34.667 -23.667 61.834 -54.167 81.501 -91.5s29.5 -82.666 29.5 -136
c0 -20.667 -2.83301 -39.167 -8.5 -55.5s-13.834 -32.666 -24.501 -49c-10.667 -16.333 -23.834 -33.833 -39.501 -52.5l-54.5 -65c-34.667 -42 -60.834 -77.833 -78.501 -107.5s-30 -58 -37 -85s-10.5 -55.333 -10.5 -85v-107.5v-1409z" />
    <glyph glyph-name="saraaimaimalaithai" unicode="&#xe44;" horiz-adv-x="774" 
d="M287 1950c0 57.333 17.499 112.834 52.499 166.5c35 53.667 85.833 99.167 152.5 136.5h-627l78 143h753l45 -147c-34.667 -5.33301 -67.167 -15.5 -97.5 -30.5s-56.666 -35.167 -78.999 -60.5s-40 -56 -53 -92s-19.5 -77.333 -19.5 -124v-1799h180v-143h-385v1950z" />
    <glyph glyph-name="lakkhangyaothai" unicode="&#xe45;" horiz-adv-x="1352" 
d="M41 1245c2.66699 78 21.1689 145.832 55.502 203.499s78.5 105.834 132.5 144.501s115.167 67.5 183.5 86.5s138.5 28.5 210.5 28.5c80.667 0 155.5 -10.833 224.5 -32.5s128.667 -55 179 -100s89.833 -101.667 118.5 -170s43 -149.166 43 -242.499v-1708h-205v1651
c0 78 -7.83301 145 -23.5 201s-38.667 102.167 -69 138.5s-68 63.166 -113 80.499s-96.5 26 -154.5 26c-100.667 0 -182.834 -26 -246.501 -78s-101.834 -128.333 -114.501 -229h-221z" />
    <glyph glyph-name="maiyamokthai" unicode="&#xe46;" horiz-adv-x="1565" 
d="M303 1110c0.666992 -36 6.99512 -71.333 18.9951 -106s29 -65.667 51 -93s48.833 -49.5 80.5 -66.5s67.5 -25.5 107.5 -25.5h131v-155h-131c-127.333 0 -231 34.667 -311 104s-129.333 173.666 -148 312.999c-4 74 -0.333008 144.667 11 212s33.833 128.5 67.5 183.5
s80 101.833 139 140.5s134.167 66.334 225.5 83.001l221 -209l201 209c67.333 -6 124.833 -19.167 172.5 -39.5s87.667 -45.833 120 -76.5s57.833 -66 76.5 -106s32.834 -83 42.501 -129s15.834 -94 18.501 -144s4 -100.667 4 -152v-1598h-205v1635
c0 24.667 -0.333008 51.5 -1 80.5s-3.16699 58.333 -7.5 88s-10.666 58.667 -18.999 87s-20 54 -35 77s-34.167 42.333 -57.5 58s-51.666 25.834 -84.999 30.501l-217 -213c-2 -2 -5.33301 -3 -10 -3s-8 1 -10 3l-230 218c-45.333 -18.667 -82.666 -41.667 -111.999 -69
s-52.333 -58.5 -69 -93.5s-28 -73.333 -34 -115s-8 -85.834 -6 -132.501v4z" />
    <glyph glyph-name="maitaikhuthai" unicode="&#xe47;" 
d="M-1167 2294c0 -22 2.99512 -43.5 8.99512 -64.5s14.833 -39.833 26.5 -56.5s26.334 -30 44.001 -40s38.167 -15 61.5 -15c20 0 39.833 3.66699 59.5 11s38 18 55 32s31.833 31.167 44.5 51.5s21.667 43.5 27 69.5h124c9.33301 -49.333 30.166 -89 62.499 -119
s72.5 -45 120.5 -45c18 0 34.333 4.5 49 13.5s27.334 21.333 38.001 37s18.834 34.167 24.501 55.5s8.5 44.666 8.5 70h171c0 -45.333 -6.16699 -87.5 -18.5 -126.5s-30.666 -73 -54.999 -102s-54.666 -51.667 -90.999 -68s-78.166 -24.5 -125.499 -24.5
c-29.333 0 -56 3.33301 -80 10s-46.167 16 -66.5 28s-39 26.333 -56 43s-32.5 35 -46.5 55c-28 -38.667 -63.333 -71 -106 -97s-92.667 -39 -150 -39c-52.667 0 -98.667 9 -138 27s-72 42 -98 72s-45.5 64.333 -58.5 103s-19.5 78.334 -19.5 119c0 58 10.5 107.667 31.5 149
s49.167 75.166 84.5 101.5c35.333 26.333 76.333 45.666 123 58c46.667 12.333 95.667 18.5 147 18.5h817v-148l-803 1c-38 0 -70.667 -4.5 -98 -13.5s-49.833 -21.5 -67.5 -37.5s-30.5 -35 -38.5 -57s-12 -46 -12 -72z" />
    <glyph glyph-name="maiekthai" unicode="&#xe48;" 
d="M-373 3039h189v-426h-189v426z" />
    <glyph glyph-name="maithothai" unicode="&#xe49;" 
d="M-770 2613l0.000976562 258h-143v135h307v-249c76.667 0 141.167 7.5 193.5 22.5s95.333 34.333 129 58s59.667 50.334 78 80c18.333 29.667 32.166 59.167 41.499 88.5h201c-3.33301 -24 -11.333 -50.333 -24 -79s-30.167 -57.5 -52.5 -86.5
s-49.833 -57.167 -82.5 -84.5s-70.834 -51.666 -114.501 -73c-43.667 -21.333 -93.167 -38.333 -148.5 -51s-116.666 -19 -183.999 -19h-201z" />
    <glyph glyph-name="maitrithai" unicode="&#xe4a;" 
d="M-242 2613c-2 22.667 -4.83984 45.167 -8.50684 67.5s-9.16699 42.5 -16.5 60.5s-17.166 32.667 -29.499 44s-28.166 17 -47.499 17c-17.333 0 -32.166 -5.5 -44.499 -16.5s-22.5 -25.333 -30.5 -43s-13.833 -37.834 -17.5 -60.5c-3.66699 -22.667 -5.5 -45.667 -5.5 -69
h-148c0 24.667 -2 48.334 -6 71c-4 22.667 -10.167 42.834 -18.5 60.5c-8.33301 17.667 -18.666 31.667 -30.999 42s-26.5 15.5 -42.5 15.5c-18.667 0 -34.5 -5.66699 -47.5 -17s-23.333 -26 -31 -44s-12.667 -38.167 -15 -60.5s-2.5 -44.833 -0.5 -67.5h-168
c-5.33301 56.667 -1.83301 106.167 10.5 148.5s30 77.666 53 106c23 28.333 49.167 49.666 78.5 64c29.333 14.333 58.333 21.5 87 21.5c30 0 56.5 -3.83301 79.5 -11.5s43 -18.334 60 -32c17 -13.667 30.833 -29.667 41.5 -48s18.667 -38.166 24 -59.5
c4 21.333 11.833 41.166 23.5 59.5c11.667 18.333 26 34.333 43 48s36.333 24.334 58 32c21.667 7.66699 44.167 11.5 67.5 11.5c26.667 0 51.834 -4 75.501 -12s44.834 -20.333 63.501 -37s34.334 -38.334 47.001 -65c12.667 -26.667 21.667 -58.334 27 -95
c21.333 3.33301 43.166 11.5 65.499 24.5s42.5 30.667 60.5 53s32.5 49 43.5 80s16.167 65.833 15.5 104.5h188c0 -55.333 -11.167 -106.666 -33.5 -154c-22.333 -47.333 -50.666 -88.5 -84.999 -123.5s-72 -62.833 -113 -83.5s-79.833 -31.334 -116.5 -32h-156z" />
    <glyph glyph-name="maichattawathai" unicode="&#xe4b;" 
d="M-184 2834v-221h-197v221h-250v136h250v217h197v-217h258v-136h-258z" />
    <glyph glyph-name="thanthakhatthai" unicode="&#xe4c;" 
d="M-41 2687c-94.667 -6 -171 -30.833 -229 -74.5s-92.333 -104.834 -103 -183.5h-196c8 63.333 25.5 118.5 52.5 165.5s62.667 86.333 107 118s97.333 56.167 159 73.5s131.5 28 209.5 32v-131z" />
    <glyph glyph-name="nikhahitthai" unicode="&#xe4d;" 
d="M-566 2241c0 38 6.66699 73.167 20 105.5s31.666 60.333 54.999 84s50.666 42.334 81.999 56c31.333 13.667 65 20.5 101 20.5c38 0 73.167 -6.83301 105.5 -20.5s60.333 -32.334 84 -56c23.667 -23.667 42.334 -51.667 56.001 -84s20.5 -67.5 20.5 -105.5
c0 -36 -6.83301 -69.667 -20.5 -101s-32.334 -58.833 -56.001 -82.5s-51.667 -42.167 -84 -55.5s-67.5 -20 -105.5 -20c-36 0 -69.667 6.66699 -101 20s-58.666 31.833 -81.999 55.5s-41.666 51.167 -54.999 82.5s-20 65 -20 101zM-427 2241
c0 -16.667 3.16699 -32.167 9.5 -46.5s14.833 -26.833 25.5 -37.5s23.167 -19.167 37.5 -25.5s29.833 -9.5 46.5 -9.5c18 0 34.833 3.16699 50.5 9.5s29.167 14.833 40.5 25.5s20.166 23.167 26.499 37.5s9.5 29.833 9.5 46.5c0 18 -3.16699 34.833 -9.5 50.5
s-15.166 29 -26.499 40s-24.833 19.667 -40.5 26s-32.5 9.5 -50.5 9.5c-16.667 0 -32.167 -3.16699 -46.5 -9.5s-26.833 -15 -37.5 -26s-19.167 -24.333 -25.5 -40s-9.5 -32.5 -9.5 -50.5z" />
    <glyph glyph-name="yamakkanthai" unicode="&#xe4e;" 
d="M41 2486c-41.333 -2 -76 -8.16602 -104 -18.499s-50.667 -25.5 -68 -45.5s-29.833 -45 -37.5 -75s-11.5 -65.333 -11.5 -106v-5h-21c-47.333 0 -85.333 -6 -114 -18s-51.334 -29 -68.001 -51s-28.167 -48.333 -34.5 -79s-10.5 -64.334 -12.5 -101.001h-184
c0.666992 44.667 6 86.5 16 125.5s26.333 74.167 49 105.5s52.334 58.333 89.001 81s82 40 136 52c6 36.667 17.667 70.5 35 101.5s41 58.167 71 81.5s66.333 42.333 109 57s92.667 24.667 150 30v-135z" />
    <glyph glyph-name="fongmanthai" unicode="&#xe4f;" horiz-adv-x="2015" 
d="M131 840c0 80.667 10.5 158.167 31.5 232.5s50.5 144 88.5 209s83.667 124.167 137 177.5s112.5 99 177.5 137s134.833 67.5 209.5 88.5s152.334 31.5 233.001 31.5s158.167 -10.5 232.5 -31.5s144 -50.5 209 -88.5s124.167 -83.667 177.5 -137s99 -112.5 137 -177.5
s67.5 -134.667 88.5 -209s31.5 -151.833 31.5 -232.5s-10.5 -158.334 -31.5 -233.001s-50.5 -144.5 -88.5 -209.5s-83.667 -124.167 -137 -177.5s-112.5 -99 -177.5 -137s-134.667 -67.5 -209 -88.5s-151.833 -31.5 -232.5 -31.5s-158.334 10.5 -233.001 31.5
s-144.5 50.5 -209.5 88.5s-124.167 83.667 -177.5 137s-99 112.5 -137 177.5s-67.5 134.833 -88.5 209.5s-31.5 152.334 -31.5 233.001zM319 840c0 -63.333 8.16699 -124.333 24.5 -183s39.5 -113.5 69.5 -164.5s65.833 -97.5 107.5 -139.5s88.167 -77.833 139.5 -107.5
s106.333 -52.667 165 -69s119.667 -24.5 183 -24.5s124.333 8.16699 183 24.5s113.5 39.333 164.5 69s97.5 65.5 139.5 107.5s77.833 88.5 107.5 139.5s52.667 105.833 69 164.5s24.5 119.667 24.5 183s-8.16699 124.333 -24.5 183s-39.333 113.5 -69 164.5
s-65.5 97.5 -107.5 139.5s-88.5 77.833 -139.5 107.5s-105.833 52.667 -164.5 69s-119.667 24.5 -183 24.5s-124.333 -8.16699 -183 -24.5s-113.667 -39.333 -165 -69s-97.833 -65.5 -139.5 -107.5s-77.5 -88.5 -107.5 -139.5s-53.167 -105.833 -69.5 -164.5
s-24.5 -119.667 -24.5 -183zM516 840c0 67.333 13 130.833 39 190.5s61.167 111.667 105.5 156s96.333 79.5 156 105.5s123.5 39 191.5 39c67.333 0 130.833 -13 190.5 -39s111.667 -61.167 156 -105.5s79.5 -96.333 105.5 -156s39 -123.167 39 -190.5
c0 -68 -13 -131.833 -39 -191.5s-61.167 -111.667 -105.5 -156s-96.333 -79.5 -156 -105.5s-123.167 -39 -190.5 -39c-68 0 -131.833 13 -191.5 39s-111.667 61.167 -156 105.5s-79.5 96.333 -105.5 156s-39 123.5 -39 191.5zM688 840c0 -44 8.33301 -85.5 25 -124.5
s39.5 -73 68.5 -102s63 -51.833 102 -68.5s80.5 -25 124.5 -25s85.333 8.33301 124 25s72.5 39.5 101.5 68.5s51.833 63 68.5 102s25 80.5 25 124.5s-8.33301 85.333 -25 124s-39.5 72.5 -68.5 101.5s-62.833 51.833 -101.5 68.5s-80 25 -124 25s-85.5 -8.33301 -124.5 -25
s-73 -39.5 -102 -68.5s-51.833 -62.833 -68.5 -101.5s-25 -80 -25 -124z" />
    <glyph glyph-name="zerothai" unicode="&#xe50;" horiz-adv-x="1774" 
d="M1651 778c0 -102.667 -9.16699 -193.671 -27.5 -273.004s-44 -149 -77 -209s-72.833 -110.667 -119.5 -152s-98.167 -74.833 -154.5 -100.5s-117 -44.167 -182 -55.5s-132.167 -17 -201.5 -17c-70.667 0 -138.5 5.83301 -203.5 17.5s-125.833 30.334 -182.5 56.001
s-108.334 59.334 -155.001 101.001s-86.667 92.334 -120 152.001s-59.166 129.334 -77.499 209.001s-27.5 170.167 -27.5 271.5c0 105.333 17.5 201.166 52.5 287.499s85.333 160.166 151 221.499s145.834 108.666 240.501 141.999s202 50 322 50
c118.667 0 225.167 -16.667 319.5 -50s174.166 -80.666 239.499 -141.999s115.5 -135.166 150.5 -221.499s52.5 -182.166 52.5 -287.499zM1458 716.996c0 110.667 -15.5 204.667 -46.5 282s-72.5 140.333 -124.5 189s-112.333 84 -181 106s-141 33 -217 33
s-148.5 -11 -217.5 -33s-130 -57.333 -183 -106s-95.167 -111.667 -126.5 -189s-47 -171.333 -47 -282c0 -87.333 13.833 -167.333 41.5 -240s66.5 -135.167 116.5 -187.5s110.333 -93.166 181 -122.499s149 -44 235 -44s164 14.667 234 44s129.833 70.166 179.5 122.499
s88 114.833 115 187.5s40.5 152.667 40.5 240z" />
    <glyph glyph-name="onethai" unicode="&#xe51;" horiz-adv-x="1831" 
d="M823 -25c-46 0 -98.499 0.830078 -157.499 2.49707s-120.5 7.83398 -184.5 18.501s-128.5 27.334 -193.5 50.001s-126.833 55 -185.5 97l136 148c42 -28 84.167 -52 126.5 -72s86.666 -36.5 132.999 -49.5s95.5 -22.667 147.5 -29s108.667 -9.5 170 -9.5
c98 0 187.333 13.5 268 40.5s149.667 67.5 207 121.5s101.666 121.5 132.999 202.5s47 175.167 47 282.5c0 84 -10.5 159.833 -31.5 227.5s-53.667 125.334 -98 173.001s-101.166 84.334 -170.499 110.001s-152 38.5 -248 38.5c-78 0 -148.5 -9.5 -211.5 -28.5
s-116.833 -44.833 -161.5 -77.5s-79 -70.5 -103 -113.5s-36 -88.5 -36 -136.5c0 -43.333 7.5 -85.833 22.5 -127.5s39.833 -78.167 74.5 -109.5s80.5 -55 137.5 -71s127.5 -20 211.5 -12v-119c-28.667 -6 -54 -9.5 -76 -10.5s-44.333 -1.5 -67 -1.5
c-72.667 0 -140.834 10.167 -204.501 30.5s-119.334 49 -167.001 86s-85.167 81.667 -112.5 134s-41 110.833 -41 175.5c0 64 9.66699 121.833 29 173.5s46 97.334 80 137.001s74 73.834 120 102.501s95.833 52.167 149.5 70.5s110 31.833 169 40.5s118.167 13 177.5 13
c71.333 0 140.333 -5.5 207 -16.5s128.834 -28.333 186.501 -52s110.167 -54.167 157.5 -91.5s87.833 -81.833 121.5 -133.5s59.834 -111.334 78.501 -179.001s28 -143.834 28 -228.501c0 -120.667 -19.167 -230.667 -57.5 -330s-94.333 -184.333 -168 -255
s-164.5 -125.334 -272.5 -164.001s-231.667 -58 -371 -58z" />
    <glyph glyph-name="twothai" unicode="&#xe52;" horiz-adv-x="2052" 
d="M180 1229c0 48.667 -2.33984 91.1699 -7.00684 127.503s-12.334 67 -23.001 92s-24.834 44.5 -42.501 58.5s-39.834 23.667 -66.501 29l33 160c44.667 -3.33301 85.667 -14.333 123 -33s69.333 -45 96 -79s47.334 -75.833 62.001 -125.5s22 -107.167 22 -172.5v-668
c0 -68.667 14.667 -132.667 44 -192s73.333 -110.833 132 -154.5s132.334 -78 221.001 -103s192.334 -37.5 311.001 -37.5c112.667 0 208.5 12 287.5 36s143.333 56 193 96s85.834 85.833 108.501 137.5s34 105.167 34 160.5v451c0 46 -6.33301 86.167 -19 120.5
s-30 63.666 -52 87.999s-48 44.166 -78 59.499s-62.333 27 -97 35l-217 -205l-217 184c-25.333 0 -51.166 -5.5 -77.499 -16.5s-50.166 -27.5 -71.499 -49.5s-38.666 -49.667 -51.999 -83s-20 -72.333 -20 -117v-135c0 -43.333 0.833008 -85.166 2.5 -125.499
s8.16699 -76 19.5 -107s29.833 -56 55.5 -75s62.5 -28.5 110.5 -28.5h66v-131h-94c-56 0 -103.667 7.66699 -143 23s-72.333 35.666 -99 60.999s-47.667 54.333 -63 87s-27 66 -35 100s-13.333 67.333 -16 100s-4.33398 62 -5.00098 88v114c0 57.333 10.5 112 31.5 164
s50.667 98.833 89 140.5s84.5 77 138.5 106s113.667 49.167 179 60.5l197 -167l184 172c68.667 -5.33301 132.334 -19.833 191.001 -43.5s109.334 -54.167 152.001 -91.5s76.167 -80.833 100.5 -130.5s36.5 -103.167 36.5 -160.5v-435c0 -74.667 -9 -142.167 -27 -202.5
s-43.167 -114.333 -75.5 -162s-71.166 -89 -116.499 -124s-95.166 -64 -149.499 -87s-112.5 -40 -174.5 -51s-125.667 -16.5 -191 -16.5h-151c-134 0 -253.167 16.167 -357.5 48.5s-192.333 78.166 -264 137.499s-126 130.5 -163 213.5s-55.5 175.167 -55.5 276.5v582z" />
    <glyph glyph-name="threethai" unicode="&#xe53;" horiz-adv-x="1872" 
d="M659 1294c-18.667 0 -38.999 -3.49805 -60.999 -10.498s-44.5 -18.5 -67.5 -34.5s-45.167 -37 -66.5 -63s-40.333 -57.667 -57 -95s-30 -81.333 -40 -132s-15 -108.334 -15 -173.001v-127c0 -39.333 0.333008 -79.333 1 -120s3.33398 -80 8.00098 -118
s12.167 -73.667 22.5 -107s25.166 -62.333 44.499 -87s44 -44.167 74 -58.5s67.333 -21.5 112 -21.5c16.667 0 38.834 0.333008 66.501 1s58.834 3.33398 93.501 8.00098v-156c-16 -3.33301 -35 -6.16602 -57 -8.49902s-44.5 -4 -67.5 -5s-45.5 -1.5 -67.5 -1.5
s-41.333 1 -58 3c-62 8 -114.167 24.667 -156.5 50s-77.333 56 -105 92s-49 76.333 -64 121s-26 90.334 -33 137.001s-11 93 -12 139s-1.5 88.667 -1.5 128v127c0 112 12.167 209.167 36.5 291.5s59.5 151.5 105.5 207.5s102.167 99.833 168.5 131.5s141.5 52.5 225.5 62.5
l230 -209l249 213c89.333 -8 166.666 -27.833 231.999 -59.5s119.5 -71.834 162.5 -120.501s74.833 -103.834 95.5 -165.501s31 -126.834 31 -195.501v-938h-201v938c0 49.333 -7.5 95.666 -22.5 138.999s-35.833 81 -62.5 113s-58.334 57.333 -95.001 76
s-76.334 28 -119.001 28l-275 -217z" />
    <glyph glyph-name="fourthai" unicode="&#xe54;" horiz-adv-x="1855" 
d="M889 1294c-82 0 -156.17 -9.67383 -222.503 -29.0068s-122.666 -47.666 -168.999 -84.999s-82.166 -83.166 -107.499 -137.499s-38 -116.5 -38 -186.5v-213c0 -69.333 9.5 -133.833 28.5 -193.5s48.5 -111.167 88.5 -154.5s91 -77.333 153 -102s136 -37 222 -37h196
c-28.667 16 -55.667 35.333 -81 58s-47.5 48.334 -66.5 77.001s-34 60.334 -45 95.001s-16.5 72.667 -16.5 114c0 12.667 0.833008 28.834 2.5 48.501s6.16699 40.667 13.5 63s18.666 44.666 33.999 66.999s36.833 42.666 64.5 60.999s62.5 33.666 104.5 45.999
s93.333 19.5 154 21.5v-152c-50 -2 -88 -10 -114 -24s-44.5 -30.5 -55.5 -49.5s-16.833 -38.667 -17.5 -59s-1 -37.5 -1 -51.5c0 -30.667 5.33301 -59.667 16 -87s24.5 -52.666 41.5 -75.999s36.333 -44.5 58 -63.5s43.334 -35 65.001 -48s42.5 -23 62.5 -30
s37.333 -10.5 52 -10.5h393v-156h-901c-86 0 -161.833 9.16699 -227.5 27.5s-122.5 43.333 -170.5 75s-88.333 68.334 -121 110.001s-58.667 85.834 -78 132.501s-33.166 94.5 -41.499 143.5s-12.5 96.5 -12.5 142.5v176c0 110.667 18 206.5 54 287.5
s87.5 148.167 154.5 201.5s147.833 93 242.5 119s201 39 319 39h299c50.667 0 93.167 5.66699 127.5 17s62 27.5 83 48.5s36.333 46.333 46 76s15.5 63.167 17.5 100.5h209c-1.33301 -51.333 -8.83301 -101.166 -22.5 -149.499s-38 -91.166 -73 -128.499
s-82.833 -67.333 -143.5 -90s-138 -34 -232 -34h-344z" />
    <glyph glyph-name="fivethai" unicode="&#xe55;" horiz-adv-x="1855" 
d="M807 1556c0 -18 3.5 -35.167 10.5 -51.5s16.667 -30.666 29 -42.999s26.666 -22.166 42.999 -29.499s33.833 -11 52.5 -11s36.167 3.66699 52.5 11s30.666 17.166 42.999 29.499s22 26.666 29 42.999s10.5 33.5 10.5 51.5c0 18.667 -3.5 36.167 -10.5 52.5
s-16.667 30.666 -29 42.999s-26.666 22.166 -42.999 29.499s-33.833 11 -52.5 11s-36.167 -3.66699 -52.5 -11s-30.666 -17.166 -42.999 -29.499s-22 -26.666 -29 -42.999s-10.5 -33.833 -10.5 -52.5zM1167 1446c66 2 120.011 8.99316 162.011 20.9932
s75.167 28.667 99.5 50s41.166 47 50.499 77s14.666 64 15.999 102h209c-1.33301 -51.333 -8.83301 -101.333 -22.5 -150s-38 -92 -73 -130s-82.833 -68.5 -143.5 -91.5s-138 -34.5 -232 -34.5h-324c-76 0 -147.667 -7.83301 -215 -23.5s-126.333 -40.834 -177 -75.501
s-90.834 -79.5 -120.501 -134.5s-44.5 -121.833 -44.5 -200.5v-213c0 -68.667 9.5 -132.334 28.5 -191.001s48.5 -109.667 88.5 -153s91 -77.333 153 -102s136 -37 222 -37h196c-21.333 13.333 -44.333 29.833 -69 49.5s-47.334 43.334 -68.001 71.001
s-37.834 59.667 -51.501 96s-20.5 77.5 -20.5 123.5c0 12.667 0.833008 29 2.5 49s6.16699 41 13.5 63s18.666 44.333 33.999 67s36.833 43.334 64.5 62.001s62.5 34.334 104.5 47.001s93.333 20.334 154 23.001v-152c-50 -3.33301 -88 -12.166 -114 -26.499
s-44.5 -31.166 -55.5 -50.499s-16.833 -39.166 -17.5 -59.499s-1 -37.5 -1 -51.5c0 -27.333 5.33301 -54 16 -80s24.5 -50.5 41.5 -73.5s36.333 -44.167 58 -63.5s43.334 -36 65.001 -50s42.5 -24.833 62.5 -32.5s37.333 -11.5 52 -11.5h393v-160h-901
c-86 0 -161.833 9.16699 -227.5 27.5s-122.5 43.333 -170.5 75s-88.333 68.334 -121 110.001s-58.667 85.834 -78 132.501s-33.166 94.5 -41.499 143.5s-12.5 96.5 -12.5 142.5v180c0 100 13.667 187.5 41 262.5s66.166 138 116.499 189s110.666 91 180.999 120
s148.5 47.5 234.5 55.5c-4 4 -8.33301 10.167 -13 18.5s-9.16699 17.833 -13.5 28.5s-7.83301 22.167 -10.5 34.5s-4 24.5 -4 36.5c0 36 6.66699 69.667 20 101s31.666 58.833 54.999 82.5s50.666 42.167 81.999 55.5s65 20 101 20s69.667 -6.66699 101 -20
s58.666 -31.833 81.999 -55.5s41.666 -51.167 54.999 -82.5s20 -65 20 -101c0 -20 -2.33301 -39.167 -7 -57.5s-13.334 -35.833 -26.001 -52.5z" />
    <glyph glyph-name="sixthai" unicode="&#xe56;" horiz-adv-x="1851" 
d="M401 1311c28.667 14 64.6631 29.8271 107.996 47.4941s91 34.667 143 51s107 30.5 165 42.5s116 19.667 174 23c94 2.66699 177.5 -4.16602 250.5 -20.499s136.833 -40.333 191.5 -72s100.667 -69.5 138 -113.5s67.5 -92.167 90.5 -144.5s39.333 -108 49 -167
s14.167 -118.833 13.5 -179.5v-110c-5.33301 -60.667 -16.666 -120.334 -33.999 -179.001s-41 -114.167 -71 -166.5s-66.5 -100.333 -109.5 -144s-92.667 -81 -149 -112s-119.666 -54.667 -189.999 -71s-147.833 -23.166 -232.5 -20.499
c-94 3.33301 -180 17.166 -258 41.499s-145 57.333 -201 99s-99.333 90.5 -130 146.5s-46 117.333 -46 184c0 64.667 10.833 120.334 32.5 167.001s52.5 85 92.5 115s88.167 52 144.5 66s119.5 21 189.5 21h69v-127h-57c-55.333 0 -100.666 -6.33301 -135.999 -19
s-63.333 -30.167 -84 -52.5s-34.834 -49.166 -42.501 -80.499s-11.5 -65.333 -11.5 -102c0 -42 11 -81.167 33 -117.5s53 -68.166 93 -95.499s88.167 -49 144.5 -65s118.833 -24.333 187.5 -25c72.667 -1.33301 142.834 9.33398 210.501 32.001s127.5 56.5 179.5 101.5
s93.667 100.5 125 166.5s47 142 47 228v111c0 94 -11.667 175.5 -35 244.5s-57.166 125.833 -101.499 170.5s-98.5 77.334 -162.5 98.001s-136.333 30 -217 28c-61.333 -1.33301 -120.5 -7.16602 -177.5 -17.499s-112.667 -25.333 -167 -45s-107.833 -43.5 -160.5 -71.5
s-105.667 -60 -159 -96l-250 422l139 90z" />
    <glyph glyph-name="seventhai" unicode="&#xe57;" horiz-adv-x="2146" 
d="M1806 1286c0 65.333 7.33789 122.827 22.0049 172.494s35.334 91.5 62.001 125.5s58.5 60.333 95.5 79s78.167 29.667 123.5 33l33 -160c-26.667 -5.33301 -48.834 -15 -66.501 -29s-31.834 -33.5 -42.501 -58.5s-18.334 -55.667 -23.001 -92s-7 -78.833 -7 -127.5v-492
c0 -107.333 -10.333 -204 -31 -290s-55.167 -160.833 -103.5 -224.5s-112 -116.167 -191 -157.5s-176.833 -71.333 -293.5 -90l-167 131c38 43.333 67.167 85.333 87.5 126s35.166 82 44.499 124s14.833 86.167 16.5 132.5s2.5 96.5 2.5 150.5v152
c0 80 -7.33301 149.833 -22 209.5s-34.667 110 -60 151s-54.833 73.167 -88.5 96.5s-69.5 38.666 -107.5 45.999l-222 -221l-209 221c-34 -3.33301 -69 -15.166 -105 -35.499s-69 -51.166 -99 -92.499s-54.667 -93.666 -74 -156.999s-29 -139 -29 -227v-135
c0 -28 0.5 -59.667 1.5 -95s4.16699 -71.333 9.5 -108s13.5 -72.5 24.5 -107.5s26.5 -66.167 46.5 -93.5s45.333 -49.333 76 -66s68.334 -25 113.001 -25h19c8.66699 0 18.334 0.166992 29.001 0.5l31.5 1c10.333 0.333008 19.166 1.16602 26.499 2.49902l4 -156
c-12 -3.33301 -26.333 -6.16602 -43 -8.49902s-34.334 -4 -53.001 -5s-37.334 -1.5 -56.001 -1.5s-36.334 1 -53.001 3c-56.667 13.333 -105.334 33.5 -146.001 60.5s-74.834 58.333 -102.501 94s-50 74.334 -67 116.001s-30 84.334 -39 128.001s-14.833 87.167 -17.5 130.5
s-4 84 -4 122v139c0 106.667 12 200.834 36 282.501s58.667 151.5 104 209.5s101 104.333 167 139s141 58 225 70l184 -205l197 201c97.333 -12.667 178.333 -37.667 243 -75s116.334 -85.5 155.001 -144.5s66 -127.667 82 -206s24 -164.5 24 -258.5v-144
c0 -41.333 -1.83301 -83.333 -5.5 -126s-10.667 -85.5 -21 -128.5s-25.166 -86.167 -44.499 -129.5s-45 -86 -77 -128c84 26 151.333 58.833 202 98.5s89.5 84.334 116.5 134.001s44.833 103.167 53.5 160.5s13 116.333 13 177v581z" />
    <glyph glyph-name="eightthai" unicode="&#xe58;" horiz-adv-x="1810" 
d="M819 1282c-82 0 -152.331 -12 -210.998 -36s-107 -55.833 -145 -95.5s-66 -85.167 -84 -136.5s-27 -104 -27 -158v-332c0 -47.333 8.83301 -92.166 26.5 -134.499s40.834 -80 69.501 -113s61.167 -59.5 97.5 -79.5s72.833 -31 109.5 -33l254 217l271 -217
c40 0.666992 77.167 6.5 111.5 17.5s64.166 29.5 89.499 55.5s45.166 60.667 59.499 104s21.5 97.666 21.5 162.999c0 30 -2.33301 61.333 -7 94s-13.834 62.667 -27.501 90s-33.167 49.833 -58.5 67.5s-58.333 26.5 -99 26.5h-53v131h53c56 0 104.333 -5.66699 145 -17
s75.334 -27 104.001 -47s51.834 -43.333 69.501 -70s31.5 -55.167 41.5 -85.5s16.667 -61.666 20 -93.999s5 -64.166 5 -95.499c0 -84 -9.5 -158.167 -28.5 -222.5s-48.667 -118.5 -89 -162.5s-91.833 -77.667 -154.5 -101s-137.334 -36 -224.001 -38l-250 208l-237 -208
c-86 8 -161.5 28 -226.5 60s-119.167 72.5 -162.5 121.5s-76 104.5 -98 166.5s-33 127.333 -33 196v287c0 99.333 14.833 188.666 44.5 267.999s73.667 146.833 132 202.5s131.166 98.334 218.499 128.001s189 44.5 305 44.5h393c50 0 92.167 5.5 126.5 16.5
s62 26.667 83 47s36.667 45.166 47 74.499s16.5 62.666 18.5 99.999h204c-0.666992 -34 -4 -67.833 -10 -101.5s-15.833 -65.667 -29.5 -96s-31.834 -58.5 -54.501 -84.5s-51.167 -48.5 -85.5 -67.5s-75.166 -33.833 -122.499 -44.5s-102.333 -16 -165 -16h-438z" />
    <glyph glyph-name="ninethai" unicode="&#xe59;" horiz-adv-x="1831" 
d="M1376 1479c51.333 0 92.9932 4.16797 124.993 12.501s57.167 21.333 75.5 39s30.833 40.167 37.5 67.5s10.667 60 12 98h201c-2 -32.667 -6 -64.667 -12 -96s-15.333 -61 -28 -89s-29.667 -53.833 -51 -77.5s-48.166 -44 -80.499 -61s-71.166 -30.167 -116.499 -39.5
s-98.333 -14 -159 -14h-24c-18.667 0 -34 -3.66699 -46 -11s-24 -17.333 -36 -30l-123 -131l545 -1147h-209l-488 1044c-21.333 44 -42.166 83.167 -62.499 117.5s-43.166 63.166 -68.499 86.499s-54.666 41 -87.999 53s-73.666 18 -120.999 18
c-44 0 -84.667 -8.33301 -122 -25s-69.833 -45.334 -97.5 -86.001s-49.167 -95.334 -64.5 -164.001s-23 -154.667 -23 -258v-168c0.666992 -32 2.66699 -65.667 6 -101s9.16602 -70.333 17.499 -105s19.5 -67.667 33.5 -99s31.833 -59 53.5 -83s47.667 -43 78 -57
s65.833 -21 106.5 -21c12.667 0 25.5 0.333008 38.5 1s28.833 3 47.5 7l25 -160c-29.333 -4 -62.666 -7.33301 -99.999 -10s-72.333 -2 -105 2c-61.333 7.33301 -113.833 22.5 -157.5 45.5s-80.5 51.333 -110.5 85s-53.667 71.5 -71 113.5s-30.666 85.833 -39.999 131.5
s-15.333 92.167 -18 139.5s-4 92.666 -4 135.999v131c0 114.667 8.66699 215.834 26 303.501s46 161.334 86 221.001s93 104.667 159 135s147.667 45.5 245 45.5c18 0 37.333 -0.333008 58 -1s41.334 -2.5 62.001 -5.5s41 -7.16699 61 -12.5s38.667 -12.666 56 -21.999
c13.333 -7.33301 26.333 -15.333 39 -24s25.167 -19 37.5 -31s25.166 -26.167 38.499 -42.5s27 -35.833 41 -58.5l184 180c2 2 5.83301 5.33301 11.5 10s11.5 7 17.5 7h102z" />
    <glyph glyph-name="angkhankhuthai" unicode="&#xe5a;" horiz-adv-x="2101" 
d="M1266 0l0.00488281 930.002c-30.667 -44 -66.167 -81 -106.5 -111s-83.333 -54 -129 -72s-92.834 -31 -141.501 -39s-96.667 -12 -144 -12c-108.667 0 -203.834 12.5 -285.501 37.5s-149.834 60.833 -204.501 107.5s-95.834 102.667 -123.501 168
s-41.5 138.666 -41.5 219.999c0 56 7.5 106 22.5 150s35.333 82.667 61 116s55.667 61.666 90 84.999s70.833 42.333 109.5 57s78.667 25.334 120 32.001s81.666 10 120.999 10h201v-155h-201c-106.667 0 -185.167 -24.167 -235.5 -72.5s-75.5 -123.833 -75.5 -226.5
c0 -46 6.16699 -91.333 18.5 -136s34.5 -84.5 66.5 -119.5s75.5 -63.333 130.5 -85s125.167 -32.5 210.5 -32.5c88 0 165.5 8.5 232.5 25.5s123 43.167 168 78.5s79 80.666 102 135.999s34.5 121.333 34.5 198v389h204v-1679h-204zM1737 0.00195312h200v1679h-200v-1679z
" />
    <glyph glyph-name="khomutthai" unicode="&#xe5b;" horiz-adv-x="3551" 
d="M2884 930l-112.502 -168.501c-37.667 -58.333 -74.167 -119.5 -109.5 -183.5c-32.667 66 -69.667 134.333 -111 205s-84.666 140 -130 208l-67.5 -97c-23.667 -34.667 -47.5 -72.167 -71.5 -112.5s-47.5 -83.666 -70.5 -129.999s-44.833 -95.5 -65.5 -147.5
c-19.333 46.667 -41.333 95 -66 145s-50.667 99.333 -78 148s-55.5 96.167 -84.5 142.5s-57.833 89.5 -86.5 129.5c-6 -108 -21.167 -209.167 -45.5 -303.5s-56.5 -181 -96.5 -260s-86.833 -149.5 -140.5 -211.5s-113 -114.5 -178 -157.5s-134.833 -75.833 -209.5 -98.5
s-153 -34 -235 -34c-89.333 0 -172 11.167 -248 33.5s-144.833 53.333 -206.5 93s-116 86.334 -163 140.001s-86.333 111.5 -118 173.5s-55.667 127.167 -72 195.5s-24.5 136.5 -24.5 204.5c0 73.333 7 145 21 215s34.667 135.667 62 197s61.333 117.666 102 168.999
s87.5 95.5 140.5 132.5s112.167 65.833 177.5 86.5s136.666 31 213.999 31c70.667 0 134.834 -7.33301 192.501 -22s108.667 -35 153 -61s82.666 -57.167 114.999 -93.5s59 -76.333 80 -120s36.5 -90.334 46.5 -140.001s15 -100.834 15 -153.501h-196
c0 60.667 -8.16699 115.5 -24.5 164.5s-40.166 90.833 -71.499 125.5s-70.333 61.334 -117 80.001s-100 28 -160 28c-84 0 -158.667 -15.833 -224 -47.5s-120.166 -76.5 -164.499 -134.5s-78.166 -127.5 -101.499 -208.5s-35 -170.833 -35 -269.5
c0 -84 14.333 -163.5 43 -238.5s69.834 -140.5 123.501 -196.5s118.667 -100.5 195 -133.5s162.166 -49.5 257.499 -49.5c90 0 170.333 12.667 241 38s133 61 187 107s100 101.167 138 165.5s69.333 135.333 94 213s43.5 160.834 56.5 249.501s21.167 180.334 24.5 275.001
l39.5 20.5l34.5 19.5l34.5 20l39.5 22c27.333 -32.667 55.666 -68.834 84.999 -108.501l87 -123c28.667 -42.333 55.834 -84.666 81.501 -126.999s48.834 -82.5 69.5 -120.5l146.5 237.5c45.667 71.667 87.167 133.167 124.5 184.5l53.5 -86.5l60.5 -104.5l62.5 -111.5
l60.5 -107.5l42 56l49.5 69l50.5 71c16.667 23.333 32.334 44 47 62h508l61 -98c20 -32.667 39 -65.334 57 -98.001h-589z" />
    <glyph glyph-name="ZWSP" unicode="&#x200b;" 
 />
    <glyph glyph-name="endash" unicode="&#x2013;" horiz-adv-x="1572" 
d="M0 684v180h1571v-180h-1571z" />
    <glyph glyph-name="emdash" unicode="&#x2014;" horiz-adv-x="1937" 
d="M0 684v180h1934v-180h-1934z" />
    <glyph glyph-name="quoteleft" unicode="&#x2018;" horiz-adv-x="778" 
d="M257 1313v306.997c0 40.667 4.16699 81.834 12.5 123.501s22.166 80.5 41.499 116.5s45.333 67.667 78 95s73.334 47.333 122.001 60v-142c-24.667 -10 -44.667 -23.833 -60 -41.5s-27.333 -37.667 -36 -60s-14.667 -46.166 -18 -71.499s-5 -50.666 -5 -75.999h119v-311
h-254z" />
    <glyph glyph-name="quoteright" unicode="&#x2019;" horiz-adv-x="778" 
d="M519 1999v-306.999c0 -41.333 -4.16699 -82.666 -12.5 -123.999s-22.166 -80 -41.499 -116s-45.333 -67.667 -78 -95s-73.334 -47.333 -122.001 -60v142c24.667 10 44.667 23.833 60 41.5s27.333 37.667 36 60s14.667 46.166 18 71.499s5 50.666 5 75.999h-119v311h254z
" />
    <glyph glyph-name="quotedblleft" unicode="&#x201c;" horiz-adv-x="1036" 
d="M168 1313v306.997c0 40.667 4.16699 81.834 12.5 123.501s22.166 80.5 41.499 116.5s45.333 67.667 78 95s73.334 47.333 122.001 60v-142c-24.667 -10 -44.667 -23.833 -60 -41.5s-27.333 -37.667 -36 -60s-14.667 -46.166 -18 -71.499s-5 -50.666 -5 -75.999h119v-311
h-254zM602 1313v306.997c0 40.667 4.16699 81.834 12.5 123.501s22.166 80.5 41.499 116.5s45.333 67.667 78 95s73.334 47.333 122.001 60v-142c-24.667 -10 -44.667 -23.833 -60 -41.5s-27.333 -37.667 -36 -60s-14.667 -46.166 -18 -71.499s-5 -50.666 -5 -75.999h119
v-311h-254z" />
    <glyph glyph-name="quotedblright" unicode="&#x201d;" horiz-adv-x="1036" 
d="M868 1999v-306.999c0 -41.333 -4.16699 -82.666 -12.5 -123.999s-22.166 -80 -41.499 -116s-45.333 -67.667 -78 -95s-73.334 -47.333 -122.001 -60v142c24.667 10 44.667 23.833 60 41.5s27.333 37.667 36 60s14.667 46.166 18 71.499s5 50.666 5 75.999h-119v311h254z
M434 1999v-306.999c0 -41.333 -4.16699 -82.666 -12.5 -123.999s-22.166 -80 -41.499 -116s-45.333 -67.667 -78 -95s-73.334 -47.333 -122.001 -60v142c24.667 10 44.667 23.833 60 41.5s27.333 37.667 36 60s14.667 46.166 18 71.499s5 50.666 5 75.999h-119v311h254z" />
    <glyph glyph-name="bullet" unicode="&#x2022;" horiz-adv-x="967" 
d="M123 823c0 50 9.33301 97 28 141s44.334 82.333 77.001 115s70.834 58.334 114.501 77.001s90.5 28 140.5 28s97 -9.33301 141 -28s82.333 -44.334 115 -77.001s58.334 -71 77.001 -115s28 -91 28 -141s-9.33301 -96.833 -28 -140.5s-44.334 -81.834 -77.001 -114.501
s-71 -58.334 -115 -77.001s-91 -28 -141 -28s-96.833 9.33301 -140.5 28s-81.834 44.334 -114.501 77.001s-58.334 70.834 -77.001 114.501s-28 90.5 -28 140.5z" />
    <glyph glyph-name="Euro" unicode="&#x20ac;" horiz-adv-x="2085" 
d="M1761 1366c-17.333 75.333 -44.8291 141.336 -82.4961 198.003s-82.667 103.834 -135 141.501s-110.833 66 -175.5 85s-133 28.5 -205 28.5c-106.667 0 -200.667 -16.333 -282 -49s-151.333 -76.834 -210 -132.501s-106.5 -120.334 -143.5 -194.001
s-64.167 -151.5 -81.5 -233.5h717v-128h-733c-2 -18.667 -3.16699 -36.834 -3.5 -54.501s-0.5 -34.5 -0.5 -50.5c0 -15.333 0.166992 -31.166 0.5 -47.499s1.5 -32.5 3.5 -48.5h733v-120h-717c15.333 -85.333 41 -166 77 -242s83.333 -142.667 142 -200
s129.167 -102.833 211.5 -136.5s177.833 -50.5 286.5 -50.5c91.333 0 173.666 15.333 246.999 46s136.5 73.167 189.5 127.5s95.667 118.666 128 192.999s53.166 155.166 62.499 242.499h205c-13.333 -122 -42 -231.333 -86 -328s-101.667 -178.5 -173 -245.5
s-155.166 -118.333 -251.499 -154s-203.5 -53.5 -321.5 -53.5c-137.333 0 -259.333 20.833 -366 62.5s-198.334 98.834 -275.001 171.501s-138.667 157.5 -186 254.5s-80 201.167 -98 312.5h-177v120h164c-2 16 -3.16699 32.167 -3.5 48.5s-0.5 32.166 -0.5 47.499
c0 16 0.166992 32.833 0.5 50.5s1.5 35.834 3.5 54.501h-164v128h181c19.333 108.667 52.833 210.834 100.5 306.501s109.834 178.834 186.501 249.501s167.667 126.5 273 167.5s225.666 61.5 360.999 61.5c63.333 0 126 -5.66699 188 -17s121.5 -28.5 178.5 -51.5
s110.167 -51.833 159.5 -86.5s93.166 -75.334 131.499 -122.001s70.166 -99.334 95.499 -158.001s42 -123.334 50 -194.001h-205z" />
    <glyph glyph-name="trademark" unicode="&#x2122;" horiz-adv-x="2734" 
d="M592 825v998h-367v132h885v-132h-362v-998h-156zM1297 825v1130h246l369 -898l356 898h246v-1130h-156l-4 970l-402 -970h-94l-405 970v-970h-156z" />
    <glyph glyph-name="uni25CC" unicode="&#x25cc;" horiz-adv-x="1868" 
d="M553 451l82 192c16.667 -26.667 35.5 -51.167 56.5 -73.5s45.833 -42.833 74.5 -61.5zM934 1323l90 -180c-28.667 6 -60 8 -94 6s-65.333 -8.33301 -94 -19zM934 291l-90.001 180c28.667 -8 56.334 -11.833 83.001 -11.5s57.667 5.5 93 15.5zM1450 807l-188 -86
c12 30.667 18.5 60.667 19.5 90s-1.5 59.333 -7.5 90zM417.999 811l184 94c-4 -28.667 -6.5 -58.5 -7.5 -89.5s1.5 -63.833 7.5 -98.5zM589.999 1171l188 -65c-60 -28.667 -106.333 -71 -139 -127zM1282 446l-184 57.998c26.667 18.667 50.5 38.334 71.5 59.001
s40.833 43.334 59.5 68.001zM1315 1171l-86 -196c-16.667 28.667 -37.167 53.667 -61.5 75s-48.833 41.333 -73.5 60z" />
    <glyph glyph-name="thothannobasethai" unicode="&#xf700;" horiz-adv-x="1503" 
d="M397 815l-216.996 0.00488281v143h373l274 -802l72.5 172.5l70.5 177.5c22.667 59.333 43.834 118 63.501 176s37.167 114 52.5 168s27.666 105 36.999 153s14.666 92 15.999 132c2 57.333 -3.66699 111 -17 161s-36 93.667 -68 131s-74.333 66.833 -127 88.5
s-117.334 32.5 -194.001 32.5c-129.333 0 -229.333 -26.333 -300 -79s-111.334 -127.334 -122.001 -224.001h-225c8 70 27.667 133.667 59 191s74.5 106.5 129.5 147.5s122.333 72.667 202 95s172.167 33.5 277.5 33.5c45.333 0 88.166 -2.83301 128.499 -8.5
s77.833 -13.834 112.5 -24.501c36.667 3.33301 69.667 10.666 99 21.999s54.5 25.5 75.5 42.5s37.833 36.167 50.5 57.5s21 43.666 25 66.999h225c-4 -23.333 -12.667 -47.833 -26 -73.5s-32.5 -50.5 -57.5 -74.5s-56.5 -46.333 -94.5 -67s-83.667 -37.667 -137 -51
c36 -26.667 66.333 -57.167 91 -91.5s44.834 -71.5 60.501 -111.5s26.667 -82.333 33 -127s9.16602 -90.334 8.49902 -137.001c-1.33301 -43.333 -7.66602 -92.166 -18.999 -146.499s-26.333 -112.5 -45 -174.5s-40.334 -126.833 -65.001 -194.5
s-51.167 -136.334 -79.5 -206.001l-89 -209.5l-92.5 -204h-270z" />
    <glyph glyph-name="yoyingnobasethai" unicode="&#xf70f;" horiz-adv-x="2658" 
d="M1282 1053c0 40 -3.16699 80.1729 -9.5 120.506s-16.833 79 -31.5 116s-34.167 71.667 -58.5 104s-54.5 60.333 -90.5 84s-78.5 42.5 -127.5 56.5s-105.5 21.333 -169.5 22c-83.333 1.33301 -155.5 -9.16699 -216.5 -31.5s-112.333 -51 -154 -86
s-74.334 -73.833 -98.001 -116.5s-39.5 -83.334 -47.5 -122.001c26.667 -14 48.5 -31.667 65.5 -53s30.333 -45.5 40 -72.5s16.334 -56.333 20.001 -88s5.5 -65.5 5.5 -101.5v-733h188v-152h-393v889c0 30 -0.833008 58.667 -2.5 86s-6.83398 53.666 -15.501 78.999
s-22.167 50.166 -40.5 74.499s-43.833 48.166 -76.5 71.499c11.333 42 26.833 84.167 46.5 126.5s44 82.666 73 120.999s62.833 74.166 101.5 107.499s83 62.166 133 86.499s105.667 43.5 167 57.5s129.333 21 204 21c90 0 169.667 -9 239 -27s129.5 -43 180.5 -75
s94 -69.833 129 -113.5s63 -91.667 84 -144s36.167 -107.666 45.5 -165.999s14 -117.833 14 -178.5v-471c0 -70.667 9.66699 -131.667 29 -183s46.333 -93.5 81 -126.5s75.834 -57.333 123.501 -73s99.5 -23.5 155.5 -23.5s108 7.83301 156 23.5s89.5 40 124.5 73
s62.5 75.167 82.5 126.5s30 112.333 30 183v1134h205v-1101c0 -93.333 -12.333 -177.833 -37 -253.5s-61.834 -140.334 -111.5 -194.001c-49.667 -53.667 -112 -95 -187 -124s-162.5 -43.5 -262.5 -43.5s-187.333 14.5 -262 43.5s-136.5 70.333 -185.5 124
s-85.667 118.334 -110 194.001s-36.5 160.167 -36.5 253.5v475z" />
    <glyph glyph-name="saraulowthai" unicode="&#xf718;" 
d="M-377 -1229v414h-147v135h340v-549h-193z" />
    <glyph glyph-name="sarauulowthai" unicode="&#xf719;" 
d="M-1163 -680l347.999 -0.00195312v-172c0 -82.667 17.833 -144.334 53.5 -185.001s91.5 -61 167.5 -61c74.667 0 128.834 20.333 162.501 61s50.5 102.334 50.5 185.001v172h197v-172c0 -51.333 -7.16699 -99.833 -21.5 -145.5s-37.666 -85.667 -69.999 -120
s-74.5 -61.5 -126.5 -81.5s-116 -30 -192 -30c-74.667 0 -138.334 8.66699 -191.001 26s-95.5 43.333 -128.5 78s-57 77.834 -72 129.501s-22.5 111.834 -22.5 180.501h-155v135z" />
    <glyph glyph-name="phinthulowthai" unicode="&#xf71a;" 
d="M-492 -836c0 22.667 4.5 44.167 13.5 64.5s21.167 38.166 36.5 53.499s33.166 27.5 53.499 36.5s41.833 13.5 64.5 13.5s44 -4.5 64 -13.5s37.333 -21.167 52 -36.5s26.334 -33.166 35.001 -53.499s13 -41.833 13 -64.5s-4.33301 -43.834 -13 -63.501
s-20.334 -36.834 -35.001 -51.501s-32 -26.334 -52 -35.001s-41.333 -13 -64 -13s-44.167 4.33301 -64.5 13s-38.166 20.334 -53.499 35.001s-27.5 31.834 -36.5 51.501s-13.5 40.834 -13.5 63.501z" />
    <glyph glyph-name="lochula.short" unicode="&#xf71d;" horiz-adv-x="2077" 
d="M1581 0l-167.999 0.00195312l-364 1155l-402 -1155h-168l-397 1679h221l279 -1364l385 1139h168l356 -1139l197 815l21.5 97.5c7 33 11.333 65 13 96s0 60.667 -5 89s-16 53.833 -33 76.5s-40.667 42 -71 58s-69.833 27.333 -118.5 34v107
c53.333 4 101.666 11.667 144.999 23s81 27.833 113 49.5s58.5 48.834 79.5 81.501s35.5 72.667 43.5 120h250c-10 -48 -27 -92 -51 -132s-52.667 -74.833 -86 -104.5s-70.333 -53.834 -111 -72.501s-82.334 -30.334 -125.001 -35.001c46 -17.333 81.5 -42.5 106.5 -75.5
s42.333 -69.5 52 -109.5s12.834 -81.833 9.50098 -125.5s-10 -84.834 -20 -123.501z" />
    <glyph glyph-name="yamakkanleftthai" 
d="M-500 2470c-49.333 -2 -89.3359 -8 -120.003 -18s-54.667 -24.833 -72 -44.5s-29.166 -44.334 -35.499 -74c-6.33301 -29.667 -9.5 -64.834 -9.5 -105.5v-4h-21c-47.333 0 -87.166 -5.5 -119.499 -16.5s-58.666 -26.667 -78.999 -47s-35.5 -45.166 -45.5 -74.5
c-10 -29.333 -16 -62.333 -18 -99h-184c2 90 29.167 165 81.5 225s132.833 102.333 241.5 127c12.667 73.333 50.667 133.5 114 180.5s152.333 75.5 267 85.5v-135z" />
    <glyph glyph-name="saraamleft" horiz-adv-x="1372" 
d="M41 1245c2.66699 78 21.1689 145.832 55.502 203.499s78.5 105.834 132.5 144.501s115.167 67.5 183.5 86.5s138.5 28.5 210.5 28.5c80.667 0 155.5 -10.833 224.5 -32.5s128.667 -55 179 -100s89.833 -101.667 118.5 -170s43 -149.166 43 -242.499v-1163h-205v1106
c0 78 -7.83301 145 -23.5 201s-38.667 102.167 -69 138.5s-68 63.166 -113 80.499s-96.5 26 -154.5 26c-100.667 0 -182.834 -26 -246.501 -78s-101.834 -128.333 -114.501 -229h-221zM-1085 2228c0 38 6.66699 73.168 20 105.501s31.666 60.5 54.999 84.5
s50.666 42.667 81.999 56s65 20 101 20c38 0 73.167 -6.66699 105.5 -20s60.333 -32 84 -56s42.334 -52.167 56.001 -84.5s20.5 -67.5 20.5 -105.5c0 -36 -6.83301 -69.667 -20.5 -101s-32.334 -58.666 -56.001 -82c-23.667 -23.333 -51.667 -41.666 -84 -54.999
s-67.5 -20 -105.5 -20c-36 0 -69.667 6.66699 -101 20s-58.666 31.666 -81.999 54.999s-41.666 50.666 -54.999 81.999s-20 65 -20 101zM-945.998 2228c0 -16 3.16699 -31.333 9.5 -46s14.833 -27.334 25.5 -38c10.667 -10.667 23.167 -19.167 37.5 -25.5
s29.833 -9.5 46.5 -9.5c18 0 34.833 3.16699 50.5 9.5s29.167 14.833 40.5 25.5s20.166 23.334 26.499 38c6.33301 14.667 9.5 30 9.5 46c0 18.667 -3.16699 35.667 -9.5 51s-15.166 28.666 -26.499 40c-11.333 11.333 -24.833 20.166 -40.5 26.5
c-15.667 6.33301 -32.5 9.5 -50.5 9.5c-16.667 0 -32.167 -3.16699 -46.5 -9.5s-26.833 -15.166 -37.5 -26.5c-10.667 -11.333 -19.167 -24.666 -25.5 -40c-6.33301 -15.333 -9.5 -32.333 -9.5 -51z" />
    </font>
</defs>
</svg>
